%TF.GenerationSoftware,KiCad,Pcbnew,5.1.9+dfsg1-1*%
%TF.CreationDate,2021-05-17T22:01:10+02:00*%
%TF.ProjectId,PIC32MXCubeV1,50494333-324d-4584-9375-626556312e6b,rev?*%
%TF.SameCoordinates,Original*%
%TF.FileFunction,Legend,Bot*%
%TF.FilePolarity,Positive*%
%FSLAX46Y46*%
G04 Gerber Fmt 4.6, Leading zero omitted, Abs format (unit mm)*
G04 Created by KiCad (PCBNEW 5.1.9+dfsg1-1) date 2021-05-17 22:01:10*
%MOMM*%
%LPD*%
G01*
G04 APERTURE LIST*
%ADD10C,0.120000*%
%ADD11C,0.304800*%
%ADD12C,0.150000*%
%ADD13C,0.203200*%
G04 APERTURE END LIST*
D10*
%TO.C,R3005*%
X159528742Y-93457500D02*
X160003258Y-93457500D01*
X159528742Y-94502500D02*
X160003258Y-94502500D01*
D11*
%TO.C,Y2002*%
X179324000Y-78232000D02*
X166624000Y-78232000D01*
X166624000Y-78232000D02*
X166624000Y-83312000D01*
X166624000Y-83312000D02*
X179324000Y-83312000D01*
X179324000Y-83312000D02*
X179324000Y-78232000D01*
D10*
%TO.C,C2001*%
X181469420Y-85850000D02*
X181750580Y-85850000D01*
X181469420Y-86870000D02*
X181750580Y-86870000D01*
%TO.C,C2002*%
X163957580Y-85850000D02*
X163676420Y-85850000D01*
X163957580Y-86870000D02*
X163676420Y-86870000D01*
%TO.C,R2001*%
X172482742Y-89393500D02*
X172957258Y-89393500D01*
X172482742Y-90438500D02*
X172957258Y-90438500D01*
%TO.C,U2002*%
X154570000Y-87716000D02*
X151620000Y-87716000D01*
X152770000Y-84496000D02*
X154570000Y-84496000D01*
%TO.C,U2003*%
X157478000Y-89860000D02*
X156018000Y-89860000D01*
X157478000Y-93020000D02*
X155318000Y-93020000D01*
X157478000Y-93020000D02*
X157478000Y-92090000D01*
X157478000Y-89860000D02*
X157478000Y-90790000D01*
%TO.C,Y2001*%
X166820000Y-83810000D02*
X179420000Y-83810000D01*
X179420000Y-83810000D02*
X179420000Y-88910000D01*
X179420000Y-88910000D02*
X166820000Y-88910000D01*
%TO.C,R3005*%
D12*
X161361238Y-95862380D02*
X161694571Y-95386190D01*
X161932666Y-95862380D02*
X161932666Y-94862380D01*
X161551714Y-94862380D01*
X161456476Y-94910000D01*
X161408857Y-94957619D01*
X161361238Y-95052857D01*
X161361238Y-95195714D01*
X161408857Y-95290952D01*
X161456476Y-95338571D01*
X161551714Y-95386190D01*
X161932666Y-95386190D01*
X161027904Y-94862380D02*
X160408857Y-94862380D01*
X160742190Y-95243333D01*
X160599333Y-95243333D01*
X160504095Y-95290952D01*
X160456476Y-95338571D01*
X160408857Y-95433809D01*
X160408857Y-95671904D01*
X160456476Y-95767142D01*
X160504095Y-95814761D01*
X160599333Y-95862380D01*
X160885047Y-95862380D01*
X160980285Y-95814761D01*
X161027904Y-95767142D01*
X159789809Y-94862380D02*
X159694571Y-94862380D01*
X159599333Y-94910000D01*
X159551714Y-94957619D01*
X159504095Y-95052857D01*
X159456476Y-95243333D01*
X159456476Y-95481428D01*
X159504095Y-95671904D01*
X159551714Y-95767142D01*
X159599333Y-95814761D01*
X159694571Y-95862380D01*
X159789809Y-95862380D01*
X159885047Y-95814761D01*
X159932666Y-95767142D01*
X159980285Y-95671904D01*
X160027904Y-95481428D01*
X160027904Y-95243333D01*
X159980285Y-95052857D01*
X159932666Y-94957619D01*
X159885047Y-94910000D01*
X159789809Y-94862380D01*
X158837428Y-94862380D02*
X158742190Y-94862380D01*
X158646952Y-94910000D01*
X158599333Y-94957619D01*
X158551714Y-95052857D01*
X158504095Y-95243333D01*
X158504095Y-95481428D01*
X158551714Y-95671904D01*
X158599333Y-95767142D01*
X158646952Y-95814761D01*
X158742190Y-95862380D01*
X158837428Y-95862380D01*
X158932666Y-95814761D01*
X158980285Y-95767142D01*
X159027904Y-95671904D01*
X159075523Y-95481428D01*
X159075523Y-95243333D01*
X159027904Y-95052857D01*
X158980285Y-94957619D01*
X158932666Y-94910000D01*
X158837428Y-94862380D01*
X157599333Y-94862380D02*
X158075523Y-94862380D01*
X158123142Y-95338571D01*
X158075523Y-95290952D01*
X157980285Y-95243333D01*
X157742190Y-95243333D01*
X157646952Y-95290952D01*
X157599333Y-95338571D01*
X157551714Y-95433809D01*
X157551714Y-95671904D01*
X157599333Y-95767142D01*
X157646952Y-95814761D01*
X157742190Y-95862380D01*
X157980285Y-95862380D01*
X158075523Y-95814761D01*
X158123142Y-95767142D01*
%TO.C,Y2002*%
D13*
X175393047Y-74391761D02*
X175393047Y-74996523D01*
X175816380Y-73726523D02*
X175393047Y-74391761D01*
X174969714Y-73726523D01*
X174606857Y-73847476D02*
X174546380Y-73787000D01*
X174425428Y-73726523D01*
X174123047Y-73726523D01*
X174002095Y-73787000D01*
X173941619Y-73847476D01*
X173881142Y-73968428D01*
X173881142Y-74089380D01*
X173941619Y-74270809D01*
X174667333Y-74996523D01*
X173881142Y-74996523D01*
X173094952Y-73726523D02*
X172974000Y-73726523D01*
X172853047Y-73787000D01*
X172792571Y-73847476D01*
X172732095Y-73968428D01*
X172671619Y-74210333D01*
X172671619Y-74512714D01*
X172732095Y-74754619D01*
X172792571Y-74875571D01*
X172853047Y-74936047D01*
X172974000Y-74996523D01*
X173094952Y-74996523D01*
X173215904Y-74936047D01*
X173276380Y-74875571D01*
X173336857Y-74754619D01*
X173397333Y-74512714D01*
X173397333Y-74210333D01*
X173336857Y-73968428D01*
X173276380Y-73847476D01*
X173215904Y-73787000D01*
X173094952Y-73726523D01*
X171885428Y-73726523D02*
X171764476Y-73726523D01*
X171643523Y-73787000D01*
X171583047Y-73847476D01*
X171522571Y-73968428D01*
X171462095Y-74210333D01*
X171462095Y-74512714D01*
X171522571Y-74754619D01*
X171583047Y-74875571D01*
X171643523Y-74936047D01*
X171764476Y-74996523D01*
X171885428Y-74996523D01*
X172006380Y-74936047D01*
X172066857Y-74875571D01*
X172127333Y-74754619D01*
X172187809Y-74512714D01*
X172187809Y-74210333D01*
X172127333Y-73968428D01*
X172066857Y-73847476D01*
X172006380Y-73787000D01*
X171885428Y-73726523D01*
X170978285Y-73847476D02*
X170917809Y-73787000D01*
X170796857Y-73726523D01*
X170494476Y-73726523D01*
X170373523Y-73787000D01*
X170313047Y-73847476D01*
X170252571Y-73968428D01*
X170252571Y-74089380D01*
X170313047Y-74270809D01*
X171038761Y-74996523D01*
X170252571Y-74996523D01*
X175241857Y-72335571D02*
X175302333Y-72396047D01*
X175483761Y-72456523D01*
X175604714Y-72456523D01*
X175786142Y-72396047D01*
X175907095Y-72275095D01*
X175967571Y-72154142D01*
X176028047Y-71912238D01*
X176028047Y-71730809D01*
X175967571Y-71488904D01*
X175907095Y-71367952D01*
X175786142Y-71247000D01*
X175604714Y-71186523D01*
X175483761Y-71186523D01*
X175302333Y-71247000D01*
X175241857Y-71307476D01*
X174697571Y-72456523D02*
X174697571Y-71609857D01*
X174697571Y-71851761D02*
X174637095Y-71730809D01*
X174576619Y-71670333D01*
X174455666Y-71609857D01*
X174334714Y-71609857D01*
X174032333Y-71609857D02*
X173729952Y-72456523D01*
X173427571Y-71609857D02*
X173729952Y-72456523D01*
X173850904Y-72758904D01*
X173911380Y-72819380D01*
X174032333Y-72879857D01*
X173004238Y-72396047D02*
X172883285Y-72456523D01*
X172641380Y-72456523D01*
X172520428Y-72396047D01*
X172459952Y-72275095D01*
X172459952Y-72214619D01*
X172520428Y-72093666D01*
X172641380Y-72033190D01*
X172822809Y-72033190D01*
X172943761Y-71972714D01*
X173004238Y-71851761D01*
X173004238Y-71791285D01*
X172943761Y-71670333D01*
X172822809Y-71609857D01*
X172641380Y-71609857D01*
X172520428Y-71670333D01*
X172097095Y-71609857D02*
X171613285Y-71609857D01*
X171915666Y-71186523D02*
X171915666Y-72275095D01*
X171855190Y-72396047D01*
X171734238Y-72456523D01*
X171613285Y-72456523D01*
X170645666Y-72456523D02*
X170645666Y-71791285D01*
X170706142Y-71670333D01*
X170827095Y-71609857D01*
X171069000Y-71609857D01*
X171189952Y-71670333D01*
X170645666Y-72396047D02*
X170766619Y-72456523D01*
X171069000Y-72456523D01*
X171189952Y-72396047D01*
X171250428Y-72275095D01*
X171250428Y-72154142D01*
X171189952Y-72033190D01*
X171069000Y-71972714D01*
X170766619Y-71972714D01*
X170645666Y-71912238D01*
X169859476Y-72456523D02*
X169980428Y-72396047D01*
X170040904Y-72275095D01*
X170040904Y-71186523D01*
%TO.C,C2001*%
D12*
X183205238Y-88147142D02*
X183252857Y-88194761D01*
X183395714Y-88242380D01*
X183490952Y-88242380D01*
X183633809Y-88194761D01*
X183729047Y-88099523D01*
X183776666Y-88004285D01*
X183824285Y-87813809D01*
X183824285Y-87670952D01*
X183776666Y-87480476D01*
X183729047Y-87385238D01*
X183633809Y-87290000D01*
X183490952Y-87242380D01*
X183395714Y-87242380D01*
X183252857Y-87290000D01*
X183205238Y-87337619D01*
X182824285Y-87337619D02*
X182776666Y-87290000D01*
X182681428Y-87242380D01*
X182443333Y-87242380D01*
X182348095Y-87290000D01*
X182300476Y-87337619D01*
X182252857Y-87432857D01*
X182252857Y-87528095D01*
X182300476Y-87670952D01*
X182871904Y-88242380D01*
X182252857Y-88242380D01*
X181633809Y-87242380D02*
X181538571Y-87242380D01*
X181443333Y-87290000D01*
X181395714Y-87337619D01*
X181348095Y-87432857D01*
X181300476Y-87623333D01*
X181300476Y-87861428D01*
X181348095Y-88051904D01*
X181395714Y-88147142D01*
X181443333Y-88194761D01*
X181538571Y-88242380D01*
X181633809Y-88242380D01*
X181729047Y-88194761D01*
X181776666Y-88147142D01*
X181824285Y-88051904D01*
X181871904Y-87861428D01*
X181871904Y-87623333D01*
X181824285Y-87432857D01*
X181776666Y-87337619D01*
X181729047Y-87290000D01*
X181633809Y-87242380D01*
X180681428Y-87242380D02*
X180586190Y-87242380D01*
X180490952Y-87290000D01*
X180443333Y-87337619D01*
X180395714Y-87432857D01*
X180348095Y-87623333D01*
X180348095Y-87861428D01*
X180395714Y-88051904D01*
X180443333Y-88147142D01*
X180490952Y-88194761D01*
X180586190Y-88242380D01*
X180681428Y-88242380D01*
X180776666Y-88194761D01*
X180824285Y-88147142D01*
X180871904Y-88051904D01*
X180919523Y-87861428D01*
X180919523Y-87623333D01*
X180871904Y-87432857D01*
X180824285Y-87337619D01*
X180776666Y-87290000D01*
X180681428Y-87242380D01*
X179395714Y-88242380D02*
X179967142Y-88242380D01*
X179681428Y-88242380D02*
X179681428Y-87242380D01*
X179776666Y-87385238D01*
X179871904Y-87480476D01*
X179967142Y-87528095D01*
%TO.C,C2002*%
X165412238Y-85287142D02*
X165459857Y-85334761D01*
X165602714Y-85382380D01*
X165697952Y-85382380D01*
X165840809Y-85334761D01*
X165936047Y-85239523D01*
X165983666Y-85144285D01*
X166031285Y-84953809D01*
X166031285Y-84810952D01*
X165983666Y-84620476D01*
X165936047Y-84525238D01*
X165840809Y-84430000D01*
X165697952Y-84382380D01*
X165602714Y-84382380D01*
X165459857Y-84430000D01*
X165412238Y-84477619D01*
X165031285Y-84477619D02*
X164983666Y-84430000D01*
X164888428Y-84382380D01*
X164650333Y-84382380D01*
X164555095Y-84430000D01*
X164507476Y-84477619D01*
X164459857Y-84572857D01*
X164459857Y-84668095D01*
X164507476Y-84810952D01*
X165078904Y-85382380D01*
X164459857Y-85382380D01*
X163840809Y-84382380D02*
X163745571Y-84382380D01*
X163650333Y-84430000D01*
X163602714Y-84477619D01*
X163555095Y-84572857D01*
X163507476Y-84763333D01*
X163507476Y-85001428D01*
X163555095Y-85191904D01*
X163602714Y-85287142D01*
X163650333Y-85334761D01*
X163745571Y-85382380D01*
X163840809Y-85382380D01*
X163936047Y-85334761D01*
X163983666Y-85287142D01*
X164031285Y-85191904D01*
X164078904Y-85001428D01*
X164078904Y-84763333D01*
X164031285Y-84572857D01*
X163983666Y-84477619D01*
X163936047Y-84430000D01*
X163840809Y-84382380D01*
X162888428Y-84382380D02*
X162793190Y-84382380D01*
X162697952Y-84430000D01*
X162650333Y-84477619D01*
X162602714Y-84572857D01*
X162555095Y-84763333D01*
X162555095Y-85001428D01*
X162602714Y-85191904D01*
X162650333Y-85287142D01*
X162697952Y-85334761D01*
X162793190Y-85382380D01*
X162888428Y-85382380D01*
X162983666Y-85334761D01*
X163031285Y-85287142D01*
X163078904Y-85191904D01*
X163126523Y-85001428D01*
X163126523Y-84763333D01*
X163078904Y-84572857D01*
X163031285Y-84477619D01*
X162983666Y-84430000D01*
X162888428Y-84382380D01*
X162174142Y-84477619D02*
X162126523Y-84430000D01*
X162031285Y-84382380D01*
X161793190Y-84382380D01*
X161697952Y-84430000D01*
X161650333Y-84477619D01*
X161602714Y-84572857D01*
X161602714Y-84668095D01*
X161650333Y-84810952D01*
X162221761Y-85382380D01*
X161602714Y-85382380D01*
%TO.C,R2001*%
X174315238Y-91798380D02*
X174648571Y-91322190D01*
X174886666Y-91798380D02*
X174886666Y-90798380D01*
X174505714Y-90798380D01*
X174410476Y-90846000D01*
X174362857Y-90893619D01*
X174315238Y-90988857D01*
X174315238Y-91131714D01*
X174362857Y-91226952D01*
X174410476Y-91274571D01*
X174505714Y-91322190D01*
X174886666Y-91322190D01*
X173934285Y-90893619D02*
X173886666Y-90846000D01*
X173791428Y-90798380D01*
X173553333Y-90798380D01*
X173458095Y-90846000D01*
X173410476Y-90893619D01*
X173362857Y-90988857D01*
X173362857Y-91084095D01*
X173410476Y-91226952D01*
X173981904Y-91798380D01*
X173362857Y-91798380D01*
X172743809Y-90798380D02*
X172648571Y-90798380D01*
X172553333Y-90846000D01*
X172505714Y-90893619D01*
X172458095Y-90988857D01*
X172410476Y-91179333D01*
X172410476Y-91417428D01*
X172458095Y-91607904D01*
X172505714Y-91703142D01*
X172553333Y-91750761D01*
X172648571Y-91798380D01*
X172743809Y-91798380D01*
X172839047Y-91750761D01*
X172886666Y-91703142D01*
X172934285Y-91607904D01*
X172981904Y-91417428D01*
X172981904Y-91179333D01*
X172934285Y-90988857D01*
X172886666Y-90893619D01*
X172839047Y-90846000D01*
X172743809Y-90798380D01*
X171791428Y-90798380D02*
X171696190Y-90798380D01*
X171600952Y-90846000D01*
X171553333Y-90893619D01*
X171505714Y-90988857D01*
X171458095Y-91179333D01*
X171458095Y-91417428D01*
X171505714Y-91607904D01*
X171553333Y-91703142D01*
X171600952Y-91750761D01*
X171696190Y-91798380D01*
X171791428Y-91798380D01*
X171886666Y-91750761D01*
X171934285Y-91703142D01*
X171981904Y-91607904D01*
X172029523Y-91417428D01*
X172029523Y-91179333D01*
X171981904Y-90988857D01*
X171934285Y-90893619D01*
X171886666Y-90846000D01*
X171791428Y-90798380D01*
X170505714Y-91798380D02*
X171077142Y-91798380D01*
X170791428Y-91798380D02*
X170791428Y-90798380D01*
X170886666Y-90941238D01*
X170981904Y-91036476D01*
X171077142Y-91084095D01*
%TO.C,U2002*%
X155860476Y-88058380D02*
X155860476Y-88867904D01*
X155812857Y-88963142D01*
X155765238Y-89010761D01*
X155670000Y-89058380D01*
X155479523Y-89058380D01*
X155384285Y-89010761D01*
X155336666Y-88963142D01*
X155289047Y-88867904D01*
X155289047Y-88058380D01*
X154860476Y-88153619D02*
X154812857Y-88106000D01*
X154717619Y-88058380D01*
X154479523Y-88058380D01*
X154384285Y-88106000D01*
X154336666Y-88153619D01*
X154289047Y-88248857D01*
X154289047Y-88344095D01*
X154336666Y-88486952D01*
X154908095Y-89058380D01*
X154289047Y-89058380D01*
X153670000Y-88058380D02*
X153574761Y-88058380D01*
X153479523Y-88106000D01*
X153431904Y-88153619D01*
X153384285Y-88248857D01*
X153336666Y-88439333D01*
X153336666Y-88677428D01*
X153384285Y-88867904D01*
X153431904Y-88963142D01*
X153479523Y-89010761D01*
X153574761Y-89058380D01*
X153670000Y-89058380D01*
X153765238Y-89010761D01*
X153812857Y-88963142D01*
X153860476Y-88867904D01*
X153908095Y-88677428D01*
X153908095Y-88439333D01*
X153860476Y-88248857D01*
X153812857Y-88153619D01*
X153765238Y-88106000D01*
X153670000Y-88058380D01*
X152717619Y-88058380D02*
X152622380Y-88058380D01*
X152527142Y-88106000D01*
X152479523Y-88153619D01*
X152431904Y-88248857D01*
X152384285Y-88439333D01*
X152384285Y-88677428D01*
X152431904Y-88867904D01*
X152479523Y-88963142D01*
X152527142Y-89010761D01*
X152622380Y-89058380D01*
X152717619Y-89058380D01*
X152812857Y-89010761D01*
X152860476Y-88963142D01*
X152908095Y-88867904D01*
X152955714Y-88677428D01*
X152955714Y-88439333D01*
X152908095Y-88248857D01*
X152860476Y-88153619D01*
X152812857Y-88106000D01*
X152717619Y-88058380D01*
X152003333Y-88153619D02*
X151955714Y-88106000D01*
X151860476Y-88058380D01*
X151622380Y-88058380D01*
X151527142Y-88106000D01*
X151479523Y-88153619D01*
X151431904Y-88248857D01*
X151431904Y-88344095D01*
X151479523Y-88486952D01*
X152050952Y-89058380D01*
X151431904Y-89058380D01*
%TO.C,U2003*%
X158908476Y-93392380D02*
X158908476Y-94201904D01*
X158860857Y-94297142D01*
X158813238Y-94344761D01*
X158718000Y-94392380D01*
X158527523Y-94392380D01*
X158432285Y-94344761D01*
X158384666Y-94297142D01*
X158337047Y-94201904D01*
X158337047Y-93392380D01*
X157908476Y-93487619D02*
X157860857Y-93440000D01*
X157765619Y-93392380D01*
X157527523Y-93392380D01*
X157432285Y-93440000D01*
X157384666Y-93487619D01*
X157337047Y-93582857D01*
X157337047Y-93678095D01*
X157384666Y-93820952D01*
X157956095Y-94392380D01*
X157337047Y-94392380D01*
X156718000Y-93392380D02*
X156622761Y-93392380D01*
X156527523Y-93440000D01*
X156479904Y-93487619D01*
X156432285Y-93582857D01*
X156384666Y-93773333D01*
X156384666Y-94011428D01*
X156432285Y-94201904D01*
X156479904Y-94297142D01*
X156527523Y-94344761D01*
X156622761Y-94392380D01*
X156718000Y-94392380D01*
X156813238Y-94344761D01*
X156860857Y-94297142D01*
X156908476Y-94201904D01*
X156956095Y-94011428D01*
X156956095Y-93773333D01*
X156908476Y-93582857D01*
X156860857Y-93487619D01*
X156813238Y-93440000D01*
X156718000Y-93392380D01*
X155765619Y-93392380D02*
X155670380Y-93392380D01*
X155575142Y-93440000D01*
X155527523Y-93487619D01*
X155479904Y-93582857D01*
X155432285Y-93773333D01*
X155432285Y-94011428D01*
X155479904Y-94201904D01*
X155527523Y-94297142D01*
X155575142Y-94344761D01*
X155670380Y-94392380D01*
X155765619Y-94392380D01*
X155860857Y-94344761D01*
X155908476Y-94297142D01*
X155956095Y-94201904D01*
X156003714Y-94011428D01*
X156003714Y-93773333D01*
X155956095Y-93582857D01*
X155908476Y-93487619D01*
X155860857Y-93440000D01*
X155765619Y-93392380D01*
X155098952Y-93392380D02*
X154479904Y-93392380D01*
X154813238Y-93773333D01*
X154670380Y-93773333D01*
X154575142Y-93820952D01*
X154527523Y-93868571D01*
X154479904Y-93963809D01*
X154479904Y-94201904D01*
X154527523Y-94297142D01*
X154575142Y-94344761D01*
X154670380Y-94392380D01*
X154956095Y-94392380D01*
X155051333Y-94344761D01*
X155098952Y-94297142D01*
%TO.C,Y2001*%
X174624761Y-82786190D02*
X174624761Y-83262380D01*
X174958095Y-82262380D02*
X174624761Y-82786190D01*
X174291428Y-82262380D01*
X174005714Y-82357619D02*
X173958095Y-82310000D01*
X173862857Y-82262380D01*
X173624761Y-82262380D01*
X173529523Y-82310000D01*
X173481904Y-82357619D01*
X173434285Y-82452857D01*
X173434285Y-82548095D01*
X173481904Y-82690952D01*
X174053333Y-83262380D01*
X173434285Y-83262380D01*
X172815238Y-82262380D02*
X172720000Y-82262380D01*
X172624761Y-82310000D01*
X172577142Y-82357619D01*
X172529523Y-82452857D01*
X172481904Y-82643333D01*
X172481904Y-82881428D01*
X172529523Y-83071904D01*
X172577142Y-83167142D01*
X172624761Y-83214761D01*
X172720000Y-83262380D01*
X172815238Y-83262380D01*
X172910476Y-83214761D01*
X172958095Y-83167142D01*
X173005714Y-83071904D01*
X173053333Y-82881428D01*
X173053333Y-82643333D01*
X173005714Y-82452857D01*
X172958095Y-82357619D01*
X172910476Y-82310000D01*
X172815238Y-82262380D01*
X171862857Y-82262380D02*
X171767619Y-82262380D01*
X171672380Y-82310000D01*
X171624761Y-82357619D01*
X171577142Y-82452857D01*
X171529523Y-82643333D01*
X171529523Y-82881428D01*
X171577142Y-83071904D01*
X171624761Y-83167142D01*
X171672380Y-83214761D01*
X171767619Y-83262380D01*
X171862857Y-83262380D01*
X171958095Y-83214761D01*
X172005714Y-83167142D01*
X172053333Y-83071904D01*
X172100952Y-82881428D01*
X172100952Y-82643333D01*
X172053333Y-82452857D01*
X172005714Y-82357619D01*
X171958095Y-82310000D01*
X171862857Y-82262380D01*
X170577142Y-83262380D02*
X171148571Y-83262380D01*
X170862857Y-83262380D02*
X170862857Y-82262380D01*
X170958095Y-82405238D01*
X171053333Y-82500476D01*
X171148571Y-82548095D01*
%TD*%
M02*
