  0
SECTION
  2
HEADER
  9
$ANGBASE
  50
0.0
  9
$ANGDIR
  70
1
  9
$MEASUREMENT
  70
0
  0
ENDSEC
  0
SECTION
  2
TABLES
  0
TABLE
  2
LTYPE
  70
4
  0
LTYPE
  5
40F
  2
CONTINUOUS
  70
0
  3
Solid line
  72
65
  73
0
  40
0.0
  0
LTYPE
  5
410
  2
DASHDOT
 70
0
  3
Dash Dot ____ _ ____ _
 72
65
 73
4
 40
2.0
 49
1.25
 49
-0.25
 49
0.25
 49
-0.25
  0
LTYPE
  5
411
  2
DASHED
 70
0
  3
Dashed __ __ __ __ __
 72
65
 73
2
 40
0.75
 49
0.5
 49
-0.25
  0
LTYPE
  5
43B
  2
DOTTED
 70
0
  3
Dotted .  .  .  .
 72
65
 73
2
 40
0.2
 49
0.0
 49
-0.2
  0
ENDTAB
  0
TABLE
  2
STYLE
  70
4
  0
STYLE
  2
KICAD
  70
0
  40
0
  41
1
  42
1
  50
0
  71
0
  3
isocp.shx
  0
STYLE
  2
KICADB
  70
0
  40
0
  41
1
  42
1
  50
0
  71
0
  3
isocp.shx
  0
STYLE
  2
KICADI
  70
0
  40
0
  41
1
  42
1
  50
15
  71
0
  3
isocp.shx
  0
STYLE
  2
KICADBI
  70
0
  40
0
  41
1
  42
1
  50
15
  71
0
  3
isocp.shx
  0
ENDTAB
  0
TABLE
  2
LAYER
  70
1
  0
LAYER
  2
BLACK
  70
0
  62
7
  6
CONTINUOUS
  0
ENDTAB
  0
ENDSEC
  0
SECTION
  2
ENTITIES
0
LINE
8
BLACK
6
CONTINUOUS
10
3.975
20
-5.555
11
3.975
21
-1.805
0
LINE
8
BLACK
6
CONTINUOUS
10
7.725
20
-5.555
11
3.975
21
-5.555
0
LINE
8
BLACK
6
CONTINUOUS
10
3.975
20
-1.805
11
7.725
21
-1.805
0
LINE
8
BLACK
6
CONTINUOUS
10
7.725
20
-1.805
11
7.725
21
-5.555
0
LINE
8
BLACK
6
CONTINUOUS
10
4.03713
20
-5.43213
11
4.05287
21
-5.44787
0
LINE
8
BLACK
6
CONTINUOUS
10
4.05287
20
-5.43213
11
4.03713
21
-5.44787
0
LINE
8
BLACK
6
CONTINUOUS
10
4.26213
20
-5.43213
11
4.27787
21
-5.44787
0
LINE
8
BLACK
6
CONTINUOUS
10
4.27787
20
-5.43213
11
4.26213
21
-5.44787
0
LINE
8
BLACK
6
CONTINUOUS
10
4.56713
20
-3.49713
11
4.58287
21
-3.51287
0
LINE
8
BLACK
6
CONTINUOUS
10
4.58287
20
-3.49713
11
4.56713
21
-3.51287
0
LINE
8
BLACK
6
CONTINUOUS
10
4.56713
20
-3.67213
11
4.58287
21
-3.68787
0
LINE
8
BLACK
6
CONTINUOUS
10
4.58287
20
-3.67213
11
4.56713
21
-3.68787
0
LINE
8
BLACK
6
CONTINUOUS
10
4.61278
20
-2.93778
11
4.62852
21
-2.95352
0
LINE
8
BLACK
6
CONTINUOUS
10
4.62852
20
-2.93778
11
4.61278
21
-2.95352
0
LINE
8
BLACK
6
CONTINUOUS
10
4.61713
20
-3.05713
11
4.63287
21
-3.07287
0
LINE
8
BLACK
6
CONTINUOUS
10
4.63287
20
-3.05713
11
4.61713
21
-3.07287
0
LINE
8
BLACK
6
CONTINUOUS
10
4.66213
20
-3.77213
11
4.67787
21
-3.78787
0
LINE
8
BLACK
6
CONTINUOUS
10
4.67787
20
-3.77213
11
4.66213
21
-3.78787
0
LINE
8
BLACK
6
CONTINUOUS
10
4.6623
20
-3.6436
11
4.67804
21
-3.65935
0
LINE
8
BLACK
6
CONTINUOUS
10
4.67804
20
-3.6436
11
4.6623
21
-3.65935
0
LINE
8
BLACK
6
CONTINUOUS
10
4.66713
20
-3.19713
11
4.68287
21
-3.21287
0
LINE
8
BLACK
6
CONTINUOUS
10
4.68287
20
-3.19713
11
4.66713
21
-3.21287
0
LINE
8
BLACK
6
CONTINUOUS
10
4.69713
20
-4.10213
11
4.71287
21
-4.11787
0
LINE
8
BLACK
6
CONTINUOUS
10
4.71287
20
-4.10213
11
4.69713
21
-4.11787
0
LINE
8
BLACK
6
CONTINUOUS
10
4.71713
20
-2.67713
11
4.73287
21
-2.69287
0
LINE
8
BLACK
6
CONTINUOUS
10
4.73287
20
-2.67713
11
4.71713
21
-2.69287
0
LINE
8
BLACK
6
CONTINUOUS
10
4.72213
20
-2.84213
11
4.73787
21
-2.85787
0
LINE
8
BLACK
6
CONTINUOUS
10
4.73787
20
-2.84213
11
4.72213
21
-2.85787
0
LINE
8
BLACK
6
CONTINUOUS
10
4.72213
20
-3.54713
11
4.73787
21
-3.56287
0
LINE
8
BLACK
6
CONTINUOUS
10
4.73787
20
-3.54713
11
4.72213
21
-3.56287
0
LINE
8
BLACK
6
CONTINUOUS
10
4.72213
20
-3.6436
11
4.73787
21
-3.65935
0
LINE
8
BLACK
6
CONTINUOUS
10
4.73787
20
-3.6436
11
4.72213
21
-3.65935
0
LINE
8
BLACK
6
CONTINUOUS
10
4.72713
20
-3.23713
11
4.74287
21
-3.25287
0
LINE
8
BLACK
6
CONTINUOUS
10
4.74287
20
-3.23713
11
4.72713
21
-3.25287
0
LINE
8
BLACK
6
CONTINUOUS
10
4.76713
20
-3.34713
11
4.78287
21
-3.36287
0
LINE
8
BLACK
6
CONTINUOUS
10
4.78287
20
-3.34713
11
4.76713
21
-3.36287
0
LINE
8
BLACK
6
CONTINUOUS
10
4.76913
20
-3.44512
11
4.78488
21
-3.46087
0
LINE
8
BLACK
6
CONTINUOUS
10
4.78488
20
-3.44512
11
4.76913
21
-3.46087
0
LINE
8
BLACK
6
CONTINUOUS
10
4.77713
20
-2.38213
11
4.79287
21
-2.39787
0
LINE
8
BLACK
6
CONTINUOUS
10
4.79287
20
-2.38213
11
4.77713
21
-2.39787
0
LINE
8
BLACK
6
CONTINUOUS
10
4.77713
20
-2.82713
11
4.79287
21
-2.84287
0
LINE
8
BLACK
6
CONTINUOUS
10
4.79287
20
-2.82713
11
4.77713
21
-2.84287
0
LINE
8
BLACK
6
CONTINUOUS
10
4.79713
20
-3.28713
11
4.81287
21
-3.30287
0
LINE
8
BLACK
6
CONTINUOUS
10
4.81287
20
-3.28713
11
4.79713
21
-3.30287
0
LINE
8
BLACK
6
CONTINUOUS
10
4.80713
20
-2.78713
11
4.82287
21
-2.80287
0
LINE
8
BLACK
6
CONTINUOUS
10
4.82287
20
-2.78713
11
4.80713
21
-2.80287
0
LINE
8
BLACK
6
CONTINUOUS
10
4.80713
20
-4.52213
11
4.82287
21
-4.53787
0
LINE
8
BLACK
6
CONTINUOUS
10
4.82287
20
-4.52213
11
4.80713
21
-4.53787
0
LINE
8
BLACK
6
CONTINUOUS
10
4.80713
20
-4.89713
11
4.82287
21
-4.91287
0
LINE
8
BLACK
6
CONTINUOUS
10
4.82287
20
-4.89713
11
4.80713
21
-4.91287
0
LINE
8
BLACK
6
CONTINUOUS
10
4.81713
20
-3.53213
11
4.83287
21
-3.54787
0
LINE
8
BLACK
6
CONTINUOUS
10
4.83287
20
-3.53213
11
4.81713
21
-3.54787
0
LINE
8
BLACK
6
CONTINUOUS
10
4.81713
20
-3.80065
11
4.83287
21
-3.8164
0
LINE
8
BLACK
6
CONTINUOUS
10
4.83287
20
-3.80065
11
4.81713
21
-3.8164
0
LINE
8
BLACK
6
CONTINUOUS
10
4.83713
20
-3.39713
11
4.85287
21
-3.41287
0
LINE
8
BLACK
6
CONTINUOUS
10
4.85287
20
-3.39713
11
4.83713
21
-3.41287
0
LINE
8
BLACK
6
CONTINUOUS
10
4.86713
20
-2.33713
11
4.88287
21
-2.35287
0
LINE
8
BLACK
6
CONTINUOUS
10
4.88287
20
-2.33713
11
4.86713
21
-2.35287
0
LINE
8
BLACK
6
CONTINUOUS
10
4.86713
20
-2.39213
11
4.88287
21
-2.40787
0
LINE
8
BLACK
6
CONTINUOUS
10
4.88287
20
-2.39213
11
4.86713
21
-2.40787
0
LINE
8
BLACK
6
CONTINUOUS
10
4.87213
20
-4.67213
11
4.88787
21
-4.68787
0
LINE
8
BLACK
6
CONTINUOUS
10
4.88787
20
-4.67213
11
4.87213
21
-4.68787
0
LINE
8
BLACK
6
CONTINUOUS
10
4.87713
20
-3.14713
11
4.89287
21
-3.16287
0
LINE
8
BLACK
6
CONTINUOUS
10
4.89287
20
-3.14713
11
4.87713
21
-3.16287
0
LINE
8
BLACK
6
CONTINUOUS
10
4.87713
20
-4.3586
11
4.89287
21
-4.37435
0
LINE
8
BLACK
6
CONTINUOUS
10
4.89287
20
-4.3586
11
4.87713
21
-4.37435
0
LINE
8
BLACK
6
CONTINUOUS
10
4.92713
20
-2.75213
11
4.94287
21
-2.76787
0
LINE
8
BLACK
6
CONTINUOUS
10
4.94287
20
-2.75213
11
4.92713
21
-2.76787
0
LINE
8
BLACK
6
CONTINUOUS
10
4.92713
20
-3.09713
11
4.94287
21
-3.11287
0
LINE
8
BLACK
6
CONTINUOUS
10
4.94287
20
-3.09713
11
4.92713
21
-3.11287
0
LINE
8
BLACK
6
CONTINUOUS
10
4.92713
20
-3.39713
11
4.94287
21
-3.41287
0
LINE
8
BLACK
6
CONTINUOUS
10
4.94287
20
-3.39713
11
4.92713
21
-3.41287
0
LINE
8
BLACK
6
CONTINUOUS
10
4.92713
20
-3.58713
11
4.94287
21
-3.60287
0
LINE
8
BLACK
6
CONTINUOUS
10
4.94287
20
-3.58713
11
4.92713
21
-3.60287
0
LINE
8
BLACK
6
CONTINUOUS
10
4.93213
20
-3.23713
11
4.94787
21
-3.25287
0
LINE
8
BLACK
6
CONTINUOUS
10
4.94787
20
-3.23713
11
4.93213
21
-3.25287
0
LINE
8
BLACK
6
CONTINUOUS
10
4.93713
20
-3.99713
11
4.95287
21
-4.01287
0
LINE
8
BLACK
6
CONTINUOUS
10
4.95287
20
-3.99713
11
4.93713
21
-4.01287
0
LINE
8
BLACK
6
CONTINUOUS
10
4.93713
20
-4.35213
11
4.95287
21
-4.36787
0
LINE
8
BLACK
6
CONTINUOUS
10
4.95287
20
-4.35213
11
4.93713
21
-4.36787
0
LINE
8
BLACK
6
CONTINUOUS
10
4.95208
20
-3.7017
11
4.96783
21
-3.71745
0
LINE
8
BLACK
6
CONTINUOUS
10
4.96783
20
-3.7017
11
4.95208
21
-3.71745
0
LINE
8
BLACK
6
CONTINUOUS
10
4.96703
20
-3.56065
11
4.98278
21
-3.5764
0
LINE
8
BLACK
6
CONTINUOUS
10
4.98278
20
-3.56065
11
4.96703
21
-3.5764
0
LINE
8
BLACK
6
CONTINUOUS
10
4.9785
20
-4.33059
11
4.99425
21
-4.34634
0
LINE
8
BLACK
6
CONTINUOUS
10
4.99425
20
-4.33059
11
4.9785
21
-4.34634
0
LINE
8
BLACK
6
CONTINUOUS
10
4.97856
20
-3.62535
11
4.99431
21
-3.6411
0
LINE
8
BLACK
6
CONTINUOUS
10
4.99431
20
-3.62535
11
4.97856
21
-3.6411
0
LINE
8
BLACK
6
CONTINUOUS
10
4.99987
20
-3.30668
11
5.01562
21
-3.32243
0
LINE
8
BLACK
6
CONTINUOUS
10
5.01562
20
-3.30668
11
4.99987
21
-3.32243
0
LINE
8
BLACK
6
CONTINUOUS
10
5.02713
20
-3.04713
11
5.04287
21
-3.06287
0
LINE
8
BLACK
6
CONTINUOUS
10
5.04287
20
-3.04713
11
5.02713
21
-3.06287
0
LINE
8
BLACK
6
CONTINUOUS
10
5.02713
20
-3.24713
11
5.04287
21
-3.26287
0
LINE
8
BLACK
6
CONTINUOUS
10
5.04287
20
-3.24713
11
5.02713
21
-3.26287
0
LINE
8
BLACK
6
CONTINUOUS
10
5.04648
20
-2.94278
11
5.06222
21
-2.95852
0
LINE
8
BLACK
6
CONTINUOUS
10
5.06222
20
-2.94278
11
5.04648
21
-2.95852
0
LINE
8
BLACK
6
CONTINUOUS
10
5.04713
20
-3.70713
11
5.06287
21
-3.72287
0
LINE
8
BLACK
6
CONTINUOUS
10
5.06287
20
-3.70713
11
5.04713
21
-3.72287
0
LINE
8
BLACK
6
CONTINUOUS
10
5.04713
20
-4.00213
11
5.06287
21
-4.01787
0
LINE
8
BLACK
6
CONTINUOUS
10
5.06287
20
-4.00213
11
5.04713
21
-4.01787
0
LINE
8
BLACK
6
CONTINUOUS
10
5.04713
20
-4.88713
11
5.06287
21
-4.90287
0
LINE
8
BLACK
6
CONTINUOUS
10
5.06287
20
-4.88713
11
5.04713
21
-4.90287
0
LINE
8
BLACK
6
CONTINUOUS
10
5.09331
20
-5.09094
11
5.10906
21
-5.10669
0
LINE
8
BLACK
6
CONTINUOUS
10
5.10906
20
-5.09094
11
5.09331
21
-5.10669
0
LINE
8
BLACK
6
CONTINUOUS
10
5.14213
20
-5.23213
11
5.15787
21
-5.24787
0
LINE
8
BLACK
6
CONTINUOUS
10
5.15787
20
-5.23213
11
5.14213
21
-5.24787
0
LINE
8
BLACK
6
CONTINUOUS
10
5.21713
20
-3.67213
11
5.23287
21
-3.68787
0
LINE
8
BLACK
6
CONTINUOUS
10
5.23287
20
-3.67213
11
5.21713
21
-3.68787
0
LINE
8
BLACK
6
CONTINUOUS
10
5.25213
20
-4.95213
11
5.26787
21
-4.96787
0
LINE
8
BLACK
6
CONTINUOUS
10
5.26787
20
-4.95213
11
5.25213
21
-4.96787
0
LINE
8
BLACK
6
CONTINUOUS
10
5.26213
20
-2.92213
11
5.27787
21
-2.93787
0
LINE
8
BLACK
6
CONTINUOUS
10
5.27787
20
-2.92213
11
5.26213
21
-2.93787
0
LINE
8
BLACK
6
CONTINUOUS
10
5.27713
20
-5.09713
11
5.29287
21
-5.11287
0
LINE
8
BLACK
6
CONTINUOUS
10
5.29287
20
-5.09713
11
5.27713
21
-5.11287
0
LINE
8
BLACK
6
CONTINUOUS
10
5.33713
20
-3.34713
11
5.35287
21
-3.36287
0
LINE
8
BLACK
6
CONTINUOUS
10
5.35287
20
-3.34713
11
5.33713
21
-3.36287
0
LINE
8
BLACK
6
CONTINUOUS
10
5.33713
20
-3.39713
11
5.35287
21
-3.41287
0
LINE
8
BLACK
6
CONTINUOUS
10
5.35287
20
-3.39713
11
5.33713
21
-3.41287
0
LINE
8
BLACK
6
CONTINUOUS
10
5.33713
20
-3.49713
11
5.35287
21
-3.51287
0
LINE
8
BLACK
6
CONTINUOUS
10
5.35287
20
-3.49713
11
5.33713
21
-3.51287
0
LINE
8
BLACK
6
CONTINUOUS
10
5.33713
20
-3.7436
11
5.35287
21
-3.75935
0
LINE
8
BLACK
6
CONTINUOUS
10
5.35287
20
-3.7436
11
5.33713
21
-3.75935
0
LINE
8
BLACK
6
CONTINUOUS
10
5.3695
20
-4.95621
11
5.38525
21
-4.97196
0
LINE
8
BLACK
6
CONTINUOUS
10
5.38525
20
-4.95621
11
5.3695
21
-4.97196
0
LINE
8
BLACK
6
CONTINUOUS
10
5.37713
20
-2.24713
11
5.39287
21
-2.26287
0
LINE
8
BLACK
6
CONTINUOUS
10
5.39287
20
-2.24713
11
5.37713
21
-2.26287
0
LINE
8
BLACK
6
CONTINUOUS
10
5.37713
20
-3.22213
11
5.39287
21
-3.23787
0
LINE
8
BLACK
6
CONTINUOUS
10
5.39287
20
-3.22213
11
5.37713
21
-3.23787
0
LINE
8
BLACK
6
CONTINUOUS
10
5.37713
20
-3.29713
11
5.39287
21
-3.31287
0
LINE
8
BLACK
6
CONTINUOUS
10
5.39287
20
-3.29713
11
5.37713
21
-3.31287
0
LINE
8
BLACK
6
CONTINUOUS
10
5.37713
20
-3.54713
11
5.39287
21
-3.56287
0
LINE
8
BLACK
6
CONTINUOUS
10
5.39287
20
-3.54713
11
5.37713
21
-3.56287
0
LINE
8
BLACK
6
CONTINUOUS
10
5.37713
20
-4.21713
11
5.39287
21
-4.23287
0
LINE
8
BLACK
6
CONTINUOUS
10
5.39287
20
-4.21713
11
5.37713
21
-4.23287
0
LINE
8
BLACK
6
CONTINUOUS
10
5.41713
20
-3.04713
11
5.43287
21
-3.06287
0
LINE
8
BLACK
6
CONTINUOUS
10
5.43287
20
-3.04713
11
5.41713
21
-3.06287
0
LINE
8
BLACK
6
CONTINUOUS
10
5.41713
20
-3.09713
11
5.43287
21
-3.11287
0
LINE
8
BLACK
6
CONTINUOUS
10
5.43287
20
-3.09713
11
5.41713
21
-3.11287
0
LINE
8
BLACK
6
CONTINUOUS
10
5.41713
20
-4.24713
11
5.43287
21
-4.26287
0
LINE
8
BLACK
6
CONTINUOUS
10
5.43287
20
-4.24713
11
5.41713
21
-4.26287
0
LINE
8
BLACK
6
CONTINUOUS
10
5.43213
20
-2.82713
11
5.44787
21
-2.84287
0
LINE
8
BLACK
6
CONTINUOUS
10
5.44787
20
-2.82713
11
5.43213
21
-2.84287
0
LINE
8
BLACK
6
CONTINUOUS
10
5.43213
20
-2.89713
11
5.44787
21
-2.91287
0
LINE
8
BLACK
6
CONTINUOUS
10
5.44787
20
-2.89713
11
5.43213
21
-2.91287
0
LINE
8
BLACK
6
CONTINUOUS
10
5.44713
20
-3.44713
11
5.46287
21
-3.46287
0
LINE
8
BLACK
6
CONTINUOUS
10
5.46287
20
-3.44713
11
5.44713
21
-3.46287
0
LINE
8
BLACK
6
CONTINUOUS
10
5.44713
20
-3.84713
11
5.46287
21
-3.86287
0
LINE
8
BLACK
6
CONTINUOUS
10
5.46287
20
-3.84713
11
5.44713
21
-3.86287
0
LINE
8
BLACK
6
CONTINUOUS
10
5.47213
20
-2.14713
11
5.48787
21
-2.16287
0
LINE
8
BLACK
6
CONTINUOUS
10
5.48787
20
-2.14713
11
5.47213
21
-2.16287
0
LINE
8
BLACK
6
CONTINUOUS
10
5.4736
20
-3.50915
11
5.48935
21
-3.5249
0
LINE
8
BLACK
6
CONTINUOUS
10
5.48935
20
-3.50915
11
5.4736
21
-3.5249
0
LINE
8
BLACK
6
CONTINUOUS
10
5.4736
20
-3.94713
11
5.48935
21
-3.96287
0
LINE
8
BLACK
6
CONTINUOUS
10
5.48935
20
-3.94713
11
5.4736
21
-3.96287
0
LINE
8
BLACK
6
CONTINUOUS
10
5.50213
20
-2.44713
11
5.51787
21
-2.46287
0
LINE
8
BLACK
6
CONTINUOUS
10
5.51787
20
-2.44713
11
5.50213
21
-2.46287
0
LINE
8
BLACK
6
CONTINUOUS
10
5.50213
20
-4.05213
11
5.51787
21
-4.06787
0
LINE
8
BLACK
6
CONTINUOUS
10
5.51787
20
-4.05213
11
5.50213
21
-4.06787
0
LINE
8
BLACK
6
CONTINUOUS
10
5.50713
20
-3.1936
11
5.52287
21
-3.20935
0
LINE
8
BLACK
6
CONTINUOUS
10
5.52287
20
-3.1936
11
5.50713
21
-3.20935
0
LINE
8
BLACK
6
CONTINUOUS
10
5.51213
20
-5.21213
11
5.52787
21
-5.22787
0
LINE
8
BLACK
6
CONTINUOUS
10
5.52787
20
-5.21213
11
5.51213
21
-5.22787
0
LINE
8
BLACK
6
CONTINUOUS
10
5.53213
20
-2.55213
11
5.54787
21
-2.56787
0
LINE
8
BLACK
6
CONTINUOUS
10
5.54787
20
-2.55213
11
5.53213
21
-2.56787
0
LINE
8
BLACK
6
CONTINUOUS
10
5.56213
20
-2.72713
11
5.57787
21
-2.74287
0
LINE
8
BLACK
6
CONTINUOUS
10
5.57787
20
-2.72713
11
5.56213
21
-2.74287
0
LINE
8
BLACK
6
CONTINUOUS
10
5.64713
20
-4.22213
11
5.66287
21
-4.23787
0
LINE
8
BLACK
6
CONTINUOUS
10
5.66287
20
-4.22213
11
5.64713
21
-4.23787
0
LINE
8
BLACK
6
CONTINUOUS
10
5.67713
20
-5.04213
11
5.69287
21
-5.05787
0
LINE
8
BLACK
6
CONTINUOUS
10
5.69287
20
-5.04213
11
5.67713
21
-5.05787
0
LINE
8
BLACK
6
CONTINUOUS
10
5.69713
20
-2.45713
11
5.71287
21
-2.47287
0
LINE
8
BLACK
6
CONTINUOUS
10
5.71287
20
-2.45713
11
5.69713
21
-2.47287
0
LINE
8
BLACK
6
CONTINUOUS
10
5.69713
20
-4.22213
11
5.71287
21
-4.23787
0
LINE
8
BLACK
6
CONTINUOUS
10
5.71287
20
-4.22213
11
5.69713
21
-4.23787
0
LINE
8
BLACK
6
CONTINUOUS
10
5.73713
20
-4.25713
11
5.75287
21
-4.27287
0
LINE
8
BLACK
6
CONTINUOUS
10
5.75287
20
-4.25713
11
5.73713
21
-4.27287
0
LINE
8
BLACK
6
CONTINUOUS
10
5.74713
20
-2.47213
11
5.76287
21
-2.48787
0
LINE
8
BLACK
6
CONTINUOUS
10
5.76287
20
-2.47213
11
5.74713
21
-2.48787
0
LINE
8
BLACK
6
CONTINUOUS
10
5.74713
20
-2.78713
11
5.76287
21
-2.80287
0
LINE
8
BLACK
6
CONTINUOUS
10
5.76287
20
-2.78713
11
5.74713
21
-2.80287
0
LINE
8
BLACK
6
CONTINUOUS
10
5.77713
20
-3.27213
11
5.79287
21
-3.28787
0
LINE
8
BLACK
6
CONTINUOUS
10
5.79287
20
-3.27213
11
5.77713
21
-3.28787
0
LINE
8
BLACK
6
CONTINUOUS
10
5.77713
20
-3.54213
11
5.79287
21
-3.55787
0
LINE
8
BLACK
6
CONTINUOUS
10
5.79287
20
-3.54213
11
5.77713
21
-3.55787
0
LINE
8
BLACK
6
CONTINUOUS
10
5.7886
20
-4.22213
11
5.80435
21
-4.23787
0
LINE
8
BLACK
6
CONTINUOUS
10
5.80435
20
-4.22213
11
5.7886
21
-4.23787
0
LINE
8
BLACK
6
CONTINUOUS
10
5.79008
20
-3.92906
11
5.80583
21
-3.94481
0
LINE
8
BLACK
6
CONTINUOUS
10
5.80583
20
-3.92906
11
5.79008
21
-3.94481
0
LINE
8
BLACK
6
CONTINUOUS
10
5.79713
20
-2.3536
11
5.81287
21
-2.36935
0
LINE
8
BLACK
6
CONTINUOUS
10
5.81287
20
-2.3536
11
5.79713
21
-2.36935
0
LINE
8
BLACK
6
CONTINUOUS
10
5.79713
20
-2.77213
11
5.81287
21
-2.78787
0
LINE
8
BLACK
6
CONTINUOUS
10
5.81287
20
-2.77213
11
5.79713
21
-2.78787
0
LINE
8
BLACK
6
CONTINUOUS
10
5.82713
20
-4.86213
11
5.84287
21
-4.87787
0
LINE
8
BLACK
6
CONTINUOUS
10
5.84287
20
-4.86213
11
5.82713
21
-4.87787
0
LINE
8
BLACK
6
CONTINUOUS
10
5.83213
20
-4.74213
11
5.84787
21
-4.75787
0
LINE
8
BLACK
6
CONTINUOUS
10
5.84787
20
-4.74213
11
5.83213
21
-4.75787
0
LINE
8
BLACK
6
CONTINUOUS
10
5.84713
20
-2.47213
11
5.86287
21
-2.48787
0
LINE
8
BLACK
6
CONTINUOUS
10
5.86287
20
-2.47213
11
5.84713
21
-2.48787
0
LINE
8
BLACK
6
CONTINUOUS
10
5.84713
20
-2.77213
11
5.86287
21
-2.78787
0
LINE
8
BLACK
6
CONTINUOUS
10
5.86287
20
-2.77213
11
5.84713
21
-2.78787
0
LINE
8
BLACK
6
CONTINUOUS
10
5.84713
20
-4.48213
11
5.86287
21
-4.49787
0
LINE
8
BLACK
6
CONTINUOUS
10
5.86287
20
-4.48213
11
5.84713
21
-4.49787
0
LINE
8
BLACK
6
CONTINUOUS
10
5.85065
20
-3.92713
11
5.8664
21
-3.94287
0
LINE
8
BLACK
6
CONTINUOUS
10
5.8664
20
-3.92713
11
5.85065
21
-3.94287
0
LINE
8
BLACK
6
CONTINUOUS
10
5.85565
20
-4.22634
11
5.8714
21
-4.24209
0
LINE
8
BLACK
6
CONTINUOUS
10
5.8714
20
-4.22634
11
5.85565
21
-4.24209
0
LINE
8
BLACK
6
CONTINUOUS
10
5.87713
20
-3.69713
11
5.89287
21
-3.71287
0
LINE
8
BLACK
6
CONTINUOUS
10
5.89287
20
-3.69713
11
5.87713
21
-3.71287
0
LINE
8
BLACK
6
CONTINUOUS
10
5.87917
20
-3.79928
11
5.89492
21
-3.81503
0
LINE
8
BLACK
6
CONTINUOUS
10
5.89492
20
-3.79928
11
5.87917
21
-3.81503
0
LINE
8
BLACK
6
CONTINUOUS
10
5.89713
20
-2.47213
11
5.91287
21
-2.48787
0
LINE
8
BLACK
6
CONTINUOUS
10
5.91287
20
-2.47213
11
5.89713
21
-2.48787
0
LINE
8
BLACK
6
CONTINUOUS
10
5.89713
20
-3.92713
11
5.91287
21
-3.94287
0
LINE
8
BLACK
6
CONTINUOUS
10
5.91287
20
-3.92713
11
5.89713
21
-3.94287
0
LINE
8
BLACK
6
CONTINUOUS
10
5.89713
20
-4.22713
11
5.91287
21
-4.24287
0
LINE
8
BLACK
6
CONTINUOUS
10
5.91287
20
-4.22713
11
5.89713
21
-4.24287
0
LINE
8
BLACK
6
CONTINUOUS
10
5.92713
20
-3.19213
11
5.94287
21
-3.20787
0
LINE
8
BLACK
6
CONTINUOUS
10
5.94287
20
-3.19213
11
5.92713
21
-3.20787
0
LINE
8
BLACK
6
CONTINUOUS
10
5.93213
20
-4.78213
11
5.94787
21
-4.79787
0
LINE
8
BLACK
6
CONTINUOUS
10
5.94787
20
-4.78213
11
5.93213
21
-4.79787
0
LINE
8
BLACK
6
CONTINUOUS
10
5.93213
20
-4.86213
11
5.94787
21
-4.87787
0
LINE
8
BLACK
6
CONTINUOUS
10
5.94787
20
-4.86213
11
5.93213
21
-4.87787
0
LINE
8
BLACK
6
CONTINUOUS
10
5.94043
20
-2.88637
11
5.95618
21
-2.90212
0
LINE
8
BLACK
6
CONTINUOUS
10
5.95618
20
-2.88637
11
5.94043
21
-2.90212
0
LINE
8
BLACK
6
CONTINUOUS
10
5.94065
20
-2.77228
11
5.9564
21
-2.78802
0
LINE
8
BLACK
6
CONTINUOUS
10
5.9564
20
-2.77228
11
5.94065
21
-2.78802
0
LINE
8
BLACK
6
CONTINUOUS
10
5.94213
20
-2.98213
11
5.95787
21
-2.99787
0
LINE
8
BLACK
6
CONTINUOUS
10
5.95787
20
-2.98213
11
5.94213
21
-2.99787
0
LINE
8
BLACK
6
CONTINUOUS
10
5.94213
20
-3.02713
11
5.95787
21
-3.04287
0
LINE
8
BLACK
6
CONTINUOUS
10
5.95787
20
-3.02713
11
5.94213
21
-3.04287
0
LINE
8
BLACK
6
CONTINUOUS
10
5.94213
20
-3.07213
11
5.95787
21
-3.08787
0
LINE
8
BLACK
6
CONTINUOUS
10
5.95787
20
-3.07213
11
5.94213
21
-3.08787
0
LINE
8
BLACK
6
CONTINUOUS
10
5.94238
20
-2.84707
11
5.95812
21
-2.86281
0
LINE
8
BLACK
6
CONTINUOUS
10
5.95812
20
-2.84707
11
5.94238
21
-2.86281
0
LINE
8
BLACK
6
CONTINUOUS
10
5.94713
20
-4.22713
11
5.96287
21
-4.24287
0
LINE
8
BLACK
6
CONTINUOUS
10
5.96287
20
-4.22713
11
5.94713
21
-4.24287
0
LINE
8
BLACK
6
CONTINUOUS
10
5.95562
20
-2.32508
11
5.97137
21
-2.34083
0
LINE
8
BLACK
6
CONTINUOUS
10
5.97137
20
-2.32508
11
5.95562
21
-2.34083
0
LINE
8
BLACK
6
CONTINUOUS
10
5.95713
20
-3.52713
11
5.97287
21
-3.54287
0
LINE
8
BLACK
6
CONTINUOUS
10
5.97287
20
-3.52713
11
5.95713
21
-3.54287
0
LINE
8
BLACK
6
CONTINUOUS
10
5.96713
20
-4.50213
11
5.98287
21
-4.51787
0
LINE
8
BLACK
6
CONTINUOUS
10
5.98287
20
-4.50213
11
5.96713
21
-4.51787
0
LINE
8
BLACK
6
CONTINUOUS
10
5.99713
20
-3.92213
11
6.01287
21
-3.93787
0
LINE
8
BLACK
6
CONTINUOUS
10
6.01287
20
-3.92213
11
5.99713
21
-3.93787
0
LINE
8
BLACK
6
CONTINUOUS
10
6.02213
20
-4.60213
11
6.03787
21
-4.61787
0
LINE
8
BLACK
6
CONTINUOUS
10
6.03787
20
-4.60213
11
6.02213
21
-4.61787
0
LINE
8
BLACK
6
CONTINUOUS
10
6.03213
20
-3.14713
11
6.04787
21
-3.16287
0
LINE
8
BLACK
6
CONTINUOUS
10
6.04787
20
-3.14713
11
6.03213
21
-3.16287
0
LINE
8
BLACK
6
CONTINUOUS
10
6.06022
20
-5.03404
11
6.07596
21
-5.04978
0
LINE
8
BLACK
6
CONTINUOUS
10
6.07596
20
-5.03404
11
6.06022
21
-5.04978
0
LINE
8
BLACK
6
CONTINUOUS
10
6.07213
20
-4.78213
11
6.08787
21
-4.79787
0
LINE
8
BLACK
6
CONTINUOUS
10
6.08787
20
-4.78213
11
6.07213
21
-4.79787
0
LINE
8
BLACK
6
CONTINUOUS
10
6.09213
20
-3.92213
11
6.10787
21
-3.93787
0
LINE
8
BLACK
6
CONTINUOUS
10
6.10787
20
-3.92213
11
6.09213
21
-3.93787
0
LINE
8
BLACK
6
CONTINUOUS
10
6.09713
20
-4.22713
11
6.11287
21
-4.24287
0
LINE
8
BLACK
6
CONTINUOUS
10
6.11287
20
-4.22713
11
6.09713
21
-4.24287
0
LINE
8
BLACK
6
CONTINUOUS
10
6.10713
20
-3.52713
11
6.12287
21
-3.54287
0
LINE
8
BLACK
6
CONTINUOUS
10
6.12287
20
-3.52713
11
6.10713
21
-3.54287
0
LINE
8
BLACK
6
CONTINUOUS
10
6.11696
20
-3.8073
11
6.1327
21
-3.82304
0
LINE
8
BLACK
6
CONTINUOUS
10
6.1327
20
-3.8073
11
6.11696
21
-3.82304
0
LINE
8
BLACK
6
CONTINUOUS
10
6.11713
20
-4.54713
11
6.13287
21
-4.56287
0
LINE
8
BLACK
6
CONTINUOUS
10
6.13287
20
-4.54713
11
6.11713
21
-4.56287
0
LINE
8
BLACK
6
CONTINUOUS
10
6.12213
20
-4.70213
11
6.13787
21
-4.71787
0
LINE
8
BLACK
6
CONTINUOUS
10
6.13787
20
-4.70213
11
6.12213
21
-4.71787
0
LINE
8
BLACK
6
CONTINUOUS
10
6.12713
20
-3.05713
11
6.14287
21
-3.07287
0
LINE
8
BLACK
6
CONTINUOUS
10
6.14287
20
-3.05713
11
6.12713
21
-3.07287
0
LINE
8
BLACK
6
CONTINUOUS
10
6.14713
20
-4.22713
11
6.16287
21
-4.24287
0
LINE
8
BLACK
6
CONTINUOUS
10
6.16287
20
-4.22713
11
6.14713
21
-4.24287
0
LINE
8
BLACK
6
CONTINUOUS
10
6.17213
20
-4.85213
11
6.18787
21
-4.86787
0
LINE
8
BLACK
6
CONTINUOUS
10
6.18787
20
-4.85213
11
6.17213
21
-4.86787
0
LINE
8
BLACK
6
CONTINUOUS
10
6.18213
20
-4.78213
11
6.19787
21
-4.79787
0
LINE
8
BLACK
6
CONTINUOUS
10
6.19787
20
-4.78213
11
6.18213
21
-4.79787
0
LINE
8
BLACK
6
CONTINUOUS
10
6.18923
20
-3.29065
11
6.20498
21
-3.3064
0
LINE
8
BLACK
6
CONTINUOUS
10
6.20498
20
-3.29065
11
6.18923
21
-3.3064
0
LINE
8
BLACK
6
CONTINUOUS
10
6.19671
20
-2.47565
11
6.21246
21
-2.4914
0
LINE
8
BLACK
6
CONTINUOUS
10
6.21246
20
-2.47565
11
6.19671
21
-2.4914
0
LINE
8
BLACK
6
CONTINUOUS
10
6.19713
20
-3.35213
11
6.21287
21
-3.36787
0
LINE
8
BLACK
6
CONTINUOUS
10
6.21287
20
-3.35213
11
6.19713
21
-3.36787
0
LINE
8
BLACK
6
CONTINUOUS
10
6.19713
20
-4.22713
11
6.21287
21
-4.24287
0
LINE
8
BLACK
6
CONTINUOUS
10
6.21287
20
-4.22713
11
6.19713
21
-4.24287
0
LINE
8
BLACK
6
CONTINUOUS
10
6.22213
20
-4.54713
11
6.23787
21
-4.56287
0
LINE
8
BLACK
6
CONTINUOUS
10
6.23787
20
-4.54713
11
6.22213
21
-4.56287
0
LINE
8
BLACK
6
CONTINUOUS
10
6.22713
20
-4.40213
11
6.24287
21
-4.41787
0
LINE
8
BLACK
6
CONTINUOUS
10
6.24287
20
-4.40213
11
6.22713
21
-4.41787
0
LINE
8
BLACK
6
CONTINUOUS
10
6.24713
20
-3.83713
11
6.26287
21
-3.85287
0
LINE
8
BLACK
6
CONTINUOUS
10
6.26287
20
-3.83713
11
6.24713
21
-3.85287
0
LINE
8
BLACK
6
CONTINUOUS
10
6.29565
20
-3.3773
11
6.3114
21
-3.39304
0
LINE
8
BLACK
6
CONTINUOUS
10
6.3114
20
-3.3773
11
6.29565
21
-3.39304
0
LINE
8
BLACK
6
CONTINUOUS
10
6.29565
20
-3.42819
11
6.3114
21
-3.44394
0
LINE
8
BLACK
6
CONTINUOUS
10
6.3114
20
-3.42819
11
6.29565
21
-3.44394
0
LINE
8
BLACK
6
CONTINUOUS
10
6.30319
20
-2.99572
11
6.31894
21
-3.01147
0
LINE
8
BLACK
6
CONTINUOUS
10
6.31894
20
-2.99572
11
6.30319
21
-3.01147
0
LINE
8
BLACK
6
CONTINUOUS
10
6.31062
20
-2.95649
11
6.32637
21
-2.97224
0
LINE
8
BLACK
6
CONTINUOUS
10
6.32637
20
-2.95649
11
6.31062
21
-2.97224
0
LINE
8
BLACK
6
CONTINUOUS
10
6.32213
20
-2.3536
11
6.33787
21
-2.36935
0
LINE
8
BLACK
6
CONTINUOUS
10
6.33787
20
-2.3536
11
6.32213
21
-2.36935
0
LINE
8
BLACK
6
CONTINUOUS
10
6.34213
20
-3.63213
11
6.35787
21
-3.64787
0
LINE
8
BLACK
6
CONTINUOUS
10
6.35787
20
-3.63213
11
6.34213
21
-3.64787
0
LINE
8
BLACK
6
CONTINUOUS
10
6.34213
20
-3.75713
11
6.35787
21
-3.77287
0
LINE
8
BLACK
6
CONTINUOUS
10
6.35787
20
-3.75713
11
6.34213
21
-3.77287
0
LINE
8
BLACK
6
CONTINUOUS
10
6.34213
20
-3.97213
11
6.35787
21
-3.98787
0
LINE
8
BLACK
6
CONTINUOUS
10
6.35787
20
-3.97213
11
6.34213
21
-3.98787
0
LINE
8
BLACK
6
CONTINUOUS
10
6.34713
20
-5.09213
11
6.36287
21
-5.10787
0
LINE
8
BLACK
6
CONTINUOUS
10
6.36287
20
-5.09213
11
6.34713
21
-5.10787
0
LINE
8
BLACK
6
CONTINUOUS
10
6.35713
20
-4.13713
11
6.37287
21
-4.15287
0
LINE
8
BLACK
6
CONTINUOUS
10
6.37287
20
-4.13713
11
6.35713
21
-4.15287
0
LINE
8
BLACK
6
CONTINUOUS
10
6.35974
20
-2.4186
11
6.37549
21
-2.43435
0
LINE
8
BLACK
6
CONTINUOUS
10
6.37549
20
-2.4186
11
6.35974
21
-2.43435
0
LINE
8
BLACK
6
CONTINUOUS
10
6.36213
20
-3.34213
11
6.37787
21
-3.35787
0
LINE
8
BLACK
6
CONTINUOUS
10
6.37787
20
-3.34213
11
6.36213
21
-3.35787
0
LINE
8
BLACK
6
CONTINUOUS
10
6.37213
20
-4.40213
11
6.38787
21
-4.41787
0
LINE
8
BLACK
6
CONTINUOUS
10
6.38787
20
-4.40213
11
6.37213
21
-4.41787
0
LINE
8
BLACK
6
CONTINUOUS
10
6.37213
20
-4.75213
11
6.38787
21
-4.76787
0
LINE
8
BLACK
6
CONTINUOUS
10
6.38787
20
-4.75213
11
6.37213
21
-4.76787
0
LINE
8
BLACK
6
CONTINUOUS
10
6.39213
20
-2.74713
11
6.40787
21
-2.76287
0
LINE
8
BLACK
6
CONTINUOUS
10
6.40787
20
-2.74713
11
6.39213
21
-2.76287
0
LINE
8
BLACK
6
CONTINUOUS
10
6.39668
20
-2.39397
11
6.41243
21
-2.40972
0
LINE
8
BLACK
6
CONTINUOUS
10
6.41243
20
-2.39397
11
6.39668
21
-2.40972
0
LINE
8
BLACK
6
CONTINUOUS
10
6.39713
20
-3.49713
11
6.41287
21
-3.51287
0
LINE
8
BLACK
6
CONTINUOUS
10
6.41287
20
-3.49713
11
6.39713
21
-3.51287
0
LINE
8
BLACK
6
CONTINUOUS
10
6.39713
20
-4.3086
11
6.41287
21
-4.32435
0
LINE
8
BLACK
6
CONTINUOUS
10
6.41287
20
-4.3086
11
6.39713
21
-4.32435
0
LINE
8
BLACK
6
CONTINUOUS
10
6.39713
20
-4.55713
11
6.41287
21
-4.57287
0
LINE
8
BLACK
6
CONTINUOUS
10
6.41287
20
-4.55713
11
6.39713
21
-4.57287
0
LINE
8
BLACK
6
CONTINUOUS
10
6.39713
20
-4.66713
11
6.41287
21
-4.68287
0
LINE
8
BLACK
6
CONTINUOUS
10
6.41287
20
-4.66713
11
6.39713
21
-4.68287
0
LINE
8
BLACK
6
CONTINUOUS
10
6.40134
20
-3.57565
11
6.41709
21
-3.5914
0
LINE
8
BLACK
6
CONTINUOUS
10
6.41709
20
-3.57565
11
6.40134
21
-3.5914
0
LINE
8
BLACK
6
CONTINUOUS
10
6.42213
20
-3.29713
11
6.43787
21
-3.31287
0
LINE
8
BLACK
6
CONTINUOUS
10
6.43787
20
-3.29713
11
6.42213
21
-3.31287
0
LINE
8
BLACK
6
CONTINUOUS
10
6.42565
20
-3.14713
11
6.4414
21
-3.16287
0
LINE
8
BLACK
6
CONTINUOUS
10
6.4414
20
-3.14713
11
6.42565
21
-3.16287
0
LINE
8
BLACK
6
CONTINUOUS
10
6.43713
20
-3.59713
11
6.45287
21
-3.61287
0
LINE
8
BLACK
6
CONTINUOUS
10
6.45287
20
-3.59713
11
6.43713
21
-3.61287
0
LINE
8
BLACK
6
CONTINUOUS
10
6.43713
20
-4.28213
11
6.45287
21
-4.29787
0
LINE
8
BLACK
6
CONTINUOUS
10
6.45287
20
-4.28213
11
6.43713
21
-4.29787
0
LINE
8
BLACK
6
CONTINUOUS
10
6.48213
20
-2.34713
11
6.49787
21
-2.36287
0
LINE
8
BLACK
6
CONTINUOUS
10
6.49787
20
-2.34713
11
6.48213
21
-2.36287
0
LINE
8
BLACK
6
CONTINUOUS
10
6.49213
20
-4.28213
11
6.50787
21
-4.29787
0
LINE
8
BLACK
6
CONTINUOUS
10
6.50787
20
-4.28213
11
6.49213
21
-4.29787
0
LINE
8
BLACK
6
CONTINUOUS
10
6.49213
20
-4.32713
11
6.50787
21
-4.34287
0
LINE
8
BLACK
6
CONTINUOUS
10
6.50787
20
-4.32713
11
6.49213
21
-4.34287
0
LINE
8
BLACK
6
CONTINUOUS
10
6.49713
20
-4.04713
11
6.51287
21
-4.06287
0
LINE
8
BLACK
6
CONTINUOUS
10
6.51287
20
-4.04713
11
6.49713
21
-4.06287
0
LINE
8
BLACK
6
CONTINUOUS
10
6.52713
20
-3.98213
11
6.54287
21
-3.99787
0
LINE
8
BLACK
6
CONTINUOUS
10
6.54287
20
-3.98213
11
6.52713
21
-3.99787
0
LINE
8
BLACK
6
CONTINUOUS
10
6.53713
20
-2.42213
11
6.55287
21
-2.43787
0
LINE
8
BLACK
6
CONTINUOUS
10
6.55287
20
-2.42213
11
6.53713
21
-2.43787
0
LINE
8
BLACK
6
CONTINUOUS
10
6.54679
20
-5.06646
11
6.56254
21
-5.0822
0
LINE
8
BLACK
6
CONTINUOUS
10
6.56254
20
-5.06646
11
6.54679
21
-5.0822
0
LINE
8
BLACK
6
CONTINUOUS
10
6.57213
20
-4.60213
11
6.58787
21
-4.61787
0
LINE
8
BLACK
6
CONTINUOUS
10
6.58787
20
-4.60213
11
6.57213
21
-4.61787
0
LINE
8
BLACK
6
CONTINUOUS
10
6.60801
20
-2.50563
11
6.62376
21
-2.52138
0
LINE
8
BLACK
6
CONTINUOUS
10
6.62376
20
-2.50563
11
6.60801
21
-2.52138
0
LINE
8
BLACK
6
CONTINUOUS
10
6.61213
20
-3.77713
11
6.62787
21
-3.79287
0
LINE
8
BLACK
6
CONTINUOUS
10
6.62787
20
-3.77713
11
6.61213
21
-3.79287
0
LINE
8
BLACK
6
CONTINUOUS
10
6.64213
20
-2.3936
11
6.65787
21
-2.40935
0
LINE
8
BLACK
6
CONTINUOUS
10
6.65787
20
-2.3936
11
6.64213
21
-2.40935
0
LINE
8
BLACK
6
CONTINUOUS
10
6.66213
20
-5.37213
11
6.67787
21
-5.38787
0
LINE
8
BLACK
6
CONTINUOUS
10
6.67787
20
-5.37213
11
6.66213
21
-5.38787
0
LINE
8
BLACK
6
CONTINUOUS
10
6.67213
20
-5.05713
11
6.68787
21
-5.07287
0
LINE
8
BLACK
6
CONTINUOUS
10
6.68787
20
-5.05713
11
6.67213
21
-5.07287
0
LINE
8
BLACK
6
CONTINUOUS
10
6.68213
20
-4.35213
11
6.69787
21
-4.36787
0
LINE
8
BLACK
6
CONTINUOUS
10
6.69787
20
-4.35213
11
6.68213
21
-4.36787
0
LINE
8
BLACK
6
CONTINUOUS
10
6.72213
20
-4.90213
11
6.73787
21
-4.91787
0
LINE
8
BLACK
6
CONTINUOUS
10
6.73787
20
-4.90213
11
6.72213
21
-4.91787
0
LINE
8
BLACK
6
CONTINUOUS
10
6.72713
20
-3.54713
11
6.74287
21
-3.56287
0
LINE
8
BLACK
6
CONTINUOUS
10
6.74287
20
-3.54713
11
6.72713
21
-3.56287
0
LINE
8
BLACK
6
CONTINUOUS
10
6.72713
20
-4.36213
11
6.74287
21
-4.37787
0
LINE
8
BLACK
6
CONTINUOUS
10
6.74287
20
-4.36213
11
6.72713
21
-4.37787
0
LINE
8
BLACK
6
CONTINUOUS
10
6.7336
20
-2.34953
11
6.74935
21
-2.36528
0
LINE
8
BLACK
6
CONTINUOUS
10
6.74935
20
-2.34953
11
6.7336
21
-2.36528
0
LINE
8
BLACK
6
CONTINUOUS
10
6.73713
20
-3.14713
11
6.75287
21
-3.16287
0
LINE
8
BLACK
6
CONTINUOUS
10
6.75287
20
-3.14713
11
6.73713
21
-3.16287
0
LINE
8
BLACK
6
CONTINUOUS
10
6.73713
20
-3.19321
11
6.75287
21
-3.20896
0
LINE
8
BLACK
6
CONTINUOUS
10
6.75287
20
-3.19321
11
6.73713
21
-3.20896
0
LINE
8
BLACK
6
CONTINUOUS
10
6.73713
20
-3.49713
11
6.75287
21
-3.51287
0
LINE
8
BLACK
6
CONTINUOUS
10
6.75287
20
-3.49713
11
6.73713
21
-3.51287
0
LINE
8
BLACK
6
CONTINUOUS
10
6.75713
20
-4.67213
11
6.77287
21
-4.68787
0
LINE
8
BLACK
6
CONTINUOUS
10
6.77287
20
-4.67213
11
6.75713
21
-4.68787
0
LINE
8
BLACK
6
CONTINUOUS
10
6.76213
20
-2.23713
11
6.77787
21
-2.25287
0
LINE
8
BLACK
6
CONTINUOUS
10
6.77787
20
-2.23713
11
6.76213
21
-2.25287
0
LINE
8
BLACK
6
CONTINUOUS
10
6.76213
20
-4.62213
11
6.77787
21
-4.63787
0
LINE
8
BLACK
6
CONTINUOUS
10
6.77787
20
-4.62213
11
6.76213
21
-4.63787
0
LINE
8
BLACK
6
CONTINUOUS
10
6.77213
20
-4.80213
11
6.78787
21
-4.81787
0
LINE
8
BLACK
6
CONTINUOUS
10
6.78787
20
-4.80213
11
6.77213
21
-4.81787
0
LINE
8
BLACK
6
CONTINUOUS
10
6.77213
20
-4.85213
11
6.78787
21
-4.86787
0
LINE
8
BLACK
6
CONTINUOUS
10
6.78787
20
-4.85213
11
6.77213
21
-4.86787
0
LINE
8
BLACK
6
CONTINUOUS
10
6.78713
20
-3.64713
11
6.80287
21
-3.66287
0
LINE
8
BLACK
6
CONTINUOUS
10
6.80287
20
-3.64713
11
6.78713
21
-3.66287
0
LINE
8
BLACK
6
CONTINUOUS
10
6.80213
20
-3.53213
11
6.81787
21
-3.54787
0
LINE
8
BLACK
6
CONTINUOUS
10
6.81787
20
-3.53213
11
6.80213
21
-3.54787
0
LINE
8
BLACK
6
CONTINUOUS
10
6.80356
20
-3.32565
11
6.8193
21
-3.3414
0
LINE
8
BLACK
6
CONTINUOUS
10
6.8193
20
-3.32565
11
6.80356
21
-3.3414
0
LINE
8
BLACK
6
CONTINUOUS
10
6.81213
20
-3.05713
11
6.82787
21
-3.07287
0
LINE
8
BLACK
6
CONTINUOUS
10
6.82787
20
-3.05713
11
6.81213
21
-3.07287
0
LINE
8
BLACK
6
CONTINUOUS
10
6.81213
20
-4.49213
11
6.82787
21
-4.50787
0
LINE
8
BLACK
6
CONTINUOUS
10
6.82787
20
-4.49213
11
6.81213
21
-4.50787
0
LINE
8
BLACK
6
CONTINUOUS
10
6.8136
20
-3.72236
11
6.82935
21
-3.73811
0
LINE
8
BLACK
6
CONTINUOUS
10
6.82935
20
-3.72236
11
6.8136
21
-3.73811
0
LINE
8
BLACK
6
CONTINUOUS
10
6.82213
20
-4.28713
11
6.83787
21
-4.30287
0
LINE
8
BLACK
6
CONTINUOUS
10
6.83787
20
-4.28713
11
6.82213
21
-4.30287
0
LINE
8
BLACK
6
CONTINUOUS
10
6.84213
20
-3.97713
11
6.85787
21
-3.99287
0
LINE
8
BLACK
6
CONTINUOUS
10
6.85787
20
-3.97713
11
6.84213
21
-3.99287
0
LINE
8
BLACK
6
CONTINUOUS
10
6.85713
20
-2.59713
11
6.87287
21
-2.61287
0
LINE
8
BLACK
6
CONTINUOUS
10
6.87287
20
-2.59713
11
6.85713
21
-2.61287
0
LINE
8
BLACK
6
CONTINUOUS
10
6.86213
20
-4.85213
11
6.87787
21
-4.86787
0
LINE
8
BLACK
6
CONTINUOUS
10
6.87787
20
-4.85213
11
6.86213
21
-4.86787
0
LINE
8
BLACK
6
CONTINUOUS
10
6.86231
20
-2.45065
11
6.87805
21
-2.4664
0
LINE
8
BLACK
6
CONTINUOUS
10
6.87805
20
-2.45065
11
6.86231
21
-2.4664
0
LINE
8
BLACK
6
CONTINUOUS
10
6.87213
20
-3.34713
11
6.88787
21
-3.36287
0
LINE
8
BLACK
6
CONTINUOUS
10
6.88787
20
-3.34713
11
6.87213
21
-3.36287
0
LINE
8
BLACK
6
CONTINUOUS
10
6.88209
20
-3.53243
11
6.89784
21
-3.54818
0
LINE
8
BLACK
6
CONTINUOUS
10
6.89784
20
-3.53243
11
6.88209
21
-3.54818
0
LINE
8
BLACK
6
CONTINUOUS
10
6.89713
20
-2.23713
11
6.91287
21
-2.25287
0
LINE
8
BLACK
6
CONTINUOUS
10
6.91287
20
-2.23713
11
6.89713
21
-2.25287
0
LINE
8
BLACK
6
CONTINUOUS
10
6.90213
20
-3.4636
11
6.91787
21
-3.47935
0
LINE
8
BLACK
6
CONTINUOUS
10
6.91787
20
-3.4636
11
6.90213
21
-3.47935
0
LINE
8
BLACK
6
CONTINUOUS
10
6.91713
20
-5.05713
11
6.93287
21
-5.07287
0
LINE
8
BLACK
6
CONTINUOUS
10
6.93287
20
-5.05713
11
6.91713
21
-5.07287
0
LINE
8
BLACK
6
CONTINUOUS
10
6.92213
20
-2.66713
11
6.93787
21
-2.68287
0
LINE
8
BLACK
6
CONTINUOUS
10
6.93787
20
-2.66713
11
6.92213
21
-2.68287
0
LINE
8
BLACK
6
CONTINUOUS
10
6.92213
20
-3.86713
11
6.93787
21
-3.88287
0
LINE
8
BLACK
6
CONTINUOUS
10
6.93787
20
-3.86713
11
6.92213
21
-3.88287
0
LINE
8
BLACK
6
CONTINUOUS
10
6.93213
20
-3.19321
11
6.94787
21
-3.20896
0
LINE
8
BLACK
6
CONTINUOUS
10
6.94787
20
-3.19321
11
6.93213
21
-3.20896
0
LINE
8
BLACK
6
CONTINUOUS
10
6.95213
20
-3.33213
11
6.96787
21
-3.34787
0
LINE
8
BLACK
6
CONTINUOUS
10
6.96787
20
-3.33213
11
6.95213
21
-3.34787
0
LINE
8
BLACK
6
CONTINUOUS
10
6.97713
20
-2.29713
11
6.99287
21
-2.31287
0
LINE
8
BLACK
6
CONTINUOUS
10
6.99287
20
-2.29713
11
6.97713
21
-2.31287
0
LINE
8
BLACK
6
CONTINUOUS
10
6.98213
20
-3.68713
11
6.99787
21
-3.70287
0
LINE
8
BLACK
6
CONTINUOUS
10
6.99787
20
-3.68713
11
6.98213
21
-3.70287
0
LINE
8
BLACK
6
CONTINUOUS
10
6.99213
20
-3.19321
11
7.00787
21
-3.20896
0
LINE
8
BLACK
6
CONTINUOUS
10
7.00787
20
-3.19321
11
6.99213
21
-3.20896
0
LINE
8
BLACK
6
CONTINUOUS
10
6.9933
20
-2.47711
11
7.00905
21
-2.49285
0
LINE
8
BLACK
6
CONTINUOUS
10
7.00905
20
-2.47711
11
6.9933
21
-2.49285
0
LINE
8
BLACK
6
CONTINUOUS
10
7.00213
20
-4.94213
11
7.01787
21
-4.95787
0
LINE
8
BLACK
6
CONTINUOUS
10
7.01787
20
-4.94213
11
7.00213
21
-4.95787
0
LINE
8
BLACK
6
CONTINUOUS
10
7.00713
20
-4.83213
11
7.02287
21
-4.84787
0
LINE
8
BLACK
6
CONTINUOUS
10
7.02287
20
-4.83213
11
7.00713
21
-4.84787
0
LINE
8
BLACK
6
CONTINUOUS
10
7.01213
20
-3.86713
11
7.02787
21
-3.88287
0
LINE
8
BLACK
6
CONTINUOUS
10
7.02787
20
-3.86713
11
7.01213
21
-3.88287
0
LINE
8
BLACK
6
CONTINUOUS
10
7.0293
20
-3.42495
11
7.04505
21
-3.4407
0
LINE
8
BLACK
6
CONTINUOUS
10
7.04505
20
-3.42495
11
7.0293
21
-3.4407
0
LINE
8
BLACK
6
CONTINUOUS
10
7.03713
20
-3.79713
11
7.05287
21
-3.81287
0
LINE
8
BLACK
6
CONTINUOUS
10
7.05287
20
-3.79713
11
7.03713
21
-3.81287
0
LINE
8
BLACK
6
CONTINUOUS
10
7.05713
20
-3.66713
11
7.07287
21
-3.68287
0
LINE
8
BLACK
6
CONTINUOUS
10
7.07287
20
-3.66713
11
7.05713
21
-3.68287
0
LINE
8
BLACK
6
CONTINUOUS
10
7.07213
20
-4.80713
11
7.08787
21
-4.82287
0
LINE
8
BLACK
6
CONTINUOUS
10
7.08787
20
-4.80713
11
7.07213
21
-4.82287
0
LINE
8
BLACK
6
CONTINUOUS
10
7.08713
20
-4.3236
11
7.10287
21
-4.33935
0
LINE
8
BLACK
6
CONTINUOUS
10
7.10287
20
-4.3236
11
7.08713
21
-4.33935
0
LINE
8
BLACK
6
CONTINUOUS
10
7.11213
20
-3.05713
11
7.12787
21
-3.07287
0
LINE
8
BLACK
6
CONTINUOUS
10
7.12787
20
-3.05713
11
7.11213
21
-3.07287
0
LINE
8
BLACK
6
CONTINUOUS
10
7.15213
20
-4.85713
11
7.16787
21
-4.87287
0
LINE
8
BLACK
6
CONTINUOUS
10
7.16787
20
-4.85713
11
7.15213
21
-4.87287
0
LINE
8
BLACK
6
CONTINUOUS
10
7.16196
20
-3.4273
11
7.1777
21
-3.44304
0
LINE
8
BLACK
6
CONTINUOUS
10
7.1777
20
-3.4273
11
7.16196
21
-3.44304
0
LINE
8
BLACK
6
CONTINUOUS
10
7.18213
20
-4.81713
11
7.19787
21
-4.83287
0
LINE
8
BLACK
6
CONTINUOUS
10
7.19787
20
-4.81713
11
7.18213
21
-4.83287
0
LINE
8
BLACK
6
CONTINUOUS
10
7.3406
20
-4.77968
11
7.35635
21
-4.79543
0
LINE
8
BLACK
6
CONTINUOUS
10
7.35635
20
-4.77968
11
7.3406
21
-4.79543
0
LINE
8
BLACK
6
CONTINUOUS
10
7.3702
20
-4.75115
11
7.38594
21
-4.7669
0
LINE
8
BLACK
6
CONTINUOUS
10
7.38594
20
-4.75115
11
7.3702
21
-4.7669
0
LINE
8
BLACK
6
CONTINUOUS
10
7.43713
20
-4.87713
11
7.45287
21
-4.89287
0
LINE
8
BLACK
6
CONTINUOUS
10
7.45287
20
-4.87713
11
7.43713
21
-4.89287
0
LINE
8
BLACK
6
CONTINUOUS
10
7.47213
20
-4.05713
11
7.48787
21
-4.07287
0
LINE
8
BLACK
6
CONTINUOUS
10
7.48787
20
-4.05713
11
7.47213
21
-4.07287
0
LINE
8
BLACK
6
CONTINUOUS
10
7.49713
20
-4.41713
11
7.51287
21
-4.43287
0
LINE
8
BLACK
6
CONTINUOUS
10
7.51287
20
-4.41713
11
7.49713
21
-4.43287
0
LINE
8
BLACK
6
CONTINUOUS
10
7.5236
20
-4.90565
11
7.53935
21
-4.9214
0
LINE
8
BLACK
6
CONTINUOUS
10
7.53935
20
-4.90565
11
7.5236
21
-4.9214
0
LINE
8
BLACK
6
CONTINUOUS
10
7.53213
20
-4.05713
11
7.54787
21
-4.07287
0
LINE
8
BLACK
6
CONTINUOUS
10
7.54787
20
-4.05713
11
7.53213
21
-4.07287
0
LINE
8
BLACK
6
CONTINUOUS
10
7.58213
20
-3.94713
11
7.59787
21
-3.96287
0
LINE
8
BLACK
6
CONTINUOUS
10
7.59787
20
-3.94713
11
7.58213
21
-3.96287
0
LINE
8
BLACK
6
CONTINUOUS
10
7.67713
20
-4.72713
11
7.69287
21
-4.74287
0
LINE
8
BLACK
6
CONTINUOUS
10
7.69287
20
-4.72713
11
7.67713
21
-4.74287
0
CIRCLE
8
BLACK
10
7.2002
20
-5.00909
40
0.0149606
0
CIRCLE
8
BLACK
10
7.2502
20
-5.10909
40
0.0149606
0
CIRCLE
8
BLACK
10
7.3002
20
-5.00909
40
0.0149606
0
CIRCLE
8
BLACK
10
7.3502
20
-5.10909
40
0.0149606
0
CIRCLE
8
BLACK
10
7.4002
20
-5.00909
40
0.0149606
0
CIRCLE
8
BLACK
10
7.4502
20
-5.10909
40
0.0149606
0
LINE
8
BLACK
6
CONTINUOUS
10
5.52868
20
-4.32551
11
5.52868
21
-4.35701
0
LINE
8
BLACK
6
CONTINUOUS
10
5.51293
20
-4.34126
11
5.54443
21
-4.34126
0
LINE
8
BLACK
6
CONTINUOUS
10
5.52868
20
-4.52551
11
5.52868
21
-4.55701
0
LINE
8
BLACK
6
CONTINUOUS
10
5.51293
20
-4.54126
11
5.54443
21
-4.54126
0
LINE
8
BLACK
6
CONTINUOUS
10
5.52868
20
-4.72551
11
5.52868
21
-4.75701
0
LINE
8
BLACK
6
CONTINUOUS
10
5.51293
20
-4.74126
11
5.54443
21
-4.74126
0
LINE
8
BLACK
6
CONTINUOUS
10
5.52868
20
-4.92551
11
5.52868
21
-4.95701
0
LINE
8
BLACK
6
CONTINUOUS
10
5.51293
20
-4.94126
11
5.54443
21
-4.94126
0
LINE
8
BLACK
6
CONTINUOUS
10
5.56161
20
-5.47878
11
5.56161
21
-5.45122
0
LINE
8
BLACK
6
CONTINUOUS
10
5.56161
20
-5.45122
11
5.53405
21
-5.45122
0
LINE
8
BLACK
6
CONTINUOUS
10
5.53405
20
-5.45122
11
5.53405
21
-5.47878
0
LINE
8
BLACK
6
CONTINUOUS
10
5.53405
20
-5.47878
11
5.56161
21
-5.47878
0
LINE
8
BLACK
6
CONTINUOUS
10
5.73878
20
-5.47878
11
5.73878
21
-5.45122
0
LINE
8
BLACK
6
CONTINUOUS
10
5.73878
20
-5.45122
11
5.71122
21
-5.45122
0
LINE
8
BLACK
6
CONTINUOUS
10
5.71122
20
-5.45122
11
5.71122
21
-5.47878
0
LINE
8
BLACK
6
CONTINUOUS
10
5.71122
20
-5.47878
11
5.73878
21
-5.47878
0
LINE
8
BLACK
6
CONTINUOUS
10
4.275
20
-2.12469
11
4.29469
21
-2.105
0
LINE
8
BLACK
6
CONTINUOUS
10
4.29469
20
-2.105
11
4.275
21
-2.08531
0
LINE
8
BLACK
6
CONTINUOUS
10
4.275
20
-2.08531
11
4.25531
21
-2.105
0
LINE
8
BLACK
6
CONTINUOUS
10
4.25531
20
-2.105
11
4.275
21
-2.12469
0
LINE
8
BLACK
6
CONTINUOUS
10
4.275
20
-2.22469
11
4.29469
21
-2.205
0
LINE
8
BLACK
6
CONTINUOUS
10
4.29469
20
-2.205
11
4.275
21
-2.18531
0
LINE
8
BLACK
6
CONTINUOUS
10
4.275
20
-2.18531
11
4.25531
21
-2.205
0
LINE
8
BLACK
6
CONTINUOUS
10
4.25531
20
-2.205
11
4.275
21
-2.22469
0
LINE
8
BLACK
6
CONTINUOUS
10
4.275
20
-2.32469
11
4.29469
21
-2.305
0
LINE
8
BLACK
6
CONTINUOUS
10
4.29469
20
-2.305
11
4.275
21
-2.28531
0
LINE
8
BLACK
6
CONTINUOUS
10
4.275
20
-2.28531
11
4.25531
21
-2.305
0
LINE
8
BLACK
6
CONTINUOUS
10
4.25531
20
-2.305
11
4.275
21
-2.32469
0
LINE
8
BLACK
6
CONTINUOUS
10
4.275
20
-2.42469
11
4.29469
21
-2.405
0
LINE
8
BLACK
6
CONTINUOUS
10
4.29469
20
-2.405
11
4.275
21
-2.38531
0
LINE
8
BLACK
6
CONTINUOUS
10
4.275
20
-2.38531
11
4.25531
21
-2.405
0
LINE
8
BLACK
6
CONTINUOUS
10
4.25531
20
-2.405
11
4.275
21
-2.42469
0
LINE
8
BLACK
6
CONTINUOUS
10
4.275
20
-2.52469
11
4.29469
21
-2.505
0
LINE
8
BLACK
6
CONTINUOUS
10
4.29469
20
-2.505
11
4.275
21
-2.48531
0
LINE
8
BLACK
6
CONTINUOUS
10
4.275
20
-2.48531
11
4.25531
21
-2.505
0
LINE
8
BLACK
6
CONTINUOUS
10
4.25531
20
-2.505
11
4.275
21
-2.52469
0
LINE
8
BLACK
6
CONTINUOUS
10
4.275
20
-2.62469
11
4.29469
21
-2.605
0
LINE
8
BLACK
6
CONTINUOUS
10
4.29469
20
-2.605
11
4.275
21
-2.58531
0
LINE
8
BLACK
6
CONTINUOUS
10
4.275
20
-2.58531
11
4.25531
21
-2.605
0
LINE
8
BLACK
6
CONTINUOUS
10
4.25531
20
-2.605
11
4.275
21
-2.62469
0
LINE
8
BLACK
6
CONTINUOUS
10
4.275
20
-2.72469
11
4.29469
21
-2.705
0
LINE
8
BLACK
6
CONTINUOUS
10
4.29469
20
-2.705
11
4.275
21
-2.68531
0
LINE
8
BLACK
6
CONTINUOUS
10
4.275
20
-2.68531
11
4.25531
21
-2.705
0
LINE
8
BLACK
6
CONTINUOUS
10
4.25531
20
-2.705
11
4.275
21
-2.72469
0
LINE
8
BLACK
6
CONTINUOUS
10
4.275
20
-2.82469
11
4.29469
21
-2.805
0
LINE
8
BLACK
6
CONTINUOUS
10
4.29469
20
-2.805
11
4.275
21
-2.78531
0
LINE
8
BLACK
6
CONTINUOUS
10
4.275
20
-2.78531
11
4.25531
21
-2.805
0
LINE
8
BLACK
6
CONTINUOUS
10
4.25531
20
-2.805
11
4.275
21
-2.82469
0
LINE
8
BLACK
6
CONTINUOUS
10
4.275
20
-2.92469
11
4.29469
21
-2.905
0
LINE
8
BLACK
6
CONTINUOUS
10
4.29469
20
-2.905
11
4.275
21
-2.88531
0
LINE
8
BLACK
6
CONTINUOUS
10
4.275
20
-2.88531
11
4.25531
21
-2.905
0
LINE
8
BLACK
6
CONTINUOUS
10
4.25531
20
-2.905
11
4.275
21
-2.92469
0
LINE
8
BLACK
6
CONTINUOUS
10
4.275
20
-3.02469
11
4.29469
21
-3.005
0
LINE
8
BLACK
6
CONTINUOUS
10
4.29469
20
-3.005
11
4.275
21
-2.98531
0
LINE
8
BLACK
6
CONTINUOUS
10
4.275
20
-2.98531
11
4.25531
21
-3.005
0
LINE
8
BLACK
6
CONTINUOUS
10
4.25531
20
-3.005
11
4.275
21
-3.02469
0
LINE
8
BLACK
6
CONTINUOUS
10
4.275
20
-3.12469
11
4.29469
21
-3.105
0
LINE
8
BLACK
6
CONTINUOUS
10
4.29469
20
-3.105
11
4.275
21
-3.08531
0
LINE
8
BLACK
6
CONTINUOUS
10
4.275
20
-3.08531
11
4.25531
21
-3.105
0
LINE
8
BLACK
6
CONTINUOUS
10
4.25531
20
-3.105
11
4.275
21
-3.12469
0
LINE
8
BLACK
6
CONTINUOUS
10
4.275
20
-3.22469
11
4.29469
21
-3.205
0
LINE
8
BLACK
6
CONTINUOUS
10
4.29469
20
-3.205
11
4.275
21
-3.18531
0
LINE
8
BLACK
6
CONTINUOUS
10
4.275
20
-3.18531
11
4.25531
21
-3.205
0
LINE
8
BLACK
6
CONTINUOUS
10
4.25531
20
-3.205
11
4.275
21
-3.22469
0
LINE
8
BLACK
6
CONTINUOUS
10
4.275
20
-3.32469
11
4.29469
21
-3.305
0
LINE
8
BLACK
6
CONTINUOUS
10
4.29469
20
-3.305
11
4.275
21
-3.28531
0
LINE
8
BLACK
6
CONTINUOUS
10
4.275
20
-3.28531
11
4.25531
21
-3.305
0
LINE
8
BLACK
6
CONTINUOUS
10
4.25531
20
-3.305
11
4.275
21
-3.32469
0
LINE
8
BLACK
6
CONTINUOUS
10
4.275
20
-3.42469
11
4.29469
21
-3.405
0
LINE
8
BLACK
6
CONTINUOUS
10
4.29469
20
-3.405
11
4.275
21
-3.38531
0
LINE
8
BLACK
6
CONTINUOUS
10
4.275
20
-3.38531
11
4.25531
21
-3.405
0
LINE
8
BLACK
6
CONTINUOUS
10
4.25531
20
-3.405
11
4.275
21
-3.42469
0
LINE
8
BLACK
6
CONTINUOUS
10
4.275
20
-3.52469
11
4.29469
21
-3.505
0
LINE
8
BLACK
6
CONTINUOUS
10
4.29469
20
-3.505
11
4.275
21
-3.48531
0
LINE
8
BLACK
6
CONTINUOUS
10
4.275
20
-3.48531
11
4.25531
21
-3.505
0
LINE
8
BLACK
6
CONTINUOUS
10
4.25531
20
-3.505
11
4.275
21
-3.52469
0
LINE
8
BLACK
6
CONTINUOUS
10
4.275
20
-3.62469
11
4.29469
21
-3.605
0
LINE
8
BLACK
6
CONTINUOUS
10
4.29469
20
-3.605
11
4.275
21
-3.58531
0
LINE
8
BLACK
6
CONTINUOUS
10
4.275
20
-3.58531
11
4.25531
21
-3.605
0
LINE
8
BLACK
6
CONTINUOUS
10
4.25531
20
-3.605
11
4.275
21
-3.62469
0
LINE
8
BLACK
6
CONTINUOUS
10
4.275
20
-3.72469
11
4.29469
21
-3.705
0
LINE
8
BLACK
6
CONTINUOUS
10
4.29469
20
-3.705
11
4.275
21
-3.68531
0
LINE
8
BLACK
6
CONTINUOUS
10
4.275
20
-3.68531
11
4.25531
21
-3.705
0
LINE
8
BLACK
6
CONTINUOUS
10
4.25531
20
-3.705
11
4.275
21
-3.72469
0
LINE
8
BLACK
6
CONTINUOUS
10
4.275
20
-3.82469
11
4.29469
21
-3.805
0
LINE
8
BLACK
6
CONTINUOUS
10
4.29469
20
-3.805
11
4.275
21
-3.78531
0
LINE
8
BLACK
6
CONTINUOUS
10
4.275
20
-3.78531
11
4.25531
21
-3.805
0
LINE
8
BLACK
6
CONTINUOUS
10
4.25531
20
-3.805
11
4.275
21
-3.82469
0
LINE
8
BLACK
6
CONTINUOUS
10
4.275
20
-3.92469
11
4.29469
21
-3.905
0
LINE
8
BLACK
6
CONTINUOUS
10
4.29469
20
-3.905
11
4.275
21
-3.88531
0
LINE
8
BLACK
6
CONTINUOUS
10
4.275
20
-3.88531
11
4.25531
21
-3.905
0
LINE
8
BLACK
6
CONTINUOUS
10
4.25531
20
-3.905
11
4.275
21
-3.92469
0
LINE
8
BLACK
6
CONTINUOUS
10
4.275
20
-4.02469
11
4.29469
21
-4.005
0
LINE
8
BLACK
6
CONTINUOUS
10
4.29469
20
-4.005
11
4.275
21
-3.98531
0
LINE
8
BLACK
6
CONTINUOUS
10
4.275
20
-3.98531
11
4.25531
21
-4.005
0
LINE
8
BLACK
6
CONTINUOUS
10
4.25531
20
-4.005
11
4.275
21
-4.02469
0
LINE
8
BLACK
6
CONTINUOUS
10
4.375
20
-2.12469
11
4.39469
21
-2.105
0
LINE
8
BLACK
6
CONTINUOUS
10
4.39469
20
-2.105
11
4.375
21
-2.08531
0
LINE
8
BLACK
6
CONTINUOUS
10
4.375
20
-2.08531
11
4.35531
21
-2.105
0
LINE
8
BLACK
6
CONTINUOUS
10
4.35531
20
-2.105
11
4.375
21
-2.12469
0
LINE
8
BLACK
6
CONTINUOUS
10
4.375
20
-2.22469
11
4.39469
21
-2.205
0
LINE
8
BLACK
6
CONTINUOUS
10
4.39469
20
-2.205
11
4.375
21
-2.18531
0
LINE
8
BLACK
6
CONTINUOUS
10
4.375
20
-2.18531
11
4.35531
21
-2.205
0
LINE
8
BLACK
6
CONTINUOUS
10
4.35531
20
-2.205
11
4.375
21
-2.22469
0
LINE
8
BLACK
6
CONTINUOUS
10
4.375
20
-2.32469
11
4.39469
21
-2.305
0
LINE
8
BLACK
6
CONTINUOUS
10
4.39469
20
-2.305
11
4.375
21
-2.28531
0
LINE
8
BLACK
6
CONTINUOUS
10
4.375
20
-2.28531
11
4.35531
21
-2.305
0
LINE
8
BLACK
6
CONTINUOUS
10
4.35531
20
-2.305
11
4.375
21
-2.32469
0
LINE
8
BLACK
6
CONTINUOUS
10
4.375
20
-2.42469
11
4.39469
21
-2.405
0
LINE
8
BLACK
6
CONTINUOUS
10
4.39469
20
-2.405
11
4.375
21
-2.38531
0
LINE
8
BLACK
6
CONTINUOUS
10
4.375
20
-2.38531
11
4.35531
21
-2.405
0
LINE
8
BLACK
6
CONTINUOUS
10
4.35531
20
-2.405
11
4.375
21
-2.42469
0
LINE
8
BLACK
6
CONTINUOUS
10
4.375
20
-2.52469
11
4.39469
21
-2.505
0
LINE
8
BLACK
6
CONTINUOUS
10
4.39469
20
-2.505
11
4.375
21
-2.48531
0
LINE
8
BLACK
6
CONTINUOUS
10
4.375
20
-2.48531
11
4.35531
21
-2.505
0
LINE
8
BLACK
6
CONTINUOUS
10
4.35531
20
-2.505
11
4.375
21
-2.52469
0
LINE
8
BLACK
6
CONTINUOUS
10
4.375
20
-2.62469
11
4.39469
21
-2.605
0
LINE
8
BLACK
6
CONTINUOUS
10
4.39469
20
-2.605
11
4.375
21
-2.58531
0
LINE
8
BLACK
6
CONTINUOUS
10
4.375
20
-2.58531
11
4.35531
21
-2.605
0
LINE
8
BLACK
6
CONTINUOUS
10
4.35531
20
-2.605
11
4.375
21
-2.62469
0
LINE
8
BLACK
6
CONTINUOUS
10
4.375
20
-2.72469
11
4.39469
21
-2.705
0
LINE
8
BLACK
6
CONTINUOUS
10
4.39469
20
-2.705
11
4.375
21
-2.68531
0
LINE
8
BLACK
6
CONTINUOUS
10
4.375
20
-2.68531
11
4.35531
21
-2.705
0
LINE
8
BLACK
6
CONTINUOUS
10
4.35531
20
-2.705
11
4.375
21
-2.72469
0
LINE
8
BLACK
6
CONTINUOUS
10
4.375
20
-2.82469
11
4.39469
21
-2.805
0
LINE
8
BLACK
6
CONTINUOUS
10
4.39469
20
-2.805
11
4.375
21
-2.78531
0
LINE
8
BLACK
6
CONTINUOUS
10
4.375
20
-2.78531
11
4.35531
21
-2.805
0
LINE
8
BLACK
6
CONTINUOUS
10
4.35531
20
-2.805
11
4.375
21
-2.82469
0
LINE
8
BLACK
6
CONTINUOUS
10
4.375
20
-2.92469
11
4.39469
21
-2.905
0
LINE
8
BLACK
6
CONTINUOUS
10
4.39469
20
-2.905
11
4.375
21
-2.88531
0
LINE
8
BLACK
6
CONTINUOUS
10
4.375
20
-2.88531
11
4.35531
21
-2.905
0
LINE
8
BLACK
6
CONTINUOUS
10
4.35531
20
-2.905
11
4.375
21
-2.92469
0
LINE
8
BLACK
6
CONTINUOUS
10
4.375
20
-3.02469
11
4.39469
21
-3.005
0
LINE
8
BLACK
6
CONTINUOUS
10
4.39469
20
-3.005
11
4.375
21
-2.98531
0
LINE
8
BLACK
6
CONTINUOUS
10
4.375
20
-2.98531
11
4.35531
21
-3.005
0
LINE
8
BLACK
6
CONTINUOUS
10
4.35531
20
-3.005
11
4.375
21
-3.02469
0
LINE
8
BLACK
6
CONTINUOUS
10
4.375
20
-3.12469
11
4.39469
21
-3.105
0
LINE
8
BLACK
6
CONTINUOUS
10
4.39469
20
-3.105
11
4.375
21
-3.08531
0
LINE
8
BLACK
6
CONTINUOUS
10
4.375
20
-3.08531
11
4.35531
21
-3.105
0
LINE
8
BLACK
6
CONTINUOUS
10
4.35531
20
-3.105
11
4.375
21
-3.12469
0
LINE
8
BLACK
6
CONTINUOUS
10
4.375
20
-3.22469
11
4.39469
21
-3.205
0
LINE
8
BLACK
6
CONTINUOUS
10
4.39469
20
-3.205
11
4.375
21
-3.18531
0
LINE
8
BLACK
6
CONTINUOUS
10
4.375
20
-3.18531
11
4.35531
21
-3.205
0
LINE
8
BLACK
6
CONTINUOUS
10
4.35531
20
-3.205
11
4.375
21
-3.22469
0
LINE
8
BLACK
6
CONTINUOUS
10
4.375
20
-3.32469
11
4.39469
21
-3.305
0
LINE
8
BLACK
6
CONTINUOUS
10
4.39469
20
-3.305
11
4.375
21
-3.28531
0
LINE
8
BLACK
6
CONTINUOUS
10
4.375
20
-3.28531
11
4.35531
21
-3.305
0
LINE
8
BLACK
6
CONTINUOUS
10
4.35531
20
-3.305
11
4.375
21
-3.32469
0
LINE
8
BLACK
6
CONTINUOUS
10
4.375
20
-3.42469
11
4.39469
21
-3.405
0
LINE
8
BLACK
6
CONTINUOUS
10
4.39469
20
-3.405
11
4.375
21
-3.38531
0
LINE
8
BLACK
6
CONTINUOUS
10
4.375
20
-3.38531
11
4.35531
21
-3.405
0
LINE
8
BLACK
6
CONTINUOUS
10
4.35531
20
-3.405
11
4.375
21
-3.42469
0
LINE
8
BLACK
6
CONTINUOUS
10
4.375
20
-3.52469
11
4.39469
21
-3.505
0
LINE
8
BLACK
6
CONTINUOUS
10
4.39469
20
-3.505
11
4.375
21
-3.48531
0
LINE
8
BLACK
6
CONTINUOUS
10
4.375
20
-3.48531
11
4.35531
21
-3.505
0
LINE
8
BLACK
6
CONTINUOUS
10
4.35531
20
-3.505
11
4.375
21
-3.52469
0
LINE
8
BLACK
6
CONTINUOUS
10
4.375
20
-3.62469
11
4.39469
21
-3.605
0
LINE
8
BLACK
6
CONTINUOUS
10
4.39469
20
-3.605
11
4.375
21
-3.58531
0
LINE
8
BLACK
6
CONTINUOUS
10
4.375
20
-3.58531
11
4.35531
21
-3.605
0
LINE
8
BLACK
6
CONTINUOUS
10
4.35531
20
-3.605
11
4.375
21
-3.62469
0
LINE
8
BLACK
6
CONTINUOUS
10
4.375
20
-3.72469
11
4.39469
21
-3.705
0
LINE
8
BLACK
6
CONTINUOUS
10
4.39469
20
-3.705
11
4.375
21
-3.68531
0
LINE
8
BLACK
6
CONTINUOUS
10
4.375
20
-3.68531
11
4.35531
21
-3.705
0
LINE
8
BLACK
6
CONTINUOUS
10
4.35531
20
-3.705
11
4.375
21
-3.72469
0
LINE
8
BLACK
6
CONTINUOUS
10
4.375
20
-3.82469
11
4.39469
21
-3.805
0
LINE
8
BLACK
6
CONTINUOUS
10
4.39469
20
-3.805
11
4.375
21
-3.78531
0
LINE
8
BLACK
6
CONTINUOUS
10
4.375
20
-3.78531
11
4.35531
21
-3.805
0
LINE
8
BLACK
6
CONTINUOUS
10
4.35531
20
-3.805
11
4.375
21
-3.82469
0
LINE
8
BLACK
6
CONTINUOUS
10
4.375
20
-3.92469
11
4.39469
21
-3.905
0
LINE
8
BLACK
6
CONTINUOUS
10
4.39469
20
-3.905
11
4.375
21
-3.88531
0
LINE
8
BLACK
6
CONTINUOUS
10
4.375
20
-3.88531
11
4.35531
21
-3.905
0
LINE
8
BLACK
6
CONTINUOUS
10
4.35531
20
-3.905
11
4.375
21
-3.92469
0
LINE
8
BLACK
6
CONTINUOUS
10
4.375
20
-4.02469
11
4.39469
21
-4.005
0
LINE
8
BLACK
6
CONTINUOUS
10
4.39469
20
-4.005
11
4.375
21
-3.98531
0
LINE
8
BLACK
6
CONTINUOUS
10
4.375
20
-3.98531
11
4.35531
21
-4.005
0
LINE
8
BLACK
6
CONTINUOUS
10
4.35531
20
-4.005
11
4.375
21
-4.02469
0
LINE
8
BLACK
6
CONTINUOUS
10
5.97921
20
-5.21323
11
5.9989
21
-5.19354
0
LINE
8
BLACK
6
CONTINUOUS
10
5.9989
20
-5.19354
11
5.97921
21
-5.17386
0
LINE
8
BLACK
6
CONTINUOUS
10
5.97921
20
-5.17386
11
5.95953
21
-5.19354
0
LINE
8
BLACK
6
CONTINUOUS
10
5.95953
20
-5.19354
11
5.97921
21
-5.21323
0
LINE
8
BLACK
6
CONTINUOUS
10
5.97921
20
-5.31323
11
5.9989
21
-5.29354
0
LINE
8
BLACK
6
CONTINUOUS
10
5.9989
20
-5.29354
11
5.97921
21
-5.27386
0
LINE
8
BLACK
6
CONTINUOUS
10
5.97921
20
-5.27386
11
5.95953
21
-5.29354
0
LINE
8
BLACK
6
CONTINUOUS
10
5.95953
20
-5.29354
11
5.97921
21
-5.31323
0
LINE
8
BLACK
6
CONTINUOUS
10
6.07921
20
-5.21323
11
6.0989
21
-5.19354
0
LINE
8
BLACK
6
CONTINUOUS
10
6.0989
20
-5.19354
11
6.07921
21
-5.17386
0
LINE
8
BLACK
6
CONTINUOUS
10
6.07921
20
-5.17386
11
6.05953
21
-5.19354
0
LINE
8
BLACK
6
CONTINUOUS
10
6.05953
20
-5.19354
11
6.07921
21
-5.21323
0
LINE
8
BLACK
6
CONTINUOUS
10
6.07921
20
-5.31323
11
6.0989
21
-5.29354
0
LINE
8
BLACK
6
CONTINUOUS
10
6.0989
20
-5.29354
11
6.07921
21
-5.27386
0
LINE
8
BLACK
6
CONTINUOUS
10
6.07921
20
-5.27386
11
6.05953
21
-5.29354
0
LINE
8
BLACK
6
CONTINUOUS
10
6.05953
20
-5.29354
11
6.07921
21
-5.31323
0
LINE
8
BLACK
6
CONTINUOUS
10
6.17921
20
-5.21323
11
6.1989
21
-5.19354
0
LINE
8
BLACK
6
CONTINUOUS
10
6.1989
20
-5.19354
11
6.17921
21
-5.17386
0
LINE
8
BLACK
6
CONTINUOUS
10
6.17921
20
-5.17386
11
6.15953
21
-5.19354
0
LINE
8
BLACK
6
CONTINUOUS
10
6.15953
20
-5.19354
11
6.17921
21
-5.21323
0
LINE
8
BLACK
6
CONTINUOUS
10
6.17921
20
-5.31323
11
6.1989
21
-5.29354
0
LINE
8
BLACK
6
CONTINUOUS
10
6.1989
20
-5.29354
11
6.17921
21
-5.27386
0
LINE
8
BLACK
6
CONTINUOUS
10
6.17921
20
-5.27386
11
6.15953
21
-5.29354
0
LINE
8
BLACK
6
CONTINUOUS
10
6.15953
20
-5.29354
11
6.17921
21
-5.31323
0
LINE
8
BLACK
6
CONTINUOUS
10
6.27921
20
-5.21323
11
6.2989
21
-5.19354
0
LINE
8
BLACK
6
CONTINUOUS
10
6.2989
20
-5.19354
11
6.27921
21
-5.17386
0
LINE
8
BLACK
6
CONTINUOUS
10
6.27921
20
-5.17386
11
6.25953
21
-5.19354
0
LINE
8
BLACK
6
CONTINUOUS
10
6.25953
20
-5.19354
11
6.27921
21
-5.21323
0
LINE
8
BLACK
6
CONTINUOUS
10
6.27921
20
-5.31323
11
6.2989
21
-5.29354
0
LINE
8
BLACK
6
CONTINUOUS
10
6.2989
20
-5.29354
11
6.27921
21
-5.27386
0
LINE
8
BLACK
6
CONTINUOUS
10
6.27921
20
-5.27386
11
6.25953
21
-5.29354
0
LINE
8
BLACK
6
CONTINUOUS
10
6.25953
20
-5.29354
11
6.27921
21
-5.31323
0
LINE
8
BLACK
6
CONTINUOUS
10
6.37921
20
-5.21323
11
6.3989
21
-5.19354
0
LINE
8
BLACK
6
CONTINUOUS
10
6.3989
20
-5.19354
11
6.37921
21
-5.17386
0
LINE
8
BLACK
6
CONTINUOUS
10
6.37921
20
-5.17386
11
6.35953
21
-5.19354
0
LINE
8
BLACK
6
CONTINUOUS
10
6.35953
20
-5.19354
11
6.37921
21
-5.21323
0
LINE
8
BLACK
6
CONTINUOUS
10
6.37921
20
-5.31323
11
6.3989
21
-5.29354
0
LINE
8
BLACK
6
CONTINUOUS
10
6.3989
20
-5.29354
11
6.37921
21
-5.27386
0
LINE
8
BLACK
6
CONTINUOUS
10
6.37921
20
-5.27386
11
6.35953
21
-5.29354
0
LINE
8
BLACK
6
CONTINUOUS
10
6.35953
20
-5.29354
11
6.37921
21
-5.31323
0
LINE
8
BLACK
6
CONTINUOUS
10
6.51921
20
-5.21323
11
6.5389
21
-5.19354
0
LINE
8
BLACK
6
CONTINUOUS
10
6.5389
20
-5.19354
11
6.51921
21
-5.17386
0
LINE
8
BLACK
6
CONTINUOUS
10
6.51921
20
-5.17386
11
6.49953
21
-5.19354
0
LINE
8
BLACK
6
CONTINUOUS
10
6.49953
20
-5.19354
11
6.51921
21
-5.21323
0
LINE
8
BLACK
6
CONTINUOUS
10
6.51921
20
-5.31323
11
6.5389
21
-5.29354
0
LINE
8
BLACK
6
CONTINUOUS
10
6.5389
20
-5.29354
11
6.51921
21
-5.27386
0
LINE
8
BLACK
6
CONTINUOUS
10
6.51921
20
-5.27386
11
6.49953
21
-5.29354
0
LINE
8
BLACK
6
CONTINUOUS
10
6.49953
20
-5.29354
11
6.51921
21
-5.31323
0
LINE
8
BLACK
6
CONTINUOUS
10
6.61921
20
-5.21323
11
6.6389
21
-5.19354
0
LINE
8
BLACK
6
CONTINUOUS
10
6.6389
20
-5.19354
11
6.61921
21
-5.17386
0
LINE
8
BLACK
6
CONTINUOUS
10
6.61921
20
-5.17386
11
6.59953
21
-5.19354
0
LINE
8
BLACK
6
CONTINUOUS
10
6.59953
20
-5.19354
11
6.61921
21
-5.21323
0
LINE
8
BLACK
6
CONTINUOUS
10
6.61921
20
-5.31323
11
6.6389
21
-5.29354
0
LINE
8
BLACK
6
CONTINUOUS
10
6.6389
20
-5.29354
11
6.61921
21
-5.27386
0
LINE
8
BLACK
6
CONTINUOUS
10
6.61921
20
-5.27386
11
6.59953
21
-5.29354
0
LINE
8
BLACK
6
CONTINUOUS
10
6.59953
20
-5.29354
11
6.61921
21
-5.31323
0
LINE
8
BLACK
6
CONTINUOUS
10
6.71921
20
-5.21323
11
6.7389
21
-5.19354
0
LINE
8
BLACK
6
CONTINUOUS
10
6.7389
20
-5.19354
11
6.71921
21
-5.17386
0
LINE
8
BLACK
6
CONTINUOUS
10
6.71921
20
-5.17386
11
6.69953
21
-5.19354
0
LINE
8
BLACK
6
CONTINUOUS
10
6.69953
20
-5.19354
11
6.71921
21
-5.21323
0
LINE
8
BLACK
6
CONTINUOUS
10
6.71921
20
-5.31323
11
6.7389
21
-5.29354
0
LINE
8
BLACK
6
CONTINUOUS
10
6.7389
20
-5.29354
11
6.71921
21
-5.27386
0
LINE
8
BLACK
6
CONTINUOUS
10
6.71921
20
-5.27386
11
6.69953
21
-5.29354
0
LINE
8
BLACK
6
CONTINUOUS
10
6.69953
20
-5.29354
11
6.71921
21
-5.31323
0
LINE
8
BLACK
6
CONTINUOUS
10
6.81921
20
-5.21323
11
6.8389
21
-5.19354
0
LINE
8
BLACK
6
CONTINUOUS
10
6.8389
20
-5.19354
11
6.81921
21
-5.17386
0
LINE
8
BLACK
6
CONTINUOUS
10
6.81921
20
-5.17386
11
6.79953
21
-5.19354
0
LINE
8
BLACK
6
CONTINUOUS
10
6.79953
20
-5.19354
11
6.81921
21
-5.21323
0
LINE
8
BLACK
6
CONTINUOUS
10
6.81921
20
-5.31323
11
6.8389
21
-5.29354
0
LINE
8
BLACK
6
CONTINUOUS
10
6.8389
20
-5.29354
11
6.81921
21
-5.27386
0
LINE
8
BLACK
6
CONTINUOUS
10
6.81921
20
-5.27386
11
6.79953
21
-5.29354
0
LINE
8
BLACK
6
CONTINUOUS
10
6.79953
20
-5.29354
11
6.81921
21
-5.31323
0
LINE
8
BLACK
6
CONTINUOUS
10
6.91921
20
-5.21323
11
6.9389
21
-5.19354
0
LINE
8
BLACK
6
CONTINUOUS
10
6.9389
20
-5.19354
11
6.91921
21
-5.17386
0
LINE
8
BLACK
6
CONTINUOUS
10
6.91921
20
-5.17386
11
6.89953
21
-5.19354
0
LINE
8
BLACK
6
CONTINUOUS
10
6.89953
20
-5.19354
11
6.91921
21
-5.21323
0
LINE
8
BLACK
6
CONTINUOUS
10
6.91921
20
-5.31323
11
6.9389
21
-5.29354
0
LINE
8
BLACK
6
CONTINUOUS
10
6.9389
20
-5.29354
11
6.91921
21
-5.27386
0
LINE
8
BLACK
6
CONTINUOUS
10
6.91921
20
-5.27386
11
6.89953
21
-5.29354
0
LINE
8
BLACK
6
CONTINUOUS
10
6.89953
20
-5.29354
11
6.91921
21
-5.31323
0
LINE
8
BLACK
6
CONTINUOUS
10
7.325
20
-2.12469
11
7.34469
21
-2.105
0
LINE
8
BLACK
6
CONTINUOUS
10
7.34469
20
-2.105
11
7.325
21
-2.08531
0
LINE
8
BLACK
6
CONTINUOUS
10
7.325
20
-2.08531
11
7.30531
21
-2.105
0
LINE
8
BLACK
6
CONTINUOUS
10
7.30531
20
-2.105
11
7.325
21
-2.12469
0
LINE
8
BLACK
6
CONTINUOUS
10
7.325
20
-2.22469
11
7.34469
21
-2.205
0
LINE
8
BLACK
6
CONTINUOUS
10
7.34469
20
-2.205
11
7.325
21
-2.18531
0
LINE
8
BLACK
6
CONTINUOUS
10
7.325
20
-2.18531
11
7.30531
21
-2.205
0
LINE
8
BLACK
6
CONTINUOUS
10
7.30531
20
-2.205
11
7.325
21
-2.22469
0
LINE
8
BLACK
6
CONTINUOUS
10
7.325
20
-2.32469
11
7.34469
21
-2.305
0
LINE
8
BLACK
6
CONTINUOUS
10
7.34469
20
-2.305
11
7.325
21
-2.28531
0
LINE
8
BLACK
6
CONTINUOUS
10
7.325
20
-2.28531
11
7.30531
21
-2.305
0
LINE
8
BLACK
6
CONTINUOUS
10
7.30531
20
-2.305
11
7.325
21
-2.32469
0
LINE
8
BLACK
6
CONTINUOUS
10
7.325
20
-2.42469
11
7.34469
21
-2.405
0
LINE
8
BLACK
6
CONTINUOUS
10
7.34469
20
-2.405
11
7.325
21
-2.38531
0
LINE
8
BLACK
6
CONTINUOUS
10
7.325
20
-2.38531
11
7.30531
21
-2.405
0
LINE
8
BLACK
6
CONTINUOUS
10
7.30531
20
-2.405
11
7.325
21
-2.42469
0
LINE
8
BLACK
6
CONTINUOUS
10
7.325
20
-2.52469
11
7.34469
21
-2.505
0
LINE
8
BLACK
6
CONTINUOUS
10
7.34469
20
-2.505
11
7.325
21
-2.48531
0
LINE
8
BLACK
6
CONTINUOUS
10
7.325
20
-2.48531
11
7.30531
21
-2.505
0
LINE
8
BLACK
6
CONTINUOUS
10
7.30531
20
-2.505
11
7.325
21
-2.52469
0
LINE
8
BLACK
6
CONTINUOUS
10
7.325
20
-2.62469
11
7.34469
21
-2.605
0
LINE
8
BLACK
6
CONTINUOUS
10
7.34469
20
-2.605
11
7.325
21
-2.58531
0
LINE
8
BLACK
6
CONTINUOUS
10
7.325
20
-2.58531
11
7.30531
21
-2.605
0
LINE
8
BLACK
6
CONTINUOUS
10
7.30531
20
-2.605
11
7.325
21
-2.62469
0
LINE
8
BLACK
6
CONTINUOUS
10
7.325
20
-2.72469
11
7.34469
21
-2.705
0
LINE
8
BLACK
6
CONTINUOUS
10
7.34469
20
-2.705
11
7.325
21
-2.68531
0
LINE
8
BLACK
6
CONTINUOUS
10
7.325
20
-2.68531
11
7.30531
21
-2.705
0
LINE
8
BLACK
6
CONTINUOUS
10
7.30531
20
-2.705
11
7.325
21
-2.72469
0
LINE
8
BLACK
6
CONTINUOUS
10
7.325
20
-2.82469
11
7.34469
21
-2.805
0
LINE
8
BLACK
6
CONTINUOUS
10
7.34469
20
-2.805
11
7.325
21
-2.78531
0
LINE
8
BLACK
6
CONTINUOUS
10
7.325
20
-2.78531
11
7.30531
21
-2.805
0
LINE
8
BLACK
6
CONTINUOUS
10
7.30531
20
-2.805
11
7.325
21
-2.82469
0
LINE
8
BLACK
6
CONTINUOUS
10
7.325
20
-2.92469
11
7.34469
21
-2.905
0
LINE
8
BLACK
6
CONTINUOUS
10
7.34469
20
-2.905
11
7.325
21
-2.88531
0
LINE
8
BLACK
6
CONTINUOUS
10
7.325
20
-2.88531
11
7.30531
21
-2.905
0
LINE
8
BLACK
6
CONTINUOUS
10
7.30531
20
-2.905
11
7.325
21
-2.92469
0
LINE
8
BLACK
6
CONTINUOUS
10
7.325
20
-3.02469
11
7.34469
21
-3.005
0
LINE
8
BLACK
6
CONTINUOUS
10
7.34469
20
-3.005
11
7.325
21
-2.98531
0
LINE
8
BLACK
6
CONTINUOUS
10
7.325
20
-2.98531
11
7.30531
21
-3.005
0
LINE
8
BLACK
6
CONTINUOUS
10
7.30531
20
-3.005
11
7.325
21
-3.02469
0
LINE
8
BLACK
6
CONTINUOUS
10
7.325
20
-3.12469
11
7.34469
21
-3.105
0
LINE
8
BLACK
6
CONTINUOUS
10
7.34469
20
-3.105
11
7.325
21
-3.08531
0
LINE
8
BLACK
6
CONTINUOUS
10
7.325
20
-3.08531
11
7.30531
21
-3.105
0
LINE
8
BLACK
6
CONTINUOUS
10
7.30531
20
-3.105
11
7.325
21
-3.12469
0
LINE
8
BLACK
6
CONTINUOUS
10
7.325
20
-3.22469
11
7.34469
21
-3.205
0
LINE
8
BLACK
6
CONTINUOUS
10
7.34469
20
-3.205
11
7.325
21
-3.18531
0
LINE
8
BLACK
6
CONTINUOUS
10
7.325
20
-3.18531
11
7.30531
21
-3.205
0
LINE
8
BLACK
6
CONTINUOUS
10
7.30531
20
-3.205
11
7.325
21
-3.22469
0
LINE
8
BLACK
6
CONTINUOUS
10
7.325
20
-3.32469
11
7.34469
21
-3.305
0
LINE
8
BLACK
6
CONTINUOUS
10
7.34469
20
-3.305
11
7.325
21
-3.28531
0
LINE
8
BLACK
6
CONTINUOUS
10
7.325
20
-3.28531
11
7.30531
21
-3.305
0
LINE
8
BLACK
6
CONTINUOUS
10
7.30531
20
-3.305
11
7.325
21
-3.32469
0
LINE
8
BLACK
6
CONTINUOUS
10
7.325
20
-3.42469
11
7.34469
21
-3.405
0
LINE
8
BLACK
6
CONTINUOUS
10
7.34469
20
-3.405
11
7.325
21
-3.38531
0
LINE
8
BLACK
6
CONTINUOUS
10
7.325
20
-3.38531
11
7.30531
21
-3.405
0
LINE
8
BLACK
6
CONTINUOUS
10
7.30531
20
-3.405
11
7.325
21
-3.42469
0
LINE
8
BLACK
6
CONTINUOUS
10
7.325
20
-3.52469
11
7.34469
21
-3.505
0
LINE
8
BLACK
6
CONTINUOUS
10
7.34469
20
-3.505
11
7.325
21
-3.48531
0
LINE
8
BLACK
6
CONTINUOUS
10
7.325
20
-3.48531
11
7.30531
21
-3.505
0
LINE
8
BLACK
6
CONTINUOUS
10
7.30531
20
-3.505
11
7.325
21
-3.52469
0
LINE
8
BLACK
6
CONTINUOUS
10
7.325
20
-3.62469
11
7.34469
21
-3.605
0
LINE
8
BLACK
6
CONTINUOUS
10
7.34469
20
-3.605
11
7.325
21
-3.58531
0
LINE
8
BLACK
6
CONTINUOUS
10
7.325
20
-3.58531
11
7.30531
21
-3.605
0
LINE
8
BLACK
6
CONTINUOUS
10
7.30531
20
-3.605
11
7.325
21
-3.62469
0
LINE
8
BLACK
6
CONTINUOUS
10
7.325
20
-3.72469
11
7.34469
21
-3.705
0
LINE
8
BLACK
6
CONTINUOUS
10
7.34469
20
-3.705
11
7.325
21
-3.68531
0
LINE
8
BLACK
6
CONTINUOUS
10
7.325
20
-3.68531
11
7.30531
21
-3.705
0
LINE
8
BLACK
6
CONTINUOUS
10
7.30531
20
-3.705
11
7.325
21
-3.72469
0
LINE
8
BLACK
6
CONTINUOUS
10
7.325
20
-3.82469
11
7.34469
21
-3.805
0
LINE
8
BLACK
6
CONTINUOUS
10
7.34469
20
-3.805
11
7.325
21
-3.78531
0
LINE
8
BLACK
6
CONTINUOUS
10
7.325
20
-3.78531
11
7.30531
21
-3.805
0
LINE
8
BLACK
6
CONTINUOUS
10
7.30531
20
-3.805
11
7.325
21
-3.82469
0
LINE
8
BLACK
6
CONTINUOUS
10
7.325
20
-3.92469
11
7.34469
21
-3.905
0
LINE
8
BLACK
6
CONTINUOUS
10
7.34469
20
-3.905
11
7.325
21
-3.88531
0
LINE
8
BLACK
6
CONTINUOUS
10
7.325
20
-3.88531
11
7.30531
21
-3.905
0
LINE
8
BLACK
6
CONTINUOUS
10
7.30531
20
-3.905
11
7.325
21
-3.92469
0
LINE
8
BLACK
6
CONTINUOUS
10
7.325
20
-4.02469
11
7.34469
21
-4.005
0
LINE
8
BLACK
6
CONTINUOUS
10
7.34469
20
-4.005
11
7.325
21
-3.98531
0
LINE
8
BLACK
6
CONTINUOUS
10
7.325
20
-3.98531
11
7.30531
21
-4.005
0
LINE
8
BLACK
6
CONTINUOUS
10
7.30531
20
-4.005
11
7.325
21
-4.02469
0
LINE
8
BLACK
6
CONTINUOUS
10
7.425
20
-2.12469
11
7.44469
21
-2.105
0
LINE
8
BLACK
6
CONTINUOUS
10
7.44469
20
-2.105
11
7.425
21
-2.08531
0
LINE
8
BLACK
6
CONTINUOUS
10
7.425
20
-2.08531
11
7.40531
21
-2.105
0
LINE
8
BLACK
6
CONTINUOUS
10
7.40531
20
-2.105
11
7.425
21
-2.12469
0
LINE
8
BLACK
6
CONTINUOUS
10
7.425
20
-2.22469
11
7.44469
21
-2.205
0
LINE
8
BLACK
6
CONTINUOUS
10
7.44469
20
-2.205
11
7.425
21
-2.18531
0
LINE
8
BLACK
6
CONTINUOUS
10
7.425
20
-2.18531
11
7.40531
21
-2.205
0
LINE
8
BLACK
6
CONTINUOUS
10
7.40531
20
-2.205
11
7.425
21
-2.22469
0
LINE
8
BLACK
6
CONTINUOUS
10
7.425
20
-2.32469
11
7.44469
21
-2.305
0
LINE
8
BLACK
6
CONTINUOUS
10
7.44469
20
-2.305
11
7.425
21
-2.28531
0
LINE
8
BLACK
6
CONTINUOUS
10
7.425
20
-2.28531
11
7.40531
21
-2.305
0
LINE
8
BLACK
6
CONTINUOUS
10
7.40531
20
-2.305
11
7.425
21
-2.32469
0
LINE
8
BLACK
6
CONTINUOUS
10
7.425
20
-2.42469
11
7.44469
21
-2.405
0
LINE
8
BLACK
6
CONTINUOUS
10
7.44469
20
-2.405
11
7.425
21
-2.38531
0
LINE
8
BLACK
6
CONTINUOUS
10
7.425
20
-2.38531
11
7.40531
21
-2.405
0
LINE
8
BLACK
6
CONTINUOUS
10
7.40531
20
-2.405
11
7.425
21
-2.42469
0
LINE
8
BLACK
6
CONTINUOUS
10
7.425
20
-2.52469
11
7.44469
21
-2.505
0
LINE
8
BLACK
6
CONTINUOUS
10
7.44469
20
-2.505
11
7.425
21
-2.48531
0
LINE
8
BLACK
6
CONTINUOUS
10
7.425
20
-2.48531
11
7.40531
21
-2.505
0
LINE
8
BLACK
6
CONTINUOUS
10
7.40531
20
-2.505
11
7.425
21
-2.52469
0
LINE
8
BLACK
6
CONTINUOUS
10
7.425
20
-2.62469
11
7.44469
21
-2.605
0
LINE
8
BLACK
6
CONTINUOUS
10
7.44469
20
-2.605
11
7.425
21
-2.58531
0
LINE
8
BLACK
6
CONTINUOUS
10
7.425
20
-2.58531
11
7.40531
21
-2.605
0
LINE
8
BLACK
6
CONTINUOUS
10
7.40531
20
-2.605
11
7.425
21
-2.62469
0
LINE
8
BLACK
6
CONTINUOUS
10
7.425
20
-2.72469
11
7.44469
21
-2.705
0
LINE
8
BLACK
6
CONTINUOUS
10
7.44469
20
-2.705
11
7.425
21
-2.68531
0
LINE
8
BLACK
6
CONTINUOUS
10
7.425
20
-2.68531
11
7.40531
21
-2.705
0
LINE
8
BLACK
6
CONTINUOUS
10
7.40531
20
-2.705
11
7.425
21
-2.72469
0
LINE
8
BLACK
6
CONTINUOUS
10
7.425
20
-2.82469
11
7.44469
21
-2.805
0
LINE
8
BLACK
6
CONTINUOUS
10
7.44469
20
-2.805
11
7.425
21
-2.78531
0
LINE
8
BLACK
6
CONTINUOUS
10
7.425
20
-2.78531
11
7.40531
21
-2.805
0
LINE
8
BLACK
6
CONTINUOUS
10
7.40531
20
-2.805
11
7.425
21
-2.82469
0
LINE
8
BLACK
6
CONTINUOUS
10
7.425
20
-2.92469
11
7.44469
21
-2.905
0
LINE
8
BLACK
6
CONTINUOUS
10
7.44469
20
-2.905
11
7.425
21
-2.88531
0
LINE
8
BLACK
6
CONTINUOUS
10
7.425
20
-2.88531
11
7.40531
21
-2.905
0
LINE
8
BLACK
6
CONTINUOUS
10
7.40531
20
-2.905
11
7.425
21
-2.92469
0
LINE
8
BLACK
6
CONTINUOUS
10
7.425
20
-3.02469
11
7.44469
21
-3.005
0
LINE
8
BLACK
6
CONTINUOUS
10
7.44469
20
-3.005
11
7.425
21
-2.98531
0
LINE
8
BLACK
6
CONTINUOUS
10
7.425
20
-2.98531
11
7.40531
21
-3.005
0
LINE
8
BLACK
6
CONTINUOUS
10
7.40531
20
-3.005
11
7.425
21
-3.02469
0
LINE
8
BLACK
6
CONTINUOUS
10
7.425
20
-3.12469
11
7.44469
21
-3.105
0
LINE
8
BLACK
6
CONTINUOUS
10
7.44469
20
-3.105
11
7.425
21
-3.08531
0
LINE
8
BLACK
6
CONTINUOUS
10
7.425
20
-3.08531
11
7.40531
21
-3.105
0
LINE
8
BLACK
6
CONTINUOUS
10
7.40531
20
-3.105
11
7.425
21
-3.12469
0
LINE
8
BLACK
6
CONTINUOUS
10
7.425
20
-3.22469
11
7.44469
21
-3.205
0
LINE
8
BLACK
6
CONTINUOUS
10
7.44469
20
-3.205
11
7.425
21
-3.18531
0
LINE
8
BLACK
6
CONTINUOUS
10
7.425
20
-3.18531
11
7.40531
21
-3.205
0
LINE
8
BLACK
6
CONTINUOUS
10
7.40531
20
-3.205
11
7.425
21
-3.22469
0
LINE
8
BLACK
6
CONTINUOUS
10
7.425
20
-3.32469
11
7.44469
21
-3.305
0
LINE
8
BLACK
6
CONTINUOUS
10
7.44469
20
-3.305
11
7.425
21
-3.28531
0
LINE
8
BLACK
6
CONTINUOUS
10
7.425
20
-3.28531
11
7.40531
21
-3.305
0
LINE
8
BLACK
6
CONTINUOUS
10
7.40531
20
-3.305
11
7.425
21
-3.32469
0
LINE
8
BLACK
6
CONTINUOUS
10
7.425
20
-3.42469
11
7.44469
21
-3.405
0
LINE
8
BLACK
6
CONTINUOUS
10
7.44469
20
-3.405
11
7.425
21
-3.38531
0
LINE
8
BLACK
6
CONTINUOUS
10
7.425
20
-3.38531
11
7.40531
21
-3.405
0
LINE
8
BLACK
6
CONTINUOUS
10
7.40531
20
-3.405
11
7.425
21
-3.42469
0
LINE
8
BLACK
6
CONTINUOUS
10
7.425
20
-3.52469
11
7.44469
21
-3.505
0
LINE
8
BLACK
6
CONTINUOUS
10
7.44469
20
-3.505
11
7.425
21
-3.48531
0
LINE
8
BLACK
6
CONTINUOUS
10
7.425
20
-3.48531
11
7.40531
21
-3.505
0
LINE
8
BLACK
6
CONTINUOUS
10
7.40531
20
-3.505
11
7.425
21
-3.52469
0
LINE
8
BLACK
6
CONTINUOUS
10
7.425
20
-3.62469
11
7.44469
21
-3.605
0
LINE
8
BLACK
6
CONTINUOUS
10
7.44469
20
-3.605
11
7.425
21
-3.58531
0
LINE
8
BLACK
6
CONTINUOUS
10
7.425
20
-3.58531
11
7.40531
21
-3.605
0
LINE
8
BLACK
6
CONTINUOUS
10
7.40531
20
-3.605
11
7.425
21
-3.62469
0
LINE
8
BLACK
6
CONTINUOUS
10
7.425
20
-3.72469
11
7.44469
21
-3.705
0
LINE
8
BLACK
6
CONTINUOUS
10
7.44469
20
-3.705
11
7.425
21
-3.68531
0
LINE
8
BLACK
6
CONTINUOUS
10
7.425
20
-3.68531
11
7.40531
21
-3.705
0
LINE
8
BLACK
6
CONTINUOUS
10
7.40531
20
-3.705
11
7.425
21
-3.72469
0
LINE
8
BLACK
6
CONTINUOUS
10
7.425
20
-3.82469
11
7.44469
21
-3.805
0
LINE
8
BLACK
6
CONTINUOUS
10
7.44469
20
-3.805
11
7.425
21
-3.78531
0
LINE
8
BLACK
6
CONTINUOUS
10
7.425
20
-3.78531
11
7.40531
21
-3.805
0
LINE
8
BLACK
6
CONTINUOUS
10
7.40531
20
-3.805
11
7.425
21
-3.82469
0
LINE
8
BLACK
6
CONTINUOUS
10
7.425
20
-3.92469
11
7.44469
21
-3.905
0
LINE
8
BLACK
6
CONTINUOUS
10
7.44469
20
-3.905
11
7.425
21
-3.88531
0
LINE
8
BLACK
6
CONTINUOUS
10
7.425
20
-3.88531
11
7.40531
21
-3.905
0
LINE
8
BLACK
6
CONTINUOUS
10
7.40531
20
-3.905
11
7.425
21
-3.92469
0
LINE
8
BLACK
6
CONTINUOUS
10
7.425
20
-4.02469
11
7.44469
21
-4.005
0
LINE
8
BLACK
6
CONTINUOUS
10
7.44469
20
-4.005
11
7.425
21
-3.98531
0
LINE
8
BLACK
6
CONTINUOUS
10
7.425
20
-3.98531
11
7.40531
21
-4.005
0
LINE
8
BLACK
6
CONTINUOUS
10
7.40531
20
-4.005
11
7.425
21
-4.02469
0
LINE
8
BLACK
6
CONTINUOUS
10
5.47264
20
-5.34138
11
5.52382
21
-5.39256
0
LINE
8
BLACK
6
CONTINUOUS
10
5.52382
20
-5.34138
11
5.47264
21
-5.39256
0
CIRCLE
8
BLACK
10
5.49823
20
-5.36697
40
0.0255906
0
LINE
8
BLACK
6
CONTINUOUS
10
5.74862
20
-5.34138
11
5.7998
21
-5.39256
0
LINE
8
BLACK
6
CONTINUOUS
10
5.7998
20
-5.34138
11
5.74862
21
-5.39256
0
CIRCLE
8
BLACK
10
5.77421
20
-5.36697
40
0.0255906
0
LINE
8
BLACK
6
CONTINUOUS
10
4.07446
20
-5.6792
11
4.07446
21
-5.60046
0
LINE
8
BLACK
6
CONTINUOUS
10
4.07446
20
-5.60046
11
4.0932
21
-5.60046
0
LINE
8
BLACK
6
CONTINUOUS
10
4.0932
20
-5.60046
11
4.10445
21
-5.60421
0
LINE
8
BLACK
6
CONTINUOUS
10
4.10445
20
-5.60421
11
4.11195
21
-5.61171
0
LINE
8
BLACK
6
CONTINUOUS
10
4.11195
20
-5.61171
11
4.1157
21
-5.61921
0
LINE
8
BLACK
6
CONTINUOUS
10
4.1157
20
-5.61921
11
4.11945
21
-5.63421
0
LINE
8
BLACK
6
CONTINUOUS
10
4.11945
20
-5.63421
11
4.11945
21
-5.64546
0
LINE
8
BLACK
6
CONTINUOUS
10
4.11945
20
-5.64546
11
4.1157
21
-5.66046
0
LINE
8
BLACK
6
CONTINUOUS
10
4.1157
20
-5.66046
11
4.11195
21
-5.66795
0
LINE
8
BLACK
6
CONTINUOUS
10
4.11195
20
-5.66795
11
4.10445
21
-5.67545
0
LINE
8
BLACK
6
CONTINUOUS
10
4.10445
20
-5.67545
11
4.0932
21
-5.6792
0
LINE
8
BLACK
6
CONTINUOUS
10
4.0932
20
-5.6792
11
4.07446
21
-5.6792
0
LINE
8
BLACK
6
CONTINUOUS
10
4.1532
20
-5.6792
11
4.1532
21
-5.62671
0
LINE
8
BLACK
6
CONTINUOUS
10
4.1532
20
-5.64171
11
4.15695
21
-5.63421
0
LINE
8
BLACK
6
CONTINUOUS
10
4.15695
20
-5.63421
11
4.1607
21
-5.63046
0
LINE
8
BLACK
6
CONTINUOUS
10
4.1607
20
-5.63046
11
4.16819
21
-5.62671
0
LINE
8
BLACK
6
CONTINUOUS
10
4.16819
20
-5.62671
11
4.17569
21
-5.62671
0
LINE
8
BLACK
6
CONTINUOUS
10
4.20194
20
-5.6792
11
4.20194
21
-5.62671
0
LINE
8
BLACK
6
CONTINUOUS
10
4.20194
20
-5.60046
11
4.19819
21
-5.60421
0
LINE
8
BLACK
6
CONTINUOUS
10
4.19819
20
-5.60421
11
4.20194
21
-5.60796
0
LINE
8
BLACK
6
CONTINUOUS
10
4.20194
20
-5.60796
11
4.20569
21
-5.60421
0
LINE
8
BLACK
6
CONTINUOUS
10
4.20569
20
-5.60421
11
4.20194
21
-5.60046
0
LINE
8
BLACK
6
CONTINUOUS
10
4.20194
20
-5.60046
11
4.20194
21
-5.60796
0
LINE
8
BLACK
6
CONTINUOUS
10
4.25068
20
-5.6792
11
4.24319
21
-5.67545
0
LINE
8
BLACK
6
CONTINUOUS
10
4.24319
20
-5.67545
11
4.23944
21
-5.66795
0
LINE
8
BLACK
6
CONTINUOUS
10
4.23944
20
-5.66795
11
4.23944
21
-5.60046
0
LINE
8
BLACK
6
CONTINUOUS
10
4.29193
20
-5.6792
11
4.28443
21
-5.67545
0
LINE
8
BLACK
6
CONTINUOUS
10
4.28443
20
-5.67545
11
4.28068
21
-5.66795
0
LINE
8
BLACK
6
CONTINUOUS
10
4.28068
20
-5.66795
11
4.28068
21
-5.60046
0
LINE
8
BLACK
6
CONTINUOUS
10
4.38192
20
-5.6792
11
4.38192
21
-5.60046
0
LINE
8
BLACK
6
CONTINUOUS
10
4.38192
20
-5.60046
11
4.40816
21
-5.65671
0
LINE
8
BLACK
6
CONTINUOUS
10
4.40816
20
-5.65671
11
4.43441
21
-5.60046
0
LINE
8
BLACK
6
CONTINUOUS
10
4.43441
20
-5.60046
11
4.43441
21
-5.6792
0
LINE
8
BLACK
6
CONTINUOUS
10
4.50565
20
-5.6792
11
4.50565
21
-5.63796
0
LINE
8
BLACK
6
CONTINUOUS
10
4.50565
20
-5.63796
11
4.5019
21
-5.63046
0
LINE
8
BLACK
6
CONTINUOUS
10
4.5019
20
-5.63046
11
4.4944
21
-5.62671
0
LINE
8
BLACK
6
CONTINUOUS
10
4.4944
20
-5.62671
11
4.47941
21
-5.62671
0
LINE
8
BLACK
6
CONTINUOUS
10
4.47941
20
-5.62671
11
4.47191
21
-5.63046
0
LINE
8
BLACK
6
CONTINUOUS
10
4.50565
20
-5.67545
11
4.49815
21
-5.6792
0
LINE
8
BLACK
6
CONTINUOUS
10
4.49815
20
-5.6792
11
4.47941
21
-5.6792
0
LINE
8
BLACK
6
CONTINUOUS
10
4.47941
20
-5.6792
11
4.47191
21
-5.67545
0
LINE
8
BLACK
6
CONTINUOUS
10
4.47191
20
-5.67545
11
4.46816
21
-5.66795
0
LINE
8
BLACK
6
CONTINUOUS
10
4.46816
20
-5.66795
11
4.46816
21
-5.66046
0
LINE
8
BLACK
6
CONTINUOUS
10
4.46816
20
-5.66046
11
4.47191
21
-5.65296
0
LINE
8
BLACK
6
CONTINUOUS
10
4.47191
20
-5.65296
11
4.47941
21
-5.64921
0
LINE
8
BLACK
6
CONTINUOUS
10
4.47941
20
-5.64921
11
4.49815
21
-5.64921
0
LINE
8
BLACK
6
CONTINUOUS
10
4.49815
20
-5.64921
11
4.50565
21
-5.64546
0
LINE
8
BLACK
6
CONTINUOUS
10
4.54315
20
-5.62671
11
4.54315
21
-5.70545
0
LINE
8
BLACK
6
CONTINUOUS
10
4.54315
20
-5.63046
11
4.55065
21
-5.62671
0
LINE
8
BLACK
6
CONTINUOUS
10
4.55065
20
-5.62671
11
4.56564
21
-5.62671
0
LINE
8
BLACK
6
CONTINUOUS
10
4.56564
20
-5.62671
11
4.57314
21
-5.63046
0
LINE
8
BLACK
6
CONTINUOUS
10
4.57314
20
-5.63046
11
4.57689
21
-5.63421
0
LINE
8
BLACK
6
CONTINUOUS
10
4.57689
20
-5.63421
11
4.58064
21
-5.64171
0
LINE
8
BLACK
6
CONTINUOUS
10
4.58064
20
-5.64171
11
4.58064
21
-5.66421
0
LINE
8
BLACK
6
CONTINUOUS
10
4.58064
20
-5.66421
11
4.57689
21
-5.6717
0
LINE
8
BLACK
6
CONTINUOUS
10
4.57689
20
-5.6717
11
4.57314
21
-5.67545
0
LINE
8
BLACK
6
CONTINUOUS
10
4.57314
20
-5.67545
11
4.56564
21
-5.6792
0
LINE
8
BLACK
6
CONTINUOUS
10
4.56564
20
-5.6792
11
4.55065
21
-5.6792
0
LINE
8
BLACK
6
CONTINUOUS
10
4.55065
20
-5.6792
11
4.54315
21
-5.67545
0
LINE
8
BLACK
6
CONTINUOUS
10
4.61439
20
-5.6717
11
4.61814
21
-5.67545
0
LINE
8
BLACK
6
CONTINUOUS
10
4.61814
20
-5.67545
11
4.61439
21
-5.6792
0
LINE
8
BLACK
6
CONTINUOUS
10
4.61439
20
-5.6792
11
4.61064
21
-5.67545
0
LINE
8
BLACK
6
CONTINUOUS
10
4.61064
20
-5.67545
11
4.61439
21
-5.6717
0
LINE
8
BLACK
6
CONTINUOUS
10
4.61439
20
-5.6717
11
4.61439
21
-5.6792
0
LINE
8
BLACK
6
CONTINUOUS
10
4.61439
20
-5.63046
11
4.61814
21
-5.63421
0
LINE
8
BLACK
6
CONTINUOUS
10
4.61814
20
-5.63421
11
4.61439
21
-5.63796
0
LINE
8
BLACK
6
CONTINUOUS
10
4.61439
20
-5.63796
11
4.61064
21
-5.63421
0
LINE
8
BLACK
6
CONTINUOUS
10
4.61064
20
-5.63421
11
4.61439
21
-5.63046
0
LINE
8
BLACK
6
CONTINUOUS
10
4.61439
20
-5.63046
11
4.61439
21
-5.63796
0
LINE
8
BLACK
6
CONTINUOUS
10
3.95728
20
-5.80106
11
3.97303
21
-5.81681
0
LINE
8
BLACK
6
CONTINUOUS
10
3.97303
20
-5.80106
11
3.95728
21
-5.81681
0
LINE
8
BLACK
6
CONTINUOUS
10
4.08945
20
-5.76582
11
4.09695
21
-5.76582
0
LINE
8
BLACK
6
CONTINUOUS
10
4.09695
20
-5.76582
11
4.10445
21
-5.76957
0
LINE
8
BLACK
6
CONTINUOUS
10
4.10445
20
-5.76957
11
4.1082
21
-5.77332
0
LINE
8
BLACK
6
CONTINUOUS
10
4.1082
20
-5.77332
11
4.11195
21
-5.78082
0
LINE
8
BLACK
6
CONTINUOUS
10
4.11195
20
-5.78082
11
4.1157
21
-5.79581
0
LINE
8
BLACK
6
CONTINUOUS
10
4.1157
20
-5.79581
11
4.1157
21
-5.81456
0
LINE
8
BLACK
6
CONTINUOUS
10
4.1157
20
-5.81456
11
4.11195
21
-5.82956
0
LINE
8
BLACK
6
CONTINUOUS
10
4.11195
20
-5.82956
11
4.1082
21
-5.83706
0
LINE
8
BLACK
6
CONTINUOUS
10
4.1082
20
-5.83706
11
4.10445
21
-5.84081
0
LINE
8
BLACK
6
CONTINUOUS
10
4.10445
20
-5.84081
11
4.09695
21
-5.84456
0
LINE
8
BLACK
6
CONTINUOUS
10
4.09695
20
-5.84456
11
4.08945
21
-5.84456
0
LINE
8
BLACK
6
CONTINUOUS
10
4.08945
20
-5.84456
11
4.08196
21
-5.84081
0
LINE
8
BLACK
6
CONTINUOUS
10
4.08196
20
-5.84081
11
4.07821
21
-5.83706
0
LINE
8
BLACK
6
CONTINUOUS
10
4.07821
20
-5.83706
11
4.07446
21
-5.82956
0
LINE
8
BLACK
6
CONTINUOUS
10
4.07446
20
-5.82956
11
4.07071
21
-5.81456
0
LINE
8
BLACK
6
CONTINUOUS
10
4.07071
20
-5.81456
11
4.07071
21
-5.79581
0
LINE
8
BLACK
6
CONTINUOUS
10
4.07071
20
-5.79581
11
4.07446
21
-5.78082
0
LINE
8
BLACK
6
CONTINUOUS
10
4.07446
20
-5.78082
11
4.07821
21
-5.77332
0
LINE
8
BLACK
6
CONTINUOUS
10
4.07821
20
-5.77332
11
4.08196
21
-5.76957
0
LINE
8
BLACK
6
CONTINUOUS
10
4.08196
20
-5.76957
11
4.08945
21
-5.76582
0
LINE
8
BLACK
6
CONTINUOUS
10
4.14945
20
-5.83706
11
4.1532
21
-5.84081
0
LINE
8
BLACK
6
CONTINUOUS
10
4.1532
20
-5.84081
11
4.14945
21
-5.84456
0
LINE
8
BLACK
6
CONTINUOUS
10
4.14945
20
-5.84456
11
4.1457
21
-5.84081
0
LINE
8
BLACK
6
CONTINUOUS
10
4.1457
20
-5.84081
11
4.14945
21
-5.83706
0
LINE
8
BLACK
6
CONTINUOUS
10
4.14945
20
-5.83706
11
4.14945
21
-5.84456
0
LINE
8
BLACK
6
CONTINUOUS
10
4.22069
20
-5.79206
11
4.22069
21
-5.84456
0
LINE
8
BLACK
6
CONTINUOUS
10
4.20194
20
-5.76207
11
4.18319
21
-5.81831
0
LINE
8
BLACK
6
CONTINUOUS
10
4.18319
20
-5.81831
11
4.23194
21
-5.81831
0
LINE
8
BLACK
6
CONTINUOUS
10
4.27693
20
-5.76582
11
4.28443
21
-5.76582
0
LINE
8
BLACK
6
CONTINUOUS
10
4.28443
20
-5.76582
11
4.29193
21
-5.76957
0
LINE
8
BLACK
6
CONTINUOUS
10
4.29193
20
-5.76957
11
4.29568
21
-5.77332
0
LINE
8
BLACK
6
CONTINUOUS
10
4.29568
20
-5.77332
11
4.29943
21
-5.78082
0
LINE
8
BLACK
6
CONTINUOUS
10
4.29943
20
-5.78082
11
4.30318
21
-5.79581
0
LINE
8
BLACK
6
CONTINUOUS
10
4.30318
20
-5.79581
11
4.30318
21
-5.81456
0
LINE
8
BLACK
6
CONTINUOUS
10
4.30318
20
-5.81456
11
4.29943
21
-5.82956
0
LINE
8
BLACK
6
CONTINUOUS
10
4.29943
20
-5.82956
11
4.29568
21
-5.83706
0
LINE
8
BLACK
6
CONTINUOUS
10
4.29568
20
-5.83706
11
4.29193
21
-5.84081
0
LINE
8
BLACK
6
CONTINUOUS
10
4.29193
20
-5.84081
11
4.28443
21
-5.84456
0
LINE
8
BLACK
6
CONTINUOUS
10
4.28443
20
-5.84456
11
4.27693
21
-5.84456
0
LINE
8
BLACK
6
CONTINUOUS
10
4.27693
20
-5.84456
11
4.26943
21
-5.84081
0
LINE
8
BLACK
6
CONTINUOUS
10
4.26943
20
-5.84081
11
4.26568
21
-5.83706
0
LINE
8
BLACK
6
CONTINUOUS
10
4.26568
20
-5.83706
11
4.26193
21
-5.82956
0
LINE
8
BLACK
6
CONTINUOUS
10
4.26193
20
-5.82956
11
4.25818
21
-5.81456
0
LINE
8
BLACK
6
CONTINUOUS
10
4.25818
20
-5.81456
11
4.25818
21
-5.79581
0
LINE
8
BLACK
6
CONTINUOUS
10
4.25818
20
-5.79581
11
4.26193
21
-5.78082
0
LINE
8
BLACK
6
CONTINUOUS
10
4.26193
20
-5.78082
11
4.26568
21
-5.77332
0
LINE
8
BLACK
6
CONTINUOUS
10
4.26568
20
-5.77332
11
4.26943
21
-5.76957
0
LINE
8
BLACK
6
CONTINUOUS
10
4.26943
20
-5.76957
11
4.27693
21
-5.76582
0
LINE
8
BLACK
6
CONTINUOUS
10
4.35192
20
-5.76582
11
4.35942
21
-5.76582
0
LINE
8
BLACK
6
CONTINUOUS
10
4.35942
20
-5.76582
11
4.36692
21
-5.76957
0
LINE
8
BLACK
6
CONTINUOUS
10
4.36692
20
-5.76957
11
4.37067
21
-5.77332
0
LINE
8
BLACK
6
CONTINUOUS
10
4.37067
20
-5.77332
11
4.37442
21
-5.78082
0
LINE
8
BLACK
6
CONTINUOUS
10
4.37442
20
-5.78082
11
4.37817
21
-5.79581
0
LINE
8
BLACK
6
CONTINUOUS
10
4.37817
20
-5.79581
11
4.37817
21
-5.81456
0
LINE
8
BLACK
6
CONTINUOUS
10
4.37817
20
-5.81456
11
4.37442
21
-5.82956
0
LINE
8
BLACK
6
CONTINUOUS
10
4.37442
20
-5.82956
11
4.37067
21
-5.83706
0
LINE
8
BLACK
6
CONTINUOUS
10
4.37067
20
-5.83706
11
4.36692
21
-5.84081
0
LINE
8
BLACK
6
CONTINUOUS
10
4.36692
20
-5.84081
11
4.35942
21
-5.84456
0
LINE
8
BLACK
6
CONTINUOUS
10
4.35942
20
-5.84456
11
4.35192
21
-5.84456
0
LINE
8
BLACK
6
CONTINUOUS
10
4.35192
20
-5.84456
11
4.34442
21
-5.84081
0
LINE
8
BLACK
6
CONTINUOUS
10
4.34442
20
-5.84081
11
4.34067
21
-5.83706
0
LINE
8
BLACK
6
CONTINUOUS
10
4.34067
20
-5.83706
11
4.33692
21
-5.82956
0
LINE
8
BLACK
6
CONTINUOUS
10
4.33692
20
-5.82956
11
4.33317
21
-5.81456
0
LINE
8
BLACK
6
CONTINUOUS
10
4.33317
20
-5.81456
11
4.33317
21
-5.79581
0
LINE
8
BLACK
6
CONTINUOUS
10
4.33317
20
-5.79581
11
4.33692
21
-5.78082
0
LINE
8
BLACK
6
CONTINUOUS
10
4.33692
20
-5.78082
11
4.34067
21
-5.77332
0
LINE
8
BLACK
6
CONTINUOUS
10
4.34067
20
-5.77332
11
4.34442
21
-5.76957
0
LINE
8
BLACK
6
CONTINUOUS
10
4.34442
20
-5.76957
11
4.35192
21
-5.76582
0
LINE
8
BLACK
6
CONTINUOUS
10
4.41191
20
-5.84456
11
4.41191
21
-5.79206
0
LINE
8
BLACK
6
CONTINUOUS
10
4.41191
20
-5.79956
11
4.41566
21
-5.79581
0
LINE
8
BLACK
6
CONTINUOUS
10
4.41566
20
-5.79581
11
4.42316
21
-5.79206
0
LINE
8
BLACK
6
CONTINUOUS
10
4.42316
20
-5.79206
11
4.43441
21
-5.79206
0
LINE
8
BLACK
6
CONTINUOUS
10
4.43441
20
-5.79206
11
4.44191
21
-5.79581
0
LINE
8
BLACK
6
CONTINUOUS
10
4.44191
20
-5.79581
11
4.44566
21
-5.80331
0
LINE
8
BLACK
6
CONTINUOUS
10
4.44566
20
-5.80331
11
4.44566
21
-5.84456
0
LINE
8
BLACK
6
CONTINUOUS
10
4.44566
20
-5.80331
11
4.44941
21
-5.79581
0
LINE
8
BLACK
6
CONTINUOUS
10
4.44941
20
-5.79581
11
4.45691
21
-5.79206
0
LINE
8
BLACK
6
CONTINUOUS
10
4.45691
20
-5.79206
11
4.46816
21
-5.79206
0
LINE
8
BLACK
6
CONTINUOUS
10
4.46816
20
-5.79206
11
4.47566
21
-5.79581
0
LINE
8
BLACK
6
CONTINUOUS
10
4.47566
20
-5.79581
11
4.47941
21
-5.80331
0
LINE
8
BLACK
6
CONTINUOUS
10
4.47941
20
-5.80331
11
4.47941
21
-5.84456
0
LINE
8
BLACK
6
CONTINUOUS
10
4.5169
20
-5.84456
11
4.5169
21
-5.79206
0
LINE
8
BLACK
6
CONTINUOUS
10
4.5169
20
-5.79956
11
4.52065
21
-5.79581
0
LINE
8
BLACK
6
CONTINUOUS
10
4.52065
20
-5.79581
11
4.52815
21
-5.79206
0
LINE
8
BLACK
6
CONTINUOUS
10
4.52815
20
-5.79206
11
4.5394
21
-5.79206
0
LINE
8
BLACK
6
CONTINUOUS
10
4.5394
20
-5.79206
11
4.5469
21
-5.79581
0
LINE
8
BLACK
6
CONTINUOUS
10
4.5469
20
-5.79581
11
4.55065
21
-5.80331
0
LINE
8
BLACK
6
CONTINUOUS
10
4.55065
20
-5.80331
11
4.55065
21
-5.84456
0
LINE
8
BLACK
6
CONTINUOUS
10
4.55065
20
-5.80331
11
4.5544
21
-5.79581
0
LINE
8
BLACK
6
CONTINUOUS
10
4.5544
20
-5.79581
11
4.5619
21
-5.79206
0
LINE
8
BLACK
6
CONTINUOUS
10
4.5619
20
-5.79206
11
4.57314
21
-5.79206
0
LINE
8
BLACK
6
CONTINUOUS
10
4.57314
20
-5.79206
11
4.58064
21
-5.79581
0
LINE
8
BLACK
6
CONTINUOUS
10
4.58064
20
-5.79581
11
4.58439
21
-5.80331
0
LINE
8
BLACK
6
CONTINUOUS
10
4.58439
20
-5.80331
11
4.58439
21
-5.84456
0
LINE
8
BLACK
6
CONTINUOUS
10
4.73812
20
-5.76207
11
4.67063
21
-5.86331
0
LINE
8
BLACK
6
CONTINUOUS
10
4.83936
20
-5.76582
11
4.84686
21
-5.76582
0
LINE
8
BLACK
6
CONTINUOUS
10
4.84686
20
-5.76582
11
4.85436
21
-5.76957
0
LINE
8
BLACK
6
CONTINUOUS
10
4.85436
20
-5.76957
11
4.85811
21
-5.77332
0
LINE
8
BLACK
6
CONTINUOUS
10
4.85811
20
-5.77332
11
4.86186
21
-5.78082
0
LINE
8
BLACK
6
CONTINUOUS
10
4.86186
20
-5.78082
11
4.86561
21
-5.79581
0
LINE
8
BLACK
6
CONTINUOUS
10
4.86561
20
-5.79581
11
4.86561
21
-5.81456
0
LINE
8
BLACK
6
CONTINUOUS
10
4.86561
20
-5.81456
11
4.86186
21
-5.82956
0
LINE
8
BLACK
6
CONTINUOUS
10
4.86186
20
-5.82956
11
4.85811
21
-5.83706
0
LINE
8
BLACK
6
CONTINUOUS
10
4.85811
20
-5.83706
11
4.85436
21
-5.84081
0
LINE
8
BLACK
6
CONTINUOUS
10
4.85436
20
-5.84081
11
4.84686
21
-5.84456
0
LINE
8
BLACK
6
CONTINUOUS
10
4.84686
20
-5.84456
11
4.83936
21
-5.84456
0
LINE
8
BLACK
6
CONTINUOUS
10
4.83936
20
-5.84456
11
4.83186
21
-5.84081
0
LINE
8
BLACK
6
CONTINUOUS
10
4.83186
20
-5.84081
11
4.82811
21
-5.83706
0
LINE
8
BLACK
6
CONTINUOUS
10
4.82811
20
-5.83706
11
4.82436
21
-5.82956
0
LINE
8
BLACK
6
CONTINUOUS
10
4.82436
20
-5.82956
11
4.82061
21
-5.81456
0
LINE
8
BLACK
6
CONTINUOUS
10
4.82061
20
-5.81456
11
4.82061
21
-5.79581
0
LINE
8
BLACK
6
CONTINUOUS
10
4.82061
20
-5.79581
11
4.82436
21
-5.78082
0
LINE
8
BLACK
6
CONTINUOUS
10
4.82436
20
-5.78082
11
4.82811
21
-5.77332
0
LINE
8
BLACK
6
CONTINUOUS
10
4.82811
20
-5.77332
11
4.83186
21
-5.76957
0
LINE
8
BLACK
6
CONTINUOUS
10
4.83186
20
-5.76957
11
4.83936
21
-5.76582
0
LINE
8
BLACK
6
CONTINUOUS
10
4.89935
20
-5.83706
11
4.9031
21
-5.84081
0
LINE
8
BLACK
6
CONTINUOUS
10
4.9031
20
-5.84081
11
4.89935
21
-5.84456
0
LINE
8
BLACK
6
CONTINUOUS
10
4.89935
20
-5.84456
11
4.8956
21
-5.84081
0
LINE
8
BLACK
6
CONTINUOUS
10
4.8956
20
-5.84081
11
4.89935
21
-5.83706
0
LINE
8
BLACK
6
CONTINUOUS
10
4.89935
20
-5.83706
11
4.89935
21
-5.84456
0
LINE
8
BLACK
6
CONTINUOUS
10
4.95185
20
-5.76582
11
4.95935
21
-5.76582
0
LINE
8
BLACK
6
CONTINUOUS
10
4.95935
20
-5.76582
11
4.96684
21
-5.76957
0
LINE
8
BLACK
6
CONTINUOUS
10
4.96684
20
-5.76957
11
4.97059
21
-5.77332
0
LINE
8
BLACK
6
CONTINUOUS
10
4.97059
20
-5.77332
11
4.97434
21
-5.78082
0
LINE
8
BLACK
6
CONTINUOUS
10
4.97434
20
-5.78082
11
4.97809
21
-5.79581
0
LINE
8
BLACK
6
CONTINUOUS
10
4.97809
20
-5.79581
11
4.97809
21
-5.81456
0
LINE
8
BLACK
6
CONTINUOUS
10
4.97809
20
-5.81456
11
4.97434
21
-5.82956
0
LINE
8
BLACK
6
CONTINUOUS
10
4.97434
20
-5.82956
11
4.97059
21
-5.83706
0
LINE
8
BLACK
6
CONTINUOUS
10
4.97059
20
-5.83706
11
4.96684
21
-5.84081
0
LINE
8
BLACK
6
CONTINUOUS
10
4.96684
20
-5.84081
11
4.95935
21
-5.84456
0
LINE
8
BLACK
6
CONTINUOUS
10
4.95935
20
-5.84456
11
4.95185
21
-5.84456
0
LINE
8
BLACK
6
CONTINUOUS
10
4.95185
20
-5.84456
11
4.94435
21
-5.84081
0
LINE
8
BLACK
6
CONTINUOUS
10
4.94435
20
-5.84081
11
4.9406
21
-5.83706
0
LINE
8
BLACK
6
CONTINUOUS
10
4.9406
20
-5.83706
11
4.93685
21
-5.82956
0
LINE
8
BLACK
6
CONTINUOUS
10
4.93685
20
-5.82956
11
4.9331
21
-5.81456
0
LINE
8
BLACK
6
CONTINUOUS
10
4.9331
20
-5.81456
11
4.9331
21
-5.79581
0
LINE
8
BLACK
6
CONTINUOUS
10
4.9331
20
-5.79581
11
4.93685
21
-5.78082
0
LINE
8
BLACK
6
CONTINUOUS
10
4.93685
20
-5.78082
11
4.9406
21
-5.77332
0
LINE
8
BLACK
6
CONTINUOUS
10
4.9406
20
-5.77332
11
4.94435
21
-5.76957
0
LINE
8
BLACK
6
CONTINUOUS
10
4.94435
20
-5.76957
11
4.95185
21
-5.76582
0
LINE
8
BLACK
6
CONTINUOUS
10
5.05308
20
-5.84456
11
5.00809
21
-5.84456
0
LINE
8
BLACK
6
CONTINUOUS
10
5.03059
20
-5.84456
11
5.03059
21
-5.76582
0
LINE
8
BLACK
6
CONTINUOUS
10
5.03059
20
-5.76582
11
5.02309
21
-5.77707
0
LINE
8
BLACK
6
CONTINUOUS
10
5.02309
20
-5.77707
11
5.01559
21
-5.78457
0
LINE
8
BLACK
6
CONTINUOUS
10
5.01559
20
-5.78457
11
5.00809
21
-5.78831
0
LINE
8
BLACK
6
CONTINUOUS
10
5.12433
20
-5.76582
11
5.08683
21
-5.76582
0
LINE
8
BLACK
6
CONTINUOUS
10
5.08683
20
-5.76582
11
5.08308
21
-5.80331
0
LINE
8
BLACK
6
CONTINUOUS
10
5.08308
20
-5.80331
11
5.08683
21
-5.79956
0
LINE
8
BLACK
6
CONTINUOUS
10
5.08683
20
-5.79956
11
5.09433
21
-5.79581
0
LINE
8
BLACK
6
CONTINUOUS
10
5.09433
20
-5.79581
11
5.11308
21
-5.79581
0
LINE
8
BLACK
6
CONTINUOUS
10
5.11308
20
-5.79581
11
5.12058
21
-5.79956
0
LINE
8
BLACK
6
CONTINUOUS
10
5.12058
20
-5.79956
11
5.12433
21
-5.80331
0
LINE
8
BLACK
6
CONTINUOUS
10
5.12433
20
-5.80331
11
5.12807
21
-5.81081
0
LINE
8
BLACK
6
CONTINUOUS
10
5.12807
20
-5.81081
11
5.12807
21
-5.82956
0
LINE
8
BLACK
6
CONTINUOUS
10
5.12807
20
-5.82956
11
5.12433
21
-5.83706
0
LINE
8
BLACK
6
CONTINUOUS
10
5.12433
20
-5.83706
11
5.12058
21
-5.84081
0
LINE
8
BLACK
6
CONTINUOUS
10
5.12058
20
-5.84081
11
5.11308
21
-5.84456
0
LINE
8
BLACK
6
CONTINUOUS
10
5.11308
20
-5.84456
11
5.09433
21
-5.84456
0
LINE
8
BLACK
6
CONTINUOUS
10
5.09433
20
-5.84456
11
5.08683
21
-5.84081
0
LINE
8
BLACK
6
CONTINUOUS
10
5.08683
20
-5.84081
11
5.08308
21
-5.83706
0
LINE
8
BLACK
6
CONTINUOUS
10
5.15432
20
-5.76582
11
5.20681
21
-5.76582
0
LINE
8
BLACK
6
CONTINUOUS
10
5.20681
20
-5.76582
11
5.17307
21
-5.84456
0
LINE
8
BLACK
6
CONTINUOUS
10
5.23306
20
-5.76582
11
5.23306
21
-5.78082
0
LINE
8
BLACK
6
CONTINUOUS
10
5.26306
20
-5.76582
11
5.26306
21
-5.78082
0
LINE
8
BLACK
6
CONTINUOUS
10
5.37929
20
-5.87455
11
5.37554
21
-5.8708
0
LINE
8
BLACK
6
CONTINUOUS
10
5.37554
20
-5.8708
11
5.36804
21
-5.85956
0
LINE
8
BLACK
6
CONTINUOUS
10
5.36804
20
-5.85956
11
5.3643
21
-5.85206
0
LINE
8
BLACK
6
CONTINUOUS
10
5.3643
20
-5.85206
11
5.36055
21
-5.84081
0
LINE
8
BLACK
6
CONTINUOUS
10
5.36055
20
-5.84081
11
5.3568
21
-5.82206
0
LINE
8
BLACK
6
CONTINUOUS
10
5.3568
20
-5.82206
11
5.3568
21
-5.80706
0
LINE
8
BLACK
6
CONTINUOUS
10
5.3568
20
-5.80706
11
5.36055
21
-5.78831
0
LINE
8
BLACK
6
CONTINUOUS
10
5.36055
20
-5.78831
11
5.3643
21
-5.77707
0
LINE
8
BLACK
6
CONTINUOUS
10
5.3643
20
-5.77707
11
5.36804
21
-5.76957
0
LINE
8
BLACK
6
CONTINUOUS
10
5.36804
20
-5.76957
11
5.37554
21
-5.75832
0
LINE
8
BLACK
6
CONTINUOUS
10
5.37554
20
-5.75832
11
5.37929
21
-5.75457
0
LINE
8
BLACK
6
CONTINUOUS
10
5.40554
20
-5.77332
11
5.40929
21
-5.76957
0
LINE
8
BLACK
6
CONTINUOUS
10
5.40929
20
-5.76957
11
5.41679
21
-5.76582
0
LINE
8
BLACK
6
CONTINUOUS
10
5.41679
20
-5.76582
11
5.43554
21
-5.76582
0
LINE
8
BLACK
6
CONTINUOUS
10
5.43554
20
-5.76582
11
5.44304
21
-5.76957
0
LINE
8
BLACK
6
CONTINUOUS
10
5.44304
20
-5.76957
11
5.44678
21
-5.77332
0
LINE
8
BLACK
6
CONTINUOUS
10
5.44678
20
-5.77332
11
5.45053
21
-5.78082
0
LINE
8
BLACK
6
CONTINUOUS
10
5.45053
20
-5.78082
11
5.45053
21
-5.78831
0
LINE
8
BLACK
6
CONTINUOUS
10
5.45053
20
-5.78831
11
5.44678
21
-5.79956
0
LINE
8
BLACK
6
CONTINUOUS
10
5.44678
20
-5.79956
11
5.40179
21
-5.84456
0
LINE
8
BLACK
6
CONTINUOUS
10
5.40179
20
-5.84456
11
5.45053
21
-5.84456
0
LINE
8
BLACK
6
CONTINUOUS
10
5.47678
20
-5.76582
11
5.52552
21
-5.76582
0
LINE
8
BLACK
6
CONTINUOUS
10
5.52552
20
-5.76582
11
5.49928
21
-5.79581
0
LINE
8
BLACK
6
CONTINUOUS
10
5.49928
20
-5.79581
11
5.51053
21
-5.79581
0
LINE
8
BLACK
6
CONTINUOUS
10
5.51053
20
-5.79581
11
5.51803
21
-5.79956
0
LINE
8
BLACK
6
CONTINUOUS
10
5.51803
20
-5.79956
11
5.52178
21
-5.80331
0
LINE
8
BLACK
6
CONTINUOUS
10
5.52178
20
-5.80331
11
5.52552
21
-5.81081
0
LINE
8
BLACK
6
CONTINUOUS
10
5.52552
20
-5.81081
11
5.52552
21
-5.82956
0
LINE
8
BLACK
6
CONTINUOUS
10
5.52552
20
-5.82956
11
5.52178
21
-5.83706
0
LINE
8
BLACK
6
CONTINUOUS
10
5.52178
20
-5.83706
11
5.51803
21
-5.84081
0
LINE
8
BLACK
6
CONTINUOUS
10
5.51803
20
-5.84081
11
5.51053
21
-5.84456
0
LINE
8
BLACK
6
CONTINUOUS
10
5.51053
20
-5.84456
11
5.48803
21
-5.84456
0
LINE
8
BLACK
6
CONTINUOUS
10
5.48803
20
-5.84456
11
5.48053
21
-5.84081
0
LINE
8
BLACK
6
CONTINUOUS
10
5.48053
20
-5.84081
11
5.47678
21
-5.83706
0
LINE
8
BLACK
6
CONTINUOUS
10
5.55177
20
-5.76582
11
5.60427
21
-5.76582
0
LINE
8
BLACK
6
CONTINUOUS
10
5.60427
20
-5.76582
11
5.57052
21
-5.84456
0
LINE
8
BLACK
6
CONTINUOUS
10
5.69425
20
-5.84456
11
5.69425
21
-5.76582
0
LINE
8
BLACK
6
CONTINUOUS
10
5.728
20
-5.84456
11
5.728
21
-5.80331
0
LINE
8
BLACK
6
CONTINUOUS
10
5.728
20
-5.80331
11
5.72425
21
-5.79581
0
LINE
8
BLACK
6
CONTINUOUS
10
5.72425
20
-5.79581
11
5.71675
21
-5.79206
0
LINE
8
BLACK
6
CONTINUOUS
10
5.71675
20
-5.79206
11
5.7055
21
-5.79206
0
LINE
8
BLACK
6
CONTINUOUS
10
5.7055
20
-5.79206
11
5.698
21
-5.79581
0
LINE
8
BLACK
6
CONTINUOUS
10
5.698
20
-5.79581
11
5.69425
21
-5.79956
0
LINE
8
BLACK
6
CONTINUOUS
10
5.77674
20
-5.84456
11
5.76924
21
-5.84081
0
LINE
8
BLACK
6
CONTINUOUS
10
5.76924
20
-5.84081
11
5.76549
21
-5.83706
0
LINE
8
BLACK
6
CONTINUOUS
10
5.76549
20
-5.83706
11
5.76175
21
-5.82956
0
LINE
8
BLACK
6
CONTINUOUS
10
5.76175
20
-5.82956
11
5.76175
21
-5.80706
0
LINE
8
BLACK
6
CONTINUOUS
10
5.76175
20
-5.80706
11
5.76549
21
-5.79956
0
LINE
8
BLACK
6
CONTINUOUS
10
5.76549
20
-5.79956
11
5.76924
21
-5.79581
0
LINE
8
BLACK
6
CONTINUOUS
10
5.76924
20
-5.79581
11
5.77674
21
-5.79206
0
LINE
8
BLACK
6
CONTINUOUS
10
5.77674
20
-5.79206
11
5.78799
21
-5.79206
0
LINE
8
BLACK
6
CONTINUOUS
10
5.78799
20
-5.79206
11
5.79549
21
-5.79581
0
LINE
8
BLACK
6
CONTINUOUS
10
5.79549
20
-5.79581
11
5.79924
21
-5.79956
0
LINE
8
BLACK
6
CONTINUOUS
10
5.79924
20
-5.79956
11
5.80299
21
-5.80706
0
LINE
8
BLACK
6
CONTINUOUS
10
5.80299
20
-5.80706
11
5.80299
21
-5.82956
0
LINE
8
BLACK
6
CONTINUOUS
10
5.80299
20
-5.82956
11
5.79924
21
-5.83706
0
LINE
8
BLACK
6
CONTINUOUS
10
5.79924
20
-5.83706
11
5.79549
21
-5.84081
0
LINE
8
BLACK
6
CONTINUOUS
10
5.79549
20
-5.84081
11
5.78799
21
-5.84456
0
LINE
8
BLACK
6
CONTINUOUS
10
5.78799
20
-5.84456
11
5.77674
21
-5.84456
0
LINE
8
BLACK
6
CONTINUOUS
10
5.84798
20
-5.84456
11
5.84049
21
-5.84081
0
LINE
8
BLACK
6
CONTINUOUS
10
5.84049
20
-5.84081
11
5.83674
21
-5.83331
0
LINE
8
BLACK
6
CONTINUOUS
10
5.83674
20
-5.83331
11
5.83674
21
-5.76582
0
LINE
8
BLACK
6
CONTINUOUS
10
5.90798
20
-5.84081
11
5.90048
21
-5.84456
0
LINE
8
BLACK
6
CONTINUOUS
10
5.90048
20
-5.84456
11
5.88548
21
-5.84456
0
LINE
8
BLACK
6
CONTINUOUS
10
5.88548
20
-5.84456
11
5.87798
21
-5.84081
0
LINE
8
BLACK
6
CONTINUOUS
10
5.87798
20
-5.84081
11
5.87423
21
-5.83331
0
LINE
8
BLACK
6
CONTINUOUS
10
5.87423
20
-5.83331
11
5.87423
21
-5.80331
0
LINE
8
BLACK
6
CONTINUOUS
10
5.87423
20
-5.80331
11
5.87798
21
-5.79581
0
LINE
8
BLACK
6
CONTINUOUS
10
5.87798
20
-5.79581
11
5.88548
21
-5.79206
0
LINE
8
BLACK
6
CONTINUOUS
10
5.88548
20
-5.79206
11
5.90048
21
-5.79206
0
LINE
8
BLACK
6
CONTINUOUS
10
5.90048
20
-5.79206
11
5.90798
21
-5.79581
0
LINE
8
BLACK
6
CONTINUOUS
10
5.90798
20
-5.79581
11
5.91173
21
-5.80331
0
LINE
8
BLACK
6
CONTINUOUS
10
5.91173
20
-5.80331
11
5.91173
21
-5.81081
0
LINE
8
BLACK
6
CONTINUOUS
10
5.91173
20
-5.81081
11
5.87423
21
-5.81831
0
LINE
8
BLACK
6
CONTINUOUS
10
5.94172
20
-5.84081
11
5.94922
21
-5.84456
0
LINE
8
BLACK
6
CONTINUOUS
10
5.94922
20
-5.84456
11
5.96422
21
-5.84456
0
LINE
8
BLACK
6
CONTINUOUS
10
5.96422
20
-5.84456
11
5.97172
21
-5.84081
0
LINE
8
BLACK
6
CONTINUOUS
10
5.97172
20
-5.84081
11
5.97547
21
-5.83331
0
LINE
8
BLACK
6
CONTINUOUS
10
5.97547
20
-5.83331
11
5.97547
21
-5.82956
0
LINE
8
BLACK
6
CONTINUOUS
10
5.97547
20
-5.82956
11
5.97172
21
-5.82206
0
LINE
8
BLACK
6
CONTINUOUS
10
5.97172
20
-5.82206
11
5.96422
21
-5.81831
0
LINE
8
BLACK
6
CONTINUOUS
10
5.96422
20
-5.81831
11
5.95297
21
-5.81831
0
LINE
8
BLACK
6
CONTINUOUS
10
5.95297
20
-5.81831
11
5.94547
21
-5.81456
0
LINE
8
BLACK
6
CONTINUOUS
10
5.94547
20
-5.81456
11
5.94172
21
-5.80706
0
LINE
8
BLACK
6
CONTINUOUS
10
5.94172
20
-5.80706
11
5.94172
21
-5.80331
0
LINE
8
BLACK
6
CONTINUOUS
10
5.94172
20
-5.80331
11
5.94547
21
-5.79581
0
LINE
8
BLACK
6
CONTINUOUS
10
5.94547
20
-5.79581
11
5.95297
21
-5.79206
0
LINE
8
BLACK
6
CONTINUOUS
10
5.95297
20
-5.79206
11
5.96422
21
-5.79206
0
LINE
8
BLACK
6
CONTINUOUS
10
5.96422
20
-5.79206
11
5.97172
21
-5.79581
0
LINE
8
BLACK
6
CONTINUOUS
10
6.00172
20
-5.87455
11
6.00546
21
-5.8708
0
LINE
8
BLACK
6
CONTINUOUS
10
6.00546
20
-5.8708
11
6.01296
21
-5.85956
0
LINE
8
BLACK
6
CONTINUOUS
10
6.01296
20
-5.85956
11
6.01671
21
-5.85206
0
LINE
8
BLACK
6
CONTINUOUS
10
6.01671
20
-5.85206
11
6.02046
21
-5.84081
0
LINE
8
BLACK
6
CONTINUOUS
10
6.02046
20
-5.84081
11
6.02421
21
-5.82206
0
LINE
8
BLACK
6
CONTINUOUS
10
6.02421
20
-5.82206
11
6.02421
21
-5.80706
0
LINE
8
BLACK
6
CONTINUOUS
10
6.02421
20
-5.80706
11
6.02046
21
-5.78831
0
LINE
8
BLACK
6
CONTINUOUS
10
6.02046
20
-5.78831
11
6.01671
21
-5.77707
0
LINE
8
BLACK
6
CONTINUOUS
10
6.01671
20
-5.77707
11
6.01296
21
-5.76957
0
LINE
8
BLACK
6
CONTINUOUS
10
6.01296
20
-5.76957
11
6.00546
21
-5.75832
0
LINE
8
BLACK
6
CONTINUOUS
10
6.00546
20
-5.75832
11
6.00172
21
-5.75457
0
CIRCLE
8
BLACK
10
3.95807
20
-5.91287
40
0.0149606
0
LINE
8
BLACK
6
CONTINUOUS
10
4.08945
20
-5.86975
11
4.09695
21
-5.86975
0
LINE
8
BLACK
6
CONTINUOUS
10
4.09695
20
-5.86975
11
4.10445
21
-5.8735
0
LINE
8
BLACK
6
CONTINUOUS
10
4.10445
20
-5.8735
11
4.1082
21
-5.87725
0
LINE
8
BLACK
6
CONTINUOUS
10
4.1082
20
-5.87725
11
4.11195
21
-5.88475
0
LINE
8
BLACK
6
CONTINUOUS
10
4.11195
20
-5.88475
11
4.1157
21
-5.89975
0
LINE
8
BLACK
6
CONTINUOUS
10
4.1157
20
-5.89975
11
4.1157
21
-5.9185
0
LINE
8
BLACK
6
CONTINUOUS
10
4.1157
20
-5.9185
11
4.11195
21
-5.9335
0
LINE
8
BLACK
6
CONTINUOUS
10
4.11195
20
-5.9335
11
4.1082
21
-5.941
0
LINE
8
BLACK
6
CONTINUOUS
10
4.1082
20
-5.941
11
4.10445
21
-5.94475
0
LINE
8
BLACK
6
CONTINUOUS
10
4.10445
20
-5.94475
11
4.09695
21
-5.94849
0
LINE
8
BLACK
6
CONTINUOUS
10
4.09695
20
-5.94849
11
4.08945
21
-5.94849
0
LINE
8
BLACK
6
CONTINUOUS
10
4.08945
20
-5.94849
11
4.08196
21
-5.94475
0
LINE
8
BLACK
6
CONTINUOUS
10
4.08196
20
-5.94475
11
4.07821
21
-5.941
0
LINE
8
BLACK
6
CONTINUOUS
10
4.07821
20
-5.941
11
4.07446
21
-5.9335
0
LINE
8
BLACK
6
CONTINUOUS
10
4.07446
20
-5.9335
11
4.07071
21
-5.9185
0
LINE
8
BLACK
6
CONTINUOUS
10
4.07071
20
-5.9185
11
4.07071
21
-5.89975
0
LINE
8
BLACK
6
CONTINUOUS
10
4.07071
20
-5.89975
11
4.07446
21
-5.88475
0
LINE
8
BLACK
6
CONTINUOUS
10
4.07446
20
-5.88475
11
4.07821
21
-5.87725
0
LINE
8
BLACK
6
CONTINUOUS
10
4.07821
20
-5.87725
11
4.08196
21
-5.8735
0
LINE
8
BLACK
6
CONTINUOUS
10
4.08196
20
-5.8735
11
4.08945
21
-5.86975
0
LINE
8
BLACK
6
CONTINUOUS
10
4.14945
20
-5.941
11
4.1532
21
-5.94475
0
LINE
8
BLACK
6
CONTINUOUS
10
4.1532
20
-5.94475
11
4.14945
21
-5.94849
0
LINE
8
BLACK
6
CONTINUOUS
10
4.14945
20
-5.94849
11
4.1457
21
-5.94475
0
LINE
8
BLACK
6
CONTINUOUS
10
4.1457
20
-5.94475
11
4.14945
21
-5.941
0
LINE
8
BLACK
6
CONTINUOUS
10
4.14945
20
-5.941
11
4.14945
21
-5.94849
0
LINE
8
BLACK
6
CONTINUOUS
10
4.17944
20
-5.86975
11
4.23194
21
-5.86975
0
LINE
8
BLACK
6
CONTINUOUS
10
4.23194
20
-5.86975
11
4.19819
21
-5.94849
0
LINE
8
BLACK
6
CONTINUOUS
10
4.29568
20
-5.86975
11
4.28068
21
-5.86975
0
LINE
8
BLACK
6
CONTINUOUS
10
4.28068
20
-5.86975
11
4.27318
21
-5.8735
0
LINE
8
BLACK
6
CONTINUOUS
10
4.27318
20
-5.8735
11
4.26943
21
-5.87725
0
LINE
8
BLACK
6
CONTINUOUS
10
4.26943
20
-5.87725
11
4.26193
21
-5.8885
0
LINE
8
BLACK
6
CONTINUOUS
10
4.26193
20
-5.8885
11
4.25818
21
-5.9035
0
LINE
8
BLACK
6
CONTINUOUS
10
4.25818
20
-5.9035
11
4.25818
21
-5.9335
0
LINE
8
BLACK
6
CONTINUOUS
10
4.25818
20
-5.9335
11
4.26193
21
-5.941
0
LINE
8
BLACK
6
CONTINUOUS
10
4.26193
20
-5.941
11
4.26568
21
-5.94475
0
LINE
8
BLACK
6
CONTINUOUS
10
4.26568
20
-5.94475
11
4.27318
21
-5.94849
0
LINE
8
BLACK
6
CONTINUOUS
10
4.27318
20
-5.94849
11
4.28818
21
-5.94849
0
LINE
8
BLACK
6
CONTINUOUS
10
4.28818
20
-5.94849
11
4.29568
21
-5.94475
0
LINE
8
BLACK
6
CONTINUOUS
10
4.29568
20
-5.94475
11
4.29943
21
-5.941
0
LINE
8
BLACK
6
CONTINUOUS
10
4.29943
20
-5.941
11
4.30318
21
-5.9335
0
LINE
8
BLACK
6
CONTINUOUS
10
4.30318
20
-5.9335
11
4.30318
21
-5.91475
0
LINE
8
BLACK
6
CONTINUOUS
10
4.30318
20
-5.91475
11
4.29943
21
-5.90725
0
LINE
8
BLACK
6
CONTINUOUS
10
4.29943
20
-5.90725
11
4.29568
21
-5.9035
0
LINE
8
BLACK
6
CONTINUOUS
10
4.29568
20
-5.9035
11
4.28818
21
-5.89975
0
LINE
8
BLACK
6
CONTINUOUS
10
4.28818
20
-5.89975
11
4.27318
21
-5.89975
0
LINE
8
BLACK
6
CONTINUOUS
10
4.27318
20
-5.89975
11
4.26568
21
-5.9035
0
LINE
8
BLACK
6
CONTINUOUS
10
4.26568
20
-5.9035
11
4.26193
21
-5.90725
0
LINE
8
BLACK
6
CONTINUOUS
10
4.26193
20
-5.90725
11
4.25818
21
-5.91475
0
LINE
8
BLACK
6
CONTINUOUS
10
4.35192
20
-5.86975
11
4.35942
21
-5.86975
0
LINE
8
BLACK
6
CONTINUOUS
10
4.35942
20
-5.86975
11
4.36692
21
-5.8735
0
LINE
8
BLACK
6
CONTINUOUS
10
4.36692
20
-5.8735
11
4.37067
21
-5.87725
0
LINE
8
BLACK
6
CONTINUOUS
10
4.37067
20
-5.87725
11
4.37442
21
-5.88475
0
LINE
8
BLACK
6
CONTINUOUS
10
4.37442
20
-5.88475
11
4.37817
21
-5.89975
0
LINE
8
BLACK
6
CONTINUOUS
10
4.37817
20
-5.89975
11
4.37817
21
-5.9185
0
LINE
8
BLACK
6
CONTINUOUS
10
4.37817
20
-5.9185
11
4.37442
21
-5.9335
0
LINE
8
BLACK
6
CONTINUOUS
10
4.37442
20
-5.9335
11
4.37067
21
-5.941
0
LINE
8
BLACK
6
CONTINUOUS
10
4.37067
20
-5.941
11
4.36692
21
-5.94475
0
LINE
8
BLACK
6
CONTINUOUS
10
4.36692
20
-5.94475
11
4.35942
21
-5.94849
0
LINE
8
BLACK
6
CONTINUOUS
10
4.35942
20
-5.94849
11
4.35192
21
-5.94849
0
LINE
8
BLACK
6
CONTINUOUS
10
4.35192
20
-5.94849
11
4.34442
21
-5.94475
0
LINE
8
BLACK
6
CONTINUOUS
10
4.34442
20
-5.94475
11
4.34067
21
-5.941
0
LINE
8
BLACK
6
CONTINUOUS
10
4.34067
20
-5.941
11
4.33692
21
-5.9335
0
LINE
8
BLACK
6
CONTINUOUS
10
4.33692
20
-5.9335
11
4.33317
21
-5.9185
0
LINE
8
BLACK
6
CONTINUOUS
10
4.33317
20
-5.9185
11
4.33317
21
-5.89975
0
LINE
8
BLACK
6
CONTINUOUS
10
4.33317
20
-5.89975
11
4.33692
21
-5.88475
0
LINE
8
BLACK
6
CONTINUOUS
10
4.33692
20
-5.88475
11
4.34067
21
-5.87725
0
LINE
8
BLACK
6
CONTINUOUS
10
4.34067
20
-5.87725
11
4.34442
21
-5.8735
0
LINE
8
BLACK
6
CONTINUOUS
10
4.34442
20
-5.8735
11
4.35192
21
-5.86975
0
LINE
8
BLACK
6
CONTINUOUS
10
4.41191
20
-5.94849
11
4.41191
21
-5.896
0
LINE
8
BLACK
6
CONTINUOUS
10
4.41191
20
-5.9035
11
4.41566
21
-5.89975
0
LINE
8
BLACK
6
CONTINUOUS
10
4.41566
20
-5.89975
11
4.42316
21
-5.896
0
LINE
8
BLACK
6
CONTINUOUS
10
4.42316
20
-5.896
11
4.43441
21
-5.896
0
LINE
8
BLACK
6
CONTINUOUS
10
4.43441
20
-5.896
11
4.44191
21
-5.89975
0
LINE
8
BLACK
6
CONTINUOUS
10
4.44191
20
-5.89975
11
4.44566
21
-5.90725
0
LINE
8
BLACK
6
CONTINUOUS
10
4.44566
20
-5.90725
11
4.44566
21
-5.94849
0
LINE
8
BLACK
6
CONTINUOUS
10
4.44566
20
-5.90725
11
4.44941
21
-5.89975
0
LINE
8
BLACK
6
CONTINUOUS
10
4.44941
20
-5.89975
11
4.45691
21
-5.896
0
LINE
8
BLACK
6
CONTINUOUS
10
4.45691
20
-5.896
11
4.46816
21
-5.896
0
LINE
8
BLACK
6
CONTINUOUS
10
4.46816
20
-5.896
11
4.47566
21
-5.89975
0
LINE
8
BLACK
6
CONTINUOUS
10
4.47566
20
-5.89975
11
4.47941
21
-5.90725
0
LINE
8
BLACK
6
CONTINUOUS
10
4.47941
20
-5.90725
11
4.47941
21
-5.94849
0
LINE
8
BLACK
6
CONTINUOUS
10
4.5169
20
-5.94849
11
4.5169
21
-5.896
0
LINE
8
BLACK
6
CONTINUOUS
10
4.5169
20
-5.9035
11
4.52065
21
-5.89975
0
LINE
8
BLACK
6
CONTINUOUS
10
4.52065
20
-5.89975
11
4.52815
21
-5.896
0
LINE
8
BLACK
6
CONTINUOUS
10
4.52815
20
-5.896
11
4.5394
21
-5.896
0
LINE
8
BLACK
6
CONTINUOUS
10
4.5394
20
-5.896
11
4.5469
21
-5.89975
0
LINE
8
BLACK
6
CONTINUOUS
10
4.5469
20
-5.89975
11
4.55065
21
-5.90725
0
LINE
8
BLACK
6
CONTINUOUS
10
4.55065
20
-5.90725
11
4.55065
21
-5.94849
0
LINE
8
BLACK
6
CONTINUOUS
10
4.55065
20
-5.90725
11
4.5544
21
-5.89975
0
LINE
8
BLACK
6
CONTINUOUS
10
4.5544
20
-5.89975
11
4.5619
21
-5.896
0
LINE
8
BLACK
6
CONTINUOUS
10
4.5619
20
-5.896
11
4.57314
21
-5.896
0
LINE
8
BLACK
6
CONTINUOUS
10
4.57314
20
-5.896
11
4.58064
21
-5.89975
0
LINE
8
BLACK
6
CONTINUOUS
10
4.58064
20
-5.89975
11
4.58439
21
-5.90725
0
LINE
8
BLACK
6
CONTINUOUS
10
4.58439
20
-5.90725
11
4.58439
21
-5.94849
0
LINE
8
BLACK
6
CONTINUOUS
10
4.73812
20
-5.866
11
4.67063
21
-5.96724
0
LINE
8
BLACK
6
CONTINUOUS
10
4.83936
20
-5.86975
11
4.84686
21
-5.86975
0
LINE
8
BLACK
6
CONTINUOUS
10
4.84686
20
-5.86975
11
4.85436
21
-5.8735
0
LINE
8
BLACK
6
CONTINUOUS
10
4.85436
20
-5.8735
11
4.85811
21
-5.87725
0
LINE
8
BLACK
6
CONTINUOUS
10
4.85811
20
-5.87725
11
4.86186
21
-5.88475
0
LINE
8
BLACK
6
CONTINUOUS
10
4.86186
20
-5.88475
11
4.86561
21
-5.89975
0
LINE
8
BLACK
6
CONTINUOUS
10
4.86561
20
-5.89975
11
4.86561
21
-5.9185
0
LINE
8
BLACK
6
CONTINUOUS
10
4.86561
20
-5.9185
11
4.86186
21
-5.9335
0
LINE
8
BLACK
6
CONTINUOUS
10
4.86186
20
-5.9335
11
4.85811
21
-5.941
0
LINE
8
BLACK
6
CONTINUOUS
10
4.85811
20
-5.941
11
4.85436
21
-5.94475
0
LINE
8
BLACK
6
CONTINUOUS
10
4.85436
20
-5.94475
11
4.84686
21
-5.94849
0
LINE
8
BLACK
6
CONTINUOUS
10
4.84686
20
-5.94849
11
4.83936
21
-5.94849
0
LINE
8
BLACK
6
CONTINUOUS
10
4.83936
20
-5.94849
11
4.83186
21
-5.94475
0
LINE
8
BLACK
6
CONTINUOUS
10
4.83186
20
-5.94475
11
4.82811
21
-5.941
0
LINE
8
BLACK
6
CONTINUOUS
10
4.82811
20
-5.941
11
4.82436
21
-5.9335
0
LINE
8
BLACK
6
CONTINUOUS
10
4.82436
20
-5.9335
11
4.82061
21
-5.9185
0
LINE
8
BLACK
6
CONTINUOUS
10
4.82061
20
-5.9185
11
4.82061
21
-5.89975
0
LINE
8
BLACK
6
CONTINUOUS
10
4.82061
20
-5.89975
11
4.82436
21
-5.88475
0
LINE
8
BLACK
6
CONTINUOUS
10
4.82436
20
-5.88475
11
4.82811
21
-5.87725
0
LINE
8
BLACK
6
CONTINUOUS
10
4.82811
20
-5.87725
11
4.83186
21
-5.8735
0
LINE
8
BLACK
6
CONTINUOUS
10
4.83186
20
-5.8735
11
4.83936
21
-5.86975
0
LINE
8
BLACK
6
CONTINUOUS
10
4.89935
20
-5.941
11
4.9031
21
-5.94475
0
LINE
8
BLACK
6
CONTINUOUS
10
4.9031
20
-5.94475
11
4.89935
21
-5.94849
0
LINE
8
BLACK
6
CONTINUOUS
10
4.89935
20
-5.94849
11
4.8956
21
-5.94475
0
LINE
8
BLACK
6
CONTINUOUS
10
4.8956
20
-5.94475
11
4.89935
21
-5.941
0
LINE
8
BLACK
6
CONTINUOUS
10
4.89935
20
-5.941
11
4.89935
21
-5.94849
0
LINE
8
BLACK
6
CONTINUOUS
10
4.95185
20
-5.86975
11
4.95935
21
-5.86975
0
LINE
8
BLACK
6
CONTINUOUS
10
4.95935
20
-5.86975
11
4.96684
21
-5.8735
0
LINE
8
BLACK
6
CONTINUOUS
10
4.96684
20
-5.8735
11
4.97059
21
-5.87725
0
LINE
8
BLACK
6
CONTINUOUS
10
4.97059
20
-5.87725
11
4.97434
21
-5.88475
0
LINE
8
BLACK
6
CONTINUOUS
10
4.97434
20
-5.88475
11
4.97809
21
-5.89975
0
LINE
8
BLACK
6
CONTINUOUS
10
4.97809
20
-5.89975
11
4.97809
21
-5.9185
0
LINE
8
BLACK
6
CONTINUOUS
10
4.97809
20
-5.9185
11
4.97434
21
-5.9335
0
LINE
8
BLACK
6
CONTINUOUS
10
4.97434
20
-5.9335
11
4.97059
21
-5.941
0
LINE
8
BLACK
6
CONTINUOUS
10
4.97059
20
-5.941
11
4.96684
21
-5.94475
0
LINE
8
BLACK
6
CONTINUOUS
10
4.96684
20
-5.94475
11
4.95935
21
-5.94849
0
LINE
8
BLACK
6
CONTINUOUS
10
4.95935
20
-5.94849
11
4.95185
21
-5.94849
0
LINE
8
BLACK
6
CONTINUOUS
10
4.95185
20
-5.94849
11
4.94435
21
-5.94475
0
LINE
8
BLACK
6
CONTINUOUS
10
4.94435
20
-5.94475
11
4.9406
21
-5.941
0
LINE
8
BLACK
6
CONTINUOUS
10
4.9406
20
-5.941
11
4.93685
21
-5.9335
0
LINE
8
BLACK
6
CONTINUOUS
10
4.93685
20
-5.9335
11
4.9331
21
-5.9185
0
LINE
8
BLACK
6
CONTINUOUS
10
4.9331
20
-5.9185
11
4.9331
21
-5.89975
0
LINE
8
BLACK
6
CONTINUOUS
10
4.9331
20
-5.89975
11
4.93685
21
-5.88475
0
LINE
8
BLACK
6
CONTINUOUS
10
4.93685
20
-5.88475
11
4.9406
21
-5.87725
0
LINE
8
BLACK
6
CONTINUOUS
10
4.9406
20
-5.87725
11
4.94435
21
-5.8735
0
LINE
8
BLACK
6
CONTINUOUS
10
4.94435
20
-5.8735
11
4.95185
21
-5.86975
0
LINE
8
BLACK
6
CONTINUOUS
10
5.00809
20
-5.87725
11
5.01184
21
-5.8735
0
LINE
8
BLACK
6
CONTINUOUS
10
5.01184
20
-5.8735
11
5.01934
21
-5.86975
0
LINE
8
BLACK
6
CONTINUOUS
10
5.01934
20
-5.86975
11
5.03809
21
-5.86975
0
LINE
8
BLACK
6
CONTINUOUS
10
5.03809
20
-5.86975
11
5.04558
21
-5.8735
0
LINE
8
BLACK
6
CONTINUOUS
10
5.04558
20
-5.8735
11
5.04933
21
-5.87725
0
LINE
8
BLACK
6
CONTINUOUS
10
5.04933
20
-5.87725
11
5.05308
21
-5.88475
0
LINE
8
BLACK
6
CONTINUOUS
10
5.05308
20
-5.88475
11
5.05308
21
-5.89225
0
LINE
8
BLACK
6
CONTINUOUS
10
5.05308
20
-5.89225
11
5.04933
21
-5.9035
0
LINE
8
BLACK
6
CONTINUOUS
10
5.04933
20
-5.9035
11
5.00434
21
-5.94849
0
LINE
8
BLACK
6
CONTINUOUS
10
5.00434
20
-5.94849
11
5.05308
21
-5.94849
0
LINE
8
BLACK
6
CONTINUOUS
10
5.09058
20
-5.94849
11
5.10558
21
-5.94849
0
LINE
8
BLACK
6
CONTINUOUS
10
5.10558
20
-5.94849
11
5.11308
21
-5.94475
0
LINE
8
BLACK
6
CONTINUOUS
10
5.11308
20
-5.94475
11
5.11683
21
-5.941
0
LINE
8
BLACK
6
CONTINUOUS
10
5.11683
20
-5.941
11
5.12433
21
-5.92975
0
LINE
8
BLACK
6
CONTINUOUS
10
5.12433
20
-5.92975
11
5.12807
21
-5.91475
0
LINE
8
BLACK
6
CONTINUOUS
10
5.12807
20
-5.91475
11
5.12807
21
-5.88475
0
LINE
8
BLACK
6
CONTINUOUS
10
5.12807
20
-5.88475
11
5.12433
21
-5.87725
0
LINE
8
BLACK
6
CONTINUOUS
10
5.12433
20
-5.87725
11
5.12058
21
-5.8735
0
LINE
8
BLACK
6
CONTINUOUS
10
5.12058
20
-5.8735
11
5.11308
21
-5.86975
0
LINE
8
BLACK
6
CONTINUOUS
10
5.11308
20
-5.86975
11
5.09808
21
-5.86975
0
LINE
8
BLACK
6
CONTINUOUS
10
5.09808
20
-5.86975
11
5.09058
21
-5.8735
0
LINE
8
BLACK
6
CONTINUOUS
10
5.09058
20
-5.8735
11
5.08683
21
-5.87725
0
LINE
8
BLACK
6
CONTINUOUS
10
5.08683
20
-5.87725
11
5.08308
21
-5.88475
0
LINE
8
BLACK
6
CONTINUOUS
10
5.08308
20
-5.88475
11
5.08308
21
-5.9035
0
LINE
8
BLACK
6
CONTINUOUS
10
5.08308
20
-5.9035
11
5.08683
21
-5.911
0
LINE
8
BLACK
6
CONTINUOUS
10
5.08683
20
-5.911
11
5.09058
21
-5.91475
0
LINE
8
BLACK
6
CONTINUOUS
10
5.09058
20
-5.91475
11
5.09808
21
-5.9185
0
LINE
8
BLACK
6
CONTINUOUS
10
5.09808
20
-5.9185
11
5.11308
21
-5.9185
0
LINE
8
BLACK
6
CONTINUOUS
10
5.11308
20
-5.9185
11
5.12058
21
-5.91475
0
LINE
8
BLACK
6
CONTINUOUS
10
5.12058
20
-5.91475
11
5.12433
21
-5.911
0
LINE
8
BLACK
6
CONTINUOUS
10
5.12433
20
-5.911
11
5.12807
21
-5.9035
0
LINE
8
BLACK
6
CONTINUOUS
10
5.16557
20
-5.94849
11
5.18057
21
-5.94849
0
LINE
8
BLACK
6
CONTINUOUS
10
5.18057
20
-5.94849
11
5.18807
21
-5.94475
0
LINE
8
BLACK
6
CONTINUOUS
10
5.18807
20
-5.94475
11
5.19182
21
-5.941
0
LINE
8
BLACK
6
CONTINUOUS
10
5.19182
20
-5.941
11
5.19932
21
-5.92975
0
LINE
8
BLACK
6
CONTINUOUS
10
5.19932
20
-5.92975
11
5.20307
21
-5.91475
0
LINE
8
BLACK
6
CONTINUOUS
10
5.20307
20
-5.91475
11
5.20307
21
-5.88475
0
LINE
8
BLACK
6
CONTINUOUS
10
5.20307
20
-5.88475
11
5.19932
21
-5.87725
0
LINE
8
BLACK
6
CONTINUOUS
10
5.19932
20
-5.87725
11
5.19557
21
-5.8735
0
LINE
8
BLACK
6
CONTINUOUS
10
5.19557
20
-5.8735
11
5.18807
21
-5.86975
0
LINE
8
BLACK
6
CONTINUOUS
10
5.18807
20
-5.86975
11
5.17307
21
-5.86975
0
LINE
8
BLACK
6
CONTINUOUS
10
5.17307
20
-5.86975
11
5.16557
21
-5.8735
0
LINE
8
BLACK
6
CONTINUOUS
10
5.16557
20
-5.8735
11
5.16182
21
-5.87725
0
LINE
8
BLACK
6
CONTINUOUS
10
5.16182
20
-5.87725
11
5.15807
21
-5.88475
0
LINE
8
BLACK
6
CONTINUOUS
10
5.15807
20
-5.88475
11
5.15807
21
-5.9035
0
LINE
8
BLACK
6
CONTINUOUS
10
5.15807
20
-5.9035
11
5.16182
21
-5.911
0
LINE
8
BLACK
6
CONTINUOUS
10
5.16182
20
-5.911
11
5.16557
21
-5.91475
0
LINE
8
BLACK
6
CONTINUOUS
10
5.16557
20
-5.91475
11
5.17307
21
-5.9185
0
LINE
8
BLACK
6
CONTINUOUS
10
5.17307
20
-5.9185
11
5.18807
21
-5.9185
0
LINE
8
BLACK
6
CONTINUOUS
10
5.18807
20
-5.9185
11
5.19557
21
-5.91475
0
LINE
8
BLACK
6
CONTINUOUS
10
5.19557
20
-5.91475
11
5.19932
21
-5.911
0
LINE
8
BLACK
6
CONTINUOUS
10
5.19932
20
-5.911
11
5.20307
21
-5.9035
0
LINE
8
BLACK
6
CONTINUOUS
10
5.23306
20
-5.86975
11
5.23306
21
-5.88475
0
LINE
8
BLACK
6
CONTINUOUS
10
5.26306
20
-5.86975
11
5.26306
21
-5.88475
0
LINE
8
BLACK
6
CONTINUOUS
10
5.37929
20
-5.97849
11
5.37554
21
-5.97474
0
LINE
8
BLACK
6
CONTINUOUS
10
5.37554
20
-5.97474
11
5.36804
21
-5.96349
0
LINE
8
BLACK
6
CONTINUOUS
10
5.36804
20
-5.96349
11
5.3643
21
-5.95599
0
LINE
8
BLACK
6
CONTINUOUS
10
5.3643
20
-5.95599
11
5.36055
21
-5.94475
0
LINE
8
BLACK
6
CONTINUOUS
10
5.36055
20
-5.94475
11
5.3568
21
-5.926
0
LINE
8
BLACK
6
CONTINUOUS
10
5.3568
20
-5.926
11
5.3568
21
-5.911
0
LINE
8
BLACK
6
CONTINUOUS
10
5.3568
20
-5.911
11
5.36055
21
-5.89225
0
LINE
8
BLACK
6
CONTINUOUS
10
5.36055
20
-5.89225
11
5.3643
21
-5.881
0
LINE
8
BLACK
6
CONTINUOUS
10
5.3643
20
-5.881
11
5.36804
21
-5.8735
0
LINE
8
BLACK
6
CONTINUOUS
10
5.36804
20
-5.8735
11
5.37554
21
-5.86226
0
LINE
8
BLACK
6
CONTINUOUS
10
5.37554
20
-5.86226
11
5.37929
21
-5.85851
0
LINE
8
BLACK
6
CONTINUOUS
10
5.44304
20
-5.86975
11
5.42804
21
-5.86975
0
LINE
8
BLACK
6
CONTINUOUS
10
5.42804
20
-5.86975
11
5.42054
21
-5.8735
0
LINE
8
BLACK
6
CONTINUOUS
10
5.42054
20
-5.8735
11
5.41679
21
-5.87725
0
LINE
8
BLACK
6
CONTINUOUS
10
5.41679
20
-5.87725
11
5.40929
21
-5.8885
0
LINE
8
BLACK
6
CONTINUOUS
10
5.40929
20
-5.8885
11
5.40554
21
-5.9035
0
LINE
8
BLACK
6
CONTINUOUS
10
5.40554
20
-5.9035
11
5.40554
21
-5.9335
0
LINE
8
BLACK
6
CONTINUOUS
10
5.40554
20
-5.9335
11
5.40929
21
-5.941
0
LINE
8
BLACK
6
CONTINUOUS
10
5.40929
20
-5.941
11
5.41304
21
-5.94475
0
LINE
8
BLACK
6
CONTINUOUS
10
5.41304
20
-5.94475
11
5.42054
21
-5.94849
0
LINE
8
BLACK
6
CONTINUOUS
10
5.42054
20
-5.94849
11
5.43554
21
-5.94849
0
LINE
8
BLACK
6
CONTINUOUS
10
5.43554
20
-5.94849
11
5.44304
21
-5.94475
0
LINE
8
BLACK
6
CONTINUOUS
10
5.44304
20
-5.94475
11
5.44678
21
-5.941
0
LINE
8
BLACK
6
CONTINUOUS
10
5.44678
20
-5.941
11
5.45053
21
-5.9335
0
LINE
8
BLACK
6
CONTINUOUS
10
5.45053
20
-5.9335
11
5.45053
21
-5.91475
0
LINE
8
BLACK
6
CONTINUOUS
10
5.45053
20
-5.91475
11
5.44678
21
-5.90725
0
LINE
8
BLACK
6
CONTINUOUS
10
5.44678
20
-5.90725
11
5.44304
21
-5.9035
0
LINE
8
BLACK
6
CONTINUOUS
10
5.44304
20
-5.9035
11
5.43554
21
-5.89975
0
LINE
8
BLACK
6
CONTINUOUS
10
5.43554
20
-5.89975
11
5.42054
21
-5.89975
0
LINE
8
BLACK
6
CONTINUOUS
10
5.42054
20
-5.89975
11
5.41304
21
-5.9035
0
LINE
8
BLACK
6
CONTINUOUS
10
5.41304
20
-5.9035
11
5.40929
21
-5.90725
0
LINE
8
BLACK
6
CONTINUOUS
10
5.40929
20
-5.90725
11
5.40554
21
-5.91475
0
LINE
8
BLACK
6
CONTINUOUS
10
5.54427
20
-5.94849
11
5.54427
21
-5.86975
0
LINE
8
BLACK
6
CONTINUOUS
10
5.57802
20
-5.94849
11
5.57802
21
-5.90725
0
LINE
8
BLACK
6
CONTINUOUS
10
5.57802
20
-5.90725
11
5.57427
21
-5.89975
0
LINE
8
BLACK
6
CONTINUOUS
10
5.57427
20
-5.89975
11
5.56677
21
-5.896
0
LINE
8
BLACK
6
CONTINUOUS
10
5.56677
20
-5.896
11
5.55552
21
-5.896
0
LINE
8
BLACK
6
CONTINUOUS
10
5.55552
20
-5.896
11
5.54802
21
-5.89975
0
LINE
8
BLACK
6
CONTINUOUS
10
5.54802
20
-5.89975
11
5.54427
21
-5.9035
0
LINE
8
BLACK
6
CONTINUOUS
10
5.62676
20
-5.94849
11
5.61926
21
-5.94475
0
LINE
8
BLACK
6
CONTINUOUS
10
5.61926
20
-5.94475
11
5.61551
21
-5.941
0
LINE
8
BLACK
6
CONTINUOUS
10
5.61551
20
-5.941
11
5.61176
21
-5.9335
0
LINE
8
BLACK
6
CONTINUOUS
10
5.61176
20
-5.9335
11
5.61176
21
-5.911
0
LINE
8
BLACK
6
CONTINUOUS
10
5.61176
20
-5.911
11
5.61551
21
-5.9035
0
LINE
8
BLACK
6
CONTINUOUS
10
5.61551
20
-5.9035
11
5.61926
21
-5.89975
0
LINE
8
BLACK
6
CONTINUOUS
10
5.61926
20
-5.89975
11
5.62676
21
-5.896
0
LINE
8
BLACK
6
CONTINUOUS
10
5.62676
20
-5.896
11
5.63801
21
-5.896
0
LINE
8
BLACK
6
CONTINUOUS
10
5.63801
20
-5.896
11
5.64551
21
-5.89975
0
LINE
8
BLACK
6
CONTINUOUS
10
5.64551
20
-5.89975
11
5.64926
21
-5.9035
0
LINE
8
BLACK
6
CONTINUOUS
10
5.64926
20
-5.9035
11
5.65301
21
-5.911
0
LINE
8
BLACK
6
CONTINUOUS
10
5.65301
20
-5.911
11
5.65301
21
-5.9335
0
LINE
8
BLACK
6
CONTINUOUS
10
5.65301
20
-5.9335
11
5.64926
21
-5.941
0
LINE
8
BLACK
6
CONTINUOUS
10
5.64926
20
-5.941
11
5.64551
21
-5.94475
0
LINE
8
BLACK
6
CONTINUOUS
10
5.64551
20
-5.94475
11
5.63801
21
-5.94849
0
LINE
8
BLACK
6
CONTINUOUS
10
5.63801
20
-5.94849
11
5.62676
21
-5.94849
0
LINE
8
BLACK
6
CONTINUOUS
10
5.698
20
-5.94849
11
5.6905
21
-5.94475
0
LINE
8
BLACK
6
CONTINUOUS
10
5.6905
20
-5.94475
11
5.68675
21
-5.93725
0
LINE
8
BLACK
6
CONTINUOUS
10
5.68675
20
-5.93725
11
5.68675
21
-5.86975
0
LINE
8
BLACK
6
CONTINUOUS
10
5.758
20
-5.94475
11
5.7505
21
-5.94849
0
LINE
8
BLACK
6
CONTINUOUS
10
5.7505
20
-5.94849
11
5.7355
21
-5.94849
0
LINE
8
BLACK
6
CONTINUOUS
10
5.7355
20
-5.94849
11
5.728
21
-5.94475
0
LINE
8
BLACK
6
CONTINUOUS
10
5.728
20
-5.94475
11
5.72425
21
-5.93725
0
LINE
8
BLACK
6
CONTINUOUS
10
5.72425
20
-5.93725
11
5.72425
21
-5.90725
0
LINE
8
BLACK
6
CONTINUOUS
10
5.72425
20
-5.90725
11
5.728
21
-5.89975
0
LINE
8
BLACK
6
CONTINUOUS
10
5.728
20
-5.89975
11
5.7355
21
-5.896
0
LINE
8
BLACK
6
CONTINUOUS
10
5.7355
20
-5.896
11
5.7505
21
-5.896
0
LINE
8
BLACK
6
CONTINUOUS
10
5.7505
20
-5.896
11
5.758
21
-5.89975
0
LINE
8
BLACK
6
CONTINUOUS
10
5.758
20
-5.89975
11
5.76175
21
-5.90725
0
LINE
8
BLACK
6
CONTINUOUS
10
5.76175
20
-5.90725
11
5.76175
21
-5.91475
0
LINE
8
BLACK
6
CONTINUOUS
10
5.76175
20
-5.91475
11
5.72425
21
-5.92225
0
LINE
8
BLACK
6
CONTINUOUS
10
5.79174
20
-5.94475
11
5.79924
21
-5.94849
0
LINE
8
BLACK
6
CONTINUOUS
10
5.79924
20
-5.94849
11
5.81424
21
-5.94849
0
LINE
8
BLACK
6
CONTINUOUS
10
5.81424
20
-5.94849
11
5.82174
21
-5.94475
0
LINE
8
BLACK
6
CONTINUOUS
10
5.82174
20
-5.94475
11
5.82549
21
-5.93725
0
LINE
8
BLACK
6
CONTINUOUS
10
5.82549
20
-5.93725
11
5.82549
21
-5.9335
0
LINE
8
BLACK
6
CONTINUOUS
10
5.82549
20
-5.9335
11
5.82174
21
-5.926
0
LINE
8
BLACK
6
CONTINUOUS
10
5.82174
20
-5.926
11
5.81424
21
-5.92225
0
LINE
8
BLACK
6
CONTINUOUS
10
5.81424
20
-5.92225
11
5.80299
21
-5.92225
0
LINE
8
BLACK
6
CONTINUOUS
10
5.80299
20
-5.92225
11
5.79549
21
-5.9185
0
LINE
8
BLACK
6
CONTINUOUS
10
5.79549
20
-5.9185
11
5.79174
21
-5.911
0
LINE
8
BLACK
6
CONTINUOUS
10
5.79174
20
-5.911
11
5.79174
21
-5.90725
0
LINE
8
BLACK
6
CONTINUOUS
10
5.79174
20
-5.90725
11
5.79549
21
-5.89975
0
LINE
8
BLACK
6
CONTINUOUS
10
5.79549
20
-5.89975
11
5.80299
21
-5.896
0
LINE
8
BLACK
6
CONTINUOUS
10
5.80299
20
-5.896
11
5.81424
21
-5.896
0
LINE
8
BLACK
6
CONTINUOUS
10
5.81424
20
-5.896
11
5.82174
21
-5.89975
0
LINE
8
BLACK
6
CONTINUOUS
10
5.85173
20
-5.97849
11
5.85548
21
-5.97474
0
LINE
8
BLACK
6
CONTINUOUS
10
5.85548
20
-5.97474
11
5.86298
21
-5.96349
0
LINE
8
BLACK
6
CONTINUOUS
10
5.86298
20
-5.96349
11
5.86673
21
-5.95599
0
LINE
8
BLACK
6
CONTINUOUS
10
5.86673
20
-5.95599
11
5.87048
21
-5.94475
0
LINE
8
BLACK
6
CONTINUOUS
10
5.87048
20
-5.94475
11
5.87423
21
-5.926
0
LINE
8
BLACK
6
CONTINUOUS
10
5.87423
20
-5.926
11
5.87423
21
-5.911
0
LINE
8
BLACK
6
CONTINUOUS
10
5.87423
20
-5.911
11
5.87048
21
-5.89225
0
LINE
8
BLACK
6
CONTINUOUS
10
5.87048
20
-5.89225
11
5.86673
21
-5.881
0
LINE
8
BLACK
6
CONTINUOUS
10
5.86673
20
-5.881
11
5.86298
21
-5.8735
0
LINE
8
BLACK
6
CONTINUOUS
10
5.86298
20
-5.8735
11
5.85548
21
-5.86226
0
LINE
8
BLACK
6
CONTINUOUS
10
5.85548
20
-5.86226
11
5.85173
21
-5.85851
0
LINE
8
BLACK
6
CONTINUOUS
10
3.95728
20
-6.00106
11
3.95728
21
-6.03256
0
LINE
8
BLACK
6
CONTINUOUS
10
3.94154
20
-6.01681
11
3.97303
21
-6.01681
0
LINE
8
BLACK
6
CONTINUOUS
10
4.08945
20
-5.97369
11
4.09695
21
-5.97369
0
LINE
8
BLACK
6
CONTINUOUS
10
4.09695
20
-5.97369
11
4.10445
21
-5.97744
0
LINE
8
BLACK
6
CONTINUOUS
10
4.10445
20
-5.97744
11
4.1082
21
-5.98119
0
LINE
8
BLACK
6
CONTINUOUS
10
4.1082
20
-5.98119
11
4.11195
21
-5.98869
0
LINE
8
BLACK
6
CONTINUOUS
10
4.11195
20
-5.98869
11
4.1157
21
-6.00369
0
LINE
8
BLACK
6
CONTINUOUS
10
4.1157
20
-6.00369
11
4.1157
21
-6.02244
0
LINE
8
BLACK
6
CONTINUOUS
10
4.1157
20
-6.02244
11
4.11195
21
-6.03743
0
LINE
8
BLACK
6
CONTINUOUS
10
4.11195
20
-6.03743
11
4.1082
21
-6.04493
0
LINE
8
BLACK
6
CONTINUOUS
10
4.1082
20
-6.04493
11
4.10445
21
-6.04868
0
LINE
8
BLACK
6
CONTINUOUS
10
4.10445
20
-6.04868
11
4.09695
21
-6.05243
0
LINE
8
BLACK
6
CONTINUOUS
10
4.09695
20
-6.05243
11
4.08945
21
-6.05243
0
LINE
8
BLACK
6
CONTINUOUS
10
4.08945
20
-6.05243
11
4.08196
21
-6.04868
0
LINE
8
BLACK
6
CONTINUOUS
10
4.08196
20
-6.04868
11
4.07821
21
-6.04493
0
LINE
8
BLACK
6
CONTINUOUS
10
4.07821
20
-6.04493
11
4.07446
21
-6.03743
0
LINE
8
BLACK
6
CONTINUOUS
10
4.07446
20
-6.03743
11
4.07071
21
-6.02244
0
LINE
8
BLACK
6
CONTINUOUS
10
4.07071
20
-6.02244
11
4.07071
21
-6.00369
0
LINE
8
BLACK
6
CONTINUOUS
10
4.07071
20
-6.00369
11
4.07446
21
-5.98869
0
LINE
8
BLACK
6
CONTINUOUS
10
4.07446
20
-5.98869
11
4.07821
21
-5.98119
0
LINE
8
BLACK
6
CONTINUOUS
10
4.07821
20
-5.98119
11
4.08196
21
-5.97744
0
LINE
8
BLACK
6
CONTINUOUS
10
4.08196
20
-5.97744
11
4.08945
21
-5.97369
0
LINE
8
BLACK
6
CONTINUOUS
10
4.14945
20
-6.04493
11
4.1532
21
-6.04868
0
LINE
8
BLACK
6
CONTINUOUS
10
4.1532
20
-6.04868
11
4.14945
21
-6.05243
0
LINE
8
BLACK
6
CONTINUOUS
10
4.14945
20
-6.05243
11
4.1457
21
-6.04868
0
LINE
8
BLACK
6
CONTINUOUS
10
4.1457
20
-6.04868
11
4.14945
21
-6.04493
0
LINE
8
BLACK
6
CONTINUOUS
10
4.14945
20
-6.04493
11
4.14945
21
-6.05243
0
LINE
8
BLACK
6
CONTINUOUS
10
4.19819
20
-6.00744
11
4.19069
21
-6.00369
0
LINE
8
BLACK
6
CONTINUOUS
10
4.19069
20
-6.00369
11
4.18694
21
-5.99994
0
LINE
8
BLACK
6
CONTINUOUS
10
4.18694
20
-5.99994
11
4.18319
21
-5.99244
0
LINE
8
BLACK
6
CONTINUOUS
10
4.18319
20
-5.99244
11
4.18319
21
-5.98869
0
LINE
8
BLACK
6
CONTINUOUS
10
4.18319
20
-5.98869
11
4.18694
21
-5.98119
0
LINE
8
BLACK
6
CONTINUOUS
10
4.18694
20
-5.98119
11
4.19069
21
-5.97744
0
LINE
8
BLACK
6
CONTINUOUS
10
4.19069
20
-5.97744
11
4.19819
21
-5.97369
0
LINE
8
BLACK
6
CONTINUOUS
10
4.19819
20
-5.97369
11
4.21319
21
-5.97369
0
LINE
8
BLACK
6
CONTINUOUS
10
4.21319
20
-5.97369
11
4.22069
21
-5.97744
0
LINE
8
BLACK
6
CONTINUOUS
10
4.22069
20
-5.97744
11
4.22444
21
-5.98119
0
LINE
8
BLACK
6
CONTINUOUS
10
4.22444
20
-5.98119
11
4.22819
21
-5.98869
0
LINE
8
BLACK
6
CONTINUOUS
10
4.22819
20
-5.98869
11
4.22819
21
-5.99244
0
LINE
8
BLACK
6
CONTINUOUS
10
4.22819
20
-5.99244
11
4.22444
21
-5.99994
0
LINE
8
BLACK
6
CONTINUOUS
10
4.22444
20
-5.99994
11
4.22069
21
-6.00369
0
LINE
8
BLACK
6
CONTINUOUS
10
4.22069
20
-6.00369
11
4.21319
21
-6.00744
0
LINE
8
BLACK
6
CONTINUOUS
10
4.21319
20
-6.00744
11
4.19819
21
-6.00744
0
LINE
8
BLACK
6
CONTINUOUS
10
4.19819
20
-6.00744
11
4.19069
21
-6.01119
0
LINE
8
BLACK
6
CONTINUOUS
10
4.19069
20
-6.01119
11
4.18694
21
-6.01494
0
LINE
8
BLACK
6
CONTINUOUS
10
4.18694
20
-6.01494
11
4.18319
21
-6.02244
0
LINE
8
BLACK
6
CONTINUOUS
10
4.18319
20
-6.02244
11
4.18319
21
-6.03743
0
LINE
8
BLACK
6
CONTINUOUS
10
4.18319
20
-6.03743
11
4.18694
21
-6.04493
0
LINE
8
BLACK
6
CONTINUOUS
10
4.18694
20
-6.04493
11
4.19069
21
-6.04868
0
LINE
8
BLACK
6
CONTINUOUS
10
4.19069
20
-6.04868
11
4.19819
21
-6.05243
0
LINE
8
BLACK
6
CONTINUOUS
10
4.19819
20
-6.05243
11
4.21319
21
-6.05243
0
LINE
8
BLACK
6
CONTINUOUS
10
4.21319
20
-6.05243
11
4.22069
21
-6.04868
0
LINE
8
BLACK
6
CONTINUOUS
10
4.22069
20
-6.04868
11
4.22444
21
-6.04493
0
LINE
8
BLACK
6
CONTINUOUS
10
4.22444
20
-6.04493
11
4.22819
21
-6.03743
0
LINE
8
BLACK
6
CONTINUOUS
10
4.22819
20
-6.03743
11
4.22819
21
-6.02244
0
LINE
8
BLACK
6
CONTINUOUS
10
4.22819
20
-6.02244
11
4.22444
21
-6.01494
0
LINE
8
BLACK
6
CONTINUOUS
10
4.22444
20
-6.01494
11
4.22069
21
-6.01119
0
LINE
8
BLACK
6
CONTINUOUS
10
4.22069
20
-6.01119
11
4.21319
21
-6.00744
0
LINE
8
BLACK
6
CONTINUOUS
10
4.27693
20
-5.97369
11
4.28443
21
-5.97369
0
LINE
8
BLACK
6
CONTINUOUS
10
4.28443
20
-5.97369
11
4.29193
21
-5.97744
0
LINE
8
BLACK
6
CONTINUOUS
10
4.29193
20
-5.97744
11
4.29568
21
-5.98119
0
LINE
8
BLACK
6
CONTINUOUS
10
4.29568
20
-5.98119
11
4.29943
21
-5.98869
0
LINE
8
BLACK
6
CONTINUOUS
10
4.29943
20
-5.98869
11
4.30318
21
-6.00369
0
LINE
8
BLACK
6
CONTINUOUS
10
4.30318
20
-6.00369
11
4.30318
21
-6.02244
0
LINE
8
BLACK
6
CONTINUOUS
10
4.30318
20
-6.02244
11
4.29943
21
-6.03743
0
LINE
8
BLACK
6
CONTINUOUS
10
4.29943
20
-6.03743
11
4.29568
21
-6.04493
0
LINE
8
BLACK
6
CONTINUOUS
10
4.29568
20
-6.04493
11
4.29193
21
-6.04868
0
LINE
8
BLACK
6
CONTINUOUS
10
4.29193
20
-6.04868
11
4.28443
21
-6.05243
0
LINE
8
BLACK
6
CONTINUOUS
10
4.28443
20
-6.05243
11
4.27693
21
-6.05243
0
LINE
8
BLACK
6
CONTINUOUS
10
4.27693
20
-6.05243
11
4.26943
21
-6.04868
0
LINE
8
BLACK
6
CONTINUOUS
10
4.26943
20
-6.04868
11
4.26568
21
-6.04493
0
LINE
8
BLACK
6
CONTINUOUS
10
4.26568
20
-6.04493
11
4.26193
21
-6.03743
0
LINE
8
BLACK
6
CONTINUOUS
10
4.26193
20
-6.03743
11
4.25818
21
-6.02244
0
LINE
8
BLACK
6
CONTINUOUS
10
4.25818
20
-6.02244
11
4.25818
21
-6.00369
0
LINE
8
BLACK
6
CONTINUOUS
10
4.25818
20
-6.00369
11
4.26193
21
-5.98869
0
LINE
8
BLACK
6
CONTINUOUS
10
4.26193
20
-5.98869
11
4.26568
21
-5.98119
0
LINE
8
BLACK
6
CONTINUOUS
10
4.26568
20
-5.98119
11
4.26943
21
-5.97744
0
LINE
8
BLACK
6
CONTINUOUS
10
4.26943
20
-5.97744
11
4.27693
21
-5.97369
0
LINE
8
BLACK
6
CONTINUOUS
10
4.35192
20
-5.97369
11
4.35942
21
-5.97369
0
LINE
8
BLACK
6
CONTINUOUS
10
4.35942
20
-5.97369
11
4.36692
21
-5.97744
0
LINE
8
BLACK
6
CONTINUOUS
10
4.36692
20
-5.97744
11
4.37067
21
-5.98119
0
LINE
8
BLACK
6
CONTINUOUS
10
4.37067
20
-5.98119
11
4.37442
21
-5.98869
0
LINE
8
BLACK
6
CONTINUOUS
10
4.37442
20
-5.98869
11
4.37817
21
-6.00369
0
LINE
8
BLACK
6
CONTINUOUS
10
4.37817
20
-6.00369
11
4.37817
21
-6.02244
0
LINE
8
BLACK
6
CONTINUOUS
10
4.37817
20
-6.02244
11
4.37442
21
-6.03743
0
LINE
8
BLACK
6
CONTINUOUS
10
4.37442
20
-6.03743
11
4.37067
21
-6.04493
0
LINE
8
BLACK
6
CONTINUOUS
10
4.37067
20
-6.04493
11
4.36692
21
-6.04868
0
LINE
8
BLACK
6
CONTINUOUS
10
4.36692
20
-6.04868
11
4.35942
21
-6.05243
0
LINE
8
BLACK
6
CONTINUOUS
10
4.35942
20
-6.05243
11
4.35192
21
-6.05243
0
LINE
8
BLACK
6
CONTINUOUS
10
4.35192
20
-6.05243
11
4.34442
21
-6.04868
0
LINE
8
BLACK
6
CONTINUOUS
10
4.34442
20
-6.04868
11
4.34067
21
-6.04493
0
LINE
8
BLACK
6
CONTINUOUS
10
4.34067
20
-6.04493
11
4.33692
21
-6.03743
0
LINE
8
BLACK
6
CONTINUOUS
10
4.33692
20
-6.03743
11
4.33317
21
-6.02244
0
LINE
8
BLACK
6
CONTINUOUS
10
4.33317
20
-6.02244
11
4.33317
21
-6.00369
0
LINE
8
BLACK
6
CONTINUOUS
10
4.33317
20
-6.00369
11
4.33692
21
-5.98869
0
LINE
8
BLACK
6
CONTINUOUS
10
4.33692
20
-5.98869
11
4.34067
21
-5.98119
0
LINE
8
BLACK
6
CONTINUOUS
10
4.34067
20
-5.98119
11
4.34442
21
-5.97744
0
LINE
8
BLACK
6
CONTINUOUS
10
4.34442
20
-5.97744
11
4.35192
21
-5.97369
0
LINE
8
BLACK
6
CONTINUOUS
10
4.41191
20
-6.05243
11
4.41191
21
-5.99994
0
LINE
8
BLACK
6
CONTINUOUS
10
4.41191
20
-6.00744
11
4.41566
21
-6.00369
0
LINE
8
BLACK
6
CONTINUOUS
10
4.41566
20
-6.00369
11
4.42316
21
-5.99994
0
LINE
8
BLACK
6
CONTINUOUS
10
4.42316
20
-5.99994
11
4.43441
21
-5.99994
0
LINE
8
BLACK
6
CONTINUOUS
10
4.43441
20
-5.99994
11
4.44191
21
-6.00369
0
LINE
8
BLACK
6
CONTINUOUS
10
4.44191
20
-6.00369
11
4.44566
21
-6.01119
0
LINE
8
BLACK
6
CONTINUOUS
10
4.44566
20
-6.01119
11
4.44566
21
-6.05243
0
LINE
8
BLACK
6
CONTINUOUS
10
4.44566
20
-6.01119
11
4.44941
21
-6.00369
0
LINE
8
BLACK
6
CONTINUOUS
10
4.44941
20
-6.00369
11
4.45691
21
-5.99994
0
LINE
8
BLACK
6
CONTINUOUS
10
4.45691
20
-5.99994
11
4.46816
21
-5.99994
0
LINE
8
BLACK
6
CONTINUOUS
10
4.46816
20
-5.99994
11
4.47566
21
-6.00369
0
LINE
8
BLACK
6
CONTINUOUS
10
4.47566
20
-6.00369
11
4.47941
21
-6.01119
0
LINE
8
BLACK
6
CONTINUOUS
10
4.47941
20
-6.01119
11
4.47941
21
-6.05243
0
LINE
8
BLACK
6
CONTINUOUS
10
4.5169
20
-6.05243
11
4.5169
21
-5.99994
0
LINE
8
BLACK
6
CONTINUOUS
10
4.5169
20
-6.00744
11
4.52065
21
-6.00369
0
LINE
8
BLACK
6
CONTINUOUS
10
4.52065
20
-6.00369
11
4.52815
21
-5.99994
0
LINE
8
BLACK
6
CONTINUOUS
10
4.52815
20
-5.99994
11
4.5394
21
-5.99994
0
LINE
8
BLACK
6
CONTINUOUS
10
4.5394
20
-5.99994
11
4.5469
21
-6.00369
0
LINE
8
BLACK
6
CONTINUOUS
10
4.5469
20
-6.00369
11
4.55065
21
-6.01119
0
LINE
8
BLACK
6
CONTINUOUS
10
4.55065
20
-6.01119
11
4.55065
21
-6.05243
0
LINE
8
BLACK
6
CONTINUOUS
10
4.55065
20
-6.01119
11
4.5544
21
-6.00369
0
LINE
8
BLACK
6
CONTINUOUS
10
4.5544
20
-6.00369
11
4.5619
21
-5.99994
0
LINE
8
BLACK
6
CONTINUOUS
10
4.5619
20
-5.99994
11
4.57314
21
-5.99994
0
LINE
8
BLACK
6
CONTINUOUS
10
4.57314
20
-5.99994
11
4.58064
21
-6.00369
0
LINE
8
BLACK
6
CONTINUOUS
10
4.58064
20
-6.00369
11
4.58439
21
-6.01119
0
LINE
8
BLACK
6
CONTINUOUS
10
4.58439
20
-6.01119
11
4.58439
21
-6.05243
0
LINE
8
BLACK
6
CONTINUOUS
10
4.73812
20
-5.96994
11
4.67063
21
-6.07118
0
LINE
8
BLACK
6
CONTINUOUS
10
4.83936
20
-5.97369
11
4.84686
21
-5.97369
0
LINE
8
BLACK
6
CONTINUOUS
10
4.84686
20
-5.97369
11
4.85436
21
-5.97744
0
LINE
8
BLACK
6
CONTINUOUS
10
4.85436
20
-5.97744
11
4.85811
21
-5.98119
0
LINE
8
BLACK
6
CONTINUOUS
10
4.85811
20
-5.98119
11
4.86186
21
-5.98869
0
LINE
8
BLACK
6
CONTINUOUS
10
4.86186
20
-5.98869
11
4.86561
21
-6.00369
0
LINE
8
BLACK
6
CONTINUOUS
10
4.86561
20
-6.00369
11
4.86561
21
-6.02244
0
LINE
8
BLACK
6
CONTINUOUS
10
4.86561
20
-6.02244
11
4.86186
21
-6.03743
0
LINE
8
BLACK
6
CONTINUOUS
10
4.86186
20
-6.03743
11
4.85811
21
-6.04493
0
LINE
8
BLACK
6
CONTINUOUS
10
4.85811
20
-6.04493
11
4.85436
21
-6.04868
0
LINE
8
BLACK
6
CONTINUOUS
10
4.85436
20
-6.04868
11
4.84686
21
-6.05243
0
LINE
8
BLACK
6
CONTINUOUS
10
4.84686
20
-6.05243
11
4.83936
21
-6.05243
0
LINE
8
BLACK
6
CONTINUOUS
10
4.83936
20
-6.05243
11
4.83186
21
-6.04868
0
LINE
8
BLACK
6
CONTINUOUS
10
4.83186
20
-6.04868
11
4.82811
21
-6.04493
0
LINE
8
BLACK
6
CONTINUOUS
10
4.82811
20
-6.04493
11
4.82436
21
-6.03743
0
LINE
8
BLACK
6
CONTINUOUS
10
4.82436
20
-6.03743
11
4.82061
21
-6.02244
0
LINE
8
BLACK
6
CONTINUOUS
10
4.82061
20
-6.02244
11
4.82061
21
-6.00369
0
LINE
8
BLACK
6
CONTINUOUS
10
4.82061
20
-6.00369
11
4.82436
21
-5.98869
0
LINE
8
BLACK
6
CONTINUOUS
10
4.82436
20
-5.98869
11
4.82811
21
-5.98119
0
LINE
8
BLACK
6
CONTINUOUS
10
4.82811
20
-5.98119
11
4.83186
21
-5.97744
0
LINE
8
BLACK
6
CONTINUOUS
10
4.83186
20
-5.97744
11
4.83936
21
-5.97369
0
LINE
8
BLACK
6
CONTINUOUS
10
4.89935
20
-6.04493
11
4.9031
21
-6.04868
0
LINE
8
BLACK
6
CONTINUOUS
10
4.9031
20
-6.04868
11
4.89935
21
-6.05243
0
LINE
8
BLACK
6
CONTINUOUS
10
4.89935
20
-6.05243
11
4.8956
21
-6.04868
0
LINE
8
BLACK
6
CONTINUOUS
10
4.8956
20
-6.04868
11
4.89935
21
-6.04493
0
LINE
8
BLACK
6
CONTINUOUS
10
4.89935
20
-6.04493
11
4.89935
21
-6.05243
0
LINE
8
BLACK
6
CONTINUOUS
10
4.95185
20
-5.97369
11
4.95935
21
-5.97369
0
LINE
8
BLACK
6
CONTINUOUS
10
4.95935
20
-5.97369
11
4.96684
21
-5.97744
0
LINE
8
BLACK
6
CONTINUOUS
10
4.96684
20
-5.97744
11
4.97059
21
-5.98119
0
LINE
8
BLACK
6
CONTINUOUS
10
4.97059
20
-5.98119
11
4.97434
21
-5.98869
0
LINE
8
BLACK
6
CONTINUOUS
10
4.97434
20
-5.98869
11
4.97809
21
-6.00369
0
LINE
8
BLACK
6
CONTINUOUS
10
4.97809
20
-6.00369
11
4.97809
21
-6.02244
0
LINE
8
BLACK
6
CONTINUOUS
10
4.97809
20
-6.02244
11
4.97434
21
-6.03743
0
LINE
8
BLACK
6
CONTINUOUS
10
4.97434
20
-6.03743
11
4.97059
21
-6.04493
0
LINE
8
BLACK
6
CONTINUOUS
10
4.97059
20
-6.04493
11
4.96684
21
-6.04868
0
LINE
8
BLACK
6
CONTINUOUS
10
4.96684
20
-6.04868
11
4.95935
21
-6.05243
0
LINE
8
BLACK
6
CONTINUOUS
10
4.95935
20
-6.05243
11
4.95185
21
-6.05243
0
LINE
8
BLACK
6
CONTINUOUS
10
4.95185
20
-6.05243
11
4.94435
21
-6.04868
0
LINE
8
BLACK
6
CONTINUOUS
10
4.94435
20
-6.04868
11
4.9406
21
-6.04493
0
LINE
8
BLACK
6
CONTINUOUS
10
4.9406
20
-6.04493
11
4.93685
21
-6.03743
0
LINE
8
BLACK
6
CONTINUOUS
10
4.93685
20
-6.03743
11
4.9331
21
-6.02244
0
LINE
8
BLACK
6
CONTINUOUS
10
4.9331
20
-6.02244
11
4.9331
21
-6.00369
0
LINE
8
BLACK
6
CONTINUOUS
10
4.9331
20
-6.00369
11
4.93685
21
-5.98869
0
LINE
8
BLACK
6
CONTINUOUS
10
4.93685
20
-5.98869
11
4.9406
21
-5.98119
0
LINE
8
BLACK
6
CONTINUOUS
10
4.9406
20
-5.98119
11
4.94435
21
-5.97744
0
LINE
8
BLACK
6
CONTINUOUS
10
4.94435
20
-5.97744
11
4.95185
21
-5.97369
0
LINE
8
BLACK
6
CONTINUOUS
10
5.00434
20
-5.97369
11
5.05308
21
-5.97369
0
LINE
8
BLACK
6
CONTINUOUS
10
5.05308
20
-5.97369
11
5.02684
21
-6.00369
0
LINE
8
BLACK
6
CONTINUOUS
10
5.02684
20
-6.00369
11
5.03809
21
-6.00369
0
LINE
8
BLACK
6
CONTINUOUS
10
5.03809
20
-6.00369
11
5.04558
21
-6.00744
0
LINE
8
BLACK
6
CONTINUOUS
10
5.04558
20
-6.00744
11
5.04933
21
-6.01119
0
LINE
8
BLACK
6
CONTINUOUS
10
5.04933
20
-6.01119
11
5.05308
21
-6.01869
0
LINE
8
BLACK
6
CONTINUOUS
10
5.05308
20
-6.01869
11
5.05308
21
-6.03743
0
LINE
8
BLACK
6
CONTINUOUS
10
5.05308
20
-6.03743
11
5.04933
21
-6.04493
0
LINE
8
BLACK
6
CONTINUOUS
10
5.04933
20
-6.04493
11
5.04558
21
-6.04868
0
LINE
8
BLACK
6
CONTINUOUS
10
5.04558
20
-6.04868
11
5.03809
21
-6.05243
0
LINE
8
BLACK
6
CONTINUOUS
10
5.03809
20
-6.05243
11
5.01559
21
-6.05243
0
LINE
8
BLACK
6
CONTINUOUS
10
5.01559
20
-6.05243
11
5.00809
21
-6.04868
0
LINE
8
BLACK
6
CONTINUOUS
10
5.00809
20
-6.04868
11
5.00434
21
-6.04493
0
LINE
8
BLACK
6
CONTINUOUS
10
5.12807
20
-6.05243
11
5.08308
21
-6.05243
0
LINE
8
BLACK
6
CONTINUOUS
10
5.10558
20
-6.05243
11
5.10558
21
-5.97369
0
LINE
8
BLACK
6
CONTINUOUS
10
5.10558
20
-5.97369
11
5.09808
21
-5.98494
0
LINE
8
BLACK
6
CONTINUOUS
10
5.09808
20
-5.98494
11
5.09058
21
-5.99244
0
LINE
8
BLACK
6
CONTINUOUS
10
5.09058
20
-5.99244
11
5.08308
21
-5.99619
0
LINE
8
BLACK
6
CONTINUOUS
10
5.19932
20
-5.97369
11
5.16182
21
-5.97369
0
LINE
8
BLACK
6
CONTINUOUS
10
5.16182
20
-5.97369
11
5.15807
21
-6.01119
0
LINE
8
BLACK
6
CONTINUOUS
10
5.15807
20
-6.01119
11
5.16182
21
-6.00744
0
LINE
8
BLACK
6
CONTINUOUS
10
5.16182
20
-6.00744
11
5.16932
21
-6.00369
0
LINE
8
BLACK
6
CONTINUOUS
10
5.16932
20
-6.00369
11
5.18807
21
-6.00369
0
LINE
8
BLACK
6
CONTINUOUS
10
5.18807
20
-6.00369
11
5.19557
21
-6.00744
0
LINE
8
BLACK
6
CONTINUOUS
10
5.19557
20
-6.00744
11
5.19932
21
-6.01119
0
LINE
8
BLACK
6
CONTINUOUS
10
5.19932
20
-6.01119
11
5.20307
21
-6.01869
0
LINE
8
BLACK
6
CONTINUOUS
10
5.20307
20
-6.01869
11
5.20307
21
-6.03743
0
LINE
8
BLACK
6
CONTINUOUS
10
5.20307
20
-6.03743
11
5.19932
21
-6.04493
0
LINE
8
BLACK
6
CONTINUOUS
10
5.19932
20
-6.04493
11
5.19557
21
-6.04868
0
LINE
8
BLACK
6
CONTINUOUS
10
5.19557
20
-6.04868
11
5.18807
21
-6.05243
0
LINE
8
BLACK
6
CONTINUOUS
10
5.18807
20
-6.05243
11
5.16932
21
-6.05243
0
LINE
8
BLACK
6
CONTINUOUS
10
5.16932
20
-6.05243
11
5.16182
21
-6.04868
0
LINE
8
BLACK
6
CONTINUOUS
10
5.16182
20
-6.04868
11
5.15807
21
-6.04493
0
LINE
8
BLACK
6
CONTINUOUS
10
5.23306
20
-5.97369
11
5.23306
21
-5.98869
0
LINE
8
BLACK
6
CONTINUOUS
10
5.26306
20
-5.97369
11
5.26306
21
-5.98869
0
LINE
8
BLACK
6
CONTINUOUS
10
5.37929
20
-6.08243
11
5.37554
21
-6.07868
0
LINE
8
BLACK
6
CONTINUOUS
10
5.37554
20
-6.07868
11
5.36804
21
-6.06743
0
LINE
8
BLACK
6
CONTINUOUS
10
5.36804
20
-6.06743
11
5.3643
21
-6.05993
0
LINE
8
BLACK
6
CONTINUOUS
10
5.3643
20
-6.05993
11
5.36055
21
-6.04868
0
LINE
8
BLACK
6
CONTINUOUS
10
5.36055
20
-6.04868
11
5.3568
21
-6.02993
0
LINE
8
BLACK
6
CONTINUOUS
10
5.3568
20
-6.02993
11
5.3568
21
-6.01494
0
LINE
8
BLACK
6
CONTINUOUS
10
5.3568
20
-6.01494
11
5.36055
21
-5.99619
0
LINE
8
BLACK
6
CONTINUOUS
10
5.36055
20
-5.99619
11
5.3643
21
-5.98494
0
LINE
8
BLACK
6
CONTINUOUS
10
5.3643
20
-5.98494
11
5.36804
21
-5.97744
0
LINE
8
BLACK
6
CONTINUOUS
10
5.36804
20
-5.97744
11
5.37554
21
-5.96619
0
LINE
8
BLACK
6
CONTINUOUS
10
5.37554
20
-5.96619
11
5.37929
21
-5.96244
0
LINE
8
BLACK
6
CONTINUOUS
10
5.44304
20
-5.99994
11
5.44304
21
-6.05243
0
LINE
8
BLACK
6
CONTINUOUS
10
5.42429
20
-5.96994
11
5.40554
21
-6.02618
0
LINE
8
BLACK
6
CONTINUOUS
10
5.40554
20
-6.02618
11
5.45428
21
-6.02618
0
LINE
8
BLACK
6
CONTINUOUS
10
5.54427
20
-6.05243
11
5.54427
21
-5.97369
0
LINE
8
BLACK
6
CONTINUOUS
10
5.57802
20
-6.05243
11
5.57802
21
-6.01119
0
LINE
8
BLACK
6
CONTINUOUS
10
5.57802
20
-6.01119
11
5.57427
21
-6.00369
0
LINE
8
BLACK
6
CONTINUOUS
10
5.57427
20
-6.00369
11
5.56677
21
-5.99994
0
LINE
8
BLACK
6
CONTINUOUS
10
5.56677
20
-5.99994
11
5.55552
21
-5.99994
0
LINE
8
BLACK
6
CONTINUOUS
10
5.55552
20
-5.99994
11
5.54802
21
-6.00369
0
LINE
8
BLACK
6
CONTINUOUS
10
5.54802
20
-6.00369
11
5.54427
21
-6.00744
0
LINE
8
BLACK
6
CONTINUOUS
10
5.62676
20
-6.05243
11
5.61926
21
-6.04868
0
LINE
8
BLACK
6
CONTINUOUS
10
5.61926
20
-6.04868
11
5.61551
21
-6.04493
0
LINE
8
BLACK
6
CONTINUOUS
10
5.61551
20
-6.04493
11
5.61176
21
-6.03743
0
LINE
8
BLACK
6
CONTINUOUS
10
5.61176
20
-6.03743
11
5.61176
21
-6.01494
0
LINE
8
BLACK
6
CONTINUOUS
10
5.61176
20
-6.01494
11
5.61551
21
-6.00744
0
LINE
8
BLACK
6
CONTINUOUS
10
5.61551
20
-6.00744
11
5.61926
21
-6.00369
0
LINE
8
BLACK
6
CONTINUOUS
10
5.61926
20
-6.00369
11
5.62676
21
-5.99994
0
LINE
8
BLACK
6
CONTINUOUS
10
5.62676
20
-5.99994
11
5.63801
21
-5.99994
0
LINE
8
BLACK
6
CONTINUOUS
10
5.63801
20
-5.99994
11
5.64551
21
-6.00369
0
LINE
8
BLACK
6
CONTINUOUS
10
5.64551
20
-6.00369
11
5.64926
21
-6.00744
0
LINE
8
BLACK
6
CONTINUOUS
10
5.64926
20
-6.00744
11
5.65301
21
-6.01494
0
LINE
8
BLACK
6
CONTINUOUS
10
5.65301
20
-6.01494
11
5.65301
21
-6.03743
0
LINE
8
BLACK
6
CONTINUOUS
10
5.65301
20
-6.03743
11
5.64926
21
-6.04493
0
LINE
8
BLACK
6
CONTINUOUS
10
5.64926
20
-6.04493
11
5.64551
21
-6.04868
0
LINE
8
BLACK
6
CONTINUOUS
10
5.64551
20
-6.04868
11
5.63801
21
-6.05243
0
LINE
8
BLACK
6
CONTINUOUS
10
5.63801
20
-6.05243
11
5.62676
21
-6.05243
0
LINE
8
BLACK
6
CONTINUOUS
10
5.698
20
-6.05243
11
5.6905
21
-6.04868
0
LINE
8
BLACK
6
CONTINUOUS
10
5.6905
20
-6.04868
11
5.68675
21
-6.04118
0
LINE
8
BLACK
6
CONTINUOUS
10
5.68675
20
-6.04118
11
5.68675
21
-5.97369
0
LINE
8
BLACK
6
CONTINUOUS
10
5.758
20
-6.04868
11
5.7505
21
-6.05243
0
LINE
8
BLACK
6
CONTINUOUS
10
5.7505
20
-6.05243
11
5.7355
21
-6.05243
0
LINE
8
BLACK
6
CONTINUOUS
10
5.7355
20
-6.05243
11
5.728
21
-6.04868
0
LINE
8
BLACK
6
CONTINUOUS
10
5.728
20
-6.04868
11
5.72425
21
-6.04118
0
LINE
8
BLACK
6
CONTINUOUS
10
5.72425
20
-6.04118
11
5.72425
21
-6.01119
0
LINE
8
BLACK
6
CONTINUOUS
10
5.72425
20
-6.01119
11
5.728
21
-6.00369
0
LINE
8
BLACK
6
CONTINUOUS
10
5.728
20
-6.00369
11
5.7355
21
-5.99994
0
LINE
8
BLACK
6
CONTINUOUS
10
5.7355
20
-5.99994
11
5.7505
21
-5.99994
0
LINE
8
BLACK
6
CONTINUOUS
10
5.7505
20
-5.99994
11
5.758
21
-6.00369
0
LINE
8
BLACK
6
CONTINUOUS
10
5.758
20
-6.00369
11
5.76175
21
-6.01119
0
LINE
8
BLACK
6
CONTINUOUS
10
5.76175
20
-6.01119
11
5.76175
21
-6.01869
0
LINE
8
BLACK
6
CONTINUOUS
10
5.76175
20
-6.01869
11
5.72425
21
-6.02618
0
LINE
8
BLACK
6
CONTINUOUS
10
5.79174
20
-6.04868
11
5.79924
21
-6.05243
0
LINE
8
BLACK
6
CONTINUOUS
10
5.79924
20
-6.05243
11
5.81424
21
-6.05243
0
LINE
8
BLACK
6
CONTINUOUS
10
5.81424
20
-6.05243
11
5.82174
21
-6.04868
0
LINE
8
BLACK
6
CONTINUOUS
10
5.82174
20
-6.04868
11
5.82549
21
-6.04118
0
LINE
8
BLACK
6
CONTINUOUS
10
5.82549
20
-6.04118
11
5.82549
21
-6.03743
0
LINE
8
BLACK
6
CONTINUOUS
10
5.82549
20
-6.03743
11
5.82174
21
-6.02993
0
LINE
8
BLACK
6
CONTINUOUS
10
5.82174
20
-6.02993
11
5.81424
21
-6.02618
0
LINE
8
BLACK
6
CONTINUOUS
10
5.81424
20
-6.02618
11
5.80299
21
-6.02618
0
LINE
8
BLACK
6
CONTINUOUS
10
5.80299
20
-6.02618
11
5.79549
21
-6.02244
0
LINE
8
BLACK
6
CONTINUOUS
10
5.79549
20
-6.02244
11
5.79174
21
-6.01494
0
LINE
8
BLACK
6
CONTINUOUS
10
5.79174
20
-6.01494
11
5.79174
21
-6.01119
0
LINE
8
BLACK
6
CONTINUOUS
10
5.79174
20
-6.01119
11
5.79549
21
-6.00369
0
LINE
8
BLACK
6
CONTINUOUS
10
5.79549
20
-6.00369
11
5.80299
21
-5.99994
0
LINE
8
BLACK
6
CONTINUOUS
10
5.80299
20
-5.99994
11
5.81424
21
-5.99994
0
LINE
8
BLACK
6
CONTINUOUS
10
5.81424
20
-5.99994
11
5.82174
21
-6.00369
0
LINE
8
BLACK
6
CONTINUOUS
10
5.85173
20
-6.08243
11
5.85548
21
-6.07868
0
LINE
8
BLACK
6
CONTINUOUS
10
5.85548
20
-6.07868
11
5.86298
21
-6.06743
0
LINE
8
BLACK
6
CONTINUOUS
10
5.86298
20
-6.06743
11
5.86673
21
-6.05993
0
LINE
8
BLACK
6
CONTINUOUS
10
5.86673
20
-6.05993
11
5.87048
21
-6.04868
0
LINE
8
BLACK
6
CONTINUOUS
10
5.87048
20
-6.04868
11
5.87423
21
-6.02993
0
LINE
8
BLACK
6
CONTINUOUS
10
5.87423
20
-6.02993
11
5.87423
21
-6.01494
0
LINE
8
BLACK
6
CONTINUOUS
10
5.87423
20
-6.01494
11
5.87048
21
-5.99619
0
LINE
8
BLACK
6
CONTINUOUS
10
5.87048
20
-5.99619
11
5.86673
21
-5.98494
0
LINE
8
BLACK
6
CONTINUOUS
10
5.86673
20
-5.98494
11
5.86298
21
-5.97744
0
LINE
8
BLACK
6
CONTINUOUS
10
5.86298
20
-5.97744
11
5.85548
21
-5.96619
0
LINE
8
BLACK
6
CONTINUOUS
10
5.85548
20
-5.96619
11
5.85173
21
-5.96244
0
LINE
8
BLACK
6
CONTINUOUS
10
3.96732
20
-6.13453
11
3.96732
21
-6.10697
0
LINE
8
BLACK
6
CONTINUOUS
10
3.96732
20
-6.10697
11
3.93976
21
-6.10697
0
LINE
8
BLACK
6
CONTINUOUS
10
3.93976
20
-6.10697
11
3.93976
21
-6.13453
0
LINE
8
BLACK
6
CONTINUOUS
10
3.93976
20
-6.13453
11
3.96732
21
-6.13453
0
LINE
8
BLACK
6
CONTINUOUS
10
4.08945
20
-6.07763
11
4.09695
21
-6.07763
0
LINE
8
BLACK
6
CONTINUOUS
10
4.09695
20
-6.07763
11
4.10445
21
-6.08138
0
LINE
8
BLACK
6
CONTINUOUS
10
4.10445
20
-6.08138
11
4.1082
21
-6.08513
0
LINE
8
BLACK
6
CONTINUOUS
10
4.1082
20
-6.08513
11
4.11195
21
-6.09263
0
LINE
8
BLACK
6
CONTINUOUS
10
4.11195
20
-6.09263
11
4.1157
21
-6.10762
0
LINE
8
BLACK
6
CONTINUOUS
10
4.1157
20
-6.10762
11
4.1157
21
-6.12637
0
LINE
8
BLACK
6
CONTINUOUS
10
4.1157
20
-6.12637
11
4.11195
21
-6.14137
0
LINE
8
BLACK
6
CONTINUOUS
10
4.11195
20
-6.14137
11
4.1082
21
-6.14887
0
LINE
8
BLACK
6
CONTINUOUS
10
4.1082
20
-6.14887
11
4.10445
21
-6.15262
0
LINE
8
BLACK
6
CONTINUOUS
10
4.10445
20
-6.15262
11
4.09695
21
-6.15637
0
LINE
8
BLACK
6
CONTINUOUS
10
4.09695
20
-6.15637
11
4.08945
21
-6.15637
0
LINE
8
BLACK
6
CONTINUOUS
10
4.08945
20
-6.15637
11
4.08196
21
-6.15262
0
LINE
8
BLACK
6
CONTINUOUS
10
4.08196
20
-6.15262
11
4.07821
21
-6.14887
0
LINE
8
BLACK
6
CONTINUOUS
10
4.07821
20
-6.14887
11
4.07446
21
-6.14137
0
LINE
8
BLACK
6
CONTINUOUS
10
4.07446
20
-6.14137
11
4.07071
21
-6.12637
0
LINE
8
BLACK
6
CONTINUOUS
10
4.07071
20
-6.12637
11
4.07071
21
-6.10762
0
LINE
8
BLACK
6
CONTINUOUS
10
4.07071
20
-6.10762
11
4.07446
21
-6.09263
0
LINE
8
BLACK
6
CONTINUOUS
10
4.07446
20
-6.09263
11
4.07821
21
-6.08513
0
LINE
8
BLACK
6
CONTINUOUS
10
4.07821
20
-6.08513
11
4.08196
21
-6.08138
0
LINE
8
BLACK
6
CONTINUOUS
10
4.08196
20
-6.08138
11
4.08945
21
-6.07763
0
LINE
8
BLACK
6
CONTINUOUS
10
4.14945
20
-6.14887
11
4.1532
21
-6.15262
0
LINE
8
BLACK
6
CONTINUOUS
10
4.1532
20
-6.15262
11
4.14945
21
-6.15637
0
LINE
8
BLACK
6
CONTINUOUS
10
4.14945
20
-6.15637
11
4.1457
21
-6.15262
0
LINE
8
BLACK
6
CONTINUOUS
10
4.1457
20
-6.15262
11
4.14945
21
-6.14887
0
LINE
8
BLACK
6
CONTINUOUS
10
4.14945
20
-6.14887
11
4.14945
21
-6.15637
0
LINE
8
BLACK
6
CONTINUOUS
10
4.19069
20
-6.15637
11
4.20569
21
-6.15637
0
LINE
8
BLACK
6
CONTINUOUS
10
4.20569
20
-6.15637
11
4.21319
21
-6.15262
0
LINE
8
BLACK
6
CONTINUOUS
10
4.21319
20
-6.15262
11
4.21694
21
-6.14887
0
LINE
8
BLACK
6
CONTINUOUS
10
4.21694
20
-6.14887
11
4.22444
21
-6.13762
0
LINE
8
BLACK
6
CONTINUOUS
10
4.22444
20
-6.13762
11
4.22819
21
-6.12262
0
LINE
8
BLACK
6
CONTINUOUS
10
4.22819
20
-6.12262
11
4.22819
21
-6.09263
0
LINE
8
BLACK
6
CONTINUOUS
10
4.22819
20
-6.09263
11
4.22444
21
-6.08513
0
LINE
8
BLACK
6
CONTINUOUS
10
4.22444
20
-6.08513
11
4.22069
21
-6.08138
0
LINE
8
BLACK
6
CONTINUOUS
10
4.22069
20
-6.08138
11
4.21319
21
-6.07763
0
LINE
8
BLACK
6
CONTINUOUS
10
4.21319
20
-6.07763
11
4.19819
21
-6.07763
0
LINE
8
BLACK
6
CONTINUOUS
10
4.19819
20
-6.07763
11
4.19069
21
-6.08138
0
LINE
8
BLACK
6
CONTINUOUS
10
4.19069
20
-6.08138
11
4.18694
21
-6.08513
0
LINE
8
BLACK
6
CONTINUOUS
10
4.18694
20
-6.08513
11
4.18319
21
-6.09263
0
LINE
8
BLACK
6
CONTINUOUS
10
4.18319
20
-6.09263
11
4.18319
21
-6.11137
0
LINE
8
BLACK
6
CONTINUOUS
10
4.18319
20
-6.11137
11
4.18694
21
-6.11887
0
LINE
8
BLACK
6
CONTINUOUS
10
4.18694
20
-6.11887
11
4.19069
21
-6.12262
0
LINE
8
BLACK
6
CONTINUOUS
10
4.19069
20
-6.12262
11
4.19819
21
-6.12637
0
LINE
8
BLACK
6
CONTINUOUS
10
4.19819
20
-6.12637
11
4.21319
21
-6.12637
0
LINE
8
BLACK
6
CONTINUOUS
10
4.21319
20
-6.12637
11
4.22069
21
-6.12262
0
LINE
8
BLACK
6
CONTINUOUS
10
4.22069
20
-6.12262
11
4.22444
21
-6.11887
0
LINE
8
BLACK
6
CONTINUOUS
10
4.22444
20
-6.11887
11
4.22819
21
-6.11137
0
LINE
8
BLACK
6
CONTINUOUS
10
4.26568
20
-6.15637
11
4.28068
21
-6.15637
0
LINE
8
BLACK
6
CONTINUOUS
10
4.28068
20
-6.15637
11
4.28818
21
-6.15262
0
LINE
8
BLACK
6
CONTINUOUS
10
4.28818
20
-6.15262
11
4.29193
21
-6.14887
0
LINE
8
BLACK
6
CONTINUOUS
10
4.29193
20
-6.14887
11
4.29943
21
-6.13762
0
LINE
8
BLACK
6
CONTINUOUS
10
4.29943
20
-6.13762
11
4.30318
21
-6.12262
0
LINE
8
BLACK
6
CONTINUOUS
10
4.30318
20
-6.12262
11
4.30318
21
-6.09263
0
LINE
8
BLACK
6
CONTINUOUS
10
4.30318
20
-6.09263
11
4.29943
21
-6.08513
0
LINE
8
BLACK
6
CONTINUOUS
10
4.29943
20
-6.08513
11
4.29568
21
-6.08138
0
LINE
8
BLACK
6
CONTINUOUS
10
4.29568
20
-6.08138
11
4.28818
21
-6.07763
0
LINE
8
BLACK
6
CONTINUOUS
10
4.28818
20
-6.07763
11
4.27318
21
-6.07763
0
LINE
8
BLACK
6
CONTINUOUS
10
4.27318
20
-6.07763
11
4.26568
21
-6.08138
0
LINE
8
BLACK
6
CONTINUOUS
10
4.26568
20
-6.08138
11
4.26193
21
-6.08513
0
LINE
8
BLACK
6
CONTINUOUS
10
4.26193
20
-6.08513
11
4.25818
21
-6.09263
0
LINE
8
BLACK
6
CONTINUOUS
10
4.25818
20
-6.09263
11
4.25818
21
-6.11137
0
LINE
8
BLACK
6
CONTINUOUS
10
4.25818
20
-6.11137
11
4.26193
21
-6.11887
0
LINE
8
BLACK
6
CONTINUOUS
10
4.26193
20
-6.11887
11
4.26568
21
-6.12262
0
LINE
8
BLACK
6
CONTINUOUS
10
4.26568
20
-6.12262
11
4.27318
21
-6.12637
0
LINE
8
BLACK
6
CONTINUOUS
10
4.27318
20
-6.12637
11
4.28818
21
-6.12637
0
LINE
8
BLACK
6
CONTINUOUS
10
4.28818
20
-6.12637
11
4.29568
21
-6.12262
0
LINE
8
BLACK
6
CONTINUOUS
10
4.29568
20
-6.12262
11
4.29943
21
-6.11887
0
LINE
8
BLACK
6
CONTINUOUS
10
4.29943
20
-6.11887
11
4.30318
21
-6.11137
0
LINE
8
BLACK
6
CONTINUOUS
10
4.35192
20
-6.07763
11
4.35942
21
-6.07763
0
LINE
8
BLACK
6
CONTINUOUS
10
4.35942
20
-6.07763
11
4.36692
21
-6.08138
0
LINE
8
BLACK
6
CONTINUOUS
10
4.36692
20
-6.08138
11
4.37067
21
-6.08513
0
LINE
8
BLACK
6
CONTINUOUS
10
4.37067
20
-6.08513
11
4.37442
21
-6.09263
0
LINE
8
BLACK
6
CONTINUOUS
10
4.37442
20
-6.09263
11
4.37817
21
-6.10762
0
LINE
8
BLACK
6
CONTINUOUS
10
4.37817
20
-6.10762
11
4.37817
21
-6.12637
0
LINE
8
BLACK
6
CONTINUOUS
10
4.37817
20
-6.12637
11
4.37442
21
-6.14137
0
LINE
8
BLACK
6
CONTINUOUS
10
4.37442
20
-6.14137
11
4.37067
21
-6.14887
0
LINE
8
BLACK
6
CONTINUOUS
10
4.37067
20
-6.14887
11
4.36692
21
-6.15262
0
LINE
8
BLACK
6
CONTINUOUS
10
4.36692
20
-6.15262
11
4.35942
21
-6.15637
0
LINE
8
BLACK
6
CONTINUOUS
10
4.35942
20
-6.15637
11
4.35192
21
-6.15637
0
LINE
8
BLACK
6
CONTINUOUS
10
4.35192
20
-6.15637
11
4.34442
21
-6.15262
0
LINE
8
BLACK
6
CONTINUOUS
10
4.34442
20
-6.15262
11
4.34067
21
-6.14887
0
LINE
8
BLACK
6
CONTINUOUS
10
4.34067
20
-6.14887
11
4.33692
21
-6.14137
0
LINE
8
BLACK
6
CONTINUOUS
10
4.33692
20
-6.14137
11
4.33317
21
-6.12637
0
LINE
8
BLACK
6
CONTINUOUS
10
4.33317
20
-6.12637
11
4.33317
21
-6.10762
0
LINE
8
BLACK
6
CONTINUOUS
10
4.33317
20
-6.10762
11
4.33692
21
-6.09263
0
LINE
8
BLACK
6
CONTINUOUS
10
4.33692
20
-6.09263
11
4.34067
21
-6.08513
0
LINE
8
BLACK
6
CONTINUOUS
10
4.34067
20
-6.08513
11
4.34442
21
-6.08138
0
LINE
8
BLACK
6
CONTINUOUS
10
4.34442
20
-6.08138
11
4.35192
21
-6.07763
0
LINE
8
BLACK
6
CONTINUOUS
10
4.41191
20
-6.15637
11
4.41191
21
-6.10388
0
LINE
8
BLACK
6
CONTINUOUS
10
4.41191
20
-6.11137
11
4.41566
21
-6.10762
0
LINE
8
BLACK
6
CONTINUOUS
10
4.41566
20
-6.10762
11
4.42316
21
-6.10388
0
LINE
8
BLACK
6
CONTINUOUS
10
4.42316
20
-6.10388
11
4.43441
21
-6.10388
0
LINE
8
BLACK
6
CONTINUOUS
10
4.43441
20
-6.10388
11
4.44191
21
-6.10762
0
LINE
8
BLACK
6
CONTINUOUS
10
4.44191
20
-6.10762
11
4.44566
21
-6.11512
0
LINE
8
BLACK
6
CONTINUOUS
10
4.44566
20
-6.11512
11
4.44566
21
-6.15637
0
LINE
8
BLACK
6
CONTINUOUS
10
4.44566
20
-6.11512
11
4.44941
21
-6.10762
0
LINE
8
BLACK
6
CONTINUOUS
10
4.44941
20
-6.10762
11
4.45691
21
-6.10388
0
LINE
8
BLACK
6
CONTINUOUS
10
4.45691
20
-6.10388
11
4.46816
21
-6.10388
0
LINE
8
BLACK
6
CONTINUOUS
10
4.46816
20
-6.10388
11
4.47566
21
-6.10762
0
LINE
8
BLACK
6
CONTINUOUS
10
4.47566
20
-6.10762
11
4.47941
21
-6.11512
0
LINE
8
BLACK
6
CONTINUOUS
10
4.47941
20
-6.11512
11
4.47941
21
-6.15637
0
LINE
8
BLACK
6
CONTINUOUS
10
4.5169
20
-6.15637
11
4.5169
21
-6.10388
0
LINE
8
BLACK
6
CONTINUOUS
10
4.5169
20
-6.11137
11
4.52065
21
-6.10762
0
LINE
8
BLACK
6
CONTINUOUS
10
4.52065
20
-6.10762
11
4.52815
21
-6.10388
0
LINE
8
BLACK
6
CONTINUOUS
10
4.52815
20
-6.10388
11
4.5394
21
-6.10388
0
LINE
8
BLACK
6
CONTINUOUS
10
4.5394
20
-6.10388
11
4.5469
21
-6.10762
0
LINE
8
BLACK
6
CONTINUOUS
10
4.5469
20
-6.10762
11
4.55065
21
-6.11512
0
LINE
8
BLACK
6
CONTINUOUS
10
4.55065
20
-6.11512
11
4.55065
21
-6.15637
0
LINE
8
BLACK
6
CONTINUOUS
10
4.55065
20
-6.11512
11
4.5544
21
-6.10762
0
LINE
8
BLACK
6
CONTINUOUS
10
4.5544
20
-6.10762
11
4.5619
21
-6.10388
0
LINE
8
BLACK
6
CONTINUOUS
10
4.5619
20
-6.10388
11
4.57314
21
-6.10388
0
LINE
8
BLACK
6
CONTINUOUS
10
4.57314
20
-6.10388
11
4.58064
21
-6.10762
0
LINE
8
BLACK
6
CONTINUOUS
10
4.58064
20
-6.10762
11
4.58439
21
-6.11512
0
LINE
8
BLACK
6
CONTINUOUS
10
4.58439
20
-6.11512
11
4.58439
21
-6.15637
0
LINE
8
BLACK
6
CONTINUOUS
10
4.73812
20
-6.07388
11
4.67063
21
-6.17512
0
LINE
8
BLACK
6
CONTINUOUS
10
4.83936
20
-6.07763
11
4.84686
21
-6.07763
0
LINE
8
BLACK
6
CONTINUOUS
10
4.84686
20
-6.07763
11
4.85436
21
-6.08138
0
LINE
8
BLACK
6
CONTINUOUS
10
4.85436
20
-6.08138
11
4.85811
21
-6.08513
0
LINE
8
BLACK
6
CONTINUOUS
10
4.85811
20
-6.08513
11
4.86186
21
-6.09263
0
LINE
8
BLACK
6
CONTINUOUS
10
4.86186
20
-6.09263
11
4.86561
21
-6.10762
0
LINE
8
BLACK
6
CONTINUOUS
10
4.86561
20
-6.10762
11
4.86561
21
-6.12637
0
LINE
8
BLACK
6
CONTINUOUS
10
4.86561
20
-6.12637
11
4.86186
21
-6.14137
0
LINE
8
BLACK
6
CONTINUOUS
10
4.86186
20
-6.14137
11
4.85811
21
-6.14887
0
LINE
8
BLACK
6
CONTINUOUS
10
4.85811
20
-6.14887
11
4.85436
21
-6.15262
0
LINE
8
BLACK
6
CONTINUOUS
10
4.85436
20
-6.15262
11
4.84686
21
-6.15637
0
LINE
8
BLACK
6
CONTINUOUS
10
4.84686
20
-6.15637
11
4.83936
21
-6.15637
0
LINE
8
BLACK
6
CONTINUOUS
10
4.83936
20
-6.15637
11
4.83186
21
-6.15262
0
LINE
8
BLACK
6
CONTINUOUS
10
4.83186
20
-6.15262
11
4.82811
21
-6.14887
0
LINE
8
BLACK
6
CONTINUOUS
10
4.82811
20
-6.14887
11
4.82436
21
-6.14137
0
LINE
8
BLACK
6
CONTINUOUS
10
4.82436
20
-6.14137
11
4.82061
21
-6.12637
0
LINE
8
BLACK
6
CONTINUOUS
10
4.82061
20
-6.12637
11
4.82061
21
-6.10762
0
LINE
8
BLACK
6
CONTINUOUS
10
4.82061
20
-6.10762
11
4.82436
21
-6.09263
0
LINE
8
BLACK
6
CONTINUOUS
10
4.82436
20
-6.09263
11
4.82811
21
-6.08513
0
LINE
8
BLACK
6
CONTINUOUS
10
4.82811
20
-6.08513
11
4.83186
21
-6.08138
0
LINE
8
BLACK
6
CONTINUOUS
10
4.83186
20
-6.08138
11
4.83936
21
-6.07763
0
LINE
8
BLACK
6
CONTINUOUS
10
4.89935
20
-6.14887
11
4.9031
21
-6.15262
0
LINE
8
BLACK
6
CONTINUOUS
10
4.9031
20
-6.15262
11
4.89935
21
-6.15637
0
LINE
8
BLACK
6
CONTINUOUS
10
4.89935
20
-6.15637
11
4.8956
21
-6.15262
0
LINE
8
BLACK
6
CONTINUOUS
10
4.8956
20
-6.15262
11
4.89935
21
-6.14887
0
LINE
8
BLACK
6
CONTINUOUS
10
4.89935
20
-6.14887
11
4.89935
21
-6.15637
0
LINE
8
BLACK
6
CONTINUOUS
10
4.95185
20
-6.07763
11
4.95935
21
-6.07763
0
LINE
8
BLACK
6
CONTINUOUS
10
4.95935
20
-6.07763
11
4.96684
21
-6.08138
0
LINE
8
BLACK
6
CONTINUOUS
10
4.96684
20
-6.08138
11
4.97059
21
-6.08513
0
LINE
8
BLACK
6
CONTINUOUS
10
4.97059
20
-6.08513
11
4.97434
21
-6.09263
0
LINE
8
BLACK
6
CONTINUOUS
10
4.97434
20
-6.09263
11
4.97809
21
-6.10762
0
LINE
8
BLACK
6
CONTINUOUS
10
4.97809
20
-6.10762
11
4.97809
21
-6.12637
0
LINE
8
BLACK
6
CONTINUOUS
10
4.97809
20
-6.12637
11
4.97434
21
-6.14137
0
LINE
8
BLACK
6
CONTINUOUS
10
4.97434
20
-6.14137
11
4.97059
21
-6.14887
0
LINE
8
BLACK
6
CONTINUOUS
10
4.97059
20
-6.14887
11
4.96684
21
-6.15262
0
LINE
8
BLACK
6
CONTINUOUS
10
4.96684
20
-6.15262
11
4.95935
21
-6.15637
0
LINE
8
BLACK
6
CONTINUOUS
10
4.95935
20
-6.15637
11
4.95185
21
-6.15637
0
LINE
8
BLACK
6
CONTINUOUS
10
4.95185
20
-6.15637
11
4.94435
21
-6.15262
0
LINE
8
BLACK
6
CONTINUOUS
10
4.94435
20
-6.15262
11
4.9406
21
-6.14887
0
LINE
8
BLACK
6
CONTINUOUS
10
4.9406
20
-6.14887
11
4.93685
21
-6.14137
0
LINE
8
BLACK
6
CONTINUOUS
10
4.93685
20
-6.14137
11
4.9331
21
-6.12637
0
LINE
8
BLACK
6
CONTINUOUS
10
4.9331
20
-6.12637
11
4.9331
21
-6.10762
0
LINE
8
BLACK
6
CONTINUOUS
10
4.9331
20
-6.10762
11
4.93685
21
-6.09263
0
LINE
8
BLACK
6
CONTINUOUS
10
4.93685
20
-6.09263
11
4.9406
21
-6.08513
0
LINE
8
BLACK
6
CONTINUOUS
10
4.9406
20
-6.08513
11
4.94435
21
-6.08138
0
LINE
8
BLACK
6
CONTINUOUS
10
4.94435
20
-6.08138
11
4.95185
21
-6.07763
0
LINE
8
BLACK
6
CONTINUOUS
10
5.00434
20
-6.07763
11
5.05308
21
-6.07763
0
LINE
8
BLACK
6
CONTINUOUS
10
5.05308
20
-6.07763
11
5.02684
21
-6.10762
0
LINE
8
BLACK
6
CONTINUOUS
10
5.02684
20
-6.10762
11
5.03809
21
-6.10762
0
LINE
8
BLACK
6
CONTINUOUS
10
5.03809
20
-6.10762
11
5.04558
21
-6.11137
0
LINE
8
BLACK
6
CONTINUOUS
10
5.04558
20
-6.11137
11
5.04933
21
-6.11512
0
LINE
8
BLACK
6
CONTINUOUS
10
5.04933
20
-6.11512
11
5.05308
21
-6.12262
0
LINE
8
BLACK
6
CONTINUOUS
10
5.05308
20
-6.12262
11
5.05308
21
-6.14137
0
LINE
8
BLACK
6
CONTINUOUS
10
5.05308
20
-6.14137
11
5.04933
21
-6.14887
0
LINE
8
BLACK
6
CONTINUOUS
10
5.04933
20
-6.14887
11
5.04558
21
-6.15262
0
LINE
8
BLACK
6
CONTINUOUS
10
5.04558
20
-6.15262
11
5.03809
21
-6.15637
0
LINE
8
BLACK
6
CONTINUOUS
10
5.03809
20
-6.15637
11
5.01559
21
-6.15637
0
LINE
8
BLACK
6
CONTINUOUS
10
5.01559
20
-6.15637
11
5.00809
21
-6.15262
0
LINE
8
BLACK
6
CONTINUOUS
10
5.00809
20
-6.15262
11
5.00434
21
-6.14887
0
LINE
8
BLACK
6
CONTINUOUS
10
5.09058
20
-6.15637
11
5.10558
21
-6.15637
0
LINE
8
BLACK
6
CONTINUOUS
10
5.10558
20
-6.15637
11
5.11308
21
-6.15262
0
LINE
8
BLACK
6
CONTINUOUS
10
5.11308
20
-6.15262
11
5.11683
21
-6.14887
0
LINE
8
BLACK
6
CONTINUOUS
10
5.11683
20
-6.14887
11
5.12433
21
-6.13762
0
LINE
8
BLACK
6
CONTINUOUS
10
5.12433
20
-6.13762
11
5.12807
21
-6.12262
0
LINE
8
BLACK
6
CONTINUOUS
10
5.12807
20
-6.12262
11
5.12807
21
-6.09263
0
LINE
8
BLACK
6
CONTINUOUS
10
5.12807
20
-6.09263
11
5.12433
21
-6.08513
0
LINE
8
BLACK
6
CONTINUOUS
10
5.12433
20
-6.08513
11
5.12058
21
-6.08138
0
LINE
8
BLACK
6
CONTINUOUS
10
5.12058
20
-6.08138
11
5.11308
21
-6.07763
0
LINE
8
BLACK
6
CONTINUOUS
10
5.11308
20
-6.07763
11
5.09808
21
-6.07763
0
LINE
8
BLACK
6
CONTINUOUS
10
5.09808
20
-6.07763
11
5.09058
21
-6.08138
0
LINE
8
BLACK
6
CONTINUOUS
10
5.09058
20
-6.08138
11
5.08683
21
-6.08513
0
LINE
8
BLACK
6
CONTINUOUS
10
5.08683
20
-6.08513
11
5.08308
21
-6.09263
0
LINE
8
BLACK
6
CONTINUOUS
10
5.08308
20
-6.09263
11
5.08308
21
-6.11137
0
LINE
8
BLACK
6
CONTINUOUS
10
5.08308
20
-6.11137
11
5.08683
21
-6.11887
0
LINE
8
BLACK
6
CONTINUOUS
10
5.08683
20
-6.11887
11
5.09058
21
-6.12262
0
LINE
8
BLACK
6
CONTINUOUS
10
5.09058
20
-6.12262
11
5.09808
21
-6.12637
0
LINE
8
BLACK
6
CONTINUOUS
10
5.09808
20
-6.12637
11
5.11308
21
-6.12637
0
LINE
8
BLACK
6
CONTINUOUS
10
5.11308
20
-6.12637
11
5.12058
21
-6.12262
0
LINE
8
BLACK
6
CONTINUOUS
10
5.12058
20
-6.12262
11
5.12433
21
-6.11887
0
LINE
8
BLACK
6
CONTINUOUS
10
5.12433
20
-6.11887
11
5.12807
21
-6.11137
0
LINE
8
BLACK
6
CONTINUOUS
10
5.17682
20
-6.07763
11
5.18432
21
-6.07763
0
LINE
8
BLACK
6
CONTINUOUS
10
5.18432
20
-6.07763
11
5.19182
21
-6.08138
0
LINE
8
BLACK
6
CONTINUOUS
10
5.19182
20
-6.08138
11
5.19557
21
-6.08513
0
LINE
8
BLACK
6
CONTINUOUS
10
5.19557
20
-6.08513
11
5.19932
21
-6.09263
0
LINE
8
BLACK
6
CONTINUOUS
10
5.19932
20
-6.09263
11
5.20307
21
-6.10762
0
LINE
8
BLACK
6
CONTINUOUS
10
5.20307
20
-6.10762
11
5.20307
21
-6.12637
0
LINE
8
BLACK
6
CONTINUOUS
10
5.20307
20
-6.12637
11
5.19932
21
-6.14137
0
LINE
8
BLACK
6
CONTINUOUS
10
5.19932
20
-6.14137
11
5.19557
21
-6.14887
0
LINE
8
BLACK
6
CONTINUOUS
10
5.19557
20
-6.14887
11
5.19182
21
-6.15262
0
LINE
8
BLACK
6
CONTINUOUS
10
5.19182
20
-6.15262
11
5.18432
21
-6.15637
0
LINE
8
BLACK
6
CONTINUOUS
10
5.18432
20
-6.15637
11
5.17682
21
-6.15637
0
LINE
8
BLACK
6
CONTINUOUS
10
5.17682
20
-6.15637
11
5.16932
21
-6.15262
0
LINE
8
BLACK
6
CONTINUOUS
10
5.16932
20
-6.15262
11
5.16557
21
-6.14887
0
LINE
8
BLACK
6
CONTINUOUS
10
5.16557
20
-6.14887
11
5.16182
21
-6.14137
0
LINE
8
BLACK
6
CONTINUOUS
10
5.16182
20
-6.14137
11
5.15807
21
-6.12637
0
LINE
8
BLACK
6
CONTINUOUS
10
5.15807
20
-6.12637
11
5.15807
21
-6.10762
0
LINE
8
BLACK
6
CONTINUOUS
10
5.15807
20
-6.10762
11
5.16182
21
-6.09263
0
LINE
8
BLACK
6
CONTINUOUS
10
5.16182
20
-6.09263
11
5.16557
21
-6.08513
0
LINE
8
BLACK
6
CONTINUOUS
10
5.16557
20
-6.08513
11
5.16932
21
-6.08138
0
LINE
8
BLACK
6
CONTINUOUS
10
5.16932
20
-6.08138
11
5.17682
21
-6.07763
0
LINE
8
BLACK
6
CONTINUOUS
10
5.23306
20
-6.07763
11
5.23306
21
-6.09263
0
LINE
8
BLACK
6
CONTINUOUS
10
5.26306
20
-6.07763
11
5.26306
21
-6.09263
0
LINE
8
BLACK
6
CONTINUOUS
10
5.37929
20
-6.18636
11
5.37554
21
-6.18262
0
LINE
8
BLACK
6
CONTINUOUS
10
5.37554
20
-6.18262
11
5.36804
21
-6.17137
0
LINE
8
BLACK
6
CONTINUOUS
10
5.36804
20
-6.17137
11
5.3643
21
-6.16387
0
LINE
8
BLACK
6
CONTINUOUS
10
5.3643
20
-6.16387
11
5.36055
21
-6.15262
0
LINE
8
BLACK
6
CONTINUOUS
10
5.36055
20
-6.15262
11
5.3568
21
-6.13387
0
LINE
8
BLACK
6
CONTINUOUS
10
5.3568
20
-6.13387
11
5.3568
21
-6.11887
0
LINE
8
BLACK
6
CONTINUOUS
10
5.3568
20
-6.11887
11
5.36055
21
-6.10013
0
LINE
8
BLACK
6
CONTINUOUS
10
5.36055
20
-6.10013
11
5.3643
21
-6.08888
0
LINE
8
BLACK
6
CONTINUOUS
10
5.3643
20
-6.08888
11
5.36804
21
-6.08138
0
LINE
8
BLACK
6
CONTINUOUS
10
5.36804
20
-6.08138
11
5.37554
21
-6.07013
0
LINE
8
BLACK
6
CONTINUOUS
10
5.37554
20
-6.07013
11
5.37929
21
-6.06638
0
LINE
8
BLACK
6
CONTINUOUS
10
5.40554
20
-6.08513
11
5.40929
21
-6.08138
0
LINE
8
BLACK
6
CONTINUOUS
10
5.40929
20
-6.08138
11
5.41679
21
-6.07763
0
LINE
8
BLACK
6
CONTINUOUS
10
5.41679
20
-6.07763
11
5.43554
21
-6.07763
0
LINE
8
BLACK
6
CONTINUOUS
10
5.43554
20
-6.07763
11
5.44304
21
-6.08138
0
LINE
8
BLACK
6
CONTINUOUS
10
5.44304
20
-6.08138
11
5.44678
21
-6.08513
0
LINE
8
BLACK
6
CONTINUOUS
10
5.44678
20
-6.08513
11
5.45053
21
-6.09263
0
LINE
8
BLACK
6
CONTINUOUS
10
5.45053
20
-6.09263
11
5.45053
21
-6.10013
0
LINE
8
BLACK
6
CONTINUOUS
10
5.45053
20
-6.10013
11
5.44678
21
-6.11137
0
LINE
8
BLACK
6
CONTINUOUS
10
5.44678
20
-6.11137
11
5.40179
21
-6.15637
0
LINE
8
BLACK
6
CONTINUOUS
10
5.40179
20
-6.15637
11
5.45053
21
-6.15637
0
LINE
8
BLACK
6
CONTINUOUS
10
5.54427
20
-6.15637
11
5.54427
21
-6.07763
0
LINE
8
BLACK
6
CONTINUOUS
10
5.57802
20
-6.15637
11
5.57802
21
-6.11512
0
LINE
8
BLACK
6
CONTINUOUS
10
5.57802
20
-6.11512
11
5.57427
21
-6.10762
0
LINE
8
BLACK
6
CONTINUOUS
10
5.57427
20
-6.10762
11
5.56677
21
-6.10388
0
LINE
8
BLACK
6
CONTINUOUS
10
5.56677
20
-6.10388
11
5.55552
21
-6.10388
0
LINE
8
BLACK
6
CONTINUOUS
10
5.55552
20
-6.10388
11
5.54802
21
-6.10762
0
LINE
8
BLACK
6
CONTINUOUS
10
5.54802
20
-6.10762
11
5.54427
21
-6.11137
0
LINE
8
BLACK
6
CONTINUOUS
10
5.62676
20
-6.15637
11
5.61926
21
-6.15262
0
LINE
8
BLACK
6
CONTINUOUS
10
5.61926
20
-6.15262
11
5.61551
21
-6.14887
0
LINE
8
BLACK
6
CONTINUOUS
10
5.61551
20
-6.14887
11
5.61176
21
-6.14137
0
LINE
8
BLACK
6
CONTINUOUS
10
5.61176
20
-6.14137
11
5.61176
21
-6.11887
0
LINE
8
BLACK
6
CONTINUOUS
10
5.61176
20
-6.11887
11
5.61551
21
-6.11137
0
LINE
8
BLACK
6
CONTINUOUS
10
5.61551
20
-6.11137
11
5.61926
21
-6.10762
0
LINE
8
BLACK
6
CONTINUOUS
10
5.61926
20
-6.10762
11
5.62676
21
-6.10388
0
LINE
8
BLACK
6
CONTINUOUS
10
5.62676
20
-6.10388
11
5.63801
21
-6.10388
0
LINE
8
BLACK
6
CONTINUOUS
10
5.63801
20
-6.10388
11
5.64551
21
-6.10762
0
LINE
8
BLACK
6
CONTINUOUS
10
5.64551
20
-6.10762
11
5.64926
21
-6.11137
0
LINE
8
BLACK
6
CONTINUOUS
10
5.64926
20
-6.11137
11
5.65301
21
-6.11887
0
LINE
8
BLACK
6
CONTINUOUS
10
5.65301
20
-6.11887
11
5.65301
21
-6.14137
0
LINE
8
BLACK
6
CONTINUOUS
10
5.65301
20
-6.14137
11
5.64926
21
-6.14887
0
LINE
8
BLACK
6
CONTINUOUS
10
5.64926
20
-6.14887
11
5.64551
21
-6.15262
0
LINE
8
BLACK
6
CONTINUOUS
10
5.64551
20
-6.15262
11
5.63801
21
-6.15637
0
LINE
8
BLACK
6
CONTINUOUS
10
5.63801
20
-6.15637
11
5.62676
21
-6.15637
0
LINE
8
BLACK
6
CONTINUOUS
10
5.698
20
-6.15637
11
5.6905
21
-6.15262
0
LINE
8
BLACK
6
CONTINUOUS
10
5.6905
20
-6.15262
11
5.68675
21
-6.14512
0
LINE
8
BLACK
6
CONTINUOUS
10
5.68675
20
-6.14512
11
5.68675
21
-6.07763
0
LINE
8
BLACK
6
CONTINUOUS
10
5.758
20
-6.15262
11
5.7505
21
-6.15637
0
LINE
8
BLACK
6
CONTINUOUS
10
5.7505
20
-6.15637
11
5.7355
21
-6.15637
0
LINE
8
BLACK
6
CONTINUOUS
10
5.7355
20
-6.15637
11
5.728
21
-6.15262
0
LINE
8
BLACK
6
CONTINUOUS
10
5.728
20
-6.15262
11
5.72425
21
-6.14512
0
LINE
8
BLACK
6
CONTINUOUS
10
5.72425
20
-6.14512
11
5.72425
21
-6.11512
0
LINE
8
BLACK
6
CONTINUOUS
10
5.72425
20
-6.11512
11
5.728
21
-6.10762
0
LINE
8
BLACK
6
CONTINUOUS
10
5.728
20
-6.10762
11
5.7355
21
-6.10388
0
LINE
8
BLACK
6
CONTINUOUS
10
5.7355
20
-6.10388
11
5.7505
21
-6.10388
0
LINE
8
BLACK
6
CONTINUOUS
10
5.7505
20
-6.10388
11
5.758
21
-6.10762
0
LINE
8
BLACK
6
CONTINUOUS
10
5.758
20
-6.10762
11
5.76175
21
-6.11512
0
LINE
8
BLACK
6
CONTINUOUS
10
5.76175
20
-6.11512
11
5.76175
21
-6.12262
0
LINE
8
BLACK
6
CONTINUOUS
10
5.76175
20
-6.12262
11
5.72425
21
-6.13012
0
LINE
8
BLACK
6
CONTINUOUS
10
5.79174
20
-6.15262
11
5.79924
21
-6.15637
0
LINE
8
BLACK
6
CONTINUOUS
10
5.79924
20
-6.15637
11
5.81424
21
-6.15637
0
LINE
8
BLACK
6
CONTINUOUS
10
5.81424
20
-6.15637
11
5.82174
21
-6.15262
0
LINE
8
BLACK
6
CONTINUOUS
10
5.82174
20
-6.15262
11
5.82549
21
-6.14512
0
LINE
8
BLACK
6
CONTINUOUS
10
5.82549
20
-6.14512
11
5.82549
21
-6.14137
0
LINE
8
BLACK
6
CONTINUOUS
10
5.82549
20
-6.14137
11
5.82174
21
-6.13387
0
LINE
8
BLACK
6
CONTINUOUS
10
5.82174
20
-6.13387
11
5.81424
21
-6.13012
0
LINE
8
BLACK
6
CONTINUOUS
10
5.81424
20
-6.13012
11
5.80299
21
-6.13012
0
LINE
8
BLACK
6
CONTINUOUS
10
5.80299
20
-6.13012
11
5.79549
21
-6.12637
0
LINE
8
BLACK
6
CONTINUOUS
10
5.79549
20
-6.12637
11
5.79174
21
-6.11887
0
LINE
8
BLACK
6
CONTINUOUS
10
5.79174
20
-6.11887
11
5.79174
21
-6.11512
0
LINE
8
BLACK
6
CONTINUOUS
10
5.79174
20
-6.11512
11
5.79549
21
-6.10762
0
LINE
8
BLACK
6
CONTINUOUS
10
5.79549
20
-6.10762
11
5.80299
21
-6.10388
0
LINE
8
BLACK
6
CONTINUOUS
10
5.80299
20
-6.10388
11
5.81424
21
-6.10388
0
LINE
8
BLACK
6
CONTINUOUS
10
5.81424
20
-6.10388
11
5.82174
21
-6.10762
0
LINE
8
BLACK
6
CONTINUOUS
10
5.85173
20
-6.18636
11
5.85548
21
-6.18262
0
LINE
8
BLACK
6
CONTINUOUS
10
5.85548
20
-6.18262
11
5.86298
21
-6.17137
0
LINE
8
BLACK
6
CONTINUOUS
10
5.86298
20
-6.17137
11
5.86673
21
-6.16387
0
LINE
8
BLACK
6
CONTINUOUS
10
5.86673
20
-6.16387
11
5.87048
21
-6.15262
0
LINE
8
BLACK
6
CONTINUOUS
10
5.87048
20
-6.15262
11
5.87423
21
-6.13387
0
LINE
8
BLACK
6
CONTINUOUS
10
5.87423
20
-6.13387
11
5.87423
21
-6.11887
0
LINE
8
BLACK
6
CONTINUOUS
10
5.87423
20
-6.11887
11
5.87048
21
-6.10013
0
LINE
8
BLACK
6
CONTINUOUS
10
5.87048
20
-6.10013
11
5.86673
21
-6.08888
0
LINE
8
BLACK
6
CONTINUOUS
10
5.86673
20
-6.08888
11
5.86298
21
-6.08138
0
LINE
8
BLACK
6
CONTINUOUS
10
5.86298
20
-6.08138
11
5.85548
21
-6.07013
0
LINE
8
BLACK
6
CONTINUOUS
10
5.85548
20
-6.07013
11
5.85173
21
-6.06638
0
LINE
8
BLACK
6
CONTINUOUS
10
3.95335
20
-6.24437
11
3.97303
21
-6.22469
0
LINE
8
BLACK
6
CONTINUOUS
10
3.97303
20
-6.22469
11
3.95335
21
-6.205
0
LINE
8
BLACK
6
CONTINUOUS
10
3.95335
20
-6.205
11
3.93366
21
-6.22469
0
LINE
8
BLACK
6
CONTINUOUS
10
3.93366
20
-6.22469
11
3.95335
21
-6.24437
0
LINE
8
BLACK
6
CONTINUOUS
10
4.1157
20
-6.26031
11
4.07071
21
-6.26031
0
LINE
8
BLACK
6
CONTINUOUS
10
4.0932
20
-6.26031
11
4.0932
21
-6.18157
0
LINE
8
BLACK
6
CONTINUOUS
10
4.0932
20
-6.18157
11
4.0857
21
-6.19281
0
LINE
8
BLACK
6
CONTINUOUS
10
4.0857
20
-6.19281
11
4.07821
21
-6.20031
0
LINE
8
BLACK
6
CONTINUOUS
10
4.07821
20
-6.20031
11
4.07071
21
-6.20406
0
LINE
8
BLACK
6
CONTINUOUS
10
4.14945
20
-6.25281
11
4.1532
21
-6.25656
0
LINE
8
BLACK
6
CONTINUOUS
10
4.1532
20
-6.25656
11
4.14945
21
-6.26031
0
LINE
8
BLACK
6
CONTINUOUS
10
4.14945
20
-6.26031
11
4.1457
21
-6.25656
0
LINE
8
BLACK
6
CONTINUOUS
10
4.1457
20
-6.25656
11
4.14945
21
-6.25281
0
LINE
8
BLACK
6
CONTINUOUS
10
4.14945
20
-6.25281
11
4.14945
21
-6.26031
0
LINE
8
BLACK
6
CONTINUOUS
10
4.20194
20
-6.18157
11
4.20944
21
-6.18157
0
LINE
8
BLACK
6
CONTINUOUS
10
4.20944
20
-6.18157
11
4.21694
21
-6.18531
0
LINE
8
BLACK
6
CONTINUOUS
10
4.21694
20
-6.18531
11
4.22069
21
-6.18906
0
LINE
8
BLACK
6
CONTINUOUS
10
4.22069
20
-6.18906
11
4.22444
21
-6.19656
0
LINE
8
BLACK
6
CONTINUOUS
10
4.22444
20
-6.19656
11
4.22819
21
-6.21156
0
LINE
8
BLACK
6
CONTINUOUS
10
4.22819
20
-6.21156
11
4.22819
21
-6.23031
0
LINE
8
BLACK
6
CONTINUOUS
10
4.22819
20
-6.23031
11
4.22444
21
-6.24531
0
LINE
8
BLACK
6
CONTINUOUS
10
4.22444
20
-6.24531
11
4.22069
21
-6.25281
0
LINE
8
BLACK
6
CONTINUOUS
10
4.22069
20
-6.25281
11
4.21694
21
-6.25656
0
LINE
8
BLACK
6
CONTINUOUS
10
4.21694
20
-6.25656
11
4.20944
21
-6.26031
0
LINE
8
BLACK
6
CONTINUOUS
10
4.20944
20
-6.26031
11
4.20194
21
-6.26031
0
LINE
8
BLACK
6
CONTINUOUS
10
4.20194
20
-6.26031
11
4.19444
21
-6.25656
0
LINE
8
BLACK
6
CONTINUOUS
10
4.19444
20
-6.25656
11
4.19069
21
-6.25281
0
LINE
8
BLACK
6
CONTINUOUS
10
4.19069
20
-6.25281
11
4.18694
21
-6.24531
0
LINE
8
BLACK
6
CONTINUOUS
10
4.18694
20
-6.24531
11
4.18319
21
-6.23031
0
LINE
8
BLACK
6
CONTINUOUS
10
4.18319
20
-6.23031
11
4.18319
21
-6.21156
0
LINE
8
BLACK
6
CONTINUOUS
10
4.18319
20
-6.21156
11
4.18694
21
-6.19656
0
LINE
8
BLACK
6
CONTINUOUS
10
4.18694
20
-6.19656
11
4.19069
21
-6.18906
0
LINE
8
BLACK
6
CONTINUOUS
10
4.19069
20
-6.18906
11
4.19444
21
-6.18531
0
LINE
8
BLACK
6
CONTINUOUS
10
4.19444
20
-6.18531
11
4.20194
21
-6.18157
0
LINE
8
BLACK
6
CONTINUOUS
10
4.27693
20
-6.18157
11
4.28443
21
-6.18157
0
LINE
8
BLACK
6
CONTINUOUS
10
4.28443
20
-6.18157
11
4.29193
21
-6.18531
0
LINE
8
BLACK
6
CONTINUOUS
10
4.29193
20
-6.18531
11
4.29568
21
-6.18906
0
LINE
8
BLACK
6
CONTINUOUS
10
4.29568
20
-6.18906
11
4.29943
21
-6.19656
0
LINE
8
BLACK
6
CONTINUOUS
10
4.29943
20
-6.19656
11
4.30318
21
-6.21156
0
LINE
8
BLACK
6
CONTINUOUS
10
4.30318
20
-6.21156
11
4.30318
21
-6.23031
0
LINE
8
BLACK
6
CONTINUOUS
10
4.30318
20
-6.23031
11
4.29943
21
-6.24531
0
LINE
8
BLACK
6
CONTINUOUS
10
4.29943
20
-6.24531
11
4.29568
21
-6.25281
0
LINE
8
BLACK
6
CONTINUOUS
10
4.29568
20
-6.25281
11
4.29193
21
-6.25656
0
LINE
8
BLACK
6
CONTINUOUS
10
4.29193
20
-6.25656
11
4.28443
21
-6.26031
0
LINE
8
BLACK
6
CONTINUOUS
10
4.28443
20
-6.26031
11
4.27693
21
-6.26031
0
LINE
8
BLACK
6
CONTINUOUS
10
4.27693
20
-6.26031
11
4.26943
21
-6.25656
0
LINE
8
BLACK
6
CONTINUOUS
10
4.26943
20
-6.25656
11
4.26568
21
-6.25281
0
LINE
8
BLACK
6
CONTINUOUS
10
4.26568
20
-6.25281
11
4.26193
21
-6.24531
0
LINE
8
BLACK
6
CONTINUOUS
10
4.26193
20
-6.24531
11
4.25818
21
-6.23031
0
LINE
8
BLACK
6
CONTINUOUS
10
4.25818
20
-6.23031
11
4.25818
21
-6.21156
0
LINE
8
BLACK
6
CONTINUOUS
10
4.25818
20
-6.21156
11
4.26193
21
-6.19656
0
LINE
8
BLACK
6
CONTINUOUS
10
4.26193
20
-6.19656
11
4.26568
21
-6.18906
0
LINE
8
BLACK
6
CONTINUOUS
10
4.26568
20
-6.18906
11
4.26943
21
-6.18531
0
LINE
8
BLACK
6
CONTINUOUS
10
4.26943
20
-6.18531
11
4.27693
21
-6.18157
0
LINE
8
BLACK
6
CONTINUOUS
10
4.35192
20
-6.18157
11
4.35942
21
-6.18157
0
LINE
8
BLACK
6
CONTINUOUS
10
4.35942
20
-6.18157
11
4.36692
21
-6.18531
0
LINE
8
BLACK
6
CONTINUOUS
10
4.36692
20
-6.18531
11
4.37067
21
-6.18906
0
LINE
8
BLACK
6
CONTINUOUS
10
4.37067
20
-6.18906
11
4.37442
21
-6.19656
0
LINE
8
BLACK
6
CONTINUOUS
10
4.37442
20
-6.19656
11
4.37817
21
-6.21156
0
LINE
8
BLACK
6
CONTINUOUS
10
4.37817
20
-6.21156
11
4.37817
21
-6.23031
0
LINE
8
BLACK
6
CONTINUOUS
10
4.37817
20
-6.23031
11
4.37442
21
-6.24531
0
LINE
8
BLACK
6
CONTINUOUS
10
4.37442
20
-6.24531
11
4.37067
21
-6.25281
0
LINE
8
BLACK
6
CONTINUOUS
10
4.37067
20
-6.25281
11
4.36692
21
-6.25656
0
LINE
8
BLACK
6
CONTINUOUS
10
4.36692
20
-6.25656
11
4.35942
21
-6.26031
0
LINE
8
BLACK
6
CONTINUOUS
10
4.35942
20
-6.26031
11
4.35192
21
-6.26031
0
LINE
8
BLACK
6
CONTINUOUS
10
4.35192
20
-6.26031
11
4.34442
21
-6.25656
0
LINE
8
BLACK
6
CONTINUOUS
10
4.34442
20
-6.25656
11
4.34067
21
-6.25281
0
LINE
8
BLACK
6
CONTINUOUS
10
4.34067
20
-6.25281
11
4.33692
21
-6.24531
0
LINE
8
BLACK
6
CONTINUOUS
10
4.33692
20
-6.24531
11
4.33317
21
-6.23031
0
LINE
8
BLACK
6
CONTINUOUS
10
4.33317
20
-6.23031
11
4.33317
21
-6.21156
0
LINE
8
BLACK
6
CONTINUOUS
10
4.33317
20
-6.21156
11
4.33692
21
-6.19656
0
LINE
8
BLACK
6
CONTINUOUS
10
4.33692
20
-6.19656
11
4.34067
21
-6.18906
0
LINE
8
BLACK
6
CONTINUOUS
10
4.34067
20
-6.18906
11
4.34442
21
-6.18531
0
LINE
8
BLACK
6
CONTINUOUS
10
4.34442
20
-6.18531
11
4.35192
21
-6.18157
0
LINE
8
BLACK
6
CONTINUOUS
10
4.41191
20
-6.26031
11
4.41191
21
-6.20781
0
LINE
8
BLACK
6
CONTINUOUS
10
4.41191
20
-6.21531
11
4.41566
21
-6.21156
0
LINE
8
BLACK
6
CONTINUOUS
10
4.41566
20
-6.21156
11
4.42316
21
-6.20781
0
LINE
8
BLACK
6
CONTINUOUS
10
4.42316
20
-6.20781
11
4.43441
21
-6.20781
0
LINE
8
BLACK
6
CONTINUOUS
10
4.43441
20
-6.20781
11
4.44191
21
-6.21156
0
LINE
8
BLACK
6
CONTINUOUS
10
4.44191
20
-6.21156
11
4.44566
21
-6.21906
0
LINE
8
BLACK
6
CONTINUOUS
10
4.44566
20
-6.21906
11
4.44566
21
-6.26031
0
LINE
8
BLACK
6
CONTINUOUS
10
4.44566
20
-6.21906
11
4.44941
21
-6.21156
0
LINE
8
BLACK
6
CONTINUOUS
10
4.44941
20
-6.21156
11
4.45691
21
-6.20781
0
LINE
8
BLACK
6
CONTINUOUS
10
4.45691
20
-6.20781
11
4.46816
21
-6.20781
0
LINE
8
BLACK
6
CONTINUOUS
10
4.46816
20
-6.20781
11
4.47566
21
-6.21156
0
LINE
8
BLACK
6
CONTINUOUS
10
4.47566
20
-6.21156
11
4.47941
21
-6.21906
0
LINE
8
BLACK
6
CONTINUOUS
10
4.47941
20
-6.21906
11
4.47941
21
-6.26031
0
LINE
8
BLACK
6
CONTINUOUS
10
4.5169
20
-6.26031
11
4.5169
21
-6.20781
0
LINE
8
BLACK
6
CONTINUOUS
10
4.5169
20
-6.21531
11
4.52065
21
-6.21156
0
LINE
8
BLACK
6
CONTINUOUS
10
4.52065
20
-6.21156
11
4.52815
21
-6.20781
0
LINE
8
BLACK
6
CONTINUOUS
10
4.52815
20
-6.20781
11
4.5394
21
-6.20781
0
LINE
8
BLACK
6
CONTINUOUS
10
4.5394
20
-6.20781
11
4.5469
21
-6.21156
0
LINE
8
BLACK
6
CONTINUOUS
10
4.5469
20
-6.21156
11
4.55065
21
-6.21906
0
LINE
8
BLACK
6
CONTINUOUS
10
4.55065
20
-6.21906
11
4.55065
21
-6.26031
0
LINE
8
BLACK
6
CONTINUOUS
10
4.55065
20
-6.21906
11
4.5544
21
-6.21156
0
LINE
8
BLACK
6
CONTINUOUS
10
4.5544
20
-6.21156
11
4.5619
21
-6.20781
0
LINE
8
BLACK
6
CONTINUOUS
10
4.5619
20
-6.20781
11
4.57314
21
-6.20781
0
LINE
8
BLACK
6
CONTINUOUS
10
4.57314
20
-6.20781
11
4.58064
21
-6.21156
0
LINE
8
BLACK
6
CONTINUOUS
10
4.58064
20
-6.21156
11
4.58439
21
-6.21906
0
LINE
8
BLACK
6
CONTINUOUS
10
4.58439
20
-6.21906
11
4.58439
21
-6.26031
0
LINE
8
BLACK
6
CONTINUOUS
10
4.73812
20
-6.17782
11
4.67063
21
-6.27905
0
LINE
8
BLACK
6
CONTINUOUS
10
4.83936
20
-6.18157
11
4.84686
21
-6.18157
0
LINE
8
BLACK
6
CONTINUOUS
10
4.84686
20
-6.18157
11
4.85436
21
-6.18531
0
LINE
8
BLACK
6
CONTINUOUS
10
4.85436
20
-6.18531
11
4.85811
21
-6.18906
0
LINE
8
BLACK
6
CONTINUOUS
10
4.85811
20
-6.18906
11
4.86186
21
-6.19656
0
LINE
8
BLACK
6
CONTINUOUS
10
4.86186
20
-6.19656
11
4.86561
21
-6.21156
0
LINE
8
BLACK
6
CONTINUOUS
10
4.86561
20
-6.21156
11
4.86561
21
-6.23031
0
LINE
8
BLACK
6
CONTINUOUS
10
4.86561
20
-6.23031
11
4.86186
21
-6.24531
0
LINE
8
BLACK
6
CONTINUOUS
10
4.86186
20
-6.24531
11
4.85811
21
-6.25281
0
LINE
8
BLACK
6
CONTINUOUS
10
4.85811
20
-6.25281
11
4.85436
21
-6.25656
0
LINE
8
BLACK
6
CONTINUOUS
10
4.85436
20
-6.25656
11
4.84686
21
-6.26031
0
LINE
8
BLACK
6
CONTINUOUS
10
4.84686
20
-6.26031
11
4.83936
21
-6.26031
0
LINE
8
BLACK
6
CONTINUOUS
10
4.83936
20
-6.26031
11
4.83186
21
-6.25656
0
LINE
8
BLACK
6
CONTINUOUS
10
4.83186
20
-6.25656
11
4.82811
21
-6.25281
0
LINE
8
BLACK
6
CONTINUOUS
10
4.82811
20
-6.25281
11
4.82436
21
-6.24531
0
LINE
8
BLACK
6
CONTINUOUS
10
4.82436
20
-6.24531
11
4.82061
21
-6.23031
0
LINE
8
BLACK
6
CONTINUOUS
10
4.82061
20
-6.23031
11
4.82061
21
-6.21156
0
LINE
8
BLACK
6
CONTINUOUS
10
4.82061
20
-6.21156
11
4.82436
21
-6.19656
0
LINE
8
BLACK
6
CONTINUOUS
10
4.82436
20
-6.19656
11
4.82811
21
-6.18906
0
LINE
8
BLACK
6
CONTINUOUS
10
4.82811
20
-6.18906
11
4.83186
21
-6.18531
0
LINE
8
BLACK
6
CONTINUOUS
10
4.83186
20
-6.18531
11
4.83936
21
-6.18157
0
LINE
8
BLACK
6
CONTINUOUS
10
4.89935
20
-6.25281
11
4.9031
21
-6.25656
0
LINE
8
BLACK
6
CONTINUOUS
10
4.9031
20
-6.25656
11
4.89935
21
-6.26031
0
LINE
8
BLACK
6
CONTINUOUS
10
4.89935
20
-6.26031
11
4.8956
21
-6.25656
0
LINE
8
BLACK
6
CONTINUOUS
10
4.8956
20
-6.25656
11
4.89935
21
-6.25281
0
LINE
8
BLACK
6
CONTINUOUS
10
4.89935
20
-6.25281
11
4.89935
21
-6.26031
0
LINE
8
BLACK
6
CONTINUOUS
10
4.95185
20
-6.18157
11
4.95935
21
-6.18157
0
LINE
8
BLACK
6
CONTINUOUS
10
4.95935
20
-6.18157
11
4.96684
21
-6.18531
0
LINE
8
BLACK
6
CONTINUOUS
10
4.96684
20
-6.18531
11
4.97059
21
-6.18906
0
LINE
8
BLACK
6
CONTINUOUS
10
4.97059
20
-6.18906
11
4.97434
21
-6.19656
0
LINE
8
BLACK
6
CONTINUOUS
10
4.97434
20
-6.19656
11
4.97809
21
-6.21156
0
LINE
8
BLACK
6
CONTINUOUS
10
4.97809
20
-6.21156
11
4.97809
21
-6.23031
0
LINE
8
BLACK
6
CONTINUOUS
10
4.97809
20
-6.23031
11
4.97434
21
-6.24531
0
LINE
8
BLACK
6
CONTINUOUS
10
4.97434
20
-6.24531
11
4.97059
21
-6.25281
0
LINE
8
BLACK
6
CONTINUOUS
10
4.97059
20
-6.25281
11
4.96684
21
-6.25656
0
LINE
8
BLACK
6
CONTINUOUS
10
4.96684
20
-6.25656
11
4.95935
21
-6.26031
0
LINE
8
BLACK
6
CONTINUOUS
10
4.95935
20
-6.26031
11
4.95185
21
-6.26031
0
LINE
8
BLACK
6
CONTINUOUS
10
4.95185
20
-6.26031
11
4.94435
21
-6.25656
0
LINE
8
BLACK
6
CONTINUOUS
10
4.94435
20
-6.25656
11
4.9406
21
-6.25281
0
LINE
8
BLACK
6
CONTINUOUS
10
4.9406
20
-6.25281
11
4.93685
21
-6.24531
0
LINE
8
BLACK
6
CONTINUOUS
10
4.93685
20
-6.24531
11
4.9331
21
-6.23031
0
LINE
8
BLACK
6
CONTINUOUS
10
4.9331
20
-6.23031
11
4.9331
21
-6.21156
0
LINE
8
BLACK
6
CONTINUOUS
10
4.9331
20
-6.21156
11
4.93685
21
-6.19656
0
LINE
8
BLACK
6
CONTINUOUS
10
4.93685
20
-6.19656
11
4.9406
21
-6.18906
0
LINE
8
BLACK
6
CONTINUOUS
10
4.9406
20
-6.18906
11
4.94435
21
-6.18531
0
LINE
8
BLACK
6
CONTINUOUS
10
4.94435
20
-6.18531
11
4.95185
21
-6.18157
0
LINE
8
BLACK
6
CONTINUOUS
10
5.00434
20
-6.18157
11
5.05308
21
-6.18157
0
LINE
8
BLACK
6
CONTINUOUS
10
5.05308
20
-6.18157
11
5.02684
21
-6.21156
0
LINE
8
BLACK
6
CONTINUOUS
10
5.02684
20
-6.21156
11
5.03809
21
-6.21156
0
LINE
8
BLACK
6
CONTINUOUS
10
5.03809
20
-6.21156
11
5.04558
21
-6.21531
0
LINE
8
BLACK
6
CONTINUOUS
10
5.04558
20
-6.21531
11
5.04933
21
-6.21906
0
LINE
8
BLACK
6
CONTINUOUS
10
5.04933
20
-6.21906
11
5.05308
21
-6.22656
0
LINE
8
BLACK
6
CONTINUOUS
10
5.05308
20
-6.22656
11
5.05308
21
-6.24531
0
LINE
8
BLACK
6
CONTINUOUS
10
5.05308
20
-6.24531
11
5.04933
21
-6.25281
0
LINE
8
BLACK
6
CONTINUOUS
10
5.04933
20
-6.25281
11
5.04558
21
-6.25656
0
LINE
8
BLACK
6
CONTINUOUS
10
5.04558
20
-6.25656
11
5.03809
21
-6.26031
0
LINE
8
BLACK
6
CONTINUOUS
10
5.03809
20
-6.26031
11
5.01559
21
-6.26031
0
LINE
8
BLACK
6
CONTINUOUS
10
5.01559
20
-6.26031
11
5.00809
21
-6.25656
0
LINE
8
BLACK
6
CONTINUOUS
10
5.00809
20
-6.25656
11
5.00434
21
-6.25281
0
LINE
8
BLACK
6
CONTINUOUS
10
5.09058
20
-6.26031
11
5.10558
21
-6.26031
0
LINE
8
BLACK
6
CONTINUOUS
10
5.10558
20
-6.26031
11
5.11308
21
-6.25656
0
LINE
8
BLACK
6
CONTINUOUS
10
5.11308
20
-6.25656
11
5.11683
21
-6.25281
0
LINE
8
BLACK
6
CONTINUOUS
10
5.11683
20
-6.25281
11
5.12433
21
-6.24156
0
LINE
8
BLACK
6
CONTINUOUS
10
5.12433
20
-6.24156
11
5.12807
21
-6.22656
0
LINE
8
BLACK
6
CONTINUOUS
10
5.12807
20
-6.22656
11
5.12807
21
-6.19656
0
LINE
8
BLACK
6
CONTINUOUS
10
5.12807
20
-6.19656
11
5.12433
21
-6.18906
0
LINE
8
BLACK
6
CONTINUOUS
10
5.12433
20
-6.18906
11
5.12058
21
-6.18531
0
LINE
8
BLACK
6
CONTINUOUS
10
5.12058
20
-6.18531
11
5.11308
21
-6.18157
0
LINE
8
BLACK
6
CONTINUOUS
10
5.11308
20
-6.18157
11
5.09808
21
-6.18157
0
LINE
8
BLACK
6
CONTINUOUS
10
5.09808
20
-6.18157
11
5.09058
21
-6.18531
0
LINE
8
BLACK
6
CONTINUOUS
10
5.09058
20
-6.18531
11
5.08683
21
-6.18906
0
LINE
8
BLACK
6
CONTINUOUS
10
5.08683
20
-6.18906
11
5.08308
21
-6.19656
0
LINE
8
BLACK
6
CONTINUOUS
10
5.08308
20
-6.19656
11
5.08308
21
-6.21531
0
LINE
8
BLACK
6
CONTINUOUS
10
5.08308
20
-6.21531
11
5.08683
21
-6.22281
0
LINE
8
BLACK
6
CONTINUOUS
10
5.08683
20
-6.22281
11
5.09058
21
-6.22656
0
LINE
8
BLACK
6
CONTINUOUS
10
5.09058
20
-6.22656
11
5.09808
21
-6.23031
0
LINE
8
BLACK
6
CONTINUOUS
10
5.09808
20
-6.23031
11
5.11308
21
-6.23031
0
LINE
8
BLACK
6
CONTINUOUS
10
5.11308
20
-6.23031
11
5.12058
21
-6.22656
0
LINE
8
BLACK
6
CONTINUOUS
10
5.12058
20
-6.22656
11
5.12433
21
-6.22281
0
LINE
8
BLACK
6
CONTINUOUS
10
5.12433
20
-6.22281
11
5.12807
21
-6.21531
0
LINE
8
BLACK
6
CONTINUOUS
10
5.19557
20
-6.20781
11
5.19557
21
-6.26031
0
LINE
8
BLACK
6
CONTINUOUS
10
5.17682
20
-6.17782
11
5.15807
21
-6.23406
0
LINE
8
BLACK
6
CONTINUOUS
10
5.15807
20
-6.23406
11
5.20681
21
-6.23406
0
LINE
8
BLACK
6
CONTINUOUS
10
5.23306
20
-6.18157
11
5.23306
21
-6.19656
0
LINE
8
BLACK
6
CONTINUOUS
10
5.26306
20
-6.18157
11
5.26306
21
-6.19656
0
LINE
8
BLACK
6
CONTINUOUS
10
5.37929
20
-6.2903
11
5.37554
21
-6.28655
0
LINE
8
BLACK
6
CONTINUOUS
10
5.37554
20
-6.28655
11
5.36804
21
-6.2753
0
LINE
8
BLACK
6
CONTINUOUS
10
5.36804
20
-6.2753
11
5.3643
21
-6.2678
0
LINE
8
BLACK
6
CONTINUOUS
10
5.3643
20
-6.2678
11
5.36055
21
-6.25656
0
LINE
8
BLACK
6
CONTINUOUS
10
5.36055
20
-6.25656
11
5.3568
21
-6.23781
0
LINE
8
BLACK
6
CONTINUOUS
10
5.3568
20
-6.23781
11
5.3568
21
-6.22281
0
LINE
8
BLACK
6
CONTINUOUS
10
5.3568
20
-6.22281
11
5.36055
21
-6.20406
0
LINE
8
BLACK
6
CONTINUOUS
10
5.36055
20
-6.20406
11
5.3643
21
-6.19281
0
LINE
8
BLACK
6
CONTINUOUS
10
5.3643
20
-6.19281
11
5.36804
21
-6.18531
0
LINE
8
BLACK
6
CONTINUOUS
10
5.36804
20
-6.18531
11
5.37554
21
-6.17407
0
LINE
8
BLACK
6
CONTINUOUS
10
5.37554
20
-6.17407
11
5.37929
21
-6.17032
0
LINE
8
BLACK
6
CONTINUOUS
10
5.45053
20
-6.26031
11
5.40554
21
-6.26031
0
LINE
8
BLACK
6
CONTINUOUS
10
5.42804
20
-6.26031
11
5.42804
21
-6.18157
0
LINE
8
BLACK
6
CONTINUOUS
10
5.42804
20
-6.18157
11
5.42054
21
-6.19281
0
LINE
8
BLACK
6
CONTINUOUS
10
5.42054
20
-6.19281
11
5.41304
21
-6.20031
0
LINE
8
BLACK
6
CONTINUOUS
10
5.41304
20
-6.20031
11
5.40554
21
-6.20406
0
LINE
8
BLACK
6
CONTINUOUS
10
5.49928
20
-6.18157
11
5.50678
21
-6.18157
0
LINE
8
BLACK
6
CONTINUOUS
10
5.50678
20
-6.18157
11
5.51428
21
-6.18531
0
LINE
8
BLACK
6
CONTINUOUS
10
5.51428
20
-6.18531
11
5.51803
21
-6.18906
0
LINE
8
BLACK
6
CONTINUOUS
10
5.51803
20
-6.18906
11
5.52178
21
-6.19656
0
LINE
8
BLACK
6
CONTINUOUS
10
5.52178
20
-6.19656
11
5.52552
21
-6.21156
0
LINE
8
BLACK
6
CONTINUOUS
10
5.52552
20
-6.21156
11
5.52552
21
-6.23031
0
LINE
8
BLACK
6
CONTINUOUS
10
5.52552
20
-6.23031
11
5.52178
21
-6.24531
0
LINE
8
BLACK
6
CONTINUOUS
10
5.52178
20
-6.24531
11
5.51803
21
-6.25281
0
LINE
8
BLACK
6
CONTINUOUS
10
5.51803
20
-6.25281
11
5.51428
21
-6.25656
0
LINE
8
BLACK
6
CONTINUOUS
10
5.51428
20
-6.25656
11
5.50678
21
-6.26031
0
LINE
8
BLACK
6
CONTINUOUS
10
5.50678
20
-6.26031
11
5.49928
21
-6.26031
0
LINE
8
BLACK
6
CONTINUOUS
10
5.49928
20
-6.26031
11
5.49178
21
-6.25656
0
LINE
8
BLACK
6
CONTINUOUS
10
5.49178
20
-6.25656
11
5.48803
21
-6.25281
0
LINE
8
BLACK
6
CONTINUOUS
10
5.48803
20
-6.25281
11
5.48428
21
-6.24531
0
LINE
8
BLACK
6
CONTINUOUS
10
5.48428
20
-6.24531
11
5.48053
21
-6.23031
0
LINE
8
BLACK
6
CONTINUOUS
10
5.48053
20
-6.23031
11
5.48053
21
-6.21156
0
LINE
8
BLACK
6
CONTINUOUS
10
5.48053
20
-6.21156
11
5.48428
21
-6.19656
0
LINE
8
BLACK
6
CONTINUOUS
10
5.48428
20
-6.19656
11
5.48803
21
-6.18906
0
LINE
8
BLACK
6
CONTINUOUS
10
5.48803
20
-6.18906
11
5.49178
21
-6.18531
0
LINE
8
BLACK
6
CONTINUOUS
10
5.49178
20
-6.18531
11
5.49928
21
-6.18157
0
LINE
8
BLACK
6
CONTINUOUS
10
5.57427
20
-6.18157
11
5.58177
21
-6.18157
0
LINE
8
BLACK
6
CONTINUOUS
10
5.58177
20
-6.18157
11
5.58927
21
-6.18531
0
LINE
8
BLACK
6
CONTINUOUS
10
5.58927
20
-6.18531
11
5.59302
21
-6.18906
0
LINE
8
BLACK
6
CONTINUOUS
10
5.59302
20
-6.18906
11
5.59677
21
-6.19656
0
LINE
8
BLACK
6
CONTINUOUS
10
5.59677
20
-6.19656
11
5.60052
21
-6.21156
0
LINE
8
BLACK
6
CONTINUOUS
10
5.60052
20
-6.21156
11
5.60052
21
-6.23031
0
LINE
8
BLACK
6
CONTINUOUS
10
5.60052
20
-6.23031
11
5.59677
21
-6.24531
0
LINE
8
BLACK
6
CONTINUOUS
10
5.59677
20
-6.24531
11
5.59302
21
-6.25281
0
LINE
8
BLACK
6
CONTINUOUS
10
5.59302
20
-6.25281
11
5.58927
21
-6.25656
0
LINE
8
BLACK
6
CONTINUOUS
10
5.58927
20
-6.25656
11
5.58177
21
-6.26031
0
LINE
8
BLACK
6
CONTINUOUS
10
5.58177
20
-6.26031
11
5.57427
21
-6.26031
0
LINE
8
BLACK
6
CONTINUOUS
10
5.57427
20
-6.26031
11
5.56677
21
-6.25656
0
LINE
8
BLACK
6
CONTINUOUS
10
5.56677
20
-6.25656
11
5.56302
21
-6.25281
0
LINE
8
BLACK
6
CONTINUOUS
10
5.56302
20
-6.25281
11
5.55927
21
-6.24531
0
LINE
8
BLACK
6
CONTINUOUS
10
5.55927
20
-6.24531
11
5.55552
21
-6.23031
0
LINE
8
BLACK
6
CONTINUOUS
10
5.55552
20
-6.23031
11
5.55552
21
-6.21156
0
LINE
8
BLACK
6
CONTINUOUS
10
5.55552
20
-6.21156
11
5.55927
21
-6.19656
0
LINE
8
BLACK
6
CONTINUOUS
10
5.55927
20
-6.19656
11
5.56302
21
-6.18906
0
LINE
8
BLACK
6
CONTINUOUS
10
5.56302
20
-6.18906
11
5.56677
21
-6.18531
0
LINE
8
BLACK
6
CONTINUOUS
10
5.56677
20
-6.18531
11
5.57427
21
-6.18157
0
LINE
8
BLACK
6
CONTINUOUS
10
5.69425
20
-6.26031
11
5.69425
21
-6.18157
0
LINE
8
BLACK
6
CONTINUOUS
10
5.728
20
-6.26031
11
5.728
21
-6.21906
0
LINE
8
BLACK
6
CONTINUOUS
10
5.728
20
-6.21906
11
5.72425
21
-6.21156
0
LINE
8
BLACK
6
CONTINUOUS
10
5.72425
20
-6.21156
11
5.71675
21
-6.20781
0
LINE
8
BLACK
6
CONTINUOUS
10
5.71675
20
-6.20781
11
5.7055
21
-6.20781
0
LINE
8
BLACK
6
CONTINUOUS
10
5.7055
20
-6.20781
11
5.698
21
-6.21156
0
LINE
8
BLACK
6
CONTINUOUS
10
5.698
20
-6.21156
11
5.69425
21
-6.21531
0
LINE
8
BLACK
6
CONTINUOUS
10
5.77674
20
-6.26031
11
5.76924
21
-6.25656
0
LINE
8
BLACK
6
CONTINUOUS
10
5.76924
20
-6.25656
11
5.76549
21
-6.25281
0
LINE
8
BLACK
6
CONTINUOUS
10
5.76549
20
-6.25281
11
5.76175
21
-6.24531
0
LINE
8
BLACK
6
CONTINUOUS
10
5.76175
20
-6.24531
11
5.76175
21
-6.22281
0
LINE
8
BLACK
6
CONTINUOUS
10
5.76175
20
-6.22281
11
5.76549
21
-6.21531
0
LINE
8
BLACK
6
CONTINUOUS
10
5.76549
20
-6.21531
11
5.76924
21
-6.21156
0
LINE
8
BLACK
6
CONTINUOUS
10
5.76924
20
-6.21156
11
5.77674
21
-6.20781
0
LINE
8
BLACK
6
CONTINUOUS
10
5.77674
20
-6.20781
11
5.78799
21
-6.20781
0
LINE
8
BLACK
6
CONTINUOUS
10
5.78799
20
-6.20781
11
5.79549
21
-6.21156
0
LINE
8
BLACK
6
CONTINUOUS
10
5.79549
20
-6.21156
11
5.79924
21
-6.21531
0
LINE
8
BLACK
6
CONTINUOUS
10
5.79924
20
-6.21531
11
5.80299
21
-6.22281
0
LINE
8
BLACK
6
CONTINUOUS
10
5.80299
20
-6.22281
11
5.80299
21
-6.24531
0
LINE
8
BLACK
6
CONTINUOUS
10
5.80299
20
-6.24531
11
5.79924
21
-6.25281
0
LINE
8
BLACK
6
CONTINUOUS
10
5.79924
20
-6.25281
11
5.79549
21
-6.25656
0
LINE
8
BLACK
6
CONTINUOUS
10
5.79549
20
-6.25656
11
5.78799
21
-6.26031
0
LINE
8
BLACK
6
CONTINUOUS
10
5.78799
20
-6.26031
11
5.77674
21
-6.26031
0
LINE
8
BLACK
6
CONTINUOUS
10
5.84798
20
-6.26031
11
5.84049
21
-6.25656
0
LINE
8
BLACK
6
CONTINUOUS
10
5.84049
20
-6.25656
11
5.83674
21
-6.24906
0
LINE
8
BLACK
6
CONTINUOUS
10
5.83674
20
-6.24906
11
5.83674
21
-6.18157
0
LINE
8
BLACK
6
CONTINUOUS
10
5.90798
20
-6.25656
11
5.90048
21
-6.26031
0
LINE
8
BLACK
6
CONTINUOUS
10
5.90048
20
-6.26031
11
5.88548
21
-6.26031
0
LINE
8
BLACK
6
CONTINUOUS
10
5.88548
20
-6.26031
11
5.87798
21
-6.25656
0
LINE
8
BLACK
6
CONTINUOUS
10
5.87798
20
-6.25656
11
5.87423
21
-6.24906
0
LINE
8
BLACK
6
CONTINUOUS
10
5.87423
20
-6.24906
11
5.87423
21
-6.21906
0
LINE
8
BLACK
6
CONTINUOUS
10
5.87423
20
-6.21906
11
5.87798
21
-6.21156
0
LINE
8
BLACK
6
CONTINUOUS
10
5.87798
20
-6.21156
11
5.88548
21
-6.20781
0
LINE
8
BLACK
6
CONTINUOUS
10
5.88548
20
-6.20781
11
5.90048
21
-6.20781
0
LINE
8
BLACK
6
CONTINUOUS
10
5.90048
20
-6.20781
11
5.90798
21
-6.21156
0
LINE
8
BLACK
6
CONTINUOUS
10
5.90798
20
-6.21156
11
5.91173
21
-6.21906
0
LINE
8
BLACK
6
CONTINUOUS
10
5.91173
20
-6.21906
11
5.91173
21
-6.22656
0
LINE
8
BLACK
6
CONTINUOUS
10
5.91173
20
-6.22656
11
5.87423
21
-6.23406
0
LINE
8
BLACK
6
CONTINUOUS
10
5.94172
20
-6.25656
11
5.94922
21
-6.26031
0
LINE
8
BLACK
6
CONTINUOUS
10
5.94922
20
-6.26031
11
5.96422
21
-6.26031
0
LINE
8
BLACK
6
CONTINUOUS
10
5.96422
20
-6.26031
11
5.97172
21
-6.25656
0
LINE
8
BLACK
6
CONTINUOUS
10
5.97172
20
-6.25656
11
5.97547
21
-6.24906
0
LINE
8
BLACK
6
CONTINUOUS
10
5.97547
20
-6.24906
11
5.97547
21
-6.24531
0
LINE
8
BLACK
6
CONTINUOUS
10
5.97547
20
-6.24531
11
5.97172
21
-6.23781
0
LINE
8
BLACK
6
CONTINUOUS
10
5.97172
20
-6.23781
11
5.96422
21
-6.23406
0
LINE
8
BLACK
6
CONTINUOUS
10
5.96422
20
-6.23406
11
5.95297
21
-6.23406
0
LINE
8
BLACK
6
CONTINUOUS
10
5.95297
20
-6.23406
11
5.94547
21
-6.23031
0
LINE
8
BLACK
6
CONTINUOUS
10
5.94547
20
-6.23031
11
5.94172
21
-6.22281
0
LINE
8
BLACK
6
CONTINUOUS
10
5.94172
20
-6.22281
11
5.94172
21
-6.21906
0
LINE
8
BLACK
6
CONTINUOUS
10
5.94172
20
-6.21906
11
5.94547
21
-6.21156
0
LINE
8
BLACK
6
CONTINUOUS
10
5.94547
20
-6.21156
11
5.95297
21
-6.20781
0
LINE
8
BLACK
6
CONTINUOUS
10
5.95297
20
-6.20781
11
5.96422
21
-6.20781
0
LINE
8
BLACK
6
CONTINUOUS
10
5.96422
20
-6.20781
11
5.97172
21
-6.21156
0
LINE
8
BLACK
6
CONTINUOUS
10
6.00172
20
-6.2903
11
6.00546
21
-6.28655
0
LINE
8
BLACK
6
CONTINUOUS
10
6.00546
20
-6.28655
11
6.01296
21
-6.2753
0
LINE
8
BLACK
6
CONTINUOUS
10
6.01296
20
-6.2753
11
6.01671
21
-6.2678
0
LINE
8
BLACK
6
CONTINUOUS
10
6.01671
20
-6.2678
11
6.02046
21
-6.25656
0
LINE
8
BLACK
6
CONTINUOUS
10
6.02046
20
-6.25656
11
6.02421
21
-6.23781
0
LINE
8
BLACK
6
CONTINUOUS
10
6.02421
20
-6.23781
11
6.02421
21
-6.22281
0
LINE
8
BLACK
6
CONTINUOUS
10
6.02421
20
-6.22281
11
6.02046
21
-6.20406
0
LINE
8
BLACK
6
CONTINUOUS
10
6.02046
20
-6.20406
11
6.01671
21
-6.19281
0
LINE
8
BLACK
6
CONTINUOUS
10
6.01671
20
-6.19281
11
6.01296
21
-6.18531
0
LINE
8
BLACK
6
CONTINUOUS
10
6.01296
20
-6.18531
11
6.00546
21
-6.17407
0
LINE
8
BLACK
6
CONTINUOUS
10
6.00546
20
-6.17407
11
6.00172
21
-6.17032
0
LINE
8
BLACK
6
CONTINUOUS
10
3.92185
20
-6.30303
11
3.97303
21
-6.35421
0
LINE
8
BLACK
6
CONTINUOUS
10
3.97303
20
-6.30303
11
3.92185
21
-6.35421
0
CIRCLE
8
BLACK
10
3.94744
20
-6.32862
40
0.0255906
0
LINE
8
BLACK
6
CONTINUOUS
10
4.1157
20
-6.36424
11
4.07071
21
-6.36424
0
LINE
8
BLACK
6
CONTINUOUS
10
4.0932
20
-6.36424
11
4.0932
21
-6.2855
0
LINE
8
BLACK
6
CONTINUOUS
10
4.0932
20
-6.2855
11
4.0857
21
-6.29675
0
LINE
8
BLACK
6
CONTINUOUS
10
4.0857
20
-6.29675
11
4.07821
21
-6.30425
0
LINE
8
BLACK
6
CONTINUOUS
10
4.07821
20
-6.30425
11
4.07071
21
-6.308
0
LINE
8
BLACK
6
CONTINUOUS
10
4.14945
20
-6.35674
11
4.1532
21
-6.36049
0
LINE
8
BLACK
6
CONTINUOUS
10
4.1532
20
-6.36049
11
4.14945
21
-6.36424
0
LINE
8
BLACK
6
CONTINUOUS
10
4.14945
20
-6.36424
11
4.1457
21
-6.36049
0
LINE
8
BLACK
6
CONTINUOUS
10
4.1457
20
-6.36049
11
4.14945
21
-6.35674
0
LINE
8
BLACK
6
CONTINUOUS
10
4.14945
20
-6.35674
11
4.14945
21
-6.36424
0
LINE
8
BLACK
6
CONTINUOUS
10
4.17944
20
-6.2855
11
4.22819
21
-6.2855
0
LINE
8
BLACK
6
CONTINUOUS
10
4.22819
20
-6.2855
11
4.20194
21
-6.3155
0
LINE
8
BLACK
6
CONTINUOUS
10
4.20194
20
-6.3155
11
4.21319
21
-6.3155
0
LINE
8
BLACK
6
CONTINUOUS
10
4.21319
20
-6.3155
11
4.22069
21
-6.31925
0
LINE
8
BLACK
6
CONTINUOUS
10
4.22069
20
-6.31925
11
4.22444
21
-6.323
0
LINE
8
BLACK
6
CONTINUOUS
10
4.22444
20
-6.323
11
4.22819
21
-6.3305
0
LINE
8
BLACK
6
CONTINUOUS
10
4.22819
20
-6.3305
11
4.22819
21
-6.34924
0
LINE
8
BLACK
6
CONTINUOUS
10
4.22819
20
-6.34924
11
4.22444
21
-6.35674
0
LINE
8
BLACK
6
CONTINUOUS
10
4.22444
20
-6.35674
11
4.22069
21
-6.36049
0
LINE
8
BLACK
6
CONTINUOUS
10
4.22069
20
-6.36049
11
4.21319
21
-6.36424
0
LINE
8
BLACK
6
CONTINUOUS
10
4.21319
20
-6.36424
11
4.19069
21
-6.36424
0
LINE
8
BLACK
6
CONTINUOUS
10
4.19069
20
-6.36424
11
4.18319
21
-6.36049
0
LINE
8
BLACK
6
CONTINUOUS
10
4.18319
20
-6.36049
11
4.17944
21
-6.35674
0
LINE
8
BLACK
6
CONTINUOUS
10
4.27693
20
-6.2855
11
4.28443
21
-6.2855
0
LINE
8
BLACK
6
CONTINUOUS
10
4.28443
20
-6.2855
11
4.29193
21
-6.28925
0
LINE
8
BLACK
6
CONTINUOUS
10
4.29193
20
-6.28925
11
4.29568
21
-6.293
0
LINE
8
BLACK
6
CONTINUOUS
10
4.29568
20
-6.293
11
4.29943
21
-6.3005
0
LINE
8
BLACK
6
CONTINUOUS
10
4.29943
20
-6.3005
11
4.30318
21
-6.3155
0
LINE
8
BLACK
6
CONTINUOUS
10
4.30318
20
-6.3155
11
4.30318
21
-6.33425
0
LINE
8
BLACK
6
CONTINUOUS
10
4.30318
20
-6.33425
11
4.29943
21
-6.34924
0
LINE
8
BLACK
6
CONTINUOUS
10
4.29943
20
-6.34924
11
4.29568
21
-6.35674
0
LINE
8
BLACK
6
CONTINUOUS
10
4.29568
20
-6.35674
11
4.29193
21
-6.36049
0
LINE
8
BLACK
6
CONTINUOUS
10
4.29193
20
-6.36049
11
4.28443
21
-6.36424
0
LINE
8
BLACK
6
CONTINUOUS
10
4.28443
20
-6.36424
11
4.27693
21
-6.36424
0
LINE
8
BLACK
6
CONTINUOUS
10
4.27693
20
-6.36424
11
4.26943
21
-6.36049
0
LINE
8
BLACK
6
CONTINUOUS
10
4.26943
20
-6.36049
11
4.26568
21
-6.35674
0
LINE
8
BLACK
6
CONTINUOUS
10
4.26568
20
-6.35674
11
4.26193
21
-6.34924
0
LINE
8
BLACK
6
CONTINUOUS
10
4.26193
20
-6.34924
11
4.25818
21
-6.33425
0
LINE
8
BLACK
6
CONTINUOUS
10
4.25818
20
-6.33425
11
4.25818
21
-6.3155
0
LINE
8
BLACK
6
CONTINUOUS
10
4.25818
20
-6.3155
11
4.26193
21
-6.3005
0
LINE
8
BLACK
6
CONTINUOUS
10
4.26193
20
-6.3005
11
4.26568
21
-6.293
0
LINE
8
BLACK
6
CONTINUOUS
10
4.26568
20
-6.293
11
4.26943
21
-6.28925
0
LINE
8
BLACK
6
CONTINUOUS
10
4.26943
20
-6.28925
11
4.27693
21
-6.2855
0
LINE
8
BLACK
6
CONTINUOUS
10
4.35192
20
-6.2855
11
4.35942
21
-6.2855
0
LINE
8
BLACK
6
CONTINUOUS
10
4.35942
20
-6.2855
11
4.36692
21
-6.28925
0
LINE
8
BLACK
6
CONTINUOUS
10
4.36692
20
-6.28925
11
4.37067
21
-6.293
0
LINE
8
BLACK
6
CONTINUOUS
10
4.37067
20
-6.293
11
4.37442
21
-6.3005
0
LINE
8
BLACK
6
CONTINUOUS
10
4.37442
20
-6.3005
11
4.37817
21
-6.3155
0
LINE
8
BLACK
6
CONTINUOUS
10
4.37817
20
-6.3155
11
4.37817
21
-6.33425
0
LINE
8
BLACK
6
CONTINUOUS
10
4.37817
20
-6.33425
11
4.37442
21
-6.34924
0
LINE
8
BLACK
6
CONTINUOUS
10
4.37442
20
-6.34924
11
4.37067
21
-6.35674
0
LINE
8
BLACK
6
CONTINUOUS
10
4.37067
20
-6.35674
11
4.36692
21
-6.36049
0
LINE
8
BLACK
6
CONTINUOUS
10
4.36692
20
-6.36049
11
4.35942
21
-6.36424
0
LINE
8
BLACK
6
CONTINUOUS
10
4.35942
20
-6.36424
11
4.35192
21
-6.36424
0
LINE
8
BLACK
6
CONTINUOUS
10
4.35192
20
-6.36424
11
4.34442
21
-6.36049
0
LINE
8
BLACK
6
CONTINUOUS
10
4.34442
20
-6.36049
11
4.34067
21
-6.35674
0
LINE
8
BLACK
6
CONTINUOUS
10
4.34067
20
-6.35674
11
4.33692
21
-6.34924
0
LINE
8
BLACK
6
CONTINUOUS
10
4.33692
20
-6.34924
11
4.33317
21
-6.33425
0
LINE
8
BLACK
6
CONTINUOUS
10
4.33317
20
-6.33425
11
4.33317
21
-6.3155
0
LINE
8
BLACK
6
CONTINUOUS
10
4.33317
20
-6.3155
11
4.33692
21
-6.3005
0
LINE
8
BLACK
6
CONTINUOUS
10
4.33692
20
-6.3005
11
4.34067
21
-6.293
0
LINE
8
BLACK
6
CONTINUOUS
10
4.34067
20
-6.293
11
4.34442
21
-6.28925
0
LINE
8
BLACK
6
CONTINUOUS
10
4.34442
20
-6.28925
11
4.35192
21
-6.2855
0
LINE
8
BLACK
6
CONTINUOUS
10
4.41191
20
-6.36424
11
4.41191
21
-6.31175
0
LINE
8
BLACK
6
CONTINUOUS
10
4.41191
20
-6.31925
11
4.41566
21
-6.3155
0
LINE
8
BLACK
6
CONTINUOUS
10
4.41566
20
-6.3155
11
4.42316
21
-6.31175
0
LINE
8
BLACK
6
CONTINUOUS
10
4.42316
20
-6.31175
11
4.43441
21
-6.31175
0
LINE
8
BLACK
6
CONTINUOUS
10
4.43441
20
-6.31175
11
4.44191
21
-6.3155
0
LINE
8
BLACK
6
CONTINUOUS
10
4.44191
20
-6.3155
11
4.44566
21
-6.323
0
LINE
8
BLACK
6
CONTINUOUS
10
4.44566
20
-6.323
11
4.44566
21
-6.36424
0
LINE
8
BLACK
6
CONTINUOUS
10
4.44566
20
-6.323
11
4.44941
21
-6.3155
0
LINE
8
BLACK
6
CONTINUOUS
10
4.44941
20
-6.3155
11
4.45691
21
-6.31175
0
LINE
8
BLACK
6
CONTINUOUS
10
4.45691
20
-6.31175
11
4.46816
21
-6.31175
0
LINE
8
BLACK
6
CONTINUOUS
10
4.46816
20
-6.31175
11
4.47566
21
-6.3155
0
LINE
8
BLACK
6
CONTINUOUS
10
4.47566
20
-6.3155
11
4.47941
21
-6.323
0
LINE
8
BLACK
6
CONTINUOUS
10
4.47941
20
-6.323
11
4.47941
21
-6.36424
0
LINE
8
BLACK
6
CONTINUOUS
10
4.5169
20
-6.36424
11
4.5169
21
-6.31175
0
LINE
8
BLACK
6
CONTINUOUS
10
4.5169
20
-6.31925
11
4.52065
21
-6.3155
0
LINE
8
BLACK
6
CONTINUOUS
10
4.52065
20
-6.3155
11
4.52815
21
-6.31175
0
LINE
8
BLACK
6
CONTINUOUS
10
4.52815
20
-6.31175
11
4.5394
21
-6.31175
0
LINE
8
BLACK
6
CONTINUOUS
10
4.5394
20
-6.31175
11
4.5469
21
-6.3155
0
LINE
8
BLACK
6
CONTINUOUS
10
4.5469
20
-6.3155
11
4.55065
21
-6.323
0
LINE
8
BLACK
6
CONTINUOUS
10
4.55065
20
-6.323
11
4.55065
21
-6.36424
0
LINE
8
BLACK
6
CONTINUOUS
10
4.55065
20
-6.323
11
4.5544
21
-6.3155
0
LINE
8
BLACK
6
CONTINUOUS
10
4.5544
20
-6.3155
11
4.5619
21
-6.31175
0
LINE
8
BLACK
6
CONTINUOUS
10
4.5619
20
-6.31175
11
4.57314
21
-6.31175
0
LINE
8
BLACK
6
CONTINUOUS
10
4.57314
20
-6.31175
11
4.58064
21
-6.3155
0
LINE
8
BLACK
6
CONTINUOUS
10
4.58064
20
-6.3155
11
4.58439
21
-6.323
0
LINE
8
BLACK
6
CONTINUOUS
10
4.58439
20
-6.323
11
4.58439
21
-6.36424
0
LINE
8
BLACK
6
CONTINUOUS
10
4.73812
20
-6.28175
11
4.67063
21
-6.38299
0
LINE
8
BLACK
6
CONTINUOUS
10
4.83936
20
-6.2855
11
4.84686
21
-6.2855
0
LINE
8
BLACK
6
CONTINUOUS
10
4.84686
20
-6.2855
11
4.85436
21
-6.28925
0
LINE
8
BLACK
6
CONTINUOUS
10
4.85436
20
-6.28925
11
4.85811
21
-6.293
0
LINE
8
BLACK
6
CONTINUOUS
10
4.85811
20
-6.293
11
4.86186
21
-6.3005
0
LINE
8
BLACK
6
CONTINUOUS
10
4.86186
20
-6.3005
11
4.86561
21
-6.3155
0
LINE
8
BLACK
6
CONTINUOUS
10
4.86561
20
-6.3155
11
4.86561
21
-6.33425
0
LINE
8
BLACK
6
CONTINUOUS
10
4.86561
20
-6.33425
11
4.86186
21
-6.34924
0
LINE
8
BLACK
6
CONTINUOUS
10
4.86186
20
-6.34924
11
4.85811
21
-6.35674
0
LINE
8
BLACK
6
CONTINUOUS
10
4.85811
20
-6.35674
11
4.85436
21
-6.36049
0
LINE
8
BLACK
6
CONTINUOUS
10
4.85436
20
-6.36049
11
4.84686
21
-6.36424
0
LINE
8
BLACK
6
CONTINUOUS
10
4.84686
20
-6.36424
11
4.83936
21
-6.36424
0
LINE
8
BLACK
6
CONTINUOUS
10
4.83936
20
-6.36424
11
4.83186
21
-6.36049
0
LINE
8
BLACK
6
CONTINUOUS
10
4.83186
20
-6.36049
11
4.82811
21
-6.35674
0
LINE
8
BLACK
6
CONTINUOUS
10
4.82811
20
-6.35674
11
4.82436
21
-6.34924
0
LINE
8
BLACK
6
CONTINUOUS
10
4.82436
20
-6.34924
11
4.82061
21
-6.33425
0
LINE
8
BLACK
6
CONTINUOUS
10
4.82061
20
-6.33425
11
4.82061
21
-6.3155
0
LINE
8
BLACK
6
CONTINUOUS
10
4.82061
20
-6.3155
11
4.82436
21
-6.3005
0
LINE
8
BLACK
6
CONTINUOUS
10
4.82436
20
-6.3005
11
4.82811
21
-6.293
0
LINE
8
BLACK
6
CONTINUOUS
10
4.82811
20
-6.293
11
4.83186
21
-6.28925
0
LINE
8
BLACK
6
CONTINUOUS
10
4.83186
20
-6.28925
11
4.83936
21
-6.2855
0
LINE
8
BLACK
6
CONTINUOUS
10
4.89935
20
-6.35674
11
4.9031
21
-6.36049
0
LINE
8
BLACK
6
CONTINUOUS
10
4.9031
20
-6.36049
11
4.89935
21
-6.36424
0
LINE
8
BLACK
6
CONTINUOUS
10
4.89935
20
-6.36424
11
4.8956
21
-6.36049
0
LINE
8
BLACK
6
CONTINUOUS
10
4.8956
20
-6.36049
11
4.89935
21
-6.35674
0
LINE
8
BLACK
6
CONTINUOUS
10
4.89935
20
-6.35674
11
4.89935
21
-6.36424
0
LINE
8
BLACK
6
CONTINUOUS
10
4.95185
20
-6.2855
11
4.95935
21
-6.2855
0
LINE
8
BLACK
6
CONTINUOUS
10
4.95935
20
-6.2855
11
4.96684
21
-6.28925
0
LINE
8
BLACK
6
CONTINUOUS
10
4.96684
20
-6.28925
11
4.97059
21
-6.293
0
LINE
8
BLACK
6
CONTINUOUS
10
4.97059
20
-6.293
11
4.97434
21
-6.3005
0
LINE
8
BLACK
6
CONTINUOUS
10
4.97434
20
-6.3005
11
4.97809
21
-6.3155
0
LINE
8
BLACK
6
CONTINUOUS
10
4.97809
20
-6.3155
11
4.97809
21
-6.33425
0
LINE
8
BLACK
6
CONTINUOUS
10
4.97809
20
-6.33425
11
4.97434
21
-6.34924
0
LINE
8
BLACK
6
CONTINUOUS
10
4.97434
20
-6.34924
11
4.97059
21
-6.35674
0
LINE
8
BLACK
6
CONTINUOUS
10
4.97059
20
-6.35674
11
4.96684
21
-6.36049
0
LINE
8
BLACK
6
CONTINUOUS
10
4.96684
20
-6.36049
11
4.95935
21
-6.36424
0
LINE
8
BLACK
6
CONTINUOUS
10
4.95935
20
-6.36424
11
4.95185
21
-6.36424
0
LINE
8
BLACK
6
CONTINUOUS
10
4.95185
20
-6.36424
11
4.94435
21
-6.36049
0
LINE
8
BLACK
6
CONTINUOUS
10
4.94435
20
-6.36049
11
4.9406
21
-6.35674
0
LINE
8
BLACK
6
CONTINUOUS
10
4.9406
20
-6.35674
11
4.93685
21
-6.34924
0
LINE
8
BLACK
6
CONTINUOUS
10
4.93685
20
-6.34924
11
4.9331
21
-6.33425
0
LINE
8
BLACK
6
CONTINUOUS
10
4.9331
20
-6.33425
11
4.9331
21
-6.3155
0
LINE
8
BLACK
6
CONTINUOUS
10
4.9331
20
-6.3155
11
4.93685
21
-6.3005
0
LINE
8
BLACK
6
CONTINUOUS
10
4.93685
20
-6.3005
11
4.9406
21
-6.293
0
LINE
8
BLACK
6
CONTINUOUS
10
4.9406
20
-6.293
11
4.94435
21
-6.28925
0
LINE
8
BLACK
6
CONTINUOUS
10
4.94435
20
-6.28925
11
4.95185
21
-6.2855
0
LINE
8
BLACK
6
CONTINUOUS
10
5.04933
20
-6.2855
11
5.01184
21
-6.2855
0
LINE
8
BLACK
6
CONTINUOUS
10
5.01184
20
-6.2855
11
5.00809
21
-6.323
0
LINE
8
BLACK
6
CONTINUOUS
10
5.00809
20
-6.323
11
5.01184
21
-6.31925
0
LINE
8
BLACK
6
CONTINUOUS
10
5.01184
20
-6.31925
11
5.01934
21
-6.3155
0
LINE
8
BLACK
6
CONTINUOUS
10
5.01934
20
-6.3155
11
5.03809
21
-6.3155
0
LINE
8
BLACK
6
CONTINUOUS
10
5.03809
20
-6.3155
11
5.04558
21
-6.31925
0
LINE
8
BLACK
6
CONTINUOUS
10
5.04558
20
-6.31925
11
5.04933
21
-6.323
0
LINE
8
BLACK
6
CONTINUOUS
10
5.04933
20
-6.323
11
5.05308
21
-6.3305
0
LINE
8
BLACK
6
CONTINUOUS
10
5.05308
20
-6.3305
11
5.05308
21
-6.34924
0
LINE
8
BLACK
6
CONTINUOUS
10
5.05308
20
-6.34924
11
5.04933
21
-6.35674
0
LINE
8
BLACK
6
CONTINUOUS
10
5.04933
20
-6.35674
11
5.04558
21
-6.36049
0
LINE
8
BLACK
6
CONTINUOUS
10
5.04558
20
-6.36049
11
5.03809
21
-6.36424
0
LINE
8
BLACK
6
CONTINUOUS
10
5.03809
20
-6.36424
11
5.01934
21
-6.36424
0
LINE
8
BLACK
6
CONTINUOUS
10
5.01934
20
-6.36424
11
5.01184
21
-6.36049
0
LINE
8
BLACK
6
CONTINUOUS
10
5.01184
20
-6.36049
11
5.00809
21
-6.35674
0
LINE
8
BLACK
6
CONTINUOUS
10
5.12807
20
-6.36424
11
5.08308
21
-6.36424
0
LINE
8
BLACK
6
CONTINUOUS
10
5.10558
20
-6.36424
11
5.10558
21
-6.2855
0
LINE
8
BLACK
6
CONTINUOUS
10
5.10558
20
-6.2855
11
5.09808
21
-6.29675
0
LINE
8
BLACK
6
CONTINUOUS
10
5.09808
20
-6.29675
11
5.09058
21
-6.30425
0
LINE
8
BLACK
6
CONTINUOUS
10
5.09058
20
-6.30425
11
5.08308
21
-6.308
0
LINE
8
BLACK
6
CONTINUOUS
10
5.15807
20
-6.293
11
5.16182
21
-6.28925
0
LINE
8
BLACK
6
CONTINUOUS
10
5.16182
20
-6.28925
11
5.16932
21
-6.2855
0
LINE
8
BLACK
6
CONTINUOUS
10
5.16932
20
-6.2855
11
5.18807
21
-6.2855
0
LINE
8
BLACK
6
CONTINUOUS
10
5.18807
20
-6.2855
11
5.19557
21
-6.28925
0
LINE
8
BLACK
6
CONTINUOUS
10
5.19557
20
-6.28925
11
5.19932
21
-6.293
0
LINE
8
BLACK
6
CONTINUOUS
10
5.19932
20
-6.293
11
5.20307
21
-6.3005
0
LINE
8
BLACK
6
CONTINUOUS
10
5.20307
20
-6.3005
11
5.20307
21
-6.308
0
LINE
8
BLACK
6
CONTINUOUS
10
5.20307
20
-6.308
11
5.19932
21
-6.31925
0
LINE
8
BLACK
6
CONTINUOUS
10
5.19932
20
-6.31925
11
5.15432
21
-6.36424
0
LINE
8
BLACK
6
CONTINUOUS
10
5.15432
20
-6.36424
11
5.20307
21
-6.36424
0
LINE
8
BLACK
6
CONTINUOUS
10
5.23306
20
-6.2855
11
5.23306
21
-6.3005
0
LINE
8
BLACK
6
CONTINUOUS
10
5.26306
20
-6.2855
11
5.26306
21
-6.3005
0
LINE
8
BLACK
6
CONTINUOUS
10
5.37929
20
-6.39424
11
5.37554
21
-6.39049
0
LINE
8
BLACK
6
CONTINUOUS
10
5.37554
20
-6.39049
11
5.36804
21
-6.37924
0
LINE
8
BLACK
6
CONTINUOUS
10
5.36804
20
-6.37924
11
5.3643
21
-6.37174
0
LINE
8
BLACK
6
CONTINUOUS
10
5.3643
20
-6.37174
11
5.36055
21
-6.36049
0
LINE
8
BLACK
6
CONTINUOUS
10
5.36055
20
-6.36049
11
5.3568
21
-6.34175
0
LINE
8
BLACK
6
CONTINUOUS
10
5.3568
20
-6.34175
11
5.3568
21
-6.32675
0
LINE
8
BLACK
6
CONTINUOUS
10
5.3568
20
-6.32675
11
5.36055
21
-6.308
0
LINE
8
BLACK
6
CONTINUOUS
10
5.36055
20
-6.308
11
5.3643
21
-6.29675
0
LINE
8
BLACK
6
CONTINUOUS
10
5.3643
20
-6.29675
11
5.36804
21
-6.28925
0
LINE
8
BLACK
6
CONTINUOUS
10
5.36804
20
-6.28925
11
5.37554
21
-6.278
0
LINE
8
BLACK
6
CONTINUOUS
10
5.37554
20
-6.278
11
5.37929
21
-6.27425
0
LINE
8
BLACK
6
CONTINUOUS
10
5.40554
20
-6.293
11
5.40929
21
-6.28925
0
LINE
8
BLACK
6
CONTINUOUS
10
5.40929
20
-6.28925
11
5.41679
21
-6.2855
0
LINE
8
BLACK
6
CONTINUOUS
10
5.41679
20
-6.2855
11
5.43554
21
-6.2855
0
LINE
8
BLACK
6
CONTINUOUS
10
5.43554
20
-6.2855
11
5.44304
21
-6.28925
0
LINE
8
BLACK
6
CONTINUOUS
10
5.44304
20
-6.28925
11
5.44678
21
-6.293
0
LINE
8
BLACK
6
CONTINUOUS
10
5.44678
20
-6.293
11
5.45053
21
-6.3005
0
LINE
8
BLACK
6
CONTINUOUS
10
5.45053
20
-6.3005
11
5.45053
21
-6.308
0
LINE
8
BLACK
6
CONTINUOUS
10
5.45053
20
-6.308
11
5.44678
21
-6.31925
0
LINE
8
BLACK
6
CONTINUOUS
10
5.44678
20
-6.31925
11
5.40179
21
-6.36424
0
LINE
8
BLACK
6
CONTINUOUS
10
5.40179
20
-6.36424
11
5.45053
21
-6.36424
0
LINE
8
BLACK
6
CONTINUOUS
10
5.54427
20
-6.36424
11
5.54427
21
-6.2855
0
LINE
8
BLACK
6
CONTINUOUS
10
5.57802
20
-6.36424
11
5.57802
21
-6.323
0
LINE
8
BLACK
6
CONTINUOUS
10
5.57802
20
-6.323
11
5.57427
21
-6.3155
0
LINE
8
BLACK
6
CONTINUOUS
10
5.57427
20
-6.3155
11
5.56677
21
-6.31175
0
LINE
8
BLACK
6
CONTINUOUS
10
5.56677
20
-6.31175
11
5.55552
21
-6.31175
0
LINE
8
BLACK
6
CONTINUOUS
10
5.55552
20
-6.31175
11
5.54802
21
-6.3155
0
LINE
8
BLACK
6
CONTINUOUS
10
5.54802
20
-6.3155
11
5.54427
21
-6.31925
0
LINE
8
BLACK
6
CONTINUOUS
10
5.62676
20
-6.36424
11
5.61926
21
-6.36049
0
LINE
8
BLACK
6
CONTINUOUS
10
5.61926
20
-6.36049
11
5.61551
21
-6.35674
0
LINE
8
BLACK
6
CONTINUOUS
10
5.61551
20
-6.35674
11
5.61176
21
-6.34924
0
LINE
8
BLACK
6
CONTINUOUS
10
5.61176
20
-6.34924
11
5.61176
21
-6.32675
0
LINE
8
BLACK
6
CONTINUOUS
10
5.61176
20
-6.32675
11
5.61551
21
-6.31925
0
LINE
8
BLACK
6
CONTINUOUS
10
5.61551
20
-6.31925
11
5.61926
21
-6.3155
0
LINE
8
BLACK
6
CONTINUOUS
10
5.61926
20
-6.3155
11
5.62676
21
-6.31175
0
LINE
8
BLACK
6
CONTINUOUS
10
5.62676
20
-6.31175
11
5.63801
21
-6.31175
0
LINE
8
BLACK
6
CONTINUOUS
10
5.63801
20
-6.31175
11
5.64551
21
-6.3155
0
LINE
8
BLACK
6
CONTINUOUS
10
5.64551
20
-6.3155
11
5.64926
21
-6.31925
0
LINE
8
BLACK
6
CONTINUOUS
10
5.64926
20
-6.31925
11
5.65301
21
-6.32675
0
LINE
8
BLACK
6
CONTINUOUS
10
5.65301
20
-6.32675
11
5.65301
21
-6.34924
0
LINE
8
BLACK
6
CONTINUOUS
10
5.65301
20
-6.34924
11
5.64926
21
-6.35674
0
LINE
8
BLACK
6
CONTINUOUS
10
5.64926
20
-6.35674
11
5.64551
21
-6.36049
0
LINE
8
BLACK
6
CONTINUOUS
10
5.64551
20
-6.36049
11
5.63801
21
-6.36424
0
LINE
8
BLACK
6
CONTINUOUS
10
5.63801
20
-6.36424
11
5.62676
21
-6.36424
0
LINE
8
BLACK
6
CONTINUOUS
10
5.698
20
-6.36424
11
5.6905
21
-6.36049
0
LINE
8
BLACK
6
CONTINUOUS
10
5.6905
20
-6.36049
11
5.68675
21
-6.35299
0
LINE
8
BLACK
6
CONTINUOUS
10
5.68675
20
-6.35299
11
5.68675
21
-6.2855
0
LINE
8
BLACK
6
CONTINUOUS
10
5.758
20
-6.36049
11
5.7505
21
-6.36424
0
LINE
8
BLACK
6
CONTINUOUS
10
5.7505
20
-6.36424
11
5.7355
21
-6.36424
0
LINE
8
BLACK
6
CONTINUOUS
10
5.7355
20
-6.36424
11
5.728
21
-6.36049
0
LINE
8
BLACK
6
CONTINUOUS
10
5.728
20
-6.36049
11
5.72425
21
-6.35299
0
LINE
8
BLACK
6
CONTINUOUS
10
5.72425
20
-6.35299
11
5.72425
21
-6.323
0
LINE
8
BLACK
6
CONTINUOUS
10
5.72425
20
-6.323
11
5.728
21
-6.3155
0
LINE
8
BLACK
6
CONTINUOUS
10
5.728
20
-6.3155
11
5.7355
21
-6.31175
0
LINE
8
BLACK
6
CONTINUOUS
10
5.7355
20
-6.31175
11
5.7505
21
-6.31175
0
LINE
8
BLACK
6
CONTINUOUS
10
5.7505
20
-6.31175
11
5.758
21
-6.3155
0
LINE
8
BLACK
6
CONTINUOUS
10
5.758
20
-6.3155
11
5.76175
21
-6.323
0
LINE
8
BLACK
6
CONTINUOUS
10
5.76175
20
-6.323
11
5.76175
21
-6.3305
0
LINE
8
BLACK
6
CONTINUOUS
10
5.76175
20
-6.3305
11
5.72425
21
-6.338
0
LINE
8
BLACK
6
CONTINUOUS
10
5.79174
20
-6.36049
11
5.79924
21
-6.36424
0
LINE
8
BLACK
6
CONTINUOUS
10
5.79924
20
-6.36424
11
5.81424
21
-6.36424
0
LINE
8
BLACK
6
CONTINUOUS
10
5.81424
20
-6.36424
11
5.82174
21
-6.36049
0
LINE
8
BLACK
6
CONTINUOUS
10
5.82174
20
-6.36049
11
5.82549
21
-6.35299
0
LINE
8
BLACK
6
CONTINUOUS
10
5.82549
20
-6.35299
11
5.82549
21
-6.34924
0
LINE
8
BLACK
6
CONTINUOUS
10
5.82549
20
-6.34924
11
5.82174
21
-6.34175
0
LINE
8
BLACK
6
CONTINUOUS
10
5.82174
20
-6.34175
11
5.81424
21
-6.338
0
LINE
8
BLACK
6
CONTINUOUS
10
5.81424
20
-6.338
11
5.80299
21
-6.338
0
LINE
8
BLACK
6
CONTINUOUS
10
5.80299
20
-6.338
11
5.79549
21
-6.33425
0
LINE
8
BLACK
6
CONTINUOUS
10
5.79549
20
-6.33425
11
5.79174
21
-6.32675
0
LINE
8
BLACK
6
CONTINUOUS
10
5.79174
20
-6.32675
11
5.79174
21
-6.323
0
LINE
8
BLACK
6
CONTINUOUS
10
5.79174
20
-6.323
11
5.79549
21
-6.3155
0
LINE
8
BLACK
6
CONTINUOUS
10
5.79549
20
-6.3155
11
5.80299
21
-6.31175
0
LINE
8
BLACK
6
CONTINUOUS
10
5.80299
20
-6.31175
11
5.81424
21
-6.31175
0
LINE
8
BLACK
6
CONTINUOUS
10
5.81424
20
-6.31175
11
5.82174
21
-6.3155
0
LINE
8
BLACK
6
CONTINUOUS
10
5.85173
20
-6.39424
11
5.85548
21
-6.39049
0
LINE
8
BLACK
6
CONTINUOUS
10
5.85548
20
-6.39049
11
5.86298
21
-6.37924
0
LINE
8
BLACK
6
CONTINUOUS
10
5.86298
20
-6.37924
11
5.86673
21
-6.37174
0
LINE
8
BLACK
6
CONTINUOUS
10
5.86673
20
-6.37174
11
5.87048
21
-6.36049
0
LINE
8
BLACK
6
CONTINUOUS
10
5.87048
20
-6.36049
11
5.87423
21
-6.34175
0
LINE
8
BLACK
6
CONTINUOUS
10
5.87423
20
-6.34175
11
5.87423
21
-6.32675
0
LINE
8
BLACK
6
CONTINUOUS
10
5.87423
20
-6.32675
11
5.87048
21
-6.308
0
LINE
8
BLACK
6
CONTINUOUS
10
5.87048
20
-6.308
11
5.86673
21
-6.29675
0
LINE
8
BLACK
6
CONTINUOUS
10
5.86673
20
-6.29675
11
5.86298
21
-6.28925
0
LINE
8
BLACK
6
CONTINUOUS
10
5.86298
20
-6.28925
11
5.85548
21
-6.278
0
LINE
8
BLACK
6
CONTINUOUS
10
5.85548
20
-6.278
11
5.85173
21
-6.27425
  0
ENDSEC
  0
EOF
