%TF.GenerationSoftware,KiCad,Pcbnew,5.99.0+really5.1.12+dfsg1-1~bpo11+1*%
%TF.CreationDate,2021-12-25T19:54:22+01:00*%
%TF.ProjectId,Audio IN_OUT,41756469-6f20-4494-9e5f-4f55542e6b69,rev?*%
%TF.SameCoordinates,Original*%
%TF.FileFunction,Soldermask,Bot*%
%TF.FilePolarity,Negative*%
%FSLAX46Y46*%
G04 Gerber Fmt 4.6, Leading zero omitted, Abs format (unit mm)*
G04 Created by KiCad (PCBNEW 5.99.0+really5.1.12+dfsg1-1~bpo11+1) date 2021-12-25 19:54:22*
%MOMM*%
%LPD*%
G01*
G04 APERTURE LIST*
%ADD10C,1.620000*%
%ADD11O,1.800000X1.800000*%
%ADD12R,1.800000X1.800000*%
%ADD13O,3.500000X3.500000*%
%ADD14O,1.700000X1.700000*%
%ADD15R,1.700000X1.700000*%
%ADD16R,1.520000X1.520000*%
%ADD17C,3.250000*%
%ADD18C,1.520000*%
%ADD19C,2.250000*%
G04 APERTURE END LIST*
D10*
%TO.C,RV201*%
X165100000Y-140843000D03*
X167600000Y-138343000D03*
X170100000Y-140843000D03*
%TD*%
D11*
%TO.C,U3003*%
X159512000Y-64077000D03*
X163312000Y-62377000D03*
X159512000Y-60677000D03*
X163312000Y-58977000D03*
D12*
X159512000Y-57277000D03*
D13*
X179492000Y-60677000D03*
%TD*%
D14*
%TO.C,J1001*%
X212090000Y-106680000D03*
X214630000Y-106680000D03*
X212090000Y-104140000D03*
X214630000Y-104140000D03*
X212090000Y-101600000D03*
X214630000Y-101600000D03*
X212090000Y-99060000D03*
X214630000Y-99060000D03*
X212090000Y-96520000D03*
X214630000Y-96520000D03*
X212090000Y-93980000D03*
X214630000Y-93980000D03*
X212090000Y-91440000D03*
X214630000Y-91440000D03*
X212090000Y-88900000D03*
X214630000Y-88900000D03*
X212090000Y-86360000D03*
X214630000Y-86360000D03*
X212090000Y-83820000D03*
X214630000Y-83820000D03*
X212090000Y-81280000D03*
X214630000Y-81280000D03*
X212090000Y-78740000D03*
X214630000Y-78740000D03*
X212090000Y-76200000D03*
X214630000Y-76200000D03*
X212090000Y-73660000D03*
X214630000Y-73660000D03*
X212090000Y-71120000D03*
X214630000Y-71120000D03*
X212090000Y-68580000D03*
X214630000Y-68580000D03*
X212090000Y-66040000D03*
X214630000Y-66040000D03*
X212090000Y-63500000D03*
X214630000Y-63500000D03*
X212090000Y-60960000D03*
X214630000Y-60960000D03*
X212090000Y-58420000D03*
D15*
X214630000Y-58420000D03*
%TD*%
%TO.C,J1002*%
X137160000Y-58420000D03*
D14*
X134620000Y-58420000D03*
X137160000Y-60960000D03*
X134620000Y-60960000D03*
X137160000Y-63500000D03*
X134620000Y-63500000D03*
X137160000Y-66040000D03*
X134620000Y-66040000D03*
X137160000Y-68580000D03*
X134620000Y-68580000D03*
X137160000Y-71120000D03*
X134620000Y-71120000D03*
X137160000Y-73660000D03*
X134620000Y-73660000D03*
X137160000Y-76200000D03*
X134620000Y-76200000D03*
X137160000Y-78740000D03*
X134620000Y-78740000D03*
X137160000Y-81280000D03*
X134620000Y-81280000D03*
X137160000Y-83820000D03*
X134620000Y-83820000D03*
X137160000Y-86360000D03*
X134620000Y-86360000D03*
X137160000Y-88900000D03*
X134620000Y-88900000D03*
X137160000Y-91440000D03*
X134620000Y-91440000D03*
X137160000Y-93980000D03*
X134620000Y-93980000D03*
X137160000Y-96520000D03*
X134620000Y-96520000D03*
X137160000Y-99060000D03*
X134620000Y-99060000D03*
X137160000Y-101600000D03*
X134620000Y-101600000D03*
X137160000Y-104140000D03*
X134620000Y-104140000D03*
X137160000Y-106680000D03*
X134620000Y-106680000D03*
%TD*%
D16*
%TO.C,J1003*%
X188595000Y-134112000D03*
D17*
X186685000Y-143002000D03*
D18*
X189865000Y-136652000D03*
X191135000Y-134112000D03*
X192405000Y-136652000D03*
X193675000Y-134112000D03*
X194945000Y-136652000D03*
D17*
X196845000Y-143002000D03*
%TD*%
%TO.C,J1004*%
X144902000Y-143129000D03*
D18*
X143002000Y-136779000D03*
X141732000Y-134239000D03*
X140462000Y-136779000D03*
X139192000Y-134239000D03*
X137922000Y-136779000D03*
D17*
X134742000Y-143129000D03*
D16*
X136652000Y-134239000D03*
%TD*%
%TO.C,R307*%
G36*
G01*
X173146000Y-87651000D02*
X173146000Y-87101000D01*
G75*
G02*
X173346000Y-86901000I200000J0D01*
G01*
X173746000Y-86901000D01*
G75*
G02*
X173946000Y-87101000I0J-200000D01*
G01*
X173946000Y-87651000D01*
G75*
G02*
X173746000Y-87851000I-200000J0D01*
G01*
X173346000Y-87851000D01*
G75*
G02*
X173146000Y-87651000I0J200000D01*
G01*
G37*
G36*
G01*
X174796000Y-87651000D02*
X174796000Y-87101000D01*
G75*
G02*
X174996000Y-86901000I200000J0D01*
G01*
X175396000Y-86901000D01*
G75*
G02*
X175596000Y-87101000I0J-200000D01*
G01*
X175596000Y-87651000D01*
G75*
G02*
X175396000Y-87851000I-200000J0D01*
G01*
X174996000Y-87851000D01*
G75*
G02*
X174796000Y-87651000I0J200000D01*
G01*
G37*
%TD*%
%TO.C,R308*%
G36*
G01*
X177845000Y-87651000D02*
X177845000Y-87101000D01*
G75*
G02*
X178045000Y-86901000I200000J0D01*
G01*
X178445000Y-86901000D01*
G75*
G02*
X178645000Y-87101000I0J-200000D01*
G01*
X178645000Y-87651000D01*
G75*
G02*
X178445000Y-87851000I-200000J0D01*
G01*
X178045000Y-87851000D01*
G75*
G02*
X177845000Y-87651000I0J200000D01*
G01*
G37*
G36*
G01*
X179495000Y-87651000D02*
X179495000Y-87101000D01*
G75*
G02*
X179695000Y-86901000I200000J0D01*
G01*
X180095000Y-86901000D01*
G75*
G02*
X180295000Y-87101000I0J-200000D01*
G01*
X180295000Y-87651000D01*
G75*
G02*
X180095000Y-87851000I-200000J0D01*
G01*
X179695000Y-87851000D01*
G75*
G02*
X179495000Y-87651000I0J200000D01*
G01*
G37*
%TD*%
%TO.C,R309*%
G36*
G01*
X173946000Y-85323000D02*
X173946000Y-85873000D01*
G75*
G02*
X173746000Y-86073000I-200000J0D01*
G01*
X173346000Y-86073000D01*
G75*
G02*
X173146000Y-85873000I0J200000D01*
G01*
X173146000Y-85323000D01*
G75*
G02*
X173346000Y-85123000I200000J0D01*
G01*
X173746000Y-85123000D01*
G75*
G02*
X173946000Y-85323000I0J-200000D01*
G01*
G37*
G36*
G01*
X175596000Y-85323000D02*
X175596000Y-85873000D01*
G75*
G02*
X175396000Y-86073000I-200000J0D01*
G01*
X174996000Y-86073000D01*
G75*
G02*
X174796000Y-85873000I0J200000D01*
G01*
X174796000Y-85323000D01*
G75*
G02*
X174996000Y-85123000I200000J0D01*
G01*
X175396000Y-85123000D01*
G75*
G02*
X175596000Y-85323000I0J-200000D01*
G01*
G37*
%TD*%
%TO.C,R310*%
G36*
G01*
X178645000Y-85323000D02*
X178645000Y-85873000D01*
G75*
G02*
X178445000Y-86073000I-200000J0D01*
G01*
X178045000Y-86073000D01*
G75*
G02*
X177845000Y-85873000I0J200000D01*
G01*
X177845000Y-85323000D01*
G75*
G02*
X178045000Y-85123000I200000J0D01*
G01*
X178445000Y-85123000D01*
G75*
G02*
X178645000Y-85323000I0J-200000D01*
G01*
G37*
G36*
G01*
X180295000Y-85323000D02*
X180295000Y-85873000D01*
G75*
G02*
X180095000Y-86073000I-200000J0D01*
G01*
X179695000Y-86073000D01*
G75*
G02*
X179495000Y-85873000I0J200000D01*
G01*
X179495000Y-85323000D01*
G75*
G02*
X179695000Y-85123000I200000J0D01*
G01*
X180095000Y-85123000D01*
G75*
G02*
X180295000Y-85323000I0J-200000D01*
G01*
G37*
%TD*%
%TO.C,R311*%
G36*
G01*
X173146000Y-83968000D02*
X173146000Y-83418000D01*
G75*
G02*
X173346000Y-83218000I200000J0D01*
G01*
X173746000Y-83218000D01*
G75*
G02*
X173946000Y-83418000I0J-200000D01*
G01*
X173946000Y-83968000D01*
G75*
G02*
X173746000Y-84168000I-200000J0D01*
G01*
X173346000Y-84168000D01*
G75*
G02*
X173146000Y-83968000I0J200000D01*
G01*
G37*
G36*
G01*
X174796000Y-83968000D02*
X174796000Y-83418000D01*
G75*
G02*
X174996000Y-83218000I200000J0D01*
G01*
X175396000Y-83218000D01*
G75*
G02*
X175596000Y-83418000I0J-200000D01*
G01*
X175596000Y-83968000D01*
G75*
G02*
X175396000Y-84168000I-200000J0D01*
G01*
X174996000Y-84168000D01*
G75*
G02*
X174796000Y-83968000I0J200000D01*
G01*
G37*
%TD*%
%TO.C,R312*%
G36*
G01*
X178582000Y-83418000D02*
X178582000Y-83968000D01*
G75*
G02*
X178382000Y-84168000I-200000J0D01*
G01*
X177982000Y-84168000D01*
G75*
G02*
X177782000Y-83968000I0J200000D01*
G01*
X177782000Y-83418000D01*
G75*
G02*
X177982000Y-83218000I200000J0D01*
G01*
X178382000Y-83218000D01*
G75*
G02*
X178582000Y-83418000I0J-200000D01*
G01*
G37*
G36*
G01*
X180232000Y-83418000D02*
X180232000Y-83968000D01*
G75*
G02*
X180032000Y-84168000I-200000J0D01*
G01*
X179632000Y-84168000D01*
G75*
G02*
X179432000Y-83968000I0J200000D01*
G01*
X179432000Y-83418000D01*
G75*
G02*
X179632000Y-83218000I200000J0D01*
G01*
X180032000Y-83218000D01*
G75*
G02*
X180232000Y-83418000I0J-200000D01*
G01*
G37*
%TD*%
D19*
%TO.C,J101*%
X151638000Y-140081000D03*
X149098000Y-137541000D03*
X149098000Y-142621000D03*
X154178000Y-142621000D03*
X154178000Y-137541000D03*
%TD*%
%TO.C,J102*%
X182245000Y-137668000D03*
X182245000Y-142748000D03*
X177165000Y-142748000D03*
X177165000Y-137668000D03*
X179705000Y-140208000D03*
%TD*%
M02*
