%FSLAX45Y45*%
G04 Gerber Fmt 4.5, Leading zero omitted, Abs format (unit mm)*
G04 Created by KiCad (PCBNEW 5.99.0+really5.1.12+dfsg1-1~bpo11+1) date 2021-12-25 19:54:28*
%MOMM*%
%LPD*%
G01*
G04 APERTURE LIST*
%TA.AperFunction,Profile*%
%ADD10C,0.050000*%
%TD*%
%ADD11C,0.200000*%
%ADD12C,0.300000*%
G04 APERTURE END LIST*
D10*
X12700000Y-14605000D02*
X12700000Y-5080000D01*
X22225000Y-14605000D02*
X12700000Y-14605000D01*
X22225000Y-5080000D02*
X22225000Y-14605000D01*
X12700000Y-5080000D02*
X22225000Y-5080000D01*
D11*
X13645200Y-11511600D02*
X13685200Y-11551600D01*
X13685200Y-11511600D02*
X13645200Y-11551600D01*
X13797600Y-12819700D02*
X13837600Y-12859700D01*
X13837600Y-12819700D02*
X13797600Y-12859700D01*
X13899200Y-13111800D02*
X13939200Y-13151800D01*
X13939200Y-13111800D02*
X13899200Y-13151800D01*
X14026200Y-13213400D02*
X14066200Y-13253400D01*
X14066200Y-13213400D02*
X14026200Y-13253400D01*
X14065499Y-7612700D02*
X14105499Y-7652700D01*
X14105499Y-7612700D02*
X14065499Y-7652700D01*
X14140500Y-7460300D02*
X14180500Y-7500300D01*
X14180500Y-7460300D02*
X14140500Y-7500300D01*
X14229400Y-7371400D02*
X14269400Y-7411400D01*
X14269400Y-7371400D02*
X14229400Y-7411400D01*
X14585000Y-9085900D02*
X14625000Y-9125900D01*
X14625000Y-9085900D02*
X14585000Y-9125900D01*
X14661200Y-8108000D02*
X14701200Y-8148000D01*
X14701200Y-8108000D02*
X14661200Y-8148000D01*
X14737400Y-7574600D02*
X14777400Y-7614600D01*
X14777400Y-7574600D02*
X14737400Y-7614600D01*
X14737400Y-7727000D02*
X14777400Y-7767000D01*
X14777400Y-7727000D02*
X14737400Y-7767000D01*
X14889800Y-13111800D02*
X14929800Y-13151800D01*
X14929800Y-13111800D02*
X14889800Y-13151800D01*
X15093000Y-9085900D02*
X15133000Y-9125900D01*
X15133000Y-9085900D02*
X15093000Y-9125900D01*
X15143800Y-12870500D02*
X15183800Y-12910500D01*
X15183800Y-12870500D02*
X15143800Y-12910500D01*
X15161400Y-13340400D02*
X15201400Y-13380400D01*
X15201400Y-13340400D02*
X15161400Y-13380400D01*
X15245400Y-7968300D02*
X15285400Y-8008300D01*
X15285400Y-7968300D02*
X15245400Y-8008300D01*
X15245400Y-11371900D02*
X15285400Y-11411900D01*
X15285400Y-11371900D02*
X15245400Y-11411900D01*
X15334300Y-10597200D02*
X15374300Y-10637200D01*
X15374300Y-10597200D02*
X15334300Y-10637200D01*
X15372400Y-9009700D02*
X15412400Y-9049700D01*
X15412400Y-9009700D02*
X15372400Y-9049700D01*
X15626400Y-10292400D02*
X15666400Y-10332400D01*
X15666400Y-10292400D02*
X15626400Y-10332400D01*
X15664500Y-7079300D02*
X15704500Y-7119300D01*
X15704500Y-7079300D02*
X15664500Y-7119300D01*
X15778800Y-6825300D02*
X15818800Y-6865300D01*
X15818800Y-6825300D02*
X15778800Y-6865300D01*
X15842300Y-9847900D02*
X15882300Y-9887900D01*
X15882300Y-9847900D02*
X15842300Y-9887900D01*
X15842300Y-10254300D02*
X15882300Y-10294300D01*
X15882300Y-10254300D02*
X15842300Y-10294300D01*
X15994700Y-10317800D02*
X16034700Y-10357800D01*
X16034700Y-10317800D02*
X15994700Y-10357800D01*
X16020100Y-11041700D02*
X16060100Y-11081700D01*
X16060100Y-11041700D02*
X16020100Y-11081700D01*
X16020100Y-12083100D02*
X16060100Y-12123100D01*
X16060100Y-12083100D02*
X16020100Y-12123100D01*
X16077250Y-7784150D02*
X16117250Y-7824150D01*
X16117250Y-7784150D02*
X16077250Y-7824150D01*
X16194945Y-10663655D02*
X16234945Y-10703655D01*
X16234945Y-10663655D02*
X16194945Y-10703655D01*
X16197900Y-11994200D02*
X16237900Y-12034200D01*
X16237900Y-11994200D02*
X16197900Y-12034200D01*
X16274100Y-11257600D02*
X16314100Y-11297600D01*
X16314100Y-11257600D02*
X16274100Y-11297600D01*
X16337600Y-10965500D02*
X16377600Y-11005500D01*
X16377600Y-10965500D02*
X16337600Y-11005500D01*
X16502700Y-11511600D02*
X16542700Y-11551600D01*
X16542700Y-11511600D02*
X16502700Y-11551600D01*
X16744000Y-7473000D02*
X16784000Y-7513000D01*
X16784000Y-7473000D02*
X16744000Y-7513000D01*
X16744000Y-7917500D02*
X16784000Y-7957500D01*
X16784000Y-7917500D02*
X16744000Y-7957500D01*
X16744000Y-9974900D02*
X16784000Y-10014900D01*
X16784000Y-9974900D02*
X16744000Y-10014900D01*
X16858300Y-10622600D02*
X16898300Y-10662600D01*
X16898300Y-10622600D02*
X16858300Y-10662600D01*
X16985300Y-13111800D02*
X17025300Y-13151800D01*
X17025300Y-13111800D02*
X16985300Y-13151800D01*
X17023400Y-7371400D02*
X17063400Y-7411400D01*
X17063400Y-7371400D02*
X17023400Y-7411400D01*
X17213900Y-9352600D02*
X17253900Y-9392600D01*
X17253900Y-9352600D02*
X17213900Y-9392600D01*
X17334600Y-9079600D02*
X17374600Y-9119600D01*
X17374600Y-9079600D02*
X17334600Y-9119600D01*
X17366300Y-9606600D02*
X17406300Y-9646600D01*
X17406300Y-9606600D02*
X17366300Y-9646600D01*
X17417100Y-8146100D02*
X17457100Y-8186100D01*
X17457100Y-8146100D02*
X17417100Y-8186100D01*
X17582200Y-7854000D02*
X17622200Y-7894000D01*
X17622200Y-7854000D02*
X17582200Y-7894000D01*
X17582200Y-9581200D02*
X17622200Y-9621200D01*
X17622200Y-9581200D02*
X17582200Y-9621200D01*
X17582200Y-10775000D02*
X17622200Y-10815000D01*
X17622200Y-10775000D02*
X17582200Y-10815000D01*
X17596099Y-8717600D02*
X17636099Y-8757600D01*
X17636099Y-8717600D02*
X17596099Y-8757600D01*
X17658400Y-8349300D02*
X17698400Y-8389300D01*
X17698400Y-8349300D02*
X17658400Y-8389300D01*
X17658400Y-8539800D02*
X17698400Y-8579800D01*
X17698400Y-8539800D02*
X17658400Y-8579800D01*
X17709200Y-11930700D02*
X17749200Y-11970700D01*
X17749200Y-11930700D02*
X17709200Y-11970700D01*
X17747300Y-7003100D02*
X17787300Y-7043100D01*
X17787300Y-7003100D02*
X17747300Y-7043100D01*
X17772700Y-9581200D02*
X17812700Y-9621200D01*
X17812700Y-9581200D02*
X17772700Y-9621200D01*
X17798100Y-7854000D02*
X17838100Y-7894000D01*
X17838100Y-7854000D02*
X17798100Y-7894000D01*
X17798100Y-13467400D02*
X17838100Y-13507400D01*
X17838100Y-13467400D02*
X17798100Y-13507400D01*
X17887000Y-10965500D02*
X17927000Y-11005500D01*
X17927000Y-10965500D02*
X17887000Y-11005500D01*
X17963200Y-7650800D02*
X18003200Y-7690800D01*
X18003200Y-7650800D02*
X17963200Y-7690800D01*
X17975900Y-9695500D02*
X18015900Y-9735500D01*
X18015900Y-9695500D02*
X17975900Y-9735500D01*
X18039400Y-11625900D02*
X18079400Y-11665900D01*
X18079400Y-11625900D02*
X18039400Y-11665900D01*
X18064800Y-8730300D02*
X18104800Y-8770300D01*
X18104800Y-8730300D02*
X18064800Y-8770300D01*
X18064800Y-10076500D02*
X18104800Y-10116500D01*
X18104800Y-10076500D02*
X18064800Y-10116500D01*
X18128300Y-10597200D02*
X18168300Y-10637200D01*
X18168300Y-10597200D02*
X18128300Y-10637200D01*
X18306100Y-9581200D02*
X18346100Y-9621200D01*
X18346100Y-9581200D02*
X18306100Y-9621200D01*
X18400951Y-8362557D02*
X18440951Y-8402557D01*
X18440951Y-8362557D02*
X18400951Y-8402557D01*
X18433100Y-9581200D02*
X18473100Y-9621200D01*
X18473100Y-9581200D02*
X18433100Y-9621200D01*
X18434772Y-8268448D02*
X18474772Y-8308448D01*
X18474772Y-8268448D02*
X18434772Y-8308448D01*
X18471200Y-11918000D02*
X18511200Y-11958000D01*
X18511200Y-11918000D02*
X18471200Y-11958000D01*
X18560100Y-9581200D02*
X18600100Y-9621200D01*
X18600100Y-9581200D02*
X18560100Y-9621200D01*
X18610900Y-7638100D02*
X18650900Y-7678100D01*
X18650900Y-7638100D02*
X18610900Y-7678100D01*
X18643625Y-8446040D02*
X18683625Y-8486040D01*
X18683625Y-8446040D02*
X18643625Y-8486040D01*
X18649000Y-12553000D02*
X18689000Y-12593000D01*
X18689000Y-12553000D02*
X18649000Y-12593000D01*
X18687100Y-9581200D02*
X18727100Y-9621200D01*
X18727100Y-9581200D02*
X18687100Y-9621200D01*
X18699800Y-10889300D02*
X18739800Y-10929300D01*
X18739800Y-10889300D02*
X18699800Y-10929300D01*
X18700491Y-8528299D02*
X18740491Y-8568299D01*
X18740491Y-8528299D02*
X18700491Y-8568299D01*
X18814100Y-10000300D02*
X18854100Y-10040300D01*
X18854100Y-10000300D02*
X18814100Y-10040300D01*
X18814100Y-10521000D02*
X18854100Y-10561000D01*
X18854100Y-10521000D02*
X18814100Y-10561000D01*
X19093500Y-12629200D02*
X19133500Y-12669200D01*
X19133500Y-12629200D02*
X19093500Y-12669200D01*
X19093500Y-13111800D02*
X19133500Y-13151800D01*
X19133500Y-13111800D02*
X19093500Y-13151800D01*
X19106200Y-11448100D02*
X19146200Y-11488100D01*
X19146200Y-11448100D02*
X19106200Y-11488100D01*
X19220500Y-12489500D02*
X19260500Y-12529500D01*
X19260500Y-12489500D02*
X19220500Y-12529500D01*
X19220500Y-13213400D02*
X19260500Y-13253400D01*
X19260500Y-13213400D02*
X19220500Y-13253400D01*
X19385600Y-11981500D02*
X19425600Y-12021500D01*
X19425600Y-11981500D02*
X19385600Y-12021500D01*
X20300000Y-12222800D02*
X20340000Y-12262800D01*
X20340000Y-12222800D02*
X20300000Y-12262800D01*
X20833400Y-12680000D02*
X20873400Y-12720000D01*
X20873400Y-12680000D02*
X20833400Y-12720000D01*
X20947700Y-13175300D02*
X20987700Y-13215300D01*
X20987700Y-13175300D02*
X20947700Y-13215300D01*
X21125500Y-13378500D02*
X21165500Y-13418500D01*
X21165500Y-13378500D02*
X21125500Y-13418500D01*
X21557300Y-13378500D02*
X21597300Y-13418500D01*
X21597300Y-13378500D02*
X21557300Y-13418500D01*
X13703200Y-13423900D02*
G75*
G03*
X13703200Y-13423900I-38000J0D01*
G01*
X13830200Y-13677900D02*
G75*
G03*
X13830200Y-13677900I-38000J0D01*
G01*
X13957200Y-13423900D02*
G75*
G03*
X13957200Y-13423900I-38000J0D01*
G01*
X14084200Y-13677900D02*
G75*
G03*
X14084200Y-13677900I-38000J0D01*
G01*
X14211200Y-13423900D02*
G75*
G03*
X14211200Y-13423900I-38000J0D01*
G01*
X14338200Y-13677900D02*
G75*
G03*
X14338200Y-13677900I-38000J0D01*
G01*
X18897500Y-13411200D02*
G75*
G03*
X18897500Y-13411200I-38000J0D01*
G01*
X19024500Y-13665200D02*
G75*
G03*
X19024500Y-13665200I-38000J0D01*
G01*
X19151500Y-13411200D02*
G75*
G03*
X19151500Y-13411200I-38000J0D01*
G01*
X19278500Y-13665200D02*
G75*
G03*
X19278500Y-13665200I-38000J0D01*
G01*
X19405500Y-13411200D02*
G75*
G03*
X19405500Y-13411200I-38000J0D01*
G01*
X19532500Y-13665200D02*
G75*
G03*
X19532500Y-13665200I-38000J0D01*
G01*
X16510000Y-14039300D02*
X16510000Y-14129300D01*
X16465000Y-14084300D02*
X16555000Y-14084300D01*
X16760000Y-13789300D02*
X16760000Y-13879300D01*
X16715000Y-13834300D02*
X16805000Y-13834300D01*
X17010000Y-14039300D02*
X17010000Y-14129300D01*
X16965000Y-14084300D02*
X17055000Y-14084300D01*
X13497356Y-5877356D02*
X13497356Y-5806644D01*
X13426644Y-5806644D01*
X13426644Y-5877356D01*
X13497356Y-5877356D01*
X13497356Y-6131356D02*
X13497356Y-6060644D01*
X13426644Y-6060644D01*
X13426644Y-6131356D01*
X13497356Y-6131356D01*
X13497356Y-6385356D02*
X13497356Y-6314644D01*
X13426644Y-6314644D01*
X13426644Y-6385356D01*
X13497356Y-6385356D01*
X13497356Y-6639356D02*
X13497356Y-6568644D01*
X13426644Y-6568644D01*
X13426644Y-6639356D01*
X13497356Y-6639356D01*
X13497356Y-6893356D02*
X13497356Y-6822644D01*
X13426644Y-6822644D01*
X13426644Y-6893356D01*
X13497356Y-6893356D01*
X13497356Y-7147356D02*
X13497356Y-7076644D01*
X13426644Y-7076644D01*
X13426644Y-7147356D01*
X13497356Y-7147356D01*
X13497356Y-7401356D02*
X13497356Y-7330644D01*
X13426644Y-7330644D01*
X13426644Y-7401356D01*
X13497356Y-7401356D01*
X13497356Y-7655356D02*
X13497356Y-7584644D01*
X13426644Y-7584644D01*
X13426644Y-7655356D01*
X13497356Y-7655356D01*
X13497356Y-7909356D02*
X13497356Y-7838644D01*
X13426644Y-7838644D01*
X13426644Y-7909356D01*
X13497356Y-7909356D01*
X13497356Y-8163356D02*
X13497356Y-8092644D01*
X13426644Y-8092644D01*
X13426644Y-8163356D01*
X13497356Y-8163356D01*
X13497356Y-8417356D02*
X13497356Y-8346644D01*
X13426644Y-8346644D01*
X13426644Y-8417356D01*
X13497356Y-8417356D01*
X13497356Y-8671356D02*
X13497356Y-8600644D01*
X13426644Y-8600644D01*
X13426644Y-8671356D01*
X13497356Y-8671356D01*
X13497356Y-8925356D02*
X13497356Y-8854644D01*
X13426644Y-8854644D01*
X13426644Y-8925356D01*
X13497356Y-8925356D01*
X13497356Y-9179356D02*
X13497356Y-9108644D01*
X13426644Y-9108644D01*
X13426644Y-9179356D01*
X13497356Y-9179356D01*
X13497356Y-9433356D02*
X13497356Y-9362644D01*
X13426644Y-9362644D01*
X13426644Y-9433356D01*
X13497356Y-9433356D01*
X13497356Y-9687356D02*
X13497356Y-9616644D01*
X13426644Y-9616644D01*
X13426644Y-9687356D01*
X13497356Y-9687356D01*
X13497356Y-9941356D02*
X13497356Y-9870644D01*
X13426644Y-9870644D01*
X13426644Y-9941356D01*
X13497356Y-9941356D01*
X13497356Y-10195356D02*
X13497356Y-10124644D01*
X13426644Y-10124644D01*
X13426644Y-10195356D01*
X13497356Y-10195356D01*
X13497356Y-10449356D02*
X13497356Y-10378644D01*
X13426644Y-10378644D01*
X13426644Y-10449356D01*
X13497356Y-10449356D01*
X13497356Y-10703356D02*
X13497356Y-10632644D01*
X13426644Y-10632644D01*
X13426644Y-10703356D01*
X13497356Y-10703356D01*
X13751356Y-5877356D02*
X13751356Y-5806644D01*
X13680644Y-5806644D01*
X13680644Y-5877356D01*
X13751356Y-5877356D01*
X13751356Y-6131356D02*
X13751356Y-6060644D01*
X13680644Y-6060644D01*
X13680644Y-6131356D01*
X13751356Y-6131356D01*
X13751356Y-6385356D02*
X13751356Y-6314644D01*
X13680644Y-6314644D01*
X13680644Y-6385356D01*
X13751356Y-6385356D01*
X13751356Y-6639356D02*
X13751356Y-6568644D01*
X13680644Y-6568644D01*
X13680644Y-6639356D01*
X13751356Y-6639356D01*
X13751356Y-6893356D02*
X13751356Y-6822644D01*
X13680644Y-6822644D01*
X13680644Y-6893356D01*
X13751356Y-6893356D01*
X13751356Y-7147356D02*
X13751356Y-7076644D01*
X13680644Y-7076644D01*
X13680644Y-7147356D01*
X13751356Y-7147356D01*
X13751356Y-7401356D02*
X13751356Y-7330644D01*
X13680644Y-7330644D01*
X13680644Y-7401356D01*
X13751356Y-7401356D01*
X13751356Y-7655356D02*
X13751356Y-7584644D01*
X13680644Y-7584644D01*
X13680644Y-7655356D01*
X13751356Y-7655356D01*
X13751356Y-7909356D02*
X13751356Y-7838644D01*
X13680644Y-7838644D01*
X13680644Y-7909356D01*
X13751356Y-7909356D01*
X13751356Y-8163356D02*
X13751356Y-8092644D01*
X13680644Y-8092644D01*
X13680644Y-8163356D01*
X13751356Y-8163356D01*
X13751356Y-8417356D02*
X13751356Y-8346644D01*
X13680644Y-8346644D01*
X13680644Y-8417356D01*
X13751356Y-8417356D01*
X13751356Y-8671356D02*
X13751356Y-8600644D01*
X13680644Y-8600644D01*
X13680644Y-8671356D01*
X13751356Y-8671356D01*
X13751356Y-8925356D02*
X13751356Y-8854644D01*
X13680644Y-8854644D01*
X13680644Y-8925356D01*
X13751356Y-8925356D01*
X13751356Y-9179356D02*
X13751356Y-9108644D01*
X13680644Y-9108644D01*
X13680644Y-9179356D01*
X13751356Y-9179356D01*
X13751356Y-9433356D02*
X13751356Y-9362644D01*
X13680644Y-9362644D01*
X13680644Y-9433356D01*
X13751356Y-9433356D01*
X13751356Y-9687356D02*
X13751356Y-9616644D01*
X13680644Y-9616644D01*
X13680644Y-9687356D01*
X13751356Y-9687356D01*
X13751356Y-9941356D02*
X13751356Y-9870644D01*
X13680644Y-9870644D01*
X13680644Y-9941356D01*
X13751356Y-9941356D01*
X13751356Y-10195356D02*
X13751356Y-10124644D01*
X13680644Y-10124644D01*
X13680644Y-10195356D01*
X13751356Y-10195356D01*
X13751356Y-10449356D02*
X13751356Y-10378644D01*
X13680644Y-10378644D01*
X13680644Y-10449356D01*
X13751356Y-10449356D01*
X13751356Y-10703356D02*
X13751356Y-10632644D01*
X13680644Y-10632644D01*
X13680644Y-10703356D01*
X13751356Y-10703356D01*
X21244356Y-5877356D02*
X21244356Y-5806644D01*
X21173644Y-5806644D01*
X21173644Y-5877356D01*
X21244356Y-5877356D01*
X21244356Y-6131356D02*
X21244356Y-6060644D01*
X21173644Y-6060644D01*
X21173644Y-6131356D01*
X21244356Y-6131356D01*
X21244356Y-6385356D02*
X21244356Y-6314644D01*
X21173644Y-6314644D01*
X21173644Y-6385356D01*
X21244356Y-6385356D01*
X21244356Y-6639356D02*
X21244356Y-6568644D01*
X21173644Y-6568644D01*
X21173644Y-6639356D01*
X21244356Y-6639356D01*
X21244356Y-6893356D02*
X21244356Y-6822644D01*
X21173644Y-6822644D01*
X21173644Y-6893356D01*
X21244356Y-6893356D01*
X21244356Y-7147356D02*
X21244356Y-7076644D01*
X21173644Y-7076644D01*
X21173644Y-7147356D01*
X21244356Y-7147356D01*
X21244356Y-7401356D02*
X21244356Y-7330644D01*
X21173644Y-7330644D01*
X21173644Y-7401356D01*
X21244356Y-7401356D01*
X21244356Y-7655356D02*
X21244356Y-7584644D01*
X21173644Y-7584644D01*
X21173644Y-7655356D01*
X21244356Y-7655356D01*
X21244356Y-7909356D02*
X21244356Y-7838644D01*
X21173644Y-7838644D01*
X21173644Y-7909356D01*
X21244356Y-7909356D01*
X21244356Y-8163356D02*
X21244356Y-8092644D01*
X21173644Y-8092644D01*
X21173644Y-8163356D01*
X21244356Y-8163356D01*
X21244356Y-8417356D02*
X21244356Y-8346644D01*
X21173644Y-8346644D01*
X21173644Y-8417356D01*
X21244356Y-8417356D01*
X21244356Y-8671356D02*
X21244356Y-8600644D01*
X21173644Y-8600644D01*
X21173644Y-8671356D01*
X21244356Y-8671356D01*
X21244356Y-8925356D02*
X21244356Y-8854644D01*
X21173644Y-8854644D01*
X21173644Y-8925356D01*
X21244356Y-8925356D01*
X21244356Y-9179356D02*
X21244356Y-9108644D01*
X21173644Y-9108644D01*
X21173644Y-9179356D01*
X21244356Y-9179356D01*
X21244356Y-9433356D02*
X21244356Y-9362644D01*
X21173644Y-9362644D01*
X21173644Y-9433356D01*
X21244356Y-9433356D01*
X21244356Y-9687356D02*
X21244356Y-9616644D01*
X21173644Y-9616644D01*
X21173644Y-9687356D01*
X21244356Y-9687356D01*
X21244356Y-9941356D02*
X21244356Y-9870644D01*
X21173644Y-9870644D01*
X21173644Y-9941356D01*
X21244356Y-9941356D01*
X21244356Y-10195356D02*
X21244356Y-10124644D01*
X21173644Y-10124644D01*
X21173644Y-10195356D01*
X21244356Y-10195356D01*
X21244356Y-10449356D02*
X21244356Y-10378644D01*
X21173644Y-10378644D01*
X21173644Y-10449356D01*
X21244356Y-10449356D01*
X21244356Y-10703356D02*
X21244356Y-10632644D01*
X21173644Y-10632644D01*
X21173644Y-10703356D01*
X21244356Y-10703356D01*
X21498356Y-5877356D02*
X21498356Y-5806644D01*
X21427644Y-5806644D01*
X21427644Y-5877356D01*
X21498356Y-5877356D01*
X21498356Y-6131356D02*
X21498356Y-6060644D01*
X21427644Y-6060644D01*
X21427644Y-6131356D01*
X21498356Y-6131356D01*
X21498356Y-6385356D02*
X21498356Y-6314644D01*
X21427644Y-6314644D01*
X21427644Y-6385356D01*
X21498356Y-6385356D01*
X21498356Y-6639356D02*
X21498356Y-6568644D01*
X21427644Y-6568644D01*
X21427644Y-6639356D01*
X21498356Y-6639356D01*
X21498356Y-6893356D02*
X21498356Y-6822644D01*
X21427644Y-6822644D01*
X21427644Y-6893356D01*
X21498356Y-6893356D01*
X21498356Y-7147356D02*
X21498356Y-7076644D01*
X21427644Y-7076644D01*
X21427644Y-7147356D01*
X21498356Y-7147356D01*
X21498356Y-7401356D02*
X21498356Y-7330644D01*
X21427644Y-7330644D01*
X21427644Y-7401356D01*
X21498356Y-7401356D01*
X21498356Y-7655356D02*
X21498356Y-7584644D01*
X21427644Y-7584644D01*
X21427644Y-7655356D01*
X21498356Y-7655356D01*
X21498356Y-7909356D02*
X21498356Y-7838644D01*
X21427644Y-7838644D01*
X21427644Y-7909356D01*
X21498356Y-7909356D01*
X21498356Y-8163356D02*
X21498356Y-8092644D01*
X21427644Y-8092644D01*
X21427644Y-8163356D01*
X21498356Y-8163356D01*
X21498356Y-8417356D02*
X21498356Y-8346644D01*
X21427644Y-8346644D01*
X21427644Y-8417356D01*
X21498356Y-8417356D01*
X21498356Y-8671356D02*
X21498356Y-8600644D01*
X21427644Y-8600644D01*
X21427644Y-8671356D01*
X21498356Y-8671356D01*
X21498356Y-8925356D02*
X21498356Y-8854644D01*
X21427644Y-8854644D01*
X21427644Y-8925356D01*
X21498356Y-8925356D01*
X21498356Y-9179356D02*
X21498356Y-9108644D01*
X21427644Y-9108644D01*
X21427644Y-9179356D01*
X21498356Y-9179356D01*
X21498356Y-9433356D02*
X21498356Y-9362644D01*
X21427644Y-9362644D01*
X21427644Y-9433356D01*
X21498356Y-9433356D01*
X21498356Y-9687356D02*
X21498356Y-9616644D01*
X21427644Y-9616644D01*
X21427644Y-9687356D01*
X21498356Y-9687356D01*
X21498356Y-9941356D02*
X21498356Y-9870644D01*
X21427644Y-9870644D01*
X21427644Y-9941356D01*
X21498356Y-9941356D01*
X21498356Y-10195356D02*
X21498356Y-10124644D01*
X21427644Y-10124644D01*
X21427644Y-10195356D01*
X21498356Y-10195356D01*
X21498356Y-10449356D02*
X21498356Y-10378644D01*
X21427644Y-10378644D01*
X21427644Y-10449356D01*
X21498356Y-10449356D01*
X21498356Y-10703356D02*
X21498356Y-10632644D01*
X21427644Y-10632644D01*
X21427644Y-10703356D01*
X21498356Y-10703356D01*
X15951200Y-5782700D02*
X16006200Y-5727700D01*
X15951200Y-5672700D01*
X15896200Y-5727700D01*
X15951200Y-5782700D01*
X15951200Y-6122700D02*
X16006200Y-6067700D01*
X15951200Y-6012700D01*
X15896200Y-6067700D01*
X15951200Y-6122700D01*
X15951200Y-6462700D02*
X16006200Y-6407700D01*
X15951200Y-6352700D01*
X15896200Y-6407700D01*
X15951200Y-6462700D01*
X16331200Y-5952700D02*
X16386200Y-5897700D01*
X16331200Y-5842700D01*
X16276200Y-5897700D01*
X16331200Y-5952700D01*
X16331200Y-6292700D02*
X16386200Y-6237700D01*
X16331200Y-6182700D01*
X16276200Y-6237700D01*
X16331200Y-6292700D01*
X14834800Y-13679100D02*
X14984800Y-13829100D01*
X14984800Y-13679100D02*
X14834800Y-13829100D01*
X14984800Y-13754100D02*
G75*
G03*
X14984800Y-13754100I-75000J0D01*
G01*
X14834800Y-14187100D02*
X14984800Y-14337100D01*
X14984800Y-14187100D02*
X14834800Y-14337100D01*
X14984800Y-14262100D02*
G75*
G03*
X14984800Y-14262100I-75000J0D01*
G01*
X15088800Y-13933100D02*
X15238800Y-14083100D01*
X15238800Y-13933100D02*
X15088800Y-14083100D01*
X15238800Y-14008100D02*
G75*
G03*
X15238800Y-14008100I-75000J0D01*
G01*
X15342800Y-13679100D02*
X15492800Y-13829100D01*
X15492800Y-13679100D02*
X15342800Y-13829100D01*
X15492800Y-13754100D02*
G75*
G03*
X15492800Y-13754100I-75000J0D01*
G01*
X15342800Y-14187100D02*
X15492800Y-14337100D01*
X15492800Y-14187100D02*
X15342800Y-14337100D01*
X15492800Y-14262100D02*
G75*
G03*
X15492800Y-14262100I-75000J0D01*
G01*
X17641500Y-13691800D02*
X17791500Y-13841800D01*
X17791500Y-13691800D02*
X17641500Y-13841800D01*
X17791500Y-13766800D02*
G75*
G03*
X17791500Y-13766800I-75000J0D01*
G01*
X17641500Y-14199800D02*
X17791500Y-14349800D01*
X17791500Y-14199800D02*
X17641500Y-14349800D01*
X17791500Y-14274800D02*
G75*
G03*
X17791500Y-14274800I-75000J0D01*
G01*
X17895500Y-13945800D02*
X18045500Y-14095800D01*
X18045500Y-13945800D02*
X17895500Y-14095800D01*
X18045500Y-14020800D02*
G75*
G03*
X18045500Y-14020800I-75000J0D01*
G01*
X18149500Y-13691800D02*
X18299500Y-13841800D01*
X18299500Y-13691800D02*
X18149500Y-13841800D01*
X18299500Y-13766800D02*
G75*
G03*
X18299500Y-13766800I-75000J0D01*
G01*
X18149500Y-14199800D02*
X18299500Y-14349800D01*
X18299500Y-14199800D02*
X18149500Y-14349800D01*
X18299500Y-14274800D02*
G75*
G03*
X18299500Y-14274800I-75000J0D01*
G01*
X17774200Y-5892700D02*
X18124200Y-6242700D01*
X18124200Y-5892700D02*
X17774200Y-6242700D01*
X17949200Y-5892700D02*
X17949200Y-6242700D01*
X17774200Y-6067700D02*
X18124200Y-6067700D01*
D12*
X12983928Y-15073214D02*
X12983928Y-14773214D01*
X13055357Y-14773214D01*
X13098214Y-14787500D01*
X13126786Y-14816071D01*
X13141071Y-14844643D01*
X13155357Y-14901786D01*
X13155357Y-14944643D01*
X13141071Y-15001786D01*
X13126786Y-15030357D01*
X13098214Y-15058929D01*
X13055357Y-15073214D01*
X12983928Y-15073214D01*
X13283928Y-15073214D02*
X13283928Y-14873214D01*
X13283928Y-14930357D02*
X13298214Y-14901786D01*
X13312500Y-14887500D01*
X13341071Y-14873214D01*
X13369643Y-14873214D01*
X13469643Y-15073214D02*
X13469643Y-14873214D01*
X13469643Y-14773214D02*
X13455357Y-14787500D01*
X13469643Y-14801786D01*
X13483928Y-14787500D01*
X13469643Y-14773214D01*
X13469643Y-14801786D01*
X13655357Y-15073214D02*
X13626786Y-15058929D01*
X13612500Y-15030357D01*
X13612500Y-14773214D01*
X13812500Y-15073214D02*
X13783928Y-15058929D01*
X13769643Y-15030357D01*
X13769643Y-14773214D01*
X14155357Y-15073214D02*
X14155357Y-14773214D01*
X14255357Y-14987500D01*
X14355357Y-14773214D01*
X14355357Y-15073214D01*
X14626786Y-15073214D02*
X14626786Y-14916071D01*
X14612500Y-14887500D01*
X14583928Y-14873214D01*
X14526786Y-14873214D01*
X14498214Y-14887500D01*
X14626786Y-15058929D02*
X14598214Y-15073214D01*
X14526786Y-15073214D01*
X14498214Y-15058929D01*
X14483928Y-15030357D01*
X14483928Y-15001786D01*
X14498214Y-14973214D01*
X14526786Y-14958929D01*
X14598214Y-14958929D01*
X14626786Y-14944643D01*
X14769643Y-14873214D02*
X14769643Y-15173214D01*
X14769643Y-14887500D02*
X14798214Y-14873214D01*
X14855357Y-14873214D01*
X14883928Y-14887500D01*
X14898214Y-14901786D01*
X14912500Y-14930357D01*
X14912500Y-15016071D01*
X14898214Y-15044643D01*
X14883928Y-15058929D01*
X14855357Y-15073214D01*
X14798214Y-15073214D01*
X14769643Y-15058929D01*
X15041071Y-15044643D02*
X15055357Y-15058929D01*
X15041071Y-15073214D01*
X15026786Y-15058929D01*
X15041071Y-15044643D01*
X15041071Y-15073214D01*
X15041071Y-14887500D02*
X15055357Y-14901786D01*
X15041071Y-14916071D01*
X15026786Y-14901786D01*
X15041071Y-14887500D01*
X15041071Y-14916071D01*
X12657500Y-15547500D02*
X12697500Y-15587500D01*
X12697500Y-15547500D02*
X12657500Y-15587500D01*
X13041071Y-15403214D02*
X13069643Y-15403214D01*
X13098214Y-15417500D01*
X13112500Y-15431786D01*
X13126786Y-15460357D01*
X13141071Y-15517500D01*
X13141071Y-15588929D01*
X13126786Y-15646071D01*
X13112500Y-15674643D01*
X13098214Y-15688929D01*
X13069643Y-15703214D01*
X13041071Y-15703214D01*
X13012500Y-15688929D01*
X12998214Y-15674643D01*
X12983928Y-15646071D01*
X12969643Y-15588929D01*
X12969643Y-15517500D01*
X12983928Y-15460357D01*
X12998214Y-15431786D01*
X13012500Y-15417500D01*
X13041071Y-15403214D01*
X13269643Y-15674643D02*
X13283928Y-15688929D01*
X13269643Y-15703214D01*
X13255357Y-15688929D01*
X13269643Y-15674643D01*
X13269643Y-15703214D01*
X13541071Y-15503214D02*
X13541071Y-15703214D01*
X13469643Y-15388929D02*
X13398214Y-15603214D01*
X13583928Y-15603214D01*
X13755357Y-15403214D02*
X13783928Y-15403214D01*
X13812500Y-15417500D01*
X13826786Y-15431786D01*
X13841071Y-15460357D01*
X13855357Y-15517500D01*
X13855357Y-15588929D01*
X13841071Y-15646071D01*
X13826786Y-15674643D01*
X13812500Y-15688929D01*
X13783928Y-15703214D01*
X13755357Y-15703214D01*
X13726786Y-15688929D01*
X13712500Y-15674643D01*
X13698214Y-15646071D01*
X13683928Y-15588929D01*
X13683928Y-15517500D01*
X13698214Y-15460357D01*
X13712500Y-15431786D01*
X13726786Y-15417500D01*
X13755357Y-15403214D01*
X14041071Y-15403214D02*
X14069643Y-15403214D01*
X14098214Y-15417500D01*
X14112500Y-15431786D01*
X14126786Y-15460357D01*
X14141071Y-15517500D01*
X14141071Y-15588929D01*
X14126786Y-15646071D01*
X14112500Y-15674643D01*
X14098214Y-15688929D01*
X14069643Y-15703214D01*
X14041071Y-15703214D01*
X14012500Y-15688929D01*
X13998214Y-15674643D01*
X13983928Y-15646071D01*
X13969643Y-15588929D01*
X13969643Y-15517500D01*
X13983928Y-15460357D01*
X13998214Y-15431786D01*
X14012500Y-15417500D01*
X14041071Y-15403214D01*
X14269643Y-15703214D02*
X14269643Y-15503214D01*
X14269643Y-15531786D02*
X14283928Y-15517500D01*
X14312500Y-15503214D01*
X14355357Y-15503214D01*
X14383928Y-15517500D01*
X14398214Y-15546071D01*
X14398214Y-15703214D01*
X14398214Y-15546071D02*
X14412500Y-15517500D01*
X14441071Y-15503214D01*
X14483928Y-15503214D01*
X14512500Y-15517500D01*
X14526786Y-15546071D01*
X14526786Y-15703214D01*
X14669643Y-15703214D02*
X14669643Y-15503214D01*
X14669643Y-15531786D02*
X14683928Y-15517500D01*
X14712500Y-15503214D01*
X14755357Y-15503214D01*
X14783928Y-15517500D01*
X14798214Y-15546071D01*
X14798214Y-15703214D01*
X14798214Y-15546071D02*
X14812500Y-15517500D01*
X14841071Y-15503214D01*
X14883928Y-15503214D01*
X14912500Y-15517500D01*
X14926786Y-15546071D01*
X14926786Y-15703214D01*
X15512500Y-15388929D02*
X15255357Y-15774643D01*
X15898214Y-15403214D02*
X15926786Y-15403214D01*
X15955357Y-15417500D01*
X15969643Y-15431786D01*
X15983928Y-15460357D01*
X15998214Y-15517500D01*
X15998214Y-15588929D01*
X15983928Y-15646071D01*
X15969643Y-15674643D01*
X15955357Y-15688929D01*
X15926786Y-15703214D01*
X15898214Y-15703214D01*
X15869643Y-15688929D01*
X15855357Y-15674643D01*
X15841071Y-15646071D01*
X15826786Y-15588929D01*
X15826786Y-15517500D01*
X15841071Y-15460357D01*
X15855357Y-15431786D01*
X15869643Y-15417500D01*
X15898214Y-15403214D01*
X16126786Y-15674643D02*
X16141071Y-15688929D01*
X16126786Y-15703214D01*
X16112500Y-15688929D01*
X16126786Y-15674643D01*
X16126786Y-15703214D01*
X16326786Y-15403214D02*
X16355357Y-15403214D01*
X16383928Y-15417500D01*
X16398214Y-15431786D01*
X16412500Y-15460357D01*
X16426786Y-15517500D01*
X16426786Y-15588929D01*
X16412500Y-15646071D01*
X16398214Y-15674643D01*
X16383928Y-15688929D01*
X16355357Y-15703214D01*
X16326786Y-15703214D01*
X16298214Y-15688929D01*
X16283928Y-15674643D01*
X16269643Y-15646071D01*
X16255357Y-15588929D01*
X16255357Y-15517500D01*
X16269643Y-15460357D01*
X16283928Y-15431786D01*
X16298214Y-15417500D01*
X16326786Y-15403214D01*
X16712500Y-15703214D02*
X16541071Y-15703214D01*
X16626786Y-15703214D02*
X16626786Y-15403214D01*
X16598214Y-15446071D01*
X16569643Y-15474643D01*
X16541071Y-15488929D01*
X16983928Y-15403214D02*
X16841071Y-15403214D01*
X16826786Y-15546071D01*
X16841071Y-15531786D01*
X16869643Y-15517500D01*
X16941071Y-15517500D01*
X16969643Y-15531786D01*
X16983928Y-15546071D01*
X16998214Y-15574643D01*
X16998214Y-15646071D01*
X16983928Y-15674643D01*
X16969643Y-15688929D01*
X16941071Y-15703214D01*
X16869643Y-15703214D01*
X16841071Y-15688929D01*
X16826786Y-15674643D01*
X17098214Y-15403214D02*
X17298214Y-15403214D01*
X17169643Y-15703214D01*
X17398214Y-15403214D02*
X17398214Y-15460357D01*
X17512500Y-15403214D02*
X17512500Y-15460357D01*
X17955357Y-15817500D02*
X17941071Y-15803214D01*
X17912500Y-15760357D01*
X17898214Y-15731786D01*
X17883928Y-15688929D01*
X17869643Y-15617500D01*
X17869643Y-15560357D01*
X17883928Y-15488929D01*
X17898214Y-15446071D01*
X17912500Y-15417500D01*
X17941071Y-15374643D01*
X17955357Y-15360357D01*
X18112500Y-15531786D02*
X18083928Y-15517500D01*
X18069643Y-15503214D01*
X18055357Y-15474643D01*
X18055357Y-15460357D01*
X18069643Y-15431786D01*
X18083928Y-15417500D01*
X18112500Y-15403214D01*
X18169643Y-15403214D01*
X18198214Y-15417500D01*
X18212500Y-15431786D01*
X18226786Y-15460357D01*
X18226786Y-15474643D01*
X18212500Y-15503214D01*
X18198214Y-15517500D01*
X18169643Y-15531786D01*
X18112500Y-15531786D01*
X18083928Y-15546071D01*
X18069643Y-15560357D01*
X18055357Y-15588929D01*
X18055357Y-15646071D01*
X18069643Y-15674643D01*
X18083928Y-15688929D01*
X18112500Y-15703214D01*
X18169643Y-15703214D01*
X18198214Y-15688929D01*
X18212500Y-15674643D01*
X18226786Y-15646071D01*
X18226786Y-15588929D01*
X18212500Y-15560357D01*
X18198214Y-15546071D01*
X18169643Y-15531786D01*
X18483928Y-15403214D02*
X18426786Y-15403214D01*
X18398214Y-15417500D01*
X18383928Y-15431786D01*
X18355357Y-15474643D01*
X18341071Y-15531786D01*
X18341071Y-15646071D01*
X18355357Y-15674643D01*
X18369643Y-15688929D01*
X18398214Y-15703214D01*
X18455357Y-15703214D01*
X18483928Y-15688929D01*
X18498214Y-15674643D01*
X18512500Y-15646071D01*
X18512500Y-15574643D01*
X18498214Y-15546071D01*
X18483928Y-15531786D01*
X18455357Y-15517500D01*
X18398214Y-15517500D01*
X18369643Y-15531786D01*
X18355357Y-15546071D01*
X18341071Y-15574643D01*
X18869643Y-15703214D02*
X18869643Y-15403214D01*
X18998214Y-15703214D02*
X18998214Y-15546071D01*
X18983928Y-15517500D01*
X18955357Y-15503214D01*
X18912500Y-15503214D01*
X18883928Y-15517500D01*
X18869643Y-15531786D01*
X19183928Y-15703214D02*
X19155357Y-15688929D01*
X19141071Y-15674643D01*
X19126786Y-15646071D01*
X19126786Y-15560357D01*
X19141071Y-15531786D01*
X19155357Y-15517500D01*
X19183928Y-15503214D01*
X19226786Y-15503214D01*
X19255357Y-15517500D01*
X19269643Y-15531786D01*
X19283928Y-15560357D01*
X19283928Y-15646071D01*
X19269643Y-15674643D01*
X19255357Y-15688929D01*
X19226786Y-15703214D01*
X19183928Y-15703214D01*
X19455357Y-15703214D02*
X19426786Y-15688929D01*
X19412500Y-15660357D01*
X19412500Y-15403214D01*
X19683928Y-15688929D02*
X19655357Y-15703214D01*
X19598214Y-15703214D01*
X19569643Y-15688929D01*
X19555357Y-15660357D01*
X19555357Y-15546071D01*
X19569643Y-15517500D01*
X19598214Y-15503214D01*
X19655357Y-15503214D01*
X19683928Y-15517500D01*
X19698214Y-15546071D01*
X19698214Y-15574643D01*
X19555357Y-15603214D01*
X19812500Y-15688929D02*
X19841071Y-15703214D01*
X19898214Y-15703214D01*
X19926786Y-15688929D01*
X19941071Y-15660357D01*
X19941071Y-15646071D01*
X19926786Y-15617500D01*
X19898214Y-15603214D01*
X19855357Y-15603214D01*
X19826786Y-15588929D01*
X19812500Y-15560357D01*
X19812500Y-15546071D01*
X19826786Y-15517500D01*
X19855357Y-15503214D01*
X19898214Y-15503214D01*
X19926786Y-15517500D01*
X20041071Y-15817500D02*
X20055357Y-15803214D01*
X20083928Y-15760357D01*
X20098214Y-15731786D01*
X20112500Y-15688929D01*
X20126786Y-15617500D01*
X20126786Y-15560357D01*
X20112500Y-15488929D01*
X20098214Y-15446071D01*
X20083928Y-15417500D01*
X20055357Y-15374643D01*
X20041071Y-15360357D01*
X12697500Y-15963500D02*
G75*
G03*
X12697500Y-15963500I-38000J0D01*
G01*
X13041071Y-15799214D02*
X13069643Y-15799214D01*
X13098214Y-15813500D01*
X13112500Y-15827786D01*
X13126786Y-15856357D01*
X13141071Y-15913500D01*
X13141071Y-15984929D01*
X13126786Y-16042071D01*
X13112500Y-16070643D01*
X13098214Y-16084929D01*
X13069643Y-16099214D01*
X13041071Y-16099214D01*
X13012500Y-16084929D01*
X12998214Y-16070643D01*
X12983928Y-16042071D01*
X12969643Y-15984929D01*
X12969643Y-15913500D01*
X12983928Y-15856357D01*
X12998214Y-15827786D01*
X13012500Y-15813500D01*
X13041071Y-15799214D01*
X13269643Y-16070643D02*
X13283928Y-16084929D01*
X13269643Y-16099214D01*
X13255357Y-16084929D01*
X13269643Y-16070643D01*
X13269643Y-16099214D01*
X13383928Y-15799214D02*
X13583928Y-15799214D01*
X13455357Y-16099214D01*
X13826786Y-15799214D02*
X13769643Y-15799214D01*
X13741071Y-15813500D01*
X13726786Y-15827786D01*
X13698214Y-15870643D01*
X13683928Y-15927786D01*
X13683928Y-16042071D01*
X13698214Y-16070643D01*
X13712500Y-16084929D01*
X13741071Y-16099214D01*
X13798214Y-16099214D01*
X13826786Y-16084929D01*
X13841071Y-16070643D01*
X13855357Y-16042071D01*
X13855357Y-15970643D01*
X13841071Y-15942071D01*
X13826786Y-15927786D01*
X13798214Y-15913500D01*
X13741071Y-15913500D01*
X13712500Y-15927786D01*
X13698214Y-15942071D01*
X13683928Y-15970643D01*
X14041071Y-15799214D02*
X14069643Y-15799214D01*
X14098214Y-15813500D01*
X14112500Y-15827786D01*
X14126786Y-15856357D01*
X14141071Y-15913500D01*
X14141071Y-15984929D01*
X14126786Y-16042071D01*
X14112500Y-16070643D01*
X14098214Y-16084929D01*
X14069643Y-16099214D01*
X14041071Y-16099214D01*
X14012500Y-16084929D01*
X13998214Y-16070643D01*
X13983928Y-16042071D01*
X13969643Y-15984929D01*
X13969643Y-15913500D01*
X13983928Y-15856357D01*
X13998214Y-15827786D01*
X14012500Y-15813500D01*
X14041071Y-15799214D01*
X14269643Y-16099214D02*
X14269643Y-15899214D01*
X14269643Y-15927786D02*
X14283928Y-15913500D01*
X14312500Y-15899214D01*
X14355357Y-15899214D01*
X14383928Y-15913500D01*
X14398214Y-15942071D01*
X14398214Y-16099214D01*
X14398214Y-15942071D02*
X14412500Y-15913500D01*
X14441071Y-15899214D01*
X14483928Y-15899214D01*
X14512500Y-15913500D01*
X14526786Y-15942071D01*
X14526786Y-16099214D01*
X14669643Y-16099214D02*
X14669643Y-15899214D01*
X14669643Y-15927786D02*
X14683928Y-15913500D01*
X14712500Y-15899214D01*
X14755357Y-15899214D01*
X14783928Y-15913500D01*
X14798214Y-15942071D01*
X14798214Y-16099214D01*
X14798214Y-15942071D02*
X14812500Y-15913500D01*
X14841071Y-15899214D01*
X14883928Y-15899214D01*
X14912500Y-15913500D01*
X14926786Y-15942071D01*
X14926786Y-16099214D01*
X15512500Y-15784929D02*
X15255357Y-16170643D01*
X15898214Y-15799214D02*
X15926786Y-15799214D01*
X15955357Y-15813500D01*
X15969643Y-15827786D01*
X15983928Y-15856357D01*
X15998214Y-15913500D01*
X15998214Y-15984929D01*
X15983928Y-16042071D01*
X15969643Y-16070643D01*
X15955357Y-16084929D01*
X15926786Y-16099214D01*
X15898214Y-16099214D01*
X15869643Y-16084929D01*
X15855357Y-16070643D01*
X15841071Y-16042071D01*
X15826786Y-15984929D01*
X15826786Y-15913500D01*
X15841071Y-15856357D01*
X15855357Y-15827786D01*
X15869643Y-15813500D01*
X15898214Y-15799214D01*
X16126786Y-16070643D02*
X16141071Y-16084929D01*
X16126786Y-16099214D01*
X16112500Y-16084929D01*
X16126786Y-16070643D01*
X16126786Y-16099214D01*
X16326786Y-15799214D02*
X16355357Y-15799214D01*
X16383928Y-15813500D01*
X16398214Y-15827786D01*
X16412500Y-15856357D01*
X16426786Y-15913500D01*
X16426786Y-15984929D01*
X16412500Y-16042071D01*
X16398214Y-16070643D01*
X16383928Y-16084929D01*
X16355357Y-16099214D01*
X16326786Y-16099214D01*
X16298214Y-16084929D01*
X16283928Y-16070643D01*
X16269643Y-16042071D01*
X16255357Y-15984929D01*
X16255357Y-15913500D01*
X16269643Y-15856357D01*
X16283928Y-15827786D01*
X16298214Y-15813500D01*
X16326786Y-15799214D01*
X16541071Y-15827786D02*
X16555357Y-15813500D01*
X16583928Y-15799214D01*
X16655357Y-15799214D01*
X16683928Y-15813500D01*
X16698214Y-15827786D01*
X16712500Y-15856357D01*
X16712500Y-15884929D01*
X16698214Y-15927786D01*
X16526786Y-16099214D01*
X16712500Y-16099214D01*
X16855357Y-16099214D02*
X16912500Y-16099214D01*
X16941071Y-16084929D01*
X16955357Y-16070643D01*
X16983928Y-16027786D01*
X16998214Y-15970643D01*
X16998214Y-15856357D01*
X16983928Y-15827786D01*
X16969643Y-15813500D01*
X16941071Y-15799214D01*
X16883928Y-15799214D01*
X16855357Y-15813500D01*
X16841071Y-15827786D01*
X16826786Y-15856357D01*
X16826786Y-15927786D01*
X16841071Y-15956357D01*
X16855357Y-15970643D01*
X16883928Y-15984929D01*
X16941071Y-15984929D01*
X16969643Y-15970643D01*
X16983928Y-15956357D01*
X16998214Y-15927786D01*
X17141071Y-16099214D02*
X17198214Y-16099214D01*
X17226786Y-16084929D01*
X17241071Y-16070643D01*
X17269643Y-16027786D01*
X17283928Y-15970643D01*
X17283928Y-15856357D01*
X17269643Y-15827786D01*
X17255357Y-15813500D01*
X17226786Y-15799214D01*
X17169643Y-15799214D01*
X17141071Y-15813500D01*
X17126786Y-15827786D01*
X17112500Y-15856357D01*
X17112500Y-15927786D01*
X17126786Y-15956357D01*
X17141071Y-15970643D01*
X17169643Y-15984929D01*
X17226786Y-15984929D01*
X17255357Y-15970643D01*
X17269643Y-15956357D01*
X17283928Y-15927786D01*
X17398214Y-15799214D02*
X17398214Y-15856357D01*
X17512500Y-15799214D02*
X17512500Y-15856357D01*
X17955357Y-16213500D02*
X17941071Y-16199214D01*
X17912500Y-16156357D01*
X17898214Y-16127786D01*
X17883928Y-16084929D01*
X17869643Y-16013500D01*
X17869643Y-15956357D01*
X17883928Y-15884929D01*
X17898214Y-15842071D01*
X17912500Y-15813500D01*
X17941071Y-15770643D01*
X17955357Y-15756357D01*
X18226786Y-16099214D02*
X18055357Y-16099214D01*
X18141071Y-16099214D02*
X18141071Y-15799214D01*
X18112500Y-15842071D01*
X18083928Y-15870643D01*
X18055357Y-15884929D01*
X18341071Y-15827786D02*
X18355357Y-15813500D01*
X18383928Y-15799214D01*
X18455357Y-15799214D01*
X18483928Y-15813500D01*
X18498214Y-15827786D01*
X18512500Y-15856357D01*
X18512500Y-15884929D01*
X18498214Y-15927786D01*
X18326786Y-16099214D01*
X18512500Y-16099214D01*
X18869643Y-16099214D02*
X18869643Y-15799214D01*
X18998214Y-16099214D02*
X18998214Y-15942071D01*
X18983928Y-15913500D01*
X18955357Y-15899214D01*
X18912500Y-15899214D01*
X18883928Y-15913500D01*
X18869643Y-15927786D01*
X19183928Y-16099214D02*
X19155357Y-16084929D01*
X19141071Y-16070643D01*
X19126786Y-16042071D01*
X19126786Y-15956357D01*
X19141071Y-15927786D01*
X19155357Y-15913500D01*
X19183928Y-15899214D01*
X19226786Y-15899214D01*
X19255357Y-15913500D01*
X19269643Y-15927786D01*
X19283928Y-15956357D01*
X19283928Y-16042071D01*
X19269643Y-16070643D01*
X19255357Y-16084929D01*
X19226786Y-16099214D01*
X19183928Y-16099214D01*
X19455357Y-16099214D02*
X19426786Y-16084929D01*
X19412500Y-16056357D01*
X19412500Y-15799214D01*
X19683928Y-16084929D02*
X19655357Y-16099214D01*
X19598214Y-16099214D01*
X19569643Y-16084929D01*
X19555357Y-16056357D01*
X19555357Y-15942071D01*
X19569643Y-15913500D01*
X19598214Y-15899214D01*
X19655357Y-15899214D01*
X19683928Y-15913500D01*
X19698214Y-15942071D01*
X19698214Y-15970643D01*
X19555357Y-15999214D01*
X19812500Y-16084929D02*
X19841071Y-16099214D01*
X19898214Y-16099214D01*
X19926786Y-16084929D01*
X19941071Y-16056357D01*
X19941071Y-16042071D01*
X19926786Y-16013500D01*
X19898214Y-15999214D01*
X19855357Y-15999214D01*
X19826786Y-15984929D01*
X19812500Y-15956357D01*
X19812500Y-15942071D01*
X19826786Y-15913500D01*
X19855357Y-15899214D01*
X19898214Y-15899214D01*
X19926786Y-15913500D01*
X20041071Y-16213500D02*
X20055357Y-16199214D01*
X20083928Y-16156357D01*
X20098214Y-16127786D01*
X20112500Y-16084929D01*
X20126786Y-16013500D01*
X20126786Y-15956357D01*
X20112500Y-15884929D01*
X20098214Y-15842071D01*
X20083928Y-15813500D01*
X20055357Y-15770643D01*
X20041071Y-15756357D01*
X12652500Y-16314500D02*
X12652500Y-16404500D01*
X12607500Y-16359500D02*
X12697500Y-16359500D01*
X13041071Y-16195214D02*
X13069643Y-16195214D01*
X13098214Y-16209500D01*
X13112500Y-16223786D01*
X13126786Y-16252357D01*
X13141071Y-16309500D01*
X13141071Y-16380929D01*
X13126786Y-16438071D01*
X13112500Y-16466643D01*
X13098214Y-16480929D01*
X13069643Y-16495214D01*
X13041071Y-16495214D01*
X13012500Y-16480929D01*
X12998214Y-16466643D01*
X12983928Y-16438071D01*
X12969643Y-16380929D01*
X12969643Y-16309500D01*
X12983928Y-16252357D01*
X12998214Y-16223786D01*
X13012500Y-16209500D01*
X13041071Y-16195214D01*
X13269643Y-16466643D02*
X13283928Y-16480929D01*
X13269643Y-16495214D01*
X13255357Y-16480929D01*
X13269643Y-16466643D01*
X13269643Y-16495214D01*
X13426786Y-16495214D02*
X13483928Y-16495214D01*
X13512500Y-16480929D01*
X13526786Y-16466643D01*
X13555357Y-16423786D01*
X13569643Y-16366643D01*
X13569643Y-16252357D01*
X13555357Y-16223786D01*
X13541071Y-16209500D01*
X13512500Y-16195214D01*
X13455357Y-16195214D01*
X13426786Y-16209500D01*
X13412500Y-16223786D01*
X13398214Y-16252357D01*
X13398214Y-16323786D01*
X13412500Y-16352357D01*
X13426786Y-16366643D01*
X13455357Y-16380929D01*
X13512500Y-16380929D01*
X13541071Y-16366643D01*
X13555357Y-16352357D01*
X13569643Y-16323786D01*
X13755357Y-16195214D02*
X13783928Y-16195214D01*
X13812500Y-16209500D01*
X13826786Y-16223786D01*
X13841071Y-16252357D01*
X13855357Y-16309500D01*
X13855357Y-16380929D01*
X13841071Y-16438071D01*
X13826786Y-16466643D01*
X13812500Y-16480929D01*
X13783928Y-16495214D01*
X13755357Y-16495214D01*
X13726786Y-16480929D01*
X13712500Y-16466643D01*
X13698214Y-16438071D01*
X13683928Y-16380929D01*
X13683928Y-16309500D01*
X13698214Y-16252357D01*
X13712500Y-16223786D01*
X13726786Y-16209500D01*
X13755357Y-16195214D01*
X14041071Y-16195214D02*
X14069643Y-16195214D01*
X14098214Y-16209500D01*
X14112500Y-16223786D01*
X14126786Y-16252357D01*
X14141071Y-16309500D01*
X14141071Y-16380929D01*
X14126786Y-16438071D01*
X14112500Y-16466643D01*
X14098214Y-16480929D01*
X14069643Y-16495214D01*
X14041071Y-16495214D01*
X14012500Y-16480929D01*
X13998214Y-16466643D01*
X13983928Y-16438071D01*
X13969643Y-16380929D01*
X13969643Y-16309500D01*
X13983928Y-16252357D01*
X13998214Y-16223786D01*
X14012500Y-16209500D01*
X14041071Y-16195214D01*
X14269643Y-16495214D02*
X14269643Y-16295214D01*
X14269643Y-16323786D02*
X14283928Y-16309500D01*
X14312500Y-16295214D01*
X14355357Y-16295214D01*
X14383928Y-16309500D01*
X14398214Y-16338071D01*
X14398214Y-16495214D01*
X14398214Y-16338071D02*
X14412500Y-16309500D01*
X14441071Y-16295214D01*
X14483928Y-16295214D01*
X14512500Y-16309500D01*
X14526786Y-16338071D01*
X14526786Y-16495214D01*
X14669643Y-16495214D02*
X14669643Y-16295214D01*
X14669643Y-16323786D02*
X14683928Y-16309500D01*
X14712500Y-16295214D01*
X14755357Y-16295214D01*
X14783928Y-16309500D01*
X14798214Y-16338071D01*
X14798214Y-16495214D01*
X14798214Y-16338071D02*
X14812500Y-16309500D01*
X14841071Y-16295214D01*
X14883928Y-16295214D01*
X14912500Y-16309500D01*
X14926786Y-16338071D01*
X14926786Y-16495214D01*
X15512500Y-16180929D02*
X15255357Y-16566643D01*
X15898214Y-16195214D02*
X15926786Y-16195214D01*
X15955357Y-16209500D01*
X15969643Y-16223786D01*
X15983928Y-16252357D01*
X15998214Y-16309500D01*
X15998214Y-16380929D01*
X15983928Y-16438071D01*
X15969643Y-16466643D01*
X15955357Y-16480929D01*
X15926786Y-16495214D01*
X15898214Y-16495214D01*
X15869643Y-16480929D01*
X15855357Y-16466643D01*
X15841071Y-16438071D01*
X15826786Y-16380929D01*
X15826786Y-16309500D01*
X15841071Y-16252357D01*
X15855357Y-16223786D01*
X15869643Y-16209500D01*
X15898214Y-16195214D01*
X16126786Y-16466643D02*
X16141071Y-16480929D01*
X16126786Y-16495214D01*
X16112500Y-16480929D01*
X16126786Y-16466643D01*
X16126786Y-16495214D01*
X16326786Y-16195214D02*
X16355357Y-16195214D01*
X16383928Y-16209500D01*
X16398214Y-16223786D01*
X16412500Y-16252357D01*
X16426786Y-16309500D01*
X16426786Y-16380929D01*
X16412500Y-16438071D01*
X16398214Y-16466643D01*
X16383928Y-16480929D01*
X16355357Y-16495214D01*
X16326786Y-16495214D01*
X16298214Y-16480929D01*
X16283928Y-16466643D01*
X16269643Y-16438071D01*
X16255357Y-16380929D01*
X16255357Y-16309500D01*
X16269643Y-16252357D01*
X16283928Y-16223786D01*
X16298214Y-16209500D01*
X16326786Y-16195214D01*
X16526786Y-16195214D02*
X16712500Y-16195214D01*
X16612500Y-16309500D01*
X16655357Y-16309500D01*
X16683928Y-16323786D01*
X16698214Y-16338071D01*
X16712500Y-16366643D01*
X16712500Y-16438071D01*
X16698214Y-16466643D01*
X16683928Y-16480929D01*
X16655357Y-16495214D01*
X16569643Y-16495214D01*
X16541071Y-16480929D01*
X16526786Y-16466643D01*
X16983928Y-16195214D02*
X16841071Y-16195214D01*
X16826786Y-16338071D01*
X16841071Y-16323786D01*
X16869643Y-16309500D01*
X16941071Y-16309500D01*
X16969643Y-16323786D01*
X16983928Y-16338071D01*
X16998214Y-16366643D01*
X16998214Y-16438071D01*
X16983928Y-16466643D01*
X16969643Y-16480929D01*
X16941071Y-16495214D01*
X16869643Y-16495214D01*
X16841071Y-16480929D01*
X16826786Y-16466643D01*
X17255357Y-16295214D02*
X17255357Y-16495214D01*
X17183928Y-16180929D02*
X17112500Y-16395214D01*
X17298214Y-16395214D01*
X17398214Y-16195214D02*
X17398214Y-16252357D01*
X17512500Y-16195214D02*
X17512500Y-16252357D01*
X17955357Y-16609500D02*
X17941071Y-16595214D01*
X17912500Y-16552357D01*
X17898214Y-16523786D01*
X17883928Y-16480929D01*
X17869643Y-16409500D01*
X17869643Y-16352357D01*
X17883928Y-16280929D01*
X17898214Y-16238071D01*
X17912500Y-16209500D01*
X17941071Y-16166643D01*
X17955357Y-16152357D01*
X18041071Y-16195214D02*
X18226786Y-16195214D01*
X18126786Y-16309500D01*
X18169643Y-16309500D01*
X18198214Y-16323786D01*
X18212500Y-16338071D01*
X18226786Y-16366643D01*
X18226786Y-16438071D01*
X18212500Y-16466643D01*
X18198214Y-16480929D01*
X18169643Y-16495214D01*
X18083928Y-16495214D01*
X18055357Y-16480929D01*
X18041071Y-16466643D01*
X18583928Y-16495214D02*
X18583928Y-16195214D01*
X18712500Y-16495214D02*
X18712500Y-16338071D01*
X18698214Y-16309500D01*
X18669643Y-16295214D01*
X18626786Y-16295214D01*
X18598214Y-16309500D01*
X18583928Y-16323786D01*
X18898214Y-16495214D02*
X18869643Y-16480929D01*
X18855357Y-16466643D01*
X18841071Y-16438071D01*
X18841071Y-16352357D01*
X18855357Y-16323786D01*
X18869643Y-16309500D01*
X18898214Y-16295214D01*
X18941071Y-16295214D01*
X18969643Y-16309500D01*
X18983928Y-16323786D01*
X18998214Y-16352357D01*
X18998214Y-16438071D01*
X18983928Y-16466643D01*
X18969643Y-16480929D01*
X18941071Y-16495214D01*
X18898214Y-16495214D01*
X19169643Y-16495214D02*
X19141071Y-16480929D01*
X19126786Y-16452357D01*
X19126786Y-16195214D01*
X19398214Y-16480929D02*
X19369643Y-16495214D01*
X19312500Y-16495214D01*
X19283928Y-16480929D01*
X19269643Y-16452357D01*
X19269643Y-16338071D01*
X19283928Y-16309500D01*
X19312500Y-16295214D01*
X19369643Y-16295214D01*
X19398214Y-16309500D01*
X19412500Y-16338071D01*
X19412500Y-16366643D01*
X19269643Y-16395214D01*
X19526786Y-16480929D02*
X19555357Y-16495214D01*
X19612500Y-16495214D01*
X19641071Y-16480929D01*
X19655357Y-16452357D01*
X19655357Y-16438071D01*
X19641071Y-16409500D01*
X19612500Y-16395214D01*
X19569643Y-16395214D01*
X19541071Y-16380929D01*
X19526786Y-16352357D01*
X19526786Y-16338071D01*
X19541071Y-16309500D01*
X19569643Y-16295214D01*
X19612500Y-16295214D01*
X19641071Y-16309500D01*
X19755357Y-16609500D02*
X19769643Y-16595214D01*
X19798214Y-16552357D01*
X19812500Y-16523786D01*
X19826786Y-16480929D01*
X19841071Y-16409500D01*
X19841071Y-16352357D01*
X19826786Y-16280929D01*
X19812500Y-16238071D01*
X19798214Y-16209500D01*
X19769643Y-16166643D01*
X19755357Y-16152357D01*
X12682856Y-16790856D02*
X12682856Y-16720144D01*
X12612144Y-16720144D01*
X12612144Y-16790856D01*
X12682856Y-16790856D01*
X13141071Y-16891214D02*
X12969643Y-16891214D01*
X13055357Y-16891214D02*
X13055357Y-16591214D01*
X13026786Y-16634071D01*
X12998214Y-16662643D01*
X12969643Y-16676929D01*
X13269643Y-16862643D02*
X13283928Y-16876929D01*
X13269643Y-16891214D01*
X13255357Y-16876929D01*
X13269643Y-16862643D01*
X13269643Y-16891214D01*
X13469643Y-16591214D02*
X13498214Y-16591214D01*
X13526786Y-16605500D01*
X13541071Y-16619786D01*
X13555357Y-16648357D01*
X13569643Y-16705500D01*
X13569643Y-16776929D01*
X13555357Y-16834072D01*
X13541071Y-16862643D01*
X13526786Y-16876929D01*
X13498214Y-16891214D01*
X13469643Y-16891214D01*
X13441071Y-16876929D01*
X13426786Y-16862643D01*
X13412500Y-16834072D01*
X13398214Y-16776929D01*
X13398214Y-16705500D01*
X13412500Y-16648357D01*
X13426786Y-16619786D01*
X13441071Y-16605500D01*
X13469643Y-16591214D01*
X13755357Y-16591214D02*
X13783928Y-16591214D01*
X13812500Y-16605500D01*
X13826786Y-16619786D01*
X13841071Y-16648357D01*
X13855357Y-16705500D01*
X13855357Y-16776929D01*
X13841071Y-16834072D01*
X13826786Y-16862643D01*
X13812500Y-16876929D01*
X13783928Y-16891214D01*
X13755357Y-16891214D01*
X13726786Y-16876929D01*
X13712500Y-16862643D01*
X13698214Y-16834072D01*
X13683928Y-16776929D01*
X13683928Y-16705500D01*
X13698214Y-16648357D01*
X13712500Y-16619786D01*
X13726786Y-16605500D01*
X13755357Y-16591214D01*
X14041071Y-16591214D02*
X14069643Y-16591214D01*
X14098214Y-16605500D01*
X14112500Y-16619786D01*
X14126786Y-16648357D01*
X14141071Y-16705500D01*
X14141071Y-16776929D01*
X14126786Y-16834072D01*
X14112500Y-16862643D01*
X14098214Y-16876929D01*
X14069643Y-16891214D01*
X14041071Y-16891214D01*
X14012500Y-16876929D01*
X13998214Y-16862643D01*
X13983928Y-16834072D01*
X13969643Y-16776929D01*
X13969643Y-16705500D01*
X13983928Y-16648357D01*
X13998214Y-16619786D01*
X14012500Y-16605500D01*
X14041071Y-16591214D01*
X14269643Y-16891214D02*
X14269643Y-16691214D01*
X14269643Y-16719786D02*
X14283928Y-16705500D01*
X14312500Y-16691214D01*
X14355357Y-16691214D01*
X14383928Y-16705500D01*
X14398214Y-16734071D01*
X14398214Y-16891214D01*
X14398214Y-16734071D02*
X14412500Y-16705500D01*
X14441071Y-16691214D01*
X14483928Y-16691214D01*
X14512500Y-16705500D01*
X14526786Y-16734071D01*
X14526786Y-16891214D01*
X14669643Y-16891214D02*
X14669643Y-16691214D01*
X14669643Y-16719786D02*
X14683928Y-16705500D01*
X14712500Y-16691214D01*
X14755357Y-16691214D01*
X14783928Y-16705500D01*
X14798214Y-16734071D01*
X14798214Y-16891214D01*
X14798214Y-16734071D02*
X14812500Y-16705500D01*
X14841071Y-16691214D01*
X14883928Y-16691214D01*
X14912500Y-16705500D01*
X14926786Y-16734071D01*
X14926786Y-16891214D01*
X15512500Y-16576929D02*
X15255357Y-16962643D01*
X15898214Y-16591214D02*
X15926786Y-16591214D01*
X15955357Y-16605500D01*
X15969643Y-16619786D01*
X15983928Y-16648357D01*
X15998214Y-16705500D01*
X15998214Y-16776929D01*
X15983928Y-16834072D01*
X15969643Y-16862643D01*
X15955357Y-16876929D01*
X15926786Y-16891214D01*
X15898214Y-16891214D01*
X15869643Y-16876929D01*
X15855357Y-16862643D01*
X15841071Y-16834072D01*
X15826786Y-16776929D01*
X15826786Y-16705500D01*
X15841071Y-16648357D01*
X15855357Y-16619786D01*
X15869643Y-16605500D01*
X15898214Y-16591214D01*
X16126786Y-16862643D02*
X16141071Y-16876929D01*
X16126786Y-16891214D01*
X16112500Y-16876929D01*
X16126786Y-16862643D01*
X16126786Y-16891214D01*
X16326786Y-16591214D02*
X16355357Y-16591214D01*
X16383928Y-16605500D01*
X16398214Y-16619786D01*
X16412500Y-16648357D01*
X16426786Y-16705500D01*
X16426786Y-16776929D01*
X16412500Y-16834072D01*
X16398214Y-16862643D01*
X16383928Y-16876929D01*
X16355357Y-16891214D01*
X16326786Y-16891214D01*
X16298214Y-16876929D01*
X16283928Y-16862643D01*
X16269643Y-16834072D01*
X16255357Y-16776929D01*
X16255357Y-16705500D01*
X16269643Y-16648357D01*
X16283928Y-16619786D01*
X16298214Y-16605500D01*
X16326786Y-16591214D01*
X16526786Y-16591214D02*
X16712500Y-16591214D01*
X16612500Y-16705500D01*
X16655357Y-16705500D01*
X16683928Y-16719786D01*
X16698214Y-16734071D01*
X16712500Y-16762643D01*
X16712500Y-16834072D01*
X16698214Y-16862643D01*
X16683928Y-16876929D01*
X16655357Y-16891214D01*
X16569643Y-16891214D01*
X16541071Y-16876929D01*
X16526786Y-16862643D01*
X16855357Y-16891214D02*
X16912500Y-16891214D01*
X16941071Y-16876929D01*
X16955357Y-16862643D01*
X16983928Y-16819786D01*
X16998214Y-16762643D01*
X16998214Y-16648357D01*
X16983928Y-16619786D01*
X16969643Y-16605500D01*
X16941071Y-16591214D01*
X16883928Y-16591214D01*
X16855357Y-16605500D01*
X16841071Y-16619786D01*
X16826786Y-16648357D01*
X16826786Y-16719786D01*
X16841071Y-16748357D01*
X16855357Y-16762643D01*
X16883928Y-16776929D01*
X16941071Y-16776929D01*
X16969643Y-16762643D01*
X16983928Y-16748357D01*
X16998214Y-16719786D01*
X17255357Y-16691214D02*
X17255357Y-16891214D01*
X17183928Y-16576929D02*
X17112500Y-16791214D01*
X17298214Y-16791214D01*
X17398214Y-16591214D02*
X17398214Y-16648357D01*
X17512500Y-16591214D02*
X17512500Y-16648357D01*
X17955357Y-17005500D02*
X17941071Y-16991214D01*
X17912500Y-16948357D01*
X17898214Y-16919786D01*
X17883928Y-16876929D01*
X17869643Y-16805500D01*
X17869643Y-16748357D01*
X17883928Y-16676929D01*
X17898214Y-16634071D01*
X17912500Y-16605500D01*
X17941071Y-16562643D01*
X17955357Y-16548357D01*
X18112500Y-16719786D02*
X18083928Y-16705500D01*
X18069643Y-16691214D01*
X18055357Y-16662643D01*
X18055357Y-16648357D01*
X18069643Y-16619786D01*
X18083928Y-16605500D01*
X18112500Y-16591214D01*
X18169643Y-16591214D01*
X18198214Y-16605500D01*
X18212500Y-16619786D01*
X18226786Y-16648357D01*
X18226786Y-16662643D01*
X18212500Y-16691214D01*
X18198214Y-16705500D01*
X18169643Y-16719786D01*
X18112500Y-16719786D01*
X18083928Y-16734071D01*
X18069643Y-16748357D01*
X18055357Y-16776929D01*
X18055357Y-16834072D01*
X18069643Y-16862643D01*
X18083928Y-16876929D01*
X18112500Y-16891214D01*
X18169643Y-16891214D01*
X18198214Y-16876929D01*
X18212500Y-16862643D01*
X18226786Y-16834072D01*
X18226786Y-16776929D01*
X18212500Y-16748357D01*
X18198214Y-16734071D01*
X18169643Y-16719786D01*
X18412500Y-16591214D02*
X18441071Y-16591214D01*
X18469643Y-16605500D01*
X18483928Y-16619786D01*
X18498214Y-16648357D01*
X18512500Y-16705500D01*
X18512500Y-16776929D01*
X18498214Y-16834072D01*
X18483928Y-16862643D01*
X18469643Y-16876929D01*
X18441071Y-16891214D01*
X18412500Y-16891214D01*
X18383928Y-16876929D01*
X18369643Y-16862643D01*
X18355357Y-16834072D01*
X18341071Y-16776929D01*
X18341071Y-16705500D01*
X18355357Y-16648357D01*
X18369643Y-16619786D01*
X18383928Y-16605500D01*
X18412500Y-16591214D01*
X18869643Y-16891214D02*
X18869643Y-16591214D01*
X18998214Y-16891214D02*
X18998214Y-16734071D01*
X18983928Y-16705500D01*
X18955357Y-16691214D01*
X18912500Y-16691214D01*
X18883928Y-16705500D01*
X18869643Y-16719786D01*
X19183928Y-16891214D02*
X19155357Y-16876929D01*
X19141071Y-16862643D01*
X19126786Y-16834072D01*
X19126786Y-16748357D01*
X19141071Y-16719786D01*
X19155357Y-16705500D01*
X19183928Y-16691214D01*
X19226786Y-16691214D01*
X19255357Y-16705500D01*
X19269643Y-16719786D01*
X19283928Y-16748357D01*
X19283928Y-16834072D01*
X19269643Y-16862643D01*
X19255357Y-16876929D01*
X19226786Y-16891214D01*
X19183928Y-16891214D01*
X19455357Y-16891214D02*
X19426786Y-16876929D01*
X19412500Y-16848357D01*
X19412500Y-16591214D01*
X19683928Y-16876929D02*
X19655357Y-16891214D01*
X19598214Y-16891214D01*
X19569643Y-16876929D01*
X19555357Y-16848357D01*
X19555357Y-16734071D01*
X19569643Y-16705500D01*
X19598214Y-16691214D01*
X19655357Y-16691214D01*
X19683928Y-16705500D01*
X19698214Y-16734071D01*
X19698214Y-16762643D01*
X19555357Y-16791214D01*
X19812500Y-16876929D02*
X19841071Y-16891214D01*
X19898214Y-16891214D01*
X19926786Y-16876929D01*
X19941071Y-16848357D01*
X19941071Y-16834072D01*
X19926786Y-16805500D01*
X19898214Y-16791214D01*
X19855357Y-16791214D01*
X19826786Y-16776929D01*
X19812500Y-16748357D01*
X19812500Y-16734071D01*
X19826786Y-16705500D01*
X19855357Y-16691214D01*
X19898214Y-16691214D01*
X19926786Y-16705500D01*
X20041071Y-17005500D02*
X20055357Y-16991214D01*
X20083928Y-16948357D01*
X20098214Y-16919786D01*
X20112500Y-16876929D01*
X20126786Y-16805500D01*
X20126786Y-16748357D01*
X20112500Y-16676929D01*
X20098214Y-16634071D01*
X20083928Y-16605500D01*
X20055357Y-16562643D01*
X20041071Y-16548357D01*
X12642500Y-17206500D02*
X12697500Y-17151500D01*
X12642500Y-17096500D01*
X12587500Y-17151500D01*
X12642500Y-17206500D01*
X13141071Y-17287214D02*
X12969643Y-17287214D01*
X13055357Y-17287214D02*
X13055357Y-16987214D01*
X13026786Y-17030072D01*
X12998214Y-17058643D01*
X12969643Y-17072929D01*
X13269643Y-17258643D02*
X13283928Y-17272929D01*
X13269643Y-17287214D01*
X13255357Y-17272929D01*
X13269643Y-17258643D01*
X13269643Y-17287214D01*
X13569643Y-17287214D02*
X13398214Y-17287214D01*
X13483928Y-17287214D02*
X13483928Y-16987214D01*
X13455357Y-17030072D01*
X13426786Y-17058643D01*
X13398214Y-17072929D01*
X13755357Y-16987214D02*
X13783928Y-16987214D01*
X13812500Y-17001500D01*
X13826786Y-17015786D01*
X13841071Y-17044357D01*
X13855357Y-17101500D01*
X13855357Y-17172929D01*
X13841071Y-17230072D01*
X13826786Y-17258643D01*
X13812500Y-17272929D01*
X13783928Y-17287214D01*
X13755357Y-17287214D01*
X13726786Y-17272929D01*
X13712500Y-17258643D01*
X13698214Y-17230072D01*
X13683928Y-17172929D01*
X13683928Y-17101500D01*
X13698214Y-17044357D01*
X13712500Y-17015786D01*
X13726786Y-17001500D01*
X13755357Y-16987214D01*
X14041071Y-16987214D02*
X14069643Y-16987214D01*
X14098214Y-17001500D01*
X14112500Y-17015786D01*
X14126786Y-17044357D01*
X14141071Y-17101500D01*
X14141071Y-17172929D01*
X14126786Y-17230072D01*
X14112500Y-17258643D01*
X14098214Y-17272929D01*
X14069643Y-17287214D01*
X14041071Y-17287214D01*
X14012500Y-17272929D01*
X13998214Y-17258643D01*
X13983928Y-17230072D01*
X13969643Y-17172929D01*
X13969643Y-17101500D01*
X13983928Y-17044357D01*
X13998214Y-17015786D01*
X14012500Y-17001500D01*
X14041071Y-16987214D01*
X14269643Y-17287214D02*
X14269643Y-17087214D01*
X14269643Y-17115786D02*
X14283928Y-17101500D01*
X14312500Y-17087214D01*
X14355357Y-17087214D01*
X14383928Y-17101500D01*
X14398214Y-17130072D01*
X14398214Y-17287214D01*
X14398214Y-17130072D02*
X14412500Y-17101500D01*
X14441071Y-17087214D01*
X14483928Y-17087214D01*
X14512500Y-17101500D01*
X14526786Y-17130072D01*
X14526786Y-17287214D01*
X14669643Y-17287214D02*
X14669643Y-17087214D01*
X14669643Y-17115786D02*
X14683928Y-17101500D01*
X14712500Y-17087214D01*
X14755357Y-17087214D01*
X14783928Y-17101500D01*
X14798214Y-17130072D01*
X14798214Y-17287214D01*
X14798214Y-17130072D02*
X14812500Y-17101500D01*
X14841071Y-17087214D01*
X14883928Y-17087214D01*
X14912500Y-17101500D01*
X14926786Y-17130072D01*
X14926786Y-17287214D01*
X15512500Y-16972929D02*
X15255357Y-17358643D01*
X15898214Y-16987214D02*
X15926786Y-16987214D01*
X15955357Y-17001500D01*
X15969643Y-17015786D01*
X15983928Y-17044357D01*
X15998214Y-17101500D01*
X15998214Y-17172929D01*
X15983928Y-17230072D01*
X15969643Y-17258643D01*
X15955357Y-17272929D01*
X15926786Y-17287214D01*
X15898214Y-17287214D01*
X15869643Y-17272929D01*
X15855357Y-17258643D01*
X15841071Y-17230072D01*
X15826786Y-17172929D01*
X15826786Y-17101500D01*
X15841071Y-17044357D01*
X15855357Y-17015786D01*
X15869643Y-17001500D01*
X15898214Y-16987214D01*
X16126786Y-17258643D02*
X16141071Y-17272929D01*
X16126786Y-17287214D01*
X16112500Y-17272929D01*
X16126786Y-17258643D01*
X16126786Y-17287214D01*
X16326786Y-16987214D02*
X16355357Y-16987214D01*
X16383928Y-17001500D01*
X16398214Y-17015786D01*
X16412500Y-17044357D01*
X16426786Y-17101500D01*
X16426786Y-17172929D01*
X16412500Y-17230072D01*
X16398214Y-17258643D01*
X16383928Y-17272929D01*
X16355357Y-17287214D01*
X16326786Y-17287214D01*
X16298214Y-17272929D01*
X16283928Y-17258643D01*
X16269643Y-17230072D01*
X16255357Y-17172929D01*
X16255357Y-17101500D01*
X16269643Y-17044357D01*
X16283928Y-17015786D01*
X16298214Y-17001500D01*
X16326786Y-16987214D01*
X16683928Y-17087214D02*
X16683928Y-17287214D01*
X16612500Y-16972929D02*
X16541071Y-17187214D01*
X16726786Y-17187214D01*
X16812500Y-16987214D02*
X16998214Y-16987214D01*
X16898214Y-17101500D01*
X16941071Y-17101500D01*
X16969643Y-17115786D01*
X16983928Y-17130072D01*
X16998214Y-17158643D01*
X16998214Y-17230072D01*
X16983928Y-17258643D01*
X16969643Y-17272929D01*
X16941071Y-17287214D01*
X16855357Y-17287214D01*
X16826786Y-17272929D01*
X16812500Y-17258643D01*
X17098214Y-16987214D02*
X17283928Y-16987214D01*
X17183928Y-17101500D01*
X17226786Y-17101500D01*
X17255357Y-17115786D01*
X17269643Y-17130072D01*
X17283928Y-17158643D01*
X17283928Y-17230072D01*
X17269643Y-17258643D01*
X17255357Y-17272929D01*
X17226786Y-17287214D01*
X17141071Y-17287214D01*
X17112500Y-17272929D01*
X17098214Y-17258643D01*
X17398214Y-16987214D02*
X17398214Y-17044357D01*
X17512500Y-16987214D02*
X17512500Y-17044357D01*
X17955357Y-17401500D02*
X17941071Y-17387214D01*
X17912500Y-17344357D01*
X17898214Y-17315786D01*
X17883928Y-17272929D01*
X17869643Y-17201500D01*
X17869643Y-17144357D01*
X17883928Y-17072929D01*
X17898214Y-17030072D01*
X17912500Y-17001500D01*
X17941071Y-16958643D01*
X17955357Y-16944357D01*
X18212500Y-16987214D02*
X18069643Y-16987214D01*
X18055357Y-17130072D01*
X18069643Y-17115786D01*
X18098214Y-17101500D01*
X18169643Y-17101500D01*
X18198214Y-17115786D01*
X18212500Y-17130072D01*
X18226786Y-17158643D01*
X18226786Y-17230072D01*
X18212500Y-17258643D01*
X18198214Y-17272929D01*
X18169643Y-17287214D01*
X18098214Y-17287214D01*
X18069643Y-17272929D01*
X18055357Y-17258643D01*
X18583928Y-17287214D02*
X18583928Y-16987214D01*
X18712500Y-17287214D02*
X18712500Y-17130072D01*
X18698214Y-17101500D01*
X18669643Y-17087214D01*
X18626786Y-17087214D01*
X18598214Y-17101500D01*
X18583928Y-17115786D01*
X18898214Y-17287214D02*
X18869643Y-17272929D01*
X18855357Y-17258643D01*
X18841071Y-17230072D01*
X18841071Y-17144357D01*
X18855357Y-17115786D01*
X18869643Y-17101500D01*
X18898214Y-17087214D01*
X18941071Y-17087214D01*
X18969643Y-17101500D01*
X18983928Y-17115786D01*
X18998214Y-17144357D01*
X18998214Y-17230072D01*
X18983928Y-17258643D01*
X18969643Y-17272929D01*
X18941071Y-17287214D01*
X18898214Y-17287214D01*
X19169643Y-17287214D02*
X19141071Y-17272929D01*
X19126786Y-17244357D01*
X19126786Y-16987214D01*
X19398214Y-17272929D02*
X19369643Y-17287214D01*
X19312500Y-17287214D01*
X19283928Y-17272929D01*
X19269643Y-17244357D01*
X19269643Y-17130072D01*
X19283928Y-17101500D01*
X19312500Y-17087214D01*
X19369643Y-17087214D01*
X19398214Y-17101500D01*
X19412500Y-17130072D01*
X19412500Y-17158643D01*
X19269643Y-17187214D01*
X19526786Y-17272929D02*
X19555357Y-17287214D01*
X19612500Y-17287214D01*
X19641071Y-17272929D01*
X19655357Y-17244357D01*
X19655357Y-17230072D01*
X19641071Y-17201500D01*
X19612500Y-17187214D01*
X19569643Y-17187214D01*
X19541071Y-17172929D01*
X19526786Y-17144357D01*
X19526786Y-17130072D01*
X19541071Y-17101500D01*
X19569643Y-17087214D01*
X19612500Y-17087214D01*
X19641071Y-17101500D01*
X19755357Y-17401500D02*
X19769643Y-17387214D01*
X19798214Y-17344357D01*
X19812500Y-17315786D01*
X19826786Y-17272929D01*
X19841071Y-17201500D01*
X19841071Y-17144357D01*
X19826786Y-17072929D01*
X19812500Y-17030072D01*
X19798214Y-17001500D01*
X19769643Y-16958643D01*
X19755357Y-16944357D01*
X12547500Y-17472500D02*
X12697500Y-17622500D01*
X12697500Y-17472500D02*
X12547500Y-17622500D01*
X12697500Y-17547500D02*
G75*
G03*
X12697500Y-17547500I-75000J0D01*
G01*
X13141071Y-17683214D02*
X12969643Y-17683214D01*
X13055357Y-17683214D02*
X13055357Y-17383214D01*
X13026786Y-17426072D01*
X12998214Y-17454643D01*
X12969643Y-17468929D01*
X13269643Y-17654643D02*
X13283928Y-17668929D01*
X13269643Y-17683214D01*
X13255357Y-17668929D01*
X13269643Y-17654643D01*
X13269643Y-17683214D01*
X13555357Y-17383214D02*
X13412500Y-17383214D01*
X13398214Y-17526072D01*
X13412500Y-17511786D01*
X13441071Y-17497500D01*
X13512500Y-17497500D01*
X13541071Y-17511786D01*
X13555357Y-17526072D01*
X13569643Y-17554643D01*
X13569643Y-17626072D01*
X13555357Y-17654643D01*
X13541071Y-17668929D01*
X13512500Y-17683214D01*
X13441071Y-17683214D01*
X13412500Y-17668929D01*
X13398214Y-17654643D01*
X13755357Y-17383214D02*
X13783928Y-17383214D01*
X13812500Y-17397500D01*
X13826786Y-17411786D01*
X13841071Y-17440357D01*
X13855357Y-17497500D01*
X13855357Y-17568929D01*
X13841071Y-17626072D01*
X13826786Y-17654643D01*
X13812500Y-17668929D01*
X13783928Y-17683214D01*
X13755357Y-17683214D01*
X13726786Y-17668929D01*
X13712500Y-17654643D01*
X13698214Y-17626072D01*
X13683928Y-17568929D01*
X13683928Y-17497500D01*
X13698214Y-17440357D01*
X13712500Y-17411786D01*
X13726786Y-17397500D01*
X13755357Y-17383214D01*
X14041071Y-17383214D02*
X14069643Y-17383214D01*
X14098214Y-17397500D01*
X14112500Y-17411786D01*
X14126786Y-17440357D01*
X14141071Y-17497500D01*
X14141071Y-17568929D01*
X14126786Y-17626072D01*
X14112500Y-17654643D01*
X14098214Y-17668929D01*
X14069643Y-17683214D01*
X14041071Y-17683214D01*
X14012500Y-17668929D01*
X13998214Y-17654643D01*
X13983928Y-17626072D01*
X13969643Y-17568929D01*
X13969643Y-17497500D01*
X13983928Y-17440357D01*
X13998214Y-17411786D01*
X14012500Y-17397500D01*
X14041071Y-17383214D01*
X14269643Y-17683214D02*
X14269643Y-17483214D01*
X14269643Y-17511786D02*
X14283928Y-17497500D01*
X14312500Y-17483214D01*
X14355357Y-17483214D01*
X14383928Y-17497500D01*
X14398214Y-17526072D01*
X14398214Y-17683214D01*
X14398214Y-17526072D02*
X14412500Y-17497500D01*
X14441071Y-17483214D01*
X14483928Y-17483214D01*
X14512500Y-17497500D01*
X14526786Y-17526072D01*
X14526786Y-17683214D01*
X14669643Y-17683214D02*
X14669643Y-17483214D01*
X14669643Y-17511786D02*
X14683928Y-17497500D01*
X14712500Y-17483214D01*
X14755357Y-17483214D01*
X14783928Y-17497500D01*
X14798214Y-17526072D01*
X14798214Y-17683214D01*
X14798214Y-17526072D02*
X14812500Y-17497500D01*
X14841071Y-17483214D01*
X14883928Y-17483214D01*
X14912500Y-17497500D01*
X14926786Y-17526072D01*
X14926786Y-17683214D01*
X15512500Y-17368929D02*
X15255357Y-17754643D01*
X15898214Y-17383214D02*
X15926786Y-17383214D01*
X15955357Y-17397500D01*
X15969643Y-17411786D01*
X15983928Y-17440357D01*
X15998214Y-17497500D01*
X15998214Y-17568929D01*
X15983928Y-17626072D01*
X15969643Y-17654643D01*
X15955357Y-17668929D01*
X15926786Y-17683214D01*
X15898214Y-17683214D01*
X15869643Y-17668929D01*
X15855357Y-17654643D01*
X15841071Y-17626072D01*
X15826786Y-17568929D01*
X15826786Y-17497500D01*
X15841071Y-17440357D01*
X15855357Y-17411786D01*
X15869643Y-17397500D01*
X15898214Y-17383214D01*
X16126786Y-17654643D02*
X16141071Y-17668929D01*
X16126786Y-17683214D01*
X16112500Y-17668929D01*
X16126786Y-17654643D01*
X16126786Y-17683214D01*
X16326786Y-17383214D02*
X16355357Y-17383214D01*
X16383928Y-17397500D01*
X16398214Y-17411786D01*
X16412500Y-17440357D01*
X16426786Y-17497500D01*
X16426786Y-17568929D01*
X16412500Y-17626072D01*
X16398214Y-17654643D01*
X16383928Y-17668929D01*
X16355357Y-17683214D01*
X16326786Y-17683214D01*
X16298214Y-17668929D01*
X16283928Y-17654643D01*
X16269643Y-17626072D01*
X16255357Y-17568929D01*
X16255357Y-17497500D01*
X16269643Y-17440357D01*
X16283928Y-17411786D01*
X16298214Y-17397500D01*
X16326786Y-17383214D01*
X16698214Y-17383214D02*
X16555357Y-17383214D01*
X16541071Y-17526072D01*
X16555357Y-17511786D01*
X16583928Y-17497500D01*
X16655357Y-17497500D01*
X16683928Y-17511786D01*
X16698214Y-17526072D01*
X16712500Y-17554643D01*
X16712500Y-17626072D01*
X16698214Y-17654643D01*
X16683928Y-17668929D01*
X16655357Y-17683214D01*
X16583928Y-17683214D01*
X16555357Y-17668929D01*
X16541071Y-17654643D01*
X16855357Y-17683214D02*
X16912500Y-17683214D01*
X16941071Y-17668929D01*
X16955357Y-17654643D01*
X16983928Y-17611786D01*
X16998214Y-17554643D01*
X16998214Y-17440357D01*
X16983928Y-17411786D01*
X16969643Y-17397500D01*
X16941071Y-17383214D01*
X16883928Y-17383214D01*
X16855357Y-17397500D01*
X16841071Y-17411786D01*
X16826786Y-17440357D01*
X16826786Y-17511786D01*
X16841071Y-17540357D01*
X16855357Y-17554643D01*
X16883928Y-17568929D01*
X16941071Y-17568929D01*
X16969643Y-17554643D01*
X16983928Y-17540357D01*
X16998214Y-17511786D01*
X17283928Y-17683214D02*
X17112500Y-17683214D01*
X17198214Y-17683214D02*
X17198214Y-17383214D01*
X17169643Y-17426072D01*
X17141071Y-17454643D01*
X17112500Y-17468929D01*
X17398214Y-17383214D02*
X17398214Y-17440357D01*
X17512500Y-17383214D02*
X17512500Y-17440357D01*
X17955357Y-17797500D02*
X17941071Y-17783214D01*
X17912500Y-17740357D01*
X17898214Y-17711786D01*
X17883928Y-17668929D01*
X17869643Y-17597500D01*
X17869643Y-17540357D01*
X17883928Y-17468929D01*
X17898214Y-17426072D01*
X17912500Y-17397500D01*
X17941071Y-17354643D01*
X17955357Y-17340357D01*
X18226786Y-17683214D02*
X18055357Y-17683214D01*
X18141071Y-17683214D02*
X18141071Y-17383214D01*
X18112500Y-17426072D01*
X18083928Y-17454643D01*
X18055357Y-17468929D01*
X18412500Y-17383214D02*
X18441071Y-17383214D01*
X18469643Y-17397500D01*
X18483928Y-17411786D01*
X18498214Y-17440357D01*
X18512500Y-17497500D01*
X18512500Y-17568929D01*
X18498214Y-17626072D01*
X18483928Y-17654643D01*
X18469643Y-17668929D01*
X18441071Y-17683214D01*
X18412500Y-17683214D01*
X18383928Y-17668929D01*
X18369643Y-17654643D01*
X18355357Y-17626072D01*
X18341071Y-17568929D01*
X18341071Y-17497500D01*
X18355357Y-17440357D01*
X18369643Y-17411786D01*
X18383928Y-17397500D01*
X18412500Y-17383214D01*
X18869643Y-17683214D02*
X18869643Y-17383214D01*
X18998214Y-17683214D02*
X18998214Y-17526072D01*
X18983928Y-17497500D01*
X18955357Y-17483214D01*
X18912500Y-17483214D01*
X18883928Y-17497500D01*
X18869643Y-17511786D01*
X19183928Y-17683214D02*
X19155357Y-17668929D01*
X19141071Y-17654643D01*
X19126786Y-17626072D01*
X19126786Y-17540357D01*
X19141071Y-17511786D01*
X19155357Y-17497500D01*
X19183928Y-17483214D01*
X19226786Y-17483214D01*
X19255357Y-17497500D01*
X19269643Y-17511786D01*
X19283928Y-17540357D01*
X19283928Y-17626072D01*
X19269643Y-17654643D01*
X19255357Y-17668929D01*
X19226786Y-17683214D01*
X19183928Y-17683214D01*
X19455357Y-17683214D02*
X19426786Y-17668929D01*
X19412500Y-17640357D01*
X19412500Y-17383214D01*
X19683928Y-17668929D02*
X19655357Y-17683214D01*
X19598214Y-17683214D01*
X19569643Y-17668929D01*
X19555357Y-17640357D01*
X19555357Y-17526072D01*
X19569643Y-17497500D01*
X19598214Y-17483214D01*
X19655357Y-17483214D01*
X19683928Y-17497500D01*
X19698214Y-17526072D01*
X19698214Y-17554643D01*
X19555357Y-17583214D01*
X19812500Y-17668929D02*
X19841071Y-17683214D01*
X19898214Y-17683214D01*
X19926786Y-17668929D01*
X19941071Y-17640357D01*
X19941071Y-17626072D01*
X19926786Y-17597500D01*
X19898214Y-17583214D01*
X19855357Y-17583214D01*
X19826786Y-17568929D01*
X19812500Y-17540357D01*
X19812500Y-17526072D01*
X19826786Y-17497500D01*
X19855357Y-17483214D01*
X19898214Y-17483214D01*
X19926786Y-17497500D01*
X20041071Y-17797500D02*
X20055357Y-17783214D01*
X20083928Y-17740357D01*
X20098214Y-17711786D01*
X20112500Y-17668929D01*
X20126786Y-17597500D01*
X20126786Y-17540357D01*
X20112500Y-17468929D01*
X20098214Y-17426072D01*
X20083928Y-17397500D01*
X20055357Y-17354643D01*
X20041071Y-17340357D01*
X12347500Y-17768500D02*
X12697500Y-18118500D01*
X12697500Y-17768500D02*
X12347500Y-18118500D01*
X12522500Y-17768500D02*
X12522500Y-18118500D01*
X12347500Y-17943500D02*
X12697500Y-17943500D01*
X12955357Y-17779214D02*
X13141071Y-17779214D01*
X13041071Y-17893500D01*
X13083928Y-17893500D01*
X13112500Y-17907786D01*
X13126786Y-17922072D01*
X13141071Y-17950643D01*
X13141071Y-18022072D01*
X13126786Y-18050643D01*
X13112500Y-18064929D01*
X13083928Y-18079214D01*
X12998214Y-18079214D01*
X12969643Y-18064929D01*
X12955357Y-18050643D01*
X13269643Y-18050643D02*
X13283928Y-18064929D01*
X13269643Y-18079214D01*
X13255357Y-18064929D01*
X13269643Y-18050643D01*
X13269643Y-18079214D01*
X13555357Y-17779214D02*
X13412500Y-17779214D01*
X13398214Y-17922072D01*
X13412500Y-17907786D01*
X13441071Y-17893500D01*
X13512500Y-17893500D01*
X13541071Y-17907786D01*
X13555357Y-17922072D01*
X13569643Y-17950643D01*
X13569643Y-18022072D01*
X13555357Y-18050643D01*
X13541071Y-18064929D01*
X13512500Y-18079214D01*
X13441071Y-18079214D01*
X13412500Y-18064929D01*
X13398214Y-18050643D01*
X13755357Y-17779214D02*
X13783928Y-17779214D01*
X13812500Y-17793500D01*
X13826786Y-17807786D01*
X13841071Y-17836357D01*
X13855357Y-17893500D01*
X13855357Y-17964929D01*
X13841071Y-18022072D01*
X13826786Y-18050643D01*
X13812500Y-18064929D01*
X13783928Y-18079214D01*
X13755357Y-18079214D01*
X13726786Y-18064929D01*
X13712500Y-18050643D01*
X13698214Y-18022072D01*
X13683928Y-17964929D01*
X13683928Y-17893500D01*
X13698214Y-17836357D01*
X13712500Y-17807786D01*
X13726786Y-17793500D01*
X13755357Y-17779214D01*
X14041071Y-17779214D02*
X14069643Y-17779214D01*
X14098214Y-17793500D01*
X14112500Y-17807786D01*
X14126786Y-17836357D01*
X14141071Y-17893500D01*
X14141071Y-17964929D01*
X14126786Y-18022072D01*
X14112500Y-18050643D01*
X14098214Y-18064929D01*
X14069643Y-18079214D01*
X14041071Y-18079214D01*
X14012500Y-18064929D01*
X13998214Y-18050643D01*
X13983928Y-18022072D01*
X13969643Y-17964929D01*
X13969643Y-17893500D01*
X13983928Y-17836357D01*
X13998214Y-17807786D01*
X14012500Y-17793500D01*
X14041071Y-17779214D01*
X14269643Y-18079214D02*
X14269643Y-17879214D01*
X14269643Y-17907786D02*
X14283928Y-17893500D01*
X14312500Y-17879214D01*
X14355357Y-17879214D01*
X14383928Y-17893500D01*
X14398214Y-17922072D01*
X14398214Y-18079214D01*
X14398214Y-17922072D02*
X14412500Y-17893500D01*
X14441071Y-17879214D01*
X14483928Y-17879214D01*
X14512500Y-17893500D01*
X14526786Y-17922072D01*
X14526786Y-18079214D01*
X14669643Y-18079214D02*
X14669643Y-17879214D01*
X14669643Y-17907786D02*
X14683928Y-17893500D01*
X14712500Y-17879214D01*
X14755357Y-17879214D01*
X14783928Y-17893500D01*
X14798214Y-17922072D01*
X14798214Y-18079214D01*
X14798214Y-17922072D02*
X14812500Y-17893500D01*
X14841071Y-17879214D01*
X14883928Y-17879214D01*
X14912500Y-17893500D01*
X14926786Y-17922072D01*
X14926786Y-18079214D01*
X15512500Y-17764929D02*
X15255357Y-18150643D01*
X15898214Y-17779214D02*
X15926786Y-17779214D01*
X15955357Y-17793500D01*
X15969643Y-17807786D01*
X15983928Y-17836357D01*
X15998214Y-17893500D01*
X15998214Y-17964929D01*
X15983928Y-18022072D01*
X15969643Y-18050643D01*
X15955357Y-18064929D01*
X15926786Y-18079214D01*
X15898214Y-18079214D01*
X15869643Y-18064929D01*
X15855357Y-18050643D01*
X15841071Y-18022072D01*
X15826786Y-17964929D01*
X15826786Y-17893500D01*
X15841071Y-17836357D01*
X15855357Y-17807786D01*
X15869643Y-17793500D01*
X15898214Y-17779214D01*
X16126786Y-18050643D02*
X16141071Y-18064929D01*
X16126786Y-18079214D01*
X16112500Y-18064929D01*
X16126786Y-18050643D01*
X16126786Y-18079214D01*
X16426786Y-18079214D02*
X16255357Y-18079214D01*
X16341071Y-18079214D02*
X16341071Y-17779214D01*
X16312500Y-17822072D01*
X16283928Y-17850643D01*
X16255357Y-17864929D01*
X16526786Y-17779214D02*
X16712500Y-17779214D01*
X16612500Y-17893500D01*
X16655357Y-17893500D01*
X16683928Y-17907786D01*
X16698214Y-17922072D01*
X16712500Y-17950643D01*
X16712500Y-18022072D01*
X16698214Y-18050643D01*
X16683928Y-18064929D01*
X16655357Y-18079214D01*
X16569643Y-18079214D01*
X16541071Y-18064929D01*
X16526786Y-18050643D01*
X16812500Y-17779214D02*
X17012500Y-17779214D01*
X16883928Y-18079214D01*
X17169643Y-17907786D02*
X17141071Y-17893500D01*
X17126786Y-17879214D01*
X17112500Y-17850643D01*
X17112500Y-17836357D01*
X17126786Y-17807786D01*
X17141071Y-17793500D01*
X17169643Y-17779214D01*
X17226786Y-17779214D01*
X17255357Y-17793500D01*
X17269643Y-17807786D01*
X17283928Y-17836357D01*
X17283928Y-17850643D01*
X17269643Y-17879214D01*
X17255357Y-17893500D01*
X17226786Y-17907786D01*
X17169643Y-17907786D01*
X17141071Y-17922072D01*
X17126786Y-17936357D01*
X17112500Y-17964929D01*
X17112500Y-18022072D01*
X17126786Y-18050643D01*
X17141071Y-18064929D01*
X17169643Y-18079214D01*
X17226786Y-18079214D01*
X17255357Y-18064929D01*
X17269643Y-18050643D01*
X17283928Y-18022072D01*
X17283928Y-17964929D01*
X17269643Y-17936357D01*
X17255357Y-17922072D01*
X17226786Y-17907786D01*
X17398214Y-17779214D02*
X17398214Y-17836357D01*
X17512500Y-17779214D02*
X17512500Y-17836357D01*
X17955357Y-18193500D02*
X17941071Y-18179214D01*
X17912500Y-18136357D01*
X17898214Y-18107786D01*
X17883928Y-18064929D01*
X17869643Y-17993500D01*
X17869643Y-17936357D01*
X17883928Y-17864929D01*
X17898214Y-17822072D01*
X17912500Y-17793500D01*
X17941071Y-17750643D01*
X17955357Y-17736357D01*
X18226786Y-18079214D02*
X18055357Y-18079214D01*
X18141071Y-18079214D02*
X18141071Y-17779214D01*
X18112500Y-17822072D01*
X18083928Y-17850643D01*
X18055357Y-17864929D01*
X18583928Y-18079214D02*
X18583928Y-17779214D01*
X18712500Y-18079214D02*
X18712500Y-17922072D01*
X18698214Y-17893500D01*
X18669643Y-17879214D01*
X18626786Y-17879214D01*
X18598214Y-17893500D01*
X18583928Y-17907786D01*
X18898214Y-18079214D02*
X18869643Y-18064929D01*
X18855357Y-18050643D01*
X18841071Y-18022072D01*
X18841071Y-17936357D01*
X18855357Y-17907786D01*
X18869643Y-17893500D01*
X18898214Y-17879214D01*
X18941071Y-17879214D01*
X18969643Y-17893500D01*
X18983928Y-17907786D01*
X18998214Y-17936357D01*
X18998214Y-18022072D01*
X18983928Y-18050643D01*
X18969643Y-18064929D01*
X18941071Y-18079214D01*
X18898214Y-18079214D01*
X19169643Y-18079214D02*
X19141071Y-18064929D01*
X19126786Y-18036357D01*
X19126786Y-17779214D01*
X19398214Y-18064929D02*
X19369643Y-18079214D01*
X19312500Y-18079214D01*
X19283928Y-18064929D01*
X19269643Y-18036357D01*
X19269643Y-17922072D01*
X19283928Y-17893500D01*
X19312500Y-17879214D01*
X19369643Y-17879214D01*
X19398214Y-17893500D01*
X19412500Y-17922072D01*
X19412500Y-17950643D01*
X19269643Y-17979214D01*
X19512500Y-18193500D02*
X19526786Y-18179214D01*
X19555357Y-18136357D01*
X19569643Y-18107786D01*
X19583928Y-18064929D01*
X19598214Y-17993500D01*
X19598214Y-17936357D01*
X19583928Y-17864929D01*
X19569643Y-17822072D01*
X19555357Y-17793500D01*
X19526786Y-17750643D01*
X19512500Y-17736357D01*
M02*
