%TF.GenerationSoftware,KiCad,Pcbnew,5.99.0+really5.1.12+dfsg1-1~bpo11+1*%
%TF.CreationDate,2021-12-25T19:54:22+01:00*%
%TF.ProjectId,Audio IN_OUT,41756469-6f20-4494-9e5f-4f55542e6b69,rev?*%
%TF.SameCoordinates,Original*%
%TF.FileFunction,Paste,Bot*%
%TF.FilePolarity,Positive*%
%FSLAX46Y46*%
G04 Gerber Fmt 4.6, Leading zero omitted, Abs format (unit mm)*
G04 Created by KiCad (PCBNEW 5.99.0+really5.1.12+dfsg1-1~bpo11+1) date 2021-12-25 19:54:22*
%MOMM*%
%LPD*%
G01*
G04 APERTURE LIST*
G04 APERTURE END LIST*
%TO.C,R307*%
G36*
G01*
X173146000Y-87651000D02*
X173146000Y-87101000D01*
G75*
G02*
X173346000Y-86901000I200000J0D01*
G01*
X173746000Y-86901000D01*
G75*
G02*
X173946000Y-87101000I0J-200000D01*
G01*
X173946000Y-87651000D01*
G75*
G02*
X173746000Y-87851000I-200000J0D01*
G01*
X173346000Y-87851000D01*
G75*
G02*
X173146000Y-87651000I0J200000D01*
G01*
G37*
G36*
G01*
X174796000Y-87651000D02*
X174796000Y-87101000D01*
G75*
G02*
X174996000Y-86901000I200000J0D01*
G01*
X175396000Y-86901000D01*
G75*
G02*
X175596000Y-87101000I0J-200000D01*
G01*
X175596000Y-87651000D01*
G75*
G02*
X175396000Y-87851000I-200000J0D01*
G01*
X174996000Y-87851000D01*
G75*
G02*
X174796000Y-87651000I0J200000D01*
G01*
G37*
%TD*%
%TO.C,R308*%
G36*
G01*
X177845000Y-87651000D02*
X177845000Y-87101000D01*
G75*
G02*
X178045000Y-86901000I200000J0D01*
G01*
X178445000Y-86901000D01*
G75*
G02*
X178645000Y-87101000I0J-200000D01*
G01*
X178645000Y-87651000D01*
G75*
G02*
X178445000Y-87851000I-200000J0D01*
G01*
X178045000Y-87851000D01*
G75*
G02*
X177845000Y-87651000I0J200000D01*
G01*
G37*
G36*
G01*
X179495000Y-87651000D02*
X179495000Y-87101000D01*
G75*
G02*
X179695000Y-86901000I200000J0D01*
G01*
X180095000Y-86901000D01*
G75*
G02*
X180295000Y-87101000I0J-200000D01*
G01*
X180295000Y-87651000D01*
G75*
G02*
X180095000Y-87851000I-200000J0D01*
G01*
X179695000Y-87851000D01*
G75*
G02*
X179495000Y-87651000I0J200000D01*
G01*
G37*
%TD*%
%TO.C,R309*%
G36*
G01*
X173946000Y-85323000D02*
X173946000Y-85873000D01*
G75*
G02*
X173746000Y-86073000I-200000J0D01*
G01*
X173346000Y-86073000D01*
G75*
G02*
X173146000Y-85873000I0J200000D01*
G01*
X173146000Y-85323000D01*
G75*
G02*
X173346000Y-85123000I200000J0D01*
G01*
X173746000Y-85123000D01*
G75*
G02*
X173946000Y-85323000I0J-200000D01*
G01*
G37*
G36*
G01*
X175596000Y-85323000D02*
X175596000Y-85873000D01*
G75*
G02*
X175396000Y-86073000I-200000J0D01*
G01*
X174996000Y-86073000D01*
G75*
G02*
X174796000Y-85873000I0J200000D01*
G01*
X174796000Y-85323000D01*
G75*
G02*
X174996000Y-85123000I200000J0D01*
G01*
X175396000Y-85123000D01*
G75*
G02*
X175596000Y-85323000I0J-200000D01*
G01*
G37*
%TD*%
%TO.C,R310*%
G36*
G01*
X178645000Y-85323000D02*
X178645000Y-85873000D01*
G75*
G02*
X178445000Y-86073000I-200000J0D01*
G01*
X178045000Y-86073000D01*
G75*
G02*
X177845000Y-85873000I0J200000D01*
G01*
X177845000Y-85323000D01*
G75*
G02*
X178045000Y-85123000I200000J0D01*
G01*
X178445000Y-85123000D01*
G75*
G02*
X178645000Y-85323000I0J-200000D01*
G01*
G37*
G36*
G01*
X180295000Y-85323000D02*
X180295000Y-85873000D01*
G75*
G02*
X180095000Y-86073000I-200000J0D01*
G01*
X179695000Y-86073000D01*
G75*
G02*
X179495000Y-85873000I0J200000D01*
G01*
X179495000Y-85323000D01*
G75*
G02*
X179695000Y-85123000I200000J0D01*
G01*
X180095000Y-85123000D01*
G75*
G02*
X180295000Y-85323000I0J-200000D01*
G01*
G37*
%TD*%
%TO.C,R311*%
G36*
G01*
X173146000Y-83968000D02*
X173146000Y-83418000D01*
G75*
G02*
X173346000Y-83218000I200000J0D01*
G01*
X173746000Y-83218000D01*
G75*
G02*
X173946000Y-83418000I0J-200000D01*
G01*
X173946000Y-83968000D01*
G75*
G02*
X173746000Y-84168000I-200000J0D01*
G01*
X173346000Y-84168000D01*
G75*
G02*
X173146000Y-83968000I0J200000D01*
G01*
G37*
G36*
G01*
X174796000Y-83968000D02*
X174796000Y-83418000D01*
G75*
G02*
X174996000Y-83218000I200000J0D01*
G01*
X175396000Y-83218000D01*
G75*
G02*
X175596000Y-83418000I0J-200000D01*
G01*
X175596000Y-83968000D01*
G75*
G02*
X175396000Y-84168000I-200000J0D01*
G01*
X174996000Y-84168000D01*
G75*
G02*
X174796000Y-83968000I0J200000D01*
G01*
G37*
%TD*%
%TO.C,R312*%
G36*
G01*
X178582000Y-83418000D02*
X178582000Y-83968000D01*
G75*
G02*
X178382000Y-84168000I-200000J0D01*
G01*
X177982000Y-84168000D01*
G75*
G02*
X177782000Y-83968000I0J200000D01*
G01*
X177782000Y-83418000D01*
G75*
G02*
X177982000Y-83218000I200000J0D01*
G01*
X178382000Y-83218000D01*
G75*
G02*
X178582000Y-83418000I0J-200000D01*
G01*
G37*
G36*
G01*
X180232000Y-83418000D02*
X180232000Y-83968000D01*
G75*
G02*
X180032000Y-84168000I-200000J0D01*
G01*
X179632000Y-84168000D01*
G75*
G02*
X179432000Y-83968000I0J200000D01*
G01*
X179432000Y-83418000D01*
G75*
G02*
X179632000Y-83218000I200000J0D01*
G01*
X180032000Y-83218000D01*
G75*
G02*
X180232000Y-83418000I0J-200000D01*
G01*
G37*
%TD*%
M02*
