%FSLAX45Y45*%
G04 Gerber Fmt 4.5, Leading zero omitted, Abs format (unit mm)*
G04 Created by KiCad (PCBNEW 5.99.0+really5.1.12+dfsg1-1~bpo11+1) date 2021-12-25 19:54:28*
%MOMM*%
%LPD*%
G01*
G04 APERTURE LIST*
%TA.AperFunction,Profile*%
%ADD10C,0.050000*%
%TD*%
%ADD11C,0.200000*%
%ADD12C,0.300000*%
G04 APERTURE END LIST*
D10*
X12700000Y-14605000D02*
X12700000Y-5080000D01*
X22225000Y-14605000D02*
X12700000Y-14605000D01*
X22225000Y-5080000D02*
X22225000Y-14605000D01*
X12700000Y-5080000D02*
X22225000Y-5080000D01*
D11*
X13311700Y-14150400D02*
X13636700Y-14475400D01*
X13636700Y-14150400D02*
X13311700Y-14475400D01*
X14327700Y-14150400D02*
X14652700Y-14475400D01*
X14652700Y-14150400D02*
X14327700Y-14475400D01*
X18506000Y-14137700D02*
X18831000Y-14462700D01*
X18831000Y-14137700D02*
X18506000Y-14462700D01*
X19522000Y-14137700D02*
X19847000Y-14462700D01*
X19847000Y-14137700D02*
X19522000Y-14462700D01*
D12*
X12983928Y-15073214D02*
X12983928Y-14773214D01*
X13055357Y-14773214D01*
X13098214Y-14787500D01*
X13126786Y-14816071D01*
X13141071Y-14844643D01*
X13155357Y-14901786D01*
X13155357Y-14944643D01*
X13141071Y-15001786D01*
X13126786Y-15030357D01*
X13098214Y-15058929D01*
X13055357Y-15073214D01*
X12983928Y-15073214D01*
X13283928Y-15073214D02*
X13283928Y-14873214D01*
X13283928Y-14930357D02*
X13298214Y-14901786D01*
X13312500Y-14887500D01*
X13341071Y-14873214D01*
X13369643Y-14873214D01*
X13469643Y-15073214D02*
X13469643Y-14873214D01*
X13469643Y-14773214D02*
X13455357Y-14787500D01*
X13469643Y-14801786D01*
X13483928Y-14787500D01*
X13469643Y-14773214D01*
X13469643Y-14801786D01*
X13655357Y-15073214D02*
X13626786Y-15058929D01*
X13612500Y-15030357D01*
X13612500Y-14773214D01*
X13812500Y-15073214D02*
X13783928Y-15058929D01*
X13769643Y-15030357D01*
X13769643Y-14773214D01*
X14155357Y-15073214D02*
X14155357Y-14773214D01*
X14255357Y-14987500D01*
X14355357Y-14773214D01*
X14355357Y-15073214D01*
X14626786Y-15073214D02*
X14626786Y-14916071D01*
X14612500Y-14887500D01*
X14583928Y-14873214D01*
X14526786Y-14873214D01*
X14498214Y-14887500D01*
X14626786Y-15058929D02*
X14598214Y-15073214D01*
X14526786Y-15073214D01*
X14498214Y-15058929D01*
X14483928Y-15030357D01*
X14483928Y-15001786D01*
X14498214Y-14973214D01*
X14526786Y-14958929D01*
X14598214Y-14958929D01*
X14626786Y-14944643D01*
X14769643Y-14873214D02*
X14769643Y-15173214D01*
X14769643Y-14887500D02*
X14798214Y-14873214D01*
X14855357Y-14873214D01*
X14883928Y-14887500D01*
X14898214Y-14901786D01*
X14912500Y-14930357D01*
X14912500Y-15016071D01*
X14898214Y-15044643D01*
X14883928Y-15058929D01*
X14855357Y-15073214D01*
X14798214Y-15073214D01*
X14769643Y-15058929D01*
X15041071Y-15044643D02*
X15055357Y-15058929D01*
X15041071Y-15073214D01*
X15026786Y-15058929D01*
X15041071Y-15044643D01*
X15041071Y-15073214D01*
X15041071Y-14887500D02*
X15055357Y-14901786D01*
X15041071Y-14916071D01*
X15026786Y-14901786D01*
X15041071Y-14887500D01*
X15041071Y-14916071D01*
X12372500Y-15405000D02*
X12697500Y-15730000D01*
X12697500Y-15405000D02*
X12372500Y-15730000D01*
X12955357Y-15403214D02*
X13141071Y-15403214D01*
X13041071Y-15517500D01*
X13083928Y-15517500D01*
X13112500Y-15531786D01*
X13126786Y-15546071D01*
X13141071Y-15574643D01*
X13141071Y-15646071D01*
X13126786Y-15674643D01*
X13112500Y-15688929D01*
X13083928Y-15703214D01*
X12998214Y-15703214D01*
X12969643Y-15688929D01*
X12955357Y-15674643D01*
X13269643Y-15674643D02*
X13283928Y-15688929D01*
X13269643Y-15703214D01*
X13255357Y-15688929D01*
X13269643Y-15674643D01*
X13269643Y-15703214D01*
X13398214Y-15431786D02*
X13412500Y-15417500D01*
X13441071Y-15403214D01*
X13512500Y-15403214D01*
X13541071Y-15417500D01*
X13555357Y-15431786D01*
X13569643Y-15460357D01*
X13569643Y-15488929D01*
X13555357Y-15531786D01*
X13383928Y-15703214D01*
X13569643Y-15703214D01*
X13841071Y-15403214D02*
X13698214Y-15403214D01*
X13683928Y-15546071D01*
X13698214Y-15531786D01*
X13726786Y-15517500D01*
X13798214Y-15517500D01*
X13826786Y-15531786D01*
X13841071Y-15546071D01*
X13855357Y-15574643D01*
X13855357Y-15646071D01*
X13841071Y-15674643D01*
X13826786Y-15688929D01*
X13798214Y-15703214D01*
X13726786Y-15703214D01*
X13698214Y-15688929D01*
X13683928Y-15674643D01*
X14041071Y-15403214D02*
X14069643Y-15403214D01*
X14098214Y-15417500D01*
X14112500Y-15431786D01*
X14126786Y-15460357D01*
X14141071Y-15517500D01*
X14141071Y-15588929D01*
X14126786Y-15646071D01*
X14112500Y-15674643D01*
X14098214Y-15688929D01*
X14069643Y-15703214D01*
X14041071Y-15703214D01*
X14012500Y-15688929D01*
X13998214Y-15674643D01*
X13983928Y-15646071D01*
X13969643Y-15588929D01*
X13969643Y-15517500D01*
X13983928Y-15460357D01*
X13998214Y-15431786D01*
X14012500Y-15417500D01*
X14041071Y-15403214D01*
X14269643Y-15703214D02*
X14269643Y-15503214D01*
X14269643Y-15531786D02*
X14283928Y-15517500D01*
X14312500Y-15503214D01*
X14355357Y-15503214D01*
X14383928Y-15517500D01*
X14398214Y-15546071D01*
X14398214Y-15703214D01*
X14398214Y-15546071D02*
X14412500Y-15517500D01*
X14441071Y-15503214D01*
X14483928Y-15503214D01*
X14512500Y-15517500D01*
X14526786Y-15546071D01*
X14526786Y-15703214D01*
X14669643Y-15703214D02*
X14669643Y-15503214D01*
X14669643Y-15531786D02*
X14683928Y-15517500D01*
X14712500Y-15503214D01*
X14755357Y-15503214D01*
X14783928Y-15517500D01*
X14798214Y-15546071D01*
X14798214Y-15703214D01*
X14798214Y-15546071D02*
X14812500Y-15517500D01*
X14841071Y-15503214D01*
X14883928Y-15503214D01*
X14912500Y-15517500D01*
X14926786Y-15546071D01*
X14926786Y-15703214D01*
X15512500Y-15388929D02*
X15255357Y-15774643D01*
X15898214Y-15403214D02*
X15926786Y-15403214D01*
X15955357Y-15417500D01*
X15969643Y-15431786D01*
X15983928Y-15460357D01*
X15998214Y-15517500D01*
X15998214Y-15588929D01*
X15983928Y-15646071D01*
X15969643Y-15674643D01*
X15955357Y-15688929D01*
X15926786Y-15703214D01*
X15898214Y-15703214D01*
X15869643Y-15688929D01*
X15855357Y-15674643D01*
X15841071Y-15646071D01*
X15826786Y-15588929D01*
X15826786Y-15517500D01*
X15841071Y-15460357D01*
X15855357Y-15431786D01*
X15869643Y-15417500D01*
X15898214Y-15403214D01*
X16126786Y-15674643D02*
X16141071Y-15688929D01*
X16126786Y-15703214D01*
X16112500Y-15688929D01*
X16126786Y-15674643D01*
X16126786Y-15703214D01*
X16426786Y-15703214D02*
X16255357Y-15703214D01*
X16341071Y-15703214D02*
X16341071Y-15403214D01*
X16312500Y-15446071D01*
X16283928Y-15474643D01*
X16255357Y-15488929D01*
X16541071Y-15431786D02*
X16555357Y-15417500D01*
X16583928Y-15403214D01*
X16655357Y-15403214D01*
X16683928Y-15417500D01*
X16698214Y-15431786D01*
X16712500Y-15460357D01*
X16712500Y-15488929D01*
X16698214Y-15531786D01*
X16526786Y-15703214D01*
X16712500Y-15703214D01*
X16883928Y-15531786D02*
X16855357Y-15517500D01*
X16841071Y-15503214D01*
X16826786Y-15474643D01*
X16826786Y-15460357D01*
X16841071Y-15431786D01*
X16855357Y-15417500D01*
X16883928Y-15403214D01*
X16941071Y-15403214D01*
X16969643Y-15417500D01*
X16983928Y-15431786D01*
X16998214Y-15460357D01*
X16998214Y-15474643D01*
X16983928Y-15503214D01*
X16969643Y-15517500D01*
X16941071Y-15531786D01*
X16883928Y-15531786D01*
X16855357Y-15546071D01*
X16841071Y-15560357D01*
X16826786Y-15588929D01*
X16826786Y-15646071D01*
X16841071Y-15674643D01*
X16855357Y-15688929D01*
X16883928Y-15703214D01*
X16941071Y-15703214D01*
X16969643Y-15688929D01*
X16983928Y-15674643D01*
X16998214Y-15646071D01*
X16998214Y-15588929D01*
X16983928Y-15560357D01*
X16969643Y-15546071D01*
X16941071Y-15531786D01*
X17183928Y-15403214D02*
X17212500Y-15403214D01*
X17241071Y-15417500D01*
X17255357Y-15431786D01*
X17269643Y-15460357D01*
X17283928Y-15517500D01*
X17283928Y-15588929D01*
X17269643Y-15646071D01*
X17255357Y-15674643D01*
X17241071Y-15688929D01*
X17212500Y-15703214D01*
X17183928Y-15703214D01*
X17155357Y-15688929D01*
X17141071Y-15674643D01*
X17126786Y-15646071D01*
X17112500Y-15588929D01*
X17112500Y-15517500D01*
X17126786Y-15460357D01*
X17141071Y-15431786D01*
X17155357Y-15417500D01*
X17183928Y-15403214D01*
X17398214Y-15403214D02*
X17398214Y-15460357D01*
X17512500Y-15403214D02*
X17512500Y-15460357D01*
X17955357Y-15817500D02*
X17941071Y-15803214D01*
X17912500Y-15760357D01*
X17898214Y-15731786D01*
X17883928Y-15688929D01*
X17869643Y-15617500D01*
X17869643Y-15560357D01*
X17883928Y-15488929D01*
X17898214Y-15446071D01*
X17912500Y-15417500D01*
X17941071Y-15374643D01*
X17955357Y-15360357D01*
X18198214Y-15503214D02*
X18198214Y-15703214D01*
X18126786Y-15388929D02*
X18055357Y-15603214D01*
X18241071Y-15603214D01*
X18583928Y-15703214D02*
X18583928Y-15403214D01*
X18712500Y-15703214D02*
X18712500Y-15546071D01*
X18698214Y-15517500D01*
X18669643Y-15503214D01*
X18626786Y-15503214D01*
X18598214Y-15517500D01*
X18583928Y-15531786D01*
X18898214Y-15703214D02*
X18869643Y-15688929D01*
X18855357Y-15674643D01*
X18841071Y-15646071D01*
X18841071Y-15560357D01*
X18855357Y-15531786D01*
X18869643Y-15517500D01*
X18898214Y-15503214D01*
X18941071Y-15503214D01*
X18969643Y-15517500D01*
X18983928Y-15531786D01*
X18998214Y-15560357D01*
X18998214Y-15646071D01*
X18983928Y-15674643D01*
X18969643Y-15688929D01*
X18941071Y-15703214D01*
X18898214Y-15703214D01*
X19169643Y-15703214D02*
X19141071Y-15688929D01*
X19126786Y-15660357D01*
X19126786Y-15403214D01*
X19398214Y-15688929D02*
X19369643Y-15703214D01*
X19312500Y-15703214D01*
X19283928Y-15688929D01*
X19269643Y-15660357D01*
X19269643Y-15546071D01*
X19283928Y-15517500D01*
X19312500Y-15503214D01*
X19369643Y-15503214D01*
X19398214Y-15517500D01*
X19412500Y-15546071D01*
X19412500Y-15574643D01*
X19269643Y-15603214D01*
X19526786Y-15688929D02*
X19555357Y-15703214D01*
X19612500Y-15703214D01*
X19641071Y-15688929D01*
X19655357Y-15660357D01*
X19655357Y-15646071D01*
X19641071Y-15617500D01*
X19612500Y-15603214D01*
X19569643Y-15603214D01*
X19541071Y-15588929D01*
X19526786Y-15560357D01*
X19526786Y-15546071D01*
X19541071Y-15517500D01*
X19569643Y-15503214D01*
X19612500Y-15503214D01*
X19641071Y-15517500D01*
X19755357Y-15817500D02*
X19769643Y-15803214D01*
X19798214Y-15760357D01*
X19812500Y-15731786D01*
X19826786Y-15688929D01*
X19841071Y-15617500D01*
X19841071Y-15560357D01*
X19826786Y-15488929D01*
X19812500Y-15446071D01*
X19798214Y-15417500D01*
X19769643Y-15374643D01*
X19755357Y-15360357D01*
X20298214Y-15817500D02*
X20283928Y-15803214D01*
X20255357Y-15760357D01*
X20241071Y-15731786D01*
X20226786Y-15688929D01*
X20212500Y-15617500D01*
X20212500Y-15560357D01*
X20226786Y-15488929D01*
X20241071Y-15446071D01*
X20255357Y-15417500D01*
X20283928Y-15374643D01*
X20298214Y-15360357D01*
X20412500Y-15503214D02*
X20412500Y-15703214D01*
X20412500Y-15531786D02*
X20426786Y-15517500D01*
X20455357Y-15503214D01*
X20498214Y-15503214D01*
X20526786Y-15517500D01*
X20541071Y-15546071D01*
X20541071Y-15703214D01*
X20726786Y-15703214D02*
X20698214Y-15688929D01*
X20683928Y-15674643D01*
X20669643Y-15646071D01*
X20669643Y-15560357D01*
X20683928Y-15531786D01*
X20698214Y-15517500D01*
X20726786Y-15503214D01*
X20769643Y-15503214D01*
X20798214Y-15517500D01*
X20812500Y-15531786D01*
X20826786Y-15560357D01*
X20826786Y-15646071D01*
X20812500Y-15674643D01*
X20798214Y-15688929D01*
X20769643Y-15703214D01*
X20726786Y-15703214D01*
X20912500Y-15503214D02*
X21026786Y-15503214D01*
X20955357Y-15403214D02*
X20955357Y-15660357D01*
X20969643Y-15688929D01*
X20998214Y-15703214D01*
X21026786Y-15703214D01*
X21355357Y-15503214D02*
X21355357Y-15803214D01*
X21355357Y-15517500D02*
X21383928Y-15503214D01*
X21441071Y-15503214D01*
X21469643Y-15517500D01*
X21483928Y-15531786D01*
X21498214Y-15560357D01*
X21498214Y-15646071D01*
X21483928Y-15674643D01*
X21469643Y-15688929D01*
X21441071Y-15703214D01*
X21383928Y-15703214D01*
X21355357Y-15688929D01*
X21669643Y-15703214D02*
X21641071Y-15688929D01*
X21626786Y-15660357D01*
X21626786Y-15403214D01*
X21912500Y-15703214D02*
X21912500Y-15546071D01*
X21898214Y-15517500D01*
X21869643Y-15503214D01*
X21812500Y-15503214D01*
X21783928Y-15517500D01*
X21912500Y-15688929D02*
X21883928Y-15703214D01*
X21812500Y-15703214D01*
X21783928Y-15688929D01*
X21769643Y-15660357D01*
X21769643Y-15631786D01*
X21783928Y-15603214D01*
X21812500Y-15588929D01*
X21883928Y-15588929D01*
X21912500Y-15574643D01*
X22012500Y-15503214D02*
X22126786Y-15503214D01*
X22055357Y-15403214D02*
X22055357Y-15660357D01*
X22069643Y-15688929D01*
X22098214Y-15703214D01*
X22126786Y-15703214D01*
X22341071Y-15688929D02*
X22312500Y-15703214D01*
X22255357Y-15703214D01*
X22226786Y-15688929D01*
X22212500Y-15660357D01*
X22212500Y-15546071D01*
X22226786Y-15517500D01*
X22255357Y-15503214D01*
X22312500Y-15503214D01*
X22341071Y-15517500D01*
X22355357Y-15546071D01*
X22355357Y-15574643D01*
X22212500Y-15603214D01*
X22612500Y-15703214D02*
X22612500Y-15403214D01*
X22612500Y-15688929D02*
X22583928Y-15703214D01*
X22526786Y-15703214D01*
X22498214Y-15688929D01*
X22483928Y-15674643D01*
X22469643Y-15646071D01*
X22469643Y-15560357D01*
X22483928Y-15531786D01*
X22498214Y-15517500D01*
X22526786Y-15503214D01*
X22583928Y-15503214D01*
X22612500Y-15517500D01*
X22726786Y-15817500D02*
X22741071Y-15803214D01*
X22769643Y-15760357D01*
X22783928Y-15731786D01*
X22798214Y-15688929D01*
X22812500Y-15617500D01*
X22812500Y-15560357D01*
X22798214Y-15488929D01*
X22783928Y-15446071D01*
X22769643Y-15417500D01*
X22741071Y-15374643D01*
X22726786Y-15360357D01*
M02*
