%TF.GenerationSoftware,KiCad,Pcbnew,6.0.7+dfsg-1~bpo11+1*%
%TF.CreationDate,2022-08-31T21:43:44+02:00*%
%TF.ProjectId,PIC32MX795F512L,50494333-324d-4583-9739-35463531324c,rev?*%
%TF.SameCoordinates,Original*%
%TF.FileFunction,Paste,Top*%
%TF.FilePolarity,Positive*%
%FSLAX46Y46*%
G04 Gerber Fmt 4.6, Leading zero omitted, Abs format (unit mm)*
G04 Created by KiCad (PCBNEW 6.0.7+dfsg-1~bpo11+1) date 2022-08-31 21:43:44*
%MOMM*%
%LPD*%
G01*
G04 APERTURE LIST*
G04 Aperture macros list*
%AMRoundRect*
0 Rectangle with rounded corners*
0 $1 Rounding radius*
0 $2 $3 $4 $5 $6 $7 $8 $9 X,Y pos of 4 corners*
0 Add a 4 corners polygon primitive as box body*
4,1,4,$2,$3,$4,$5,$6,$7,$8,$9,$2,$3,0*
0 Add four circle primitives for the rounded corners*
1,1,$1+$1,$2,$3*
1,1,$1+$1,$4,$5*
1,1,$1+$1,$6,$7*
1,1,$1+$1,$8,$9*
0 Add four rect primitives between the rounded corners*
20,1,$1+$1,$2,$3,$4,$5,0*
20,1,$1+$1,$4,$5,$6,$7,0*
20,1,$1+$1,$6,$7,$8,$9,0*
20,1,$1+$1,$8,$9,$2,$3,0*%
G04 Aperture macros list end*
%ADD10RoundRect,0.218750X0.218750X0.256250X-0.218750X0.256250X-0.218750X-0.256250X0.218750X-0.256250X0*%
%ADD11RoundRect,0.200000X-0.200000X-0.275000X0.200000X-0.275000X0.200000X0.275000X-0.200000X0.275000X0*%
%ADD12RoundRect,0.075000X-0.662500X-0.075000X0.662500X-0.075000X0.662500X0.075000X-0.662500X0.075000X0*%
%ADD13RoundRect,0.075000X-0.075000X-0.662500X0.075000X-0.662500X0.075000X0.662500X-0.075000X0.662500X0*%
%ADD14RoundRect,0.250000X-0.312500X-0.625000X0.312500X-0.625000X0.312500X0.625000X-0.312500X0.625000X0*%
%ADD15RoundRect,0.250000X-0.450000X-0.425000X0.450000X-0.425000X0.450000X0.425000X-0.450000X0.425000X0*%
G04 APERTURE END LIST*
D10*
%TO.C,D1001*%
X148260000Y-85745355D03*
X146685000Y-85745355D03*
%TD*%
D11*
%TO.C,R1001*%
X150559000Y-85745355D03*
X152209000Y-85745355D03*
%TD*%
%TO.C,R104*%
X150432000Y-91841355D03*
X152082000Y-91841355D03*
%TD*%
D12*
%TO.C,U101*%
X158326500Y-97652355D03*
X158326500Y-98152355D03*
X158326500Y-98652355D03*
X158326500Y-99152355D03*
X158326500Y-99652355D03*
X158326500Y-100152355D03*
X158326500Y-100652355D03*
X158326500Y-101152355D03*
X158326500Y-101652355D03*
X158326500Y-102152355D03*
X158326500Y-102652355D03*
X158326500Y-103152355D03*
X158326500Y-103652355D03*
X158326500Y-104152355D03*
X158326500Y-104652355D03*
X158326500Y-105152355D03*
X158326500Y-105652355D03*
X158326500Y-106152355D03*
X158326500Y-106652355D03*
X158326500Y-107152355D03*
X158326500Y-107652355D03*
X158326500Y-108152355D03*
X158326500Y-108652355D03*
X158326500Y-109152355D03*
X158326500Y-109652355D03*
D13*
X159989000Y-111314855D03*
X160489000Y-111314855D03*
X160989000Y-111314855D03*
X161489000Y-111314855D03*
X161989000Y-111314855D03*
X162489000Y-111314855D03*
X162989000Y-111314855D03*
X163489000Y-111314855D03*
X163989000Y-111314855D03*
X164489000Y-111314855D03*
X164989000Y-111314855D03*
X165489000Y-111314855D03*
X165989000Y-111314855D03*
X166489000Y-111314855D03*
X166989000Y-111314855D03*
X167489000Y-111314855D03*
X167989000Y-111314855D03*
X168489000Y-111314855D03*
X168989000Y-111314855D03*
X169489000Y-111314855D03*
X169989000Y-111314855D03*
X170489000Y-111314855D03*
X170989000Y-111314855D03*
X171489000Y-111314855D03*
X171989000Y-111314855D03*
D12*
X173651500Y-109652355D03*
X173651500Y-109152355D03*
X173651500Y-108652355D03*
X173651500Y-108152355D03*
X173651500Y-107652355D03*
X173651500Y-107152355D03*
X173651500Y-106652355D03*
X173651500Y-106152355D03*
X173651500Y-105652355D03*
X173651500Y-105152355D03*
X173651500Y-104652355D03*
X173651500Y-104152355D03*
X173651500Y-103652355D03*
X173651500Y-103152355D03*
X173651500Y-102652355D03*
X173651500Y-102152355D03*
X173651500Y-101652355D03*
X173651500Y-101152355D03*
X173651500Y-100652355D03*
X173651500Y-100152355D03*
X173651500Y-99652355D03*
X173651500Y-99152355D03*
X173651500Y-98652355D03*
X173651500Y-98152355D03*
X173651500Y-97652355D03*
D13*
X171989000Y-95989855D03*
X171489000Y-95989855D03*
X170989000Y-95989855D03*
X170489000Y-95989855D03*
X169989000Y-95989855D03*
X169489000Y-95989855D03*
X168989000Y-95989855D03*
X168489000Y-95989855D03*
X167989000Y-95989855D03*
X167489000Y-95989855D03*
X166989000Y-95989855D03*
X166489000Y-95989855D03*
X165989000Y-95989855D03*
X165489000Y-95989855D03*
X164989000Y-95989855D03*
X164489000Y-95989855D03*
X163989000Y-95989855D03*
X163489000Y-95989855D03*
X162989000Y-95989855D03*
X162489000Y-95989855D03*
X161989000Y-95989855D03*
X161489000Y-95989855D03*
X160989000Y-95989855D03*
X160489000Y-95989855D03*
X159989000Y-95989855D03*
%TD*%
D11*
%TO.C,R103*%
X146812000Y-91841355D03*
X148462000Y-91841355D03*
%TD*%
D14*
%TO.C,R105*%
X152461500Y-115082355D03*
X155386500Y-115082355D03*
%TD*%
D15*
%TO.C,C112*%
X146146500Y-88666355D03*
X148846500Y-88666355D03*
%TD*%
D10*
%TO.C,D1001*%
X101397000Y-85745355D03*
X99822000Y-85745355D03*
%TD*%
D11*
%TO.C,R1001*%
X103696000Y-85745355D03*
X105346000Y-85745355D03*
%TD*%
%TO.C,R104*%
X103569000Y-91841355D03*
X105219000Y-91841355D03*
%TD*%
D12*
%TO.C,U101*%
X111463500Y-97652355D03*
X111463500Y-98152355D03*
X111463500Y-98652355D03*
X111463500Y-99152355D03*
X111463500Y-99652355D03*
X111463500Y-100152355D03*
X111463500Y-100652355D03*
X111463500Y-101152355D03*
X111463500Y-101652355D03*
X111463500Y-102152355D03*
X111463500Y-102652355D03*
X111463500Y-103152355D03*
X111463500Y-103652355D03*
X111463500Y-104152355D03*
X111463500Y-104652355D03*
X111463500Y-105152355D03*
X111463500Y-105652355D03*
X111463500Y-106152355D03*
X111463500Y-106652355D03*
X111463500Y-107152355D03*
X111463500Y-107652355D03*
X111463500Y-108152355D03*
X111463500Y-108652355D03*
X111463500Y-109152355D03*
X111463500Y-109652355D03*
D13*
X113126000Y-111314855D03*
X113626000Y-111314855D03*
X114126000Y-111314855D03*
X114626000Y-111314855D03*
X115126000Y-111314855D03*
X115626000Y-111314855D03*
X116126000Y-111314855D03*
X116626000Y-111314855D03*
X117126000Y-111314855D03*
X117626000Y-111314855D03*
X118126000Y-111314855D03*
X118626000Y-111314855D03*
X119126000Y-111314855D03*
X119626000Y-111314855D03*
X120126000Y-111314855D03*
X120626000Y-111314855D03*
X121126000Y-111314855D03*
X121626000Y-111314855D03*
X122126000Y-111314855D03*
X122626000Y-111314855D03*
X123126000Y-111314855D03*
X123626000Y-111314855D03*
X124126000Y-111314855D03*
X124626000Y-111314855D03*
X125126000Y-111314855D03*
D12*
X126788500Y-109652355D03*
X126788500Y-109152355D03*
X126788500Y-108652355D03*
X126788500Y-108152355D03*
X126788500Y-107652355D03*
X126788500Y-107152355D03*
X126788500Y-106652355D03*
X126788500Y-106152355D03*
X126788500Y-105652355D03*
X126788500Y-105152355D03*
X126788500Y-104652355D03*
X126788500Y-104152355D03*
X126788500Y-103652355D03*
X126788500Y-103152355D03*
X126788500Y-102652355D03*
X126788500Y-102152355D03*
X126788500Y-101652355D03*
X126788500Y-101152355D03*
X126788500Y-100652355D03*
X126788500Y-100152355D03*
X126788500Y-99652355D03*
X126788500Y-99152355D03*
X126788500Y-98652355D03*
X126788500Y-98152355D03*
X126788500Y-97652355D03*
D13*
X125126000Y-95989855D03*
X124626000Y-95989855D03*
X124126000Y-95989855D03*
X123626000Y-95989855D03*
X123126000Y-95989855D03*
X122626000Y-95989855D03*
X122126000Y-95989855D03*
X121626000Y-95989855D03*
X121126000Y-95989855D03*
X120626000Y-95989855D03*
X120126000Y-95989855D03*
X119626000Y-95989855D03*
X119126000Y-95989855D03*
X118626000Y-95989855D03*
X118126000Y-95989855D03*
X117626000Y-95989855D03*
X117126000Y-95989855D03*
X116626000Y-95989855D03*
X116126000Y-95989855D03*
X115626000Y-95989855D03*
X115126000Y-95989855D03*
X114626000Y-95989855D03*
X114126000Y-95989855D03*
X113626000Y-95989855D03*
X113126000Y-95989855D03*
%TD*%
D11*
%TO.C,R103*%
X99949000Y-91841355D03*
X101599000Y-91841355D03*
%TD*%
D14*
%TO.C,R105*%
X105598500Y-115082355D03*
X108523500Y-115082355D03*
%TD*%
D15*
%TO.C,C112*%
X99283500Y-88666355D03*
X101983500Y-88666355D03*
%TD*%
D10*
%TO.C,D1001*%
X101397000Y-38882355D03*
X99822000Y-38882355D03*
%TD*%
D11*
%TO.C,R1001*%
X103696000Y-38882355D03*
X105346000Y-38882355D03*
%TD*%
%TO.C,R104*%
X103569000Y-44978355D03*
X105219000Y-44978355D03*
%TD*%
D12*
%TO.C,U101*%
X111463500Y-50789355D03*
X111463500Y-51289355D03*
X111463500Y-51789355D03*
X111463500Y-52289355D03*
X111463500Y-52789355D03*
X111463500Y-53289355D03*
X111463500Y-53789355D03*
X111463500Y-54289355D03*
X111463500Y-54789355D03*
X111463500Y-55289355D03*
X111463500Y-55789355D03*
X111463500Y-56289355D03*
X111463500Y-56789355D03*
X111463500Y-57289355D03*
X111463500Y-57789355D03*
X111463500Y-58289355D03*
X111463500Y-58789355D03*
X111463500Y-59289355D03*
X111463500Y-59789355D03*
X111463500Y-60289355D03*
X111463500Y-60789355D03*
X111463500Y-61289355D03*
X111463500Y-61789355D03*
X111463500Y-62289355D03*
X111463500Y-62789355D03*
D13*
X113126000Y-64451855D03*
X113626000Y-64451855D03*
X114126000Y-64451855D03*
X114626000Y-64451855D03*
X115126000Y-64451855D03*
X115626000Y-64451855D03*
X116126000Y-64451855D03*
X116626000Y-64451855D03*
X117126000Y-64451855D03*
X117626000Y-64451855D03*
X118126000Y-64451855D03*
X118626000Y-64451855D03*
X119126000Y-64451855D03*
X119626000Y-64451855D03*
X120126000Y-64451855D03*
X120626000Y-64451855D03*
X121126000Y-64451855D03*
X121626000Y-64451855D03*
X122126000Y-64451855D03*
X122626000Y-64451855D03*
X123126000Y-64451855D03*
X123626000Y-64451855D03*
X124126000Y-64451855D03*
X124626000Y-64451855D03*
X125126000Y-64451855D03*
D12*
X126788500Y-62789355D03*
X126788500Y-62289355D03*
X126788500Y-61789355D03*
X126788500Y-61289355D03*
X126788500Y-60789355D03*
X126788500Y-60289355D03*
X126788500Y-59789355D03*
X126788500Y-59289355D03*
X126788500Y-58789355D03*
X126788500Y-58289355D03*
X126788500Y-57789355D03*
X126788500Y-57289355D03*
X126788500Y-56789355D03*
X126788500Y-56289355D03*
X126788500Y-55789355D03*
X126788500Y-55289355D03*
X126788500Y-54789355D03*
X126788500Y-54289355D03*
X126788500Y-53789355D03*
X126788500Y-53289355D03*
X126788500Y-52789355D03*
X126788500Y-52289355D03*
X126788500Y-51789355D03*
X126788500Y-51289355D03*
X126788500Y-50789355D03*
D13*
X125126000Y-49126855D03*
X124626000Y-49126855D03*
X124126000Y-49126855D03*
X123626000Y-49126855D03*
X123126000Y-49126855D03*
X122626000Y-49126855D03*
X122126000Y-49126855D03*
X121626000Y-49126855D03*
X121126000Y-49126855D03*
X120626000Y-49126855D03*
X120126000Y-49126855D03*
X119626000Y-49126855D03*
X119126000Y-49126855D03*
X118626000Y-49126855D03*
X118126000Y-49126855D03*
X117626000Y-49126855D03*
X117126000Y-49126855D03*
X116626000Y-49126855D03*
X116126000Y-49126855D03*
X115626000Y-49126855D03*
X115126000Y-49126855D03*
X114626000Y-49126855D03*
X114126000Y-49126855D03*
X113626000Y-49126855D03*
X113126000Y-49126855D03*
%TD*%
D11*
%TO.C,R103*%
X99949000Y-44978355D03*
X101599000Y-44978355D03*
%TD*%
D14*
%TO.C,R105*%
X105598500Y-68219355D03*
X108523500Y-68219355D03*
%TD*%
D15*
%TO.C,C112*%
X99283500Y-41803355D03*
X101983500Y-41803355D03*
%TD*%
%TO.C,C112*%
X146146500Y-41717855D03*
X148846500Y-41717855D03*
%TD*%
D14*
%TO.C,R105*%
X152461500Y-68133855D03*
X155386500Y-68133855D03*
%TD*%
D11*
%TO.C,R103*%
X146812000Y-44892855D03*
X148462000Y-44892855D03*
%TD*%
D12*
%TO.C,U101*%
X158326500Y-50703855D03*
X158326500Y-51203855D03*
X158326500Y-51703855D03*
X158326500Y-52203855D03*
X158326500Y-52703855D03*
X158326500Y-53203855D03*
X158326500Y-53703855D03*
X158326500Y-54203855D03*
X158326500Y-54703855D03*
X158326500Y-55203855D03*
X158326500Y-55703855D03*
X158326500Y-56203855D03*
X158326500Y-56703855D03*
X158326500Y-57203855D03*
X158326500Y-57703855D03*
X158326500Y-58203855D03*
X158326500Y-58703855D03*
X158326500Y-59203855D03*
X158326500Y-59703855D03*
X158326500Y-60203855D03*
X158326500Y-60703855D03*
X158326500Y-61203855D03*
X158326500Y-61703855D03*
X158326500Y-62203855D03*
X158326500Y-62703855D03*
D13*
X159989000Y-64366355D03*
X160489000Y-64366355D03*
X160989000Y-64366355D03*
X161489000Y-64366355D03*
X161989000Y-64366355D03*
X162489000Y-64366355D03*
X162989000Y-64366355D03*
X163489000Y-64366355D03*
X163989000Y-64366355D03*
X164489000Y-64366355D03*
X164989000Y-64366355D03*
X165489000Y-64366355D03*
X165989000Y-64366355D03*
X166489000Y-64366355D03*
X166989000Y-64366355D03*
X167489000Y-64366355D03*
X167989000Y-64366355D03*
X168489000Y-64366355D03*
X168989000Y-64366355D03*
X169489000Y-64366355D03*
X169989000Y-64366355D03*
X170489000Y-64366355D03*
X170989000Y-64366355D03*
X171489000Y-64366355D03*
X171989000Y-64366355D03*
D12*
X173651500Y-62703855D03*
X173651500Y-62203855D03*
X173651500Y-61703855D03*
X173651500Y-61203855D03*
X173651500Y-60703855D03*
X173651500Y-60203855D03*
X173651500Y-59703855D03*
X173651500Y-59203855D03*
X173651500Y-58703855D03*
X173651500Y-58203855D03*
X173651500Y-57703855D03*
X173651500Y-57203855D03*
X173651500Y-56703855D03*
X173651500Y-56203855D03*
X173651500Y-55703855D03*
X173651500Y-55203855D03*
X173651500Y-54703855D03*
X173651500Y-54203855D03*
X173651500Y-53703855D03*
X173651500Y-53203855D03*
X173651500Y-52703855D03*
X173651500Y-52203855D03*
X173651500Y-51703855D03*
X173651500Y-51203855D03*
X173651500Y-50703855D03*
D13*
X171989000Y-49041355D03*
X171489000Y-49041355D03*
X170989000Y-49041355D03*
X170489000Y-49041355D03*
X169989000Y-49041355D03*
X169489000Y-49041355D03*
X168989000Y-49041355D03*
X168489000Y-49041355D03*
X167989000Y-49041355D03*
X167489000Y-49041355D03*
X166989000Y-49041355D03*
X166489000Y-49041355D03*
X165989000Y-49041355D03*
X165489000Y-49041355D03*
X164989000Y-49041355D03*
X164489000Y-49041355D03*
X163989000Y-49041355D03*
X163489000Y-49041355D03*
X162989000Y-49041355D03*
X162489000Y-49041355D03*
X161989000Y-49041355D03*
X161489000Y-49041355D03*
X160989000Y-49041355D03*
X160489000Y-49041355D03*
X159989000Y-49041355D03*
%TD*%
D11*
%TO.C,R104*%
X150432000Y-44892855D03*
X152082000Y-44892855D03*
%TD*%
%TO.C,R1001*%
X150559000Y-38796855D03*
X152209000Y-38796855D03*
%TD*%
D10*
%TO.C,D1001*%
X148260000Y-38796855D03*
X146685000Y-38796855D03*
%TD*%
M02*
