  0
SECTION
  2
HEADER
  9
$ANGBASE
  50
0.0
  9
$ANGDIR
  70
1
  9
$MEASUREMENT
  70
0
  0
ENDSEC
  0
SECTION
  2
TABLES
  0
TABLE
  2
LTYPE
  70
4
  0
LTYPE
  5
40F
  2
CONTINUOUS
  70
0
  3
Solid line
  72
65
  73
0
  40
0.0
  0
LTYPE
  5
410
  2
DASHDOT
 70
0
  3
Dash Dot ____ _ ____ _
 72
65
 73
4
 40
2.0
 49
1.25
 49
-0.25
 49
0.25
 49
-0.25
  0
LTYPE
  5
411
  2
DASHED
 70
0
  3
Dashed __ __ __ __ __
 72
65
 73
2
 40
0.75
 49
0.5
 49
-0.25
  0
LTYPE
  5
43B
  2
DOTTED
 70
0
  3
Dotted .  .  .  .
 72
65
 73
2
 40
0.2
 49
0.0
 49
-0.2
  0
ENDTAB
  0
TABLE
  2
STYLE
  70
4
  0
STYLE
  2
KICAD
  70
0
  40
0
  41
1
  42
1
  50
0
  71
0
  3
isocp.shx
  0
STYLE
  2
KICADB
  70
0
  40
0
  41
1
  42
1
  50
0
  71
0
  3
isocp.shx
  0
STYLE
  2
KICADI
  70
0
  40
0
  41
1
  42
1
  50
15
  71
0
  3
isocp.shx
  0
STYLE
  2
KICADBI
  70
0
  40
0
  41
1
  42
1
  50
15
  71
0
  3
isocp.shx
  0
ENDTAB
  0
TABLE
  2
LAYER
  70
1
  0
LAYER
  2
BLACK
  70
0
  62
7
  6
CONTINUOUS
  0
ENDTAB
  0
ENDSEC
  0
SECTION
  2
ENTITIES
0
LINE
8
BLACK
6
CONTINUOUS
10
5.53
20
-1.3658
11
5.575
21
-1.36244
0
LINE
8
BLACK
6
CONTINUOUS
10
3.73
20
-3.1708
11
3.73
21
-3.2108
0
LINE
8
BLACK
6
CONTINUOUS
10
5.53
20
-5.0158
11
5.575
21
-5.0158
0
LINE
8
BLACK
6
CONTINUOUS
10
7.375
20
-3.16744
11
7.375
21
-3.2108
0
LINE
8
BLACK
6
CONTINUOUS
10
7.375
20
-3.2108
11
7.375
21
-5.0158
0
LINE
8
BLACK
6
CONTINUOUS
10
7.375
20
-5.0158
11
5.575
21
-5.0158
0
LINE
8
BLACK
6
CONTINUOUS
10
3.73
20
-5.0158
11
3.73
21
-3.2108
0
LINE
8
BLACK
6
CONTINUOUS
10
5.53
20
-5.0158
11
3.73
21
-5.0158
0
LINE
8
BLACK
6
CONTINUOUS
10
3.73
20
-3.1708
11
3.73
21
-1.3658
0
LINE
8
BLACK
6
CONTINUOUS
10
3.73
20
-1.3658
11
5.53
21
-1.3658
0
LINE
8
BLACK
6
CONTINUOUS
10
5.575
20
-1.36244
11
7.375
21
-1.36244
0
LINE
8
BLACK
6
CONTINUOUS
10
7.375
20
-1.36244
11
7.375
21
-3.16744
0
LINE
8
BLACK
6
CONTINUOUS
10
3.82946
20
-5.14
11
3.82946
21
-5.06126
0
LINE
8
BLACK
6
CONTINUOUS
10
3.82946
20
-5.06126
11
3.8482
21
-5.06126
0
LINE
8
BLACK
6
CONTINUOUS
10
3.8482
20
-5.06126
11
3.85945
21
-5.06501
0
LINE
8
BLACK
6
CONTINUOUS
10
3.85945
20
-5.06501
11
3.86695
21
-5.07251
0
LINE
8
BLACK
6
CONTINUOUS
10
3.86695
20
-5.07251
11
3.8707
21
-5.08001
0
LINE
8
BLACK
6
CONTINUOUS
10
3.8707
20
-5.08001
11
3.87445
21
-5.09501
0
LINE
8
BLACK
6
CONTINUOUS
10
3.87445
20
-5.09501
11
3.87445
21
-5.10626
0
LINE
8
BLACK
6
CONTINUOUS
10
3.87445
20
-5.10626
11
3.8707
21
-5.12126
0
LINE
8
BLACK
6
CONTINUOUS
10
3.8707
20
-5.12126
11
3.86695
21
-5.12876
0
LINE
8
BLACK
6
CONTINUOUS
10
3.86695
20
-5.12876
11
3.85945
21
-5.13626
0
LINE
8
BLACK
6
CONTINUOUS
10
3.85945
20
-5.13626
11
3.8482
21
-5.14
0
LINE
8
BLACK
6
CONTINUOUS
10
3.8482
20
-5.14
11
3.82946
21
-5.14
0
LINE
8
BLACK
6
CONTINUOUS
10
3.9082
20
-5.14
11
3.9082
21
-5.08751
0
LINE
8
BLACK
6
CONTINUOUS
10
3.9082
20
-5.10251
11
3.91195
21
-5.09501
0
LINE
8
BLACK
6
CONTINUOUS
10
3.91195
20
-5.09501
11
3.9157
21
-5.09126
0
LINE
8
BLACK
6
CONTINUOUS
10
3.9157
20
-5.09126
11
3.92319
21
-5.08751
0
LINE
8
BLACK
6
CONTINUOUS
10
3.92319
20
-5.08751
11
3.93069
21
-5.08751
0
LINE
8
BLACK
6
CONTINUOUS
10
3.95694
20
-5.14
11
3.95694
21
-5.08751
0
LINE
8
BLACK
6
CONTINUOUS
10
3.95694
20
-5.06126
11
3.95319
21
-5.06501
0
LINE
8
BLACK
6
CONTINUOUS
10
3.95319
20
-5.06501
11
3.95694
21
-5.06876
0
LINE
8
BLACK
6
CONTINUOUS
10
3.95694
20
-5.06876
11
3.96069
21
-5.06501
0
LINE
8
BLACK
6
CONTINUOUS
10
3.96069
20
-5.06501
11
3.95694
21
-5.06126
0
LINE
8
BLACK
6
CONTINUOUS
10
3.95694
20
-5.06126
11
3.95694
21
-5.06876
0
LINE
8
BLACK
6
CONTINUOUS
10
4.00568
20
-5.14
11
3.99819
21
-5.13626
0
LINE
8
BLACK
6
CONTINUOUS
10
3.99819
20
-5.13626
11
3.99444
21
-5.12876
0
LINE
8
BLACK
6
CONTINUOUS
10
3.99444
20
-5.12876
11
3.99444
21
-5.06126
0
LINE
8
BLACK
6
CONTINUOUS
10
4.04693
20
-5.14
11
4.03943
21
-5.13626
0
LINE
8
BLACK
6
CONTINUOUS
10
4.03943
20
-5.13626
11
4.03568
21
-5.12876
0
LINE
8
BLACK
6
CONTINUOUS
10
4.03568
20
-5.12876
11
4.03568
21
-5.06126
0
LINE
8
BLACK
6
CONTINUOUS
10
4.13692
20
-5.14
11
4.13692
21
-5.06126
0
LINE
8
BLACK
6
CONTINUOUS
10
4.13692
20
-5.06126
11
4.16316
21
-5.11751
0
LINE
8
BLACK
6
CONTINUOUS
10
4.16316
20
-5.11751
11
4.18941
21
-5.06126
0
LINE
8
BLACK
6
CONTINUOUS
10
4.18941
20
-5.06126
11
4.18941
21
-5.14
0
LINE
8
BLACK
6
CONTINUOUS
10
4.26065
20
-5.14
11
4.26065
21
-5.09876
0
LINE
8
BLACK
6
CONTINUOUS
10
4.26065
20
-5.09876
11
4.2569
21
-5.09126
0
LINE
8
BLACK
6
CONTINUOUS
10
4.2569
20
-5.09126
11
4.2494
21
-5.08751
0
LINE
8
BLACK
6
CONTINUOUS
10
4.2494
20
-5.08751
11
4.23441
21
-5.08751
0
LINE
8
BLACK
6
CONTINUOUS
10
4.23441
20
-5.08751
11
4.22691
21
-5.09126
0
LINE
8
BLACK
6
CONTINUOUS
10
4.26065
20
-5.13626
11
4.25315
21
-5.14
0
LINE
8
BLACK
6
CONTINUOUS
10
4.25315
20
-5.14
11
4.23441
21
-5.14
0
LINE
8
BLACK
6
CONTINUOUS
10
4.23441
20
-5.14
11
4.22691
21
-5.13626
0
LINE
8
BLACK
6
CONTINUOUS
10
4.22691
20
-5.13626
11
4.22316
21
-5.12876
0
LINE
8
BLACK
6
CONTINUOUS
10
4.22316
20
-5.12876
11
4.22316
21
-5.12126
0
LINE
8
BLACK
6
CONTINUOUS
10
4.22316
20
-5.12126
11
4.22691
21
-5.11376
0
LINE
8
BLACK
6
CONTINUOUS
10
4.22691
20
-5.11376
11
4.23441
21
-5.11001
0
LINE
8
BLACK
6
CONTINUOUS
10
4.23441
20
-5.11001
11
4.25315
21
-5.11001
0
LINE
8
BLACK
6
CONTINUOUS
10
4.25315
20
-5.11001
11
4.26065
21
-5.10626
0
LINE
8
BLACK
6
CONTINUOUS
10
4.29815
20
-5.08751
11
4.29815
21
-5.16625
0
LINE
8
BLACK
6
CONTINUOUS
10
4.29815
20
-5.09126
11
4.30565
21
-5.08751
0
LINE
8
BLACK
6
CONTINUOUS
10
4.30565
20
-5.08751
11
4.32064
21
-5.08751
0
LINE
8
BLACK
6
CONTINUOUS
10
4.32064
20
-5.08751
11
4.32814
21
-5.09126
0
LINE
8
BLACK
6
CONTINUOUS
10
4.32814
20
-5.09126
11
4.33189
21
-5.09501
0
LINE
8
BLACK
6
CONTINUOUS
10
4.33189
20
-5.09501
11
4.33564
21
-5.10251
0
LINE
8
BLACK
6
CONTINUOUS
10
4.33564
20
-5.10251
11
4.33564
21
-5.12501
0
LINE
8
BLACK
6
CONTINUOUS
10
4.33564
20
-5.12501
11
4.33189
21
-5.13251
0
LINE
8
BLACK
6
CONTINUOUS
10
4.33189
20
-5.13251
11
4.32814
21
-5.13626
0
LINE
8
BLACK
6
CONTINUOUS
10
4.32814
20
-5.13626
11
4.32064
21
-5.14
0
LINE
8
BLACK
6
CONTINUOUS
10
4.32064
20
-5.14
11
4.30565
21
-5.14
0
LINE
8
BLACK
6
CONTINUOUS
10
4.30565
20
-5.14
11
4.29815
21
-5.13626
0
LINE
8
BLACK
6
CONTINUOUS
10
4.36939
20
-5.13251
11
4.37314
21
-5.13626
0
LINE
8
BLACK
6
CONTINUOUS
10
4.37314
20
-5.13626
11
4.36939
21
-5.14
0
LINE
8
BLACK
6
CONTINUOUS
10
4.36939
20
-5.14
11
4.36564
21
-5.13626
0
LINE
8
BLACK
6
CONTINUOUS
10
4.36564
20
-5.13626
11
4.36939
21
-5.13251
0
LINE
8
BLACK
6
CONTINUOUS
10
4.36939
20
-5.13251
11
4.36939
21
-5.14
0
LINE
8
BLACK
6
CONTINUOUS
10
4.36939
20
-5.09126
11
4.37314
21
-5.09501
0
LINE
8
BLACK
6
CONTINUOUS
10
4.37314
20
-5.09501
11
4.36939
21
-5.09876
0
LINE
8
BLACK
6
CONTINUOUS
10
4.36939
20
-5.09876
11
4.36564
21
-5.09501
0
LINE
8
BLACK
6
CONTINUOUS
10
4.36564
20
-5.09501
11
4.36939
21
-5.09126
0
LINE
8
BLACK
6
CONTINUOUS
10
4.36939
20
-5.09126
11
4.36939
21
-5.09876
  0
ENDSEC
  0
EOF
