  0
SECTION
  2
HEADER
  9
$ANGBASE
  50
0.0
  9
$ANGDIR
  70
1
  9
$MEASUREMENT
  70
0
  0
ENDSEC
  0
SECTION
  2
TABLES
  0
TABLE
  2
LTYPE
  70
4
  0
LTYPE
  5
40F
  2
CONTINUOUS
  70
0
  3
Solid line
  72
65
  73
0
  40
0.0
  0
LTYPE
  5
410
  2
DASHDOT
 70
0
  3
Dash Dot ____ _ ____ _
 72
65
 73
4
 40
2.0
 49
1.25
 49
-0.25
 49
0.25
 49
-0.25
  0
LTYPE
  5
411
  2
DASHED
 70
0
  3
Dashed __ __ __ __ __
 72
65
 73
2
 40
0.75
 49
0.5
 49
-0.25
  0
LTYPE
  5
43B
  2
DOTTED
 70
0
  3
Dotted .  .  .  .
 72
65
 73
2
 40
0.2
 49
0.0
 49
-0.2
  0
ENDTAB
  0
TABLE
  2
STYLE
  70
4
  0
STYLE
  2
KICAD
  70
0
  40
0
  41
1
  42
1
  50
0
  71
0
  3
isocp.shx
  0
STYLE
  2
KICADB
  70
0
  40
0
  41
1
  42
1
  50
0
  71
0
  3
isocp.shx
  0
STYLE
  2
KICADI
  70
0
  40
0
  41
1
  42
1
  50
15
  71
0
  3
isocp.shx
  0
STYLE
  2
KICADBI
  70
0
  40
0
  41
1
  42
1
  50
15
  71
0
  3
isocp.shx
  0
ENDTAB
  0
TABLE
  2
LAYER
  70
1
  0
LAYER
  2
BLACK
  70
0
  62
7
  6
CONTINUOUS
  0
ENDTAB
  0
ENDSEC
  0
SECTION
  2
ENTITIES
0
LINE
8
BLACK
6
CONTINUOUS
10
5.53
20
-1.3658
11
5.575
21
-1.36244
0
LINE
8
BLACK
6
CONTINUOUS
10
3.73
20
-3.1708
11
3.73
21
-3.2108
0
LINE
8
BLACK
6
CONTINUOUS
10
5.53
20
-5.0158
11
5.575
21
-5.0158
0
LINE
8
BLACK
6
CONTINUOUS
10
7.375
20
-3.16744
11
7.375
21
-3.2108
0
LINE
8
BLACK
6
CONTINUOUS
10
7.375
20
-3.2108
11
7.375
21
-5.0158
0
LINE
8
BLACK
6
CONTINUOUS
10
7.375
20
-5.0158
11
5.575
21
-5.0158
0
LINE
8
BLACK
6
CONTINUOUS
10
3.73
20
-5.0158
11
3.73
21
-3.2108
0
LINE
8
BLACK
6
CONTINUOUS
10
5.53
20
-5.0158
11
3.73
21
-5.0158
0
LINE
8
BLACK
6
CONTINUOUS
10
3.73
20
-3.1708
11
3.73
21
-1.3658
0
LINE
8
BLACK
6
CONTINUOUS
10
3.73
20
-1.3658
11
5.53
21
-1.3658
0
LINE
8
BLACK
6
CONTINUOUS
10
5.575
20
-1.36244
11
7.375
21
-1.36244
0
LINE
8
BLACK
6
CONTINUOUS
10
7.375
20
-1.36244
11
7.375
21
-3.16744
0
LINE
8
BLACK
6
CONTINUOUS
10
3.78213
20
-2.57293
11
3.79787
21
-2.58868
0
LINE
8
BLACK
6
CONTINUOUS
10
3.79787
20
-2.57293
11
3.78213
21
-2.58868
0
LINE
8
BLACK
6
CONTINUOUS
10
3.78213
20
-4.41793
11
3.79787
21
-4.43368
0
LINE
8
BLACK
6
CONTINUOUS
10
3.79787
20
-4.41793
11
3.78213
21
-4.43368
0
LINE
8
BLACK
6
CONTINUOUS
10
3.78713
20
-1.89793
11
3.80287
21
-1.91368
0
LINE
8
BLACK
6
CONTINUOUS
10
3.80287
20
-1.89793
11
3.78713
21
-1.91368
0
LINE
8
BLACK
6
CONTINUOUS
10
3.78713
20
-1.94793
11
3.80287
21
-1.96368
0
LINE
8
BLACK
6
CONTINUOUS
10
3.80287
20
-1.94793
11
3.78713
21
-1.96368
0
LINE
8
BLACK
6
CONTINUOUS
10
3.78713
20
-1.99793
11
3.80287
21
-2.01368
0
LINE
8
BLACK
6
CONTINUOUS
10
3.80287
20
-1.99793
11
3.78713
21
-2.01368
0
LINE
8
BLACK
6
CONTINUOUS
10
3.78713
20
-2.04793
11
3.80287
21
-2.06368
0
LINE
8
BLACK
6
CONTINUOUS
10
3.80287
20
-2.04793
11
3.78713
21
-2.06368
0
LINE
8
BLACK
6
CONTINUOUS
10
3.78713
20
-2.09793
11
3.80287
21
-2.11368
0
LINE
8
BLACK
6
CONTINUOUS
10
3.80287
20
-2.09793
11
3.78713
21
-2.11368
0
LINE
8
BLACK
6
CONTINUOUS
10
3.78713
20
-2.24793
11
3.80287
21
-2.26368
0
LINE
8
BLACK
6
CONTINUOUS
10
3.80287
20
-2.24793
11
3.78713
21
-2.26368
0
LINE
8
BLACK
6
CONTINUOUS
10
3.78713
20
-2.29793
11
3.80287
21
-2.31368
0
LINE
8
BLACK
6
CONTINUOUS
10
3.80287
20
-2.29793
11
3.78713
21
-2.31368
0
LINE
8
BLACK
6
CONTINUOUS
10
3.78713
20
-2.34793
11
3.80287
21
-2.36368
0
LINE
8
BLACK
6
CONTINUOUS
10
3.80287
20
-2.34793
11
3.78713
21
-2.36368
0
LINE
8
BLACK
6
CONTINUOUS
10
3.78713
20
-2.39793
11
3.80287
21
-2.41368
0
LINE
8
BLACK
6
CONTINUOUS
10
3.80287
20
-2.39793
11
3.78713
21
-2.41368
0
LINE
8
BLACK
6
CONTINUOUS
10
3.78713
20
-2.44793
11
3.80287
21
-2.46368
0
LINE
8
BLACK
6
CONTINUOUS
10
3.80287
20
-2.44793
11
3.78713
21
-2.46368
0
LINE
8
BLACK
6
CONTINUOUS
10
3.78713
20
-3.74293
11
3.80287
21
-3.75868
0
LINE
8
BLACK
6
CONTINUOUS
10
3.80287
20
-3.74293
11
3.78713
21
-3.75868
0
LINE
8
BLACK
6
CONTINUOUS
10
3.78713
20
-3.79293
11
3.80287
21
-3.80868
0
LINE
8
BLACK
6
CONTINUOUS
10
3.80287
20
-3.79293
11
3.78713
21
-3.80868
0
LINE
8
BLACK
6
CONTINUOUS
10
3.78713
20
-3.84293
11
3.80287
21
-3.85868
0
LINE
8
BLACK
6
CONTINUOUS
10
3.80287
20
-3.84293
11
3.78713
21
-3.85868
0
LINE
8
BLACK
6
CONTINUOUS
10
3.78713
20
-3.89293
11
3.80287
21
-3.90868
0
LINE
8
BLACK
6
CONTINUOUS
10
3.80287
20
-3.89293
11
3.78713
21
-3.90868
0
LINE
8
BLACK
6
CONTINUOUS
10
3.78713
20
-3.94293
11
3.80287
21
-3.95868
0
LINE
8
BLACK
6
CONTINUOUS
10
3.80287
20
-3.94293
11
3.78713
21
-3.95868
0
LINE
8
BLACK
6
CONTINUOUS
10
3.78713
20
-4.09293
11
3.80287
21
-4.10868
0
LINE
8
BLACK
6
CONTINUOUS
10
3.80287
20
-4.09293
11
3.78713
21
-4.10868
0
LINE
8
BLACK
6
CONTINUOUS
10
3.78713
20
-4.14293
11
3.80287
21
-4.15868
0
LINE
8
BLACK
6
CONTINUOUS
10
3.80287
20
-4.14293
11
3.78713
21
-4.15868
0
LINE
8
BLACK
6
CONTINUOUS
10
3.78713
20
-4.19293
11
3.80287
21
-4.20868
0
LINE
8
BLACK
6
CONTINUOUS
10
3.80287
20
-4.19293
11
3.78713
21
-4.20868
0
LINE
8
BLACK
6
CONTINUOUS
10
3.78713
20
-4.24293
11
3.80287
21
-4.25868
0
LINE
8
BLACK
6
CONTINUOUS
10
3.80287
20
-4.24293
11
3.78713
21
-4.25868
0
LINE
8
BLACK
6
CONTINUOUS
10
3.78713
20
-4.29293
11
3.80287
21
-4.30868
0
LINE
8
BLACK
6
CONTINUOUS
10
3.80287
20
-4.29293
11
3.78713
21
-4.30868
0
LINE
8
BLACK
6
CONTINUOUS
10
3.7908
20
-2.13964
11
3.80654
21
-2.15539
0
LINE
8
BLACK
6
CONTINUOUS
10
3.80654
20
-2.13964
11
3.7908
21
-2.15539
0
LINE
8
BLACK
6
CONTINUOUS
10
3.7908
20
-3.98464
11
3.80654
21
-4.00039
0
LINE
8
BLACK
6
CONTINUOUS
10
3.80654
20
-3.98464
11
3.7908
21
-4.00039
0
LINE
8
BLACK
6
CONTINUOUS
10
3.88213
20
-1.76293
11
3.89787
21
-1.77868
0
LINE
8
BLACK
6
CONTINUOUS
10
3.89787
20
-1.76293
11
3.88213
21
-1.77868
0
LINE
8
BLACK
6
CONTINUOUS
10
3.88213
20
-3.60793
11
3.89787
21
-3.62368
0
LINE
8
BLACK
6
CONTINUOUS
10
3.89787
20
-3.60793
11
3.88213
21
-3.62368
0
LINE
8
BLACK
6
CONTINUOUS
10
3.99213
20
-1.70793
11
4.00787
21
-1.72368
0
LINE
8
BLACK
6
CONTINUOUS
10
4.00787
20
-1.70793
11
3.99213
21
-1.72368
0
LINE
8
BLACK
6
CONTINUOUS
10
3.99213
20
-3.55293
11
4.00787
21
-3.56868
0
LINE
8
BLACK
6
CONTINUOUS
10
4.00787
20
-3.55293
11
3.99213
21
-3.56868
0
LINE
8
BLACK
6
CONTINUOUS
10
4.10213
20
-1.94793
11
4.11787
21
-1.96368
0
LINE
8
BLACK
6
CONTINUOUS
10
4.11787
20
-1.94793
11
4.10213
21
-1.96368
0
LINE
8
BLACK
6
CONTINUOUS
10
4.10213
20
-2.00793
11
4.11787
21
-2.02368
0
LINE
8
BLACK
6
CONTINUOUS
10
4.11787
20
-2.00793
11
4.10213
21
-2.02368
0
LINE
8
BLACK
6
CONTINUOUS
10
4.10213
20
-2.06797
11
4.11787
21
-2.08371
0
LINE
8
BLACK
6
CONTINUOUS
10
4.11787
20
-2.06797
11
4.10213
21
-2.08371
0
LINE
8
BLACK
6
CONTINUOUS
10
4.10213
20
-3.79293
11
4.11787
21
-3.80868
0
LINE
8
BLACK
6
CONTINUOUS
10
4.11787
20
-3.79293
11
4.10213
21
-3.80868
0
LINE
8
BLACK
6
CONTINUOUS
10
4.10213
20
-3.85293
11
4.11787
21
-3.86868
0
LINE
8
BLACK
6
CONTINUOUS
10
4.11787
20
-3.85293
11
4.10213
21
-3.86868
0
LINE
8
BLACK
6
CONTINUOUS
10
4.10213
20
-3.91297
11
4.11787
21
-3.92871
0
LINE
8
BLACK
6
CONTINUOUS
10
4.11787
20
-3.91297
11
4.10213
21
-3.92871
0
LINE
8
BLACK
6
CONTINUOUS
10
4.10713
20
-1.88293
11
4.12287
21
-1.89868
0
LINE
8
BLACK
6
CONTINUOUS
10
4.12287
20
-1.88293
11
4.10713
21
-1.89868
0
LINE
8
BLACK
6
CONTINUOUS
10
4.10713
20
-3.72793
11
4.12287
21
-3.74368
0
LINE
8
BLACK
6
CONTINUOUS
10
4.12287
20
-3.72793
11
4.10713
21
-3.74368
0
LINE
8
BLACK
6
CONTINUOUS
10
4.12213
20
-2.15293
11
4.13787
21
-2.16868
0
LINE
8
BLACK
6
CONTINUOUS
10
4.13787
20
-2.15293
11
4.12213
21
-2.16868
0
LINE
8
BLACK
6
CONTINUOUS
10
4.12213
20
-2.21793
11
4.13787
21
-2.23368
0
LINE
8
BLACK
6
CONTINUOUS
10
4.13787
20
-2.21793
11
4.12213
21
-2.23368
0
LINE
8
BLACK
6
CONTINUOUS
10
4.12213
20
-2.27793
11
4.13787
21
-2.29368
0
LINE
8
BLACK
6
CONTINUOUS
10
4.13787
20
-2.27793
11
4.12213
21
-2.29368
0
LINE
8
BLACK
6
CONTINUOUS
10
4.12213
20
-2.33793
11
4.13787
21
-2.35368
0
LINE
8
BLACK
6
CONTINUOUS
10
4.13787
20
-2.33793
11
4.12213
21
-2.35368
0
LINE
8
BLACK
6
CONTINUOUS
10
4.12213
20
-2.39793
11
4.13787
21
-2.41368
0
LINE
8
BLACK
6
CONTINUOUS
10
4.13787
20
-2.39793
11
4.12213
21
-2.41368
0
LINE
8
BLACK
6
CONTINUOUS
10
4.12213
20
-2.45793
11
4.13787
21
-2.47368
0
LINE
8
BLACK
6
CONTINUOUS
10
4.13787
20
-2.45793
11
4.12213
21
-2.47368
0
LINE
8
BLACK
6
CONTINUOUS
10
4.12213
20
-2.52293
11
4.13787
21
-2.53868
0
LINE
8
BLACK
6
CONTINUOUS
10
4.13787
20
-2.52293
11
4.12213
21
-2.53868
0
LINE
8
BLACK
6
CONTINUOUS
10
4.12213
20
-3.99793
11
4.13787
21
-4.01368
0
LINE
8
BLACK
6
CONTINUOUS
10
4.13787
20
-3.99793
11
4.12213
21
-4.01368
0
LINE
8
BLACK
6
CONTINUOUS
10
4.12213
20
-4.06293
11
4.13787
21
-4.07868
0
LINE
8
BLACK
6
CONTINUOUS
10
4.13787
20
-4.06293
11
4.12213
21
-4.07868
0
LINE
8
BLACK
6
CONTINUOUS
10
4.12213
20
-4.12293
11
4.13787
21
-4.13868
0
LINE
8
BLACK
6
CONTINUOUS
10
4.13787
20
-4.12293
11
4.12213
21
-4.13868
0
LINE
8
BLACK
6
CONTINUOUS
10
4.12213
20
-4.18293
11
4.13787
21
-4.19868
0
LINE
8
BLACK
6
CONTINUOUS
10
4.13787
20
-4.18293
11
4.12213
21
-4.19868
0
LINE
8
BLACK
6
CONTINUOUS
10
4.12213
20
-4.24293
11
4.13787
21
-4.25868
0
LINE
8
BLACK
6
CONTINUOUS
10
4.13787
20
-4.24293
11
4.12213
21
-4.25868
0
LINE
8
BLACK
6
CONTINUOUS
10
4.12213
20
-4.30293
11
4.13787
21
-4.31868
0
LINE
8
BLACK
6
CONTINUOUS
10
4.13787
20
-4.30293
11
4.12213
21
-4.31868
0
LINE
8
BLACK
6
CONTINUOUS
10
4.12213
20
-4.36793
11
4.13787
21
-4.38368
0
LINE
8
BLACK
6
CONTINUOUS
10
4.13787
20
-4.36793
11
4.12213
21
-4.38368
0
LINE
8
BLACK
6
CONTINUOUS
10
4.15713
20
-1.63793
11
4.17287
21
-1.65368
0
LINE
8
BLACK
6
CONTINUOUS
10
4.17287
20
-1.63793
11
4.15713
21
-1.65368
0
LINE
8
BLACK
6
CONTINUOUS
10
4.15713
20
-3.48293
11
4.17287
21
-3.49868
0
LINE
8
BLACK
6
CONTINUOUS
10
4.17287
20
-3.48293
11
4.15713
21
-3.49868
0
LINE
8
BLACK
6
CONTINUOUS
10
4.16015
20
-2.11123
11
4.1759
21
-2.12698
0
LINE
8
BLACK
6
CONTINUOUS
10
4.1759
20
-2.11123
11
4.16015
21
-2.12698
0
LINE
8
BLACK
6
CONTINUOUS
10
4.16015
20
-3.95623
11
4.1759
21
-3.97198
0
LINE
8
BLACK
6
CONTINUOUS
10
4.1759
20
-3.95623
11
4.16015
21
-3.97198
0
LINE
8
BLACK
6
CONTINUOUS
10
4.18959
20
-2.55047
11
4.20533
21
-2.56621
0
LINE
8
BLACK
6
CONTINUOUS
10
4.20533
20
-2.55047
11
4.18959
21
-2.56621
0
LINE
8
BLACK
6
CONTINUOUS
10
4.18959
20
-4.39547
11
4.20533
21
-4.41121
0
LINE
8
BLACK
6
CONTINUOUS
10
4.20533
20
-4.39547
11
4.18959
21
-4.41121
0
LINE
8
BLACK
6
CONTINUOUS
10
4.20713
20
-1.84793
11
4.22287
21
-1.86368
0
LINE
8
BLACK
6
CONTINUOUS
10
4.22287
20
-1.84793
11
4.20713
21
-1.86368
0
LINE
8
BLACK
6
CONTINUOUS
10
4.20713
20
-3.69293
11
4.22287
21
-3.70868
0
LINE
8
BLACK
6
CONTINUOUS
10
4.22287
20
-3.69293
11
4.20713
21
-3.70868
0
LINE
8
BLACK
6
CONTINUOUS
10
4.26213
20
-1.87793
11
4.27787
21
-1.89368
0
LINE
8
BLACK
6
CONTINUOUS
10
4.27787
20
-1.87793
11
4.26213
21
-1.89368
0
LINE
8
BLACK
6
CONTINUOUS
10
4.26213
20
-3.72293
11
4.27787
21
-3.73868
0
LINE
8
BLACK
6
CONTINUOUS
10
4.27787
20
-3.72293
11
4.26213
21
-3.73868
0
LINE
8
BLACK
6
CONTINUOUS
10
4.31213
20
-3.09793
11
4.32787
21
-3.11368
0
LINE
8
BLACK
6
CONTINUOUS
10
4.32787
20
-3.09793
11
4.31213
21
-3.11368
0
LINE
8
BLACK
6
CONTINUOUS
10
4.31213
20
-4.94293
11
4.32787
21
-4.95868
0
LINE
8
BLACK
6
CONTINUOUS
10
4.32787
20
-4.94293
11
4.31213
21
-4.95868
0
LINE
8
BLACK
6
CONTINUOUS
10
4.33213
20
-2.55293
11
4.34787
21
-2.56868
0
LINE
8
BLACK
6
CONTINUOUS
10
4.34787
20
-2.55293
11
4.33213
21
-2.56868
0
LINE
8
BLACK
6
CONTINUOUS
10
4.33213
20
-4.39793
11
4.34787
21
-4.41368
0
LINE
8
BLACK
6
CONTINUOUS
10
4.34787
20
-4.39793
11
4.33213
21
-4.41368
0
LINE
8
BLACK
6
CONTINUOUS
10
4.33713
20
-2.60793
11
4.35287
21
-2.62368
0
LINE
8
BLACK
6
CONTINUOUS
10
4.35287
20
-2.60793
11
4.33713
21
-2.62368
0
LINE
8
BLACK
6
CONTINUOUS
10
4.33713
20
-4.45293
11
4.35287
21
-4.46868
0
LINE
8
BLACK
6
CONTINUOUS
10
4.35287
20
-4.45293
11
4.33713
21
-4.46868
0
LINE
8
BLACK
6
CONTINUOUS
10
4.35713
20
-2.75293
11
4.37287
21
-2.76868
0
LINE
8
BLACK
6
CONTINUOUS
10
4.37287
20
-2.75293
11
4.35713
21
-2.76868
0
LINE
8
BLACK
6
CONTINUOUS
10
4.35713
20
-4.59793
11
4.37287
21
-4.61368
0
LINE
8
BLACK
6
CONTINUOUS
10
4.37287
20
-4.59793
11
4.35713
21
-4.61368
0
LINE
8
BLACK
6
CONTINUOUS
10
4.40213
20
-1.67793
11
4.41787
21
-1.69368
0
LINE
8
BLACK
6
CONTINUOUS
10
4.41787
20
-1.67793
11
4.40213
21
-1.69368
0
LINE
8
BLACK
6
CONTINUOUS
10
4.40213
20
-3.12293
11
4.41787
21
-3.13868
0
LINE
8
BLACK
6
CONTINUOUS
10
4.41787
20
-3.12293
11
4.40213
21
-3.13868
0
LINE
8
BLACK
6
CONTINUOUS
10
4.40213
20
-3.52293
11
4.41787
21
-3.53868
0
LINE
8
BLACK
6
CONTINUOUS
10
4.41787
20
-3.52293
11
4.40213
21
-3.53868
0
LINE
8
BLACK
6
CONTINUOUS
10
4.40213
20
-4.96793
11
4.41787
21
-4.98368
0
LINE
8
BLACK
6
CONTINUOUS
10
4.41787
20
-4.96793
11
4.40213
21
-4.98368
0
LINE
8
BLACK
6
CONTINUOUS
10
4.41213
20
-2.68793
11
4.42787
21
-2.70368
0
LINE
8
BLACK
6
CONTINUOUS
10
4.42787
20
-2.68793
11
4.41213
21
-2.70368
0
LINE
8
BLACK
6
CONTINUOUS
10
4.41213
20
-4.53293
11
4.42787
21
-4.54868
0
LINE
8
BLACK
6
CONTINUOUS
10
4.42787
20
-4.53293
11
4.41213
21
-4.54868
0
LINE
8
BLACK
6
CONTINUOUS
10
4.45213
20
-1.39137
11
4.46787
21
-1.40712
0
LINE
8
BLACK
6
CONTINUOUS
10
4.46787
20
-1.39137
11
4.45213
21
-1.40712
0
LINE
8
BLACK
6
CONTINUOUS
10
4.45213
20
-3.12293
11
4.46787
21
-3.13868
0
LINE
8
BLACK
6
CONTINUOUS
10
4.46787
20
-3.12293
11
4.45213
21
-3.13868
0
LINE
8
BLACK
6
CONTINUOUS
10
4.45213
20
-3.23637
11
4.46787
21
-3.25212
0
LINE
8
BLACK
6
CONTINUOUS
10
4.46787
20
-3.23637
11
4.45213
21
-3.25212
0
LINE
8
BLACK
6
CONTINUOUS
10
4.45213
20
-4.96793
11
4.46787
21
-4.98368
0
LINE
8
BLACK
6
CONTINUOUS
10
4.46787
20
-4.96793
11
4.45213
21
-4.98368
0
LINE
8
BLACK
6
CONTINUOUS
10
4.46713
20
-2.26793
11
4.48287
21
-2.28368
0
LINE
8
BLACK
6
CONTINUOUS
10
4.48287
20
-2.26793
11
4.46713
21
-2.28368
0
LINE
8
BLACK
6
CONTINUOUS
10
4.46713
20
-4.11293
11
4.48287
21
-4.12868
0
LINE
8
BLACK
6
CONTINUOUS
10
4.48287
20
-4.11293
11
4.46713
21
-4.12868
0
LINE
8
BLACK
6
CONTINUOUS
10
4.47213
20
-1.72793
11
4.48787
21
-1.74368
0
LINE
8
BLACK
6
CONTINUOUS
10
4.48787
20
-1.72793
11
4.47213
21
-1.74368
0
LINE
8
BLACK
6
CONTINUOUS
10
4.47213
20
-3.57293
11
4.48787
21
-3.58868
0
LINE
8
BLACK
6
CONTINUOUS
10
4.48787
20
-3.57293
11
4.47213
21
-3.58868
0
LINE
8
BLACK
6
CONTINUOUS
10
4.47662
20
-2.68101
11
4.49237
21
-2.69675
0
LINE
8
BLACK
6
CONTINUOUS
10
4.49237
20
-2.68101
11
4.47662
21
-2.69675
0
LINE
8
BLACK
6
CONTINUOUS
10
4.47662
20
-4.52601
11
4.49237
21
-4.54175
0
LINE
8
BLACK
6
CONTINUOUS
10
4.49237
20
-4.52601
11
4.47662
21
-4.54175
0
LINE
8
BLACK
6
CONTINUOUS
10
4.50213
20
-1.39137
11
4.51787
21
-1.40712
0
LINE
8
BLACK
6
CONTINUOUS
10
4.51787
20
-1.39137
11
4.50213
21
-1.40712
0
LINE
8
BLACK
6
CONTINUOUS
10
4.50213
20
-3.12293
11
4.51787
21
-3.13868
0
LINE
8
BLACK
6
CONTINUOUS
10
4.51787
20
-3.12293
11
4.50213
21
-3.13868
0
LINE
8
BLACK
6
CONTINUOUS
10
4.50213
20
-3.23637
11
4.51787
21
-3.25212
0
LINE
8
BLACK
6
CONTINUOUS
10
4.51787
20
-3.23637
11
4.50213
21
-3.25212
0
LINE
8
BLACK
6
CONTINUOUS
10
4.50213
20
-4.96793
11
4.51787
21
-4.98368
0
LINE
8
BLACK
6
CONTINUOUS
10
4.51787
20
-4.96793
11
4.50213
21
-4.98368
0
LINE
8
BLACK
6
CONTINUOUS
10
4.51409
20
-1.8037
11
4.52984
21
-1.81945
0
LINE
8
BLACK
6
CONTINUOUS
10
4.52984
20
-1.8037
11
4.51409
21
-1.81945
0
LINE
8
BLACK
6
CONTINUOUS
10
4.51409
20
-3.6487
11
4.52984
21
-3.66445
0
LINE
8
BLACK
6
CONTINUOUS
10
4.52984
20
-3.6487
11
4.51409
21
-3.66445
0
LINE
8
BLACK
6
CONTINUOUS
10
4.5322
20
-2.68462
11
4.54795
21
-2.70037
0
LINE
8
BLACK
6
CONTINUOUS
10
4.54795
20
-2.68462
11
4.5322
21
-2.70037
0
LINE
8
BLACK
6
CONTINUOUS
10
4.5322
20
-4.52962
11
4.54795
21
-4.54537
0
LINE
8
BLACK
6
CONTINUOUS
10
4.54795
20
-4.52962
11
4.5322
21
-4.54537
0
LINE
8
BLACK
6
CONTINUOUS
10
4.55213
20
-1.39137
11
4.56787
21
-1.40712
0
LINE
8
BLACK
6
CONTINUOUS
10
4.56787
20
-1.39137
11
4.55213
21
-1.40712
0
LINE
8
BLACK
6
CONTINUOUS
10
4.55213
20
-3.12293
11
4.56787
21
-3.13868
0
LINE
8
BLACK
6
CONTINUOUS
10
4.56787
20
-3.12293
11
4.55213
21
-3.13868
0
LINE
8
BLACK
6
CONTINUOUS
10
4.55213
20
-3.23637
11
4.56787
21
-3.25212
0
LINE
8
BLACK
6
CONTINUOUS
10
4.56787
20
-3.23637
11
4.55213
21
-3.25212
0
LINE
8
BLACK
6
CONTINUOUS
10
4.55213
20
-4.96793
11
4.56787
21
-4.98368
0
LINE
8
BLACK
6
CONTINUOUS
10
4.56787
20
-4.96793
11
4.55213
21
-4.98368
0
LINE
8
BLACK
6
CONTINUOUS
10
4.55467
20
-1.76089
11
4.57041
21
-1.77663
0
LINE
8
BLACK
6
CONTINUOUS
10
4.57041
20
-1.76089
11
4.55467
21
-1.77663
0
LINE
8
BLACK
6
CONTINUOUS
10
4.55467
20
-3.60589
11
4.57041
21
-3.62163
0
LINE
8
BLACK
6
CONTINUOUS
10
4.57041
20
-3.60589
11
4.55467
21
-3.62163
0
LINE
8
BLACK
6
CONTINUOUS
10
4.58542
20
-2.70843
11
4.60116
21
-2.72418
0
LINE
8
BLACK
6
CONTINUOUS
10
4.60116
20
-2.70843
11
4.58542
21
-2.72418
0
LINE
8
BLACK
6
CONTINUOUS
10
4.58542
20
-4.55343
11
4.60116
21
-4.56918
0
LINE
8
BLACK
6
CONTINUOUS
10
4.60116
20
-4.55343
11
4.58542
21
-4.56918
0
LINE
8
BLACK
6
CONTINUOUS
10
4.59539
20
-1.71799
11
4.61114
21
-1.73374
0
LINE
8
BLACK
6
CONTINUOUS
10
4.61114
20
-1.71799
11
4.59539
21
-1.73374
0
LINE
8
BLACK
6
CONTINUOUS
10
4.59539
20
-3.56299
11
4.61114
21
-3.57874
0
LINE
8
BLACK
6
CONTINUOUS
10
4.61114
20
-3.56299
11
4.59539
21
-3.57874
0
LINE
8
BLACK
6
CONTINUOUS
10
4.60213
20
-1.39137
11
4.61787
21
-1.40712
0
LINE
8
BLACK
6
CONTINUOUS
10
4.61787
20
-1.39137
11
4.60213
21
-1.40712
0
LINE
8
BLACK
6
CONTINUOUS
10
4.60213
20
-3.12293
11
4.61787
21
-3.13868
0
LINE
8
BLACK
6
CONTINUOUS
10
4.61787
20
-3.12293
11
4.60213
21
-3.13868
0
LINE
8
BLACK
6
CONTINUOUS
10
4.60213
20
-3.23637
11
4.61787
21
-3.25212
0
LINE
8
BLACK
6
CONTINUOUS
10
4.61787
20
-3.23637
11
4.60213
21
-3.25212
0
LINE
8
BLACK
6
CONTINUOUS
10
4.60213
20
-4.96793
11
4.61787
21
-4.98368
0
LINE
8
BLACK
6
CONTINUOUS
10
4.61787
20
-4.96793
11
4.60213
21
-4.98368
0
LINE
8
BLACK
6
CONTINUOUS
10
4.62356
20
-2.75175
11
4.63931
21
-2.7675
0
LINE
8
BLACK
6
CONTINUOUS
10
4.63931
20
-2.75175
11
4.62356
21
-2.7675
0
LINE
8
BLACK
6
CONTINUOUS
10
4.62356
20
-4.59675
11
4.63931
21
-4.6125
0
LINE
8
BLACK
6
CONTINUOUS
10
4.63931
20
-4.59675
11
4.62356
21
-4.6125
0
LINE
8
BLACK
6
CONTINUOUS
10
4.64213
20
-2.44293
11
4.65787
21
-2.45868
0
LINE
8
BLACK
6
CONTINUOUS
10
4.65787
20
-2.44293
11
4.64213
21
-2.45868
0
LINE
8
BLACK
6
CONTINUOUS
10
4.64213
20
-4.28793
11
4.65787
21
-4.30368
0
LINE
8
BLACK
6
CONTINUOUS
10
4.65787
20
-4.28793
11
4.64213
21
-4.30368
0
LINE
8
BLACK
6
CONTINUOUS
10
4.65213
20
-1.39137
11
4.66787
21
-1.40712
0
LINE
8
BLACK
6
CONTINUOUS
10
4.66787
20
-1.39137
11
4.65213
21
-1.40712
0
LINE
8
BLACK
6
CONTINUOUS
10
4.65213
20
-1.65793
11
4.66787
21
-1.67368
0
LINE
8
BLACK
6
CONTINUOUS
10
4.66787
20
-1.65793
11
4.65213
21
-1.67368
0
LINE
8
BLACK
6
CONTINUOUS
10
4.65213
20
-3.12293
11
4.66787
21
-3.13868
0
LINE
8
BLACK
6
CONTINUOUS
10
4.66787
20
-3.12293
11
4.65213
21
-3.13868
0
LINE
8
BLACK
6
CONTINUOUS
10
4.65213
20
-3.23637
11
4.66787
21
-3.25212
0
LINE
8
BLACK
6
CONTINUOUS
10
4.66787
20
-3.23637
11
4.65213
21
-3.25212
0
LINE
8
BLACK
6
CONTINUOUS
10
4.65213
20
-3.50293
11
4.66787
21
-3.51868
0
LINE
8
BLACK
6
CONTINUOUS
10
4.66787
20
-3.50293
11
4.65213
21
-3.51868
0
LINE
8
BLACK
6
CONTINUOUS
10
4.65213
20
-4.96793
11
4.66787
21
-4.98368
0
LINE
8
BLACK
6
CONTINUOUS
10
4.66787
20
-4.96793
11
4.65213
21
-4.98368
0
LINE
8
BLACK
6
CONTINUOUS
10
4.65928
20
-2.73521
11
4.67503
21
-2.75096
0
LINE
8
BLACK
6
CONTINUOUS
10
4.67503
20
-2.73521
11
4.65928
21
-2.75096
0
LINE
8
BLACK
6
CONTINUOUS
10
4.65928
20
-4.58021
11
4.67503
21
-4.59596
0
LINE
8
BLACK
6
CONTINUOUS
10
4.67503
20
-4.58021
11
4.65928
21
-4.59596
0
LINE
8
BLACK
6
CONTINUOUS
10
4.67308
20
-2.78096
11
4.68882
21
-2.79671
0
LINE
8
BLACK
6
CONTINUOUS
10
4.68882
20
-2.78096
11
4.67308
21
-2.79671
0
LINE
8
BLACK
6
CONTINUOUS
10
4.67308
20
-4.62596
11
4.68882
21
-4.64171
0
LINE
8
BLACK
6
CONTINUOUS
10
4.68882
20
-4.62596
11
4.67308
21
-4.64171
0
LINE
8
BLACK
6
CONTINUOUS
10
4.70213
20
-1.39137
11
4.71787
21
-1.40712
0
LINE
8
BLACK
6
CONTINUOUS
10
4.71787
20
-1.39137
11
4.70213
21
-1.40712
0
LINE
8
BLACK
6
CONTINUOUS
10
4.70213
20
-1.68793
11
4.71787
21
-1.70368
0
LINE
8
BLACK
6
CONTINUOUS
10
4.71787
20
-1.68793
11
4.70213
21
-1.70368
0
LINE
8
BLACK
6
CONTINUOUS
10
4.70213
20
-3.12293
11
4.71787
21
-3.13868
0
LINE
8
BLACK
6
CONTINUOUS
10
4.71787
20
-3.12293
11
4.70213
21
-3.13868
0
LINE
8
BLACK
6
CONTINUOUS
10
4.70213
20
-3.23637
11
4.71787
21
-3.25212
0
LINE
8
BLACK
6
CONTINUOUS
10
4.71787
20
-3.23637
11
4.70213
21
-3.25212
0
LINE
8
BLACK
6
CONTINUOUS
10
4.70213
20
-3.53293
11
4.71787
21
-3.54868
0
LINE
8
BLACK
6
CONTINUOUS
10
4.71787
20
-3.53293
11
4.70213
21
-3.54868
0
LINE
8
BLACK
6
CONTINUOUS
10
4.70213
20
-4.96793
11
4.71787
21
-4.98368
0
LINE
8
BLACK
6
CONTINUOUS
10
4.71787
20
-4.96793
11
4.70213
21
-4.98368
0
LINE
8
BLACK
6
CONTINUOUS
10
4.72935
20
-2.79295
11
4.7451
21
-2.8087
0
LINE
8
BLACK
6
CONTINUOUS
10
4.7451
20
-2.79295
11
4.72935
21
-2.8087
0
LINE
8
BLACK
6
CONTINUOUS
10
4.72935
20
-4.63795
11
4.7451
21
-4.6537
0
LINE
8
BLACK
6
CONTINUOUS
10
4.7451
20
-4.63795
11
4.72935
21
-4.6537
0
LINE
8
BLACK
6
CONTINUOUS
10
4.75213
20
-1.39137
11
4.76787
21
-1.40712
0
LINE
8
BLACK
6
CONTINUOUS
10
4.76787
20
-1.39137
11
4.75213
21
-1.40712
0
LINE
8
BLACK
6
CONTINUOUS
10
4.75213
20
-3.12293
11
4.76787
21
-3.13868
0
LINE
8
BLACK
6
CONTINUOUS
10
4.76787
20
-3.12293
11
4.75213
21
-3.13868
0
LINE
8
BLACK
6
CONTINUOUS
10
4.75213
20
-3.23637
11
4.76787
21
-3.25212
0
LINE
8
BLACK
6
CONTINUOUS
10
4.76787
20
-3.23637
11
4.75213
21
-3.25212
0
LINE
8
BLACK
6
CONTINUOUS
10
4.75213
20
-4.96793
11
4.76787
21
-4.98368
0
LINE
8
BLACK
6
CONTINUOUS
10
4.76787
20
-4.96793
11
4.75213
21
-4.98368
0
LINE
8
BLACK
6
CONTINUOUS
10
4.76872
20
-2.75138
11
4.78447
21
-2.76713
0
LINE
8
BLACK
6
CONTINUOUS
10
4.78447
20
-2.75138
11
4.76872
21
-2.76713
0
LINE
8
BLACK
6
CONTINUOUS
10
4.76872
20
-4.59638
11
4.78447
21
-4.61213
0
LINE
8
BLACK
6
CONTINUOUS
10
4.78447
20
-4.59638
11
4.76872
21
-4.61213
0
LINE
8
BLACK
6
CONTINUOUS
10
4.77459
20
-1.70833
11
4.79033
21
-1.72408
0
LINE
8
BLACK
6
CONTINUOUS
10
4.79033
20
-1.70833
11
4.77459
21
-1.72408
0
LINE
8
BLACK
6
CONTINUOUS
10
4.77459
20
-3.55333
11
4.79033
21
-3.56908
0
LINE
8
BLACK
6
CONTINUOUS
10
4.79033
20
-3.55333
11
4.77459
21
-3.56908
0
LINE
8
BLACK
6
CONTINUOUS
10
4.77963
20
-1.75543
11
4.79537
21
-1.77118
0
LINE
8
BLACK
6
CONTINUOUS
10
4.79537
20
-1.75543
11
4.77963
21
-1.77118
0
LINE
8
BLACK
6
CONTINUOUS
10
4.77963
20
-3.60043
11
4.79537
21
-3.61618
0
LINE
8
BLACK
6
CONTINUOUS
10
4.79537
20
-3.60043
11
4.77963
21
-3.61618
0
LINE
8
BLACK
6
CONTINUOUS
10
4.80213
20
-1.39137
11
4.81787
21
-1.40712
0
LINE
8
BLACK
6
CONTINUOUS
10
4.81787
20
-1.39137
11
4.80213
21
-1.40712
0
LINE
8
BLACK
6
CONTINUOUS
10
4.80213
20
-3.12293
11
4.81787
21
-3.13868
0
LINE
8
BLACK
6
CONTINUOUS
10
4.81787
20
-3.12293
11
4.80213
21
-3.13868
0
LINE
8
BLACK
6
CONTINUOUS
10
4.80213
20
-3.23637
11
4.81787
21
-3.25212
0
LINE
8
BLACK
6
CONTINUOUS
10
4.81787
20
-3.23637
11
4.80213
21
-3.25212
0
LINE
8
BLACK
6
CONTINUOUS
10
4.80213
20
-4.96793
11
4.81787
21
-4.98368
0
LINE
8
BLACK
6
CONTINUOUS
10
4.81787
20
-4.96793
11
4.80213
21
-4.98368
0
LINE
8
BLACK
6
CONTINUOUS
10
4.81213
20
-2.17793
11
4.82787
21
-2.19368
0
LINE
8
BLACK
6
CONTINUOUS
10
4.82787
20
-2.17793
11
4.81213
21
-2.19368
0
LINE
8
BLACK
6
CONTINUOUS
10
4.81213
20
-4.02293
11
4.82787
21
-4.03868
0
LINE
8
BLACK
6
CONTINUOUS
10
4.82787
20
-4.02293
11
4.81213
21
-4.03868
0
LINE
8
BLACK
6
CONTINUOUS
10
4.82213
20
-2.44293
11
4.83787
21
-2.45868
0
LINE
8
BLACK
6
CONTINUOUS
10
4.83787
20
-2.44293
11
4.82213
21
-2.45868
0
LINE
8
BLACK
6
CONTINUOUS
10
4.82213
20
-4.28793
11
4.83787
21
-4.30368
0
LINE
8
BLACK
6
CONTINUOUS
10
4.83787
20
-4.28793
11
4.82213
21
-4.30368
0
LINE
8
BLACK
6
CONTINUOUS
10
4.82283
20
-2.73274
11
4.83858
21
-2.74848
0
LINE
8
BLACK
6
CONTINUOUS
10
4.83858
20
-2.73274
11
4.82283
21
-2.74848
0
LINE
8
BLACK
6
CONTINUOUS
10
4.82283
20
-4.57774
11
4.83858
21
-4.59348
0
LINE
8
BLACK
6
CONTINUOUS
10
4.83858
20
-4.57774
11
4.82283
21
-4.59348
0
LINE
8
BLACK
6
CONTINUOUS
10
4.82587
20
-2.27667
11
4.84161
21
-2.29242
0
LINE
8
BLACK
6
CONTINUOUS
10
4.84161
20
-2.27667
11
4.82587
21
-2.29242
0
LINE
8
BLACK
6
CONTINUOUS
10
4.82587
20
-4.12167
11
4.84161
21
-4.13742
0
LINE
8
BLACK
6
CONTINUOUS
10
4.84161
20
-4.12167
11
4.82587
21
-4.13742
0
LINE
8
BLACK
6
CONTINUOUS
10
4.82713
20
-1.75293
11
4.84287
21
-1.76868
0
LINE
8
BLACK
6
CONTINUOUS
10
4.84287
20
-1.75293
11
4.82713
21
-1.76868
0
LINE
8
BLACK
6
CONTINUOUS
10
4.82713
20
-3.59793
11
4.84287
21
-3.61368
0
LINE
8
BLACK
6
CONTINUOUS
10
4.84287
20
-3.59793
11
4.82713
21
-3.61368
0
LINE
8
BLACK
6
CONTINUOUS
10
4.83213
20
-2.68793
11
4.84787
21
-2.70368
0
LINE
8
BLACK
6
CONTINUOUS
10
4.84787
20
-2.68793
11
4.83213
21
-2.70368
0
LINE
8
BLACK
6
CONTINUOUS
10
4.83213
20
-4.53293
11
4.84787
21
-4.54868
0
LINE
8
BLACK
6
CONTINUOUS
10
4.84787
20
-4.53293
11
4.83213
21
-4.54868
0
LINE
8
BLACK
6
CONTINUOUS
10
4.84708
20
-1.80781
11
4.86283
21
-1.82356
0
LINE
8
BLACK
6
CONTINUOUS
10
4.86283
20
-1.80781
11
4.84708
21
-1.82356
0
LINE
8
BLACK
6
CONTINUOUS
10
4.84708
20
-3.65281
11
4.86283
21
-3.66856
0
LINE
8
BLACK
6
CONTINUOUS
10
4.86283
20
-3.65281
11
4.84708
21
-3.66856
0
LINE
8
BLACK
6
CONTINUOUS
10
4.85213
20
-1.39137
11
4.86787
21
-1.40712
0
LINE
8
BLACK
6
CONTINUOUS
10
4.86787
20
-1.39137
11
4.85213
21
-1.40712
0
LINE
8
BLACK
6
CONTINUOUS
10
4.85213
20
-3.12293
11
4.86787
21
-3.13868
0
LINE
8
BLACK
6
CONTINUOUS
10
4.86787
20
-3.12293
11
4.85213
21
-3.13868
0
LINE
8
BLACK
6
CONTINUOUS
10
4.85213
20
-3.23637
11
4.86787
21
-3.25212
0
LINE
8
BLACK
6
CONTINUOUS
10
4.86787
20
-3.23637
11
4.85213
21
-3.25212
0
LINE
8
BLACK
6
CONTINUOUS
10
4.85213
20
-4.96793
11
4.86787
21
-4.98368
0
LINE
8
BLACK
6
CONTINUOUS
10
4.86787
20
-4.96793
11
4.85213
21
-4.98368
0
LINE
8
BLACK
6
CONTINUOUS
10
4.87213
20
-2.68793
11
4.88787
21
-2.70368
0
LINE
8
BLACK
6
CONTINUOUS
10
4.88787
20
-2.68793
11
4.87213
21
-2.70368
0
LINE
8
BLACK
6
CONTINUOUS
10
4.87213
20
-4.53293
11
4.88787
21
-4.54868
0
LINE
8
BLACK
6
CONTINUOUS
10
4.88787
20
-4.53293
11
4.87213
21
-4.54868
0
LINE
8
BLACK
6
CONTINUOUS
10
4.88213
20
-2.12793
11
4.89787
21
-2.14368
0
LINE
8
BLACK
6
CONTINUOUS
10
4.89787
20
-2.12793
11
4.88213
21
-2.14368
0
LINE
8
BLACK
6
CONTINUOUS
10
4.88213
20
-3.97293
11
4.89787
21
-3.98868
0
LINE
8
BLACK
6
CONTINUOUS
10
4.89787
20
-3.97293
11
4.88213
21
-3.98868
0
LINE
8
BLACK
6
CONTINUOUS
10
4.90213
20
-1.39137
11
4.91787
21
-1.40712
0
LINE
8
BLACK
6
CONTINUOUS
10
4.91787
20
-1.39137
11
4.90213
21
-1.40712
0
LINE
8
BLACK
6
CONTINUOUS
10
4.90213
20
-3.12293
11
4.91787
21
-3.13868
0
LINE
8
BLACK
6
CONTINUOUS
10
4.91787
20
-3.12293
11
4.90213
21
-3.13868
0
LINE
8
BLACK
6
CONTINUOUS
10
4.90213
20
-3.23637
11
4.91787
21
-3.25212
0
LINE
8
BLACK
6
CONTINUOUS
10
4.91787
20
-3.23637
11
4.90213
21
-3.25212
0
LINE
8
BLACK
6
CONTINUOUS
10
4.90213
20
-4.96793
11
4.91787
21
-4.98368
0
LINE
8
BLACK
6
CONTINUOUS
10
4.91787
20
-4.96793
11
4.90213
21
-4.98368
0
LINE
8
BLACK
6
CONTINUOUS
10
4.91713
20
-2.64293
11
4.93287
21
-2.65868
0
LINE
8
BLACK
6
CONTINUOUS
10
4.93287
20
-2.64293
11
4.91713
21
-2.65868
0
LINE
8
BLACK
6
CONTINUOUS
10
4.91713
20
-4.48793
11
4.93287
21
-4.50368
0
LINE
8
BLACK
6
CONTINUOUS
10
4.93287
20
-4.48793
11
4.91713
21
-4.50368
0
LINE
8
BLACK
6
CONTINUOUS
10
4.92213
20
-1.73793
11
4.93787
21
-1.75368
0
LINE
8
BLACK
6
CONTINUOUS
10
4.93787
20
-1.73793
11
4.92213
21
-1.75368
0
LINE
8
BLACK
6
CONTINUOUS
10
4.92213
20
-3.58293
11
4.93787
21
-3.59868
0
LINE
8
BLACK
6
CONTINUOUS
10
4.93787
20
-3.58293
11
4.92213
21
-3.59868
0
LINE
8
BLACK
6
CONTINUOUS
10
4.92713
20
-1.99293
11
4.94287
21
-2.00868
0
LINE
8
BLACK
6
CONTINUOUS
10
4.94287
20
-1.99293
11
4.92713
21
-2.00868
0
LINE
8
BLACK
6
CONTINUOUS
10
4.92713
20
-3.83793
11
4.94287
21
-3.85368
0
LINE
8
BLACK
6
CONTINUOUS
10
4.94287
20
-3.83793
11
4.92713
21
-3.85368
0
LINE
8
BLACK
6
CONTINUOUS
10
4.95213
20
-1.39137
11
4.96787
21
-1.40712
0
LINE
8
BLACK
6
CONTINUOUS
10
4.96787
20
-1.39137
11
4.95213
21
-1.40712
0
LINE
8
BLACK
6
CONTINUOUS
10
4.95213
20
-3.12293
11
4.96787
21
-3.13868
0
LINE
8
BLACK
6
CONTINUOUS
10
4.96787
20
-3.12293
11
4.95213
21
-3.13868
0
LINE
8
BLACK
6
CONTINUOUS
10
4.95213
20
-3.23637
11
4.96787
21
-3.25212
0
LINE
8
BLACK
6
CONTINUOUS
10
4.96787
20
-3.23637
11
4.95213
21
-3.25212
0
LINE
8
BLACK
6
CONTINUOUS
10
4.95213
20
-4.96793
11
4.96787
21
-4.98368
0
LINE
8
BLACK
6
CONTINUOUS
10
4.96787
20
-4.96793
11
4.95213
21
-4.98368
0
LINE
8
BLACK
6
CONTINUOUS
10
4.97213
20
-1.80293
11
4.98787
21
-1.81868
0
LINE
8
BLACK
6
CONTINUOUS
10
4.98787
20
-1.80293
11
4.97213
21
-1.81868
0
LINE
8
BLACK
6
CONTINUOUS
10
4.97213
20
-2.60793
11
4.98787
21
-2.62368
0
LINE
8
BLACK
6
CONTINUOUS
10
4.98787
20
-2.60793
11
4.97213
21
-2.62368
0
LINE
8
BLACK
6
CONTINUOUS
10
4.97213
20
-3.64793
11
4.98787
21
-3.66368
0
LINE
8
BLACK
6
CONTINUOUS
10
4.98787
20
-3.64793
11
4.97213
21
-3.66368
0
LINE
8
BLACK
6
CONTINUOUS
10
4.97213
20
-4.45293
11
4.98787
21
-4.46868
0
LINE
8
BLACK
6
CONTINUOUS
10
4.98787
20
-4.45293
11
4.97213
21
-4.46868
0
LINE
8
BLACK
6
CONTINUOUS
10
5.00213
20
-1.39137
11
5.01787
21
-1.40712
0
LINE
8
BLACK
6
CONTINUOUS
10
5.01787
20
-1.39137
11
5.00213
21
-1.40712
0
LINE
8
BLACK
6
CONTINUOUS
10
5.00213
20
-1.86793
11
5.01787
21
-1.88368
0
LINE
8
BLACK
6
CONTINUOUS
10
5.01787
20
-1.86793
11
5.00213
21
-1.88368
0
LINE
8
BLACK
6
CONTINUOUS
10
5.00213
20
-3.23637
11
5.01787
21
-3.25212
0
LINE
8
BLACK
6
CONTINUOUS
10
5.01787
20
-3.23637
11
5.00213
21
-3.25212
0
LINE
8
BLACK
6
CONTINUOUS
10
5.00213
20
-3.71293
11
5.01787
21
-3.72868
0
LINE
8
BLACK
6
CONTINUOUS
10
5.01787
20
-3.71293
11
5.00213
21
-3.72868
0
LINE
8
BLACK
6
CONTINUOUS
10
5.05213
20
-2.63793
11
5.06787
21
-2.65368
0
LINE
8
BLACK
6
CONTINUOUS
10
5.06787
20
-2.63793
11
5.05213
21
-2.65368
0
LINE
8
BLACK
6
CONTINUOUS
10
5.05213
20
-4.48293
11
5.06787
21
-4.49868
0
LINE
8
BLACK
6
CONTINUOUS
10
5.06787
20
-4.48293
11
5.05213
21
-4.49868
0
LINE
8
BLACK
6
CONTINUOUS
10
5.12713
20
-2.08293
11
5.14287
21
-2.09868
0
LINE
8
BLACK
6
CONTINUOUS
10
5.14287
20
-2.08293
11
5.12713
21
-2.09868
0
LINE
8
BLACK
6
CONTINUOUS
10
5.12713
20
-3.92793
11
5.14287
21
-3.94368
0
LINE
8
BLACK
6
CONTINUOUS
10
5.14287
20
-3.92793
11
5.12713
21
-3.94368
0
LINE
8
BLACK
6
CONTINUOUS
10
5.1365
20
-2.18856
11
5.15224
21
-2.20431
0
LINE
8
BLACK
6
CONTINUOUS
10
5.15224
20
-2.18856
11
5.1365
21
-2.20431
0
LINE
8
BLACK
6
CONTINUOUS
10
5.1365
20
-4.03356
11
5.15224
21
-4.04931
0
LINE
8
BLACK
6
CONTINUOUS
10
5.15224
20
-4.03356
11
5.1365
21
-4.04931
0
LINE
8
BLACK
6
CONTINUOUS
10
5.16213
20
-2.03793
11
5.17787
21
-2.05368
0
LINE
8
BLACK
6
CONTINUOUS
10
5.17787
20
-2.03793
11
5.16213
21
-2.05368
0
LINE
8
BLACK
6
CONTINUOUS
10
5.16213
20
-3.88293
11
5.17787
21
-3.89868
0
LINE
8
BLACK
6
CONTINUOUS
10
5.17787
20
-3.88293
11
5.16213
21
-3.89868
0
LINE
8
BLACK
6
CONTINUOUS
10
5.17974
20
-2.16458
11
5.19549
21
-2.18033
0
LINE
8
BLACK
6
CONTINUOUS
10
5.19549
20
-2.16458
11
5.17974
21
-2.18033
0
LINE
8
BLACK
6
CONTINUOUS
10
5.17974
20
-4.00958
11
5.19549
21
-4.02533
0
LINE
8
BLACK
6
CONTINUOUS
10
5.19549
20
-4.00958
11
5.17974
21
-4.02533
0
LINE
8
BLACK
6
CONTINUOUS
10
5.18213
20
-2.1095
11
5.19787
21
-2.12525
0
LINE
8
BLACK
6
CONTINUOUS
10
5.19787
20
-2.1095
11
5.18213
21
-2.12525
0
LINE
8
BLACK
6
CONTINUOUS
10
5.18213
20
-3.9545
11
5.19787
21
-3.97025
0
LINE
8
BLACK
6
CONTINUOUS
10
5.19787
20
-3.9545
11
5.18213
21
-3.97025
0
LINE
8
BLACK
6
CONTINUOUS
10
5.18682
20
-2.22039
11
5.20257
21
-2.23614
0
LINE
8
BLACK
6
CONTINUOUS
10
5.20257
20
-2.22039
11
5.18682
21
-2.23614
0
LINE
8
BLACK
6
CONTINUOUS
10
5.18682
20
-4.06539
11
5.20257
21
-4.08114
0
LINE
8
BLACK
6
CONTINUOUS
10
5.20257
20
-4.06539
11
5.18682
21
-4.08114
0
LINE
8
BLACK
6
CONTINUOUS
10
5.18713
20
-2.28293
11
5.20287
21
-2.29868
0
LINE
8
BLACK
6
CONTINUOUS
10
5.20287
20
-2.28293
11
5.18713
21
-2.29868
0
LINE
8
BLACK
6
CONTINUOUS
10
5.18713
20
-2.34293
11
5.20287
21
-2.35868
0
LINE
8
BLACK
6
CONTINUOUS
10
5.20287
20
-2.34293
11
5.18713
21
-2.35868
0
LINE
8
BLACK
6
CONTINUOUS
10
5.18713
20
-4.12793
11
5.20287
21
-4.14368
0
LINE
8
BLACK
6
CONTINUOUS
10
5.20287
20
-4.12793
11
5.18713
21
-4.14368
0
LINE
8
BLACK
6
CONTINUOUS
10
5.18713
20
-4.18793
11
5.20287
21
-4.20368
0
LINE
8
BLACK
6
CONTINUOUS
10
5.20287
20
-4.18793
11
5.18713
21
-4.20368
0
LINE
8
BLACK
6
CONTINUOUS
10
5.18718
20
-2.3985
11
5.20292
21
-2.41425
0
LINE
8
BLACK
6
CONTINUOUS
10
5.20292
20
-2.3985
11
5.18718
21
-2.41425
0
LINE
8
BLACK
6
CONTINUOUS
10
5.18718
20
-4.2435
11
5.20292
21
-4.25925
0
LINE
8
BLACK
6
CONTINUOUS
10
5.20292
20
-4.2435
11
5.18718
21
-4.25925
0
LINE
8
BLACK
6
CONTINUOUS
10
5.18769
20
-2.45358
11
5.20344
21
-2.46932
0
LINE
8
BLACK
6
CONTINUOUS
10
5.20344
20
-2.45358
11
5.18769
21
-2.46932
0
LINE
8
BLACK
6
CONTINUOUS
10
5.18769
20
-4.29858
11
5.20344
21
-4.31432
0
LINE
8
BLACK
6
CONTINUOUS
10
5.20344
20
-4.29858
11
5.18769
21
-4.31432
0
LINE
8
BLACK
6
CONTINUOUS
10
5.1884
20
-2.5657
11
5.20415
21
-2.58145
0
LINE
8
BLACK
6
CONTINUOUS
10
5.20415
20
-2.5657
11
5.1884
21
-2.58145
0
LINE
8
BLACK
6
CONTINUOUS
10
5.1884
20
-4.4107
11
5.20415
21
-4.42645
0
LINE
8
BLACK
6
CONTINUOUS
10
5.20415
20
-4.4107
11
5.1884
21
-4.42645
0
LINE
8
BLACK
6
CONTINUOUS
10
5.18878
20
-2.51062
11
5.20453
21
-2.52637
0
LINE
8
BLACK
6
CONTINUOUS
10
5.20453
20
-2.51062
11
5.18878
21
-2.52637
0
LINE
8
BLACK
6
CONTINUOUS
10
5.18878
20
-4.35562
11
5.20453
21
-4.37137
0
LINE
8
BLACK
6
CONTINUOUS
10
5.20453
20
-4.35562
11
5.18878
21
-4.37137
0
LINE
8
BLACK
6
CONTINUOUS
10
5.19213
20
-1.97793
11
5.20787
21
-1.99368
0
LINE
8
BLACK
6
CONTINUOUS
10
5.20787
20
-1.97793
11
5.19213
21
-1.99368
0
LINE
8
BLACK
6
CONTINUOUS
10
5.19213
20
-3.82293
11
5.20787
21
-3.83868
0
LINE
8
BLACK
6
CONTINUOUS
10
5.20787
20
-3.82293
11
5.19213
21
-3.83868
0
LINE
8
BLACK
6
CONTINUOUS
10
5.40713
20
-2.59793
11
5.42287
21
-2.61368
0
LINE
8
BLACK
6
CONTINUOUS
10
5.42287
20
-2.59793
11
5.40713
21
-2.61368
0
LINE
8
BLACK
6
CONTINUOUS
10
5.40713
20
-4.44293
11
5.42287
21
-4.45868
0
LINE
8
BLACK
6
CONTINUOUS
10
5.42287
20
-4.44293
11
5.40713
21
-4.45868
0
LINE
8
BLACK
6
CONTINUOUS
10
5.44713
20
-3.10793
11
5.46287
21
-3.12368
0
LINE
8
BLACK
6
CONTINUOUS
10
5.46287
20
-3.10793
11
5.44713
21
-3.12368
0
LINE
8
BLACK
6
CONTINUOUS
10
5.44713
20
-4.95293
11
5.46287
21
-4.96868
0
LINE
8
BLACK
6
CONTINUOUS
10
5.46287
20
-4.95293
11
5.44713
21
-4.96868
0
LINE
8
BLACK
6
CONTINUOUS
10
5.47459
20
-1.94793
11
5.49033
21
-1.96368
0
LINE
8
BLACK
6
CONTINUOUS
10
5.49033
20
-1.94793
11
5.47459
21
-1.96368
0
LINE
8
BLACK
6
CONTINUOUS
10
5.47459
20
-3.79293
11
5.49033
21
-3.80868
0
LINE
8
BLACK
6
CONTINUOUS
10
5.49033
20
-3.79293
11
5.47459
21
-3.80868
0
LINE
8
BLACK
6
CONTINUOUS
10
5.48213
20
-1.99793
11
5.49787
21
-2.01368
0
LINE
8
BLACK
6
CONTINUOUS
10
5.49787
20
-1.99793
11
5.48213
21
-2.01368
0
LINE
8
BLACK
6
CONTINUOUS
10
5.48213
20
-2.04793
11
5.49787
21
-2.06368
0
LINE
8
BLACK
6
CONTINUOUS
10
5.49787
20
-2.04793
11
5.48213
21
-2.06368
0
LINE
8
BLACK
6
CONTINUOUS
10
5.48213
20
-2.09793
11
5.49787
21
-2.11368
0
LINE
8
BLACK
6
CONTINUOUS
10
5.49787
20
-2.09793
11
5.48213
21
-2.11368
0
LINE
8
BLACK
6
CONTINUOUS
10
5.48213
20
-2.14793
11
5.49787
21
-2.16368
0
LINE
8
BLACK
6
CONTINUOUS
10
5.49787
20
-2.14793
11
5.48213
21
-2.16368
0
LINE
8
BLACK
6
CONTINUOUS
10
5.48213
20
-2.19793
11
5.49787
21
-2.21368
0
LINE
8
BLACK
6
CONTINUOUS
10
5.49787
20
-2.19793
11
5.48213
21
-2.21368
0
LINE
8
BLACK
6
CONTINUOUS
10
5.48213
20
-2.24793
11
5.49787
21
-2.26368
0
LINE
8
BLACK
6
CONTINUOUS
10
5.49787
20
-2.24793
11
5.48213
21
-2.26368
0
LINE
8
BLACK
6
CONTINUOUS
10
5.48213
20
-2.29793
11
5.49787
21
-2.31368
0
LINE
8
BLACK
6
CONTINUOUS
10
5.49787
20
-2.29793
11
5.48213
21
-2.31368
0
LINE
8
BLACK
6
CONTINUOUS
10
5.48213
20
-2.34793
11
5.49787
21
-2.36368
0
LINE
8
BLACK
6
CONTINUOUS
10
5.49787
20
-2.34793
11
5.48213
21
-2.36368
0
LINE
8
BLACK
6
CONTINUOUS
10
5.48213
20
-2.39793
11
5.49787
21
-2.41368
0
LINE
8
BLACK
6
CONTINUOUS
10
5.49787
20
-2.39793
11
5.48213
21
-2.41368
0
LINE
8
BLACK
6
CONTINUOUS
10
5.48213
20
-2.44793
11
5.49787
21
-2.46368
0
LINE
8
BLACK
6
CONTINUOUS
10
5.49787
20
-2.44793
11
5.48213
21
-2.46368
0
LINE
8
BLACK
6
CONTINUOUS
10
5.48213
20
-2.49793
11
5.49787
21
-2.51368
0
LINE
8
BLACK
6
CONTINUOUS
10
5.49787
20
-2.49793
11
5.48213
21
-2.51368
0
LINE
8
BLACK
6
CONTINUOUS
10
5.48213
20
-3.84293
11
5.49787
21
-3.85868
0
LINE
8
BLACK
6
CONTINUOUS
10
5.49787
20
-3.84293
11
5.48213
21
-3.85868
0
LINE
8
BLACK
6
CONTINUOUS
10
5.48213
20
-3.89293
11
5.49787
21
-3.90868
0
LINE
8
BLACK
6
CONTINUOUS
10
5.49787
20
-3.89293
11
5.48213
21
-3.90868
0
LINE
8
BLACK
6
CONTINUOUS
10
5.48213
20
-3.94293
11
5.49787
21
-3.95868
0
LINE
8
BLACK
6
CONTINUOUS
10
5.49787
20
-3.94293
11
5.48213
21
-3.95868
0
LINE
8
BLACK
6
CONTINUOUS
10
5.48213
20
-3.99293
11
5.49787
21
-4.00868
0
LINE
8
BLACK
6
CONTINUOUS
10
5.49787
20
-3.99293
11
5.48213
21
-4.00868
0
LINE
8
BLACK
6
CONTINUOUS
10
5.48213
20
-4.04293
11
5.49787
21
-4.05868
0
LINE
8
BLACK
6
CONTINUOUS
10
5.49787
20
-4.04293
11
5.48213
21
-4.05868
0
LINE
8
BLACK
6
CONTINUOUS
10
5.48213
20
-4.09293
11
5.49787
21
-4.10868
0
LINE
8
BLACK
6
CONTINUOUS
10
5.49787
20
-4.09293
11
5.48213
21
-4.10868
0
LINE
8
BLACK
6
CONTINUOUS
10
5.48213
20
-4.14293
11
5.49787
21
-4.15868
0
LINE
8
BLACK
6
CONTINUOUS
10
5.49787
20
-4.14293
11
5.48213
21
-4.15868
0
LINE
8
BLACK
6
CONTINUOUS
10
5.48213
20
-4.19293
11
5.49787
21
-4.20868
0
LINE
8
BLACK
6
CONTINUOUS
10
5.49787
20
-4.19293
11
5.48213
21
-4.20868
0
LINE
8
BLACK
6
CONTINUOUS
10
5.48213
20
-4.24293
11
5.49787
21
-4.25868
0
LINE
8
BLACK
6
CONTINUOUS
10
5.49787
20
-4.24293
11
5.48213
21
-4.25868
0
LINE
8
BLACK
6
CONTINUOUS
10
5.48213
20
-4.29293
11
5.49787
21
-4.30868
0
LINE
8
BLACK
6
CONTINUOUS
10
5.49787
20
-4.29293
11
5.48213
21
-4.30868
0
LINE
8
BLACK
6
CONTINUOUS
10
5.48213
20
-4.34293
11
5.49787
21
-4.35868
0
LINE
8
BLACK
6
CONTINUOUS
10
5.49787
20
-4.34293
11
5.48213
21
-4.35868
0
LINE
8
BLACK
6
CONTINUOUS
10
5.62713
20
-2.56956
11
5.64287
21
-2.58531
0
LINE
8
BLACK
6
CONTINUOUS
10
5.64287
20
-2.56956
11
5.62713
21
-2.58531
0
LINE
8
BLACK
6
CONTINUOUS
10
5.62713
20
-4.41793
11
5.64287
21
-4.43368
0
LINE
8
BLACK
6
CONTINUOUS
10
5.64287
20
-4.41793
11
5.62713
21
-4.43368
0
LINE
8
BLACK
6
CONTINUOUS
10
5.63213
20
-1.89456
11
5.64787
21
-1.91031
0
LINE
8
BLACK
6
CONTINUOUS
10
5.64787
20
-1.89456
11
5.63213
21
-1.91031
0
LINE
8
BLACK
6
CONTINUOUS
10
5.63213
20
-1.94456
11
5.64787
21
-1.96031
0
LINE
8
BLACK
6
CONTINUOUS
10
5.64787
20
-1.94456
11
5.63213
21
-1.96031
0
LINE
8
BLACK
6
CONTINUOUS
10
5.63213
20
-1.99456
11
5.64787
21
-2.01031
0
LINE
8
BLACK
6
CONTINUOUS
10
5.64787
20
-1.99456
11
5.63213
21
-2.01031
0
LINE
8
BLACK
6
CONTINUOUS
10
5.63213
20
-2.04456
11
5.64787
21
-2.06031
0
LINE
8
BLACK
6
CONTINUOUS
10
5.64787
20
-2.04456
11
5.63213
21
-2.06031
0
LINE
8
BLACK
6
CONTINUOUS
10
5.63213
20
-2.09456
11
5.64787
21
-2.11031
0
LINE
8
BLACK
6
CONTINUOUS
10
5.64787
20
-2.09456
11
5.63213
21
-2.11031
0
LINE
8
BLACK
6
CONTINUOUS
10
5.63213
20
-2.24456
11
5.64787
21
-2.26031
0
LINE
8
BLACK
6
CONTINUOUS
10
5.64787
20
-2.24456
11
5.63213
21
-2.26031
0
LINE
8
BLACK
6
CONTINUOUS
10
5.63213
20
-2.29456
11
5.64787
21
-2.31031
0
LINE
8
BLACK
6
CONTINUOUS
10
5.64787
20
-2.29456
11
5.63213
21
-2.31031
0
LINE
8
BLACK
6
CONTINUOUS
10
5.63213
20
-2.34456
11
5.64787
21
-2.36031
0
LINE
8
BLACK
6
CONTINUOUS
10
5.64787
20
-2.34456
11
5.63213
21
-2.36031
0
LINE
8
BLACK
6
CONTINUOUS
10
5.63213
20
-2.39456
11
5.64787
21
-2.41031
0
LINE
8
BLACK
6
CONTINUOUS
10
5.64787
20
-2.39456
11
5.63213
21
-2.41031
0
LINE
8
BLACK
6
CONTINUOUS
10
5.63213
20
-2.44456
11
5.64787
21
-2.46031
0
LINE
8
BLACK
6
CONTINUOUS
10
5.64787
20
-2.44456
11
5.63213
21
-2.46031
0
LINE
8
BLACK
6
CONTINUOUS
10
5.63213
20
-3.74293
11
5.64787
21
-3.75868
0
LINE
8
BLACK
6
CONTINUOUS
10
5.64787
20
-3.74293
11
5.63213
21
-3.75868
0
LINE
8
BLACK
6
CONTINUOUS
10
5.63213
20
-3.79293
11
5.64787
21
-3.80868
0
LINE
8
BLACK
6
CONTINUOUS
10
5.64787
20
-3.79293
11
5.63213
21
-3.80868
0
LINE
8
BLACK
6
CONTINUOUS
10
5.63213
20
-3.84293
11
5.64787
21
-3.85868
0
LINE
8
BLACK
6
CONTINUOUS
10
5.64787
20
-3.84293
11
5.63213
21
-3.85868
0
LINE
8
BLACK
6
CONTINUOUS
10
5.63213
20
-3.89293
11
5.64787
21
-3.90868
0
LINE
8
BLACK
6
CONTINUOUS
10
5.64787
20
-3.89293
11
5.63213
21
-3.90868
0
LINE
8
BLACK
6
CONTINUOUS
10
5.63213
20
-3.94293
11
5.64787
21
-3.95868
0
LINE
8
BLACK
6
CONTINUOUS
10
5.64787
20
-3.94293
11
5.63213
21
-3.95868
0
LINE
8
BLACK
6
CONTINUOUS
10
5.63213
20
-4.09293
11
5.64787
21
-4.10868
0
LINE
8
BLACK
6
CONTINUOUS
10
5.64787
20
-4.09293
11
5.63213
21
-4.10868
0
LINE
8
BLACK
6
CONTINUOUS
10
5.63213
20
-4.14293
11
5.64787
21
-4.15868
0
LINE
8
BLACK
6
CONTINUOUS
10
5.64787
20
-4.14293
11
5.63213
21
-4.15868
0
LINE
8
BLACK
6
CONTINUOUS
10
5.63213
20
-4.19293
11
5.64787
21
-4.20868
0
LINE
8
BLACK
6
CONTINUOUS
10
5.64787
20
-4.19293
11
5.63213
21
-4.20868
0
LINE
8
BLACK
6
CONTINUOUS
10
5.63213
20
-4.24293
11
5.64787
21
-4.25868
0
LINE
8
BLACK
6
CONTINUOUS
10
5.64787
20
-4.24293
11
5.63213
21
-4.25868
0
LINE
8
BLACK
6
CONTINUOUS
10
5.63213
20
-4.29293
11
5.64787
21
-4.30868
0
LINE
8
BLACK
6
CONTINUOUS
10
5.64787
20
-4.29293
11
5.63213
21
-4.30868
0
LINE
8
BLACK
6
CONTINUOUS
10
5.6358
20
-2.13627
11
5.65154
21
-2.15202
0
LINE
8
BLACK
6
CONTINUOUS
10
5.65154
20
-2.13627
11
5.6358
21
-2.15202
0
LINE
8
BLACK
6
CONTINUOUS
10
5.6358
20
-3.98464
11
5.65154
21
-4.00039
0
LINE
8
BLACK
6
CONTINUOUS
10
5.65154
20
-3.98464
11
5.6358
21
-4.00039
0
LINE
8
BLACK
6
CONTINUOUS
10
5.72713
20
-1.75956
11
5.74287
21
-1.77531
0
LINE
8
BLACK
6
CONTINUOUS
10
5.74287
20
-1.75956
11
5.72713
21
-1.77531
0
LINE
8
BLACK
6
CONTINUOUS
10
5.72713
20
-3.60793
11
5.74287
21
-3.62368
0
LINE
8
BLACK
6
CONTINUOUS
10
5.74287
20
-3.60793
11
5.72713
21
-3.62368
0
LINE
8
BLACK
6
CONTINUOUS
10
5.83713
20
-1.70456
11
5.85287
21
-1.72031
0
LINE
8
BLACK
6
CONTINUOUS
10
5.85287
20
-1.70456
11
5.83713
21
-1.72031
0
LINE
8
BLACK
6
CONTINUOUS
10
5.83713
20
-3.55293
11
5.85287
21
-3.56868
0
LINE
8
BLACK
6
CONTINUOUS
10
5.85287
20
-3.55293
11
5.83713
21
-3.56868
0
LINE
8
BLACK
6
CONTINUOUS
10
5.94713
20
-1.94456
11
5.96287
21
-1.96031
0
LINE
8
BLACK
6
CONTINUOUS
10
5.96287
20
-1.94456
11
5.94713
21
-1.96031
0
LINE
8
BLACK
6
CONTINUOUS
10
5.94713
20
-2.00456
11
5.96287
21
-2.02031
0
LINE
8
BLACK
6
CONTINUOUS
10
5.96287
20
-2.00456
11
5.94713
21
-2.02031
0
LINE
8
BLACK
6
CONTINUOUS
10
5.94713
20
-2.0646
11
5.96287
21
-2.08035
0
LINE
8
BLACK
6
CONTINUOUS
10
5.96287
20
-2.0646
11
5.94713
21
-2.08035
0
LINE
8
BLACK
6
CONTINUOUS
10
5.94713
20
-3.79293
11
5.96287
21
-3.80868
0
LINE
8
BLACK
6
CONTINUOUS
10
5.96287
20
-3.79293
11
5.94713
21
-3.80868
0
LINE
8
BLACK
6
CONTINUOUS
10
5.94713
20
-3.85293
11
5.96287
21
-3.86868
0
LINE
8
BLACK
6
CONTINUOUS
10
5.96287
20
-3.85293
11
5.94713
21
-3.86868
0
LINE
8
BLACK
6
CONTINUOUS
10
5.94713
20
-3.91297
11
5.96287
21
-3.92871
0
LINE
8
BLACK
6
CONTINUOUS
10
5.96287
20
-3.91297
11
5.94713
21
-3.92871
0
LINE
8
BLACK
6
CONTINUOUS
10
5.95213
20
-1.87956
11
5.96787
21
-1.89531
0
LINE
8
BLACK
6
CONTINUOUS
10
5.96787
20
-1.87956
11
5.95213
21
-1.89531
0
LINE
8
BLACK
6
CONTINUOUS
10
5.95213
20
-3.72793
11
5.96787
21
-3.74368
0
LINE
8
BLACK
6
CONTINUOUS
10
5.96787
20
-3.72793
11
5.95213
21
-3.74368
0
LINE
8
BLACK
6
CONTINUOUS
10
5.96713
20
-2.14956
11
5.98287
21
-2.16531
0
LINE
8
BLACK
6
CONTINUOUS
10
5.98287
20
-2.14956
11
5.96713
21
-2.16531
0
LINE
8
BLACK
6
CONTINUOUS
10
5.96713
20
-2.21456
11
5.98287
21
-2.23031
0
LINE
8
BLACK
6
CONTINUOUS
10
5.98287
20
-2.21456
11
5.96713
21
-2.23031
0
LINE
8
BLACK
6
CONTINUOUS
10
5.96713
20
-2.27456
11
5.98287
21
-2.29031
0
LINE
8
BLACK
6
CONTINUOUS
10
5.98287
20
-2.27456
11
5.96713
21
-2.29031
0
LINE
8
BLACK
6
CONTINUOUS
10
5.96713
20
-2.33456
11
5.98287
21
-2.35031
0
LINE
8
BLACK
6
CONTINUOUS
10
5.98287
20
-2.33456
11
5.96713
21
-2.35031
0
LINE
8
BLACK
6
CONTINUOUS
10
5.96713
20
-2.39456
11
5.98287
21
-2.41031
0
LINE
8
BLACK
6
CONTINUOUS
10
5.98287
20
-2.39456
11
5.96713
21
-2.41031
0
LINE
8
BLACK
6
CONTINUOUS
10
5.96713
20
-2.45456
11
5.98287
21
-2.47031
0
LINE
8
BLACK
6
CONTINUOUS
10
5.98287
20
-2.45456
11
5.96713
21
-2.47031
0
LINE
8
BLACK
6
CONTINUOUS
10
5.96713
20
-2.51956
11
5.98287
21
-2.53531
0
LINE
8
BLACK
6
CONTINUOUS
10
5.98287
20
-2.51956
11
5.96713
21
-2.53531
0
LINE
8
BLACK
6
CONTINUOUS
10
5.96713
20
-3.99793
11
5.98287
21
-4.01368
0
LINE
8
BLACK
6
CONTINUOUS
10
5.98287
20
-3.99793
11
5.96713
21
-4.01368
0
LINE
8
BLACK
6
CONTINUOUS
10
5.96713
20
-4.06293
11
5.98287
21
-4.07868
0
LINE
8
BLACK
6
CONTINUOUS
10
5.98287
20
-4.06293
11
5.96713
21
-4.07868
0
LINE
8
BLACK
6
CONTINUOUS
10
5.96713
20
-4.12293
11
5.98287
21
-4.13868
0
LINE
8
BLACK
6
CONTINUOUS
10
5.98287
20
-4.12293
11
5.96713
21
-4.13868
0
LINE
8
BLACK
6
CONTINUOUS
10
5.96713
20
-4.18293
11
5.98287
21
-4.19868
0
LINE
8
BLACK
6
CONTINUOUS
10
5.98287
20
-4.18293
11
5.96713
21
-4.19868
0
LINE
8
BLACK
6
CONTINUOUS
10
5.96713
20
-4.24293
11
5.98287
21
-4.25868
0
LINE
8
BLACK
6
CONTINUOUS
10
5.98287
20
-4.24293
11
5.96713
21
-4.25868
0
LINE
8
BLACK
6
CONTINUOUS
10
5.96713
20
-4.30293
11
5.98287
21
-4.31868
0
LINE
8
BLACK
6
CONTINUOUS
10
5.98287
20
-4.30293
11
5.96713
21
-4.31868
0
LINE
8
BLACK
6
CONTINUOUS
10
5.96713
20
-4.36793
11
5.98287
21
-4.38368
0
LINE
8
BLACK
6
CONTINUOUS
10
5.98287
20
-4.36793
11
5.96713
21
-4.38368
0
LINE
8
BLACK
6
CONTINUOUS
10
6.00213
20
-1.63456
11
6.01787
21
-1.65031
0
LINE
8
BLACK
6
CONTINUOUS
10
6.01787
20
-1.63456
11
6.00213
21
-1.65031
0
LINE
8
BLACK
6
CONTINUOUS
10
6.00213
20
-3.48293
11
6.01787
21
-3.49868
0
LINE
8
BLACK
6
CONTINUOUS
10
6.01787
20
-3.48293
11
6.00213
21
-3.49868
0
LINE
8
BLACK
6
CONTINUOUS
10
6.00515
20
-2.10787
11
6.0209
21
-2.12362
0
LINE
8
BLACK
6
CONTINUOUS
10
6.0209
20
-2.10787
11
6.00515
21
-2.12362
0
LINE
8
BLACK
6
CONTINUOUS
10
6.00515
20
-3.95623
11
6.0209
21
-3.97198
0
LINE
8
BLACK
6
CONTINUOUS
10
6.0209
20
-3.95623
11
6.00515
21
-3.97198
0
LINE
8
BLACK
6
CONTINUOUS
10
6.03459
20
-2.5471
11
6.05033
21
-2.56285
0
LINE
8
BLACK
6
CONTINUOUS
10
6.05033
20
-2.5471
11
6.03459
21
-2.56285
0
LINE
8
BLACK
6
CONTINUOUS
10
6.03459
20
-4.39547
11
6.05033
21
-4.41121
0
LINE
8
BLACK
6
CONTINUOUS
10
6.05033
20
-4.39547
11
6.03459
21
-4.41121
0
LINE
8
BLACK
6
CONTINUOUS
10
6.05213
20
-1.84456
11
6.06787
21
-1.86031
0
LINE
8
BLACK
6
CONTINUOUS
10
6.06787
20
-1.84456
11
6.05213
21
-1.86031
0
LINE
8
BLACK
6
CONTINUOUS
10
6.05213
20
-3.69293
11
6.06787
21
-3.70868
0
LINE
8
BLACK
6
CONTINUOUS
10
6.06787
20
-3.69293
11
6.05213
21
-3.70868
0
LINE
8
BLACK
6
CONTINUOUS
10
6.10713
20
-1.87456
11
6.12287
21
-1.89031
0
LINE
8
BLACK
6
CONTINUOUS
10
6.12287
20
-1.87456
11
6.10713
21
-1.89031
0
LINE
8
BLACK
6
CONTINUOUS
10
6.10713
20
-3.72293
11
6.12287
21
-3.73868
0
LINE
8
BLACK
6
CONTINUOUS
10
6.12287
20
-3.72293
11
6.10713
21
-3.73868
0
LINE
8
BLACK
6
CONTINUOUS
10
6.15713
20
-3.09456
11
6.17287
21
-3.11031
0
LINE
8
BLACK
6
CONTINUOUS
10
6.17287
20
-3.09456
11
6.15713
21
-3.11031
0
LINE
8
BLACK
6
CONTINUOUS
10
6.15713
20
-4.94293
11
6.17287
21
-4.95868
0
LINE
8
BLACK
6
CONTINUOUS
10
6.17287
20
-4.94293
11
6.15713
21
-4.95868
0
LINE
8
BLACK
6
CONTINUOUS
10
6.17713
20
-2.54956
11
6.19287
21
-2.56531
0
LINE
8
BLACK
6
CONTINUOUS
10
6.19287
20
-2.54956
11
6.17713
21
-2.56531
0
LINE
8
BLACK
6
CONTINUOUS
10
6.17713
20
-4.39793
11
6.19287
21
-4.41368
0
LINE
8
BLACK
6
CONTINUOUS
10
6.19287
20
-4.39793
11
6.17713
21
-4.41368
0
LINE
8
BLACK
6
CONTINUOUS
10
6.18213
20
-2.60456
11
6.19787
21
-2.62031
0
LINE
8
BLACK
6
CONTINUOUS
10
6.19787
20
-2.60456
11
6.18213
21
-2.62031
0
LINE
8
BLACK
6
CONTINUOUS
10
6.18213
20
-4.45293
11
6.19787
21
-4.46868
0
LINE
8
BLACK
6
CONTINUOUS
10
6.19787
20
-4.45293
11
6.18213
21
-4.46868
0
LINE
8
BLACK
6
CONTINUOUS
10
6.20213
20
-2.74956
11
6.21787
21
-2.76531
0
LINE
8
BLACK
6
CONTINUOUS
10
6.21787
20
-2.74956
11
6.20213
21
-2.76531
0
LINE
8
BLACK
6
CONTINUOUS
10
6.20213
20
-4.59793
11
6.21787
21
-4.61368
0
LINE
8
BLACK
6
CONTINUOUS
10
6.21787
20
-4.59793
11
6.20213
21
-4.61368
0
LINE
8
BLACK
6
CONTINUOUS
10
6.24713
20
-1.67456
11
6.26287
21
-1.69031
0
LINE
8
BLACK
6
CONTINUOUS
10
6.26287
20
-1.67456
11
6.24713
21
-1.69031
0
LINE
8
BLACK
6
CONTINUOUS
10
6.24713
20
-3.11956
11
6.26287
21
-3.13531
0
LINE
8
BLACK
6
CONTINUOUS
10
6.26287
20
-3.11956
11
6.24713
21
-3.13531
0
LINE
8
BLACK
6
CONTINUOUS
10
6.24713
20
-3.52293
11
6.26287
21
-3.53868
0
LINE
8
BLACK
6
CONTINUOUS
10
6.26287
20
-3.52293
11
6.24713
21
-3.53868
0
LINE
8
BLACK
6
CONTINUOUS
10
6.24713
20
-4.96793
11
6.26287
21
-4.98368
0
LINE
8
BLACK
6
CONTINUOUS
10
6.26287
20
-4.96793
11
6.24713
21
-4.98368
0
LINE
8
BLACK
6
CONTINUOUS
10
6.25713
20
-2.68456
11
6.27287
21
-2.70031
0
LINE
8
BLACK
6
CONTINUOUS
10
6.27287
20
-2.68456
11
6.25713
21
-2.70031
0
LINE
8
BLACK
6
CONTINUOUS
10
6.25713
20
-4.53293
11
6.27287
21
-4.54868
0
LINE
8
BLACK
6
CONTINUOUS
10
6.27287
20
-4.53293
11
6.25713
21
-4.54868
0
LINE
8
BLACK
6
CONTINUOUS
10
6.29713
20
-1.38801
11
6.31287
21
-1.40375
0
LINE
8
BLACK
6
CONTINUOUS
10
6.31287
20
-1.38801
11
6.29713
21
-1.40375
0
LINE
8
BLACK
6
CONTINUOUS
10
6.29713
20
-3.11956
11
6.31287
21
-3.13531
0
LINE
8
BLACK
6
CONTINUOUS
10
6.31287
20
-3.11956
11
6.29713
21
-3.13531
0
LINE
8
BLACK
6
CONTINUOUS
10
6.29713
20
-3.23637
11
6.31287
21
-3.25212
0
LINE
8
BLACK
6
CONTINUOUS
10
6.31287
20
-3.23637
11
6.29713
21
-3.25212
0
LINE
8
BLACK
6
CONTINUOUS
10
6.29713
20
-4.96793
11
6.31287
21
-4.98368
0
LINE
8
BLACK
6
CONTINUOUS
10
6.31287
20
-4.96793
11
6.29713
21
-4.98368
0
LINE
8
BLACK
6
CONTINUOUS
10
6.31213
20
-2.26456
11
6.32787
21
-2.28031
0
LINE
8
BLACK
6
CONTINUOUS
10
6.32787
20
-2.26456
11
6.31213
21
-2.28031
0
LINE
8
BLACK
6
CONTINUOUS
10
6.31213
20
-4.11293
11
6.32787
21
-4.12868
0
LINE
8
BLACK
6
CONTINUOUS
10
6.32787
20
-4.11293
11
6.31213
21
-4.12868
0
LINE
8
BLACK
6
CONTINUOUS
10
6.31713
20
-1.72456
11
6.33287
21
-1.74031
0
LINE
8
BLACK
6
CONTINUOUS
10
6.33287
20
-1.72456
11
6.31713
21
-1.74031
0
LINE
8
BLACK
6
CONTINUOUS
10
6.31713
20
-3.57293
11
6.33287
21
-3.58868
0
LINE
8
BLACK
6
CONTINUOUS
10
6.33287
20
-3.57293
11
6.31713
21
-3.58868
0
LINE
8
BLACK
6
CONTINUOUS
10
6.32162
20
-2.67764
11
6.33737
21
-2.69339
0
LINE
8
BLACK
6
CONTINUOUS
10
6.33737
20
-2.67764
11
6.32162
21
-2.69339
0
LINE
8
BLACK
6
CONTINUOUS
10
6.32162
20
-4.52601
11
6.33737
21
-4.54175
0
LINE
8
BLACK
6
CONTINUOUS
10
6.33737
20
-4.52601
11
6.32162
21
-4.54175
0
LINE
8
BLACK
6
CONTINUOUS
10
6.34713
20
-1.38801
11
6.36287
21
-1.40375
0
LINE
8
BLACK
6
CONTINUOUS
10
6.36287
20
-1.38801
11
6.34713
21
-1.40375
0
LINE
8
BLACK
6
CONTINUOUS
10
6.34713
20
-3.11956
11
6.36287
21
-3.13531
0
LINE
8
BLACK
6
CONTINUOUS
10
6.36287
20
-3.11956
11
6.34713
21
-3.13531
0
LINE
8
BLACK
6
CONTINUOUS
10
6.34713
20
-3.23637
11
6.36287
21
-3.25212
0
LINE
8
BLACK
6
CONTINUOUS
10
6.36287
20
-3.23637
11
6.34713
21
-3.25212
0
LINE
8
BLACK
6
CONTINUOUS
10
6.34713
20
-4.96793
11
6.36287
21
-4.98368
0
LINE
8
BLACK
6
CONTINUOUS
10
6.36287
20
-4.96793
11
6.34713
21
-4.98368
0
LINE
8
BLACK
6
CONTINUOUS
10
6.35909
20
-1.80033
11
6.37484
21
-1.81608
0
LINE
8
BLACK
6
CONTINUOUS
10
6.37484
20
-1.80033
11
6.35909
21
-1.81608
0
LINE
8
BLACK
6
CONTINUOUS
10
6.35909
20
-3.6487
11
6.37484
21
-3.66445
0
LINE
8
BLACK
6
CONTINUOUS
10
6.37484
20
-3.6487
11
6.35909
21
-3.66445
0
LINE
8
BLACK
6
CONTINUOUS
10
6.3772
20
-2.68125
11
6.39295
21
-2.697
0
LINE
8
BLACK
6
CONTINUOUS
10
6.39295
20
-2.68125
11
6.3772
21
-2.697
0
LINE
8
BLACK
6
CONTINUOUS
10
6.3772
20
-4.52962
11
6.39295
21
-4.54537
0
LINE
8
BLACK
6
CONTINUOUS
10
6.39295
20
-4.52962
11
6.3772
21
-4.54537
0
LINE
8
BLACK
6
CONTINUOUS
10
6.39713
20
-1.38801
11
6.41287
21
-1.40375
0
LINE
8
BLACK
6
CONTINUOUS
10
6.41287
20
-1.38801
11
6.39713
21
-1.40375
0
LINE
8
BLACK
6
CONTINUOUS
10
6.39713
20
-3.11956
11
6.41287
21
-3.13531
0
LINE
8
BLACK
6
CONTINUOUS
10
6.41287
20
-3.11956
11
6.39713
21
-3.13531
0
LINE
8
BLACK
6
CONTINUOUS
10
6.39713
20
-3.23637
11
6.41287
21
-3.25212
0
LINE
8
BLACK
6
CONTINUOUS
10
6.41287
20
-3.23637
11
6.39713
21
-3.25212
0
LINE
8
BLACK
6
CONTINUOUS
10
6.39713
20
-4.96793
11
6.41287
21
-4.98368
0
LINE
8
BLACK
6
CONTINUOUS
10
6.41287
20
-4.96793
11
6.39713
21
-4.98368
0
LINE
8
BLACK
6
CONTINUOUS
10
6.39967
20
-1.75752
11
6.41541
21
-1.77327
0
LINE
8
BLACK
6
CONTINUOUS
10
6.41541
20
-1.75752
11
6.39967
21
-1.77327
0
LINE
8
BLACK
6
CONTINUOUS
10
6.39967
20
-3.60589
11
6.41541
21
-3.62163
0
LINE
8
BLACK
6
CONTINUOUS
10
6.41541
20
-3.60589
11
6.39967
21
-3.62163
0
LINE
8
BLACK
6
CONTINUOUS
10
6.43042
20
-2.70507
11
6.44616
21
-2.72081
0
LINE
8
BLACK
6
CONTINUOUS
10
6.44616
20
-2.70507
11
6.43042
21
-2.72081
0
LINE
8
BLACK
6
CONTINUOUS
10
6.43042
20
-4.55343
11
6.44616
21
-4.56918
0
LINE
8
BLACK
6
CONTINUOUS
10
6.44616
20
-4.55343
11
6.43042
21
-4.56918
0
LINE
8
BLACK
6
CONTINUOUS
10
6.44039
20
-1.71463
11
6.45614
21
-1.73037
0
LINE
8
BLACK
6
CONTINUOUS
10
6.45614
20
-1.71463
11
6.44039
21
-1.73037
0
LINE
8
BLACK
6
CONTINUOUS
10
6.44039
20
-3.56299
11
6.45614
21
-3.57874
0
LINE
8
BLACK
6
CONTINUOUS
10
6.45614
20
-3.56299
11
6.44039
21
-3.57874
0
LINE
8
BLACK
6
CONTINUOUS
10
6.44713
20
-1.38801
11
6.46287
21
-1.40375
0
LINE
8
BLACK
6
CONTINUOUS
10
6.46287
20
-1.38801
11
6.44713
21
-1.40375
0
LINE
8
BLACK
6
CONTINUOUS
10
6.44713
20
-3.11956
11
6.46287
21
-3.13531
0
LINE
8
BLACK
6
CONTINUOUS
10
6.46287
20
-3.11956
11
6.44713
21
-3.13531
0
LINE
8
BLACK
6
CONTINUOUS
10
6.44713
20
-3.23637
11
6.46287
21
-3.25212
0
LINE
8
BLACK
6
CONTINUOUS
10
6.46287
20
-3.23637
11
6.44713
21
-3.25212
0
LINE
8
BLACK
6
CONTINUOUS
10
6.44713
20
-4.96793
11
6.46287
21
-4.98368
0
LINE
8
BLACK
6
CONTINUOUS
10
6.46287
20
-4.96793
11
6.44713
21
-4.98368
0
LINE
8
BLACK
6
CONTINUOUS
10
6.46856
20
-2.74839
11
6.48431
21
-2.76413
0
LINE
8
BLACK
6
CONTINUOUS
10
6.48431
20
-2.74839
11
6.46856
21
-2.76413
0
LINE
8
BLACK
6
CONTINUOUS
10
6.46856
20
-4.59675
11
6.48431
21
-4.6125
0
LINE
8
BLACK
6
CONTINUOUS
10
6.48431
20
-4.59675
11
6.46856
21
-4.6125
0
LINE
8
BLACK
6
CONTINUOUS
10
6.48713
20
-2.43956
11
6.50287
21
-2.45531
0
LINE
8
BLACK
6
CONTINUOUS
10
6.50287
20
-2.43956
11
6.48713
21
-2.45531
0
LINE
8
BLACK
6
CONTINUOUS
10
6.48713
20
-4.28793
11
6.50287
21
-4.30368
0
LINE
8
BLACK
6
CONTINUOUS
10
6.50287
20
-4.28793
11
6.48713
21
-4.30368
0
LINE
8
BLACK
6
CONTINUOUS
10
6.49713
20
-1.38801
11
6.51287
21
-1.40375
0
LINE
8
BLACK
6
CONTINUOUS
10
6.51287
20
-1.38801
11
6.49713
21
-1.40375
0
LINE
8
BLACK
6
CONTINUOUS
10
6.49713
20
-1.65456
11
6.51287
21
-1.67031
0
LINE
8
BLACK
6
CONTINUOUS
10
6.51287
20
-1.65456
11
6.49713
21
-1.67031
0
LINE
8
BLACK
6
CONTINUOUS
10
6.49713
20
-3.11956
11
6.51287
21
-3.13531
0
LINE
8
BLACK
6
CONTINUOUS
10
6.51287
20
-3.11956
11
6.49713
21
-3.13531
0
LINE
8
BLACK
6
CONTINUOUS
10
6.49713
20
-3.23637
11
6.51287
21
-3.25212
0
LINE
8
BLACK
6
CONTINUOUS
10
6.51287
20
-3.23637
11
6.49713
21
-3.25212
0
LINE
8
BLACK
6
CONTINUOUS
10
6.49713
20
-3.50293
11
6.51287
21
-3.51868
0
LINE
8
BLACK
6
CONTINUOUS
10
6.51287
20
-3.50293
11
6.49713
21
-3.51868
0
LINE
8
BLACK
6
CONTINUOUS
10
6.49713
20
-4.96793
11
6.51287
21
-4.98368
0
LINE
8
BLACK
6
CONTINUOUS
10
6.51287
20
-4.96793
11
6.49713
21
-4.98368
0
LINE
8
BLACK
6
CONTINUOUS
10
6.50428
20
-2.73184
11
6.52003
21
-2.74759
0
LINE
8
BLACK
6
CONTINUOUS
10
6.52003
20
-2.73184
11
6.50428
21
-2.74759
0
LINE
8
BLACK
6
CONTINUOUS
10
6.50428
20
-4.58021
11
6.52003
21
-4.59596
0
LINE
8
BLACK
6
CONTINUOUS
10
6.52003
20
-4.58021
11
6.50428
21
-4.59596
0
LINE
8
BLACK
6
CONTINUOUS
10
6.51808
20
-2.77759
11
6.53382
21
-2.79334
0
LINE
8
BLACK
6
CONTINUOUS
10
6.53382
20
-2.77759
11
6.51808
21
-2.79334
0
LINE
8
BLACK
6
CONTINUOUS
10
6.51808
20
-4.62596
11
6.53382
21
-4.64171
0
LINE
8
BLACK
6
CONTINUOUS
10
6.53382
20
-4.62596
11
6.51808
21
-4.64171
0
LINE
8
BLACK
6
CONTINUOUS
10
6.54713
20
-1.38801
11
6.56287
21
-1.40375
0
LINE
8
BLACK
6
CONTINUOUS
10
6.56287
20
-1.38801
11
6.54713
21
-1.40375
0
LINE
8
BLACK
6
CONTINUOUS
10
6.54713
20
-1.68456
11
6.56287
21
-1.70031
0
LINE
8
BLACK
6
CONTINUOUS
10
6.56287
20
-1.68456
11
6.54713
21
-1.70031
0
LINE
8
BLACK
6
CONTINUOUS
10
6.54713
20
-3.11956
11
6.56287
21
-3.13531
0
LINE
8
BLACK
6
CONTINUOUS
10
6.56287
20
-3.11956
11
6.54713
21
-3.13531
0
LINE
8
BLACK
6
CONTINUOUS
10
6.54713
20
-3.23637
11
6.56287
21
-3.25212
0
LINE
8
BLACK
6
CONTINUOUS
10
6.56287
20
-3.23637
11
6.54713
21
-3.25212
0
LINE
8
BLACK
6
CONTINUOUS
10
6.54713
20
-3.53293
11
6.56287
21
-3.54868
0
LINE
8
BLACK
6
CONTINUOUS
10
6.56287
20
-3.53293
11
6.54713
21
-3.54868
0
LINE
8
BLACK
6
CONTINUOUS
10
6.54713
20
-4.96793
11
6.56287
21
-4.98368
0
LINE
8
BLACK
6
CONTINUOUS
10
6.56287
20
-4.96793
11
6.54713
21
-4.98368
0
LINE
8
BLACK
6
CONTINUOUS
10
6.57435
20
-2.78958
11
6.5901
21
-2.80533
0
LINE
8
BLACK
6
CONTINUOUS
10
6.5901
20
-2.78958
11
6.57435
21
-2.80533
0
LINE
8
BLACK
6
CONTINUOUS
10
6.57435
20
-4.63795
11
6.5901
21
-4.6537
0
LINE
8
BLACK
6
CONTINUOUS
10
6.5901
20
-4.63795
11
6.57435
21
-4.6537
0
LINE
8
BLACK
6
CONTINUOUS
10
6.59713
20
-1.38801
11
6.61287
21
-1.40375
0
LINE
8
BLACK
6
CONTINUOUS
10
6.61287
20
-1.38801
11
6.59713
21
-1.40375
0
LINE
8
BLACK
6
CONTINUOUS
10
6.59713
20
-3.11956
11
6.61287
21
-3.13531
0
LINE
8
BLACK
6
CONTINUOUS
10
6.61287
20
-3.11956
11
6.59713
21
-3.13531
0
LINE
8
BLACK
6
CONTINUOUS
10
6.59713
20
-3.23637
11
6.61287
21
-3.25212
0
LINE
8
BLACK
6
CONTINUOUS
10
6.61287
20
-3.23637
11
6.59713
21
-3.25212
0
LINE
8
BLACK
6
CONTINUOUS
10
6.59713
20
-4.96793
11
6.61287
21
-4.98368
0
LINE
8
BLACK
6
CONTINUOUS
10
6.61287
20
-4.96793
11
6.59713
21
-4.98368
0
LINE
8
BLACK
6
CONTINUOUS
10
6.61372
20
-2.74802
11
6.62947
21
-2.76377
0
LINE
8
BLACK
6
CONTINUOUS
10
6.62947
20
-2.74802
11
6.61372
21
-2.76377
0
LINE
8
BLACK
6
CONTINUOUS
10
6.61372
20
-4.59638
11
6.62947
21
-4.61213
0
LINE
8
BLACK
6
CONTINUOUS
10
6.62947
20
-4.59638
11
6.61372
21
-4.61213
0
LINE
8
BLACK
6
CONTINUOUS
10
6.61959
20
-1.70496
11
6.63533
21
-1.72071
0
LINE
8
BLACK
6
CONTINUOUS
10
6.63533
20
-1.70496
11
6.61959
21
-1.72071
0
LINE
8
BLACK
6
CONTINUOUS
10
6.61959
20
-3.55333
11
6.63533
21
-3.56908
0
LINE
8
BLACK
6
CONTINUOUS
10
6.63533
20
-3.55333
11
6.61959
21
-3.56908
0
LINE
8
BLACK
6
CONTINUOUS
10
6.62463
20
-1.75206
11
6.64037
21
-1.76781
0
LINE
8
BLACK
6
CONTINUOUS
10
6.64037
20
-1.75206
11
6.62463
21
-1.76781
0
LINE
8
BLACK
6
CONTINUOUS
10
6.62463
20
-3.60043
11
6.64037
21
-3.61618
0
LINE
8
BLACK
6
CONTINUOUS
10
6.64037
20
-3.60043
11
6.62463
21
-3.61618
0
LINE
8
BLACK
6
CONTINUOUS
10
6.64713
20
-1.38801
11
6.66287
21
-1.40375
0
LINE
8
BLACK
6
CONTINUOUS
10
6.66287
20
-1.38801
11
6.64713
21
-1.40375
0
LINE
8
BLACK
6
CONTINUOUS
10
6.64713
20
-3.11956
11
6.66287
21
-3.13531
0
LINE
8
BLACK
6
CONTINUOUS
10
6.66287
20
-3.11956
11
6.64713
21
-3.13531
0
LINE
8
BLACK
6
CONTINUOUS
10
6.64713
20
-3.23637
11
6.66287
21
-3.25212
0
LINE
8
BLACK
6
CONTINUOUS
10
6.66287
20
-3.23637
11
6.64713
21
-3.25212
0
LINE
8
BLACK
6
CONTINUOUS
10
6.64713
20
-4.96793
11
6.66287
21
-4.98368
0
LINE
8
BLACK
6
CONTINUOUS
10
6.66287
20
-4.96793
11
6.64713
21
-4.98368
0
LINE
8
BLACK
6
CONTINUOUS
10
6.65713
20
-2.17456
11
6.67287
21
-2.19031
0
LINE
8
BLACK
6
CONTINUOUS
10
6.67287
20
-2.17456
11
6.65713
21
-2.19031
0
LINE
8
BLACK
6
CONTINUOUS
10
6.65713
20
-4.02293
11
6.67287
21
-4.03868
0
LINE
8
BLACK
6
CONTINUOUS
10
6.67287
20
-4.02293
11
6.65713
21
-4.03868
0
LINE
8
BLACK
6
CONTINUOUS
10
6.66713
20
-2.43956
11
6.68287
21
-2.45531
0
LINE
8
BLACK
6
CONTINUOUS
10
6.68287
20
-2.43956
11
6.66713
21
-2.45531
0
LINE
8
BLACK
6
CONTINUOUS
10
6.66713
20
-4.28793
11
6.68287
21
-4.30368
0
LINE
8
BLACK
6
CONTINUOUS
10
6.68287
20
-4.28793
11
6.66713
21
-4.30368
0
LINE
8
BLACK
6
CONTINUOUS
10
6.66783
20
-2.72937
11
6.68358
21
-2.74512
0
LINE
8
BLACK
6
CONTINUOUS
10
6.68358
20
-2.72937
11
6.66783
21
-2.74512
0
LINE
8
BLACK
6
CONTINUOUS
10
6.66783
20
-4.57774
11
6.68358
21
-4.59348
0
LINE
8
BLACK
6
CONTINUOUS
10
6.68358
20
-4.57774
11
6.66783
21
-4.59348
0
LINE
8
BLACK
6
CONTINUOUS
10
6.67087
20
-2.2733
11
6.68661
21
-2.28905
0
LINE
8
BLACK
6
CONTINUOUS
10
6.68661
20
-2.2733
11
6.67087
21
-2.28905
0
LINE
8
BLACK
6
CONTINUOUS
10
6.67087
20
-4.12167
11
6.68661
21
-4.13742
0
LINE
8
BLACK
6
CONTINUOUS
10
6.68661
20
-4.12167
11
6.67087
21
-4.13742
0
LINE
8
BLACK
6
CONTINUOUS
10
6.67213
20
-1.74956
11
6.68787
21
-1.76531
0
LINE
8
BLACK
6
CONTINUOUS
10
6.68787
20
-1.74956
11
6.67213
21
-1.76531
0
LINE
8
BLACK
6
CONTINUOUS
10
6.67213
20
-3.59793
11
6.68787
21
-3.61368
0
LINE
8
BLACK
6
CONTINUOUS
10
6.68787
20
-3.59793
11
6.67213
21
-3.61368
0
LINE
8
BLACK
6
CONTINUOUS
10
6.67713
20
-2.68456
11
6.69287
21
-2.70031
0
LINE
8
BLACK
6
CONTINUOUS
10
6.69287
20
-2.68456
11
6.67713
21
-2.70031
0
LINE
8
BLACK
6
CONTINUOUS
10
6.67713
20
-4.53293
11
6.69287
21
-4.54868
0
LINE
8
BLACK
6
CONTINUOUS
10
6.69287
20
-4.53293
11
6.67713
21
-4.54868
0
LINE
8
BLACK
6
CONTINUOUS
10
6.69208
20
-1.80445
11
6.70783
21
-1.82019
0
LINE
8
BLACK
6
CONTINUOUS
10
6.70783
20
-1.80445
11
6.69208
21
-1.82019
0
LINE
8
BLACK
6
CONTINUOUS
10
6.69208
20
-3.65281
11
6.70783
21
-3.66856
0
LINE
8
BLACK
6
CONTINUOUS
10
6.70783
20
-3.65281
11
6.69208
21
-3.66856
0
LINE
8
BLACK
6
CONTINUOUS
10
6.69713
20
-1.38801
11
6.71287
21
-1.40375
0
LINE
8
BLACK
6
CONTINUOUS
10
6.71287
20
-1.38801
11
6.69713
21
-1.40375
0
LINE
8
BLACK
6
CONTINUOUS
10
6.69713
20
-3.11956
11
6.71287
21
-3.13531
0
LINE
8
BLACK
6
CONTINUOUS
10
6.71287
20
-3.11956
11
6.69713
21
-3.13531
0
LINE
8
BLACK
6
CONTINUOUS
10
6.69713
20
-3.23637
11
6.71287
21
-3.25212
0
LINE
8
BLACK
6
CONTINUOUS
10
6.71287
20
-3.23637
11
6.69713
21
-3.25212
0
LINE
8
BLACK
6
CONTINUOUS
10
6.69713
20
-4.96793
11
6.71287
21
-4.98368
0
LINE
8
BLACK
6
CONTINUOUS
10
6.71287
20
-4.96793
11
6.69713
21
-4.98368
0
LINE
8
BLACK
6
CONTINUOUS
10
6.71713
20
-2.68456
11
6.73287
21
-2.70031
0
LINE
8
BLACK
6
CONTINUOUS
10
6.73287
20
-2.68456
11
6.71713
21
-2.70031
0
LINE
8
BLACK
6
CONTINUOUS
10
6.71713
20
-4.53293
11
6.73287
21
-4.54868
0
LINE
8
BLACK
6
CONTINUOUS
10
6.73287
20
-4.53293
11
6.71713
21
-4.54868
0
LINE
8
BLACK
6
CONTINUOUS
10
6.72713
20
-2.12456
11
6.74287
21
-2.14031
0
LINE
8
BLACK
6
CONTINUOUS
10
6.74287
20
-2.12456
11
6.72713
21
-2.14031
0
LINE
8
BLACK
6
CONTINUOUS
10
6.72713
20
-3.97293
11
6.74287
21
-3.98868
0
LINE
8
BLACK
6
CONTINUOUS
10
6.74287
20
-3.97293
11
6.72713
21
-3.98868
0
LINE
8
BLACK
6
CONTINUOUS
10
6.74713
20
-1.38801
11
6.76287
21
-1.40375
0
LINE
8
BLACK
6
CONTINUOUS
10
6.76287
20
-1.38801
11
6.74713
21
-1.40375
0
LINE
8
BLACK
6
CONTINUOUS
10
6.74713
20
-3.11956
11
6.76287
21
-3.13531
0
LINE
8
BLACK
6
CONTINUOUS
10
6.76287
20
-3.11956
11
6.74713
21
-3.13531
0
LINE
8
BLACK
6
CONTINUOUS
10
6.74713
20
-3.23637
11
6.76287
21
-3.25212
0
LINE
8
BLACK
6
CONTINUOUS
10
6.76287
20
-3.23637
11
6.74713
21
-3.25212
0
LINE
8
BLACK
6
CONTINUOUS
10
6.74713
20
-4.96793
11
6.76287
21
-4.98368
0
LINE
8
BLACK
6
CONTINUOUS
10
6.76287
20
-4.96793
11
6.74713
21
-4.98368
0
LINE
8
BLACK
6
CONTINUOUS
10
6.76213
20
-2.63956
11
6.77787
21
-2.65531
0
LINE
8
BLACK
6
CONTINUOUS
10
6.77787
20
-2.63956
11
6.76213
21
-2.65531
0
LINE
8
BLACK
6
CONTINUOUS
10
6.76213
20
-4.48793
11
6.77787
21
-4.50368
0
LINE
8
BLACK
6
CONTINUOUS
10
6.77787
20
-4.48793
11
6.76213
21
-4.50368
0
LINE
8
BLACK
6
CONTINUOUS
10
6.76713
20
-1.73456
11
6.78287
21
-1.75031
0
LINE
8
BLACK
6
CONTINUOUS
10
6.78287
20
-1.73456
11
6.76713
21
-1.75031
0
LINE
8
BLACK
6
CONTINUOUS
10
6.76713
20
-3.58293
11
6.78287
21
-3.59868
0
LINE
8
BLACK
6
CONTINUOUS
10
6.78287
20
-3.58293
11
6.76713
21
-3.59868
0
LINE
8
BLACK
6
CONTINUOUS
10
6.77213
20
-1.98956
11
6.78787
21
-2.00531
0
LINE
8
BLACK
6
CONTINUOUS
10
6.78787
20
-1.98956
11
6.77213
21
-2.00531
0
LINE
8
BLACK
6
CONTINUOUS
10
6.77213
20
-3.83793
11
6.78787
21
-3.85368
0
LINE
8
BLACK
6
CONTINUOUS
10
6.78787
20
-3.83793
11
6.77213
21
-3.85368
0
LINE
8
BLACK
6
CONTINUOUS
10
6.79713
20
-1.38801
11
6.81287
21
-1.40375
0
LINE
8
BLACK
6
CONTINUOUS
10
6.81287
20
-1.38801
11
6.79713
21
-1.40375
0
LINE
8
BLACK
6
CONTINUOUS
10
6.79713
20
-3.11956
11
6.81287
21
-3.13531
0
LINE
8
BLACK
6
CONTINUOUS
10
6.81287
20
-3.11956
11
6.79713
21
-3.13531
0
LINE
8
BLACK
6
CONTINUOUS
10
6.79713
20
-3.23637
11
6.81287
21
-3.25212
0
LINE
8
BLACK
6
CONTINUOUS
10
6.81287
20
-3.23637
11
6.79713
21
-3.25212
0
LINE
8
BLACK
6
CONTINUOUS
10
6.79713
20
-4.96793
11
6.81287
21
-4.98368
0
LINE
8
BLACK
6
CONTINUOUS
10
6.81287
20
-4.96793
11
6.79713
21
-4.98368
0
LINE
8
BLACK
6
CONTINUOUS
10
6.81713
20
-1.79956
11
6.83287
21
-1.81531
0
LINE
8
BLACK
6
CONTINUOUS
10
6.83287
20
-1.79956
11
6.81713
21
-1.81531
0
LINE
8
BLACK
6
CONTINUOUS
10
6.81713
20
-2.60456
11
6.83287
21
-2.62031
0
LINE
8
BLACK
6
CONTINUOUS
10
6.83287
20
-2.60456
11
6.81713
21
-2.62031
0
LINE
8
BLACK
6
CONTINUOUS
10
6.81713
20
-3.64793
11
6.83287
21
-3.66368
0
LINE
8
BLACK
6
CONTINUOUS
10
6.83287
20
-3.64793
11
6.81713
21
-3.66368
0
LINE
8
BLACK
6
CONTINUOUS
10
6.81713
20
-4.45293
11
6.83287
21
-4.46868
0
LINE
8
BLACK
6
CONTINUOUS
10
6.83287
20
-4.45293
11
6.81713
21
-4.46868
0
LINE
8
BLACK
6
CONTINUOUS
10
6.84713
20
-1.38801
11
6.86287
21
-1.40375
0
LINE
8
BLACK
6
CONTINUOUS
10
6.86287
20
-1.38801
11
6.84713
21
-1.40375
0
LINE
8
BLACK
6
CONTINUOUS
10
6.84713
20
-1.86456
11
6.86287
21
-1.88031
0
LINE
8
BLACK
6
CONTINUOUS
10
6.86287
20
-1.86456
11
6.84713
21
-1.88031
0
LINE
8
BLACK
6
CONTINUOUS
10
6.84713
20
-3.23637
11
6.86287
21
-3.25212
0
LINE
8
BLACK
6
CONTINUOUS
10
6.86287
20
-3.23637
11
6.84713
21
-3.25212
0
LINE
8
BLACK
6
CONTINUOUS
10
6.84713
20
-3.71293
11
6.86287
21
-3.72868
0
LINE
8
BLACK
6
CONTINUOUS
10
6.86287
20
-3.71293
11
6.84713
21
-3.72868
0
LINE
8
BLACK
6
CONTINUOUS
10
6.89713
20
-2.63456
11
6.91287
21
-2.65031
0
LINE
8
BLACK
6
CONTINUOUS
10
6.91287
20
-2.63456
11
6.89713
21
-2.65031
0
LINE
8
BLACK
6
CONTINUOUS
10
6.89713
20
-4.48293
11
6.91287
21
-4.49868
0
LINE
8
BLACK
6
CONTINUOUS
10
6.91287
20
-4.48293
11
6.89713
21
-4.49868
0
LINE
8
BLACK
6
CONTINUOUS
10
6.97213
20
-2.07956
11
6.98787
21
-2.09531
0
LINE
8
BLACK
6
CONTINUOUS
10
6.98787
20
-2.07956
11
6.97213
21
-2.09531
0
LINE
8
BLACK
6
CONTINUOUS
10
6.97213
20
-3.92793
11
6.98787
21
-3.94368
0
LINE
8
BLACK
6
CONTINUOUS
10
6.98787
20
-3.92793
11
6.97213
21
-3.94368
0
LINE
8
BLACK
6
CONTINUOUS
10
6.9815
20
-2.18519
11
6.99724
21
-2.20094
0
LINE
8
BLACK
6
CONTINUOUS
10
6.99724
20
-2.18519
11
6.9815
21
-2.20094
0
LINE
8
BLACK
6
CONTINUOUS
10
6.9815
20
-4.03356
11
6.99724
21
-4.04931
0
LINE
8
BLACK
6
CONTINUOUS
10
6.99724
20
-4.03356
11
6.9815
21
-4.04931
0
LINE
8
BLACK
6
CONTINUOUS
10
7.00713
20
-2.03456
11
7.02287
21
-2.05031
0
LINE
8
BLACK
6
CONTINUOUS
10
7.02287
20
-2.03456
11
7.00713
21
-2.05031
0
LINE
8
BLACK
6
CONTINUOUS
10
7.00713
20
-3.88293
11
7.02287
21
-3.89868
0
LINE
8
BLACK
6
CONTINUOUS
10
7.02287
20
-3.88293
11
7.00713
21
-3.89868
0
LINE
8
BLACK
6
CONTINUOUS
10
7.02474
20
-2.16122
11
7.04049
21
-2.17696
0
LINE
8
BLACK
6
CONTINUOUS
10
7.04049
20
-2.16122
11
7.02474
21
-2.17696
0
LINE
8
BLACK
6
CONTINUOUS
10
7.02474
20
-4.00958
11
7.04049
21
-4.02533
0
LINE
8
BLACK
6
CONTINUOUS
10
7.04049
20
-4.00958
11
7.02474
21
-4.02533
0
LINE
8
BLACK
6
CONTINUOUS
10
7.02713
20
-2.10614
11
7.04287
21
-2.12188
0
LINE
8
BLACK
6
CONTINUOUS
10
7.04287
20
-2.10614
11
7.02713
21
-2.12188
0
LINE
8
BLACK
6
CONTINUOUS
10
7.02713
20
-3.9545
11
7.04287
21
-3.97025
0
LINE
8
BLACK
6
CONTINUOUS
10
7.04287
20
-3.9545
11
7.02713
21
-3.97025
0
LINE
8
BLACK
6
CONTINUOUS
10
7.03182
20
-2.21702
11
7.04757
21
-2.23277
0
LINE
8
BLACK
6
CONTINUOUS
10
7.04757
20
-2.21702
11
7.03182
21
-2.23277
0
LINE
8
BLACK
6
CONTINUOUS
10
7.03182
20
-4.06539
11
7.04757
21
-4.08114
0
LINE
8
BLACK
6
CONTINUOUS
10
7.04757
20
-4.06539
11
7.03182
21
-4.08114
0
LINE
8
BLACK
6
CONTINUOUS
10
7.03213
20
-2.27956
11
7.04787
21
-2.29531
0
LINE
8
BLACK
6
CONTINUOUS
10
7.04787
20
-2.27956
11
7.03213
21
-2.29531
0
LINE
8
BLACK
6
CONTINUOUS
10
7.03213
20
-2.33956
11
7.04787
21
-2.35531
0
LINE
8
BLACK
6
CONTINUOUS
10
7.04787
20
-2.33956
11
7.03213
21
-2.35531
0
LINE
8
BLACK
6
CONTINUOUS
10
7.03213
20
-4.12793
11
7.04787
21
-4.14368
0
LINE
8
BLACK
6
CONTINUOUS
10
7.04787
20
-4.12793
11
7.03213
21
-4.14368
0
LINE
8
BLACK
6
CONTINUOUS
10
7.03213
20
-4.18793
11
7.04787
21
-4.20368
0
LINE
8
BLACK
6
CONTINUOUS
10
7.04787
20
-4.18793
11
7.03213
21
-4.20368
0
LINE
8
BLACK
6
CONTINUOUS
10
7.03218
20
-2.39513
11
7.04792
21
-2.41088
0
LINE
8
BLACK
6
CONTINUOUS
10
7.04792
20
-2.39513
11
7.03218
21
-2.41088
0
LINE
8
BLACK
6
CONTINUOUS
10
7.03218
20
-4.2435
11
7.04792
21
-4.25925
0
LINE
8
BLACK
6
CONTINUOUS
10
7.04792
20
-4.2435
11
7.03218
21
-4.25925
0
LINE
8
BLACK
6
CONTINUOUS
10
7.03269
20
-2.45021
11
7.04844
21
-2.46596
0
LINE
8
BLACK
6
CONTINUOUS
10
7.04844
20
-2.45021
11
7.03269
21
-2.46596
0
LINE
8
BLACK
6
CONTINUOUS
10
7.03269
20
-4.29858
11
7.04844
21
-4.31432
0
LINE
8
BLACK
6
CONTINUOUS
10
7.04844
20
-4.29858
11
7.03269
21
-4.31432
0
LINE
8
BLACK
6
CONTINUOUS
10
7.0334
20
-2.56234
11
7.04915
21
-2.57808
0
LINE
8
BLACK
6
CONTINUOUS
10
7.04915
20
-2.56234
11
7.0334
21
-2.57808
0
LINE
8
BLACK
6
CONTINUOUS
10
7.0334
20
-4.4107
11
7.04915
21
-4.42645
0
LINE
8
BLACK
6
CONTINUOUS
10
7.04915
20
-4.4107
11
7.0334
21
-4.42645
0
LINE
8
BLACK
6
CONTINUOUS
10
7.03378
20
-2.50726
11
7.04953
21
-2.52301
0
LINE
8
BLACK
6
CONTINUOUS
10
7.04953
20
-2.50726
11
7.03378
21
-2.52301
0
LINE
8
BLACK
6
CONTINUOUS
10
7.03378
20
-4.35562
11
7.04953
21
-4.37137
0
LINE
8
BLACK
6
CONTINUOUS
10
7.04953
20
-4.35562
11
7.03378
21
-4.37137
0
LINE
8
BLACK
6
CONTINUOUS
10
7.03713
20
-1.97456
11
7.05287
21
-1.99031
0
LINE
8
BLACK
6
CONTINUOUS
10
7.05287
20
-1.97456
11
7.03713
21
-1.99031
0
LINE
8
BLACK
6
CONTINUOUS
10
7.03713
20
-3.82293
11
7.05287
21
-3.83868
0
LINE
8
BLACK
6
CONTINUOUS
10
7.05287
20
-3.82293
11
7.03713
21
-3.83868
0
LINE
8
BLACK
6
CONTINUOUS
10
7.25213
20
-2.59456
11
7.26787
21
-2.61031
0
LINE
8
BLACK
6
CONTINUOUS
10
7.26787
20
-2.59456
11
7.25213
21
-2.61031
0
LINE
8
BLACK
6
CONTINUOUS
10
7.25213
20
-4.44293
11
7.26787
21
-4.45868
0
LINE
8
BLACK
6
CONTINUOUS
10
7.26787
20
-4.44293
11
7.25213
21
-4.45868
0
LINE
8
BLACK
6
CONTINUOUS
10
7.29213
20
-3.10456
11
7.30787
21
-3.12031
0
LINE
8
BLACK
6
CONTINUOUS
10
7.30787
20
-3.10456
11
7.29213
21
-3.12031
0
LINE
8
BLACK
6
CONTINUOUS
10
7.29213
20
-4.95293
11
7.30787
21
-4.96868
0
LINE
8
BLACK
6
CONTINUOUS
10
7.30787
20
-4.95293
11
7.29213
21
-4.96868
0
LINE
8
BLACK
6
CONTINUOUS
10
7.31959
20
-1.94456
11
7.33533
21
-1.96031
0
LINE
8
BLACK
6
CONTINUOUS
10
7.33533
20
-1.94456
11
7.31959
21
-1.96031
0
LINE
8
BLACK
6
CONTINUOUS
10
7.31959
20
-3.79293
11
7.33533
21
-3.80868
0
LINE
8
BLACK
6
CONTINUOUS
10
7.33533
20
-3.79293
11
7.31959
21
-3.80868
0
LINE
8
BLACK
6
CONTINUOUS
10
7.32713
20
-1.99456
11
7.34287
21
-2.01031
0
LINE
8
BLACK
6
CONTINUOUS
10
7.34287
20
-1.99456
11
7.32713
21
-2.01031
0
LINE
8
BLACK
6
CONTINUOUS
10
7.32713
20
-2.04456
11
7.34287
21
-2.06031
0
LINE
8
BLACK
6
CONTINUOUS
10
7.34287
20
-2.04456
11
7.32713
21
-2.06031
0
LINE
8
BLACK
6
CONTINUOUS
10
7.32713
20
-2.09456
11
7.34287
21
-2.11031
0
LINE
8
BLACK
6
CONTINUOUS
10
7.34287
20
-2.09456
11
7.32713
21
-2.11031
0
LINE
8
BLACK
6
CONTINUOUS
10
7.32713
20
-2.14456
11
7.34287
21
-2.16031
0
LINE
8
BLACK
6
CONTINUOUS
10
7.34287
20
-2.14456
11
7.32713
21
-2.16031
0
LINE
8
BLACK
6
CONTINUOUS
10
7.32713
20
-2.19456
11
7.34287
21
-2.21031
0
LINE
8
BLACK
6
CONTINUOUS
10
7.34287
20
-2.19456
11
7.32713
21
-2.21031
0
LINE
8
BLACK
6
CONTINUOUS
10
7.32713
20
-2.24456
11
7.34287
21
-2.26031
0
LINE
8
BLACK
6
CONTINUOUS
10
7.34287
20
-2.24456
11
7.32713
21
-2.26031
0
LINE
8
BLACK
6
CONTINUOUS
10
7.32713
20
-2.29456
11
7.34287
21
-2.31031
0
LINE
8
BLACK
6
CONTINUOUS
10
7.34287
20
-2.29456
11
7.32713
21
-2.31031
0
LINE
8
BLACK
6
CONTINUOUS
10
7.32713
20
-2.34456
11
7.34287
21
-2.36031
0
LINE
8
BLACK
6
CONTINUOUS
10
7.34287
20
-2.34456
11
7.32713
21
-2.36031
0
LINE
8
BLACK
6
CONTINUOUS
10
7.32713
20
-2.39456
11
7.34287
21
-2.41031
0
LINE
8
BLACK
6
CONTINUOUS
10
7.34287
20
-2.39456
11
7.32713
21
-2.41031
0
LINE
8
BLACK
6
CONTINUOUS
10
7.32713
20
-2.44456
11
7.34287
21
-2.46031
0
LINE
8
BLACK
6
CONTINUOUS
10
7.34287
20
-2.44456
11
7.32713
21
-2.46031
0
LINE
8
BLACK
6
CONTINUOUS
10
7.32713
20
-2.49456
11
7.34287
21
-2.51031
0
LINE
8
BLACK
6
CONTINUOUS
10
7.34287
20
-2.49456
11
7.32713
21
-2.51031
0
LINE
8
BLACK
6
CONTINUOUS
10
7.32713
20
-3.84293
11
7.34287
21
-3.85868
0
LINE
8
BLACK
6
CONTINUOUS
10
7.34287
20
-3.84293
11
7.32713
21
-3.85868
0
LINE
8
BLACK
6
CONTINUOUS
10
7.32713
20
-3.89293
11
7.34287
21
-3.90868
0
LINE
8
BLACK
6
CONTINUOUS
10
7.34287
20
-3.89293
11
7.32713
21
-3.90868
0
LINE
8
BLACK
6
CONTINUOUS
10
7.32713
20
-3.94293
11
7.34287
21
-3.95868
0
LINE
8
BLACK
6
CONTINUOUS
10
7.34287
20
-3.94293
11
7.32713
21
-3.95868
0
LINE
8
BLACK
6
CONTINUOUS
10
7.32713
20
-3.99293
11
7.34287
21
-4.00868
0
LINE
8
BLACK
6
CONTINUOUS
10
7.34287
20
-3.99293
11
7.32713
21
-4.00868
0
LINE
8
BLACK
6
CONTINUOUS
10
7.32713
20
-4.04293
11
7.34287
21
-4.05868
0
LINE
8
BLACK
6
CONTINUOUS
10
7.34287
20
-4.04293
11
7.32713
21
-4.05868
0
LINE
8
BLACK
6
CONTINUOUS
10
7.32713
20
-4.09293
11
7.34287
21
-4.10868
0
LINE
8
BLACK
6
CONTINUOUS
10
7.34287
20
-4.09293
11
7.32713
21
-4.10868
0
LINE
8
BLACK
6
CONTINUOUS
10
7.32713
20
-4.14293
11
7.34287
21
-4.15868
0
LINE
8
BLACK
6
CONTINUOUS
10
7.34287
20
-4.14293
11
7.32713
21
-4.15868
0
LINE
8
BLACK
6
CONTINUOUS
10
7.32713
20
-4.19293
11
7.34287
21
-4.20868
0
LINE
8
BLACK
6
CONTINUOUS
10
7.34287
20
-4.19293
11
7.32713
21
-4.20868
0
LINE
8
BLACK
6
CONTINUOUS
10
7.32713
20
-4.24293
11
7.34287
21
-4.25868
0
LINE
8
BLACK
6
CONTINUOUS
10
7.34287
20
-4.24293
11
7.32713
21
-4.25868
0
LINE
8
BLACK
6
CONTINUOUS
10
7.32713
20
-4.29293
11
7.34287
21
-4.30868
0
LINE
8
BLACK
6
CONTINUOUS
10
7.34287
20
-4.29293
11
7.32713
21
-4.30868
0
LINE
8
BLACK
6
CONTINUOUS
10
7.32713
20
-4.34293
11
7.34287
21
-4.35868
0
LINE
8
BLACK
6
CONTINUOUS
10
7.34287
20
-4.34293
11
7.32713
21
-4.35868
0
LINE
8
BLACK
6
CONTINUOUS
10
3.82946
20
-5.14
11
3.82946
21
-5.06126
0
LINE
8
BLACK
6
CONTINUOUS
10
3.82946
20
-5.06126
11
3.8482
21
-5.06126
0
LINE
8
BLACK
6
CONTINUOUS
10
3.8482
20
-5.06126
11
3.85945
21
-5.06501
0
LINE
8
BLACK
6
CONTINUOUS
10
3.85945
20
-5.06501
11
3.86695
21
-5.07251
0
LINE
8
BLACK
6
CONTINUOUS
10
3.86695
20
-5.07251
11
3.8707
21
-5.08001
0
LINE
8
BLACK
6
CONTINUOUS
10
3.8707
20
-5.08001
11
3.87445
21
-5.09501
0
LINE
8
BLACK
6
CONTINUOUS
10
3.87445
20
-5.09501
11
3.87445
21
-5.10626
0
LINE
8
BLACK
6
CONTINUOUS
10
3.87445
20
-5.10626
11
3.8707
21
-5.12126
0
LINE
8
BLACK
6
CONTINUOUS
10
3.8707
20
-5.12126
11
3.86695
21
-5.12876
0
LINE
8
BLACK
6
CONTINUOUS
10
3.86695
20
-5.12876
11
3.85945
21
-5.13626
0
LINE
8
BLACK
6
CONTINUOUS
10
3.85945
20
-5.13626
11
3.8482
21
-5.14
0
LINE
8
BLACK
6
CONTINUOUS
10
3.8482
20
-5.14
11
3.82946
21
-5.14
0
LINE
8
BLACK
6
CONTINUOUS
10
3.9082
20
-5.14
11
3.9082
21
-5.08751
0
LINE
8
BLACK
6
CONTINUOUS
10
3.9082
20
-5.10251
11
3.91195
21
-5.09501
0
LINE
8
BLACK
6
CONTINUOUS
10
3.91195
20
-5.09501
11
3.9157
21
-5.09126
0
LINE
8
BLACK
6
CONTINUOUS
10
3.9157
20
-5.09126
11
3.92319
21
-5.08751
0
LINE
8
BLACK
6
CONTINUOUS
10
3.92319
20
-5.08751
11
3.93069
21
-5.08751
0
LINE
8
BLACK
6
CONTINUOUS
10
3.95694
20
-5.14
11
3.95694
21
-5.08751
0
LINE
8
BLACK
6
CONTINUOUS
10
3.95694
20
-5.06126
11
3.95319
21
-5.06501
0
LINE
8
BLACK
6
CONTINUOUS
10
3.95319
20
-5.06501
11
3.95694
21
-5.06876
0
LINE
8
BLACK
6
CONTINUOUS
10
3.95694
20
-5.06876
11
3.96069
21
-5.06501
0
LINE
8
BLACK
6
CONTINUOUS
10
3.96069
20
-5.06501
11
3.95694
21
-5.06126
0
LINE
8
BLACK
6
CONTINUOUS
10
3.95694
20
-5.06126
11
3.95694
21
-5.06876
0
LINE
8
BLACK
6
CONTINUOUS
10
4.00568
20
-5.14
11
3.99819
21
-5.13626
0
LINE
8
BLACK
6
CONTINUOUS
10
3.99819
20
-5.13626
11
3.99444
21
-5.12876
0
LINE
8
BLACK
6
CONTINUOUS
10
3.99444
20
-5.12876
11
3.99444
21
-5.06126
0
LINE
8
BLACK
6
CONTINUOUS
10
4.04693
20
-5.14
11
4.03943
21
-5.13626
0
LINE
8
BLACK
6
CONTINUOUS
10
4.03943
20
-5.13626
11
4.03568
21
-5.12876
0
LINE
8
BLACK
6
CONTINUOUS
10
4.03568
20
-5.12876
11
4.03568
21
-5.06126
0
LINE
8
BLACK
6
CONTINUOUS
10
4.13692
20
-5.14
11
4.13692
21
-5.06126
0
LINE
8
BLACK
6
CONTINUOUS
10
4.13692
20
-5.06126
11
4.16316
21
-5.11751
0
LINE
8
BLACK
6
CONTINUOUS
10
4.16316
20
-5.11751
11
4.18941
21
-5.06126
0
LINE
8
BLACK
6
CONTINUOUS
10
4.18941
20
-5.06126
11
4.18941
21
-5.14
0
LINE
8
BLACK
6
CONTINUOUS
10
4.26065
20
-5.14
11
4.26065
21
-5.09876
0
LINE
8
BLACK
6
CONTINUOUS
10
4.26065
20
-5.09876
11
4.2569
21
-5.09126
0
LINE
8
BLACK
6
CONTINUOUS
10
4.2569
20
-5.09126
11
4.2494
21
-5.08751
0
LINE
8
BLACK
6
CONTINUOUS
10
4.2494
20
-5.08751
11
4.23441
21
-5.08751
0
LINE
8
BLACK
6
CONTINUOUS
10
4.23441
20
-5.08751
11
4.22691
21
-5.09126
0
LINE
8
BLACK
6
CONTINUOUS
10
4.26065
20
-5.13626
11
4.25315
21
-5.14
0
LINE
8
BLACK
6
CONTINUOUS
10
4.25315
20
-5.14
11
4.23441
21
-5.14
0
LINE
8
BLACK
6
CONTINUOUS
10
4.23441
20
-5.14
11
4.22691
21
-5.13626
0
LINE
8
BLACK
6
CONTINUOUS
10
4.22691
20
-5.13626
11
4.22316
21
-5.12876
0
LINE
8
BLACK
6
CONTINUOUS
10
4.22316
20
-5.12876
11
4.22316
21
-5.12126
0
LINE
8
BLACK
6
CONTINUOUS
10
4.22316
20
-5.12126
11
4.22691
21
-5.11376
0
LINE
8
BLACK
6
CONTINUOUS
10
4.22691
20
-5.11376
11
4.23441
21
-5.11001
0
LINE
8
BLACK
6
CONTINUOUS
10
4.23441
20
-5.11001
11
4.25315
21
-5.11001
0
LINE
8
BLACK
6
CONTINUOUS
10
4.25315
20
-5.11001
11
4.26065
21
-5.10626
0
LINE
8
BLACK
6
CONTINUOUS
10
4.29815
20
-5.08751
11
4.29815
21
-5.16625
0
LINE
8
BLACK
6
CONTINUOUS
10
4.29815
20
-5.09126
11
4.30565
21
-5.08751
0
LINE
8
BLACK
6
CONTINUOUS
10
4.30565
20
-5.08751
11
4.32064
21
-5.08751
0
LINE
8
BLACK
6
CONTINUOUS
10
4.32064
20
-5.08751
11
4.32814
21
-5.09126
0
LINE
8
BLACK
6
CONTINUOUS
10
4.32814
20
-5.09126
11
4.33189
21
-5.09501
0
LINE
8
BLACK
6
CONTINUOUS
10
4.33189
20
-5.09501
11
4.33564
21
-5.10251
0
LINE
8
BLACK
6
CONTINUOUS
10
4.33564
20
-5.10251
11
4.33564
21
-5.12501
0
LINE
8
BLACK
6
CONTINUOUS
10
4.33564
20
-5.12501
11
4.33189
21
-5.13251
0
LINE
8
BLACK
6
CONTINUOUS
10
4.33189
20
-5.13251
11
4.32814
21
-5.13626
0
LINE
8
BLACK
6
CONTINUOUS
10
4.32814
20
-5.13626
11
4.32064
21
-5.14
0
LINE
8
BLACK
6
CONTINUOUS
10
4.32064
20
-5.14
11
4.30565
21
-5.14
0
LINE
8
BLACK
6
CONTINUOUS
10
4.30565
20
-5.14
11
4.29815
21
-5.13626
0
LINE
8
BLACK
6
CONTINUOUS
10
4.36939
20
-5.13251
11
4.37314
21
-5.13626
0
LINE
8
BLACK
6
CONTINUOUS
10
4.37314
20
-5.13626
11
4.36939
21
-5.14
0
LINE
8
BLACK
6
CONTINUOUS
10
4.36939
20
-5.14
11
4.36564
21
-5.13626
0
LINE
8
BLACK
6
CONTINUOUS
10
4.36564
20
-5.13626
11
4.36939
21
-5.13251
0
LINE
8
BLACK
6
CONTINUOUS
10
4.36939
20
-5.13251
11
4.36939
21
-5.14
0
LINE
8
BLACK
6
CONTINUOUS
10
4.36939
20
-5.09126
11
4.37314
21
-5.09501
0
LINE
8
BLACK
6
CONTINUOUS
10
4.37314
20
-5.09501
11
4.36939
21
-5.09876
0
LINE
8
BLACK
6
CONTINUOUS
10
4.36939
20
-5.09876
11
4.36564
21
-5.09501
0
LINE
8
BLACK
6
CONTINUOUS
10
4.36564
20
-5.09501
11
4.36939
21
-5.09126
0
LINE
8
BLACK
6
CONTINUOUS
10
4.36939
20
-5.09126
11
4.36939
21
-5.09876
0
LINE
8
BLACK
6
CONTINUOUS
10
3.71228
20
-5.26186
11
3.72803
21
-5.27761
0
LINE
8
BLACK
6
CONTINUOUS
10
3.72803
20
-5.26186
11
3.71228
21
-5.27761
0
LINE
8
BLACK
6
CONTINUOUS
10
3.84445
20
-5.22662
11
3.85195
21
-5.22662
0
LINE
8
BLACK
6
CONTINUOUS
10
3.85195
20
-5.22662
11
3.85945
21
-5.23037
0
LINE
8
BLACK
6
CONTINUOUS
10
3.85945
20
-5.23037
11
3.8632
21
-5.23412
0
LINE
8
BLACK
6
CONTINUOUS
10
3.8632
20
-5.23412
11
3.86695
21
-5.24162
0
LINE
8
BLACK
6
CONTINUOUS
10
3.86695
20
-5.24162
11
3.8707
21
-5.25662
0
LINE
8
BLACK
6
CONTINUOUS
10
3.8707
20
-5.25662
11
3.8707
21
-5.27536
0
LINE
8
BLACK
6
CONTINUOUS
10
3.8707
20
-5.27536
11
3.86695
21
-5.29036
0
LINE
8
BLACK
6
CONTINUOUS
10
3.86695
20
-5.29036
11
3.8632
21
-5.29786
0
LINE
8
BLACK
6
CONTINUOUS
10
3.8632
20
-5.29786
11
3.85945
21
-5.30161
0
LINE
8
BLACK
6
CONTINUOUS
10
3.85945
20
-5.30161
11
3.85195
21
-5.30536
0
LINE
8
BLACK
6
CONTINUOUS
10
3.85195
20
-5.30536
11
3.84445
21
-5.30536
0
LINE
8
BLACK
6
CONTINUOUS
10
3.84445
20
-5.30536
11
3.83696
21
-5.30161
0
LINE
8
BLACK
6
CONTINUOUS
10
3.83696
20
-5.30161
11
3.83321
21
-5.29786
0
LINE
8
BLACK
6
CONTINUOUS
10
3.83321
20
-5.29786
11
3.82946
21
-5.29036
0
LINE
8
BLACK
6
CONTINUOUS
10
3.82946
20
-5.29036
11
3.82571
21
-5.27536
0
LINE
8
BLACK
6
CONTINUOUS
10
3.82571
20
-5.27536
11
3.82571
21
-5.25662
0
LINE
8
BLACK
6
CONTINUOUS
10
3.82571
20
-5.25662
11
3.82946
21
-5.24162
0
LINE
8
BLACK
6
CONTINUOUS
10
3.82946
20
-5.24162
11
3.83321
21
-5.23412
0
LINE
8
BLACK
6
CONTINUOUS
10
3.83321
20
-5.23412
11
3.83696
21
-5.23037
0
LINE
8
BLACK
6
CONTINUOUS
10
3.83696
20
-5.23037
11
3.84445
21
-5.22662
0
LINE
8
BLACK
6
CONTINUOUS
10
3.90445
20
-5.29786
11
3.9082
21
-5.30161
0
LINE
8
BLACK
6
CONTINUOUS
10
3.9082
20
-5.30161
11
3.90445
21
-5.30536
0
LINE
8
BLACK
6
CONTINUOUS
10
3.90445
20
-5.30536
11
3.9007
21
-5.30161
0
LINE
8
BLACK
6
CONTINUOUS
10
3.9007
20
-5.30161
11
3.90445
21
-5.29786
0
LINE
8
BLACK
6
CONTINUOUS
10
3.90445
20
-5.29786
11
3.90445
21
-5.30536
0
LINE
8
BLACK
6
CONTINUOUS
10
3.97569
20
-5.25287
11
3.97569
21
-5.30536
0
LINE
8
BLACK
6
CONTINUOUS
10
3.95694
20
-5.22287
11
3.93819
21
-5.27911
0
LINE
8
BLACK
6
CONTINUOUS
10
3.93819
20
-5.27911
11
3.98694
21
-5.27911
0
LINE
8
BLACK
6
CONTINUOUS
10
4.03193
20
-5.22662
11
4.03943
21
-5.22662
0
LINE
8
BLACK
6
CONTINUOUS
10
4.03943
20
-5.22662
11
4.04693
21
-5.23037
0
LINE
8
BLACK
6
CONTINUOUS
10
4.04693
20
-5.23037
11
4.05068
21
-5.23412
0
LINE
8
BLACK
6
CONTINUOUS
10
4.05068
20
-5.23412
11
4.05443
21
-5.24162
0
LINE
8
BLACK
6
CONTINUOUS
10
4.05443
20
-5.24162
11
4.05818
21
-5.25662
0
LINE
8
BLACK
6
CONTINUOUS
10
4.05818
20
-5.25662
11
4.05818
21
-5.27536
0
LINE
8
BLACK
6
CONTINUOUS
10
4.05818
20
-5.27536
11
4.05443
21
-5.29036
0
LINE
8
BLACK
6
CONTINUOUS
10
4.05443
20
-5.29036
11
4.05068
21
-5.29786
0
LINE
8
BLACK
6
CONTINUOUS
10
4.05068
20
-5.29786
11
4.04693
21
-5.30161
0
LINE
8
BLACK
6
CONTINUOUS
10
4.04693
20
-5.30161
11
4.03943
21
-5.30536
0
LINE
8
BLACK
6
CONTINUOUS
10
4.03943
20
-5.30536
11
4.03193
21
-5.30536
0
LINE
8
BLACK
6
CONTINUOUS
10
4.03193
20
-5.30536
11
4.02443
21
-5.30161
0
LINE
8
BLACK
6
CONTINUOUS
10
4.02443
20
-5.30161
11
4.02068
21
-5.29786
0
LINE
8
BLACK
6
CONTINUOUS
10
4.02068
20
-5.29786
11
4.01693
21
-5.29036
0
LINE
8
BLACK
6
CONTINUOUS
10
4.01693
20
-5.29036
11
4.01318
21
-5.27536
0
LINE
8
BLACK
6
CONTINUOUS
10
4.01318
20
-5.27536
11
4.01318
21
-5.25662
0
LINE
8
BLACK
6
CONTINUOUS
10
4.01318
20
-5.25662
11
4.01693
21
-5.24162
0
LINE
8
BLACK
6
CONTINUOUS
10
4.01693
20
-5.24162
11
4.02068
21
-5.23412
0
LINE
8
BLACK
6
CONTINUOUS
10
4.02068
20
-5.23412
11
4.02443
21
-5.23037
0
LINE
8
BLACK
6
CONTINUOUS
10
4.02443
20
-5.23037
11
4.03193
21
-5.22662
0
LINE
8
BLACK
6
CONTINUOUS
10
4.10692
20
-5.22662
11
4.11442
21
-5.22662
0
LINE
8
BLACK
6
CONTINUOUS
10
4.11442
20
-5.22662
11
4.12192
21
-5.23037
0
LINE
8
BLACK
6
CONTINUOUS
10
4.12192
20
-5.23037
11
4.12567
21
-5.23412
0
LINE
8
BLACK
6
CONTINUOUS
10
4.12567
20
-5.23412
11
4.12942
21
-5.24162
0
LINE
8
BLACK
6
CONTINUOUS
10
4.12942
20
-5.24162
11
4.13317
21
-5.25662
0
LINE
8
BLACK
6
CONTINUOUS
10
4.13317
20
-5.25662
11
4.13317
21
-5.27536
0
LINE
8
BLACK
6
CONTINUOUS
10
4.13317
20
-5.27536
11
4.12942
21
-5.29036
0
LINE
8
BLACK
6
CONTINUOUS
10
4.12942
20
-5.29036
11
4.12567
21
-5.29786
0
LINE
8
BLACK
6
CONTINUOUS
10
4.12567
20
-5.29786
11
4.12192
21
-5.30161
0
LINE
8
BLACK
6
CONTINUOUS
10
4.12192
20
-5.30161
11
4.11442
21
-5.30536
0
LINE
8
BLACK
6
CONTINUOUS
10
4.11442
20
-5.30536
11
4.10692
21
-5.30536
0
LINE
8
BLACK
6
CONTINUOUS
10
4.10692
20
-5.30536
11
4.09942
21
-5.30161
0
LINE
8
BLACK
6
CONTINUOUS
10
4.09942
20
-5.30161
11
4.09567
21
-5.29786
0
LINE
8
BLACK
6
CONTINUOUS
10
4.09567
20
-5.29786
11
4.09192
21
-5.29036
0
LINE
8
BLACK
6
CONTINUOUS
10
4.09192
20
-5.29036
11
4.08817
21
-5.27536
0
LINE
8
BLACK
6
CONTINUOUS
10
4.08817
20
-5.27536
11
4.08817
21
-5.25662
0
LINE
8
BLACK
6
CONTINUOUS
10
4.08817
20
-5.25662
11
4.09192
21
-5.24162
0
LINE
8
BLACK
6
CONTINUOUS
10
4.09192
20
-5.24162
11
4.09567
21
-5.23412
0
LINE
8
BLACK
6
CONTINUOUS
10
4.09567
20
-5.23412
11
4.09942
21
-5.23037
0
LINE
8
BLACK
6
CONTINUOUS
10
4.09942
20
-5.23037
11
4.10692
21
-5.22662
0
LINE
8
BLACK
6
CONTINUOUS
10
4.16691
20
-5.30536
11
4.16691
21
-5.25287
0
LINE
8
BLACK
6
CONTINUOUS
10
4.16691
20
-5.26036
11
4.17066
21
-5.25662
0
LINE
8
BLACK
6
CONTINUOUS
10
4.17066
20
-5.25662
11
4.17816
21
-5.25287
0
LINE
8
BLACK
6
CONTINUOUS
10
4.17816
20
-5.25287
11
4.18941
21
-5.25287
0
LINE
8
BLACK
6
CONTINUOUS
10
4.18941
20
-5.25287
11
4.19691
21
-5.25662
0
LINE
8
BLACK
6
CONTINUOUS
10
4.19691
20
-5.25662
11
4.20066
21
-5.26411
0
LINE
8
BLACK
6
CONTINUOUS
10
4.20066
20
-5.26411
11
4.20066
21
-5.30536
0
LINE
8
BLACK
6
CONTINUOUS
10
4.20066
20
-5.26411
11
4.20441
21
-5.25662
0
LINE
8
BLACK
6
CONTINUOUS
10
4.20441
20
-5.25662
11
4.21191
21
-5.25287
0
LINE
8
BLACK
6
CONTINUOUS
10
4.21191
20
-5.25287
11
4.22316
21
-5.25287
0
LINE
8
BLACK
6
CONTINUOUS
10
4.22316
20
-5.25287
11
4.23066
21
-5.25662
0
LINE
8
BLACK
6
CONTINUOUS
10
4.23066
20
-5.25662
11
4.23441
21
-5.26411
0
LINE
8
BLACK
6
CONTINUOUS
10
4.23441
20
-5.26411
11
4.23441
21
-5.30536
0
LINE
8
BLACK
6
CONTINUOUS
10
4.2719
20
-5.30536
11
4.2719
21
-5.25287
0
LINE
8
BLACK
6
CONTINUOUS
10
4.2719
20
-5.26036
11
4.27565
21
-5.25662
0
LINE
8
BLACK
6
CONTINUOUS
10
4.27565
20
-5.25662
11
4.28315
21
-5.25287
0
LINE
8
BLACK
6
CONTINUOUS
10
4.28315
20
-5.25287
11
4.2944
21
-5.25287
0
LINE
8
BLACK
6
CONTINUOUS
10
4.2944
20
-5.25287
11
4.3019
21
-5.25662
0
LINE
8
BLACK
6
CONTINUOUS
10
4.3019
20
-5.25662
11
4.30565
21
-5.26411
0
LINE
8
BLACK
6
CONTINUOUS
10
4.30565
20
-5.26411
11
4.30565
21
-5.30536
0
LINE
8
BLACK
6
CONTINUOUS
10
4.30565
20
-5.26411
11
4.3094
21
-5.25662
0
LINE
8
BLACK
6
CONTINUOUS
10
4.3094
20
-5.25662
11
4.3169
21
-5.25287
0
LINE
8
BLACK
6
CONTINUOUS
10
4.3169
20
-5.25287
11
4.32814
21
-5.25287
0
LINE
8
BLACK
6
CONTINUOUS
10
4.32814
20
-5.25287
11
4.33564
21
-5.25662
0
LINE
8
BLACK
6
CONTINUOUS
10
4.33564
20
-5.25662
11
4.33939
21
-5.26411
0
LINE
8
BLACK
6
CONTINUOUS
10
4.33939
20
-5.26411
11
4.33939
21
-5.30536
0
LINE
8
BLACK
6
CONTINUOUS
10
4.49312
20
-5.22287
11
4.42563
21
-5.32411
0
LINE
8
BLACK
6
CONTINUOUS
10
4.59436
20
-5.22662
11
4.60186
21
-5.22662
0
LINE
8
BLACK
6
CONTINUOUS
10
4.60186
20
-5.22662
11
4.60936
21
-5.23037
0
LINE
8
BLACK
6
CONTINUOUS
10
4.60936
20
-5.23037
11
4.61311
21
-5.23412
0
LINE
8
BLACK
6
CONTINUOUS
10
4.61311
20
-5.23412
11
4.61686
21
-5.24162
0
LINE
8
BLACK
6
CONTINUOUS
10
4.61686
20
-5.24162
11
4.62061
21
-5.25662
0
LINE
8
BLACK
6
CONTINUOUS
10
4.62061
20
-5.25662
11
4.62061
21
-5.27536
0
LINE
8
BLACK
6
CONTINUOUS
10
4.62061
20
-5.27536
11
4.61686
21
-5.29036
0
LINE
8
BLACK
6
CONTINUOUS
10
4.61686
20
-5.29036
11
4.61311
21
-5.29786
0
LINE
8
BLACK
6
CONTINUOUS
10
4.61311
20
-5.29786
11
4.60936
21
-5.30161
0
LINE
8
BLACK
6
CONTINUOUS
10
4.60936
20
-5.30161
11
4.60186
21
-5.30536
0
LINE
8
BLACK
6
CONTINUOUS
10
4.60186
20
-5.30536
11
4.59436
21
-5.30536
0
LINE
8
BLACK
6
CONTINUOUS
10
4.59436
20
-5.30536
11
4.58686
21
-5.30161
0
LINE
8
BLACK
6
CONTINUOUS
10
4.58686
20
-5.30161
11
4.58311
21
-5.29786
0
LINE
8
BLACK
6
CONTINUOUS
10
4.58311
20
-5.29786
11
4.57936
21
-5.29036
0
LINE
8
BLACK
6
CONTINUOUS
10
4.57936
20
-5.29036
11
4.57561
21
-5.27536
0
LINE
8
BLACK
6
CONTINUOUS
10
4.57561
20
-5.27536
11
4.57561
21
-5.25662
0
LINE
8
BLACK
6
CONTINUOUS
10
4.57561
20
-5.25662
11
4.57936
21
-5.24162
0
LINE
8
BLACK
6
CONTINUOUS
10
4.57936
20
-5.24162
11
4.58311
21
-5.23412
0
LINE
8
BLACK
6
CONTINUOUS
10
4.58311
20
-5.23412
11
4.58686
21
-5.23037
0
LINE
8
BLACK
6
CONTINUOUS
10
4.58686
20
-5.23037
11
4.59436
21
-5.22662
0
LINE
8
BLACK
6
CONTINUOUS
10
4.65435
20
-5.29786
11
4.6581
21
-5.30161
0
LINE
8
BLACK
6
CONTINUOUS
10
4.6581
20
-5.30161
11
4.65435
21
-5.30536
0
LINE
8
BLACK
6
CONTINUOUS
10
4.65435
20
-5.30536
11
4.6506
21
-5.30161
0
LINE
8
BLACK
6
CONTINUOUS
10
4.6506
20
-5.30161
11
4.65435
21
-5.29786
0
LINE
8
BLACK
6
CONTINUOUS
10
4.65435
20
-5.29786
11
4.65435
21
-5.30536
0
LINE
8
BLACK
6
CONTINUOUS
10
4.70685
20
-5.22662
11
4.71435
21
-5.22662
0
LINE
8
BLACK
6
CONTINUOUS
10
4.71435
20
-5.22662
11
4.72184
21
-5.23037
0
LINE
8
BLACK
6
CONTINUOUS
10
4.72184
20
-5.23037
11
4.72559
21
-5.23412
0
LINE
8
BLACK
6
CONTINUOUS
10
4.72559
20
-5.23412
11
4.72934
21
-5.24162
0
LINE
8
BLACK
6
CONTINUOUS
10
4.72934
20
-5.24162
11
4.73309
21
-5.25662
0
LINE
8
BLACK
6
CONTINUOUS
10
4.73309
20
-5.25662
11
4.73309
21
-5.27536
0
LINE
8
BLACK
6
CONTINUOUS
10
4.73309
20
-5.27536
11
4.72934
21
-5.29036
0
LINE
8
BLACK
6
CONTINUOUS
10
4.72934
20
-5.29036
11
4.72559
21
-5.29786
0
LINE
8
BLACK
6
CONTINUOUS
10
4.72559
20
-5.29786
11
4.72184
21
-5.30161
0
LINE
8
BLACK
6
CONTINUOUS
10
4.72184
20
-5.30161
11
4.71435
21
-5.30536
0
LINE
8
BLACK
6
CONTINUOUS
10
4.71435
20
-5.30536
11
4.70685
21
-5.30536
0
LINE
8
BLACK
6
CONTINUOUS
10
4.70685
20
-5.30536
11
4.69935
21
-5.30161
0
LINE
8
BLACK
6
CONTINUOUS
10
4.69935
20
-5.30161
11
4.6956
21
-5.29786
0
LINE
8
BLACK
6
CONTINUOUS
10
4.6956
20
-5.29786
11
4.69185
21
-5.29036
0
LINE
8
BLACK
6
CONTINUOUS
10
4.69185
20
-5.29036
11
4.6881
21
-5.27536
0
LINE
8
BLACK
6
CONTINUOUS
10
4.6881
20
-5.27536
11
4.6881
21
-5.25662
0
LINE
8
BLACK
6
CONTINUOUS
10
4.6881
20
-5.25662
11
4.69185
21
-5.24162
0
LINE
8
BLACK
6
CONTINUOUS
10
4.69185
20
-5.24162
11
4.6956
21
-5.23412
0
LINE
8
BLACK
6
CONTINUOUS
10
4.6956
20
-5.23412
11
4.69935
21
-5.23037
0
LINE
8
BLACK
6
CONTINUOUS
10
4.69935
20
-5.23037
11
4.70685
21
-5.22662
0
LINE
8
BLACK
6
CONTINUOUS
10
4.80808
20
-5.30536
11
4.76309
21
-5.30536
0
LINE
8
BLACK
6
CONTINUOUS
10
4.78559
20
-5.30536
11
4.78559
21
-5.22662
0
LINE
8
BLACK
6
CONTINUOUS
10
4.78559
20
-5.22662
11
4.77809
21
-5.23787
0
LINE
8
BLACK
6
CONTINUOUS
10
4.77809
20
-5.23787
11
4.77059
21
-5.24537
0
LINE
8
BLACK
6
CONTINUOUS
10
4.77059
20
-5.24537
11
4.76309
21
-5.24912
0
LINE
8
BLACK
6
CONTINUOUS
10
4.87933
20
-5.22662
11
4.84183
21
-5.22662
0
LINE
8
BLACK
6
CONTINUOUS
10
4.84183
20
-5.22662
11
4.83808
21
-5.26411
0
LINE
8
BLACK
6
CONTINUOUS
10
4.83808
20
-5.26411
11
4.84183
21
-5.26036
0
LINE
8
BLACK
6
CONTINUOUS
10
4.84183
20
-5.26036
11
4.84933
21
-5.25662
0
LINE
8
BLACK
6
CONTINUOUS
10
4.84933
20
-5.25662
11
4.86808
21
-5.25662
0
LINE
8
BLACK
6
CONTINUOUS
10
4.86808
20
-5.25662
11
4.87558
21
-5.26036
0
LINE
8
BLACK
6
CONTINUOUS
10
4.87558
20
-5.26036
11
4.87933
21
-5.26411
0
LINE
8
BLACK
6
CONTINUOUS
10
4.87933
20
-5.26411
11
4.88307
21
-5.27161
0
LINE
8
BLACK
6
CONTINUOUS
10
4.88307
20
-5.27161
11
4.88307
21
-5.29036
0
LINE
8
BLACK
6
CONTINUOUS
10
4.88307
20
-5.29036
11
4.87933
21
-5.29786
0
LINE
8
BLACK
6
CONTINUOUS
10
4.87933
20
-5.29786
11
4.87558
21
-5.30161
0
LINE
8
BLACK
6
CONTINUOUS
10
4.87558
20
-5.30161
11
4.86808
21
-5.30536
0
LINE
8
BLACK
6
CONTINUOUS
10
4.86808
20
-5.30536
11
4.84933
21
-5.30536
0
LINE
8
BLACK
6
CONTINUOUS
10
4.84933
20
-5.30536
11
4.84183
21
-5.30161
0
LINE
8
BLACK
6
CONTINUOUS
10
4.84183
20
-5.30161
11
4.83808
21
-5.29786
0
LINE
8
BLACK
6
CONTINUOUS
10
4.90932
20
-5.22662
11
4.96181
21
-5.22662
0
LINE
8
BLACK
6
CONTINUOUS
10
4.96181
20
-5.22662
11
4.92807
21
-5.30536
0
LINE
8
BLACK
6
CONTINUOUS
10
4.98806
20
-5.22662
11
4.98806
21
-5.24162
0
LINE
8
BLACK
6
CONTINUOUS
10
5.01806
20
-5.22662
11
5.01806
21
-5.24162
0
LINE
8
BLACK
6
CONTINUOUS
10
5.13429
20
-5.33536
11
5.13054
21
-5.33161
0
LINE
8
BLACK
6
CONTINUOUS
10
5.13054
20
-5.33161
11
5.12304
21
-5.32036
0
LINE
8
BLACK
6
CONTINUOUS
10
5.12304
20
-5.32036
11
5.1193
21
-5.31286
0
LINE
8
BLACK
6
CONTINUOUS
10
5.1193
20
-5.31286
11
5.11555
21
-5.30161
0
LINE
8
BLACK
6
CONTINUOUS
10
5.11555
20
-5.30161
11
5.1118
21
-5.28286
0
LINE
8
BLACK
6
CONTINUOUS
10
5.1118
20
-5.28286
11
5.1118
21
-5.26786
0
LINE
8
BLACK
6
CONTINUOUS
10
5.1118
20
-5.26786
11
5.11555
21
-5.24912
0
LINE
8
BLACK
6
CONTINUOUS
10
5.11555
20
-5.24912
11
5.1193
21
-5.23787
0
LINE
8
BLACK
6
CONTINUOUS
10
5.1193
20
-5.23787
11
5.12304
21
-5.23037
0
LINE
8
BLACK
6
CONTINUOUS
10
5.12304
20
-5.23037
11
5.13054
21
-5.21912
0
LINE
8
BLACK
6
CONTINUOUS
10
5.13054
20
-5.21912
11
5.13429
21
-5.21537
0
LINE
8
BLACK
6
CONTINUOUS
10
5.19804
20
-5.25287
11
5.19804
21
-5.30536
0
LINE
8
BLACK
6
CONTINUOUS
10
5.17929
20
-5.22287
11
5.16054
21
-5.27911
0
LINE
8
BLACK
6
CONTINUOUS
10
5.16054
20
-5.27911
11
5.20928
21
-5.27911
0
LINE
8
BLACK
6
CONTINUOUS
10
5.25053
20
-5.26036
11
5.24303
21
-5.25662
0
LINE
8
BLACK
6
CONTINUOUS
10
5.24303
20
-5.25662
11
5.23928
21
-5.25287
0
LINE
8
BLACK
6
CONTINUOUS
10
5.23928
20
-5.25287
11
5.23553
21
-5.24537
0
LINE
8
BLACK
6
CONTINUOUS
10
5.23553
20
-5.24537
11
5.23553
21
-5.24162
0
LINE
8
BLACK
6
CONTINUOUS
10
5.23553
20
-5.24162
11
5.23928
21
-5.23412
0
LINE
8
BLACK
6
CONTINUOUS
10
5.23928
20
-5.23412
11
5.24303
21
-5.23037
0
LINE
8
BLACK
6
CONTINUOUS
10
5.24303
20
-5.23037
11
5.25053
21
-5.22662
0
LINE
8
BLACK
6
CONTINUOUS
10
5.25053
20
-5.22662
11
5.26553
21
-5.22662
0
LINE
8
BLACK
6
CONTINUOUS
10
5.26553
20
-5.22662
11
5.27303
21
-5.23037
0
LINE
8
BLACK
6
CONTINUOUS
10
5.27303
20
-5.23037
11
5.27678
21
-5.23412
0
LINE
8
BLACK
6
CONTINUOUS
10
5.27678
20
-5.23412
11
5.28052
21
-5.24162
0
LINE
8
BLACK
6
CONTINUOUS
10
5.28052
20
-5.24162
11
5.28052
21
-5.24537
0
LINE
8
BLACK
6
CONTINUOUS
10
5.28052
20
-5.24537
11
5.27678
21
-5.25287
0
LINE
8
BLACK
6
CONTINUOUS
10
5.27678
20
-5.25287
11
5.27303
21
-5.25662
0
LINE
8
BLACK
6
CONTINUOUS
10
5.27303
20
-5.25662
11
5.26553
21
-5.26036
0
LINE
8
BLACK
6
CONTINUOUS
10
5.26553
20
-5.26036
11
5.25053
21
-5.26036
0
LINE
8
BLACK
6
CONTINUOUS
10
5.25053
20
-5.26036
11
5.24303
21
-5.26411
0
LINE
8
BLACK
6
CONTINUOUS
10
5.24303
20
-5.26411
11
5.23928
21
-5.26786
0
LINE
8
BLACK
6
CONTINUOUS
10
5.23928
20
-5.26786
11
5.23553
21
-5.27536
0
LINE
8
BLACK
6
CONTINUOUS
10
5.23553
20
-5.27536
11
5.23553
21
-5.29036
0
LINE
8
BLACK
6
CONTINUOUS
10
5.23553
20
-5.29036
11
5.23928
21
-5.29786
0
LINE
8
BLACK
6
CONTINUOUS
10
5.23928
20
-5.29786
11
5.24303
21
-5.30161
0
LINE
8
BLACK
6
CONTINUOUS
10
5.24303
20
-5.30161
11
5.25053
21
-5.30536
0
LINE
8
BLACK
6
CONTINUOUS
10
5.25053
20
-5.30536
11
5.26553
21
-5.30536
0
LINE
8
BLACK
6
CONTINUOUS
10
5.26553
20
-5.30536
11
5.27303
21
-5.30161
0
LINE
8
BLACK
6
CONTINUOUS
10
5.27303
20
-5.30161
11
5.27678
21
-5.29786
0
LINE
8
BLACK
6
CONTINUOUS
10
5.27678
20
-5.29786
11
5.28052
21
-5.29036
0
LINE
8
BLACK
6
CONTINUOUS
10
5.28052
20
-5.29036
11
5.28052
21
-5.27536
0
LINE
8
BLACK
6
CONTINUOUS
10
5.28052
20
-5.27536
11
5.27678
21
-5.26786
0
LINE
8
BLACK
6
CONTINUOUS
10
5.27678
20
-5.26786
11
5.27303
21
-5.26411
0
LINE
8
BLACK
6
CONTINUOUS
10
5.27303
20
-5.26411
11
5.26553
21
-5.26036
0
LINE
8
BLACK
6
CONTINUOUS
10
5.34802
20
-5.25287
11
5.34802
21
-5.30536
0
LINE
8
BLACK
6
CONTINUOUS
10
5.32927
20
-5.22287
11
5.31052
21
-5.27911
0
LINE
8
BLACK
6
CONTINUOUS
10
5.31052
20
-5.27911
11
5.35927
21
-5.27911
0
LINE
8
BLACK
6
CONTINUOUS
10
5.44925
20
-5.30536
11
5.44925
21
-5.22662
0
LINE
8
BLACK
6
CONTINUOUS
10
5.483
20
-5.30536
11
5.483
21
-5.26411
0
LINE
8
BLACK
6
CONTINUOUS
10
5.483
20
-5.26411
11
5.47925
21
-5.25662
0
LINE
8
BLACK
6
CONTINUOUS
10
5.47925
20
-5.25662
11
5.47175
21
-5.25287
0
LINE
8
BLACK
6
CONTINUOUS
10
5.47175
20
-5.25287
11
5.4605
21
-5.25287
0
LINE
8
BLACK
6
CONTINUOUS
10
5.4605
20
-5.25287
11
5.453
21
-5.25662
0
LINE
8
BLACK
6
CONTINUOUS
10
5.453
20
-5.25662
11
5.44925
21
-5.26036
0
LINE
8
BLACK
6
CONTINUOUS
10
5.53174
20
-5.30536
11
5.52424
21
-5.30161
0
LINE
8
BLACK
6
CONTINUOUS
10
5.52424
20
-5.30161
11
5.52049
21
-5.29786
0
LINE
8
BLACK
6
CONTINUOUS
10
5.52049
20
-5.29786
11
5.51675
21
-5.29036
0
LINE
8
BLACK
6
CONTINUOUS
10
5.51675
20
-5.29036
11
5.51675
21
-5.26786
0
LINE
8
BLACK
6
CONTINUOUS
10
5.51675
20
-5.26786
11
5.52049
21
-5.26036
0
LINE
8
BLACK
6
CONTINUOUS
10
5.52049
20
-5.26036
11
5.52424
21
-5.25662
0
LINE
8
BLACK
6
CONTINUOUS
10
5.52424
20
-5.25662
11
5.53174
21
-5.25287
0
LINE
8
BLACK
6
CONTINUOUS
10
5.53174
20
-5.25287
11
5.54299
21
-5.25287
0
LINE
8
BLACK
6
CONTINUOUS
10
5.54299
20
-5.25287
11
5.55049
21
-5.25662
0
LINE
8
BLACK
6
CONTINUOUS
10
5.55049
20
-5.25662
11
5.55424
21
-5.26036
0
LINE
8
BLACK
6
CONTINUOUS
10
5.55424
20
-5.26036
11
5.55799
21
-5.26786
0
LINE
8
BLACK
6
CONTINUOUS
10
5.55799
20
-5.26786
11
5.55799
21
-5.29036
0
LINE
8
BLACK
6
CONTINUOUS
10
5.55799
20
-5.29036
11
5.55424
21
-5.29786
0
LINE
8
BLACK
6
CONTINUOUS
10
5.55424
20
-5.29786
11
5.55049
21
-5.30161
0
LINE
8
BLACK
6
CONTINUOUS
10
5.55049
20
-5.30161
11
5.54299
21
-5.30536
0
LINE
8
BLACK
6
CONTINUOUS
10
5.54299
20
-5.30536
11
5.53174
21
-5.30536
0
LINE
8
BLACK
6
CONTINUOUS
10
5.60298
20
-5.30536
11
5.59549
21
-5.30161
0
LINE
8
BLACK
6
CONTINUOUS
10
5.59549
20
-5.30161
11
5.59174
21
-5.29411
0
LINE
8
BLACK
6
CONTINUOUS
10
5.59174
20
-5.29411
11
5.59174
21
-5.22662
0
LINE
8
BLACK
6
CONTINUOUS
10
5.66298
20
-5.30161
11
5.65548
21
-5.30536
0
LINE
8
BLACK
6
CONTINUOUS
10
5.65548
20
-5.30536
11
5.64048
21
-5.30536
0
LINE
8
BLACK
6
CONTINUOUS
10
5.64048
20
-5.30536
11
5.63298
21
-5.30161
0
LINE
8
BLACK
6
CONTINUOUS
10
5.63298
20
-5.30161
11
5.62923
21
-5.29411
0
LINE
8
BLACK
6
CONTINUOUS
10
5.62923
20
-5.29411
11
5.62923
21
-5.26411
0
LINE
8
BLACK
6
CONTINUOUS
10
5.62923
20
-5.26411
11
5.63298
21
-5.25662
0
LINE
8
BLACK
6
CONTINUOUS
10
5.63298
20
-5.25662
11
5.64048
21
-5.25287
0
LINE
8
BLACK
6
CONTINUOUS
10
5.64048
20
-5.25287
11
5.65548
21
-5.25287
0
LINE
8
BLACK
6
CONTINUOUS
10
5.65548
20
-5.25287
11
5.66298
21
-5.25662
0
LINE
8
BLACK
6
CONTINUOUS
10
5.66298
20
-5.25662
11
5.66673
21
-5.26411
0
LINE
8
BLACK
6
CONTINUOUS
10
5.66673
20
-5.26411
11
5.66673
21
-5.27161
0
LINE
8
BLACK
6
CONTINUOUS
10
5.66673
20
-5.27161
11
5.62923
21
-5.27911
0
LINE
8
BLACK
6
CONTINUOUS
10
5.69672
20
-5.30161
11
5.70422
21
-5.30536
0
LINE
8
BLACK
6
CONTINUOUS
10
5.70422
20
-5.30536
11
5.71922
21
-5.30536
0
LINE
8
BLACK
6
CONTINUOUS
10
5.71922
20
-5.30536
11
5.72672
21
-5.30161
0
LINE
8
BLACK
6
CONTINUOUS
10
5.72672
20
-5.30161
11
5.73047
21
-5.29411
0
LINE
8
BLACK
6
CONTINUOUS
10
5.73047
20
-5.29411
11
5.73047
21
-5.29036
0
LINE
8
BLACK
6
CONTINUOUS
10
5.73047
20
-5.29036
11
5.72672
21
-5.28286
0
LINE
8
BLACK
6
CONTINUOUS
10
5.72672
20
-5.28286
11
5.71922
21
-5.27911
0
LINE
8
BLACK
6
CONTINUOUS
10
5.71922
20
-5.27911
11
5.70797
21
-5.27911
0
LINE
8
BLACK
6
CONTINUOUS
10
5.70797
20
-5.27911
11
5.70047
21
-5.27536
0
LINE
8
BLACK
6
CONTINUOUS
10
5.70047
20
-5.27536
11
5.69672
21
-5.26786
0
LINE
8
BLACK
6
CONTINUOUS
10
5.69672
20
-5.26786
11
5.69672
21
-5.26411
0
LINE
8
BLACK
6
CONTINUOUS
10
5.69672
20
-5.26411
11
5.70047
21
-5.25662
0
LINE
8
BLACK
6
CONTINUOUS
10
5.70047
20
-5.25662
11
5.70797
21
-5.25287
0
LINE
8
BLACK
6
CONTINUOUS
10
5.70797
20
-5.25287
11
5.71922
21
-5.25287
0
LINE
8
BLACK
6
CONTINUOUS
10
5.71922
20
-5.25287
11
5.72672
21
-5.25662
0
LINE
8
BLACK
6
CONTINUOUS
10
5.75672
20
-5.33536
11
5.76046
21
-5.33161
0
LINE
8
BLACK
6
CONTINUOUS
10
5.76046
20
-5.33161
11
5.76796
21
-5.32036
0
LINE
8
BLACK
6
CONTINUOUS
10
5.76796
20
-5.32036
11
5.77171
21
-5.31286
0
LINE
8
BLACK
6
CONTINUOUS
10
5.77171
20
-5.31286
11
5.77546
21
-5.30161
0
LINE
8
BLACK
6
CONTINUOUS
10
5.77546
20
-5.30161
11
5.77921
21
-5.28286
0
LINE
8
BLACK
6
CONTINUOUS
10
5.77921
20
-5.28286
11
5.77921
21
-5.26786
0
LINE
8
BLACK
6
CONTINUOUS
10
5.77921
20
-5.26786
11
5.77546
21
-5.24912
0
LINE
8
BLACK
6
CONTINUOUS
10
5.77546
20
-5.24912
11
5.77171
21
-5.23787
0
LINE
8
BLACK
6
CONTINUOUS
10
5.77171
20
-5.23787
11
5.76796
21
-5.23037
0
LINE
8
BLACK
6
CONTINUOUS
10
5.76796
20
-5.23037
11
5.76046
21
-5.21912
0
LINE
8
BLACK
6
CONTINUOUS
10
5.76046
20
-5.21912
11
5.75672
21
-5.21537
  0
ENDSEC
  0
EOF
