%FSLAX45Y45*%
G04 Gerber Fmt 4.5, Leading zero omitted, Abs format (unit mm)*
G04 Created by KiCad (PCBNEW 5.99.0+really5.1.12+dfsg1-1~bpo11+1) date 2021-12-22 21:03:27*
%MOMM*%
%LPD*%
G01*
G04 APERTURE LIST*
%TA.AperFunction,Profile*%
%ADD10C,0.050000*%
%TD*%
%ADD11C,0.200000*%
%ADD12C,0.300000*%
G04 APERTURE END LIST*
D10*
X9232900Y-14706600D02*
X9232900Y-5181600D01*
X18757900Y-14706600D02*
X9232900Y-14706600D01*
X18757900Y-5181600D02*
X18757900Y-14706600D01*
X9232900Y-5181600D02*
X18757900Y-5181600D01*
D11*
D12*
X9516828Y-15174814D02*
X9516828Y-14874814D01*
X9588257Y-14874814D01*
X9631114Y-14889100D01*
X9659686Y-14917671D01*
X9673971Y-14946243D01*
X9688257Y-15003386D01*
X9688257Y-15046243D01*
X9673971Y-15103386D01*
X9659686Y-15131957D01*
X9631114Y-15160529D01*
X9588257Y-15174814D01*
X9516828Y-15174814D01*
X9816828Y-15174814D02*
X9816828Y-14974814D01*
X9816828Y-15031957D02*
X9831114Y-15003386D01*
X9845400Y-14989100D01*
X9873971Y-14974814D01*
X9902543Y-14974814D01*
X10002543Y-15174814D02*
X10002543Y-14974814D01*
X10002543Y-14874814D02*
X9988257Y-14889100D01*
X10002543Y-14903386D01*
X10016828Y-14889100D01*
X10002543Y-14874814D01*
X10002543Y-14903386D01*
X10188257Y-15174814D02*
X10159686Y-15160529D01*
X10145400Y-15131957D01*
X10145400Y-14874814D01*
X10345400Y-15174814D02*
X10316828Y-15160529D01*
X10302543Y-15131957D01*
X10302543Y-14874814D01*
X10688257Y-15174814D02*
X10688257Y-14874814D01*
X10788257Y-15089100D01*
X10888257Y-14874814D01*
X10888257Y-15174814D01*
X11159686Y-15174814D02*
X11159686Y-15017671D01*
X11145400Y-14989100D01*
X11116828Y-14974814D01*
X11059686Y-14974814D01*
X11031114Y-14989100D01*
X11159686Y-15160529D02*
X11131114Y-15174814D01*
X11059686Y-15174814D01*
X11031114Y-15160529D01*
X11016828Y-15131957D01*
X11016828Y-15103386D01*
X11031114Y-15074814D01*
X11059686Y-15060529D01*
X11131114Y-15060529D01*
X11159686Y-15046243D01*
X11302543Y-14974814D02*
X11302543Y-15274814D01*
X11302543Y-14989100D02*
X11331114Y-14974814D01*
X11388257Y-14974814D01*
X11416828Y-14989100D01*
X11431114Y-15003386D01*
X11445400Y-15031957D01*
X11445400Y-15117671D01*
X11431114Y-15146243D01*
X11416828Y-15160529D01*
X11388257Y-15174814D01*
X11331114Y-15174814D01*
X11302543Y-15160529D01*
X11573971Y-15146243D02*
X11588257Y-15160529D01*
X11573971Y-15174814D01*
X11559686Y-15160529D01*
X11573971Y-15146243D01*
X11573971Y-15174814D01*
X11573971Y-14989100D02*
X11588257Y-15003386D01*
X11573971Y-15017671D01*
X11559686Y-15003386D01*
X11573971Y-14989100D01*
X11573971Y-15017671D01*
M02*
