%TF.GenerationSoftware,KiCad,Pcbnew,5.99.0+really5.1.12+dfsg1-1~bpo11+1*%
%TF.CreationDate,2021-12-22T21:03:21+01:00*%
%TF.ProjectId,ConnectorCubeV2-A,436f6e6e-6563-4746-9f72-437562655632,rev?*%
%TF.SameCoordinates,Original*%
%TF.FileFunction,Soldermask,Top*%
%TF.FilePolarity,Negative*%
%FSLAX46Y46*%
G04 Gerber Fmt 4.6, Leading zero omitted, Abs format (unit mm)*
G04 Created by KiCad (PCBNEW 5.99.0+really5.1.12+dfsg1-1~bpo11+1) date 2021-12-22 21:03:21*
%MOMM*%
%LPD*%
G01*
G04 APERTURE LIST*
%ADD10C,1.700000*%
%ADD11C,1.524000*%
%ADD12O,1.700000X1.700000*%
%ADD13R,1.700000X1.700000*%
%ADD14R,0.800000X0.900000*%
%ADD15R,0.900000X0.800000*%
%ADD16R,2.000000X3.800000*%
%ADD17R,2.000000X1.500000*%
%ADD18R,2.000000X1.300000*%
%ADD19R,2.000000X2.000000*%
%ADD20R,0.450000X1.750000*%
G04 APERTURE END LIST*
%TO.C,J1203*%
G36*
G01*
X127999000Y-78736000D02*
X126599000Y-78736000D01*
G75*
G02*
X126449000Y-78586000I0J150000D01*
G01*
X126449000Y-78286000D01*
G75*
G02*
X126599000Y-78136000I150000J0D01*
G01*
X127999000Y-78136000D01*
G75*
G02*
X128149000Y-78286000I0J-150000D01*
G01*
X128149000Y-78586000D01*
G75*
G02*
X127999000Y-78736000I-150000J0D01*
G01*
G37*
G36*
G01*
X127999000Y-77486000D02*
X126599000Y-77486000D01*
G75*
G02*
X126449000Y-77336000I0J150000D01*
G01*
X126449000Y-77036000D01*
G75*
G02*
X126599000Y-76886000I150000J0D01*
G01*
X127999000Y-76886000D01*
G75*
G02*
X128149000Y-77036000I0J-150000D01*
G01*
X128149000Y-77336000D01*
G75*
G02*
X127999000Y-77486000I-150000J0D01*
G01*
G37*
G36*
G01*
X127999000Y-76236000D02*
X126599000Y-76236000D01*
G75*
G02*
X126449000Y-76086000I0J150000D01*
G01*
X126449000Y-75786000D01*
G75*
G02*
X126599000Y-75636000I150000J0D01*
G01*
X127999000Y-75636000D01*
G75*
G02*
X128149000Y-75786000I0J-150000D01*
G01*
X128149000Y-76086000D01*
G75*
G02*
X127999000Y-76236000I-150000J0D01*
G01*
G37*
G36*
G01*
X127999000Y-74986000D02*
X126599000Y-74986000D01*
G75*
G02*
X126449000Y-74836000I0J150000D01*
G01*
X126449000Y-74536000D01*
G75*
G02*
X126599000Y-74386000I150000J0D01*
G01*
X127999000Y-74386000D01*
G75*
G02*
X128149000Y-74536000I0J-150000D01*
G01*
X128149000Y-74836000D01*
G75*
G02*
X127999000Y-74986000I-150000J0D01*
G01*
G37*
G36*
G01*
X127999000Y-73736000D02*
X126599000Y-73736000D01*
G75*
G02*
X126449000Y-73586000I0J150000D01*
G01*
X126449000Y-73286000D01*
G75*
G02*
X126599000Y-73136000I150000J0D01*
G01*
X127999000Y-73136000D01*
G75*
G02*
X128149000Y-73286000I0J-150000D01*
G01*
X128149000Y-73586000D01*
G75*
G02*
X127999000Y-73736000I-150000J0D01*
G01*
G37*
G36*
G01*
X127999000Y-72486000D02*
X126599000Y-72486000D01*
G75*
G02*
X126449000Y-72336000I0J150000D01*
G01*
X126449000Y-72036000D01*
G75*
G02*
X126599000Y-71886000I150000J0D01*
G01*
X127999000Y-71886000D01*
G75*
G02*
X128149000Y-72036000I0J-150000D01*
G01*
X128149000Y-72336000D01*
G75*
G02*
X127999000Y-72486000I-150000J0D01*
G01*
G37*
G36*
G01*
X125099000Y-80786000D02*
X122799000Y-80786000D01*
G75*
G02*
X122549000Y-80536000I0J250000D01*
G01*
X122549000Y-80036000D01*
G75*
G02*
X122799000Y-79786000I250000J0D01*
G01*
X125099000Y-79786000D01*
G75*
G02*
X125349000Y-80036000I0J-250000D01*
G01*
X125349000Y-80536000D01*
G75*
G02*
X125099000Y-80786000I-250000J0D01*
G01*
G37*
G36*
G01*
X125099000Y-70836000D02*
X122799000Y-70836000D01*
G75*
G02*
X122549000Y-70586000I0J250000D01*
G01*
X122549000Y-70086000D01*
G75*
G02*
X122799000Y-69836000I250000J0D01*
G01*
X125099000Y-69836000D01*
G75*
G02*
X125349000Y-70086000I0J-250000D01*
G01*
X125349000Y-70586000D01*
G75*
G02*
X125099000Y-70836000I-250000J0D01*
G01*
G37*
%TD*%
%TO.C,J1010*%
G36*
G01*
X126518000Y-109237000D02*
X126518000Y-110637000D01*
G75*
G02*
X126368000Y-110787000I-150000J0D01*
G01*
X126068000Y-110787000D01*
G75*
G02*
X125918000Y-110637000I0J150000D01*
G01*
X125918000Y-109237000D01*
G75*
G02*
X126068000Y-109087000I150000J0D01*
G01*
X126368000Y-109087000D01*
G75*
G02*
X126518000Y-109237000I0J-150000D01*
G01*
G37*
G36*
G01*
X125268000Y-109237000D02*
X125268000Y-110637000D01*
G75*
G02*
X125118000Y-110787000I-150000J0D01*
G01*
X124818000Y-110787000D01*
G75*
G02*
X124668000Y-110637000I0J150000D01*
G01*
X124668000Y-109237000D01*
G75*
G02*
X124818000Y-109087000I150000J0D01*
G01*
X125118000Y-109087000D01*
G75*
G02*
X125268000Y-109237000I0J-150000D01*
G01*
G37*
G36*
G01*
X124018000Y-109237000D02*
X124018000Y-110637000D01*
G75*
G02*
X123868000Y-110787000I-150000J0D01*
G01*
X123568000Y-110787000D01*
G75*
G02*
X123418000Y-110637000I0J150000D01*
G01*
X123418000Y-109237000D01*
G75*
G02*
X123568000Y-109087000I150000J0D01*
G01*
X123868000Y-109087000D01*
G75*
G02*
X124018000Y-109237000I0J-150000D01*
G01*
G37*
G36*
G01*
X128568000Y-112137000D02*
X128568000Y-114437000D01*
G75*
G02*
X128318000Y-114687000I-250000J0D01*
G01*
X127818000Y-114687000D01*
G75*
G02*
X127568000Y-114437000I0J250000D01*
G01*
X127568000Y-112137000D01*
G75*
G02*
X127818000Y-111887000I250000J0D01*
G01*
X128318000Y-111887000D01*
G75*
G02*
X128568000Y-112137000I0J-250000D01*
G01*
G37*
G36*
G01*
X122368000Y-112137000D02*
X122368000Y-114437000D01*
G75*
G02*
X122118000Y-114687000I-250000J0D01*
G01*
X121618000Y-114687000D01*
G75*
G02*
X121368000Y-114437000I0J250000D01*
G01*
X121368000Y-112137000D01*
G75*
G02*
X121618000Y-111887000I250000J0D01*
G01*
X122118000Y-111887000D01*
G75*
G02*
X122368000Y-112137000I0J-250000D01*
G01*
G37*
%TD*%
%TO.C,J1007*%
G36*
G01*
X126518000Y-89425000D02*
X126518000Y-90825000D01*
G75*
G02*
X126368000Y-90975000I-150000J0D01*
G01*
X126068000Y-90975000D01*
G75*
G02*
X125918000Y-90825000I0J150000D01*
G01*
X125918000Y-89425000D01*
G75*
G02*
X126068000Y-89275000I150000J0D01*
G01*
X126368000Y-89275000D01*
G75*
G02*
X126518000Y-89425000I0J-150000D01*
G01*
G37*
G36*
G01*
X125268000Y-89425000D02*
X125268000Y-90825000D01*
G75*
G02*
X125118000Y-90975000I-150000J0D01*
G01*
X124818000Y-90975000D01*
G75*
G02*
X124668000Y-90825000I0J150000D01*
G01*
X124668000Y-89425000D01*
G75*
G02*
X124818000Y-89275000I150000J0D01*
G01*
X125118000Y-89275000D01*
G75*
G02*
X125268000Y-89425000I0J-150000D01*
G01*
G37*
G36*
G01*
X124018000Y-89425000D02*
X124018000Y-90825000D01*
G75*
G02*
X123868000Y-90975000I-150000J0D01*
G01*
X123568000Y-90975000D01*
G75*
G02*
X123418000Y-90825000I0J150000D01*
G01*
X123418000Y-89425000D01*
G75*
G02*
X123568000Y-89275000I150000J0D01*
G01*
X123868000Y-89275000D01*
G75*
G02*
X124018000Y-89425000I0J-150000D01*
G01*
G37*
G36*
G01*
X128568000Y-92325000D02*
X128568000Y-94625000D01*
G75*
G02*
X128318000Y-94875000I-250000J0D01*
G01*
X127818000Y-94875000D01*
G75*
G02*
X127568000Y-94625000I0J250000D01*
G01*
X127568000Y-92325000D01*
G75*
G02*
X127818000Y-92075000I250000J0D01*
G01*
X128318000Y-92075000D01*
G75*
G02*
X128568000Y-92325000I0J-250000D01*
G01*
G37*
G36*
G01*
X122368000Y-92325000D02*
X122368000Y-94625000D01*
G75*
G02*
X122118000Y-94875000I-250000J0D01*
G01*
X121618000Y-94875000D01*
G75*
G02*
X121368000Y-94625000I0J250000D01*
G01*
X121368000Y-92325000D01*
G75*
G02*
X121618000Y-92075000I250000J0D01*
G01*
X122118000Y-92075000D01*
G75*
G02*
X122368000Y-92325000I0J-250000D01*
G01*
G37*
%TD*%
%TO.C,J1004*%
G36*
G01*
X114326000Y-96029000D02*
X114326000Y-97429000D01*
G75*
G02*
X114176000Y-97579000I-150000J0D01*
G01*
X113876000Y-97579000D01*
G75*
G02*
X113726000Y-97429000I0J150000D01*
G01*
X113726000Y-96029000D01*
G75*
G02*
X113876000Y-95879000I150000J0D01*
G01*
X114176000Y-95879000D01*
G75*
G02*
X114326000Y-96029000I0J-150000D01*
G01*
G37*
G36*
G01*
X113076000Y-96029000D02*
X113076000Y-97429000D01*
G75*
G02*
X112926000Y-97579000I-150000J0D01*
G01*
X112626000Y-97579000D01*
G75*
G02*
X112476000Y-97429000I0J150000D01*
G01*
X112476000Y-96029000D01*
G75*
G02*
X112626000Y-95879000I150000J0D01*
G01*
X112926000Y-95879000D01*
G75*
G02*
X113076000Y-96029000I0J-150000D01*
G01*
G37*
G36*
G01*
X111826000Y-96029000D02*
X111826000Y-97429000D01*
G75*
G02*
X111676000Y-97579000I-150000J0D01*
G01*
X111376000Y-97579000D01*
G75*
G02*
X111226000Y-97429000I0J150000D01*
G01*
X111226000Y-96029000D01*
G75*
G02*
X111376000Y-95879000I150000J0D01*
G01*
X111676000Y-95879000D01*
G75*
G02*
X111826000Y-96029000I0J-150000D01*
G01*
G37*
G36*
G01*
X116376000Y-98929000D02*
X116376000Y-101229000D01*
G75*
G02*
X116126000Y-101479000I-250000J0D01*
G01*
X115626000Y-101479000D01*
G75*
G02*
X115376000Y-101229000I0J250000D01*
G01*
X115376000Y-98929000D01*
G75*
G02*
X115626000Y-98679000I250000J0D01*
G01*
X116126000Y-98679000D01*
G75*
G02*
X116376000Y-98929000I0J-250000D01*
G01*
G37*
G36*
G01*
X110176000Y-98929000D02*
X110176000Y-101229000D01*
G75*
G02*
X109926000Y-101479000I-250000J0D01*
G01*
X109426000Y-101479000D01*
G75*
G02*
X109176000Y-101229000I0J250000D01*
G01*
X109176000Y-98929000D01*
G75*
G02*
X109426000Y-98679000I250000J0D01*
G01*
X109926000Y-98679000D01*
G75*
G02*
X110176000Y-98929000I0J-250000D01*
G01*
G37*
%TD*%
%TO.C,J1005*%
G36*
G01*
X114326000Y-82821000D02*
X114326000Y-84221000D01*
G75*
G02*
X114176000Y-84371000I-150000J0D01*
G01*
X113876000Y-84371000D01*
G75*
G02*
X113726000Y-84221000I0J150000D01*
G01*
X113726000Y-82821000D01*
G75*
G02*
X113876000Y-82671000I150000J0D01*
G01*
X114176000Y-82671000D01*
G75*
G02*
X114326000Y-82821000I0J-150000D01*
G01*
G37*
G36*
G01*
X113076000Y-82821000D02*
X113076000Y-84221000D01*
G75*
G02*
X112926000Y-84371000I-150000J0D01*
G01*
X112626000Y-84371000D01*
G75*
G02*
X112476000Y-84221000I0J150000D01*
G01*
X112476000Y-82821000D01*
G75*
G02*
X112626000Y-82671000I150000J0D01*
G01*
X112926000Y-82671000D01*
G75*
G02*
X113076000Y-82821000I0J-150000D01*
G01*
G37*
G36*
G01*
X111826000Y-82821000D02*
X111826000Y-84221000D01*
G75*
G02*
X111676000Y-84371000I-150000J0D01*
G01*
X111376000Y-84371000D01*
G75*
G02*
X111226000Y-84221000I0J150000D01*
G01*
X111226000Y-82821000D01*
G75*
G02*
X111376000Y-82671000I150000J0D01*
G01*
X111676000Y-82671000D01*
G75*
G02*
X111826000Y-82821000I0J-150000D01*
G01*
G37*
G36*
G01*
X116376000Y-85721000D02*
X116376000Y-88021000D01*
G75*
G02*
X116126000Y-88271000I-250000J0D01*
G01*
X115626000Y-88271000D01*
G75*
G02*
X115376000Y-88021000I0J250000D01*
G01*
X115376000Y-85721000D01*
G75*
G02*
X115626000Y-85471000I250000J0D01*
G01*
X116126000Y-85471000D01*
G75*
G02*
X116376000Y-85721000I0J-250000D01*
G01*
G37*
G36*
G01*
X110176000Y-85721000D02*
X110176000Y-88021000D01*
G75*
G02*
X109926000Y-88271000I-250000J0D01*
G01*
X109426000Y-88271000D01*
G75*
G02*
X109176000Y-88021000I0J250000D01*
G01*
X109176000Y-85721000D01*
G75*
G02*
X109426000Y-85471000I250000J0D01*
G01*
X109926000Y-85471000D01*
G75*
G02*
X110176000Y-85721000I0J-250000D01*
G01*
G37*
%TD*%
%TO.C,J1008*%
G36*
G01*
X110176000Y-105533000D02*
X110176000Y-107833000D01*
G75*
G02*
X109926000Y-108083000I-250000J0D01*
G01*
X109426000Y-108083000D01*
G75*
G02*
X109176000Y-107833000I0J250000D01*
G01*
X109176000Y-105533000D01*
G75*
G02*
X109426000Y-105283000I250000J0D01*
G01*
X109926000Y-105283000D01*
G75*
G02*
X110176000Y-105533000I0J-250000D01*
G01*
G37*
G36*
G01*
X116376000Y-105533000D02*
X116376000Y-107833000D01*
G75*
G02*
X116126000Y-108083000I-250000J0D01*
G01*
X115626000Y-108083000D01*
G75*
G02*
X115376000Y-107833000I0J250000D01*
G01*
X115376000Y-105533000D01*
G75*
G02*
X115626000Y-105283000I250000J0D01*
G01*
X116126000Y-105283000D01*
G75*
G02*
X116376000Y-105533000I0J-250000D01*
G01*
G37*
G36*
G01*
X111826000Y-102633000D02*
X111826000Y-104033000D01*
G75*
G02*
X111676000Y-104183000I-150000J0D01*
G01*
X111376000Y-104183000D01*
G75*
G02*
X111226000Y-104033000I0J150000D01*
G01*
X111226000Y-102633000D01*
G75*
G02*
X111376000Y-102483000I150000J0D01*
G01*
X111676000Y-102483000D01*
G75*
G02*
X111826000Y-102633000I0J-150000D01*
G01*
G37*
G36*
G01*
X113076000Y-102633000D02*
X113076000Y-104033000D01*
G75*
G02*
X112926000Y-104183000I-150000J0D01*
G01*
X112626000Y-104183000D01*
G75*
G02*
X112476000Y-104033000I0J150000D01*
G01*
X112476000Y-102633000D01*
G75*
G02*
X112626000Y-102483000I150000J0D01*
G01*
X112926000Y-102483000D01*
G75*
G02*
X113076000Y-102633000I0J-150000D01*
G01*
G37*
G36*
G01*
X114326000Y-102633000D02*
X114326000Y-104033000D01*
G75*
G02*
X114176000Y-104183000I-150000J0D01*
G01*
X113876000Y-104183000D01*
G75*
G02*
X113726000Y-104033000I0J150000D01*
G01*
X113726000Y-102633000D01*
G75*
G02*
X113876000Y-102483000I150000J0D01*
G01*
X114176000Y-102483000D01*
G75*
G02*
X114326000Y-102633000I0J-150000D01*
G01*
G37*
%TD*%
%TO.C,J1009*%
G36*
G01*
X110176000Y-92325000D02*
X110176000Y-94625000D01*
G75*
G02*
X109926000Y-94875000I-250000J0D01*
G01*
X109426000Y-94875000D01*
G75*
G02*
X109176000Y-94625000I0J250000D01*
G01*
X109176000Y-92325000D01*
G75*
G02*
X109426000Y-92075000I250000J0D01*
G01*
X109926000Y-92075000D01*
G75*
G02*
X110176000Y-92325000I0J-250000D01*
G01*
G37*
G36*
G01*
X116376000Y-92325000D02*
X116376000Y-94625000D01*
G75*
G02*
X116126000Y-94875000I-250000J0D01*
G01*
X115626000Y-94875000D01*
G75*
G02*
X115376000Y-94625000I0J250000D01*
G01*
X115376000Y-92325000D01*
G75*
G02*
X115626000Y-92075000I250000J0D01*
G01*
X116126000Y-92075000D01*
G75*
G02*
X116376000Y-92325000I0J-250000D01*
G01*
G37*
G36*
G01*
X111826000Y-89425000D02*
X111826000Y-90825000D01*
G75*
G02*
X111676000Y-90975000I-150000J0D01*
G01*
X111376000Y-90975000D01*
G75*
G02*
X111226000Y-90825000I0J150000D01*
G01*
X111226000Y-89425000D01*
G75*
G02*
X111376000Y-89275000I150000J0D01*
G01*
X111676000Y-89275000D01*
G75*
G02*
X111826000Y-89425000I0J-150000D01*
G01*
G37*
G36*
G01*
X113076000Y-89425000D02*
X113076000Y-90825000D01*
G75*
G02*
X112926000Y-90975000I-150000J0D01*
G01*
X112626000Y-90975000D01*
G75*
G02*
X112476000Y-90825000I0J150000D01*
G01*
X112476000Y-89425000D01*
G75*
G02*
X112626000Y-89275000I150000J0D01*
G01*
X112926000Y-89275000D01*
G75*
G02*
X113076000Y-89425000I0J-150000D01*
G01*
G37*
G36*
G01*
X114326000Y-89425000D02*
X114326000Y-90825000D01*
G75*
G02*
X114176000Y-90975000I-150000J0D01*
G01*
X113876000Y-90975000D01*
G75*
G02*
X113726000Y-90825000I0J150000D01*
G01*
X113726000Y-89425000D01*
G75*
G02*
X113876000Y-89275000I150000J0D01*
G01*
X114176000Y-89275000D01*
G75*
G02*
X114326000Y-89425000I0J-150000D01*
G01*
G37*
%TD*%
%TO.C,J1012*%
G36*
G01*
X110176000Y-112137000D02*
X110176000Y-114437000D01*
G75*
G02*
X109926000Y-114687000I-250000J0D01*
G01*
X109426000Y-114687000D01*
G75*
G02*
X109176000Y-114437000I0J250000D01*
G01*
X109176000Y-112137000D01*
G75*
G02*
X109426000Y-111887000I250000J0D01*
G01*
X109926000Y-111887000D01*
G75*
G02*
X110176000Y-112137000I0J-250000D01*
G01*
G37*
G36*
G01*
X116376000Y-112137000D02*
X116376000Y-114437000D01*
G75*
G02*
X116126000Y-114687000I-250000J0D01*
G01*
X115626000Y-114687000D01*
G75*
G02*
X115376000Y-114437000I0J250000D01*
G01*
X115376000Y-112137000D01*
G75*
G02*
X115626000Y-111887000I250000J0D01*
G01*
X116126000Y-111887000D01*
G75*
G02*
X116376000Y-112137000I0J-250000D01*
G01*
G37*
G36*
G01*
X111826000Y-109237000D02*
X111826000Y-110637000D01*
G75*
G02*
X111676000Y-110787000I-150000J0D01*
G01*
X111376000Y-110787000D01*
G75*
G02*
X111226000Y-110637000I0J150000D01*
G01*
X111226000Y-109237000D01*
G75*
G02*
X111376000Y-109087000I150000J0D01*
G01*
X111676000Y-109087000D01*
G75*
G02*
X111826000Y-109237000I0J-150000D01*
G01*
G37*
G36*
G01*
X113076000Y-109237000D02*
X113076000Y-110637000D01*
G75*
G02*
X112926000Y-110787000I-150000J0D01*
G01*
X112626000Y-110787000D01*
G75*
G02*
X112476000Y-110637000I0J150000D01*
G01*
X112476000Y-109237000D01*
G75*
G02*
X112626000Y-109087000I150000J0D01*
G01*
X112926000Y-109087000D01*
G75*
G02*
X113076000Y-109237000I0J-150000D01*
G01*
G37*
G36*
G01*
X114326000Y-109237000D02*
X114326000Y-110637000D01*
G75*
G02*
X114176000Y-110787000I-150000J0D01*
G01*
X113876000Y-110787000D01*
G75*
G02*
X113726000Y-110637000I0J150000D01*
G01*
X113726000Y-109237000D01*
G75*
G02*
X113876000Y-109087000I150000J0D01*
G01*
X114176000Y-109087000D01*
G75*
G02*
X114326000Y-109237000I0J-150000D01*
G01*
G37*
%TD*%
%TO.C,J1003*%
G36*
G01*
X122368000Y-85721000D02*
X122368000Y-88021000D01*
G75*
G02*
X122118000Y-88271000I-250000J0D01*
G01*
X121618000Y-88271000D01*
G75*
G02*
X121368000Y-88021000I0J250000D01*
G01*
X121368000Y-85721000D01*
G75*
G02*
X121618000Y-85471000I250000J0D01*
G01*
X122118000Y-85471000D01*
G75*
G02*
X122368000Y-85721000I0J-250000D01*
G01*
G37*
G36*
G01*
X128568000Y-85721000D02*
X128568000Y-88021000D01*
G75*
G02*
X128318000Y-88271000I-250000J0D01*
G01*
X127818000Y-88271000D01*
G75*
G02*
X127568000Y-88021000I0J250000D01*
G01*
X127568000Y-85721000D01*
G75*
G02*
X127818000Y-85471000I250000J0D01*
G01*
X128318000Y-85471000D01*
G75*
G02*
X128568000Y-85721000I0J-250000D01*
G01*
G37*
G36*
G01*
X124018000Y-82821000D02*
X124018000Y-84221000D01*
G75*
G02*
X123868000Y-84371000I-150000J0D01*
G01*
X123568000Y-84371000D01*
G75*
G02*
X123418000Y-84221000I0J150000D01*
G01*
X123418000Y-82821000D01*
G75*
G02*
X123568000Y-82671000I150000J0D01*
G01*
X123868000Y-82671000D01*
G75*
G02*
X124018000Y-82821000I0J-150000D01*
G01*
G37*
G36*
G01*
X125268000Y-82821000D02*
X125268000Y-84221000D01*
G75*
G02*
X125118000Y-84371000I-150000J0D01*
G01*
X124818000Y-84371000D01*
G75*
G02*
X124668000Y-84221000I0J150000D01*
G01*
X124668000Y-82821000D01*
G75*
G02*
X124818000Y-82671000I150000J0D01*
G01*
X125118000Y-82671000D01*
G75*
G02*
X125268000Y-82821000I0J-150000D01*
G01*
G37*
G36*
G01*
X126518000Y-82821000D02*
X126518000Y-84221000D01*
G75*
G02*
X126368000Y-84371000I-150000J0D01*
G01*
X126068000Y-84371000D01*
G75*
G02*
X125918000Y-84221000I0J150000D01*
G01*
X125918000Y-82821000D01*
G75*
G02*
X126068000Y-82671000I150000J0D01*
G01*
X126368000Y-82671000D01*
G75*
G02*
X126518000Y-82821000I0J-150000D01*
G01*
G37*
%TD*%
%TO.C,J1011*%
G36*
G01*
X122368000Y-98929000D02*
X122368000Y-101229000D01*
G75*
G02*
X122118000Y-101479000I-250000J0D01*
G01*
X121618000Y-101479000D01*
G75*
G02*
X121368000Y-101229000I0J250000D01*
G01*
X121368000Y-98929000D01*
G75*
G02*
X121618000Y-98679000I250000J0D01*
G01*
X122118000Y-98679000D01*
G75*
G02*
X122368000Y-98929000I0J-250000D01*
G01*
G37*
G36*
G01*
X128568000Y-98929000D02*
X128568000Y-101229000D01*
G75*
G02*
X128318000Y-101479000I-250000J0D01*
G01*
X127818000Y-101479000D01*
G75*
G02*
X127568000Y-101229000I0J250000D01*
G01*
X127568000Y-98929000D01*
G75*
G02*
X127818000Y-98679000I250000J0D01*
G01*
X128318000Y-98679000D01*
G75*
G02*
X128568000Y-98929000I0J-250000D01*
G01*
G37*
G36*
G01*
X124018000Y-96029000D02*
X124018000Y-97429000D01*
G75*
G02*
X123868000Y-97579000I-150000J0D01*
G01*
X123568000Y-97579000D01*
G75*
G02*
X123418000Y-97429000I0J150000D01*
G01*
X123418000Y-96029000D01*
G75*
G02*
X123568000Y-95879000I150000J0D01*
G01*
X123868000Y-95879000D01*
G75*
G02*
X124018000Y-96029000I0J-150000D01*
G01*
G37*
G36*
G01*
X125268000Y-96029000D02*
X125268000Y-97429000D01*
G75*
G02*
X125118000Y-97579000I-150000J0D01*
G01*
X124818000Y-97579000D01*
G75*
G02*
X124668000Y-97429000I0J150000D01*
G01*
X124668000Y-96029000D01*
G75*
G02*
X124818000Y-95879000I150000J0D01*
G01*
X125118000Y-95879000D01*
G75*
G02*
X125268000Y-96029000I0J-150000D01*
G01*
G37*
G36*
G01*
X126518000Y-96029000D02*
X126518000Y-97429000D01*
G75*
G02*
X126368000Y-97579000I-150000J0D01*
G01*
X126068000Y-97579000D01*
G75*
G02*
X125918000Y-97429000I0J150000D01*
G01*
X125918000Y-96029000D01*
G75*
G02*
X126068000Y-95879000I150000J0D01*
G01*
X126368000Y-95879000D01*
G75*
G02*
X126518000Y-96029000I0J-150000D01*
G01*
G37*
%TD*%
%TO.C,J1006*%
G36*
G01*
X126518000Y-102633000D02*
X126518000Y-104033000D01*
G75*
G02*
X126368000Y-104183000I-150000J0D01*
G01*
X126068000Y-104183000D01*
G75*
G02*
X125918000Y-104033000I0J150000D01*
G01*
X125918000Y-102633000D01*
G75*
G02*
X126068000Y-102483000I150000J0D01*
G01*
X126368000Y-102483000D01*
G75*
G02*
X126518000Y-102633000I0J-150000D01*
G01*
G37*
G36*
G01*
X125268000Y-102633000D02*
X125268000Y-104033000D01*
G75*
G02*
X125118000Y-104183000I-150000J0D01*
G01*
X124818000Y-104183000D01*
G75*
G02*
X124668000Y-104033000I0J150000D01*
G01*
X124668000Y-102633000D01*
G75*
G02*
X124818000Y-102483000I150000J0D01*
G01*
X125118000Y-102483000D01*
G75*
G02*
X125268000Y-102633000I0J-150000D01*
G01*
G37*
G36*
G01*
X124018000Y-102633000D02*
X124018000Y-104033000D01*
G75*
G02*
X123868000Y-104183000I-150000J0D01*
G01*
X123568000Y-104183000D01*
G75*
G02*
X123418000Y-104033000I0J150000D01*
G01*
X123418000Y-102633000D01*
G75*
G02*
X123568000Y-102483000I150000J0D01*
G01*
X123868000Y-102483000D01*
G75*
G02*
X124018000Y-102633000I0J-150000D01*
G01*
G37*
G36*
G01*
X128568000Y-105533000D02*
X128568000Y-107833000D01*
G75*
G02*
X128318000Y-108083000I-250000J0D01*
G01*
X127818000Y-108083000D01*
G75*
G02*
X127568000Y-107833000I0J250000D01*
G01*
X127568000Y-105533000D01*
G75*
G02*
X127818000Y-105283000I250000J0D01*
G01*
X128318000Y-105283000D01*
G75*
G02*
X128568000Y-105533000I0J-250000D01*
G01*
G37*
G36*
G01*
X122368000Y-105533000D02*
X122368000Y-107833000D01*
G75*
G02*
X122118000Y-108083000I-250000J0D01*
G01*
X121618000Y-108083000D01*
G75*
G02*
X121368000Y-107833000I0J250000D01*
G01*
X121368000Y-105533000D01*
G75*
G02*
X121618000Y-105283000I250000J0D01*
G01*
X122118000Y-105283000D01*
G75*
G02*
X122368000Y-105533000I0J-250000D01*
G01*
G37*
%TD*%
%TO.C,U1101*%
G36*
G01*
X116038000Y-133327000D02*
X116038000Y-133627000D01*
G75*
G02*
X115888000Y-133777000I-150000J0D01*
G01*
X114138000Y-133777000D01*
G75*
G02*
X113988000Y-133627000I0J150000D01*
G01*
X113988000Y-133327000D01*
G75*
G02*
X114138000Y-133177000I150000J0D01*
G01*
X115888000Y-133177000D01*
G75*
G02*
X116038000Y-133327000I0J-150000D01*
G01*
G37*
G36*
G01*
X116038000Y-132057000D02*
X116038000Y-132357000D01*
G75*
G02*
X115888000Y-132507000I-150000J0D01*
G01*
X114138000Y-132507000D01*
G75*
G02*
X113988000Y-132357000I0J150000D01*
G01*
X113988000Y-132057000D01*
G75*
G02*
X114138000Y-131907000I150000J0D01*
G01*
X115888000Y-131907000D01*
G75*
G02*
X116038000Y-132057000I0J-150000D01*
G01*
G37*
G36*
G01*
X116038000Y-130787000D02*
X116038000Y-131087000D01*
G75*
G02*
X115888000Y-131237000I-150000J0D01*
G01*
X114138000Y-131237000D01*
G75*
G02*
X113988000Y-131087000I0J150000D01*
G01*
X113988000Y-130787000D01*
G75*
G02*
X114138000Y-130637000I150000J0D01*
G01*
X115888000Y-130637000D01*
G75*
G02*
X116038000Y-130787000I0J-150000D01*
G01*
G37*
G36*
G01*
X116038000Y-129517000D02*
X116038000Y-129817000D01*
G75*
G02*
X115888000Y-129967000I-150000J0D01*
G01*
X114138000Y-129967000D01*
G75*
G02*
X113988000Y-129817000I0J150000D01*
G01*
X113988000Y-129517000D01*
G75*
G02*
X114138000Y-129367000I150000J0D01*
G01*
X115888000Y-129367000D01*
G75*
G02*
X116038000Y-129517000I0J-150000D01*
G01*
G37*
G36*
G01*
X116038000Y-128247000D02*
X116038000Y-128547000D01*
G75*
G02*
X115888000Y-128697000I-150000J0D01*
G01*
X114138000Y-128697000D01*
G75*
G02*
X113988000Y-128547000I0J150000D01*
G01*
X113988000Y-128247000D01*
G75*
G02*
X114138000Y-128097000I150000J0D01*
G01*
X115888000Y-128097000D01*
G75*
G02*
X116038000Y-128247000I0J-150000D01*
G01*
G37*
G36*
G01*
X116038000Y-126977000D02*
X116038000Y-127277000D01*
G75*
G02*
X115888000Y-127427000I-150000J0D01*
G01*
X114138000Y-127427000D01*
G75*
G02*
X113988000Y-127277000I0J150000D01*
G01*
X113988000Y-126977000D01*
G75*
G02*
X114138000Y-126827000I150000J0D01*
G01*
X115888000Y-126827000D01*
G75*
G02*
X116038000Y-126977000I0J-150000D01*
G01*
G37*
G36*
G01*
X116038000Y-125707000D02*
X116038000Y-126007000D01*
G75*
G02*
X115888000Y-126157000I-150000J0D01*
G01*
X114138000Y-126157000D01*
G75*
G02*
X113988000Y-126007000I0J150000D01*
G01*
X113988000Y-125707000D01*
G75*
G02*
X114138000Y-125557000I150000J0D01*
G01*
X115888000Y-125557000D01*
G75*
G02*
X116038000Y-125707000I0J-150000D01*
G01*
G37*
G36*
G01*
X116038000Y-124437000D02*
X116038000Y-124737000D01*
G75*
G02*
X115888000Y-124887000I-150000J0D01*
G01*
X114138000Y-124887000D01*
G75*
G02*
X113988000Y-124737000I0J150000D01*
G01*
X113988000Y-124437000D01*
G75*
G02*
X114138000Y-124287000I150000J0D01*
G01*
X115888000Y-124287000D01*
G75*
G02*
X116038000Y-124437000I0J-150000D01*
G01*
G37*
G36*
G01*
X116038000Y-123167000D02*
X116038000Y-123467000D01*
G75*
G02*
X115888000Y-123617000I-150000J0D01*
G01*
X114138000Y-123617000D01*
G75*
G02*
X113988000Y-123467000I0J150000D01*
G01*
X113988000Y-123167000D01*
G75*
G02*
X114138000Y-123017000I150000J0D01*
G01*
X115888000Y-123017000D01*
G75*
G02*
X116038000Y-123167000I0J-150000D01*
G01*
G37*
G36*
G01*
X116038000Y-121897000D02*
X116038000Y-122197000D01*
G75*
G02*
X115888000Y-122347000I-150000J0D01*
G01*
X114138000Y-122347000D01*
G75*
G02*
X113988000Y-122197000I0J150000D01*
G01*
X113988000Y-121897000D01*
G75*
G02*
X114138000Y-121747000I150000J0D01*
G01*
X115888000Y-121747000D01*
G75*
G02*
X116038000Y-121897000I0J-150000D01*
G01*
G37*
G36*
G01*
X116038000Y-120627000D02*
X116038000Y-120927000D01*
G75*
G02*
X115888000Y-121077000I-150000J0D01*
G01*
X114138000Y-121077000D01*
G75*
G02*
X113988000Y-120927000I0J150000D01*
G01*
X113988000Y-120627000D01*
G75*
G02*
X114138000Y-120477000I150000J0D01*
G01*
X115888000Y-120477000D01*
G75*
G02*
X116038000Y-120627000I0J-150000D01*
G01*
G37*
G36*
G01*
X116038000Y-119357000D02*
X116038000Y-119657000D01*
G75*
G02*
X115888000Y-119807000I-150000J0D01*
G01*
X114138000Y-119807000D01*
G75*
G02*
X113988000Y-119657000I0J150000D01*
G01*
X113988000Y-119357000D01*
G75*
G02*
X114138000Y-119207000I150000J0D01*
G01*
X115888000Y-119207000D01*
G75*
G02*
X116038000Y-119357000I0J-150000D01*
G01*
G37*
G36*
G01*
X116038000Y-118087000D02*
X116038000Y-118387000D01*
G75*
G02*
X115888000Y-118537000I-150000J0D01*
G01*
X114138000Y-118537000D01*
G75*
G02*
X113988000Y-118387000I0J150000D01*
G01*
X113988000Y-118087000D01*
G75*
G02*
X114138000Y-117937000I150000J0D01*
G01*
X115888000Y-117937000D01*
G75*
G02*
X116038000Y-118087000I0J-150000D01*
G01*
G37*
G36*
G01*
X116038000Y-116817000D02*
X116038000Y-117117000D01*
G75*
G02*
X115888000Y-117267000I-150000J0D01*
G01*
X114138000Y-117267000D01*
G75*
G02*
X113988000Y-117117000I0J150000D01*
G01*
X113988000Y-116817000D01*
G75*
G02*
X114138000Y-116667000I150000J0D01*
G01*
X115888000Y-116667000D01*
G75*
G02*
X116038000Y-116817000I0J-150000D01*
G01*
G37*
G36*
G01*
X106738000Y-116817000D02*
X106738000Y-117117000D01*
G75*
G02*
X106588000Y-117267000I-150000J0D01*
G01*
X104838000Y-117267000D01*
G75*
G02*
X104688000Y-117117000I0J150000D01*
G01*
X104688000Y-116817000D01*
G75*
G02*
X104838000Y-116667000I150000J0D01*
G01*
X106588000Y-116667000D01*
G75*
G02*
X106738000Y-116817000I0J-150000D01*
G01*
G37*
G36*
G01*
X106738000Y-118087000D02*
X106738000Y-118387000D01*
G75*
G02*
X106588000Y-118537000I-150000J0D01*
G01*
X104838000Y-118537000D01*
G75*
G02*
X104688000Y-118387000I0J150000D01*
G01*
X104688000Y-118087000D01*
G75*
G02*
X104838000Y-117937000I150000J0D01*
G01*
X106588000Y-117937000D01*
G75*
G02*
X106738000Y-118087000I0J-150000D01*
G01*
G37*
G36*
G01*
X106738000Y-119357000D02*
X106738000Y-119657000D01*
G75*
G02*
X106588000Y-119807000I-150000J0D01*
G01*
X104838000Y-119807000D01*
G75*
G02*
X104688000Y-119657000I0J150000D01*
G01*
X104688000Y-119357000D01*
G75*
G02*
X104838000Y-119207000I150000J0D01*
G01*
X106588000Y-119207000D01*
G75*
G02*
X106738000Y-119357000I0J-150000D01*
G01*
G37*
G36*
G01*
X106738000Y-120627000D02*
X106738000Y-120927000D01*
G75*
G02*
X106588000Y-121077000I-150000J0D01*
G01*
X104838000Y-121077000D01*
G75*
G02*
X104688000Y-120927000I0J150000D01*
G01*
X104688000Y-120627000D01*
G75*
G02*
X104838000Y-120477000I150000J0D01*
G01*
X106588000Y-120477000D01*
G75*
G02*
X106738000Y-120627000I0J-150000D01*
G01*
G37*
G36*
G01*
X106738000Y-121897000D02*
X106738000Y-122197000D01*
G75*
G02*
X106588000Y-122347000I-150000J0D01*
G01*
X104838000Y-122347000D01*
G75*
G02*
X104688000Y-122197000I0J150000D01*
G01*
X104688000Y-121897000D01*
G75*
G02*
X104838000Y-121747000I150000J0D01*
G01*
X106588000Y-121747000D01*
G75*
G02*
X106738000Y-121897000I0J-150000D01*
G01*
G37*
G36*
G01*
X106738000Y-123167000D02*
X106738000Y-123467000D01*
G75*
G02*
X106588000Y-123617000I-150000J0D01*
G01*
X104838000Y-123617000D01*
G75*
G02*
X104688000Y-123467000I0J150000D01*
G01*
X104688000Y-123167000D01*
G75*
G02*
X104838000Y-123017000I150000J0D01*
G01*
X106588000Y-123017000D01*
G75*
G02*
X106738000Y-123167000I0J-150000D01*
G01*
G37*
G36*
G01*
X106738000Y-124437000D02*
X106738000Y-124737000D01*
G75*
G02*
X106588000Y-124887000I-150000J0D01*
G01*
X104838000Y-124887000D01*
G75*
G02*
X104688000Y-124737000I0J150000D01*
G01*
X104688000Y-124437000D01*
G75*
G02*
X104838000Y-124287000I150000J0D01*
G01*
X106588000Y-124287000D01*
G75*
G02*
X106738000Y-124437000I0J-150000D01*
G01*
G37*
G36*
G01*
X106738000Y-125707000D02*
X106738000Y-126007000D01*
G75*
G02*
X106588000Y-126157000I-150000J0D01*
G01*
X104838000Y-126157000D01*
G75*
G02*
X104688000Y-126007000I0J150000D01*
G01*
X104688000Y-125707000D01*
G75*
G02*
X104838000Y-125557000I150000J0D01*
G01*
X106588000Y-125557000D01*
G75*
G02*
X106738000Y-125707000I0J-150000D01*
G01*
G37*
G36*
G01*
X106738000Y-126977000D02*
X106738000Y-127277000D01*
G75*
G02*
X106588000Y-127427000I-150000J0D01*
G01*
X104838000Y-127427000D01*
G75*
G02*
X104688000Y-127277000I0J150000D01*
G01*
X104688000Y-126977000D01*
G75*
G02*
X104838000Y-126827000I150000J0D01*
G01*
X106588000Y-126827000D01*
G75*
G02*
X106738000Y-126977000I0J-150000D01*
G01*
G37*
G36*
G01*
X106738000Y-128247000D02*
X106738000Y-128547000D01*
G75*
G02*
X106588000Y-128697000I-150000J0D01*
G01*
X104838000Y-128697000D01*
G75*
G02*
X104688000Y-128547000I0J150000D01*
G01*
X104688000Y-128247000D01*
G75*
G02*
X104838000Y-128097000I150000J0D01*
G01*
X106588000Y-128097000D01*
G75*
G02*
X106738000Y-128247000I0J-150000D01*
G01*
G37*
G36*
G01*
X106738000Y-129517000D02*
X106738000Y-129817000D01*
G75*
G02*
X106588000Y-129967000I-150000J0D01*
G01*
X104838000Y-129967000D01*
G75*
G02*
X104688000Y-129817000I0J150000D01*
G01*
X104688000Y-129517000D01*
G75*
G02*
X104838000Y-129367000I150000J0D01*
G01*
X106588000Y-129367000D01*
G75*
G02*
X106738000Y-129517000I0J-150000D01*
G01*
G37*
G36*
G01*
X106738000Y-130787000D02*
X106738000Y-131087000D01*
G75*
G02*
X106588000Y-131237000I-150000J0D01*
G01*
X104838000Y-131237000D01*
G75*
G02*
X104688000Y-131087000I0J150000D01*
G01*
X104688000Y-130787000D01*
G75*
G02*
X104838000Y-130637000I150000J0D01*
G01*
X106588000Y-130637000D01*
G75*
G02*
X106738000Y-130787000I0J-150000D01*
G01*
G37*
G36*
G01*
X106738000Y-132057000D02*
X106738000Y-132357000D01*
G75*
G02*
X106588000Y-132507000I-150000J0D01*
G01*
X104838000Y-132507000D01*
G75*
G02*
X104688000Y-132357000I0J150000D01*
G01*
X104688000Y-132057000D01*
G75*
G02*
X104838000Y-131907000I150000J0D01*
G01*
X106588000Y-131907000D01*
G75*
G02*
X106738000Y-132057000I0J-150000D01*
G01*
G37*
G36*
G01*
X106738000Y-133327000D02*
X106738000Y-133627000D01*
G75*
G02*
X106588000Y-133777000I-150000J0D01*
G01*
X104838000Y-133777000D01*
G75*
G02*
X104688000Y-133627000I0J150000D01*
G01*
X104688000Y-133327000D01*
G75*
G02*
X104838000Y-133177000I150000J0D01*
G01*
X106588000Y-133177000D01*
G75*
G02*
X106738000Y-133327000I0J-150000D01*
G01*
G37*
%TD*%
%TO.C,K702*%
G36*
G01*
X147197000Y-55820000D02*
X144897000Y-55820000D01*
G75*
G02*
X144647000Y-55570000I0J250000D01*
G01*
X144647000Y-55070000D01*
G75*
G02*
X144897000Y-54820000I250000J0D01*
G01*
X147197000Y-54820000D01*
G75*
G02*
X147447000Y-55070000I0J-250000D01*
G01*
X147447000Y-55570000D01*
G75*
G02*
X147197000Y-55820000I-250000J0D01*
G01*
G37*
G36*
G01*
X147197000Y-62020000D02*
X144897000Y-62020000D01*
G75*
G02*
X144647000Y-61770000I0J250000D01*
G01*
X144647000Y-61270000D01*
G75*
G02*
X144897000Y-61020000I250000J0D01*
G01*
X147197000Y-61020000D01*
G75*
G02*
X147447000Y-61270000I0J-250000D01*
G01*
X147447000Y-61770000D01*
G75*
G02*
X147197000Y-62020000I-250000J0D01*
G01*
G37*
G36*
G01*
X150097000Y-57470000D02*
X148697000Y-57470000D01*
G75*
G02*
X148547000Y-57320000I0J150000D01*
G01*
X148547000Y-57020000D01*
G75*
G02*
X148697000Y-56870000I150000J0D01*
G01*
X150097000Y-56870000D01*
G75*
G02*
X150247000Y-57020000I0J-150000D01*
G01*
X150247000Y-57320000D01*
G75*
G02*
X150097000Y-57470000I-150000J0D01*
G01*
G37*
G36*
G01*
X150097000Y-58720000D02*
X148697000Y-58720000D01*
G75*
G02*
X148547000Y-58570000I0J150000D01*
G01*
X148547000Y-58270000D01*
G75*
G02*
X148697000Y-58120000I150000J0D01*
G01*
X150097000Y-58120000D01*
G75*
G02*
X150247000Y-58270000I0J-150000D01*
G01*
X150247000Y-58570000D01*
G75*
G02*
X150097000Y-58720000I-150000J0D01*
G01*
G37*
G36*
G01*
X150097000Y-59970000D02*
X148697000Y-59970000D01*
G75*
G02*
X148547000Y-59820000I0J150000D01*
G01*
X148547000Y-59520000D01*
G75*
G02*
X148697000Y-59370000I150000J0D01*
G01*
X150097000Y-59370000D01*
G75*
G02*
X150247000Y-59520000I0J-150000D01*
G01*
X150247000Y-59820000D01*
G75*
G02*
X150097000Y-59970000I-150000J0D01*
G01*
G37*
%TD*%
%TO.C,J501*%
G36*
G01*
X166989000Y-59800000D02*
X166989000Y-58400000D01*
G75*
G02*
X167139000Y-58250000I150000J0D01*
G01*
X167439000Y-58250000D01*
G75*
G02*
X167589000Y-58400000I0J-150000D01*
G01*
X167589000Y-59800000D01*
G75*
G02*
X167439000Y-59950000I-150000J0D01*
G01*
X167139000Y-59950000D01*
G75*
G02*
X166989000Y-59800000I0J150000D01*
G01*
G37*
G36*
G01*
X168239000Y-59800000D02*
X168239000Y-58400000D01*
G75*
G02*
X168389000Y-58250000I150000J0D01*
G01*
X168689000Y-58250000D01*
G75*
G02*
X168839000Y-58400000I0J-150000D01*
G01*
X168839000Y-59800000D01*
G75*
G02*
X168689000Y-59950000I-150000J0D01*
G01*
X168389000Y-59950000D01*
G75*
G02*
X168239000Y-59800000I0J150000D01*
G01*
G37*
G36*
G01*
X169489000Y-59800000D02*
X169489000Y-58400000D01*
G75*
G02*
X169639000Y-58250000I150000J0D01*
G01*
X169939000Y-58250000D01*
G75*
G02*
X170089000Y-58400000I0J-150000D01*
G01*
X170089000Y-59800000D01*
G75*
G02*
X169939000Y-59950000I-150000J0D01*
G01*
X169639000Y-59950000D01*
G75*
G02*
X169489000Y-59800000I0J150000D01*
G01*
G37*
G36*
G01*
X170739000Y-59800000D02*
X170739000Y-58400000D01*
G75*
G02*
X170889000Y-58250000I150000J0D01*
G01*
X171189000Y-58250000D01*
G75*
G02*
X171339000Y-58400000I0J-150000D01*
G01*
X171339000Y-59800000D01*
G75*
G02*
X171189000Y-59950000I-150000J0D01*
G01*
X170889000Y-59950000D01*
G75*
G02*
X170739000Y-59800000I0J150000D01*
G01*
G37*
G36*
G01*
X164939000Y-56900000D02*
X164939000Y-54600000D01*
G75*
G02*
X165189000Y-54350000I250000J0D01*
G01*
X165689000Y-54350000D01*
G75*
G02*
X165939000Y-54600000I0J-250000D01*
G01*
X165939000Y-56900000D01*
G75*
G02*
X165689000Y-57150000I-250000J0D01*
G01*
X165189000Y-57150000D01*
G75*
G02*
X164939000Y-56900000I0J250000D01*
G01*
G37*
G36*
G01*
X172389000Y-56900000D02*
X172389000Y-54600000D01*
G75*
G02*
X172639000Y-54350000I250000J0D01*
G01*
X173139000Y-54350000D01*
G75*
G02*
X173389000Y-54600000I0J-250000D01*
G01*
X173389000Y-56900000D01*
G75*
G02*
X173139000Y-57150000I-250000J0D01*
G01*
X172639000Y-57150000D01*
G75*
G02*
X172389000Y-56900000I0J250000D01*
G01*
G37*
%TD*%
%TO.C,J302*%
G36*
G01*
X179105000Y-118784000D02*
X180305000Y-118784000D01*
G75*
G02*
X180555000Y-119034000I0J-250000D01*
G01*
X180555000Y-120234000D01*
G75*
G02*
X180305000Y-120484000I-250000J0D01*
G01*
X179105000Y-120484000D01*
G75*
G02*
X178855000Y-120234000I0J250000D01*
G01*
X178855000Y-119034000D01*
G75*
G02*
X179105000Y-118784000I250000J0D01*
G01*
G37*
D10*
X177165000Y-119634000D03*
X174625000Y-119634000D03*
X172085000Y-119634000D03*
X169545000Y-119634000D03*
X167005000Y-119634000D03*
X164465000Y-119634000D03*
X161925000Y-119634000D03*
X159385000Y-119634000D03*
X156845000Y-119634000D03*
X179705000Y-122174000D03*
X177165000Y-122174000D03*
X174625000Y-122174000D03*
X172085000Y-122174000D03*
X169545000Y-122174000D03*
X167005000Y-122174000D03*
X164465000Y-122174000D03*
X161925000Y-122174000D03*
X159385000Y-122174000D03*
X156845000Y-122174000D03*
%TD*%
%TO.C,J201*%
G36*
G01*
X142036000Y-97032000D02*
X142036000Y-94732000D01*
G75*
G02*
X142286000Y-94482000I250000J0D01*
G01*
X142786000Y-94482000D01*
G75*
G02*
X143036000Y-94732000I0J-250000D01*
G01*
X143036000Y-97032000D01*
G75*
G02*
X142786000Y-97282000I-250000J0D01*
G01*
X142286000Y-97282000D01*
G75*
G02*
X142036000Y-97032000I0J250000D01*
G01*
G37*
G36*
G01*
X134586000Y-97032000D02*
X134586000Y-94732000D01*
G75*
G02*
X134836000Y-94482000I250000J0D01*
G01*
X135336000Y-94482000D01*
G75*
G02*
X135586000Y-94732000I0J-250000D01*
G01*
X135586000Y-97032000D01*
G75*
G02*
X135336000Y-97282000I-250000J0D01*
G01*
X134836000Y-97282000D01*
G75*
G02*
X134586000Y-97032000I0J250000D01*
G01*
G37*
G36*
G01*
X140386000Y-99932000D02*
X140386000Y-98532000D01*
G75*
G02*
X140536000Y-98382000I150000J0D01*
G01*
X140836000Y-98382000D01*
G75*
G02*
X140986000Y-98532000I0J-150000D01*
G01*
X140986000Y-99932000D01*
G75*
G02*
X140836000Y-100082000I-150000J0D01*
G01*
X140536000Y-100082000D01*
G75*
G02*
X140386000Y-99932000I0J150000D01*
G01*
G37*
G36*
G01*
X139136000Y-99932000D02*
X139136000Y-98532000D01*
G75*
G02*
X139286000Y-98382000I150000J0D01*
G01*
X139586000Y-98382000D01*
G75*
G02*
X139736000Y-98532000I0J-150000D01*
G01*
X139736000Y-99932000D01*
G75*
G02*
X139586000Y-100082000I-150000J0D01*
G01*
X139286000Y-100082000D01*
G75*
G02*
X139136000Y-99932000I0J150000D01*
G01*
G37*
G36*
G01*
X137886000Y-99932000D02*
X137886000Y-98532000D01*
G75*
G02*
X138036000Y-98382000I150000J0D01*
G01*
X138336000Y-98382000D01*
G75*
G02*
X138486000Y-98532000I0J-150000D01*
G01*
X138486000Y-99932000D01*
G75*
G02*
X138336000Y-100082000I-150000J0D01*
G01*
X138036000Y-100082000D01*
G75*
G02*
X137886000Y-99932000I0J150000D01*
G01*
G37*
G36*
G01*
X136636000Y-99932000D02*
X136636000Y-98532000D01*
G75*
G02*
X136786000Y-98382000I150000J0D01*
G01*
X137086000Y-98382000D01*
G75*
G02*
X137236000Y-98532000I0J-150000D01*
G01*
X137236000Y-99932000D01*
G75*
G02*
X137086000Y-100082000I-150000J0D01*
G01*
X136786000Y-100082000D01*
G75*
G02*
X136636000Y-99932000I0J150000D01*
G01*
G37*
%TD*%
D11*
%TO.C,U1103*%
X138303000Y-141732000D03*
X140843000Y-141732000D03*
X143383000Y-141732000D03*
X145923000Y-141732000D03*
X148463000Y-141732000D03*
X135763000Y-141732000D03*
X135763000Y-139192000D03*
X138303000Y-139192000D03*
X140843000Y-139192000D03*
X143383000Y-139192000D03*
X145923000Y-139192000D03*
X148463000Y-139192000D03*
%TD*%
%TO.C,U1102*%
X116205000Y-139192000D03*
X113665000Y-139192000D03*
X111125000Y-139192000D03*
X108585000Y-139192000D03*
X106045000Y-139192000D03*
X103505000Y-139192000D03*
X103505000Y-141732000D03*
X116205000Y-141732000D03*
X113665000Y-141732000D03*
X111125000Y-141732000D03*
X108585000Y-141732000D03*
X106045000Y-141732000D03*
%TD*%
%TO.C,J401*%
G36*
G01*
X126856000Y-66574000D02*
X125456000Y-66574000D01*
G75*
G02*
X125306000Y-66424000I0J150000D01*
G01*
X125306000Y-66124000D01*
G75*
G02*
X125456000Y-65974000I150000J0D01*
G01*
X126856000Y-65974000D01*
G75*
G02*
X127006000Y-66124000I0J-150000D01*
G01*
X127006000Y-66424000D01*
G75*
G02*
X126856000Y-66574000I-150000J0D01*
G01*
G37*
G36*
G01*
X126856000Y-65324000D02*
X125456000Y-65324000D01*
G75*
G02*
X125306000Y-65174000I0J150000D01*
G01*
X125306000Y-64874000D01*
G75*
G02*
X125456000Y-64724000I150000J0D01*
G01*
X126856000Y-64724000D01*
G75*
G02*
X127006000Y-64874000I0J-150000D01*
G01*
X127006000Y-65174000D01*
G75*
G02*
X126856000Y-65324000I-150000J0D01*
G01*
G37*
G36*
G01*
X126856000Y-64074000D02*
X125456000Y-64074000D01*
G75*
G02*
X125306000Y-63924000I0J150000D01*
G01*
X125306000Y-63624000D01*
G75*
G02*
X125456000Y-63474000I150000J0D01*
G01*
X126856000Y-63474000D01*
G75*
G02*
X127006000Y-63624000I0J-150000D01*
G01*
X127006000Y-63924000D01*
G75*
G02*
X126856000Y-64074000I-150000J0D01*
G01*
G37*
G36*
G01*
X123956000Y-68624000D02*
X121656000Y-68624000D01*
G75*
G02*
X121406000Y-68374000I0J250000D01*
G01*
X121406000Y-67874000D01*
G75*
G02*
X121656000Y-67624000I250000J0D01*
G01*
X123956000Y-67624000D01*
G75*
G02*
X124206000Y-67874000I0J-250000D01*
G01*
X124206000Y-68374000D01*
G75*
G02*
X123956000Y-68624000I-250000J0D01*
G01*
G37*
G36*
G01*
X123956000Y-62424000D02*
X121656000Y-62424000D01*
G75*
G02*
X121406000Y-62174000I0J250000D01*
G01*
X121406000Y-61674000D01*
G75*
G02*
X121656000Y-61424000I250000J0D01*
G01*
X123956000Y-61424000D01*
G75*
G02*
X124206000Y-61674000I0J-250000D01*
G01*
X124206000Y-62174000D01*
G75*
G02*
X123956000Y-62424000I-250000J0D01*
G01*
G37*
%TD*%
%TO.C,J402*%
G36*
G01*
X118347000Y-66701000D02*
X116947000Y-66701000D01*
G75*
G02*
X116797000Y-66551000I0J150000D01*
G01*
X116797000Y-66251000D01*
G75*
G02*
X116947000Y-66101000I150000J0D01*
G01*
X118347000Y-66101000D01*
G75*
G02*
X118497000Y-66251000I0J-150000D01*
G01*
X118497000Y-66551000D01*
G75*
G02*
X118347000Y-66701000I-150000J0D01*
G01*
G37*
G36*
G01*
X118347000Y-65451000D02*
X116947000Y-65451000D01*
G75*
G02*
X116797000Y-65301000I0J150000D01*
G01*
X116797000Y-65001000D01*
G75*
G02*
X116947000Y-64851000I150000J0D01*
G01*
X118347000Y-64851000D01*
G75*
G02*
X118497000Y-65001000I0J-150000D01*
G01*
X118497000Y-65301000D01*
G75*
G02*
X118347000Y-65451000I-150000J0D01*
G01*
G37*
G36*
G01*
X118347000Y-64201000D02*
X116947000Y-64201000D01*
G75*
G02*
X116797000Y-64051000I0J150000D01*
G01*
X116797000Y-63751000D01*
G75*
G02*
X116947000Y-63601000I150000J0D01*
G01*
X118347000Y-63601000D01*
G75*
G02*
X118497000Y-63751000I0J-150000D01*
G01*
X118497000Y-64051000D01*
G75*
G02*
X118347000Y-64201000I-150000J0D01*
G01*
G37*
G36*
G01*
X115447000Y-68751000D02*
X113147000Y-68751000D01*
G75*
G02*
X112897000Y-68501000I0J250000D01*
G01*
X112897000Y-68001000D01*
G75*
G02*
X113147000Y-67751000I250000J0D01*
G01*
X115447000Y-67751000D01*
G75*
G02*
X115697000Y-68001000I0J-250000D01*
G01*
X115697000Y-68501000D01*
G75*
G02*
X115447000Y-68751000I-250000J0D01*
G01*
G37*
G36*
G01*
X115447000Y-62551000D02*
X113147000Y-62551000D01*
G75*
G02*
X112897000Y-62301000I0J250000D01*
G01*
X112897000Y-61801000D01*
G75*
G02*
X113147000Y-61551000I250000J0D01*
G01*
X115447000Y-61551000D01*
G75*
G02*
X115697000Y-61801000I0J-250000D01*
G01*
X115697000Y-62301000D01*
G75*
G02*
X115447000Y-62551000I-250000J0D01*
G01*
G37*
%TD*%
%TO.C,J403*%
G36*
G01*
X130743000Y-56900000D02*
X130743000Y-54600000D01*
G75*
G02*
X130993000Y-54350000I250000J0D01*
G01*
X131493000Y-54350000D01*
G75*
G02*
X131743000Y-54600000I0J-250000D01*
G01*
X131743000Y-56900000D01*
G75*
G02*
X131493000Y-57150000I-250000J0D01*
G01*
X130993000Y-57150000D01*
G75*
G02*
X130743000Y-56900000I0J250000D01*
G01*
G37*
G36*
G01*
X124543000Y-56900000D02*
X124543000Y-54600000D01*
G75*
G02*
X124793000Y-54350000I250000J0D01*
G01*
X125293000Y-54350000D01*
G75*
G02*
X125543000Y-54600000I0J-250000D01*
G01*
X125543000Y-56900000D01*
G75*
G02*
X125293000Y-57150000I-250000J0D01*
G01*
X124793000Y-57150000D01*
G75*
G02*
X124543000Y-56900000I0J250000D01*
G01*
G37*
G36*
G01*
X129093000Y-59800000D02*
X129093000Y-58400000D01*
G75*
G02*
X129243000Y-58250000I150000J0D01*
G01*
X129543000Y-58250000D01*
G75*
G02*
X129693000Y-58400000I0J-150000D01*
G01*
X129693000Y-59800000D01*
G75*
G02*
X129543000Y-59950000I-150000J0D01*
G01*
X129243000Y-59950000D01*
G75*
G02*
X129093000Y-59800000I0J150000D01*
G01*
G37*
G36*
G01*
X127843000Y-59800000D02*
X127843000Y-58400000D01*
G75*
G02*
X127993000Y-58250000I150000J0D01*
G01*
X128293000Y-58250000D01*
G75*
G02*
X128443000Y-58400000I0J-150000D01*
G01*
X128443000Y-59800000D01*
G75*
G02*
X128293000Y-59950000I-150000J0D01*
G01*
X127993000Y-59950000D01*
G75*
G02*
X127843000Y-59800000I0J150000D01*
G01*
G37*
G36*
G01*
X126593000Y-59800000D02*
X126593000Y-58400000D01*
G75*
G02*
X126743000Y-58250000I150000J0D01*
G01*
X127043000Y-58250000D01*
G75*
G02*
X127193000Y-58400000I0J-150000D01*
G01*
X127193000Y-59800000D01*
G75*
G02*
X127043000Y-59950000I-150000J0D01*
G01*
X126743000Y-59950000D01*
G75*
G02*
X126593000Y-59800000I0J150000D01*
G01*
G37*
%TD*%
%TO.C,J404*%
G36*
G01*
X117957000Y-59800000D02*
X117957000Y-58400000D01*
G75*
G02*
X118107000Y-58250000I150000J0D01*
G01*
X118407000Y-58250000D01*
G75*
G02*
X118557000Y-58400000I0J-150000D01*
G01*
X118557000Y-59800000D01*
G75*
G02*
X118407000Y-59950000I-150000J0D01*
G01*
X118107000Y-59950000D01*
G75*
G02*
X117957000Y-59800000I0J150000D01*
G01*
G37*
G36*
G01*
X119207000Y-59800000D02*
X119207000Y-58400000D01*
G75*
G02*
X119357000Y-58250000I150000J0D01*
G01*
X119657000Y-58250000D01*
G75*
G02*
X119807000Y-58400000I0J-150000D01*
G01*
X119807000Y-59800000D01*
G75*
G02*
X119657000Y-59950000I-150000J0D01*
G01*
X119357000Y-59950000D01*
G75*
G02*
X119207000Y-59800000I0J150000D01*
G01*
G37*
G36*
G01*
X120457000Y-59800000D02*
X120457000Y-58400000D01*
G75*
G02*
X120607000Y-58250000I150000J0D01*
G01*
X120907000Y-58250000D01*
G75*
G02*
X121057000Y-58400000I0J-150000D01*
G01*
X121057000Y-59800000D01*
G75*
G02*
X120907000Y-59950000I-150000J0D01*
G01*
X120607000Y-59950000D01*
G75*
G02*
X120457000Y-59800000I0J150000D01*
G01*
G37*
G36*
G01*
X115907000Y-56900000D02*
X115907000Y-54600000D01*
G75*
G02*
X116157000Y-54350000I250000J0D01*
G01*
X116657000Y-54350000D01*
G75*
G02*
X116907000Y-54600000I0J-250000D01*
G01*
X116907000Y-56900000D01*
G75*
G02*
X116657000Y-57150000I-250000J0D01*
G01*
X116157000Y-57150000D01*
G75*
G02*
X115907000Y-56900000I0J250000D01*
G01*
G37*
G36*
G01*
X122107000Y-56900000D02*
X122107000Y-54600000D01*
G75*
G02*
X122357000Y-54350000I250000J0D01*
G01*
X122857000Y-54350000D01*
G75*
G02*
X123107000Y-54600000I0J-250000D01*
G01*
X123107000Y-56900000D01*
G75*
G02*
X122857000Y-57150000I-250000J0D01*
G01*
X122357000Y-57150000D01*
G75*
G02*
X122107000Y-56900000I0J250000D01*
G01*
G37*
%TD*%
%TO.C,J405*%
G36*
G01*
X113471000Y-56900000D02*
X113471000Y-54600000D01*
G75*
G02*
X113721000Y-54350000I250000J0D01*
G01*
X114221000Y-54350000D01*
G75*
G02*
X114471000Y-54600000I0J-250000D01*
G01*
X114471000Y-56900000D01*
G75*
G02*
X114221000Y-57150000I-250000J0D01*
G01*
X113721000Y-57150000D01*
G75*
G02*
X113471000Y-56900000I0J250000D01*
G01*
G37*
G36*
G01*
X107271000Y-56900000D02*
X107271000Y-54600000D01*
G75*
G02*
X107521000Y-54350000I250000J0D01*
G01*
X108021000Y-54350000D01*
G75*
G02*
X108271000Y-54600000I0J-250000D01*
G01*
X108271000Y-56900000D01*
G75*
G02*
X108021000Y-57150000I-250000J0D01*
G01*
X107521000Y-57150000D01*
G75*
G02*
X107271000Y-56900000I0J250000D01*
G01*
G37*
G36*
G01*
X111821000Y-59800000D02*
X111821000Y-58400000D01*
G75*
G02*
X111971000Y-58250000I150000J0D01*
G01*
X112271000Y-58250000D01*
G75*
G02*
X112421000Y-58400000I0J-150000D01*
G01*
X112421000Y-59800000D01*
G75*
G02*
X112271000Y-59950000I-150000J0D01*
G01*
X111971000Y-59950000D01*
G75*
G02*
X111821000Y-59800000I0J150000D01*
G01*
G37*
G36*
G01*
X110571000Y-59800000D02*
X110571000Y-58400000D01*
G75*
G02*
X110721000Y-58250000I150000J0D01*
G01*
X111021000Y-58250000D01*
G75*
G02*
X111171000Y-58400000I0J-150000D01*
G01*
X111171000Y-59800000D01*
G75*
G02*
X111021000Y-59950000I-150000J0D01*
G01*
X110721000Y-59950000D01*
G75*
G02*
X110571000Y-59800000I0J150000D01*
G01*
G37*
G36*
G01*
X109321000Y-59800000D02*
X109321000Y-58400000D01*
G75*
G02*
X109471000Y-58250000I150000J0D01*
G01*
X109771000Y-58250000D01*
G75*
G02*
X109921000Y-58400000I0J-150000D01*
G01*
X109921000Y-59800000D01*
G75*
G02*
X109771000Y-59950000I-150000J0D01*
G01*
X109471000Y-59950000D01*
G75*
G02*
X109321000Y-59800000I0J150000D01*
G01*
G37*
%TD*%
%TO.C,J603*%
G36*
G01*
X134751000Y-90153000D02*
X134751000Y-88753000D01*
G75*
G02*
X134901000Y-88603000I150000J0D01*
G01*
X135201000Y-88603000D01*
G75*
G02*
X135351000Y-88753000I0J-150000D01*
G01*
X135351000Y-90153000D01*
G75*
G02*
X135201000Y-90303000I-150000J0D01*
G01*
X134901000Y-90303000D01*
G75*
G02*
X134751000Y-90153000I0J150000D01*
G01*
G37*
G36*
G01*
X136001000Y-90153000D02*
X136001000Y-88753000D01*
G75*
G02*
X136151000Y-88603000I150000J0D01*
G01*
X136451000Y-88603000D01*
G75*
G02*
X136601000Y-88753000I0J-150000D01*
G01*
X136601000Y-90153000D01*
G75*
G02*
X136451000Y-90303000I-150000J0D01*
G01*
X136151000Y-90303000D01*
G75*
G02*
X136001000Y-90153000I0J150000D01*
G01*
G37*
G36*
G01*
X137251000Y-90153000D02*
X137251000Y-88753000D01*
G75*
G02*
X137401000Y-88603000I150000J0D01*
G01*
X137701000Y-88603000D01*
G75*
G02*
X137851000Y-88753000I0J-150000D01*
G01*
X137851000Y-90153000D01*
G75*
G02*
X137701000Y-90303000I-150000J0D01*
G01*
X137401000Y-90303000D01*
G75*
G02*
X137251000Y-90153000I0J150000D01*
G01*
G37*
G36*
G01*
X138501000Y-90153000D02*
X138501000Y-88753000D01*
G75*
G02*
X138651000Y-88603000I150000J0D01*
G01*
X138951000Y-88603000D01*
G75*
G02*
X139101000Y-88753000I0J-150000D01*
G01*
X139101000Y-90153000D01*
G75*
G02*
X138951000Y-90303000I-150000J0D01*
G01*
X138651000Y-90303000D01*
G75*
G02*
X138501000Y-90153000I0J150000D01*
G01*
G37*
G36*
G01*
X139751000Y-90153000D02*
X139751000Y-88753000D01*
G75*
G02*
X139901000Y-88603000I150000J0D01*
G01*
X140201000Y-88603000D01*
G75*
G02*
X140351000Y-88753000I0J-150000D01*
G01*
X140351000Y-90153000D01*
G75*
G02*
X140201000Y-90303000I-150000J0D01*
G01*
X139901000Y-90303000D01*
G75*
G02*
X139751000Y-90153000I0J150000D01*
G01*
G37*
G36*
G01*
X141001000Y-90153000D02*
X141001000Y-88753000D01*
G75*
G02*
X141151000Y-88603000I150000J0D01*
G01*
X141451000Y-88603000D01*
G75*
G02*
X141601000Y-88753000I0J-150000D01*
G01*
X141601000Y-90153000D01*
G75*
G02*
X141451000Y-90303000I-150000J0D01*
G01*
X141151000Y-90303000D01*
G75*
G02*
X141001000Y-90153000I0J150000D01*
G01*
G37*
G36*
G01*
X132701000Y-87253000D02*
X132701000Y-84953000D01*
G75*
G02*
X132951000Y-84703000I250000J0D01*
G01*
X133451000Y-84703000D01*
G75*
G02*
X133701000Y-84953000I0J-250000D01*
G01*
X133701000Y-87253000D01*
G75*
G02*
X133451000Y-87503000I-250000J0D01*
G01*
X132951000Y-87503000D01*
G75*
G02*
X132701000Y-87253000I0J250000D01*
G01*
G37*
G36*
G01*
X142651000Y-87253000D02*
X142651000Y-84953000D01*
G75*
G02*
X142901000Y-84703000I250000J0D01*
G01*
X143401000Y-84703000D01*
G75*
G02*
X143651000Y-84953000I0J-250000D01*
G01*
X143651000Y-87253000D01*
G75*
G02*
X143401000Y-87503000I-250000J0D01*
G01*
X142901000Y-87503000D01*
G75*
G02*
X142651000Y-87253000I0J250000D01*
G01*
G37*
%TD*%
D12*
%TO.C,J1001*%
X177419000Y-107696000D03*
X179959000Y-107696000D03*
X177419000Y-105156000D03*
X179959000Y-105156000D03*
X177419000Y-102616000D03*
X179959000Y-102616000D03*
X177419000Y-100076000D03*
X179959000Y-100076000D03*
X177419000Y-97536000D03*
X179959000Y-97536000D03*
X177419000Y-94996000D03*
X179959000Y-94996000D03*
X177419000Y-92456000D03*
X179959000Y-92456000D03*
X177419000Y-89916000D03*
X179959000Y-89916000D03*
X177419000Y-87376000D03*
X179959000Y-87376000D03*
X177419000Y-84836000D03*
X179959000Y-84836000D03*
X177419000Y-82296000D03*
X179959000Y-82296000D03*
X177419000Y-79756000D03*
X179959000Y-79756000D03*
X177419000Y-77216000D03*
X179959000Y-77216000D03*
X177419000Y-74676000D03*
X179959000Y-74676000D03*
X177419000Y-72136000D03*
X179959000Y-72136000D03*
X177419000Y-69596000D03*
X179959000Y-69596000D03*
X177419000Y-67056000D03*
X179959000Y-67056000D03*
X177419000Y-64516000D03*
X179959000Y-64516000D03*
X177419000Y-61976000D03*
X179959000Y-61976000D03*
X177419000Y-59436000D03*
D13*
X179959000Y-59436000D03*
%TD*%
%TO.C,J1002*%
X102489000Y-59436000D03*
D12*
X99949000Y-59436000D03*
X102489000Y-61976000D03*
X99949000Y-61976000D03*
X102489000Y-64516000D03*
X99949000Y-64516000D03*
X102489000Y-67056000D03*
X99949000Y-67056000D03*
X102489000Y-69596000D03*
X99949000Y-69596000D03*
X102489000Y-72136000D03*
X99949000Y-72136000D03*
X102489000Y-74676000D03*
X99949000Y-74676000D03*
X102489000Y-77216000D03*
X99949000Y-77216000D03*
X102489000Y-79756000D03*
X99949000Y-79756000D03*
X102489000Y-82296000D03*
X99949000Y-82296000D03*
X102489000Y-84836000D03*
X99949000Y-84836000D03*
X102489000Y-87376000D03*
X99949000Y-87376000D03*
X102489000Y-89916000D03*
X99949000Y-89916000D03*
X102489000Y-92456000D03*
X99949000Y-92456000D03*
X102489000Y-94996000D03*
X99949000Y-94996000D03*
X102489000Y-97536000D03*
X99949000Y-97536000D03*
X102489000Y-100076000D03*
X99949000Y-100076000D03*
X102489000Y-102616000D03*
X99949000Y-102616000D03*
X102489000Y-105156000D03*
X99949000Y-105156000D03*
X102489000Y-107696000D03*
X99949000Y-107696000D03*
%TD*%
D14*
%TO.C,Q301*%
X170053000Y-91424000D03*
X169103000Y-89424000D03*
X171003000Y-89424000D03*
%TD*%
%TO.C,Q302*%
X170373000Y-96996000D03*
X169423000Y-94996000D03*
X171323000Y-94996000D03*
%TD*%
D15*
%TO.C,Q303*%
X170291000Y-82230000D03*
X170291000Y-80330000D03*
X168291000Y-81280000D03*
%TD*%
%TO.C,Q304*%
X169053000Y-86360000D03*
X171053000Y-85410000D03*
X171053000Y-87310000D03*
%TD*%
%TO.C,R302*%
G36*
G01*
X168954000Y-93493000D02*
X168954000Y-92943000D01*
G75*
G02*
X169154000Y-92743000I200000J0D01*
G01*
X169554000Y-92743000D01*
G75*
G02*
X169754000Y-92943000I0J-200000D01*
G01*
X169754000Y-93493000D01*
G75*
G02*
X169554000Y-93693000I-200000J0D01*
G01*
X169154000Y-93693000D01*
G75*
G02*
X168954000Y-93493000I0J200000D01*
G01*
G37*
G36*
G01*
X167304000Y-93493000D02*
X167304000Y-92943000D01*
G75*
G02*
X167504000Y-92743000I200000J0D01*
G01*
X167904000Y-92743000D01*
G75*
G02*
X168104000Y-92943000I0J-200000D01*
G01*
X168104000Y-93493000D01*
G75*
G02*
X167904000Y-93693000I-200000J0D01*
G01*
X167504000Y-93693000D01*
G75*
G02*
X167304000Y-93493000I0J200000D01*
G01*
G37*
%TD*%
%TO.C,R304*%
G36*
G01*
X167492000Y-96437000D02*
X168042000Y-96437000D01*
G75*
G02*
X168242000Y-96637000I0J-200000D01*
G01*
X168242000Y-97037000D01*
G75*
G02*
X168042000Y-97237000I-200000J0D01*
G01*
X167492000Y-97237000D01*
G75*
G02*
X167292000Y-97037000I0J200000D01*
G01*
X167292000Y-96637000D01*
G75*
G02*
X167492000Y-96437000I200000J0D01*
G01*
G37*
G36*
G01*
X167492000Y-94787000D02*
X168042000Y-94787000D01*
G75*
G02*
X168242000Y-94987000I0J-200000D01*
G01*
X168242000Y-95387000D01*
G75*
G02*
X168042000Y-95587000I-200000J0D01*
G01*
X167492000Y-95587000D01*
G75*
G02*
X167292000Y-95387000I0J200000D01*
G01*
X167292000Y-94987000D01*
G75*
G02*
X167492000Y-94787000I200000J0D01*
G01*
G37*
%TD*%
%TO.C,R306*%
G36*
G01*
X166222000Y-80246000D02*
X166772000Y-80246000D01*
G75*
G02*
X166972000Y-80446000I0J-200000D01*
G01*
X166972000Y-80846000D01*
G75*
G02*
X166772000Y-81046000I-200000J0D01*
G01*
X166222000Y-81046000D01*
G75*
G02*
X166022000Y-80846000I0J200000D01*
G01*
X166022000Y-80446000D01*
G75*
G02*
X166222000Y-80246000I200000J0D01*
G01*
G37*
G36*
G01*
X166222000Y-81896000D02*
X166772000Y-81896000D01*
G75*
G02*
X166972000Y-82096000I0J-200000D01*
G01*
X166972000Y-82496000D01*
G75*
G02*
X166772000Y-82696000I-200000J0D01*
G01*
X166222000Y-82696000D01*
G75*
G02*
X166022000Y-82496000I0J200000D01*
G01*
X166022000Y-82096000D01*
G75*
G02*
X166222000Y-81896000I200000J0D01*
G01*
G37*
%TD*%
%TO.C,R308*%
G36*
G01*
X167788000Y-86823000D02*
X167238000Y-86823000D01*
G75*
G02*
X167038000Y-86623000I0J200000D01*
G01*
X167038000Y-86223000D01*
G75*
G02*
X167238000Y-86023000I200000J0D01*
G01*
X167788000Y-86023000D01*
G75*
G02*
X167988000Y-86223000I0J-200000D01*
G01*
X167988000Y-86623000D01*
G75*
G02*
X167788000Y-86823000I-200000J0D01*
G01*
G37*
G36*
G01*
X167788000Y-85173000D02*
X167238000Y-85173000D01*
G75*
G02*
X167038000Y-84973000I0J200000D01*
G01*
X167038000Y-84573000D01*
G75*
G02*
X167238000Y-84373000I200000J0D01*
G01*
X167788000Y-84373000D01*
G75*
G02*
X167988000Y-84573000I0J-200000D01*
G01*
X167988000Y-84973000D01*
G75*
G02*
X167788000Y-85173000I-200000J0D01*
G01*
G37*
%TD*%
%TO.C,J202*%
G36*
G01*
X136636000Y-110092000D02*
X136636000Y-108692000D01*
G75*
G02*
X136786000Y-108542000I150000J0D01*
G01*
X137086000Y-108542000D01*
G75*
G02*
X137236000Y-108692000I0J-150000D01*
G01*
X137236000Y-110092000D01*
G75*
G02*
X137086000Y-110242000I-150000J0D01*
G01*
X136786000Y-110242000D01*
G75*
G02*
X136636000Y-110092000I0J150000D01*
G01*
G37*
G36*
G01*
X137886000Y-110092000D02*
X137886000Y-108692000D01*
G75*
G02*
X138036000Y-108542000I150000J0D01*
G01*
X138336000Y-108542000D01*
G75*
G02*
X138486000Y-108692000I0J-150000D01*
G01*
X138486000Y-110092000D01*
G75*
G02*
X138336000Y-110242000I-150000J0D01*
G01*
X138036000Y-110242000D01*
G75*
G02*
X137886000Y-110092000I0J150000D01*
G01*
G37*
G36*
G01*
X139136000Y-110092000D02*
X139136000Y-108692000D01*
G75*
G02*
X139286000Y-108542000I150000J0D01*
G01*
X139586000Y-108542000D01*
G75*
G02*
X139736000Y-108692000I0J-150000D01*
G01*
X139736000Y-110092000D01*
G75*
G02*
X139586000Y-110242000I-150000J0D01*
G01*
X139286000Y-110242000D01*
G75*
G02*
X139136000Y-110092000I0J150000D01*
G01*
G37*
G36*
G01*
X140386000Y-110092000D02*
X140386000Y-108692000D01*
G75*
G02*
X140536000Y-108542000I150000J0D01*
G01*
X140836000Y-108542000D01*
G75*
G02*
X140986000Y-108692000I0J-150000D01*
G01*
X140986000Y-110092000D01*
G75*
G02*
X140836000Y-110242000I-150000J0D01*
G01*
X140536000Y-110242000D01*
G75*
G02*
X140386000Y-110092000I0J150000D01*
G01*
G37*
G36*
G01*
X134586000Y-107192000D02*
X134586000Y-104892000D01*
G75*
G02*
X134836000Y-104642000I250000J0D01*
G01*
X135336000Y-104642000D01*
G75*
G02*
X135586000Y-104892000I0J-250000D01*
G01*
X135586000Y-107192000D01*
G75*
G02*
X135336000Y-107442000I-250000J0D01*
G01*
X134836000Y-107442000D01*
G75*
G02*
X134586000Y-107192000I0J250000D01*
G01*
G37*
G36*
G01*
X142036000Y-107192000D02*
X142036000Y-104892000D01*
G75*
G02*
X142286000Y-104642000I250000J0D01*
G01*
X142786000Y-104642000D01*
G75*
G02*
X143036000Y-104892000I0J-250000D01*
G01*
X143036000Y-107192000D01*
G75*
G02*
X142786000Y-107442000I-250000J0D01*
G01*
X142286000Y-107442000D01*
G75*
G02*
X142036000Y-107192000I0J250000D01*
G01*
G37*
%TD*%
%TO.C,J203*%
G36*
G01*
X136636000Y-119998000D02*
X136636000Y-118598000D01*
G75*
G02*
X136786000Y-118448000I150000J0D01*
G01*
X137086000Y-118448000D01*
G75*
G02*
X137236000Y-118598000I0J-150000D01*
G01*
X137236000Y-119998000D01*
G75*
G02*
X137086000Y-120148000I-150000J0D01*
G01*
X136786000Y-120148000D01*
G75*
G02*
X136636000Y-119998000I0J150000D01*
G01*
G37*
G36*
G01*
X137886000Y-119998000D02*
X137886000Y-118598000D01*
G75*
G02*
X138036000Y-118448000I150000J0D01*
G01*
X138336000Y-118448000D01*
G75*
G02*
X138486000Y-118598000I0J-150000D01*
G01*
X138486000Y-119998000D01*
G75*
G02*
X138336000Y-120148000I-150000J0D01*
G01*
X138036000Y-120148000D01*
G75*
G02*
X137886000Y-119998000I0J150000D01*
G01*
G37*
G36*
G01*
X139136000Y-119998000D02*
X139136000Y-118598000D01*
G75*
G02*
X139286000Y-118448000I150000J0D01*
G01*
X139586000Y-118448000D01*
G75*
G02*
X139736000Y-118598000I0J-150000D01*
G01*
X139736000Y-119998000D01*
G75*
G02*
X139586000Y-120148000I-150000J0D01*
G01*
X139286000Y-120148000D01*
G75*
G02*
X139136000Y-119998000I0J150000D01*
G01*
G37*
G36*
G01*
X140386000Y-119998000D02*
X140386000Y-118598000D01*
G75*
G02*
X140536000Y-118448000I150000J0D01*
G01*
X140836000Y-118448000D01*
G75*
G02*
X140986000Y-118598000I0J-150000D01*
G01*
X140986000Y-119998000D01*
G75*
G02*
X140836000Y-120148000I-150000J0D01*
G01*
X140536000Y-120148000D01*
G75*
G02*
X140386000Y-119998000I0J150000D01*
G01*
G37*
G36*
G01*
X134586000Y-117098000D02*
X134586000Y-114798000D01*
G75*
G02*
X134836000Y-114548000I250000J0D01*
G01*
X135336000Y-114548000D01*
G75*
G02*
X135586000Y-114798000I0J-250000D01*
G01*
X135586000Y-117098000D01*
G75*
G02*
X135336000Y-117348000I-250000J0D01*
G01*
X134836000Y-117348000D01*
G75*
G02*
X134586000Y-117098000I0J250000D01*
G01*
G37*
G36*
G01*
X142036000Y-117098000D02*
X142036000Y-114798000D01*
G75*
G02*
X142286000Y-114548000I250000J0D01*
G01*
X142786000Y-114548000D01*
G75*
G02*
X143036000Y-114798000I0J-250000D01*
G01*
X143036000Y-117098000D01*
G75*
G02*
X142786000Y-117348000I-250000J0D01*
G01*
X142286000Y-117348000D01*
G75*
G02*
X142036000Y-117098000I0J250000D01*
G01*
G37*
%TD*%
%TO.C,J901*%
G36*
G01*
X154309000Y-75769000D02*
X152009000Y-75769000D01*
G75*
G02*
X151759000Y-75519000I0J250000D01*
G01*
X151759000Y-75019000D01*
G75*
G02*
X152009000Y-74769000I250000J0D01*
G01*
X154309000Y-74769000D01*
G75*
G02*
X154559000Y-75019000I0J-250000D01*
G01*
X154559000Y-75519000D01*
G75*
G02*
X154309000Y-75769000I-250000J0D01*
G01*
G37*
G36*
G01*
X154309000Y-83219000D02*
X152009000Y-83219000D01*
G75*
G02*
X151759000Y-82969000I0J250000D01*
G01*
X151759000Y-82469000D01*
G75*
G02*
X152009000Y-82219000I250000J0D01*
G01*
X154309000Y-82219000D01*
G75*
G02*
X154559000Y-82469000I0J-250000D01*
G01*
X154559000Y-82969000D01*
G75*
G02*
X154309000Y-83219000I-250000J0D01*
G01*
G37*
G36*
G01*
X157209000Y-77419000D02*
X155809000Y-77419000D01*
G75*
G02*
X155659000Y-77269000I0J150000D01*
G01*
X155659000Y-76969000D01*
G75*
G02*
X155809000Y-76819000I150000J0D01*
G01*
X157209000Y-76819000D01*
G75*
G02*
X157359000Y-76969000I0J-150000D01*
G01*
X157359000Y-77269000D01*
G75*
G02*
X157209000Y-77419000I-150000J0D01*
G01*
G37*
G36*
G01*
X157209000Y-78669000D02*
X155809000Y-78669000D01*
G75*
G02*
X155659000Y-78519000I0J150000D01*
G01*
X155659000Y-78219000D01*
G75*
G02*
X155809000Y-78069000I150000J0D01*
G01*
X157209000Y-78069000D01*
G75*
G02*
X157359000Y-78219000I0J-150000D01*
G01*
X157359000Y-78519000D01*
G75*
G02*
X157209000Y-78669000I-150000J0D01*
G01*
G37*
G36*
G01*
X157209000Y-79919000D02*
X155809000Y-79919000D01*
G75*
G02*
X155659000Y-79769000I0J150000D01*
G01*
X155659000Y-79469000D01*
G75*
G02*
X155809000Y-79319000I150000J0D01*
G01*
X157209000Y-79319000D01*
G75*
G02*
X157359000Y-79469000I0J-150000D01*
G01*
X157359000Y-79769000D01*
G75*
G02*
X157209000Y-79919000I-150000J0D01*
G01*
G37*
G36*
G01*
X157209000Y-81169000D02*
X155809000Y-81169000D01*
G75*
G02*
X155659000Y-81019000I0J150000D01*
G01*
X155659000Y-80719000D01*
G75*
G02*
X155809000Y-80569000I150000J0D01*
G01*
X157209000Y-80569000D01*
G75*
G02*
X157359000Y-80719000I0J-150000D01*
G01*
X157359000Y-81019000D01*
G75*
G02*
X157209000Y-81169000I-150000J0D01*
G01*
G37*
%TD*%
%TO.C,J902*%
G36*
G01*
X157209000Y-90821000D02*
X155809000Y-90821000D01*
G75*
G02*
X155659000Y-90671000I0J150000D01*
G01*
X155659000Y-90371000D01*
G75*
G02*
X155809000Y-90221000I150000J0D01*
G01*
X157209000Y-90221000D01*
G75*
G02*
X157359000Y-90371000I0J-150000D01*
G01*
X157359000Y-90671000D01*
G75*
G02*
X157209000Y-90821000I-150000J0D01*
G01*
G37*
G36*
G01*
X157209000Y-89571000D02*
X155809000Y-89571000D01*
G75*
G02*
X155659000Y-89421000I0J150000D01*
G01*
X155659000Y-89121000D01*
G75*
G02*
X155809000Y-88971000I150000J0D01*
G01*
X157209000Y-88971000D01*
G75*
G02*
X157359000Y-89121000I0J-150000D01*
G01*
X157359000Y-89421000D01*
G75*
G02*
X157209000Y-89571000I-150000J0D01*
G01*
G37*
G36*
G01*
X157209000Y-88321000D02*
X155809000Y-88321000D01*
G75*
G02*
X155659000Y-88171000I0J150000D01*
G01*
X155659000Y-87871000D01*
G75*
G02*
X155809000Y-87721000I150000J0D01*
G01*
X157209000Y-87721000D01*
G75*
G02*
X157359000Y-87871000I0J-150000D01*
G01*
X157359000Y-88171000D01*
G75*
G02*
X157209000Y-88321000I-150000J0D01*
G01*
G37*
G36*
G01*
X157209000Y-87071000D02*
X155809000Y-87071000D01*
G75*
G02*
X155659000Y-86921000I0J150000D01*
G01*
X155659000Y-86621000D01*
G75*
G02*
X155809000Y-86471000I150000J0D01*
G01*
X157209000Y-86471000D01*
G75*
G02*
X157359000Y-86621000I0J-150000D01*
G01*
X157359000Y-86921000D01*
G75*
G02*
X157209000Y-87071000I-150000J0D01*
G01*
G37*
G36*
G01*
X154309000Y-92871000D02*
X152009000Y-92871000D01*
G75*
G02*
X151759000Y-92621000I0J250000D01*
G01*
X151759000Y-92121000D01*
G75*
G02*
X152009000Y-91871000I250000J0D01*
G01*
X154309000Y-91871000D01*
G75*
G02*
X154559000Y-92121000I0J-250000D01*
G01*
X154559000Y-92621000D01*
G75*
G02*
X154309000Y-92871000I-250000J0D01*
G01*
G37*
G36*
G01*
X154309000Y-85421000D02*
X152009000Y-85421000D01*
G75*
G02*
X151759000Y-85171000I0J250000D01*
G01*
X151759000Y-84671000D01*
G75*
G02*
X152009000Y-84421000I250000J0D01*
G01*
X154309000Y-84421000D01*
G75*
G02*
X154559000Y-84671000I0J-250000D01*
G01*
X154559000Y-85171000D01*
G75*
G02*
X154309000Y-85421000I-250000J0D01*
G01*
G37*
%TD*%
%TO.C,J903*%
G36*
G01*
X157209000Y-100473000D02*
X155809000Y-100473000D01*
G75*
G02*
X155659000Y-100323000I0J150000D01*
G01*
X155659000Y-100023000D01*
G75*
G02*
X155809000Y-99873000I150000J0D01*
G01*
X157209000Y-99873000D01*
G75*
G02*
X157359000Y-100023000I0J-150000D01*
G01*
X157359000Y-100323000D01*
G75*
G02*
X157209000Y-100473000I-150000J0D01*
G01*
G37*
G36*
G01*
X157209000Y-99223000D02*
X155809000Y-99223000D01*
G75*
G02*
X155659000Y-99073000I0J150000D01*
G01*
X155659000Y-98773000D01*
G75*
G02*
X155809000Y-98623000I150000J0D01*
G01*
X157209000Y-98623000D01*
G75*
G02*
X157359000Y-98773000I0J-150000D01*
G01*
X157359000Y-99073000D01*
G75*
G02*
X157209000Y-99223000I-150000J0D01*
G01*
G37*
G36*
G01*
X157209000Y-97973000D02*
X155809000Y-97973000D01*
G75*
G02*
X155659000Y-97823000I0J150000D01*
G01*
X155659000Y-97523000D01*
G75*
G02*
X155809000Y-97373000I150000J0D01*
G01*
X157209000Y-97373000D01*
G75*
G02*
X157359000Y-97523000I0J-150000D01*
G01*
X157359000Y-97823000D01*
G75*
G02*
X157209000Y-97973000I-150000J0D01*
G01*
G37*
G36*
G01*
X157209000Y-96723000D02*
X155809000Y-96723000D01*
G75*
G02*
X155659000Y-96573000I0J150000D01*
G01*
X155659000Y-96273000D01*
G75*
G02*
X155809000Y-96123000I150000J0D01*
G01*
X157209000Y-96123000D01*
G75*
G02*
X157359000Y-96273000I0J-150000D01*
G01*
X157359000Y-96573000D01*
G75*
G02*
X157209000Y-96723000I-150000J0D01*
G01*
G37*
G36*
G01*
X154309000Y-102523000D02*
X152009000Y-102523000D01*
G75*
G02*
X151759000Y-102273000I0J250000D01*
G01*
X151759000Y-101773000D01*
G75*
G02*
X152009000Y-101523000I250000J0D01*
G01*
X154309000Y-101523000D01*
G75*
G02*
X154559000Y-101773000I0J-250000D01*
G01*
X154559000Y-102273000D01*
G75*
G02*
X154309000Y-102523000I-250000J0D01*
G01*
G37*
G36*
G01*
X154309000Y-95073000D02*
X152009000Y-95073000D01*
G75*
G02*
X151759000Y-94823000I0J250000D01*
G01*
X151759000Y-94323000D01*
G75*
G02*
X152009000Y-94073000I250000J0D01*
G01*
X154309000Y-94073000D01*
G75*
G02*
X154559000Y-94323000I0J-250000D01*
G01*
X154559000Y-94823000D01*
G75*
G02*
X154309000Y-95073000I-250000J0D01*
G01*
G37*
%TD*%
%TO.C,J1013*%
G36*
G01*
X141919000Y-57154000D02*
X141919000Y-54854000D01*
G75*
G02*
X142169000Y-54604000I250000J0D01*
G01*
X142669000Y-54604000D01*
G75*
G02*
X142919000Y-54854000I0J-250000D01*
G01*
X142919000Y-57154000D01*
G75*
G02*
X142669000Y-57404000I-250000J0D01*
G01*
X142169000Y-57404000D01*
G75*
G02*
X141919000Y-57154000I0J250000D01*
G01*
G37*
G36*
G01*
X135719000Y-57154000D02*
X135719000Y-54854000D01*
G75*
G02*
X135969000Y-54604000I250000J0D01*
G01*
X136469000Y-54604000D01*
G75*
G02*
X136719000Y-54854000I0J-250000D01*
G01*
X136719000Y-57154000D01*
G75*
G02*
X136469000Y-57404000I-250000J0D01*
G01*
X135969000Y-57404000D01*
G75*
G02*
X135719000Y-57154000I0J250000D01*
G01*
G37*
G36*
G01*
X140269000Y-60054000D02*
X140269000Y-58654000D01*
G75*
G02*
X140419000Y-58504000I150000J0D01*
G01*
X140719000Y-58504000D01*
G75*
G02*
X140869000Y-58654000I0J-150000D01*
G01*
X140869000Y-60054000D01*
G75*
G02*
X140719000Y-60204000I-150000J0D01*
G01*
X140419000Y-60204000D01*
G75*
G02*
X140269000Y-60054000I0J150000D01*
G01*
G37*
G36*
G01*
X139019000Y-60054000D02*
X139019000Y-58654000D01*
G75*
G02*
X139169000Y-58504000I150000J0D01*
G01*
X139469000Y-58504000D01*
G75*
G02*
X139619000Y-58654000I0J-150000D01*
G01*
X139619000Y-60054000D01*
G75*
G02*
X139469000Y-60204000I-150000J0D01*
G01*
X139169000Y-60204000D01*
G75*
G02*
X139019000Y-60054000I0J150000D01*
G01*
G37*
G36*
G01*
X137769000Y-60054000D02*
X137769000Y-58654000D01*
G75*
G02*
X137919000Y-58504000I150000J0D01*
G01*
X138219000Y-58504000D01*
G75*
G02*
X138369000Y-58654000I0J-150000D01*
G01*
X138369000Y-60054000D01*
G75*
G02*
X138219000Y-60204000I-150000J0D01*
G01*
X137919000Y-60204000D01*
G75*
G02*
X137769000Y-60054000I0J150000D01*
G01*
G37*
%TD*%
%TO.C,K701*%
G36*
G01*
X157357000Y-55820000D02*
X155057000Y-55820000D01*
G75*
G02*
X154807000Y-55570000I0J250000D01*
G01*
X154807000Y-55070000D01*
G75*
G02*
X155057000Y-54820000I250000J0D01*
G01*
X157357000Y-54820000D01*
G75*
G02*
X157607000Y-55070000I0J-250000D01*
G01*
X157607000Y-55570000D01*
G75*
G02*
X157357000Y-55820000I-250000J0D01*
G01*
G37*
G36*
G01*
X157357000Y-62020000D02*
X155057000Y-62020000D01*
G75*
G02*
X154807000Y-61770000I0J250000D01*
G01*
X154807000Y-61270000D01*
G75*
G02*
X155057000Y-61020000I250000J0D01*
G01*
X157357000Y-61020000D01*
G75*
G02*
X157607000Y-61270000I0J-250000D01*
G01*
X157607000Y-61770000D01*
G75*
G02*
X157357000Y-62020000I-250000J0D01*
G01*
G37*
G36*
G01*
X160257000Y-57470000D02*
X158857000Y-57470000D01*
G75*
G02*
X158707000Y-57320000I0J150000D01*
G01*
X158707000Y-57020000D01*
G75*
G02*
X158857000Y-56870000I150000J0D01*
G01*
X160257000Y-56870000D01*
G75*
G02*
X160407000Y-57020000I0J-150000D01*
G01*
X160407000Y-57320000D01*
G75*
G02*
X160257000Y-57470000I-150000J0D01*
G01*
G37*
G36*
G01*
X160257000Y-58720000D02*
X158857000Y-58720000D01*
G75*
G02*
X158707000Y-58570000I0J150000D01*
G01*
X158707000Y-58270000D01*
G75*
G02*
X158857000Y-58120000I150000J0D01*
G01*
X160257000Y-58120000D01*
G75*
G02*
X160407000Y-58270000I0J-150000D01*
G01*
X160407000Y-58570000D01*
G75*
G02*
X160257000Y-58720000I-150000J0D01*
G01*
G37*
G36*
G01*
X160257000Y-59970000D02*
X158857000Y-59970000D01*
G75*
G02*
X158707000Y-59820000I0J150000D01*
G01*
X158707000Y-59520000D01*
G75*
G02*
X158857000Y-59370000I150000J0D01*
G01*
X160257000Y-59370000D01*
G75*
G02*
X160407000Y-59520000I0J-150000D01*
G01*
X160407000Y-59820000D01*
G75*
G02*
X160257000Y-59970000I-150000J0D01*
G01*
G37*
%TD*%
%TO.C,J601*%
G36*
G01*
X142397000Y-68330000D02*
X142397000Y-66030000D01*
G75*
G02*
X142647000Y-65780000I250000J0D01*
G01*
X143147000Y-65780000D01*
G75*
G02*
X143397000Y-66030000I0J-250000D01*
G01*
X143397000Y-68330000D01*
G75*
G02*
X143147000Y-68580000I-250000J0D01*
G01*
X142647000Y-68580000D01*
G75*
G02*
X142397000Y-68330000I0J250000D01*
G01*
G37*
G36*
G01*
X132447000Y-68330000D02*
X132447000Y-66030000D01*
G75*
G02*
X132697000Y-65780000I250000J0D01*
G01*
X133197000Y-65780000D01*
G75*
G02*
X133447000Y-66030000I0J-250000D01*
G01*
X133447000Y-68330000D01*
G75*
G02*
X133197000Y-68580000I-250000J0D01*
G01*
X132697000Y-68580000D01*
G75*
G02*
X132447000Y-68330000I0J250000D01*
G01*
G37*
G36*
G01*
X140747000Y-71230000D02*
X140747000Y-69830000D01*
G75*
G02*
X140897000Y-69680000I150000J0D01*
G01*
X141197000Y-69680000D01*
G75*
G02*
X141347000Y-69830000I0J-150000D01*
G01*
X141347000Y-71230000D01*
G75*
G02*
X141197000Y-71380000I-150000J0D01*
G01*
X140897000Y-71380000D01*
G75*
G02*
X140747000Y-71230000I0J150000D01*
G01*
G37*
G36*
G01*
X139497000Y-71230000D02*
X139497000Y-69830000D01*
G75*
G02*
X139647000Y-69680000I150000J0D01*
G01*
X139947000Y-69680000D01*
G75*
G02*
X140097000Y-69830000I0J-150000D01*
G01*
X140097000Y-71230000D01*
G75*
G02*
X139947000Y-71380000I-150000J0D01*
G01*
X139647000Y-71380000D01*
G75*
G02*
X139497000Y-71230000I0J150000D01*
G01*
G37*
G36*
G01*
X138247000Y-71230000D02*
X138247000Y-69830000D01*
G75*
G02*
X138397000Y-69680000I150000J0D01*
G01*
X138697000Y-69680000D01*
G75*
G02*
X138847000Y-69830000I0J-150000D01*
G01*
X138847000Y-71230000D01*
G75*
G02*
X138697000Y-71380000I-150000J0D01*
G01*
X138397000Y-71380000D01*
G75*
G02*
X138247000Y-71230000I0J150000D01*
G01*
G37*
G36*
G01*
X136997000Y-71230000D02*
X136997000Y-69830000D01*
G75*
G02*
X137147000Y-69680000I150000J0D01*
G01*
X137447000Y-69680000D01*
G75*
G02*
X137597000Y-69830000I0J-150000D01*
G01*
X137597000Y-71230000D01*
G75*
G02*
X137447000Y-71380000I-150000J0D01*
G01*
X137147000Y-71380000D01*
G75*
G02*
X136997000Y-71230000I0J150000D01*
G01*
G37*
G36*
G01*
X135747000Y-71230000D02*
X135747000Y-69830000D01*
G75*
G02*
X135897000Y-69680000I150000J0D01*
G01*
X136197000Y-69680000D01*
G75*
G02*
X136347000Y-69830000I0J-150000D01*
G01*
X136347000Y-71230000D01*
G75*
G02*
X136197000Y-71380000I-150000J0D01*
G01*
X135897000Y-71380000D01*
G75*
G02*
X135747000Y-71230000I0J150000D01*
G01*
G37*
G36*
G01*
X134497000Y-71230000D02*
X134497000Y-69830000D01*
G75*
G02*
X134647000Y-69680000I150000J0D01*
G01*
X134947000Y-69680000D01*
G75*
G02*
X135097000Y-69830000I0J-150000D01*
G01*
X135097000Y-71230000D01*
G75*
G02*
X134947000Y-71380000I-150000J0D01*
G01*
X134647000Y-71380000D01*
G75*
G02*
X134497000Y-71230000I0J150000D01*
G01*
G37*
%TD*%
%TO.C,J602*%
G36*
G01*
X134497000Y-80501000D02*
X134497000Y-79101000D01*
G75*
G02*
X134647000Y-78951000I150000J0D01*
G01*
X134947000Y-78951000D01*
G75*
G02*
X135097000Y-79101000I0J-150000D01*
G01*
X135097000Y-80501000D01*
G75*
G02*
X134947000Y-80651000I-150000J0D01*
G01*
X134647000Y-80651000D01*
G75*
G02*
X134497000Y-80501000I0J150000D01*
G01*
G37*
G36*
G01*
X135747000Y-80501000D02*
X135747000Y-79101000D01*
G75*
G02*
X135897000Y-78951000I150000J0D01*
G01*
X136197000Y-78951000D01*
G75*
G02*
X136347000Y-79101000I0J-150000D01*
G01*
X136347000Y-80501000D01*
G75*
G02*
X136197000Y-80651000I-150000J0D01*
G01*
X135897000Y-80651000D01*
G75*
G02*
X135747000Y-80501000I0J150000D01*
G01*
G37*
G36*
G01*
X136997000Y-80501000D02*
X136997000Y-79101000D01*
G75*
G02*
X137147000Y-78951000I150000J0D01*
G01*
X137447000Y-78951000D01*
G75*
G02*
X137597000Y-79101000I0J-150000D01*
G01*
X137597000Y-80501000D01*
G75*
G02*
X137447000Y-80651000I-150000J0D01*
G01*
X137147000Y-80651000D01*
G75*
G02*
X136997000Y-80501000I0J150000D01*
G01*
G37*
G36*
G01*
X138247000Y-80501000D02*
X138247000Y-79101000D01*
G75*
G02*
X138397000Y-78951000I150000J0D01*
G01*
X138697000Y-78951000D01*
G75*
G02*
X138847000Y-79101000I0J-150000D01*
G01*
X138847000Y-80501000D01*
G75*
G02*
X138697000Y-80651000I-150000J0D01*
G01*
X138397000Y-80651000D01*
G75*
G02*
X138247000Y-80501000I0J150000D01*
G01*
G37*
G36*
G01*
X139497000Y-80501000D02*
X139497000Y-79101000D01*
G75*
G02*
X139647000Y-78951000I150000J0D01*
G01*
X139947000Y-78951000D01*
G75*
G02*
X140097000Y-79101000I0J-150000D01*
G01*
X140097000Y-80501000D01*
G75*
G02*
X139947000Y-80651000I-150000J0D01*
G01*
X139647000Y-80651000D01*
G75*
G02*
X139497000Y-80501000I0J150000D01*
G01*
G37*
G36*
G01*
X140747000Y-80501000D02*
X140747000Y-79101000D01*
G75*
G02*
X140897000Y-78951000I150000J0D01*
G01*
X141197000Y-78951000D01*
G75*
G02*
X141347000Y-79101000I0J-150000D01*
G01*
X141347000Y-80501000D01*
G75*
G02*
X141197000Y-80651000I-150000J0D01*
G01*
X140897000Y-80651000D01*
G75*
G02*
X140747000Y-80501000I0J150000D01*
G01*
G37*
G36*
G01*
X132447000Y-77601000D02*
X132447000Y-75301000D01*
G75*
G02*
X132697000Y-75051000I250000J0D01*
G01*
X133197000Y-75051000D01*
G75*
G02*
X133447000Y-75301000I0J-250000D01*
G01*
X133447000Y-77601000D01*
G75*
G02*
X133197000Y-77851000I-250000J0D01*
G01*
X132697000Y-77851000D01*
G75*
G02*
X132447000Y-77601000I0J250000D01*
G01*
G37*
G36*
G01*
X142397000Y-77601000D02*
X142397000Y-75301000D01*
G75*
G02*
X142647000Y-75051000I250000J0D01*
G01*
X143147000Y-75051000D01*
G75*
G02*
X143397000Y-75301000I0J-250000D01*
G01*
X143397000Y-77601000D01*
G75*
G02*
X143147000Y-77851000I-250000J0D01*
G01*
X142647000Y-77851000D01*
G75*
G02*
X142397000Y-77601000I0J250000D01*
G01*
G37*
%TD*%
%TO.C,J801*%
G36*
G01*
X170851000Y-109745000D02*
X170851000Y-111145000D01*
G75*
G02*
X170701000Y-111295000I-150000J0D01*
G01*
X170401000Y-111295000D01*
G75*
G02*
X170251000Y-111145000I0J150000D01*
G01*
X170251000Y-109745000D01*
G75*
G02*
X170401000Y-109595000I150000J0D01*
G01*
X170701000Y-109595000D01*
G75*
G02*
X170851000Y-109745000I0J-150000D01*
G01*
G37*
G36*
G01*
X169601000Y-109745000D02*
X169601000Y-111145000D01*
G75*
G02*
X169451000Y-111295000I-150000J0D01*
G01*
X169151000Y-111295000D01*
G75*
G02*
X169001000Y-111145000I0J150000D01*
G01*
X169001000Y-109745000D01*
G75*
G02*
X169151000Y-109595000I150000J0D01*
G01*
X169451000Y-109595000D01*
G75*
G02*
X169601000Y-109745000I0J-150000D01*
G01*
G37*
G36*
G01*
X172901000Y-112645000D02*
X172901000Y-114945000D01*
G75*
G02*
X172651000Y-115195000I-250000J0D01*
G01*
X172151000Y-115195000D01*
G75*
G02*
X171901000Y-114945000I0J250000D01*
G01*
X171901000Y-112645000D01*
G75*
G02*
X172151000Y-112395000I250000J0D01*
G01*
X172651000Y-112395000D01*
G75*
G02*
X172901000Y-112645000I0J-250000D01*
G01*
G37*
G36*
G01*
X167951000Y-112645000D02*
X167951000Y-114945000D01*
G75*
G02*
X167701000Y-115195000I-250000J0D01*
G01*
X167201000Y-115195000D01*
G75*
G02*
X166951000Y-114945000I0J250000D01*
G01*
X166951000Y-112645000D01*
G75*
G02*
X167201000Y-112395000I250000J0D01*
G01*
X167701000Y-112395000D01*
G75*
G02*
X167951000Y-112645000I0J-250000D01*
G01*
G37*
%TD*%
%TO.C,J802*%
G36*
G01*
X167951000Y-103120000D02*
X167951000Y-105420000D01*
G75*
G02*
X167701000Y-105670000I-250000J0D01*
G01*
X167201000Y-105670000D01*
G75*
G02*
X166951000Y-105420000I0J250000D01*
G01*
X166951000Y-103120000D01*
G75*
G02*
X167201000Y-102870000I250000J0D01*
G01*
X167701000Y-102870000D01*
G75*
G02*
X167951000Y-103120000I0J-250000D01*
G01*
G37*
G36*
G01*
X172901000Y-103120000D02*
X172901000Y-105420000D01*
G75*
G02*
X172651000Y-105670000I-250000J0D01*
G01*
X172151000Y-105670000D01*
G75*
G02*
X171901000Y-105420000I0J250000D01*
G01*
X171901000Y-103120000D01*
G75*
G02*
X172151000Y-102870000I250000J0D01*
G01*
X172651000Y-102870000D01*
G75*
G02*
X172901000Y-103120000I0J-250000D01*
G01*
G37*
G36*
G01*
X169601000Y-100220000D02*
X169601000Y-101620000D01*
G75*
G02*
X169451000Y-101770000I-150000J0D01*
G01*
X169151000Y-101770000D01*
G75*
G02*
X169001000Y-101620000I0J150000D01*
G01*
X169001000Y-100220000D01*
G75*
G02*
X169151000Y-100070000I150000J0D01*
G01*
X169451000Y-100070000D01*
G75*
G02*
X169601000Y-100220000I0J-150000D01*
G01*
G37*
G36*
G01*
X170851000Y-100220000D02*
X170851000Y-101620000D01*
G75*
G02*
X170701000Y-101770000I-150000J0D01*
G01*
X170401000Y-101770000D01*
G75*
G02*
X170251000Y-101620000I0J150000D01*
G01*
X170251000Y-100220000D01*
G75*
G02*
X170401000Y-100070000I150000J0D01*
G01*
X170701000Y-100070000D01*
G75*
G02*
X170851000Y-100220000I0J-150000D01*
G01*
G37*
%TD*%
D16*
%TO.C,Q305*%
X168783000Y-70866000D03*
D17*
X162483000Y-70866000D03*
X162483000Y-73166000D03*
X162483000Y-68566000D03*
%TD*%
D18*
%TO.C,RV301*%
X176943000Y-114180000D03*
D19*
X180943000Y-113030000D03*
D18*
X176943000Y-111880000D03*
%TD*%
D20*
%TO.C,U301*%
X164103000Y-107017000D03*
X163453000Y-107017000D03*
X162803000Y-107017000D03*
X162153000Y-107017000D03*
X161503000Y-107017000D03*
X160853000Y-107017000D03*
X160203000Y-107017000D03*
X159553000Y-107017000D03*
X158903000Y-107017000D03*
X158253000Y-107017000D03*
X157603000Y-107017000D03*
X156953000Y-107017000D03*
X156953000Y-114217000D03*
X157603000Y-114217000D03*
X158253000Y-114217000D03*
X158903000Y-114217000D03*
X159553000Y-114217000D03*
X160203000Y-114217000D03*
X160853000Y-114217000D03*
X161503000Y-114217000D03*
X162153000Y-114217000D03*
X162803000Y-114217000D03*
X163453000Y-114217000D03*
X164103000Y-114217000D03*
%TD*%
%TO.C,J301*%
G36*
G01*
X179105000Y-129198000D02*
X180305000Y-129198000D01*
G75*
G02*
X180555000Y-129448000I0J-250000D01*
G01*
X180555000Y-130648000D01*
G75*
G02*
X180305000Y-130898000I-250000J0D01*
G01*
X179105000Y-130898000D01*
G75*
G02*
X178855000Y-130648000I0J250000D01*
G01*
X178855000Y-129448000D01*
G75*
G02*
X179105000Y-129198000I250000J0D01*
G01*
G37*
D10*
X177165000Y-130048000D03*
X174625000Y-130048000D03*
X172085000Y-130048000D03*
X169545000Y-130048000D03*
X167005000Y-130048000D03*
X164465000Y-130048000D03*
X161925000Y-130048000D03*
X179705000Y-132588000D03*
X177165000Y-132588000D03*
X174625000Y-132588000D03*
X172085000Y-132588000D03*
X169545000Y-132588000D03*
X167005000Y-132588000D03*
X164465000Y-132588000D03*
X161925000Y-132588000D03*
%TD*%
D11*
%TO.C,SW1101*%
X161163000Y-145796000D03*
X162687000Y-143764000D03*
X159639000Y-143764000D03*
%TD*%
%TO.C,SW1102*%
X165227000Y-143764000D03*
X168275000Y-143764000D03*
X166751000Y-145796000D03*
%TD*%
%TO.C,SW1103*%
X172339000Y-145796000D03*
X173863000Y-143764000D03*
X170815000Y-143764000D03*
%TD*%
%TO.C,SW1104*%
X176403000Y-143764000D03*
X179451000Y-143764000D03*
X177927000Y-145796000D03*
%TD*%
%TO.C,SW1105*%
X181991000Y-143764000D03*
X185039000Y-143764000D03*
X183515000Y-145796000D03*
%TD*%
%TO.C,J1201*%
G36*
G01*
X112632000Y-78736000D02*
X111232000Y-78736000D01*
G75*
G02*
X111082000Y-78586000I0J150000D01*
G01*
X111082000Y-78286000D01*
G75*
G02*
X111232000Y-78136000I150000J0D01*
G01*
X112632000Y-78136000D01*
G75*
G02*
X112782000Y-78286000I0J-150000D01*
G01*
X112782000Y-78586000D01*
G75*
G02*
X112632000Y-78736000I-150000J0D01*
G01*
G37*
G36*
G01*
X112632000Y-77486000D02*
X111232000Y-77486000D01*
G75*
G02*
X111082000Y-77336000I0J150000D01*
G01*
X111082000Y-77036000D01*
G75*
G02*
X111232000Y-76886000I150000J0D01*
G01*
X112632000Y-76886000D01*
G75*
G02*
X112782000Y-77036000I0J-150000D01*
G01*
X112782000Y-77336000D01*
G75*
G02*
X112632000Y-77486000I-150000J0D01*
G01*
G37*
G36*
G01*
X112632000Y-76236000D02*
X111232000Y-76236000D01*
G75*
G02*
X111082000Y-76086000I0J150000D01*
G01*
X111082000Y-75786000D01*
G75*
G02*
X111232000Y-75636000I150000J0D01*
G01*
X112632000Y-75636000D01*
G75*
G02*
X112782000Y-75786000I0J-150000D01*
G01*
X112782000Y-76086000D01*
G75*
G02*
X112632000Y-76236000I-150000J0D01*
G01*
G37*
G36*
G01*
X112632000Y-74986000D02*
X111232000Y-74986000D01*
G75*
G02*
X111082000Y-74836000I0J150000D01*
G01*
X111082000Y-74536000D01*
G75*
G02*
X111232000Y-74386000I150000J0D01*
G01*
X112632000Y-74386000D01*
G75*
G02*
X112782000Y-74536000I0J-150000D01*
G01*
X112782000Y-74836000D01*
G75*
G02*
X112632000Y-74986000I-150000J0D01*
G01*
G37*
G36*
G01*
X112632000Y-73736000D02*
X111232000Y-73736000D01*
G75*
G02*
X111082000Y-73586000I0J150000D01*
G01*
X111082000Y-73286000D01*
G75*
G02*
X111232000Y-73136000I150000J0D01*
G01*
X112632000Y-73136000D01*
G75*
G02*
X112782000Y-73286000I0J-150000D01*
G01*
X112782000Y-73586000D01*
G75*
G02*
X112632000Y-73736000I-150000J0D01*
G01*
G37*
G36*
G01*
X112632000Y-72486000D02*
X111232000Y-72486000D01*
G75*
G02*
X111082000Y-72336000I0J150000D01*
G01*
X111082000Y-72036000D01*
G75*
G02*
X111232000Y-71886000I150000J0D01*
G01*
X112632000Y-71886000D01*
G75*
G02*
X112782000Y-72036000I0J-150000D01*
G01*
X112782000Y-72336000D01*
G75*
G02*
X112632000Y-72486000I-150000J0D01*
G01*
G37*
G36*
G01*
X109732000Y-80786000D02*
X107432000Y-80786000D01*
G75*
G02*
X107182000Y-80536000I0J250000D01*
G01*
X107182000Y-80036000D01*
G75*
G02*
X107432000Y-79786000I250000J0D01*
G01*
X109732000Y-79786000D01*
G75*
G02*
X109982000Y-80036000I0J-250000D01*
G01*
X109982000Y-80536000D01*
G75*
G02*
X109732000Y-80786000I-250000J0D01*
G01*
G37*
G36*
G01*
X109732000Y-70836000D02*
X107432000Y-70836000D01*
G75*
G02*
X107182000Y-70586000I0J250000D01*
G01*
X107182000Y-70086000D01*
G75*
G02*
X107432000Y-69836000I250000J0D01*
G01*
X109732000Y-69836000D01*
G75*
G02*
X109982000Y-70086000I0J-250000D01*
G01*
X109982000Y-70586000D01*
G75*
G02*
X109732000Y-70836000I-250000J0D01*
G01*
G37*
%TD*%
%TO.C,J1202*%
G36*
G01*
X117479000Y-70836000D02*
X115179000Y-70836000D01*
G75*
G02*
X114929000Y-70586000I0J250000D01*
G01*
X114929000Y-70086000D01*
G75*
G02*
X115179000Y-69836000I250000J0D01*
G01*
X117479000Y-69836000D01*
G75*
G02*
X117729000Y-70086000I0J-250000D01*
G01*
X117729000Y-70586000D01*
G75*
G02*
X117479000Y-70836000I-250000J0D01*
G01*
G37*
G36*
G01*
X117479000Y-80786000D02*
X115179000Y-80786000D01*
G75*
G02*
X114929000Y-80536000I0J250000D01*
G01*
X114929000Y-80036000D01*
G75*
G02*
X115179000Y-79786000I250000J0D01*
G01*
X117479000Y-79786000D01*
G75*
G02*
X117729000Y-80036000I0J-250000D01*
G01*
X117729000Y-80536000D01*
G75*
G02*
X117479000Y-80786000I-250000J0D01*
G01*
G37*
G36*
G01*
X120379000Y-72486000D02*
X118979000Y-72486000D01*
G75*
G02*
X118829000Y-72336000I0J150000D01*
G01*
X118829000Y-72036000D01*
G75*
G02*
X118979000Y-71886000I150000J0D01*
G01*
X120379000Y-71886000D01*
G75*
G02*
X120529000Y-72036000I0J-150000D01*
G01*
X120529000Y-72336000D01*
G75*
G02*
X120379000Y-72486000I-150000J0D01*
G01*
G37*
G36*
G01*
X120379000Y-73736000D02*
X118979000Y-73736000D01*
G75*
G02*
X118829000Y-73586000I0J150000D01*
G01*
X118829000Y-73286000D01*
G75*
G02*
X118979000Y-73136000I150000J0D01*
G01*
X120379000Y-73136000D01*
G75*
G02*
X120529000Y-73286000I0J-150000D01*
G01*
X120529000Y-73586000D01*
G75*
G02*
X120379000Y-73736000I-150000J0D01*
G01*
G37*
G36*
G01*
X120379000Y-74986000D02*
X118979000Y-74986000D01*
G75*
G02*
X118829000Y-74836000I0J150000D01*
G01*
X118829000Y-74536000D01*
G75*
G02*
X118979000Y-74386000I150000J0D01*
G01*
X120379000Y-74386000D01*
G75*
G02*
X120529000Y-74536000I0J-150000D01*
G01*
X120529000Y-74836000D01*
G75*
G02*
X120379000Y-74986000I-150000J0D01*
G01*
G37*
G36*
G01*
X120379000Y-76236000D02*
X118979000Y-76236000D01*
G75*
G02*
X118829000Y-76086000I0J150000D01*
G01*
X118829000Y-75786000D01*
G75*
G02*
X118979000Y-75636000I150000J0D01*
G01*
X120379000Y-75636000D01*
G75*
G02*
X120529000Y-75786000I0J-150000D01*
G01*
X120529000Y-76086000D01*
G75*
G02*
X120379000Y-76236000I-150000J0D01*
G01*
G37*
G36*
G01*
X120379000Y-77486000D02*
X118979000Y-77486000D01*
G75*
G02*
X118829000Y-77336000I0J150000D01*
G01*
X118829000Y-77036000D01*
G75*
G02*
X118979000Y-76886000I150000J0D01*
G01*
X120379000Y-76886000D01*
G75*
G02*
X120529000Y-77036000I0J-150000D01*
G01*
X120529000Y-77336000D01*
G75*
G02*
X120379000Y-77486000I-150000J0D01*
G01*
G37*
G36*
G01*
X120379000Y-78736000D02*
X118979000Y-78736000D01*
G75*
G02*
X118829000Y-78586000I0J150000D01*
G01*
X118829000Y-78286000D01*
G75*
G02*
X118979000Y-78136000I150000J0D01*
G01*
X120379000Y-78136000D01*
G75*
G02*
X120529000Y-78286000I0J-150000D01*
G01*
X120529000Y-78586000D01*
G75*
G02*
X120379000Y-78736000I-150000J0D01*
G01*
G37*
%TD*%
M02*
