%TF.GenerationSoftware,KiCad,Pcbnew,5.1.9+dfsg1-1*%
%TF.CreationDate,2021-05-17T22:01:10+02:00*%
%TF.ProjectId,PIC32MXCubeV1,50494333-324d-4584-9375-626556312e6b,rev?*%
%TF.SameCoordinates,Original*%
%TF.FileFunction,Legend,Top*%
%TF.FilePolarity,Positive*%
%FSLAX46Y46*%
G04 Gerber Fmt 4.6, Leading zero omitted, Abs format (unit mm)*
G04 Created by KiCad (PCBNEW 5.1.9+dfsg1-1) date 2021-05-17 22:01:10*
%MOMM*%
%LPD*%
G01*
G04 APERTURE LIST*
%ADD10C,0.150000*%
%ADD11C,0.300000*%
%ADD12C,0.120000*%
%ADD13C,0.100000*%
G04 APERTURE END LIST*
D10*
X208399142Y-86717142D02*
X208351523Y-86764761D01*
X208208666Y-86812380D01*
X208113428Y-86812380D01*
X207970571Y-86764761D01*
X207875333Y-86669523D01*
X207827714Y-86574285D01*
X207780095Y-86383809D01*
X207780095Y-86240952D01*
X207827714Y-86050476D01*
X207875333Y-85955238D01*
X207970571Y-85860000D01*
X208113428Y-85812380D01*
X208208666Y-85812380D01*
X208351523Y-85860000D01*
X208399142Y-85907619D01*
X208780095Y-86764761D02*
X208922952Y-86812380D01*
X209161047Y-86812380D01*
X209256285Y-86764761D01*
X209303904Y-86717142D01*
X209351523Y-86621904D01*
X209351523Y-86526666D01*
X209303904Y-86431428D01*
X209256285Y-86383809D01*
X209161047Y-86336190D01*
X208970571Y-86288571D01*
X208875333Y-86240952D01*
X208827714Y-86193333D01*
X208780095Y-86098095D01*
X208780095Y-86002857D01*
X208827714Y-85907619D01*
X208875333Y-85860000D01*
X208970571Y-85812380D01*
X209208666Y-85812380D01*
X209351523Y-85860000D01*
X209732476Y-85907619D02*
X209780095Y-85860000D01*
X209875333Y-85812380D01*
X210113428Y-85812380D01*
X210208666Y-85860000D01*
X210256285Y-85907619D01*
X210303904Y-86002857D01*
X210303904Y-86098095D01*
X210256285Y-86240952D01*
X209684857Y-86812380D01*
X210303904Y-86812380D01*
X209288095Y-84272380D02*
X208954761Y-83796190D01*
X208716666Y-84272380D02*
X208716666Y-83272380D01*
X209097619Y-83272380D01*
X209192857Y-83320000D01*
X209240476Y-83367619D01*
X209288095Y-83462857D01*
X209288095Y-83605714D01*
X209240476Y-83700952D01*
X209192857Y-83748571D01*
X209097619Y-83796190D01*
X208716666Y-83796190D01*
X209621428Y-83272380D02*
X209859523Y-84272380D01*
X210050000Y-83558095D01*
X210240476Y-84272380D01*
X210478571Y-83272380D01*
X209335714Y-81208571D02*
X209669047Y-81208571D01*
X209811904Y-81732380D02*
X209335714Y-81732380D01*
X209335714Y-80732380D01*
X209811904Y-80732380D01*
X208811904Y-79192380D02*
X208811904Y-78192380D01*
X209050000Y-78192380D01*
X209192857Y-78240000D01*
X209288095Y-78335238D01*
X209335714Y-78430476D01*
X209383333Y-78620952D01*
X209383333Y-78763809D01*
X209335714Y-78954285D01*
X209288095Y-79049523D01*
X209192857Y-79144761D01*
X209050000Y-79192380D01*
X208811904Y-79192380D01*
X210240476Y-78192380D02*
X210050000Y-78192380D01*
X209954761Y-78240000D01*
X209907142Y-78287619D01*
X209811904Y-78430476D01*
X209764285Y-78620952D01*
X209764285Y-79001904D01*
X209811904Y-79097142D01*
X209859523Y-79144761D01*
X209954761Y-79192380D01*
X210145238Y-79192380D01*
X210240476Y-79144761D01*
X210288095Y-79097142D01*
X210335714Y-79001904D01*
X210335714Y-78763809D01*
X210288095Y-78668571D01*
X210240476Y-78620952D01*
X210145238Y-78573333D01*
X209954761Y-78573333D01*
X209859523Y-78620952D01*
X209811904Y-78668571D01*
X209764285Y-78763809D01*
X208811904Y-76652380D02*
X208811904Y-75652380D01*
X209050000Y-75652380D01*
X209192857Y-75700000D01*
X209288095Y-75795238D01*
X209335714Y-75890476D01*
X209383333Y-76080952D01*
X209383333Y-76223809D01*
X209335714Y-76414285D01*
X209288095Y-76509523D01*
X209192857Y-76604761D01*
X209050000Y-76652380D01*
X208811904Y-76652380D01*
X210240476Y-75985714D02*
X210240476Y-76652380D01*
X210002380Y-75604761D02*
X209764285Y-76319047D01*
X210383333Y-76319047D01*
X208811904Y-74112380D02*
X208811904Y-73112380D01*
X209050000Y-73112380D01*
X209192857Y-73160000D01*
X209288095Y-73255238D01*
X209335714Y-73350476D01*
X209383333Y-73540952D01*
X209383333Y-73683809D01*
X209335714Y-73874285D01*
X209288095Y-73969523D01*
X209192857Y-74064761D01*
X209050000Y-74112380D01*
X208811904Y-74112380D01*
X209764285Y-73207619D02*
X209811904Y-73160000D01*
X209907142Y-73112380D01*
X210145238Y-73112380D01*
X210240476Y-73160000D01*
X210288095Y-73207619D01*
X210335714Y-73302857D01*
X210335714Y-73398095D01*
X210288095Y-73540952D01*
X209716666Y-74112380D01*
X210335714Y-74112380D01*
X208026095Y-106180000D02*
X207930857Y-106132380D01*
X207788000Y-106132380D01*
X207645142Y-106180000D01*
X207549904Y-106275238D01*
X207502285Y-106370476D01*
X207454666Y-106560952D01*
X207454666Y-106703809D01*
X207502285Y-106894285D01*
X207549904Y-106989523D01*
X207645142Y-107084761D01*
X207788000Y-107132380D01*
X207883238Y-107132380D01*
X208026095Y-107084761D01*
X208073714Y-107037142D01*
X208073714Y-106703809D01*
X207883238Y-106703809D01*
X208502285Y-107132380D02*
X208502285Y-106132380D01*
X209073714Y-107132380D01*
X209073714Y-106132380D01*
X209549904Y-107132380D02*
X209549904Y-106132380D01*
X209788000Y-106132380D01*
X209930857Y-106180000D01*
X210026095Y-106275238D01*
X210073714Y-106370476D01*
X210121333Y-106560952D01*
X210121333Y-106703809D01*
X210073714Y-106894285D01*
X210026095Y-106989523D01*
X209930857Y-107084761D01*
X209788000Y-107132380D01*
X209549904Y-107132380D01*
X217932095Y-106180000D02*
X217836857Y-106132380D01*
X217694000Y-106132380D01*
X217551142Y-106180000D01*
X217455904Y-106275238D01*
X217408285Y-106370476D01*
X217360666Y-106560952D01*
X217360666Y-106703809D01*
X217408285Y-106894285D01*
X217455904Y-106989523D01*
X217551142Y-107084761D01*
X217694000Y-107132380D01*
X217789238Y-107132380D01*
X217932095Y-107084761D01*
X217979714Y-107037142D01*
X217979714Y-106703809D01*
X217789238Y-106703809D01*
X218408285Y-107132380D02*
X218408285Y-106132380D01*
X218979714Y-107132380D01*
X218979714Y-106132380D01*
X219455904Y-107132380D02*
X219455904Y-106132380D01*
X219694000Y-106132380D01*
X219836857Y-106180000D01*
X219932095Y-106275238D01*
X219979714Y-106370476D01*
X220027333Y-106560952D01*
X220027333Y-106703809D01*
X219979714Y-106894285D01*
X219932095Y-106989523D01*
X219836857Y-107084761D01*
X219694000Y-107132380D01*
X219455904Y-107132380D01*
X218146380Y-104592380D02*
X217813047Y-104116190D01*
X217574952Y-104592380D02*
X217574952Y-103592380D01*
X217955904Y-103592380D01*
X218051142Y-103640000D01*
X218098761Y-103687619D01*
X218146380Y-103782857D01*
X218146380Y-103925714D01*
X218098761Y-104020952D01*
X218051142Y-104068571D01*
X217955904Y-104116190D01*
X217574952Y-104116190D01*
X218527333Y-104544761D02*
X218670190Y-104592380D01*
X218908285Y-104592380D01*
X219003523Y-104544761D01*
X219051142Y-104497142D01*
X219098761Y-104401904D01*
X219098761Y-104306666D01*
X219051142Y-104211428D01*
X219003523Y-104163809D01*
X218908285Y-104116190D01*
X218717809Y-104068571D01*
X218622571Y-104020952D01*
X218574952Y-103973333D01*
X218527333Y-103878095D01*
X218527333Y-103782857D01*
X218574952Y-103687619D01*
X218622571Y-103640000D01*
X218717809Y-103592380D01*
X218955904Y-103592380D01*
X219098761Y-103640000D01*
X219384476Y-103592380D02*
X219955904Y-103592380D01*
X219670190Y-104592380D02*
X219670190Y-103592380D01*
X217003523Y-102004761D02*
X217146380Y-102052380D01*
X217384476Y-102052380D01*
X217479714Y-102004761D01*
X217527333Y-101957142D01*
X217574952Y-101861904D01*
X217574952Y-101766666D01*
X217527333Y-101671428D01*
X217479714Y-101623809D01*
X217384476Y-101576190D01*
X217194000Y-101528571D01*
X217098761Y-101480952D01*
X217051142Y-101433333D01*
X217003523Y-101338095D01*
X217003523Y-101242857D01*
X217051142Y-101147619D01*
X217098761Y-101100000D01*
X217194000Y-101052380D01*
X217432095Y-101052380D01*
X217574952Y-101100000D01*
X218003523Y-102052380D02*
X218003523Y-101052380D01*
X218241619Y-101052380D01*
X218384476Y-101100000D01*
X218479714Y-101195238D01*
X218527333Y-101290476D01*
X218574952Y-101480952D01*
X218574952Y-101623809D01*
X218527333Y-101814285D01*
X218479714Y-101909523D01*
X218384476Y-102004761D01*
X218241619Y-102052380D01*
X218003523Y-102052380D01*
X218955904Y-101766666D02*
X219432095Y-101766666D01*
X218860666Y-102052380D02*
X219194000Y-101052380D01*
X219527333Y-102052380D01*
X219765428Y-101052380D02*
X220384476Y-101052380D01*
X220051142Y-101433333D01*
X220194000Y-101433333D01*
X220289238Y-101480952D01*
X220336857Y-101528571D01*
X220384476Y-101623809D01*
X220384476Y-101861904D01*
X220336857Y-101957142D01*
X220289238Y-102004761D01*
X220194000Y-102052380D01*
X219908285Y-102052380D01*
X219813047Y-102004761D01*
X219765428Y-101957142D01*
X217003523Y-99464761D02*
X217146380Y-99512380D01*
X217384476Y-99512380D01*
X217479714Y-99464761D01*
X217527333Y-99417142D01*
X217574952Y-99321904D01*
X217574952Y-99226666D01*
X217527333Y-99131428D01*
X217479714Y-99083809D01*
X217384476Y-99036190D01*
X217194000Y-98988571D01*
X217098761Y-98940952D01*
X217051142Y-98893333D01*
X217003523Y-98798095D01*
X217003523Y-98702857D01*
X217051142Y-98607619D01*
X217098761Y-98560000D01*
X217194000Y-98512380D01*
X217432095Y-98512380D01*
X217574952Y-98560000D01*
X218003523Y-99512380D02*
X218003523Y-98512380D01*
X218241619Y-98512380D01*
X218384476Y-98560000D01*
X218479714Y-98655238D01*
X218527333Y-98750476D01*
X218574952Y-98940952D01*
X218574952Y-99083809D01*
X218527333Y-99274285D01*
X218479714Y-99369523D01*
X218384476Y-99464761D01*
X218241619Y-99512380D01*
X218003523Y-99512380D01*
X218955904Y-99226666D02*
X219432095Y-99226666D01*
X218860666Y-99512380D02*
X219194000Y-98512380D01*
X219527333Y-99512380D01*
X219813047Y-98607619D02*
X219860666Y-98560000D01*
X219955904Y-98512380D01*
X220194000Y-98512380D01*
X220289238Y-98560000D01*
X220336857Y-98607619D01*
X220384476Y-98702857D01*
X220384476Y-98798095D01*
X220336857Y-98940952D01*
X219765428Y-99512380D01*
X220384476Y-99512380D01*
X217003523Y-96924761D02*
X217146380Y-96972380D01*
X217384476Y-96972380D01*
X217479714Y-96924761D01*
X217527333Y-96877142D01*
X217574952Y-96781904D01*
X217574952Y-96686666D01*
X217527333Y-96591428D01*
X217479714Y-96543809D01*
X217384476Y-96496190D01*
X217194000Y-96448571D01*
X217098761Y-96400952D01*
X217051142Y-96353333D01*
X217003523Y-96258095D01*
X217003523Y-96162857D01*
X217051142Y-96067619D01*
X217098761Y-96020000D01*
X217194000Y-95972380D01*
X217432095Y-95972380D01*
X217574952Y-96020000D01*
X218003523Y-96972380D02*
X218003523Y-95972380D01*
X218241619Y-95972380D01*
X218384476Y-96020000D01*
X218479714Y-96115238D01*
X218527333Y-96210476D01*
X218574952Y-96400952D01*
X218574952Y-96543809D01*
X218527333Y-96734285D01*
X218479714Y-96829523D01*
X218384476Y-96924761D01*
X218241619Y-96972380D01*
X218003523Y-96972380D01*
X218955904Y-96686666D02*
X219432095Y-96686666D01*
X218860666Y-96972380D02*
X219194000Y-95972380D01*
X219527333Y-96972380D01*
X220384476Y-96972380D02*
X219813047Y-96972380D01*
X220098761Y-96972380D02*
X220098761Y-95972380D01*
X220003523Y-96115238D01*
X219908285Y-96210476D01*
X219813047Y-96258095D01*
X208042000Y-104846380D02*
X208042000Y-103846380D01*
X208708666Y-103846380D02*
X208899142Y-103846380D01*
X208994380Y-103894000D01*
X209089619Y-103989238D01*
X209137238Y-104179714D01*
X209137238Y-104513047D01*
X209089619Y-104703523D01*
X208994380Y-104798761D01*
X208899142Y-104846380D01*
X208708666Y-104846380D01*
X208613428Y-104798761D01*
X208518190Y-104703523D01*
X208470571Y-104513047D01*
X208470571Y-104179714D01*
X208518190Y-103989238D01*
X208613428Y-103894000D01*
X208708666Y-103846380D01*
X209613428Y-104846380D02*
X209803904Y-104846380D01*
X209899142Y-104798761D01*
X209946761Y-104751142D01*
X210042000Y-104608285D01*
X210089619Y-104417809D01*
X210089619Y-104036857D01*
X210042000Y-103941619D01*
X209994380Y-103894000D01*
X209899142Y-103846380D01*
X209708666Y-103846380D01*
X209613428Y-103894000D01*
X209565809Y-103941619D01*
X209518190Y-104036857D01*
X209518190Y-104274952D01*
X209565809Y-104370190D01*
X209613428Y-104417809D01*
X209708666Y-104465428D01*
X209899142Y-104465428D01*
X209994380Y-104417809D01*
X210042000Y-104370190D01*
X210089619Y-104274952D01*
X207121333Y-102004761D02*
X207264190Y-102052380D01*
X207502285Y-102052380D01*
X207597523Y-102004761D01*
X207645142Y-101957142D01*
X207692761Y-101861904D01*
X207692761Y-101766666D01*
X207645142Y-101671428D01*
X207597523Y-101623809D01*
X207502285Y-101576190D01*
X207311809Y-101528571D01*
X207216571Y-101480952D01*
X207168952Y-101433333D01*
X207121333Y-101338095D01*
X207121333Y-101242857D01*
X207168952Y-101147619D01*
X207216571Y-101100000D01*
X207311809Y-101052380D01*
X207549904Y-101052380D01*
X207692761Y-101100000D01*
X208692761Y-101957142D02*
X208645142Y-102004761D01*
X208502285Y-102052380D01*
X208407047Y-102052380D01*
X208264190Y-102004761D01*
X208168952Y-101909523D01*
X208121333Y-101814285D01*
X208073714Y-101623809D01*
X208073714Y-101480952D01*
X208121333Y-101290476D01*
X208168952Y-101195238D01*
X208264190Y-101100000D01*
X208407047Y-101052380D01*
X208502285Y-101052380D01*
X208645142Y-101100000D01*
X208692761Y-101147619D01*
X209597523Y-102052380D02*
X209121333Y-102052380D01*
X209121333Y-101052380D01*
X209835619Y-101052380D02*
X210454666Y-101052380D01*
X210121333Y-101433333D01*
X210264190Y-101433333D01*
X210359428Y-101480952D01*
X210407047Y-101528571D01*
X210454666Y-101623809D01*
X210454666Y-101861904D01*
X210407047Y-101957142D01*
X210359428Y-102004761D01*
X210264190Y-102052380D01*
X209978476Y-102052380D01*
X209883238Y-102004761D01*
X209835619Y-101957142D01*
X207121333Y-99464761D02*
X207264190Y-99512380D01*
X207502285Y-99512380D01*
X207597523Y-99464761D01*
X207645142Y-99417142D01*
X207692761Y-99321904D01*
X207692761Y-99226666D01*
X207645142Y-99131428D01*
X207597523Y-99083809D01*
X207502285Y-99036190D01*
X207311809Y-98988571D01*
X207216571Y-98940952D01*
X207168952Y-98893333D01*
X207121333Y-98798095D01*
X207121333Y-98702857D01*
X207168952Y-98607619D01*
X207216571Y-98560000D01*
X207311809Y-98512380D01*
X207549904Y-98512380D01*
X207692761Y-98560000D01*
X208692761Y-99417142D02*
X208645142Y-99464761D01*
X208502285Y-99512380D01*
X208407047Y-99512380D01*
X208264190Y-99464761D01*
X208168952Y-99369523D01*
X208121333Y-99274285D01*
X208073714Y-99083809D01*
X208073714Y-98940952D01*
X208121333Y-98750476D01*
X208168952Y-98655238D01*
X208264190Y-98560000D01*
X208407047Y-98512380D01*
X208502285Y-98512380D01*
X208645142Y-98560000D01*
X208692761Y-98607619D01*
X209597523Y-99512380D02*
X209121333Y-99512380D01*
X209121333Y-98512380D01*
X209883238Y-98607619D02*
X209930857Y-98560000D01*
X210026095Y-98512380D01*
X210264190Y-98512380D01*
X210359428Y-98560000D01*
X210407047Y-98607619D01*
X210454666Y-98702857D01*
X210454666Y-98798095D01*
X210407047Y-98940952D01*
X209835619Y-99512380D01*
X210454666Y-99512380D01*
X207121333Y-96924761D02*
X207264190Y-96972380D01*
X207502285Y-96972380D01*
X207597523Y-96924761D01*
X207645142Y-96877142D01*
X207692761Y-96781904D01*
X207692761Y-96686666D01*
X207645142Y-96591428D01*
X207597523Y-96543809D01*
X207502285Y-96496190D01*
X207311809Y-96448571D01*
X207216571Y-96400952D01*
X207168952Y-96353333D01*
X207121333Y-96258095D01*
X207121333Y-96162857D01*
X207168952Y-96067619D01*
X207216571Y-96020000D01*
X207311809Y-95972380D01*
X207549904Y-95972380D01*
X207692761Y-96020000D01*
X208692761Y-96877142D02*
X208645142Y-96924761D01*
X208502285Y-96972380D01*
X208407047Y-96972380D01*
X208264190Y-96924761D01*
X208168952Y-96829523D01*
X208121333Y-96734285D01*
X208073714Y-96543809D01*
X208073714Y-96400952D01*
X208121333Y-96210476D01*
X208168952Y-96115238D01*
X208264190Y-96020000D01*
X208407047Y-95972380D01*
X208502285Y-95972380D01*
X208645142Y-96020000D01*
X208692761Y-96067619D01*
X209597523Y-96972380D02*
X209121333Y-96972380D01*
X209121333Y-95972380D01*
X210454666Y-96972380D02*
X209883238Y-96972380D01*
X210168952Y-96972380D02*
X210168952Y-95972380D01*
X210073714Y-96115238D01*
X209978476Y-96210476D01*
X209883238Y-96258095D01*
X207384857Y-92866904D02*
X207384857Y-93514523D01*
X207422952Y-93590714D01*
X207461047Y-93628809D01*
X207537238Y-93666904D01*
X207689619Y-93666904D01*
X207765809Y-93628809D01*
X207803904Y-93590714D01*
X207842000Y-93514523D01*
X207842000Y-92866904D01*
X208184857Y-93438333D02*
X208565809Y-93438333D01*
X208108666Y-93666904D02*
X208375333Y-92866904D01*
X208642000Y-93666904D01*
X209365809Y-93666904D02*
X209099142Y-93285952D01*
X208908666Y-93666904D02*
X208908666Y-92866904D01*
X209213428Y-92866904D01*
X209289619Y-92905000D01*
X209327714Y-92943095D01*
X209365809Y-93019285D01*
X209365809Y-93133571D01*
X209327714Y-93209761D01*
X209289619Y-93247857D01*
X209213428Y-93285952D01*
X208908666Y-93285952D01*
X209594380Y-92866904D02*
X210051523Y-92866904D01*
X209822952Y-93666904D02*
X209822952Y-92866904D01*
X210242000Y-92866904D02*
X210737238Y-92866904D01*
X210470571Y-93171666D01*
X210584857Y-93171666D01*
X210661047Y-93209761D01*
X210699142Y-93247857D01*
X210737238Y-93324047D01*
X210737238Y-93514523D01*
X210699142Y-93590714D01*
X210661047Y-93628809D01*
X210584857Y-93666904D01*
X210356285Y-93666904D01*
X210280095Y-93628809D01*
X210242000Y-93590714D01*
X208432476Y-94216904D02*
X208889619Y-94216904D01*
X208661047Y-95016904D02*
X208661047Y-94216904D01*
X209080095Y-94216904D02*
X209613428Y-95016904D01*
X209613428Y-94216904D02*
X209080095Y-95016904D01*
X207384857Y-90326904D02*
X207384857Y-90974523D01*
X207422952Y-91050714D01*
X207461047Y-91088809D01*
X207537238Y-91126904D01*
X207689619Y-91126904D01*
X207765809Y-91088809D01*
X207803904Y-91050714D01*
X207842000Y-90974523D01*
X207842000Y-90326904D01*
X208184857Y-90898333D02*
X208565809Y-90898333D01*
X208108666Y-91126904D02*
X208375333Y-90326904D01*
X208642000Y-91126904D01*
X209365809Y-91126904D02*
X209099142Y-90745952D01*
X208908666Y-91126904D02*
X208908666Y-90326904D01*
X209213428Y-90326904D01*
X209289619Y-90365000D01*
X209327714Y-90403095D01*
X209365809Y-90479285D01*
X209365809Y-90593571D01*
X209327714Y-90669761D01*
X209289619Y-90707857D01*
X209213428Y-90745952D01*
X208908666Y-90745952D01*
X209594380Y-90326904D02*
X210051523Y-90326904D01*
X209822952Y-91126904D02*
X209822952Y-90326904D01*
X210280095Y-90403095D02*
X210318190Y-90365000D01*
X210394380Y-90326904D01*
X210584857Y-90326904D01*
X210661047Y-90365000D01*
X210699142Y-90403095D01*
X210737238Y-90479285D01*
X210737238Y-90555476D01*
X210699142Y-90669761D01*
X210242000Y-91126904D01*
X210737238Y-91126904D01*
X208432476Y-91676904D02*
X208889619Y-91676904D01*
X208661047Y-92476904D02*
X208661047Y-91676904D01*
X209080095Y-91676904D02*
X209613428Y-92476904D01*
X209613428Y-91676904D02*
X209080095Y-92476904D01*
X207384857Y-87786904D02*
X207384857Y-88434523D01*
X207422952Y-88510714D01*
X207461047Y-88548809D01*
X207537238Y-88586904D01*
X207689619Y-88586904D01*
X207765809Y-88548809D01*
X207803904Y-88510714D01*
X207842000Y-88434523D01*
X207842000Y-87786904D01*
X208184857Y-88358333D02*
X208565809Y-88358333D01*
X208108666Y-88586904D02*
X208375333Y-87786904D01*
X208642000Y-88586904D01*
X209365809Y-88586904D02*
X209099142Y-88205952D01*
X208908666Y-88586904D02*
X208908666Y-87786904D01*
X209213428Y-87786904D01*
X209289619Y-87825000D01*
X209327714Y-87863095D01*
X209365809Y-87939285D01*
X209365809Y-88053571D01*
X209327714Y-88129761D01*
X209289619Y-88167857D01*
X209213428Y-88205952D01*
X208908666Y-88205952D01*
X209594380Y-87786904D02*
X210051523Y-87786904D01*
X209822952Y-88586904D02*
X209822952Y-87786904D01*
X210737238Y-88586904D02*
X210280095Y-88586904D01*
X210508666Y-88586904D02*
X210508666Y-87786904D01*
X210432476Y-87901190D01*
X210356285Y-87977380D01*
X210280095Y-88015476D01*
X208432476Y-89136904D02*
X208889619Y-89136904D01*
X208661047Y-89936904D02*
X208661047Y-89136904D01*
X209080095Y-89136904D02*
X209613428Y-89936904D01*
X209613428Y-89136904D02*
X209080095Y-89936904D01*
X217036857Y-92866904D02*
X217036857Y-93514523D01*
X217074952Y-93590714D01*
X217113047Y-93628809D01*
X217189238Y-93666904D01*
X217341619Y-93666904D01*
X217417809Y-93628809D01*
X217455904Y-93590714D01*
X217494000Y-93514523D01*
X217494000Y-92866904D01*
X217836857Y-93438333D02*
X218217809Y-93438333D01*
X217760666Y-93666904D02*
X218027333Y-92866904D01*
X218294000Y-93666904D01*
X219017809Y-93666904D02*
X218751142Y-93285952D01*
X218560666Y-93666904D02*
X218560666Y-92866904D01*
X218865428Y-92866904D01*
X218941619Y-92905000D01*
X218979714Y-92943095D01*
X219017809Y-93019285D01*
X219017809Y-93133571D01*
X218979714Y-93209761D01*
X218941619Y-93247857D01*
X218865428Y-93285952D01*
X218560666Y-93285952D01*
X219246380Y-92866904D02*
X219703523Y-92866904D01*
X219474952Y-93666904D02*
X219474952Y-92866904D01*
X219894000Y-92866904D02*
X220389238Y-92866904D01*
X220122571Y-93171666D01*
X220236857Y-93171666D01*
X220313047Y-93209761D01*
X220351142Y-93247857D01*
X220389238Y-93324047D01*
X220389238Y-93514523D01*
X220351142Y-93590714D01*
X220313047Y-93628809D01*
X220236857Y-93666904D01*
X220008285Y-93666904D01*
X219932095Y-93628809D01*
X219894000Y-93590714D01*
X218560666Y-95016904D02*
X218294000Y-94635952D01*
X218103523Y-95016904D02*
X218103523Y-94216904D01*
X218408285Y-94216904D01*
X218484476Y-94255000D01*
X218522571Y-94293095D01*
X218560666Y-94369285D01*
X218560666Y-94483571D01*
X218522571Y-94559761D01*
X218484476Y-94597857D01*
X218408285Y-94635952D01*
X218103523Y-94635952D01*
X218827333Y-94216904D02*
X219360666Y-95016904D01*
X219360666Y-94216904D02*
X218827333Y-95016904D01*
X217036857Y-90326904D02*
X217036857Y-90974523D01*
X217074952Y-91050714D01*
X217113047Y-91088809D01*
X217189238Y-91126904D01*
X217341619Y-91126904D01*
X217417809Y-91088809D01*
X217455904Y-91050714D01*
X217494000Y-90974523D01*
X217494000Y-90326904D01*
X217836857Y-90898333D02*
X218217809Y-90898333D01*
X217760666Y-91126904D02*
X218027333Y-90326904D01*
X218294000Y-91126904D01*
X219017809Y-91126904D02*
X218751142Y-90745952D01*
X218560666Y-91126904D02*
X218560666Y-90326904D01*
X218865428Y-90326904D01*
X218941619Y-90365000D01*
X218979714Y-90403095D01*
X219017809Y-90479285D01*
X219017809Y-90593571D01*
X218979714Y-90669761D01*
X218941619Y-90707857D01*
X218865428Y-90745952D01*
X218560666Y-90745952D01*
X219246380Y-90326904D02*
X219703523Y-90326904D01*
X219474952Y-91126904D02*
X219474952Y-90326904D01*
X219932095Y-90403095D02*
X219970190Y-90365000D01*
X220046380Y-90326904D01*
X220236857Y-90326904D01*
X220313047Y-90365000D01*
X220351142Y-90403095D01*
X220389238Y-90479285D01*
X220389238Y-90555476D01*
X220351142Y-90669761D01*
X219894000Y-91126904D01*
X220389238Y-91126904D01*
X218560666Y-92476904D02*
X218294000Y-92095952D01*
X218103523Y-92476904D02*
X218103523Y-91676904D01*
X218408285Y-91676904D01*
X218484476Y-91715000D01*
X218522571Y-91753095D01*
X218560666Y-91829285D01*
X218560666Y-91943571D01*
X218522571Y-92019761D01*
X218484476Y-92057857D01*
X218408285Y-92095952D01*
X218103523Y-92095952D01*
X218827333Y-91676904D02*
X219360666Y-92476904D01*
X219360666Y-91676904D02*
X218827333Y-92476904D01*
X217036857Y-87786904D02*
X217036857Y-88434523D01*
X217074952Y-88510714D01*
X217113047Y-88548809D01*
X217189238Y-88586904D01*
X217341619Y-88586904D01*
X217417809Y-88548809D01*
X217455904Y-88510714D01*
X217494000Y-88434523D01*
X217494000Y-87786904D01*
X217836857Y-88358333D02*
X218217809Y-88358333D01*
X217760666Y-88586904D02*
X218027333Y-87786904D01*
X218294000Y-88586904D01*
X219017809Y-88586904D02*
X218751142Y-88205952D01*
X218560666Y-88586904D02*
X218560666Y-87786904D01*
X218865428Y-87786904D01*
X218941619Y-87825000D01*
X218979714Y-87863095D01*
X219017809Y-87939285D01*
X219017809Y-88053571D01*
X218979714Y-88129761D01*
X218941619Y-88167857D01*
X218865428Y-88205952D01*
X218560666Y-88205952D01*
X219246380Y-87786904D02*
X219703523Y-87786904D01*
X219474952Y-88586904D02*
X219474952Y-87786904D01*
X220389238Y-88586904D02*
X219932095Y-88586904D01*
X220160666Y-88586904D02*
X220160666Y-87786904D01*
X220084476Y-87901190D01*
X220008285Y-87977380D01*
X219932095Y-88015476D01*
X218560666Y-89936904D02*
X218294000Y-89555952D01*
X218103523Y-89936904D02*
X218103523Y-89136904D01*
X218408285Y-89136904D01*
X218484476Y-89175000D01*
X218522571Y-89213095D01*
X218560666Y-89289285D01*
X218560666Y-89403571D01*
X218522571Y-89479761D01*
X218484476Y-89517857D01*
X218408285Y-89555952D01*
X218103523Y-89555952D01*
X218827333Y-89136904D02*
X219360666Y-89936904D01*
X219360666Y-89136904D02*
X218827333Y-89936904D01*
X217035142Y-86717142D02*
X216987523Y-86764761D01*
X216844666Y-86812380D01*
X216749428Y-86812380D01*
X216606571Y-86764761D01*
X216511333Y-86669523D01*
X216463714Y-86574285D01*
X216416095Y-86383809D01*
X216416095Y-86240952D01*
X216463714Y-86050476D01*
X216511333Y-85955238D01*
X216606571Y-85860000D01*
X216749428Y-85812380D01*
X216844666Y-85812380D01*
X216987523Y-85860000D01*
X217035142Y-85907619D01*
X217416095Y-86764761D02*
X217558952Y-86812380D01*
X217797047Y-86812380D01*
X217892285Y-86764761D01*
X217939904Y-86717142D01*
X217987523Y-86621904D01*
X217987523Y-86526666D01*
X217939904Y-86431428D01*
X217892285Y-86383809D01*
X217797047Y-86336190D01*
X217606571Y-86288571D01*
X217511333Y-86240952D01*
X217463714Y-86193333D01*
X217416095Y-86098095D01*
X217416095Y-86002857D01*
X217463714Y-85907619D01*
X217511333Y-85860000D01*
X217606571Y-85812380D01*
X217844666Y-85812380D01*
X217987523Y-85860000D01*
X218939904Y-86812380D02*
X218368476Y-86812380D01*
X218654190Y-86812380D02*
X218654190Y-85812380D01*
X218558952Y-85955238D01*
X218463714Y-86050476D01*
X218368476Y-86098095D01*
X217257333Y-84272380D02*
X216924000Y-83796190D01*
X216685904Y-84272380D02*
X216685904Y-83272380D01*
X217066857Y-83272380D01*
X217162095Y-83320000D01*
X217209714Y-83367619D01*
X217257333Y-83462857D01*
X217257333Y-83605714D01*
X217209714Y-83700952D01*
X217162095Y-83748571D01*
X217066857Y-83796190D01*
X216685904Y-83796190D01*
X217638285Y-84224761D02*
X217781142Y-84272380D01*
X218019238Y-84272380D01*
X218114476Y-84224761D01*
X218162095Y-84177142D01*
X218209714Y-84081904D01*
X218209714Y-83986666D01*
X218162095Y-83891428D01*
X218114476Y-83843809D01*
X218019238Y-83796190D01*
X217828761Y-83748571D01*
X217733523Y-83700952D01*
X217685904Y-83653333D01*
X217638285Y-83558095D01*
X217638285Y-83462857D01*
X217685904Y-83367619D01*
X217733523Y-83320000D01*
X217828761Y-83272380D01*
X218066857Y-83272380D01*
X218209714Y-83320000D01*
X216685904Y-81732380D02*
X216685904Y-80732380D01*
X216924000Y-80732380D01*
X217066857Y-80780000D01*
X217162095Y-80875238D01*
X217209714Y-80970476D01*
X217257333Y-81160952D01*
X217257333Y-81303809D01*
X217209714Y-81494285D01*
X217162095Y-81589523D01*
X217066857Y-81684761D01*
X216924000Y-81732380D01*
X216685904Y-81732380D01*
X217590666Y-80732380D02*
X218257333Y-80732380D01*
X217828761Y-81732380D01*
X216685904Y-79192380D02*
X216685904Y-78192380D01*
X216924000Y-78192380D01*
X217066857Y-78240000D01*
X217162095Y-78335238D01*
X217209714Y-78430476D01*
X217257333Y-78620952D01*
X217257333Y-78763809D01*
X217209714Y-78954285D01*
X217162095Y-79049523D01*
X217066857Y-79144761D01*
X216924000Y-79192380D01*
X216685904Y-79192380D01*
X218162095Y-78192380D02*
X217685904Y-78192380D01*
X217638285Y-78668571D01*
X217685904Y-78620952D01*
X217781142Y-78573333D01*
X218019238Y-78573333D01*
X218114476Y-78620952D01*
X218162095Y-78668571D01*
X218209714Y-78763809D01*
X218209714Y-79001904D01*
X218162095Y-79097142D01*
X218114476Y-79144761D01*
X218019238Y-79192380D01*
X217781142Y-79192380D01*
X217685904Y-79144761D01*
X217638285Y-79097142D01*
X216685904Y-76652380D02*
X216685904Y-75652380D01*
X216924000Y-75652380D01*
X217066857Y-75700000D01*
X217162095Y-75795238D01*
X217209714Y-75890476D01*
X217257333Y-76080952D01*
X217257333Y-76223809D01*
X217209714Y-76414285D01*
X217162095Y-76509523D01*
X217066857Y-76604761D01*
X216924000Y-76652380D01*
X216685904Y-76652380D01*
X217590666Y-75652380D02*
X218209714Y-75652380D01*
X217876380Y-76033333D01*
X218019238Y-76033333D01*
X218114476Y-76080952D01*
X218162095Y-76128571D01*
X218209714Y-76223809D01*
X218209714Y-76461904D01*
X218162095Y-76557142D01*
X218114476Y-76604761D01*
X218019238Y-76652380D01*
X217733523Y-76652380D01*
X217638285Y-76604761D01*
X217590666Y-76557142D01*
X216685904Y-74112380D02*
X216685904Y-73112380D01*
X216924000Y-73112380D01*
X217066857Y-73160000D01*
X217162095Y-73255238D01*
X217209714Y-73350476D01*
X217257333Y-73540952D01*
X217257333Y-73683809D01*
X217209714Y-73874285D01*
X217162095Y-73969523D01*
X217066857Y-74064761D01*
X216924000Y-74112380D01*
X216685904Y-74112380D01*
X218209714Y-74112380D02*
X217638285Y-74112380D01*
X217924000Y-74112380D02*
X217924000Y-73112380D01*
X217828761Y-73255238D01*
X217733523Y-73350476D01*
X217638285Y-73398095D01*
X216709809Y-71572380D02*
X216709809Y-70572380D01*
X217376476Y-70572380D02*
X217566952Y-70572380D01*
X217662190Y-70620000D01*
X217757428Y-70715238D01*
X217805047Y-70905714D01*
X217805047Y-71239047D01*
X217757428Y-71429523D01*
X217662190Y-71524761D01*
X217566952Y-71572380D01*
X217376476Y-71572380D01*
X217281238Y-71524761D01*
X217186000Y-71429523D01*
X217138380Y-71239047D01*
X217138380Y-70905714D01*
X217186000Y-70715238D01*
X217281238Y-70620000D01*
X217376476Y-70572380D01*
X218757428Y-71572380D02*
X218186000Y-71572380D01*
X218471714Y-71572380D02*
X218471714Y-70572380D01*
X218376476Y-70715238D01*
X218281238Y-70810476D01*
X218186000Y-70858095D01*
X219376476Y-70572380D02*
X219471714Y-70572380D01*
X219566952Y-70620000D01*
X219614571Y-70667619D01*
X219662190Y-70762857D01*
X219709809Y-70953333D01*
X219709809Y-71191428D01*
X219662190Y-71381904D01*
X219614571Y-71477142D01*
X219566952Y-71524761D01*
X219471714Y-71572380D01*
X219376476Y-71572380D01*
X219281238Y-71524761D01*
X219233619Y-71477142D01*
X219186000Y-71381904D01*
X219138380Y-71191428D01*
X219138380Y-70953333D01*
X219186000Y-70762857D01*
X219233619Y-70667619D01*
X219281238Y-70620000D01*
X219376476Y-70572380D01*
X208811904Y-71572380D02*
X208811904Y-70572380D01*
X209050000Y-70572380D01*
X209192857Y-70620000D01*
X209288095Y-70715238D01*
X209335714Y-70810476D01*
X209383333Y-71000952D01*
X209383333Y-71143809D01*
X209335714Y-71334285D01*
X209288095Y-71429523D01*
X209192857Y-71524761D01*
X209050000Y-71572380D01*
X208811904Y-71572380D01*
X210002380Y-70572380D02*
X210097619Y-70572380D01*
X210192857Y-70620000D01*
X210240476Y-70667619D01*
X210288095Y-70762857D01*
X210335714Y-70953333D01*
X210335714Y-71191428D01*
X210288095Y-71381904D01*
X210240476Y-71477142D01*
X210192857Y-71524761D01*
X210097619Y-71572380D01*
X210002380Y-71572380D01*
X209907142Y-71524761D01*
X209859523Y-71477142D01*
X209811904Y-71381904D01*
X209764285Y-71191428D01*
X209764285Y-70953333D01*
X209811904Y-70762857D01*
X209859523Y-70667619D01*
X209907142Y-70620000D01*
X210002380Y-70572380D01*
X207002285Y-68984761D02*
X207145142Y-69032380D01*
X207383238Y-69032380D01*
X207478476Y-68984761D01*
X207526095Y-68937142D01*
X207573714Y-68841904D01*
X207573714Y-68746666D01*
X207526095Y-68651428D01*
X207478476Y-68603809D01*
X207383238Y-68556190D01*
X207192761Y-68508571D01*
X207097523Y-68460952D01*
X207049904Y-68413333D01*
X207002285Y-68318095D01*
X207002285Y-68222857D01*
X207049904Y-68127619D01*
X207097523Y-68080000D01*
X207192761Y-68032380D01*
X207430857Y-68032380D01*
X207573714Y-68080000D01*
X208002285Y-69032380D02*
X208002285Y-68032380D01*
X208240380Y-68032380D01*
X208383238Y-68080000D01*
X208478476Y-68175238D01*
X208526095Y-68270476D01*
X208573714Y-68460952D01*
X208573714Y-68603809D01*
X208526095Y-68794285D01*
X208478476Y-68889523D01*
X208383238Y-68984761D01*
X208240380Y-69032380D01*
X208002285Y-69032380D01*
X209192761Y-68032380D02*
X209383238Y-68032380D01*
X209478476Y-68080000D01*
X209573714Y-68175238D01*
X209621333Y-68365714D01*
X209621333Y-68699047D01*
X209573714Y-68889523D01*
X209478476Y-68984761D01*
X209383238Y-69032380D01*
X209192761Y-69032380D01*
X209097523Y-68984761D01*
X209002285Y-68889523D01*
X208954666Y-68699047D01*
X208954666Y-68365714D01*
X209002285Y-68175238D01*
X209097523Y-68080000D01*
X209192761Y-68032380D01*
X210573714Y-69032380D02*
X210002285Y-69032380D01*
X210288000Y-69032380D02*
X210288000Y-68032380D01*
X210192761Y-68175238D01*
X210097523Y-68270476D01*
X210002285Y-68318095D01*
X216709809Y-69032380D02*
X216709809Y-68032380D01*
X217376476Y-68032380D02*
X217566952Y-68032380D01*
X217662190Y-68080000D01*
X217757428Y-68175238D01*
X217805047Y-68365714D01*
X217805047Y-68699047D01*
X217757428Y-68889523D01*
X217662190Y-68984761D01*
X217566952Y-69032380D01*
X217376476Y-69032380D01*
X217281238Y-68984761D01*
X217186000Y-68889523D01*
X217138380Y-68699047D01*
X217138380Y-68365714D01*
X217186000Y-68175238D01*
X217281238Y-68080000D01*
X217376476Y-68032380D01*
X218757428Y-69032380D02*
X218186000Y-69032380D01*
X218471714Y-69032380D02*
X218471714Y-68032380D01*
X218376476Y-68175238D01*
X218281238Y-68270476D01*
X218186000Y-68318095D01*
X219709809Y-69032380D02*
X219138380Y-69032380D01*
X219424095Y-69032380D02*
X219424095Y-68032380D01*
X219328857Y-68175238D01*
X219233619Y-68270476D01*
X219138380Y-68318095D01*
X216424095Y-66444761D02*
X216566952Y-66492380D01*
X216805047Y-66492380D01*
X216900285Y-66444761D01*
X216947904Y-66397142D01*
X216995523Y-66301904D01*
X216995523Y-66206666D01*
X216947904Y-66111428D01*
X216900285Y-66063809D01*
X216805047Y-66016190D01*
X216614571Y-65968571D01*
X216519333Y-65920952D01*
X216471714Y-65873333D01*
X216424095Y-65778095D01*
X216424095Y-65682857D01*
X216471714Y-65587619D01*
X216519333Y-65540000D01*
X216614571Y-65492380D01*
X216852666Y-65492380D01*
X216995523Y-65540000D01*
X217995523Y-66397142D02*
X217947904Y-66444761D01*
X217805047Y-66492380D01*
X217709809Y-66492380D01*
X217566952Y-66444761D01*
X217471714Y-66349523D01*
X217424095Y-66254285D01*
X217376476Y-66063809D01*
X217376476Y-65920952D01*
X217424095Y-65730476D01*
X217471714Y-65635238D01*
X217566952Y-65540000D01*
X217709809Y-65492380D01*
X217805047Y-65492380D01*
X217947904Y-65540000D01*
X217995523Y-65587619D01*
X218424095Y-66492380D02*
X218424095Y-65492380D01*
X218995523Y-66492380D02*
X218566952Y-65920952D01*
X218995523Y-65492380D02*
X218424095Y-66063809D01*
X219947904Y-66492380D02*
X219376476Y-66492380D01*
X219662190Y-66492380D02*
X219662190Y-65492380D01*
X219566952Y-65635238D01*
X219471714Y-65730476D01*
X219376476Y-65778095D01*
X207542000Y-66444761D02*
X207684857Y-66492380D01*
X207922952Y-66492380D01*
X208018190Y-66444761D01*
X208065809Y-66397142D01*
X208113428Y-66301904D01*
X208113428Y-66206666D01*
X208065809Y-66111428D01*
X208018190Y-66063809D01*
X207922952Y-66016190D01*
X207732476Y-65968571D01*
X207637238Y-65920952D01*
X207589619Y-65873333D01*
X207542000Y-65778095D01*
X207542000Y-65682857D01*
X207589619Y-65587619D01*
X207637238Y-65540000D01*
X207732476Y-65492380D01*
X207970571Y-65492380D01*
X208113428Y-65540000D01*
X208542000Y-66492380D02*
X208542000Y-65492380D01*
X208780095Y-65492380D01*
X208922952Y-65540000D01*
X209018190Y-65635238D01*
X209065809Y-65730476D01*
X209113428Y-65920952D01*
X209113428Y-66063809D01*
X209065809Y-66254285D01*
X209018190Y-66349523D01*
X208922952Y-66444761D01*
X208780095Y-66492380D01*
X208542000Y-66492380D01*
X209542000Y-66492380D02*
X209542000Y-65492380D01*
X210542000Y-66492380D02*
X209970571Y-66492380D01*
X210256285Y-66492380D02*
X210256285Y-65492380D01*
X210161047Y-65635238D01*
X210065809Y-65730476D01*
X209970571Y-65778095D01*
X207922952Y-63032142D02*
X207875333Y-63079761D01*
X207732476Y-63127380D01*
X207637238Y-63127380D01*
X207494380Y-63079761D01*
X207399142Y-62984523D01*
X207351523Y-62889285D01*
X207303904Y-62698809D01*
X207303904Y-62555952D01*
X207351523Y-62365476D01*
X207399142Y-62270238D01*
X207494380Y-62175000D01*
X207637238Y-62127380D01*
X207732476Y-62127380D01*
X207875333Y-62175000D01*
X207922952Y-62222619D01*
X208303904Y-62841666D02*
X208780095Y-62841666D01*
X208208666Y-63127380D02*
X208542000Y-62127380D01*
X208875333Y-63127380D01*
X209208666Y-63127380D02*
X209208666Y-62127380D01*
X209780095Y-63127380D01*
X209780095Y-62127380D01*
X210780095Y-63127380D02*
X210208666Y-63127380D01*
X210494380Y-63127380D02*
X210494380Y-62127380D01*
X210399142Y-62270238D01*
X210303904Y-62365476D01*
X210208666Y-62413095D01*
X208280095Y-63777380D02*
X208851523Y-63777380D01*
X208565809Y-64777380D02*
X208565809Y-63777380D01*
X209089619Y-63777380D02*
X209756285Y-64777380D01*
X209756285Y-63777380D02*
X209089619Y-64777380D01*
X217066952Y-63032142D02*
X217019333Y-63079761D01*
X216876476Y-63127380D01*
X216781238Y-63127380D01*
X216638380Y-63079761D01*
X216543142Y-62984523D01*
X216495523Y-62889285D01*
X216447904Y-62698809D01*
X216447904Y-62555952D01*
X216495523Y-62365476D01*
X216543142Y-62270238D01*
X216638380Y-62175000D01*
X216781238Y-62127380D01*
X216876476Y-62127380D01*
X217019333Y-62175000D01*
X217066952Y-62222619D01*
X217447904Y-62841666D02*
X217924095Y-62841666D01*
X217352666Y-63127380D02*
X217686000Y-62127380D01*
X218019333Y-63127380D01*
X218352666Y-63127380D02*
X218352666Y-62127380D01*
X218924095Y-63127380D01*
X218924095Y-62127380D01*
X219924095Y-63127380D02*
X219352666Y-63127380D01*
X219638380Y-63127380D02*
X219638380Y-62127380D01*
X219543142Y-62270238D01*
X219447904Y-62365476D01*
X219352666Y-62413095D01*
X218019333Y-64777380D02*
X217686000Y-64301190D01*
X217447904Y-64777380D02*
X217447904Y-63777380D01*
X217828857Y-63777380D01*
X217924095Y-63825000D01*
X217971714Y-63872619D01*
X218019333Y-63967857D01*
X218019333Y-64110714D01*
X217971714Y-64205952D01*
X217924095Y-64253571D01*
X217828857Y-64301190D01*
X217447904Y-64301190D01*
X218352666Y-63777380D02*
X219019333Y-64777380D01*
X219019333Y-63777380D02*
X218352666Y-64777380D01*
X216955809Y-61412380D02*
X216955809Y-60412380D01*
X218003428Y-61317142D02*
X217955809Y-61364761D01*
X217812952Y-61412380D01*
X217717714Y-61412380D01*
X217574857Y-61364761D01*
X217479619Y-61269523D01*
X217432000Y-61174285D01*
X217384380Y-60983809D01*
X217384380Y-60840952D01*
X217432000Y-60650476D01*
X217479619Y-60555238D01*
X217574857Y-60460000D01*
X217717714Y-60412380D01*
X217812952Y-60412380D01*
X217955809Y-60460000D01*
X218003428Y-60507619D01*
X218955809Y-61412380D02*
X218384380Y-61412380D01*
X218670095Y-61412380D02*
X218670095Y-60412380D01*
X218574857Y-60555238D01*
X218479619Y-60650476D01*
X218384380Y-60698095D01*
X208065809Y-61412380D02*
X208065809Y-60412380D01*
X209113428Y-61317142D02*
X209065809Y-61364761D01*
X208922952Y-61412380D01*
X208827714Y-61412380D01*
X208684857Y-61364761D01*
X208589619Y-61269523D01*
X208542000Y-61174285D01*
X208494380Y-60983809D01*
X208494380Y-60840952D01*
X208542000Y-60650476D01*
X208589619Y-60555238D01*
X208684857Y-60460000D01*
X208827714Y-60412380D01*
X208922952Y-60412380D01*
X209065809Y-60460000D01*
X209113428Y-60507619D01*
X209494380Y-60507619D02*
X209542000Y-60460000D01*
X209637238Y-60412380D01*
X209875333Y-60412380D01*
X209970571Y-60460000D01*
X210018190Y-60507619D01*
X210065809Y-60602857D01*
X210065809Y-60698095D01*
X210018190Y-60840952D01*
X209446761Y-61412380D01*
X210065809Y-61412380D01*
X217170095Y-57920000D02*
X217074857Y-57872380D01*
X216932000Y-57872380D01*
X216789142Y-57920000D01*
X216693904Y-58015238D01*
X216646285Y-58110476D01*
X216598666Y-58300952D01*
X216598666Y-58443809D01*
X216646285Y-58634285D01*
X216693904Y-58729523D01*
X216789142Y-58824761D01*
X216932000Y-58872380D01*
X217027238Y-58872380D01*
X217170095Y-58824761D01*
X217217714Y-58777142D01*
X217217714Y-58443809D01*
X217027238Y-58443809D01*
X217646285Y-58872380D02*
X217646285Y-57872380D01*
X218217714Y-58872380D01*
X218217714Y-57872380D01*
X218693904Y-58872380D02*
X218693904Y-57872380D01*
X218932000Y-57872380D01*
X219074857Y-57920000D01*
X219170095Y-58015238D01*
X219217714Y-58110476D01*
X219265333Y-58300952D01*
X219265333Y-58443809D01*
X219217714Y-58634285D01*
X219170095Y-58729523D01*
X219074857Y-58824761D01*
X218932000Y-58872380D01*
X218693904Y-58872380D01*
X207772095Y-57920000D02*
X207676857Y-57872380D01*
X207534000Y-57872380D01*
X207391142Y-57920000D01*
X207295904Y-58015238D01*
X207248285Y-58110476D01*
X207200666Y-58300952D01*
X207200666Y-58443809D01*
X207248285Y-58634285D01*
X207295904Y-58729523D01*
X207391142Y-58824761D01*
X207534000Y-58872380D01*
X207629238Y-58872380D01*
X207772095Y-58824761D01*
X207819714Y-58777142D01*
X207819714Y-58443809D01*
X207629238Y-58443809D01*
X208248285Y-58872380D02*
X208248285Y-57872380D01*
X208819714Y-58872380D01*
X208819714Y-57872380D01*
X209295904Y-58872380D02*
X209295904Y-57872380D01*
X209534000Y-57872380D01*
X209676857Y-57920000D01*
X209772095Y-58015238D01*
X209819714Y-58110476D01*
X209867333Y-58300952D01*
X209867333Y-58443809D01*
X209819714Y-58634285D01*
X209772095Y-58729523D01*
X209676857Y-58824761D01*
X209534000Y-58872380D01*
X209295904Y-58872380D01*
X139954095Y-57920000D02*
X139858857Y-57872380D01*
X139716000Y-57872380D01*
X139573142Y-57920000D01*
X139477904Y-58015238D01*
X139430285Y-58110476D01*
X139382666Y-58300952D01*
X139382666Y-58443809D01*
X139430285Y-58634285D01*
X139477904Y-58729523D01*
X139573142Y-58824761D01*
X139716000Y-58872380D01*
X139811238Y-58872380D01*
X139954095Y-58824761D01*
X140001714Y-58777142D01*
X140001714Y-58443809D01*
X139811238Y-58443809D01*
X140430285Y-58872380D02*
X140430285Y-57872380D01*
X141001714Y-58872380D01*
X141001714Y-57872380D01*
X141477904Y-58872380D02*
X141477904Y-57872380D01*
X141716000Y-57872380D01*
X141858857Y-57920000D01*
X141954095Y-58015238D01*
X142001714Y-58110476D01*
X142049333Y-58300952D01*
X142049333Y-58443809D01*
X142001714Y-58634285D01*
X141954095Y-58729523D01*
X141858857Y-58824761D01*
X141716000Y-58872380D01*
X141477904Y-58872380D01*
X139850952Y-60888571D02*
X139993809Y-60936190D01*
X140041428Y-60983809D01*
X140089047Y-61079047D01*
X140089047Y-61221904D01*
X140041428Y-61317142D01*
X139993809Y-61364761D01*
X139898571Y-61412380D01*
X139517619Y-61412380D01*
X139517619Y-60412380D01*
X139850952Y-60412380D01*
X139946190Y-60460000D01*
X139993809Y-60507619D01*
X140041428Y-60602857D01*
X140041428Y-60698095D01*
X139993809Y-60793333D01*
X139946190Y-60840952D01*
X139850952Y-60888571D01*
X139517619Y-60888571D01*
X140470000Y-61126666D02*
X140946190Y-61126666D01*
X140374761Y-61412380D02*
X140708095Y-60412380D01*
X141041428Y-61412380D01*
X141231904Y-60412380D02*
X141803333Y-60412380D01*
X141517619Y-61412380D02*
X141517619Y-60412380D01*
X141993809Y-60412380D02*
X142565238Y-60412380D01*
X142279523Y-61412380D02*
X142279523Y-60412380D01*
X139954095Y-63000000D02*
X139858857Y-62952380D01*
X139716000Y-62952380D01*
X139573142Y-63000000D01*
X139477904Y-63095238D01*
X139430285Y-63190476D01*
X139382666Y-63380952D01*
X139382666Y-63523809D01*
X139430285Y-63714285D01*
X139477904Y-63809523D01*
X139573142Y-63904761D01*
X139716000Y-63952380D01*
X139811238Y-63952380D01*
X139954095Y-63904761D01*
X140001714Y-63857142D01*
X140001714Y-63523809D01*
X139811238Y-63523809D01*
X140430285Y-63952380D02*
X140430285Y-62952380D01*
X141001714Y-63952380D01*
X141001714Y-62952380D01*
X141477904Y-63952380D02*
X141477904Y-62952380D01*
X141716000Y-62952380D01*
X141858857Y-63000000D01*
X141954095Y-63095238D01*
X142001714Y-63190476D01*
X142049333Y-63380952D01*
X142049333Y-63523809D01*
X142001714Y-63714285D01*
X141954095Y-63809523D01*
X141858857Y-63904761D01*
X141716000Y-63952380D01*
X141477904Y-63952380D01*
X138954095Y-66111428D02*
X139716000Y-66111428D01*
X139335047Y-66492380D02*
X139335047Y-65730476D01*
X140716000Y-66492380D02*
X140144571Y-66492380D01*
X140430285Y-66492380D02*
X140430285Y-65492380D01*
X140335047Y-65635238D01*
X140239809Y-65730476D01*
X140144571Y-65778095D01*
X141096952Y-65587619D02*
X141144571Y-65540000D01*
X141239809Y-65492380D01*
X141477904Y-65492380D01*
X141573142Y-65540000D01*
X141620761Y-65587619D01*
X141668380Y-65682857D01*
X141668380Y-65778095D01*
X141620761Y-65920952D01*
X141049333Y-66492380D01*
X141668380Y-66492380D01*
X141954095Y-65492380D02*
X142287428Y-66492380D01*
X142620761Y-65492380D01*
X139954095Y-68080000D02*
X139858857Y-68032380D01*
X139716000Y-68032380D01*
X139573142Y-68080000D01*
X139477904Y-68175238D01*
X139430285Y-68270476D01*
X139382666Y-68460952D01*
X139382666Y-68603809D01*
X139430285Y-68794285D01*
X139477904Y-68889523D01*
X139573142Y-68984761D01*
X139716000Y-69032380D01*
X139811238Y-69032380D01*
X139954095Y-68984761D01*
X140001714Y-68937142D01*
X140001714Y-68603809D01*
X139811238Y-68603809D01*
X140430285Y-69032380D02*
X140430285Y-68032380D01*
X141001714Y-69032380D01*
X141001714Y-68032380D01*
X141477904Y-69032380D02*
X141477904Y-68032380D01*
X141716000Y-68032380D01*
X141858857Y-68080000D01*
X141954095Y-68175238D01*
X142001714Y-68270476D01*
X142049333Y-68460952D01*
X142049333Y-68603809D01*
X142001714Y-68794285D01*
X141954095Y-68889523D01*
X141858857Y-68984761D01*
X141716000Y-69032380D01*
X141477904Y-69032380D01*
X139255714Y-71191428D02*
X140017619Y-71191428D01*
X139636666Y-71572380D02*
X139636666Y-70810476D01*
X140970000Y-70572380D02*
X140493809Y-70572380D01*
X140446190Y-71048571D01*
X140493809Y-71000952D01*
X140589047Y-70953333D01*
X140827142Y-70953333D01*
X140922380Y-71000952D01*
X140970000Y-71048571D01*
X141017619Y-71143809D01*
X141017619Y-71381904D01*
X140970000Y-71477142D01*
X140922380Y-71524761D01*
X140827142Y-71572380D01*
X140589047Y-71572380D01*
X140493809Y-71524761D01*
X140446190Y-71477142D01*
X141303333Y-70572380D02*
X141636666Y-71572380D01*
X141970000Y-70572380D01*
X142255714Y-71286666D02*
X142731904Y-71286666D01*
X142160476Y-71572380D02*
X142493809Y-70572380D01*
X142827142Y-71572380D01*
X139954095Y-73160000D02*
X139858857Y-73112380D01*
X139716000Y-73112380D01*
X139573142Y-73160000D01*
X139477904Y-73255238D01*
X139430285Y-73350476D01*
X139382666Y-73540952D01*
X139382666Y-73683809D01*
X139430285Y-73874285D01*
X139477904Y-73969523D01*
X139573142Y-74064761D01*
X139716000Y-74112380D01*
X139811238Y-74112380D01*
X139954095Y-74064761D01*
X140001714Y-74017142D01*
X140001714Y-73683809D01*
X139811238Y-73683809D01*
X140430285Y-74112380D02*
X140430285Y-73112380D01*
X141001714Y-74112380D01*
X141001714Y-73112380D01*
X141477904Y-74112380D02*
X141477904Y-73112380D01*
X141716000Y-73112380D01*
X141858857Y-73160000D01*
X141954095Y-73255238D01*
X142001714Y-73350476D01*
X142049333Y-73540952D01*
X142049333Y-73683809D01*
X142001714Y-73874285D01*
X141954095Y-73969523D01*
X141858857Y-74064761D01*
X141716000Y-74112380D01*
X141477904Y-74112380D01*
X139184285Y-76271428D02*
X139946190Y-76271428D01*
X139565238Y-76652380D02*
X139565238Y-75890476D01*
X140898571Y-75652380D02*
X140422380Y-75652380D01*
X140374761Y-76128571D01*
X140422380Y-76080952D01*
X140517619Y-76033333D01*
X140755714Y-76033333D01*
X140850952Y-76080952D01*
X140898571Y-76128571D01*
X140946190Y-76223809D01*
X140946190Y-76461904D01*
X140898571Y-76557142D01*
X140850952Y-76604761D01*
X140755714Y-76652380D01*
X140517619Y-76652380D01*
X140422380Y-76604761D01*
X140374761Y-76557142D01*
X141231904Y-75652380D02*
X141565238Y-76652380D01*
X141898571Y-75652380D01*
X142231904Y-76652380D02*
X142231904Y-75652380D01*
X142470000Y-75652380D01*
X142612857Y-75700000D01*
X142708095Y-75795238D01*
X142755714Y-75890476D01*
X142803333Y-76080952D01*
X142803333Y-76223809D01*
X142755714Y-76414285D01*
X142708095Y-76509523D01*
X142612857Y-76604761D01*
X142470000Y-76652380D01*
X142231904Y-76652380D01*
X139700095Y-78240000D02*
X139604857Y-78192380D01*
X139462000Y-78192380D01*
X139319142Y-78240000D01*
X139223904Y-78335238D01*
X139176285Y-78430476D01*
X139128666Y-78620952D01*
X139128666Y-78763809D01*
X139176285Y-78954285D01*
X139223904Y-79049523D01*
X139319142Y-79144761D01*
X139462000Y-79192380D01*
X139557238Y-79192380D01*
X139700095Y-79144761D01*
X139747714Y-79097142D01*
X139747714Y-78763809D01*
X139557238Y-78763809D01*
X140176285Y-79192380D02*
X140176285Y-78192380D01*
X140747714Y-79192380D01*
X140747714Y-78192380D01*
X141223904Y-79192380D02*
X141223904Y-78192380D01*
X141462000Y-78192380D01*
X141604857Y-78240000D01*
X141700095Y-78335238D01*
X141747714Y-78430476D01*
X141795333Y-78620952D01*
X141795333Y-78763809D01*
X141747714Y-78954285D01*
X141700095Y-79049523D01*
X141604857Y-79144761D01*
X141462000Y-79192380D01*
X141223904Y-79192380D01*
X139224000Y-81351428D02*
X139985904Y-81351428D01*
X139604952Y-81732380D02*
X139604952Y-80970476D01*
X140366857Y-80732380D02*
X140985904Y-80732380D01*
X140652571Y-81113333D01*
X140795428Y-81113333D01*
X140890666Y-81160952D01*
X140938285Y-81208571D01*
X140985904Y-81303809D01*
X140985904Y-81541904D01*
X140938285Y-81637142D01*
X140890666Y-81684761D01*
X140795428Y-81732380D01*
X140509714Y-81732380D01*
X140414476Y-81684761D01*
X140366857Y-81637142D01*
X141414476Y-81637142D02*
X141462095Y-81684761D01*
X141414476Y-81732380D01*
X141366857Y-81684761D01*
X141414476Y-81637142D01*
X141414476Y-81732380D01*
X141795428Y-80732380D02*
X142414476Y-80732380D01*
X142081142Y-81113333D01*
X142224000Y-81113333D01*
X142319238Y-81160952D01*
X142366857Y-81208571D01*
X142414476Y-81303809D01*
X142414476Y-81541904D01*
X142366857Y-81637142D01*
X142319238Y-81684761D01*
X142224000Y-81732380D01*
X141938285Y-81732380D01*
X141843047Y-81684761D01*
X141795428Y-81637142D01*
X142700190Y-80732380D02*
X143033523Y-81732380D01*
X143366857Y-80732380D01*
X139700095Y-83320000D02*
X139604857Y-83272380D01*
X139462000Y-83272380D01*
X139319142Y-83320000D01*
X139223904Y-83415238D01*
X139176285Y-83510476D01*
X139128666Y-83700952D01*
X139128666Y-83843809D01*
X139176285Y-84034285D01*
X139223904Y-84129523D01*
X139319142Y-84224761D01*
X139462000Y-84272380D01*
X139557238Y-84272380D01*
X139700095Y-84224761D01*
X139747714Y-84177142D01*
X139747714Y-83843809D01*
X139557238Y-83843809D01*
X140176285Y-84272380D02*
X140176285Y-83272380D01*
X140747714Y-84272380D01*
X140747714Y-83272380D01*
X141223904Y-84272380D02*
X141223904Y-83272380D01*
X141462000Y-83272380D01*
X141604857Y-83320000D01*
X141700095Y-83415238D01*
X141747714Y-83510476D01*
X141795333Y-83700952D01*
X141795333Y-83843809D01*
X141747714Y-84034285D01*
X141700095Y-84129523D01*
X141604857Y-84224761D01*
X141462000Y-84272380D01*
X141223904Y-84272380D01*
X139343047Y-86812380D02*
X139343047Y-85812380D01*
X139724000Y-85812380D01*
X139819238Y-85860000D01*
X139866857Y-85907619D01*
X139914476Y-86002857D01*
X139914476Y-86145714D01*
X139866857Y-86240952D01*
X139819238Y-86288571D01*
X139724000Y-86336190D01*
X139343047Y-86336190D01*
X140247809Y-85812380D02*
X140485904Y-86812380D01*
X140676380Y-86098095D01*
X140866857Y-86812380D01*
X141104952Y-85812380D01*
X141485904Y-86812380D02*
X141485904Y-85812380D01*
X141819238Y-86526666D01*
X142152571Y-85812380D01*
X142152571Y-86812380D01*
X142819238Y-85812380D02*
X142914476Y-85812380D01*
X143009714Y-85860000D01*
X143057333Y-85907619D01*
X143104952Y-86002857D01*
X143152571Y-86193333D01*
X143152571Y-86431428D01*
X143104952Y-86621904D01*
X143057333Y-86717142D01*
X143009714Y-86764761D01*
X142914476Y-86812380D01*
X142819238Y-86812380D01*
X142724000Y-86764761D01*
X142676380Y-86717142D01*
X142628761Y-86621904D01*
X142581142Y-86431428D01*
X142581142Y-86193333D01*
X142628761Y-86002857D01*
X142676380Y-85907619D01*
X142724000Y-85860000D01*
X142819238Y-85812380D01*
X139343047Y-89352380D02*
X139343047Y-88352380D01*
X139724000Y-88352380D01*
X139819238Y-88400000D01*
X139866857Y-88447619D01*
X139914476Y-88542857D01*
X139914476Y-88685714D01*
X139866857Y-88780952D01*
X139819238Y-88828571D01*
X139724000Y-88876190D01*
X139343047Y-88876190D01*
X140247809Y-88352380D02*
X140485904Y-89352380D01*
X140676380Y-88638095D01*
X140866857Y-89352380D01*
X141104952Y-88352380D01*
X141485904Y-89352380D02*
X141485904Y-88352380D01*
X141819238Y-89066666D01*
X142152571Y-88352380D01*
X142152571Y-89352380D01*
X142581142Y-88447619D02*
X142628761Y-88400000D01*
X142724000Y-88352380D01*
X142962095Y-88352380D01*
X143057333Y-88400000D01*
X143104952Y-88447619D01*
X143152571Y-88542857D01*
X143152571Y-88638095D01*
X143104952Y-88780952D01*
X142533523Y-89352380D01*
X143152571Y-89352380D01*
X139343047Y-91892380D02*
X139343047Y-90892380D01*
X139724000Y-90892380D01*
X139819238Y-90940000D01*
X139866857Y-90987619D01*
X139914476Y-91082857D01*
X139914476Y-91225714D01*
X139866857Y-91320952D01*
X139819238Y-91368571D01*
X139724000Y-91416190D01*
X139343047Y-91416190D01*
X140247809Y-90892380D02*
X140485904Y-91892380D01*
X140676380Y-91178095D01*
X140866857Y-91892380D01*
X141104952Y-90892380D01*
X141485904Y-91892380D02*
X141485904Y-90892380D01*
X141819238Y-91606666D01*
X142152571Y-90892380D01*
X142152571Y-91892380D01*
X143057333Y-91225714D02*
X143057333Y-91892380D01*
X142819238Y-90844761D02*
X142581142Y-91559047D01*
X143200190Y-91559047D01*
X139335047Y-94432380D02*
X139335047Y-93432380D01*
X139811238Y-94432380D02*
X139811238Y-93432380D01*
X140382666Y-94432380D01*
X140382666Y-93432380D01*
X140716000Y-93432380D02*
X141287428Y-93432380D01*
X141001714Y-94432380D02*
X141001714Y-93432380D01*
X142144571Y-94432380D02*
X141573142Y-94432380D01*
X141858857Y-94432380D02*
X141858857Y-93432380D01*
X141763619Y-93575238D01*
X141668380Y-93670476D01*
X141573142Y-93718095D01*
X139462000Y-96972380D02*
X139462000Y-95972380D01*
X140128666Y-95972380D02*
X140319142Y-95972380D01*
X140414380Y-96020000D01*
X140509619Y-96115238D01*
X140557238Y-96305714D01*
X140557238Y-96639047D01*
X140509619Y-96829523D01*
X140414380Y-96924761D01*
X140319142Y-96972380D01*
X140128666Y-96972380D01*
X140033428Y-96924761D01*
X139938190Y-96829523D01*
X139890571Y-96639047D01*
X139890571Y-96305714D01*
X139938190Y-96115238D01*
X140033428Y-96020000D01*
X140128666Y-95972380D01*
X141176285Y-95972380D02*
X141271523Y-95972380D01*
X141366761Y-96020000D01*
X141414380Y-96067619D01*
X141462000Y-96162857D01*
X141509619Y-96353333D01*
X141509619Y-96591428D01*
X141462000Y-96781904D01*
X141414380Y-96877142D01*
X141366761Y-96924761D01*
X141271523Y-96972380D01*
X141176285Y-96972380D01*
X141081047Y-96924761D01*
X141033428Y-96877142D01*
X140985809Y-96781904D01*
X140938190Y-96591428D01*
X140938190Y-96353333D01*
X140985809Y-96162857D01*
X141033428Y-96067619D01*
X141081047Y-96020000D01*
X141176285Y-95972380D01*
X139462000Y-99512380D02*
X139462000Y-98512380D01*
X140128666Y-98512380D02*
X140319142Y-98512380D01*
X140414380Y-98560000D01*
X140509619Y-98655238D01*
X140557238Y-98845714D01*
X140557238Y-99179047D01*
X140509619Y-99369523D01*
X140414380Y-99464761D01*
X140319142Y-99512380D01*
X140128666Y-99512380D01*
X140033428Y-99464761D01*
X139938190Y-99369523D01*
X139890571Y-99179047D01*
X139890571Y-98845714D01*
X139938190Y-98655238D01*
X140033428Y-98560000D01*
X140128666Y-98512380D01*
X140938190Y-98607619D02*
X140985809Y-98560000D01*
X141081047Y-98512380D01*
X141319142Y-98512380D01*
X141414380Y-98560000D01*
X141462000Y-98607619D01*
X141509619Y-98702857D01*
X141509619Y-98798095D01*
X141462000Y-98940952D01*
X140890571Y-99512380D01*
X141509619Y-99512380D01*
X139462000Y-102052380D02*
X139462000Y-101052380D01*
X140128666Y-101052380D02*
X140319142Y-101052380D01*
X140414380Y-101100000D01*
X140509619Y-101195238D01*
X140557238Y-101385714D01*
X140557238Y-101719047D01*
X140509619Y-101909523D01*
X140414380Y-102004761D01*
X140319142Y-102052380D01*
X140128666Y-102052380D01*
X140033428Y-102004761D01*
X139938190Y-101909523D01*
X139890571Y-101719047D01*
X139890571Y-101385714D01*
X139938190Y-101195238D01*
X140033428Y-101100000D01*
X140128666Y-101052380D01*
X141414380Y-101385714D02*
X141414380Y-102052380D01*
X141176285Y-101004761D02*
X140938190Y-101719047D01*
X141557238Y-101719047D01*
X139462000Y-104592380D02*
X139462000Y-103592380D01*
X140128666Y-103592380D02*
X140319142Y-103592380D01*
X140414380Y-103640000D01*
X140509619Y-103735238D01*
X140557238Y-103925714D01*
X140557238Y-104259047D01*
X140509619Y-104449523D01*
X140414380Y-104544761D01*
X140319142Y-104592380D01*
X140128666Y-104592380D01*
X140033428Y-104544761D01*
X139938190Y-104449523D01*
X139890571Y-104259047D01*
X139890571Y-103925714D01*
X139938190Y-103735238D01*
X140033428Y-103640000D01*
X140128666Y-103592380D01*
X141414380Y-103592380D02*
X141223904Y-103592380D01*
X141128666Y-103640000D01*
X141081047Y-103687619D01*
X140985809Y-103830476D01*
X140938190Y-104020952D01*
X140938190Y-104401904D01*
X140985809Y-104497142D01*
X141033428Y-104544761D01*
X141128666Y-104592380D01*
X141319142Y-104592380D01*
X141414380Y-104544761D01*
X141462000Y-104497142D01*
X141509619Y-104401904D01*
X141509619Y-104163809D01*
X141462000Y-104068571D01*
X141414380Y-104020952D01*
X141319142Y-103973333D01*
X141128666Y-103973333D01*
X141033428Y-104020952D01*
X140985809Y-104068571D01*
X140938190Y-104163809D01*
X139700095Y-106180000D02*
X139604857Y-106132380D01*
X139462000Y-106132380D01*
X139319142Y-106180000D01*
X139223904Y-106275238D01*
X139176285Y-106370476D01*
X139128666Y-106560952D01*
X139128666Y-106703809D01*
X139176285Y-106894285D01*
X139223904Y-106989523D01*
X139319142Y-107084761D01*
X139462000Y-107132380D01*
X139557238Y-107132380D01*
X139700095Y-107084761D01*
X139747714Y-107037142D01*
X139747714Y-106703809D01*
X139557238Y-106703809D01*
X140176285Y-107132380D02*
X140176285Y-106132380D01*
X140747714Y-107132380D01*
X140747714Y-106132380D01*
X141223904Y-107132380D02*
X141223904Y-106132380D01*
X141462000Y-106132380D01*
X141604857Y-106180000D01*
X141700095Y-106275238D01*
X141747714Y-106370476D01*
X141795333Y-106560952D01*
X141795333Y-106703809D01*
X141747714Y-106894285D01*
X141700095Y-106989523D01*
X141604857Y-107084761D01*
X141462000Y-107132380D01*
X141223904Y-107132380D01*
X130810095Y-106180000D02*
X130714857Y-106132380D01*
X130572000Y-106132380D01*
X130429142Y-106180000D01*
X130333904Y-106275238D01*
X130286285Y-106370476D01*
X130238666Y-106560952D01*
X130238666Y-106703809D01*
X130286285Y-106894285D01*
X130333904Y-106989523D01*
X130429142Y-107084761D01*
X130572000Y-107132380D01*
X130667238Y-107132380D01*
X130810095Y-107084761D01*
X130857714Y-107037142D01*
X130857714Y-106703809D01*
X130667238Y-106703809D01*
X131286285Y-107132380D02*
X131286285Y-106132380D01*
X131857714Y-107132380D01*
X131857714Y-106132380D01*
X132333904Y-107132380D02*
X132333904Y-106132380D01*
X132572000Y-106132380D01*
X132714857Y-106180000D01*
X132810095Y-106275238D01*
X132857714Y-106370476D01*
X132905333Y-106560952D01*
X132905333Y-106703809D01*
X132857714Y-106894285D01*
X132810095Y-106989523D01*
X132714857Y-107084761D01*
X132572000Y-107132380D01*
X132333904Y-107132380D01*
X130572000Y-104592380D02*
X130572000Y-103592380D01*
X131238666Y-103592380D02*
X131429142Y-103592380D01*
X131524380Y-103640000D01*
X131619619Y-103735238D01*
X131667238Y-103925714D01*
X131667238Y-104259047D01*
X131619619Y-104449523D01*
X131524380Y-104544761D01*
X131429142Y-104592380D01*
X131238666Y-104592380D01*
X131143428Y-104544761D01*
X131048190Y-104449523D01*
X131000571Y-104259047D01*
X131000571Y-103925714D01*
X131048190Y-103735238D01*
X131143428Y-103640000D01*
X131238666Y-103592380D01*
X132000571Y-103592380D02*
X132667238Y-103592380D01*
X132238666Y-104592380D01*
X130572000Y-102052380D02*
X130572000Y-101052380D01*
X131238666Y-101052380D02*
X131429142Y-101052380D01*
X131524380Y-101100000D01*
X131619619Y-101195238D01*
X131667238Y-101385714D01*
X131667238Y-101719047D01*
X131619619Y-101909523D01*
X131524380Y-102004761D01*
X131429142Y-102052380D01*
X131238666Y-102052380D01*
X131143428Y-102004761D01*
X131048190Y-101909523D01*
X131000571Y-101719047D01*
X131000571Y-101385714D01*
X131048190Y-101195238D01*
X131143428Y-101100000D01*
X131238666Y-101052380D01*
X132572000Y-101052380D02*
X132095809Y-101052380D01*
X132048190Y-101528571D01*
X132095809Y-101480952D01*
X132191047Y-101433333D01*
X132429142Y-101433333D01*
X132524380Y-101480952D01*
X132572000Y-101528571D01*
X132619619Y-101623809D01*
X132619619Y-101861904D01*
X132572000Y-101957142D01*
X132524380Y-102004761D01*
X132429142Y-102052380D01*
X132191047Y-102052380D01*
X132095809Y-102004761D01*
X132048190Y-101957142D01*
X130572000Y-99512380D02*
X130572000Y-98512380D01*
X131238666Y-98512380D02*
X131429142Y-98512380D01*
X131524380Y-98560000D01*
X131619619Y-98655238D01*
X131667238Y-98845714D01*
X131667238Y-99179047D01*
X131619619Y-99369523D01*
X131524380Y-99464761D01*
X131429142Y-99512380D01*
X131238666Y-99512380D01*
X131143428Y-99464761D01*
X131048190Y-99369523D01*
X131000571Y-99179047D01*
X131000571Y-98845714D01*
X131048190Y-98655238D01*
X131143428Y-98560000D01*
X131238666Y-98512380D01*
X132000571Y-98512380D02*
X132619619Y-98512380D01*
X132286285Y-98893333D01*
X132429142Y-98893333D01*
X132524380Y-98940952D01*
X132572000Y-98988571D01*
X132619619Y-99083809D01*
X132619619Y-99321904D01*
X132572000Y-99417142D01*
X132524380Y-99464761D01*
X132429142Y-99512380D01*
X132143428Y-99512380D01*
X132048190Y-99464761D01*
X132000571Y-99417142D01*
X130572000Y-96972380D02*
X130572000Y-95972380D01*
X131238666Y-95972380D02*
X131429142Y-95972380D01*
X131524380Y-96020000D01*
X131619619Y-96115238D01*
X131667238Y-96305714D01*
X131667238Y-96639047D01*
X131619619Y-96829523D01*
X131524380Y-96924761D01*
X131429142Y-96972380D01*
X131238666Y-96972380D01*
X131143428Y-96924761D01*
X131048190Y-96829523D01*
X131000571Y-96639047D01*
X131000571Y-96305714D01*
X131048190Y-96115238D01*
X131143428Y-96020000D01*
X131238666Y-95972380D01*
X132619619Y-96972380D02*
X132048190Y-96972380D01*
X132333904Y-96972380D02*
X132333904Y-95972380D01*
X132238666Y-96115238D01*
X132143428Y-96210476D01*
X132048190Y-96258095D01*
X130572000Y-94432380D02*
X130572000Y-93432380D01*
X131238666Y-93432380D02*
X131429142Y-93432380D01*
X131524380Y-93480000D01*
X131619619Y-93575238D01*
X131667238Y-93765714D01*
X131667238Y-94099047D01*
X131619619Y-94289523D01*
X131524380Y-94384761D01*
X131429142Y-94432380D01*
X131238666Y-94432380D01*
X131143428Y-94384761D01*
X131048190Y-94289523D01*
X131000571Y-94099047D01*
X131000571Y-93765714D01*
X131048190Y-93575238D01*
X131143428Y-93480000D01*
X131238666Y-93432380D01*
X132238666Y-93860952D02*
X132143428Y-93813333D01*
X132095809Y-93765714D01*
X132048190Y-93670476D01*
X132048190Y-93622857D01*
X132095809Y-93527619D01*
X132143428Y-93480000D01*
X132238666Y-93432380D01*
X132429142Y-93432380D01*
X132524380Y-93480000D01*
X132572000Y-93527619D01*
X132619619Y-93622857D01*
X132619619Y-93670476D01*
X132572000Y-93765714D01*
X132524380Y-93813333D01*
X132429142Y-93860952D01*
X132238666Y-93860952D01*
X132143428Y-93908571D01*
X132095809Y-93956190D01*
X132048190Y-94051428D01*
X132048190Y-94241904D01*
X132095809Y-94337142D01*
X132143428Y-94384761D01*
X132238666Y-94432380D01*
X132429142Y-94432380D01*
X132524380Y-94384761D01*
X132572000Y-94337142D01*
X132619619Y-94241904D01*
X132619619Y-94051428D01*
X132572000Y-93956190D01*
X132524380Y-93908571D01*
X132429142Y-93860952D01*
X129937047Y-91892380D02*
X129937047Y-90892380D01*
X130413238Y-91892380D02*
X130413238Y-90892380D01*
X130984666Y-91892380D01*
X130984666Y-90892380D01*
X131318000Y-90892380D02*
X131889428Y-90892380D01*
X131603714Y-91892380D02*
X131603714Y-90892380D01*
X132413238Y-90892380D02*
X132508476Y-90892380D01*
X132603714Y-90940000D01*
X132651333Y-90987619D01*
X132698952Y-91082857D01*
X132746571Y-91273333D01*
X132746571Y-91511428D01*
X132698952Y-91701904D01*
X132651333Y-91797142D01*
X132603714Y-91844761D01*
X132508476Y-91892380D01*
X132413238Y-91892380D01*
X132318000Y-91844761D01*
X132270380Y-91797142D01*
X132222761Y-91701904D01*
X132175142Y-91511428D01*
X132175142Y-91273333D01*
X132222761Y-91082857D01*
X132270380Y-90987619D01*
X132318000Y-90940000D01*
X132413238Y-90892380D01*
X128929047Y-89352380D02*
X128929047Y-88352380D01*
X129310000Y-88352380D01*
X129405238Y-88400000D01*
X129452857Y-88447619D01*
X129500476Y-88542857D01*
X129500476Y-88685714D01*
X129452857Y-88780952D01*
X129405238Y-88828571D01*
X129310000Y-88876190D01*
X128929047Y-88876190D01*
X129833809Y-88352380D02*
X130071904Y-89352380D01*
X130262380Y-88638095D01*
X130452857Y-89352380D01*
X130690952Y-88352380D01*
X131071904Y-89352380D02*
X131071904Y-88352380D01*
X131405238Y-89066666D01*
X131738571Y-88352380D01*
X131738571Y-89352380D01*
X132119523Y-88352380D02*
X132738571Y-88352380D01*
X132405238Y-88733333D01*
X132548095Y-88733333D01*
X132643333Y-88780952D01*
X132690952Y-88828571D01*
X132738571Y-88923809D01*
X132738571Y-89161904D01*
X132690952Y-89257142D01*
X132643333Y-89304761D01*
X132548095Y-89352380D01*
X132262380Y-89352380D01*
X132167142Y-89304761D01*
X132119523Y-89257142D01*
X128929047Y-86812380D02*
X128929047Y-85812380D01*
X129310000Y-85812380D01*
X129405238Y-85860000D01*
X129452857Y-85907619D01*
X129500476Y-86002857D01*
X129500476Y-86145714D01*
X129452857Y-86240952D01*
X129405238Y-86288571D01*
X129310000Y-86336190D01*
X128929047Y-86336190D01*
X129833809Y-85812380D02*
X130071904Y-86812380D01*
X130262380Y-86098095D01*
X130452857Y-86812380D01*
X130690952Y-85812380D01*
X131071904Y-86812380D02*
X131071904Y-85812380D01*
X131405238Y-86526666D01*
X131738571Y-85812380D01*
X131738571Y-86812380D01*
X132738571Y-86812380D02*
X132167142Y-86812380D01*
X132452857Y-86812380D02*
X132452857Y-85812380D01*
X132357619Y-85955238D01*
X132262380Y-86050476D01*
X132167142Y-86098095D01*
X130556095Y-83320000D02*
X130460857Y-83272380D01*
X130318000Y-83272380D01*
X130175142Y-83320000D01*
X130079904Y-83415238D01*
X130032285Y-83510476D01*
X129984666Y-83700952D01*
X129984666Y-83843809D01*
X130032285Y-84034285D01*
X130079904Y-84129523D01*
X130175142Y-84224761D01*
X130318000Y-84272380D01*
X130413238Y-84272380D01*
X130556095Y-84224761D01*
X130603714Y-84177142D01*
X130603714Y-83843809D01*
X130413238Y-83843809D01*
X131032285Y-84272380D02*
X131032285Y-83272380D01*
X131603714Y-84272380D01*
X131603714Y-83272380D01*
X132079904Y-84272380D02*
X132079904Y-83272380D01*
X132318000Y-83272380D01*
X132460857Y-83320000D01*
X132556095Y-83415238D01*
X132603714Y-83510476D01*
X132651333Y-83700952D01*
X132651333Y-83843809D01*
X132603714Y-84034285D01*
X132556095Y-84129523D01*
X132460857Y-84224761D01*
X132318000Y-84272380D01*
X132079904Y-84272380D01*
X128810000Y-81351428D02*
X129571904Y-81351428D01*
X129190952Y-81732380D02*
X129190952Y-80970476D01*
X129952857Y-80732380D02*
X130571904Y-80732380D01*
X130238571Y-81113333D01*
X130381428Y-81113333D01*
X130476666Y-81160952D01*
X130524285Y-81208571D01*
X130571904Y-81303809D01*
X130571904Y-81541904D01*
X130524285Y-81637142D01*
X130476666Y-81684761D01*
X130381428Y-81732380D01*
X130095714Y-81732380D01*
X130000476Y-81684761D01*
X129952857Y-81637142D01*
X131000476Y-81637142D02*
X131048095Y-81684761D01*
X131000476Y-81732380D01*
X130952857Y-81684761D01*
X131000476Y-81637142D01*
X131000476Y-81732380D01*
X131381428Y-80732380D02*
X132000476Y-80732380D01*
X131667142Y-81113333D01*
X131810000Y-81113333D01*
X131905238Y-81160952D01*
X131952857Y-81208571D01*
X132000476Y-81303809D01*
X132000476Y-81541904D01*
X131952857Y-81637142D01*
X131905238Y-81684761D01*
X131810000Y-81732380D01*
X131524285Y-81732380D01*
X131429047Y-81684761D01*
X131381428Y-81637142D01*
X132286190Y-80732380D02*
X132619523Y-81732380D01*
X132952857Y-80732380D01*
X130556095Y-78240000D02*
X130460857Y-78192380D01*
X130318000Y-78192380D01*
X130175142Y-78240000D01*
X130079904Y-78335238D01*
X130032285Y-78430476D01*
X129984666Y-78620952D01*
X129984666Y-78763809D01*
X130032285Y-78954285D01*
X130079904Y-79049523D01*
X130175142Y-79144761D01*
X130318000Y-79192380D01*
X130413238Y-79192380D01*
X130556095Y-79144761D01*
X130603714Y-79097142D01*
X130603714Y-78763809D01*
X130413238Y-78763809D01*
X131032285Y-79192380D02*
X131032285Y-78192380D01*
X131603714Y-79192380D01*
X131603714Y-78192380D01*
X132079904Y-79192380D02*
X132079904Y-78192380D01*
X132318000Y-78192380D01*
X132460857Y-78240000D01*
X132556095Y-78335238D01*
X132603714Y-78430476D01*
X132651333Y-78620952D01*
X132651333Y-78763809D01*
X132603714Y-78954285D01*
X132556095Y-79049523D01*
X132460857Y-79144761D01*
X132318000Y-79192380D01*
X132079904Y-79192380D01*
X129278285Y-76271428D02*
X130040190Y-76271428D01*
X129659238Y-76652380D02*
X129659238Y-75890476D01*
X130992571Y-75652380D02*
X130516380Y-75652380D01*
X130468761Y-76128571D01*
X130516380Y-76080952D01*
X130611619Y-76033333D01*
X130849714Y-76033333D01*
X130944952Y-76080952D01*
X130992571Y-76128571D01*
X131040190Y-76223809D01*
X131040190Y-76461904D01*
X130992571Y-76557142D01*
X130944952Y-76604761D01*
X130849714Y-76652380D01*
X130611619Y-76652380D01*
X130516380Y-76604761D01*
X130468761Y-76557142D01*
X131325904Y-75652380D02*
X131659238Y-76652380D01*
X131992571Y-75652380D01*
X132325904Y-76652380D02*
X132325904Y-75652380D01*
X132564000Y-75652380D01*
X132706857Y-75700000D01*
X132802095Y-75795238D01*
X132849714Y-75890476D01*
X132897333Y-76080952D01*
X132897333Y-76223809D01*
X132849714Y-76414285D01*
X132802095Y-76509523D01*
X132706857Y-76604761D01*
X132564000Y-76652380D01*
X132325904Y-76652380D01*
X130556095Y-73160000D02*
X130460857Y-73112380D01*
X130318000Y-73112380D01*
X130175142Y-73160000D01*
X130079904Y-73255238D01*
X130032285Y-73350476D01*
X129984666Y-73540952D01*
X129984666Y-73683809D01*
X130032285Y-73874285D01*
X130079904Y-73969523D01*
X130175142Y-74064761D01*
X130318000Y-74112380D01*
X130413238Y-74112380D01*
X130556095Y-74064761D01*
X130603714Y-74017142D01*
X130603714Y-73683809D01*
X130413238Y-73683809D01*
X131032285Y-74112380D02*
X131032285Y-73112380D01*
X131603714Y-74112380D01*
X131603714Y-73112380D01*
X132079904Y-74112380D02*
X132079904Y-73112380D01*
X132318000Y-73112380D01*
X132460857Y-73160000D01*
X132556095Y-73255238D01*
X132603714Y-73350476D01*
X132651333Y-73540952D01*
X132651333Y-73683809D01*
X132603714Y-73874285D01*
X132556095Y-73969523D01*
X132460857Y-74064761D01*
X132318000Y-74112380D01*
X132079904Y-74112380D01*
X129349714Y-71191428D02*
X130111619Y-71191428D01*
X129730666Y-71572380D02*
X129730666Y-70810476D01*
X131064000Y-70572380D02*
X130587809Y-70572380D01*
X130540190Y-71048571D01*
X130587809Y-71000952D01*
X130683047Y-70953333D01*
X130921142Y-70953333D01*
X131016380Y-71000952D01*
X131064000Y-71048571D01*
X131111619Y-71143809D01*
X131111619Y-71381904D01*
X131064000Y-71477142D01*
X131016380Y-71524761D01*
X130921142Y-71572380D01*
X130683047Y-71572380D01*
X130587809Y-71524761D01*
X130540190Y-71477142D01*
X131397333Y-70572380D02*
X131730666Y-71572380D01*
X132064000Y-70572380D01*
X132349714Y-71286666D02*
X132825904Y-71286666D01*
X132254476Y-71572380D02*
X132587809Y-70572380D01*
X132921142Y-71572380D01*
X130556095Y-68080000D02*
X130460857Y-68032380D01*
X130318000Y-68032380D01*
X130175142Y-68080000D01*
X130079904Y-68175238D01*
X130032285Y-68270476D01*
X129984666Y-68460952D01*
X129984666Y-68603809D01*
X130032285Y-68794285D01*
X130079904Y-68889523D01*
X130175142Y-68984761D01*
X130318000Y-69032380D01*
X130413238Y-69032380D01*
X130556095Y-68984761D01*
X130603714Y-68937142D01*
X130603714Y-68603809D01*
X130413238Y-68603809D01*
X131032285Y-69032380D02*
X131032285Y-68032380D01*
X131603714Y-69032380D01*
X131603714Y-68032380D01*
X132079904Y-69032380D02*
X132079904Y-68032380D01*
X132318000Y-68032380D01*
X132460857Y-68080000D01*
X132556095Y-68175238D01*
X132603714Y-68270476D01*
X132651333Y-68460952D01*
X132651333Y-68603809D01*
X132603714Y-68794285D01*
X132556095Y-68889523D01*
X132460857Y-68984761D01*
X132318000Y-69032380D01*
X132079904Y-69032380D01*
X129048095Y-66111428D02*
X129810000Y-66111428D01*
X129429047Y-66492380D02*
X129429047Y-65730476D01*
X130810000Y-66492380D02*
X130238571Y-66492380D01*
X130524285Y-66492380D02*
X130524285Y-65492380D01*
X130429047Y-65635238D01*
X130333809Y-65730476D01*
X130238571Y-65778095D01*
X131190952Y-65587619D02*
X131238571Y-65540000D01*
X131333809Y-65492380D01*
X131571904Y-65492380D01*
X131667142Y-65540000D01*
X131714761Y-65587619D01*
X131762380Y-65682857D01*
X131762380Y-65778095D01*
X131714761Y-65920952D01*
X131143333Y-66492380D01*
X131762380Y-66492380D01*
X132048095Y-65492380D02*
X132381428Y-66492380D01*
X132714761Y-65492380D01*
X130556095Y-63000000D02*
X130460857Y-62952380D01*
X130318000Y-62952380D01*
X130175142Y-63000000D01*
X130079904Y-63095238D01*
X130032285Y-63190476D01*
X129984666Y-63380952D01*
X129984666Y-63523809D01*
X130032285Y-63714285D01*
X130079904Y-63809523D01*
X130175142Y-63904761D01*
X130318000Y-63952380D01*
X130413238Y-63952380D01*
X130556095Y-63904761D01*
X130603714Y-63857142D01*
X130603714Y-63523809D01*
X130413238Y-63523809D01*
X131032285Y-63952380D02*
X131032285Y-62952380D01*
X131603714Y-63952380D01*
X131603714Y-62952380D01*
X132079904Y-63952380D02*
X132079904Y-62952380D01*
X132318000Y-62952380D01*
X132460857Y-63000000D01*
X132556095Y-63095238D01*
X132603714Y-63190476D01*
X132651333Y-63380952D01*
X132651333Y-63523809D01*
X132603714Y-63714285D01*
X132556095Y-63809523D01*
X132460857Y-63904761D01*
X132318000Y-63952380D01*
X132079904Y-63952380D01*
X130198952Y-60888571D02*
X130341809Y-60936190D01*
X130389428Y-60983809D01*
X130437047Y-61079047D01*
X130437047Y-61221904D01*
X130389428Y-61317142D01*
X130341809Y-61364761D01*
X130246571Y-61412380D01*
X129865619Y-61412380D01*
X129865619Y-60412380D01*
X130198952Y-60412380D01*
X130294190Y-60460000D01*
X130341809Y-60507619D01*
X130389428Y-60602857D01*
X130389428Y-60698095D01*
X130341809Y-60793333D01*
X130294190Y-60840952D01*
X130198952Y-60888571D01*
X129865619Y-60888571D01*
X130818000Y-61126666D02*
X131294190Y-61126666D01*
X130722761Y-61412380D02*
X131056095Y-60412380D01*
X131389428Y-61412380D01*
X131579904Y-60412380D02*
X132151333Y-60412380D01*
X131865619Y-61412380D02*
X131865619Y-60412380D01*
X132341809Y-60412380D02*
X132913238Y-60412380D01*
X132627523Y-61412380D02*
X132627523Y-60412380D01*
X130556095Y-57920000D02*
X130460857Y-57872380D01*
X130318000Y-57872380D01*
X130175142Y-57920000D01*
X130079904Y-58015238D01*
X130032285Y-58110476D01*
X129984666Y-58300952D01*
X129984666Y-58443809D01*
X130032285Y-58634285D01*
X130079904Y-58729523D01*
X130175142Y-58824761D01*
X130318000Y-58872380D01*
X130413238Y-58872380D01*
X130556095Y-58824761D01*
X130603714Y-58777142D01*
X130603714Y-58443809D01*
X130413238Y-58443809D01*
X131032285Y-58872380D02*
X131032285Y-57872380D01*
X131603714Y-58872380D01*
X131603714Y-57872380D01*
X132079904Y-58872380D02*
X132079904Y-57872380D01*
X132318000Y-57872380D01*
X132460857Y-57920000D01*
X132556095Y-58015238D01*
X132603714Y-58110476D01*
X132651333Y-58300952D01*
X132651333Y-58443809D01*
X132603714Y-58634285D01*
X132556095Y-58729523D01*
X132460857Y-58824761D01*
X132318000Y-58872380D01*
X132079904Y-58872380D01*
D11*
X191342952Y-129365333D02*
X192295333Y-129365333D01*
X191152476Y-129936761D02*
X191819142Y-127936761D01*
X192485809Y-129936761D01*
X193819142Y-128889142D02*
X193152476Y-128889142D01*
X193152476Y-129936761D02*
X193152476Y-127936761D01*
X194104857Y-127936761D01*
X195533428Y-128889142D02*
X194866761Y-128889142D01*
X194866761Y-129936761D02*
X194866761Y-127936761D01*
X195819142Y-127936761D01*
X196581047Y-129936761D02*
X196581047Y-127936761D01*
X198676285Y-129746285D02*
X198581047Y-129841523D01*
X198295333Y-129936761D01*
X198104857Y-129936761D01*
X197819142Y-129841523D01*
X197628666Y-129651047D01*
X197533428Y-129460571D01*
X197438190Y-129079619D01*
X197438190Y-128793904D01*
X197533428Y-128412952D01*
X197628666Y-128222476D01*
X197819142Y-128032000D01*
X198104857Y-127936761D01*
X198295333Y-127936761D01*
X198581047Y-128032000D01*
X198676285Y-128127238D01*
X199533428Y-129936761D02*
X199533428Y-127936761D01*
X199533428Y-128889142D02*
X200676285Y-128889142D01*
X200676285Y-129936761D02*
X200676285Y-127936761D01*
X201628666Y-128889142D02*
X202295333Y-128889142D01*
X202581047Y-129936761D02*
X201628666Y-129936761D01*
X201628666Y-127936761D01*
X202581047Y-127936761D01*
X203438190Y-127936761D02*
X203438190Y-129555809D01*
X203533428Y-129746285D01*
X203628666Y-129841523D01*
X203819142Y-129936761D01*
X204200095Y-129936761D01*
X204390571Y-129841523D01*
X204485809Y-129746285D01*
X204581047Y-129555809D01*
X204581047Y-127936761D01*
X206676285Y-129936761D02*
X206009619Y-128984380D01*
X205533428Y-129936761D02*
X205533428Y-127936761D01*
X206295333Y-127936761D01*
X206485809Y-128032000D01*
X206581047Y-128127238D01*
X206676285Y-128317714D01*
X206676285Y-128603428D01*
X206581047Y-128793904D01*
X206485809Y-128889142D01*
X206295333Y-128984380D01*
X205533428Y-128984380D01*
X208866761Y-127936761D02*
X210200095Y-127936761D01*
X209342952Y-129936761D01*
X212485809Y-129936761D02*
X212485809Y-127936761D01*
X212962000Y-127936761D01*
X213247714Y-128032000D01*
X213438190Y-128222476D01*
X213533428Y-128412952D01*
X213628666Y-128793904D01*
X213628666Y-129079619D01*
X213533428Y-129460571D01*
X213438190Y-129651047D01*
X213247714Y-129841523D01*
X212962000Y-129936761D01*
X212485809Y-129936761D01*
X214485809Y-129936761D02*
X214485809Y-127936761D01*
X216485809Y-128032000D02*
X216295333Y-127936761D01*
X216009619Y-127936761D01*
X215723904Y-128032000D01*
X215533428Y-128222476D01*
X215438190Y-128412952D01*
X215342952Y-128793904D01*
X215342952Y-129079619D01*
X215438190Y-129460571D01*
X215533428Y-129651047D01*
X215723904Y-129841523D01*
X216009619Y-129936761D01*
X216200095Y-129936761D01*
X216485809Y-129841523D01*
X216581047Y-129746285D01*
X216581047Y-129079619D01*
X216200095Y-129079619D01*
X188356761Y-136508761D02*
X187404380Y-137175428D01*
X188356761Y-137651619D02*
X186356761Y-137651619D01*
X186356761Y-136889714D01*
X186452000Y-136699238D01*
X186547238Y-136604000D01*
X186737714Y-136508761D01*
X187023428Y-136508761D01*
X187213904Y-136604000D01*
X187309142Y-136699238D01*
X187404380Y-136889714D01*
X187404380Y-137651619D01*
X187309142Y-135651619D02*
X187309142Y-134984952D01*
X188356761Y-134699238D02*
X188356761Y-135651619D01*
X186356761Y-135651619D01*
X186356761Y-134699238D01*
X188261523Y-133937333D02*
X188356761Y-133651619D01*
X188356761Y-133175428D01*
X188261523Y-132984952D01*
X188166285Y-132889714D01*
X187975809Y-132794476D01*
X187785333Y-132794476D01*
X187594857Y-132889714D01*
X187499619Y-132984952D01*
X187404380Y-133175428D01*
X187309142Y-133556380D01*
X187213904Y-133746857D01*
X187118666Y-133842095D01*
X186928190Y-133937333D01*
X186737714Y-133937333D01*
X186547238Y-133842095D01*
X186452000Y-133746857D01*
X186356761Y-133556380D01*
X186356761Y-133080190D01*
X186452000Y-132794476D01*
X187309142Y-131937333D02*
X187309142Y-131270666D01*
X188356761Y-130984952D02*
X188356761Y-131937333D01*
X186356761Y-131937333D01*
X186356761Y-130984952D01*
X186356761Y-130413523D02*
X186356761Y-129270666D01*
X188356761Y-129842095D02*
X186356761Y-129842095D01*
X173244761Y-135588095D02*
X173244761Y-136540476D01*
X171244761Y-136540476D01*
X172197142Y-134921428D02*
X172197142Y-134254761D01*
X173244761Y-133969047D02*
X173244761Y-134921428D01*
X171244761Y-134921428D01*
X171244761Y-133969047D01*
X173244761Y-133111904D02*
X171244761Y-133111904D01*
X171244761Y-132635714D01*
X171340000Y-132350000D01*
X171530476Y-132159523D01*
X171720952Y-132064285D01*
X172101904Y-131969047D01*
X172387619Y-131969047D01*
X172768571Y-132064285D01*
X172959047Y-132159523D01*
X173149523Y-132350000D01*
X173244761Y-132635714D01*
X173244761Y-133111904D01*
X173244761Y-130064285D02*
X173244761Y-131207142D01*
X173244761Y-130635714D02*
X171244761Y-130635714D01*
X171530476Y-130826190D01*
X171720952Y-131016666D01*
X171816190Y-131207142D01*
X176544761Y-135588095D02*
X176544761Y-136540476D01*
X174544761Y-136540476D01*
X175497142Y-134921428D02*
X175497142Y-134254761D01*
X176544761Y-133969047D02*
X176544761Y-134921428D01*
X174544761Y-134921428D01*
X174544761Y-133969047D01*
X176544761Y-133111904D02*
X174544761Y-133111904D01*
X174544761Y-132635714D01*
X174640000Y-132350000D01*
X174830476Y-132159523D01*
X175020952Y-132064285D01*
X175401904Y-131969047D01*
X175687619Y-131969047D01*
X176068571Y-132064285D01*
X176259047Y-132159523D01*
X176449523Y-132350000D01*
X176544761Y-132635714D01*
X176544761Y-133111904D01*
X174735238Y-131207142D02*
X174640000Y-131111904D01*
X174544761Y-130921428D01*
X174544761Y-130445238D01*
X174640000Y-130254761D01*
X174735238Y-130159523D01*
X174925714Y-130064285D01*
X175116190Y-130064285D01*
X175401904Y-130159523D01*
X176544761Y-131302380D01*
X176544761Y-130064285D01*
X161052190Y-131746761D02*
X161052190Y-133365809D01*
X161147428Y-133556285D01*
X161242666Y-133651523D01*
X161433142Y-133746761D01*
X161814095Y-133746761D01*
X162004571Y-133651523D01*
X162099809Y-133556285D01*
X162195047Y-133365809D01*
X162195047Y-131746761D01*
X163052190Y-133651523D02*
X163337904Y-133746761D01*
X163814095Y-133746761D01*
X164004571Y-133651523D01*
X164099809Y-133556285D01*
X164195047Y-133365809D01*
X164195047Y-133175333D01*
X164099809Y-132984857D01*
X164004571Y-132889619D01*
X163814095Y-132794380D01*
X163433142Y-132699142D01*
X163242666Y-132603904D01*
X163147428Y-132508666D01*
X163052190Y-132318190D01*
X163052190Y-132127714D01*
X163147428Y-131937238D01*
X163242666Y-131842000D01*
X163433142Y-131746761D01*
X163909333Y-131746761D01*
X164195047Y-131842000D01*
X165718857Y-132699142D02*
X166004571Y-132794380D01*
X166099809Y-132889619D01*
X166195047Y-133080095D01*
X166195047Y-133365809D01*
X166099809Y-133556285D01*
X166004571Y-133651523D01*
X165814095Y-133746761D01*
X165052190Y-133746761D01*
X165052190Y-131746761D01*
X165718857Y-131746761D01*
X165909333Y-131842000D01*
X166004571Y-131937238D01*
X166099809Y-132127714D01*
X166099809Y-132318190D01*
X166004571Y-132508666D01*
X165909333Y-132603904D01*
X165718857Y-132699142D01*
X165052190Y-132699142D01*
X145716761Y-137302476D02*
X147335809Y-137302476D01*
X147526285Y-137207238D01*
X147621523Y-137112000D01*
X147716761Y-136921523D01*
X147716761Y-136540571D01*
X147621523Y-136350095D01*
X147526285Y-136254857D01*
X147335809Y-136159619D01*
X145716761Y-136159619D01*
X147145333Y-135302476D02*
X147145333Y-134350095D01*
X147716761Y-135492952D02*
X145716761Y-134826285D01*
X147716761Y-134159619D01*
X147716761Y-132350095D02*
X146764380Y-133016761D01*
X147716761Y-133492952D02*
X145716761Y-133492952D01*
X145716761Y-132731047D01*
X145812000Y-132540571D01*
X145907238Y-132445333D01*
X146097714Y-132350095D01*
X146383428Y-132350095D01*
X146573904Y-132445333D01*
X146669142Y-132540571D01*
X146764380Y-132731047D01*
X146764380Y-133492952D01*
X145716761Y-131778666D02*
X145716761Y-130635809D01*
X147716761Y-131207238D02*
X145716761Y-131207238D01*
X133445619Y-128666761D02*
X133445619Y-126666761D01*
X135540857Y-128476285D02*
X135445619Y-128571523D01*
X135159904Y-128666761D01*
X134969428Y-128666761D01*
X134683714Y-128571523D01*
X134493238Y-128381047D01*
X134398000Y-128190571D01*
X134302761Y-127809619D01*
X134302761Y-127523904D01*
X134398000Y-127142952D01*
X134493238Y-126952476D01*
X134683714Y-126762000D01*
X134969428Y-126666761D01*
X135159904Y-126666761D01*
X135445619Y-126762000D01*
X135540857Y-126857238D01*
X136398000Y-128666761D02*
X136398000Y-126666761D01*
X136874190Y-126666761D01*
X137159904Y-126762000D01*
X137350380Y-126952476D01*
X137445619Y-127142952D01*
X137540857Y-127523904D01*
X137540857Y-127809619D01*
X137445619Y-128190571D01*
X137350380Y-128381047D01*
X137159904Y-128571523D01*
X136874190Y-128666761D01*
X136398000Y-128666761D01*
X138207523Y-126666761D02*
X139445619Y-126666761D01*
X138778952Y-127428666D01*
X139064666Y-127428666D01*
X139255142Y-127523904D01*
X139350380Y-127619142D01*
X139445619Y-127809619D01*
X139445619Y-128285809D01*
X139350380Y-128476285D01*
X139255142Y-128571523D01*
X139064666Y-128666761D01*
X138493238Y-128666761D01*
X138302761Y-128571523D01*
X138207523Y-128476285D01*
D12*
%TO.C,U3001*%
X157913000Y-115096000D02*
X157913000Y-113406000D01*
X158658000Y-115096000D02*
X157913000Y-115096000D01*
X158658000Y-117856000D02*
X158658000Y-115096000D01*
X158658000Y-120616000D02*
X157913000Y-120616000D01*
X158658000Y-117856000D02*
X158658000Y-120616000D01*
X152238000Y-115096000D02*
X152983000Y-115096000D01*
X152238000Y-117856000D02*
X152238000Y-115096000D01*
X152238000Y-120616000D02*
X152983000Y-120616000D01*
X152238000Y-117856000D02*
X152238000Y-120616000D01*
%TO.C,R1002*%
X173213500Y-139429258D02*
X173213500Y-138954742D01*
X174258500Y-139429258D02*
X174258500Y-138954742D01*
%TO.C,C3004*%
X163578000Y-96914580D02*
X163578000Y-96633420D01*
X162558000Y-96914580D02*
X162558000Y-96633420D01*
%TO.C,U3004*%
X168923025Y-93126084D02*
X169418000Y-93621058D01*
X169418000Y-93621058D02*
X169912975Y-93126084D01*
X159857916Y-84060975D02*
X159362942Y-83566000D01*
X159362942Y-83566000D02*
X159857916Y-83071025D01*
X178978084Y-83071025D02*
X179473058Y-83566000D01*
X179473058Y-83566000D02*
X178978084Y-84060975D01*
X169912975Y-74005916D02*
X169418000Y-73510942D01*
X169418000Y-73510942D02*
X168923025Y-74005916D01*
X168923025Y-74005916D02*
X168010858Y-73093749D01*
%TO.C,R1001*%
X172480500Y-139429258D02*
X172480500Y-138954742D01*
X171435500Y-139429258D02*
X171435500Y-138954742D01*
%TO.C,R1003*%
X174991500Y-139429258D02*
X174991500Y-138954742D01*
X176036500Y-139429258D02*
X176036500Y-138954742D01*
%TO.C,D1002*%
X175026000Y-145272000D02*
X175276000Y-145522000D01*
X177526000Y-145272000D02*
X177276000Y-145522000D01*
X178026000Y-143272000D02*
X177526000Y-143272000D01*
X178026000Y-145272000D02*
X177526000Y-145272000D01*
X174526000Y-143272000D02*
X175526000Y-143272000D01*
X175026000Y-145272000D02*
X174526000Y-145272000D01*
X177126000Y-143272000D02*
G75*
G03*
X177126000Y-143272000I-100000J0D01*
G01*
%TO.C,R1004*%
X177814500Y-139429258D02*
X177814500Y-138954742D01*
X176769500Y-139429258D02*
X176769500Y-138954742D01*
%TO.C,D1001*%
X172808000Y-143272000D02*
G75*
G03*
X172808000Y-143272000I-100000J0D01*
G01*
X170708000Y-145272000D02*
X170208000Y-145272000D01*
X170208000Y-143272000D02*
X171208000Y-143272000D01*
X173708000Y-145272000D02*
X173208000Y-145272000D01*
X173708000Y-143272000D02*
X173208000Y-143272000D01*
X173208000Y-145272000D02*
X172958000Y-145522000D01*
X170708000Y-145272000D02*
X170958000Y-145522000D01*
%TO.C,J1005*%
X129798000Y-130850000D02*
X142998000Y-130850000D01*
X142998000Y-130850000D02*
X142998000Y-139870000D01*
D13*
X142998000Y-148730000D02*
X142998000Y-148850000D01*
D12*
X142998000Y-148850000D02*
X142998000Y-142070000D01*
D13*
X142998000Y-148840000D02*
X142998000Y-148850000D01*
D12*
X142998000Y-148850000D02*
X129798000Y-148850000D01*
X129798000Y-148850000D02*
X129798000Y-142070000D01*
D13*
X129798000Y-139800000D02*
X129798000Y-139870000D01*
D12*
X129798000Y-139870000D02*
X129798000Y-130850000D01*
X129328000Y-132850000D02*
X129328000Y-131320000D01*
%TO.C,C2003*%
X183247420Y-135130000D02*
X183528580Y-135130000D01*
X183247420Y-134110000D02*
X183528580Y-134110000D01*
%TO.C,J1001*%
X210760000Y-57090000D02*
X213360000Y-57090000D01*
X210760000Y-57090000D02*
X210760000Y-108010000D01*
X210760000Y-108010000D02*
X215960000Y-108010000D01*
X215960000Y-59690000D02*
X215960000Y-108010000D01*
X213360000Y-59690000D02*
X215960000Y-59690000D01*
X213360000Y-57090000D02*
X213360000Y-59690000D01*
X215960000Y-57090000D02*
X215960000Y-58420000D01*
X214630000Y-57090000D02*
X215960000Y-57090000D01*
%TO.C,J1002*%
X137160000Y-57090000D02*
X138490000Y-57090000D01*
X138490000Y-57090000D02*
X138490000Y-58420000D01*
X135890000Y-57090000D02*
X135890000Y-59690000D01*
X135890000Y-59690000D02*
X138490000Y-59690000D01*
X138490000Y-59690000D02*
X138490000Y-108010000D01*
X133290000Y-108010000D02*
X138490000Y-108010000D01*
X133290000Y-57090000D02*
X133290000Y-108010000D01*
X133290000Y-57090000D02*
X135890000Y-57090000D01*
%TO.C,J1003*%
X147192000Y-138870000D02*
X146892000Y-139470000D01*
X146592000Y-138870000D02*
X147192000Y-138870000D01*
X146892000Y-139470000D02*
X146592000Y-138870000D01*
X154642000Y-144170000D02*
X154142000Y-144170000D01*
X154642000Y-149670000D02*
X154642000Y-144170000D01*
X154142000Y-149670000D02*
X154642000Y-149670000D01*
X154142000Y-144170000D02*
X154142000Y-149670000D01*
X152142000Y-144170000D02*
X151642000Y-144170000D01*
X152142000Y-149670000D02*
X152142000Y-144170000D01*
X151642000Y-149670000D02*
X152142000Y-149670000D01*
X151642000Y-144170000D02*
X151642000Y-149670000D01*
X149642000Y-144170000D02*
X149142000Y-144170000D01*
X149642000Y-149670000D02*
X149642000Y-144170000D01*
X149142000Y-149670000D02*
X149642000Y-149670000D01*
X149142000Y-144170000D02*
X149142000Y-149670000D01*
X147142000Y-144170000D02*
X146642000Y-144170000D01*
X147142000Y-149670000D02*
X147142000Y-144170000D01*
X146642000Y-149670000D02*
X147142000Y-149670000D01*
X146642000Y-144170000D02*
X146642000Y-149670000D01*
X155532000Y-143060000D02*
X150642000Y-143060000D01*
X155532000Y-138560000D02*
X155532000Y-143060000D01*
X156952000Y-138560000D02*
X155532000Y-138560000D01*
X156952000Y-150280000D02*
X156952000Y-138560000D01*
X150642000Y-150280000D02*
X156952000Y-150280000D01*
X145752000Y-143060000D02*
X150642000Y-143060000D01*
X145752000Y-138560000D02*
X145752000Y-143060000D01*
X144332000Y-138560000D02*
X145752000Y-138560000D01*
X144332000Y-150280000D02*
X144332000Y-138560000D01*
X150642000Y-150280000D02*
X144332000Y-150280000D01*
%TO.C,R2002*%
X183213742Y-133110500D02*
X183688258Y-133110500D01*
X183213742Y-132065500D02*
X183688258Y-132065500D01*
%TO.C,R2004*%
X183150742Y-136129500D02*
X183625258Y-136129500D01*
X183150742Y-137174500D02*
X183625258Y-137174500D01*
%TO.C,SW1001*%
X184870000Y-142286000D02*
X181470000Y-142286000D01*
X186510000Y-142286000D02*
X185970000Y-142286000D01*
X179310000Y-139456000D02*
X179310000Y-138946000D01*
X179830000Y-138946000D02*
X179310000Y-138946000D01*
X179830000Y-139456000D02*
X179830000Y-138946000D01*
X180370000Y-142286000D02*
X179830000Y-142286000D01*
X187030000Y-139456000D02*
X187030000Y-138946000D01*
X186510000Y-139456000D02*
X186510000Y-138946000D01*
X179830000Y-142286000D02*
X179830000Y-142056000D01*
X187030000Y-145956000D02*
X187030000Y-142056000D01*
X187030000Y-138946000D02*
X186510000Y-138946000D01*
X179310000Y-145956000D02*
X179310000Y-142056000D01*
X187030000Y-145956000D02*
X179310000Y-145956000D01*
X186510000Y-142286000D02*
X186510000Y-142056000D01*
%TO.C,J1004*%
X159666000Y-146118000D02*
X159666000Y-144168000D01*
X159666000Y-141948000D02*
X159666000Y-138718000D01*
X160386000Y-136798000D02*
X161466000Y-136798000D01*
X165686000Y-136798000D02*
X166766000Y-136798000D01*
X167486000Y-141948000D02*
X167486000Y-138718000D01*
X167486000Y-146118000D02*
X167486000Y-144168000D01*
X161466000Y-136798000D02*
X161466000Y-136368000D01*
X167486000Y-146118000D02*
X159666000Y-146118000D01*
%TO.C,C3001*%
X210184420Y-110746000D02*
X210465580Y-110746000D01*
X210184420Y-109726000D02*
X210465580Y-109726000D01*
%TO.C,Q3001*%
X189540000Y-117096000D02*
X189540000Y-118556000D01*
X186380000Y-117096000D02*
X186380000Y-119256000D01*
X186380000Y-117096000D02*
X187310000Y-117096000D01*
X189540000Y-117096000D02*
X188610000Y-117096000D01*
%TO.C,Q3002*%
X189540000Y-122430000D02*
X188610000Y-122430000D01*
X186380000Y-122430000D02*
X187310000Y-122430000D01*
X186380000Y-122430000D02*
X186380000Y-124590000D01*
X189540000Y-122430000D02*
X189540000Y-123890000D01*
%TO.C,R3001*%
X200166500Y-95932258D02*
X200166500Y-95457742D01*
X199121500Y-95932258D02*
X199121500Y-95457742D01*
%TO.C,R3002*%
X196581500Y-95932258D02*
X196581500Y-95457742D01*
X197626500Y-95932258D02*
X197626500Y-95457742D01*
%TO.C,R3003*%
X188482500Y-112855742D02*
X188482500Y-113330258D01*
X187437500Y-112855742D02*
X187437500Y-113330258D01*
%TO.C,R3004*%
X191184500Y-121174742D02*
X191184500Y-121649258D01*
X192229500Y-121174742D02*
X192229500Y-121649258D01*
%TO.C,C2005*%
X182258580Y-107952000D02*
X181977420Y-107952000D01*
X182258580Y-106932000D02*
X181977420Y-106932000D01*
%TO.C,D2001*%
X153855000Y-105588000D02*
X153855000Y-109673000D01*
X153855000Y-109673000D02*
X156025000Y-109673000D01*
X156025000Y-109673000D02*
X156025000Y-105588000D01*
%TO.C,J3001*%
X210499000Y-134480000D02*
X210499000Y-133657530D01*
X210499000Y-131772470D02*
X210499000Y-130950000D01*
X210499000Y-133042470D02*
X210499000Y-132387530D01*
X199134000Y-134480000D02*
X210499000Y-134480000D01*
X197679000Y-130950000D02*
X210499000Y-130950000D01*
X199134000Y-134480000D02*
X199134000Y-133913471D01*
X199134000Y-132786529D02*
X199134000Y-132643471D01*
X199080529Y-132590000D02*
X198937471Y-132590000D01*
X197810529Y-132590000D02*
X197679000Y-132590000D01*
X197679000Y-132590000D02*
X197679000Y-132387530D01*
X197679000Y-131772470D02*
X197679000Y-130950000D01*
X198374000Y-134480000D02*
X197614000Y-134480000D01*
X197614000Y-134480000D02*
X197614000Y-133350000D01*
%TO.C,L3001*%
X152496436Y-99420000D02*
X153950564Y-99420000D01*
X152496436Y-101240000D02*
X153950564Y-101240000D01*
%TO.C,R2003*%
X157465500Y-107996258D02*
X157465500Y-107521742D01*
X158510500Y-107996258D02*
X158510500Y-107521742D01*
%TO.C,R2005*%
X169401258Y-126252500D02*
X168926742Y-126252500D01*
X169401258Y-125207500D02*
X168926742Y-125207500D01*
%TO.C,R2006*%
X173498742Y-114568500D02*
X173973258Y-114568500D01*
X173498742Y-113523500D02*
X173973258Y-113523500D01*
%TO.C,U2001*%
X179554000Y-119610000D02*
X179554000Y-115610000D01*
X176554000Y-119610000D02*
X176554000Y-116610000D01*
%TO.C,C3002*%
X155958000Y-90283420D02*
X155958000Y-90564580D01*
X154938000Y-90283420D02*
X154938000Y-90564580D01*
%TO.C,C3003*%
X156466000Y-74816580D02*
X156466000Y-74535420D01*
X155446000Y-74816580D02*
X155446000Y-74535420D01*
%TO.C,C3005*%
X168261420Y-71118000D02*
X168542580Y-71118000D01*
X168261420Y-72138000D02*
X168542580Y-72138000D01*
%TO.C,C3006*%
X179580000Y-93358580D02*
X179580000Y-93077420D01*
X178560000Y-93358580D02*
X178560000Y-93077420D01*
%TO.C,C3007*%
X180199420Y-75436000D02*
X180480580Y-75436000D01*
X180199420Y-76456000D02*
X180480580Y-76456000D01*
%TO.C,R3006*%
X206529000Y-63492748D02*
X206529000Y-64015252D01*
X207999000Y-63492748D02*
X207999000Y-64015252D01*
%TO.C,C2006*%
X194562000Y-117742580D02*
X194562000Y-117461420D01*
X195582000Y-117742580D02*
X195582000Y-117461420D01*
%TO.C,C2007*%
X175262000Y-118250580D02*
X175262000Y-117969420D01*
X174242000Y-118250580D02*
X174242000Y-117969420D01*
%TO.C,Y2003*%
X176486000Y-113814000D02*
X175886000Y-113814000D01*
X175886000Y-113814000D02*
X175886000Y-110214000D01*
X175886000Y-110214000D02*
X176486000Y-110214000D01*
X181986000Y-113814000D02*
X178186000Y-113814000D01*
X184286000Y-112514000D02*
X184286000Y-113814000D01*
X184286000Y-110214000D02*
X184286000Y-111514000D01*
X184286000Y-113814000D02*
X183686000Y-113814000D01*
X184286000Y-110214000D02*
X183686000Y-110214000D01*
X178186000Y-110214000D02*
X181986000Y-110214000D01*
X184286000Y-111514000D02*
G75*
G03*
X184286000Y-112514000I0J-500000D01*
G01*
%TO.C,U3003*%
X196406000Y-118618000D02*
X196406000Y-122478000D01*
X196406000Y-122478000D02*
X196671000Y-122478000D01*
X196406000Y-118618000D02*
X196406000Y-114758000D01*
X196406000Y-114758000D02*
X196671000Y-114758000D01*
X212026000Y-118618000D02*
X212026000Y-122478000D01*
X212026000Y-122478000D02*
X211761000Y-122478000D01*
X212026000Y-118618000D02*
X212026000Y-114758000D01*
X212026000Y-114758000D02*
X211761000Y-114758000D01*
X211761000Y-114758000D02*
X211761000Y-112943000D01*
D10*
%TO.C,C2004*%
X164338000Y-110236000D02*
X164338000Y-98171000D01*
X164338000Y-110236000D02*
X196723000Y-110236000D01*
X196723000Y-98171000D02*
X196723000Y-110236000D01*
X164338000Y-98171000D02*
X196723000Y-98171000D01*
X161163000Y-100711000D02*
X164338000Y-100711000D01*
X161163000Y-107696000D02*
X164338000Y-107696000D01*
X165608000Y-107696000D02*
X168148000Y-107696000D01*
X166878000Y-108966000D02*
X166878000Y-106426000D01*
X166878000Y-101346000D02*
X166878000Y-100076000D01*
D12*
%TO.C,R3007*%
X152395501Y-134857258D02*
X152395501Y-134382742D01*
X151350501Y-134857258D02*
X151350501Y-134382742D01*
%TO.C,R3008*%
X151369500Y-131548259D02*
X151369500Y-131073743D01*
X152414500Y-131548259D02*
X152414500Y-131073743D01*
%TO.C,Q3003*%
X144580999Y-116278999D02*
X146040999Y-116278999D01*
X144580999Y-119438999D02*
X146740999Y-119438999D01*
X144580999Y-119438999D02*
X144580999Y-118508999D01*
X144580999Y-116278999D02*
X144580999Y-117208999D01*
%TO.C,R3009*%
X147559500Y-117555742D02*
X147559500Y-118030258D01*
X148604500Y-117555742D02*
X148604500Y-118030258D01*
%TO.C,R3010*%
X141971500Y-118093258D02*
X141971500Y-117618742D01*
X143016500Y-118093258D02*
X143016500Y-117618742D01*
%TO.C,U3002*%
X166648000Y-116610000D02*
X166648000Y-120610000D01*
X169648000Y-116610000D02*
X169648000Y-119610000D01*
%TO.C,U3001*%
D10*
X158950380Y-120046476D02*
X159759904Y-120046476D01*
X159855142Y-119998857D01*
X159902761Y-119951238D01*
X159950380Y-119856000D01*
X159950380Y-119665523D01*
X159902761Y-119570285D01*
X159855142Y-119522666D01*
X159759904Y-119475047D01*
X158950380Y-119475047D01*
X158950380Y-119094095D02*
X158950380Y-118475047D01*
X159331333Y-118808380D01*
X159331333Y-118665523D01*
X159378952Y-118570285D01*
X159426571Y-118522666D01*
X159521809Y-118475047D01*
X159759904Y-118475047D01*
X159855142Y-118522666D01*
X159902761Y-118570285D01*
X159950380Y-118665523D01*
X159950380Y-118951238D01*
X159902761Y-119046476D01*
X159855142Y-119094095D01*
X158950380Y-117856000D02*
X158950380Y-117760761D01*
X158998000Y-117665523D01*
X159045619Y-117617904D01*
X159140857Y-117570285D01*
X159331333Y-117522666D01*
X159569428Y-117522666D01*
X159759904Y-117570285D01*
X159855142Y-117617904D01*
X159902761Y-117665523D01*
X159950380Y-117760761D01*
X159950380Y-117856000D01*
X159902761Y-117951238D01*
X159855142Y-117998857D01*
X159759904Y-118046476D01*
X159569428Y-118094095D01*
X159331333Y-118094095D01*
X159140857Y-118046476D01*
X159045619Y-117998857D01*
X158998000Y-117951238D01*
X158950380Y-117856000D01*
X158950380Y-116903619D02*
X158950380Y-116808380D01*
X158998000Y-116713142D01*
X159045619Y-116665523D01*
X159140857Y-116617904D01*
X159331333Y-116570285D01*
X159569428Y-116570285D01*
X159759904Y-116617904D01*
X159855142Y-116665523D01*
X159902761Y-116713142D01*
X159950380Y-116808380D01*
X159950380Y-116903619D01*
X159902761Y-116998857D01*
X159855142Y-117046476D01*
X159759904Y-117094095D01*
X159569428Y-117141714D01*
X159331333Y-117141714D01*
X159140857Y-117094095D01*
X159045619Y-117046476D01*
X158998000Y-116998857D01*
X158950380Y-116903619D01*
X159950380Y-115617904D02*
X159950380Y-116189333D01*
X159950380Y-115903619D02*
X158950380Y-115903619D01*
X159093238Y-115998857D01*
X159188476Y-116094095D01*
X159236095Y-116189333D01*
%TO.C,C3004*%
X161995142Y-98369238D02*
X162042761Y-98416857D01*
X162090380Y-98559714D01*
X162090380Y-98654952D01*
X162042761Y-98797809D01*
X161947523Y-98893047D01*
X161852285Y-98940666D01*
X161661809Y-98988285D01*
X161518952Y-98988285D01*
X161328476Y-98940666D01*
X161233238Y-98893047D01*
X161138000Y-98797809D01*
X161090380Y-98654952D01*
X161090380Y-98559714D01*
X161138000Y-98416857D01*
X161185619Y-98369238D01*
X161090380Y-98035904D02*
X161090380Y-97416857D01*
X161471333Y-97750190D01*
X161471333Y-97607333D01*
X161518952Y-97512095D01*
X161566571Y-97464476D01*
X161661809Y-97416857D01*
X161899904Y-97416857D01*
X161995142Y-97464476D01*
X162042761Y-97512095D01*
X162090380Y-97607333D01*
X162090380Y-97893047D01*
X162042761Y-97988285D01*
X161995142Y-98035904D01*
X161090380Y-96797809D02*
X161090380Y-96702571D01*
X161138000Y-96607333D01*
X161185619Y-96559714D01*
X161280857Y-96512095D01*
X161471333Y-96464476D01*
X161709428Y-96464476D01*
X161899904Y-96512095D01*
X161995142Y-96559714D01*
X162042761Y-96607333D01*
X162090380Y-96702571D01*
X162090380Y-96797809D01*
X162042761Y-96893047D01*
X161995142Y-96940666D01*
X161899904Y-96988285D01*
X161709428Y-97035904D01*
X161471333Y-97035904D01*
X161280857Y-96988285D01*
X161185619Y-96940666D01*
X161138000Y-96893047D01*
X161090380Y-96797809D01*
X161090380Y-95845428D02*
X161090380Y-95750190D01*
X161138000Y-95654952D01*
X161185619Y-95607333D01*
X161280857Y-95559714D01*
X161471333Y-95512095D01*
X161709428Y-95512095D01*
X161899904Y-95559714D01*
X161995142Y-95607333D01*
X162042761Y-95654952D01*
X162090380Y-95750190D01*
X162090380Y-95845428D01*
X162042761Y-95940666D01*
X161995142Y-95988285D01*
X161899904Y-96035904D01*
X161709428Y-96083523D01*
X161471333Y-96083523D01*
X161280857Y-96035904D01*
X161185619Y-95988285D01*
X161138000Y-95940666D01*
X161090380Y-95845428D01*
X161423714Y-94654952D02*
X162090380Y-94654952D01*
X161042761Y-94893047D02*
X161757047Y-95131142D01*
X161757047Y-94512095D01*
%TO.C,U3004*%
X174867772Y-75018426D02*
X174295352Y-75590846D01*
X174261681Y-75691861D01*
X174261681Y-75759204D01*
X174295352Y-75860220D01*
X174430039Y-75994907D01*
X174531055Y-76028578D01*
X174598398Y-76028578D01*
X174699413Y-75994907D01*
X175271833Y-75422487D01*
X175541207Y-75691861D02*
X175978940Y-76129594D01*
X175473864Y-76163265D01*
X175574879Y-76264281D01*
X175608551Y-76365296D01*
X175608551Y-76432639D01*
X175574879Y-76533655D01*
X175406520Y-76702013D01*
X175305505Y-76735685D01*
X175238161Y-76735685D01*
X175137146Y-76702013D01*
X174935116Y-76499983D01*
X174901444Y-76398968D01*
X174901444Y-76331624D01*
X176416673Y-76567326D02*
X176484016Y-76634670D01*
X176517688Y-76735685D01*
X176517688Y-76803029D01*
X176484016Y-76904044D01*
X176383001Y-77072403D01*
X176214642Y-77240761D01*
X176046283Y-77341777D01*
X175945268Y-77375448D01*
X175877925Y-77375448D01*
X175776909Y-77341777D01*
X175709566Y-77274433D01*
X175675894Y-77173418D01*
X175675894Y-77106074D01*
X175709566Y-77005059D01*
X175810581Y-76836700D01*
X175978940Y-76668342D01*
X176147299Y-76567326D01*
X176248314Y-76533655D01*
X176315657Y-76533655D01*
X176416673Y-76567326D01*
X177090108Y-77240761D02*
X177157451Y-77308105D01*
X177191123Y-77409120D01*
X177191123Y-77476464D01*
X177157451Y-77577479D01*
X177056436Y-77745838D01*
X176888077Y-77914196D01*
X176719718Y-78015212D01*
X176618703Y-78048883D01*
X176551360Y-78048883D01*
X176450344Y-78015212D01*
X176383001Y-77947868D01*
X176349329Y-77846853D01*
X176349329Y-77779509D01*
X176383001Y-77678494D01*
X176484016Y-77510135D01*
X176652375Y-77341777D01*
X176820734Y-77240761D01*
X176921749Y-77207090D01*
X176989092Y-77207090D01*
X177090108Y-77240761D01*
X177696199Y-78318257D02*
X177224795Y-78789662D01*
X177797214Y-77880525D02*
X177123779Y-78217242D01*
X177561512Y-78654975D01*
%TO.C,R1001*%
X170980380Y-140787238D02*
X170504190Y-141120571D01*
X170980380Y-141358666D02*
X169980380Y-141358666D01*
X169980380Y-140977714D01*
X170028000Y-140882476D01*
X170075619Y-140834857D01*
X170170857Y-140787238D01*
X170313714Y-140787238D01*
X170408952Y-140834857D01*
X170456571Y-140882476D01*
X170504190Y-140977714D01*
X170504190Y-141358666D01*
X170980380Y-139834857D02*
X170980380Y-140406285D01*
X170980380Y-140120571D02*
X169980380Y-140120571D01*
X170123238Y-140215809D01*
X170218476Y-140311047D01*
X170266095Y-140406285D01*
X169980380Y-139215809D02*
X169980380Y-139120571D01*
X170028000Y-139025333D01*
X170075619Y-138977714D01*
X170170857Y-138930095D01*
X170361333Y-138882476D01*
X170599428Y-138882476D01*
X170789904Y-138930095D01*
X170885142Y-138977714D01*
X170932761Y-139025333D01*
X170980380Y-139120571D01*
X170980380Y-139215809D01*
X170932761Y-139311047D01*
X170885142Y-139358666D01*
X170789904Y-139406285D01*
X170599428Y-139453904D01*
X170361333Y-139453904D01*
X170170857Y-139406285D01*
X170075619Y-139358666D01*
X170028000Y-139311047D01*
X169980380Y-139215809D01*
X169980380Y-138263428D02*
X169980380Y-138168190D01*
X170028000Y-138072952D01*
X170075619Y-138025333D01*
X170170857Y-137977714D01*
X170361333Y-137930095D01*
X170599428Y-137930095D01*
X170789904Y-137977714D01*
X170885142Y-138025333D01*
X170932761Y-138072952D01*
X170980380Y-138168190D01*
X170980380Y-138263428D01*
X170932761Y-138358666D01*
X170885142Y-138406285D01*
X170789904Y-138453904D01*
X170599428Y-138501523D01*
X170361333Y-138501523D01*
X170170857Y-138453904D01*
X170075619Y-138406285D01*
X170028000Y-138358666D01*
X169980380Y-138263428D01*
X170980380Y-136977714D02*
X170980380Y-137549142D01*
X170980380Y-137263428D02*
X169980380Y-137263428D01*
X170123238Y-137358666D01*
X170218476Y-137453904D01*
X170266095Y-137549142D01*
%TO.C,J1005*%
X129796095Y-129372380D02*
X129796095Y-130086666D01*
X129748476Y-130229523D01*
X129653238Y-130324761D01*
X129510380Y-130372380D01*
X129415142Y-130372380D01*
X130796095Y-130372380D02*
X130224666Y-130372380D01*
X130510380Y-130372380D02*
X130510380Y-129372380D01*
X130415142Y-129515238D01*
X130319904Y-129610476D01*
X130224666Y-129658095D01*
X131415142Y-129372380D02*
X131510380Y-129372380D01*
X131605619Y-129420000D01*
X131653238Y-129467619D01*
X131700857Y-129562857D01*
X131748476Y-129753333D01*
X131748476Y-129991428D01*
X131700857Y-130181904D01*
X131653238Y-130277142D01*
X131605619Y-130324761D01*
X131510380Y-130372380D01*
X131415142Y-130372380D01*
X131319904Y-130324761D01*
X131272285Y-130277142D01*
X131224666Y-130181904D01*
X131177047Y-129991428D01*
X131177047Y-129753333D01*
X131224666Y-129562857D01*
X131272285Y-129467619D01*
X131319904Y-129420000D01*
X131415142Y-129372380D01*
X132367523Y-129372380D02*
X132462761Y-129372380D01*
X132558000Y-129420000D01*
X132605619Y-129467619D01*
X132653238Y-129562857D01*
X132700857Y-129753333D01*
X132700857Y-129991428D01*
X132653238Y-130181904D01*
X132605619Y-130277142D01*
X132558000Y-130324761D01*
X132462761Y-130372380D01*
X132367523Y-130372380D01*
X132272285Y-130324761D01*
X132224666Y-130277142D01*
X132177047Y-130181904D01*
X132129428Y-129991428D01*
X132129428Y-129753333D01*
X132177047Y-129562857D01*
X132224666Y-129467619D01*
X132272285Y-129420000D01*
X132367523Y-129372380D01*
X133605619Y-129372380D02*
X133129428Y-129372380D01*
X133081809Y-129848571D01*
X133129428Y-129800952D01*
X133224666Y-129753333D01*
X133462761Y-129753333D01*
X133558000Y-129800952D01*
X133605619Y-129848571D01*
X133653238Y-129943809D01*
X133653238Y-130181904D01*
X133605619Y-130277142D01*
X133558000Y-130324761D01*
X133462761Y-130372380D01*
X133224666Y-130372380D01*
X133129428Y-130324761D01*
X133081809Y-130277142D01*
%TO.C,J1001*%
X211598095Y-55102380D02*
X211598095Y-55816666D01*
X211550476Y-55959523D01*
X211455238Y-56054761D01*
X211312380Y-56102380D01*
X211217142Y-56102380D01*
X212598095Y-56102380D02*
X212026666Y-56102380D01*
X212312380Y-56102380D02*
X212312380Y-55102380D01*
X212217142Y-55245238D01*
X212121904Y-55340476D01*
X212026666Y-55388095D01*
X213217142Y-55102380D02*
X213312380Y-55102380D01*
X213407619Y-55150000D01*
X213455238Y-55197619D01*
X213502857Y-55292857D01*
X213550476Y-55483333D01*
X213550476Y-55721428D01*
X213502857Y-55911904D01*
X213455238Y-56007142D01*
X213407619Y-56054761D01*
X213312380Y-56102380D01*
X213217142Y-56102380D01*
X213121904Y-56054761D01*
X213074285Y-56007142D01*
X213026666Y-55911904D01*
X212979047Y-55721428D01*
X212979047Y-55483333D01*
X213026666Y-55292857D01*
X213074285Y-55197619D01*
X213121904Y-55150000D01*
X213217142Y-55102380D01*
X214169523Y-55102380D02*
X214264761Y-55102380D01*
X214360000Y-55150000D01*
X214407619Y-55197619D01*
X214455238Y-55292857D01*
X214502857Y-55483333D01*
X214502857Y-55721428D01*
X214455238Y-55911904D01*
X214407619Y-56007142D01*
X214360000Y-56054761D01*
X214264761Y-56102380D01*
X214169523Y-56102380D01*
X214074285Y-56054761D01*
X214026666Y-56007142D01*
X213979047Y-55911904D01*
X213931428Y-55721428D01*
X213931428Y-55483333D01*
X213979047Y-55292857D01*
X214026666Y-55197619D01*
X214074285Y-55150000D01*
X214169523Y-55102380D01*
X215455238Y-56102380D02*
X214883809Y-56102380D01*
X215169523Y-56102380D02*
X215169523Y-55102380D01*
X215074285Y-55245238D01*
X214979047Y-55340476D01*
X214883809Y-55388095D01*
%TO.C,J1002*%
X134128095Y-55102380D02*
X134128095Y-55816666D01*
X134080476Y-55959523D01*
X133985238Y-56054761D01*
X133842380Y-56102380D01*
X133747142Y-56102380D01*
X135128095Y-56102380D02*
X134556666Y-56102380D01*
X134842380Y-56102380D02*
X134842380Y-55102380D01*
X134747142Y-55245238D01*
X134651904Y-55340476D01*
X134556666Y-55388095D01*
X135747142Y-55102380D02*
X135842380Y-55102380D01*
X135937619Y-55150000D01*
X135985238Y-55197619D01*
X136032857Y-55292857D01*
X136080476Y-55483333D01*
X136080476Y-55721428D01*
X136032857Y-55911904D01*
X135985238Y-56007142D01*
X135937619Y-56054761D01*
X135842380Y-56102380D01*
X135747142Y-56102380D01*
X135651904Y-56054761D01*
X135604285Y-56007142D01*
X135556666Y-55911904D01*
X135509047Y-55721428D01*
X135509047Y-55483333D01*
X135556666Y-55292857D01*
X135604285Y-55197619D01*
X135651904Y-55150000D01*
X135747142Y-55102380D01*
X136699523Y-55102380D02*
X136794761Y-55102380D01*
X136890000Y-55150000D01*
X136937619Y-55197619D01*
X136985238Y-55292857D01*
X137032857Y-55483333D01*
X137032857Y-55721428D01*
X136985238Y-55911904D01*
X136937619Y-56007142D01*
X136890000Y-56054761D01*
X136794761Y-56102380D01*
X136699523Y-56102380D01*
X136604285Y-56054761D01*
X136556666Y-56007142D01*
X136509047Y-55911904D01*
X136461428Y-55721428D01*
X136461428Y-55483333D01*
X136509047Y-55292857D01*
X136556666Y-55197619D01*
X136604285Y-55150000D01*
X136699523Y-55102380D01*
X137413809Y-55197619D02*
X137461428Y-55150000D01*
X137556666Y-55102380D01*
X137794761Y-55102380D01*
X137890000Y-55150000D01*
X137937619Y-55197619D01*
X137985238Y-55292857D01*
X137985238Y-55388095D01*
X137937619Y-55530952D01*
X137366190Y-56102380D01*
X137985238Y-56102380D01*
%TO.C,J1003*%
X148880095Y-136922380D02*
X148880095Y-137636666D01*
X148832476Y-137779523D01*
X148737238Y-137874761D01*
X148594380Y-137922380D01*
X148499142Y-137922380D01*
X149880095Y-137922380D02*
X149308666Y-137922380D01*
X149594380Y-137922380D02*
X149594380Y-136922380D01*
X149499142Y-137065238D01*
X149403904Y-137160476D01*
X149308666Y-137208095D01*
X150499142Y-136922380D02*
X150594380Y-136922380D01*
X150689619Y-136970000D01*
X150737238Y-137017619D01*
X150784857Y-137112857D01*
X150832476Y-137303333D01*
X150832476Y-137541428D01*
X150784857Y-137731904D01*
X150737238Y-137827142D01*
X150689619Y-137874761D01*
X150594380Y-137922380D01*
X150499142Y-137922380D01*
X150403904Y-137874761D01*
X150356285Y-137827142D01*
X150308666Y-137731904D01*
X150261047Y-137541428D01*
X150261047Y-137303333D01*
X150308666Y-137112857D01*
X150356285Y-137017619D01*
X150403904Y-136970000D01*
X150499142Y-136922380D01*
X151451523Y-136922380D02*
X151546761Y-136922380D01*
X151642000Y-136970000D01*
X151689619Y-137017619D01*
X151737238Y-137112857D01*
X151784857Y-137303333D01*
X151784857Y-137541428D01*
X151737238Y-137731904D01*
X151689619Y-137827142D01*
X151642000Y-137874761D01*
X151546761Y-137922380D01*
X151451523Y-137922380D01*
X151356285Y-137874761D01*
X151308666Y-137827142D01*
X151261047Y-137731904D01*
X151213428Y-137541428D01*
X151213428Y-137303333D01*
X151261047Y-137112857D01*
X151308666Y-137017619D01*
X151356285Y-136970000D01*
X151451523Y-136922380D01*
X152118190Y-136922380D02*
X152737238Y-136922380D01*
X152403904Y-137303333D01*
X152546761Y-137303333D01*
X152642000Y-137350952D01*
X152689619Y-137398571D01*
X152737238Y-137493809D01*
X152737238Y-137731904D01*
X152689619Y-137827142D01*
X152642000Y-137874761D01*
X152546761Y-137922380D01*
X152261047Y-137922380D01*
X152165809Y-137874761D01*
X152118190Y-137827142D01*
%TO.C,SW1001*%
X180408095Y-141980761D02*
X180550952Y-142028380D01*
X180789047Y-142028380D01*
X180884285Y-141980761D01*
X180931904Y-141933142D01*
X180979523Y-141837904D01*
X180979523Y-141742666D01*
X180931904Y-141647428D01*
X180884285Y-141599809D01*
X180789047Y-141552190D01*
X180598571Y-141504571D01*
X180503333Y-141456952D01*
X180455714Y-141409333D01*
X180408095Y-141314095D01*
X180408095Y-141218857D01*
X180455714Y-141123619D01*
X180503333Y-141076000D01*
X180598571Y-141028380D01*
X180836666Y-141028380D01*
X180979523Y-141076000D01*
X181312857Y-141028380D02*
X181550952Y-142028380D01*
X181741428Y-141314095D01*
X181931904Y-142028380D01*
X182170000Y-141028380D01*
X183074761Y-142028380D02*
X182503333Y-142028380D01*
X182789047Y-142028380D02*
X182789047Y-141028380D01*
X182693809Y-141171238D01*
X182598571Y-141266476D01*
X182503333Y-141314095D01*
X183693809Y-141028380D02*
X183789047Y-141028380D01*
X183884285Y-141076000D01*
X183931904Y-141123619D01*
X183979523Y-141218857D01*
X184027142Y-141409333D01*
X184027142Y-141647428D01*
X183979523Y-141837904D01*
X183931904Y-141933142D01*
X183884285Y-141980761D01*
X183789047Y-142028380D01*
X183693809Y-142028380D01*
X183598571Y-141980761D01*
X183550952Y-141933142D01*
X183503333Y-141837904D01*
X183455714Y-141647428D01*
X183455714Y-141409333D01*
X183503333Y-141218857D01*
X183550952Y-141123619D01*
X183598571Y-141076000D01*
X183693809Y-141028380D01*
X184646190Y-141028380D02*
X184741428Y-141028380D01*
X184836666Y-141076000D01*
X184884285Y-141123619D01*
X184931904Y-141218857D01*
X184979523Y-141409333D01*
X184979523Y-141647428D01*
X184931904Y-141837904D01*
X184884285Y-141933142D01*
X184836666Y-141980761D01*
X184741428Y-142028380D01*
X184646190Y-142028380D01*
X184550952Y-141980761D01*
X184503333Y-141933142D01*
X184455714Y-141837904D01*
X184408095Y-141647428D01*
X184408095Y-141409333D01*
X184455714Y-141218857D01*
X184503333Y-141123619D01*
X184550952Y-141076000D01*
X184646190Y-141028380D01*
X185931904Y-142028380D02*
X185360476Y-142028380D01*
X185646190Y-142028380D02*
X185646190Y-141028380D01*
X185550952Y-141171238D01*
X185455714Y-141266476D01*
X185360476Y-141314095D01*
%TO.C,J1004*%
X161814095Y-134660380D02*
X161814095Y-135374666D01*
X161766476Y-135517523D01*
X161671238Y-135612761D01*
X161528380Y-135660380D01*
X161433142Y-135660380D01*
X162814095Y-135660380D02*
X162242666Y-135660380D01*
X162528380Y-135660380D02*
X162528380Y-134660380D01*
X162433142Y-134803238D01*
X162337904Y-134898476D01*
X162242666Y-134946095D01*
X163433142Y-134660380D02*
X163528380Y-134660380D01*
X163623619Y-134708000D01*
X163671238Y-134755619D01*
X163718857Y-134850857D01*
X163766476Y-135041333D01*
X163766476Y-135279428D01*
X163718857Y-135469904D01*
X163671238Y-135565142D01*
X163623619Y-135612761D01*
X163528380Y-135660380D01*
X163433142Y-135660380D01*
X163337904Y-135612761D01*
X163290285Y-135565142D01*
X163242666Y-135469904D01*
X163195047Y-135279428D01*
X163195047Y-135041333D01*
X163242666Y-134850857D01*
X163290285Y-134755619D01*
X163337904Y-134708000D01*
X163433142Y-134660380D01*
X164385523Y-134660380D02*
X164480761Y-134660380D01*
X164576000Y-134708000D01*
X164623619Y-134755619D01*
X164671238Y-134850857D01*
X164718857Y-135041333D01*
X164718857Y-135279428D01*
X164671238Y-135469904D01*
X164623619Y-135565142D01*
X164576000Y-135612761D01*
X164480761Y-135660380D01*
X164385523Y-135660380D01*
X164290285Y-135612761D01*
X164242666Y-135565142D01*
X164195047Y-135469904D01*
X164147428Y-135279428D01*
X164147428Y-135041333D01*
X164195047Y-134850857D01*
X164242666Y-134755619D01*
X164290285Y-134708000D01*
X164385523Y-134660380D01*
X165576000Y-134993714D02*
X165576000Y-135660380D01*
X165337904Y-134612761D02*
X165099809Y-135327047D01*
X165718857Y-135327047D01*
%TO.C,C3001*%
X208729761Y-109163142D02*
X208682142Y-109210761D01*
X208539285Y-109258380D01*
X208444047Y-109258380D01*
X208301190Y-109210761D01*
X208205952Y-109115523D01*
X208158333Y-109020285D01*
X208110714Y-108829809D01*
X208110714Y-108686952D01*
X208158333Y-108496476D01*
X208205952Y-108401238D01*
X208301190Y-108306000D01*
X208444047Y-108258380D01*
X208539285Y-108258380D01*
X208682142Y-108306000D01*
X208729761Y-108353619D01*
X209063095Y-108258380D02*
X209682142Y-108258380D01*
X209348809Y-108639333D01*
X209491666Y-108639333D01*
X209586904Y-108686952D01*
X209634523Y-108734571D01*
X209682142Y-108829809D01*
X209682142Y-109067904D01*
X209634523Y-109163142D01*
X209586904Y-109210761D01*
X209491666Y-109258380D01*
X209205952Y-109258380D01*
X209110714Y-109210761D01*
X209063095Y-109163142D01*
X210301190Y-108258380D02*
X210396428Y-108258380D01*
X210491666Y-108306000D01*
X210539285Y-108353619D01*
X210586904Y-108448857D01*
X210634523Y-108639333D01*
X210634523Y-108877428D01*
X210586904Y-109067904D01*
X210539285Y-109163142D01*
X210491666Y-109210761D01*
X210396428Y-109258380D01*
X210301190Y-109258380D01*
X210205952Y-109210761D01*
X210158333Y-109163142D01*
X210110714Y-109067904D01*
X210063095Y-108877428D01*
X210063095Y-108639333D01*
X210110714Y-108448857D01*
X210158333Y-108353619D01*
X210205952Y-108306000D01*
X210301190Y-108258380D01*
X211253571Y-108258380D02*
X211348809Y-108258380D01*
X211444047Y-108306000D01*
X211491666Y-108353619D01*
X211539285Y-108448857D01*
X211586904Y-108639333D01*
X211586904Y-108877428D01*
X211539285Y-109067904D01*
X211491666Y-109163142D01*
X211444047Y-109210761D01*
X211348809Y-109258380D01*
X211253571Y-109258380D01*
X211158333Y-109210761D01*
X211110714Y-109163142D01*
X211063095Y-109067904D01*
X211015476Y-108877428D01*
X211015476Y-108639333D01*
X211063095Y-108448857D01*
X211110714Y-108353619D01*
X211158333Y-108306000D01*
X211253571Y-108258380D01*
X212539285Y-109258380D02*
X211967857Y-109258380D01*
X212253571Y-109258380D02*
X212253571Y-108258380D01*
X212158333Y-108401238D01*
X212063095Y-108496476D01*
X211967857Y-108544095D01*
%TO.C,Q3001*%
X186007619Y-119379809D02*
X185960000Y-119475047D01*
X185864761Y-119570285D01*
X185721904Y-119713142D01*
X185674285Y-119808380D01*
X185674285Y-119903619D01*
X185912380Y-119856000D02*
X185864761Y-119951238D01*
X185769523Y-120046476D01*
X185579047Y-120094095D01*
X185245714Y-120094095D01*
X185055238Y-120046476D01*
X184960000Y-119951238D01*
X184912380Y-119856000D01*
X184912380Y-119665523D01*
X184960000Y-119570285D01*
X185055238Y-119475047D01*
X185245714Y-119427428D01*
X185579047Y-119427428D01*
X185769523Y-119475047D01*
X185864761Y-119570285D01*
X185912380Y-119665523D01*
X185912380Y-119856000D01*
X184912380Y-119094095D02*
X184912380Y-118475047D01*
X185293333Y-118808380D01*
X185293333Y-118665523D01*
X185340952Y-118570285D01*
X185388571Y-118522666D01*
X185483809Y-118475047D01*
X185721904Y-118475047D01*
X185817142Y-118522666D01*
X185864761Y-118570285D01*
X185912380Y-118665523D01*
X185912380Y-118951238D01*
X185864761Y-119046476D01*
X185817142Y-119094095D01*
X184912380Y-117856000D02*
X184912380Y-117760761D01*
X184960000Y-117665523D01*
X185007619Y-117617904D01*
X185102857Y-117570285D01*
X185293333Y-117522666D01*
X185531428Y-117522666D01*
X185721904Y-117570285D01*
X185817142Y-117617904D01*
X185864761Y-117665523D01*
X185912380Y-117760761D01*
X185912380Y-117856000D01*
X185864761Y-117951238D01*
X185817142Y-117998857D01*
X185721904Y-118046476D01*
X185531428Y-118094095D01*
X185293333Y-118094095D01*
X185102857Y-118046476D01*
X185007619Y-117998857D01*
X184960000Y-117951238D01*
X184912380Y-117856000D01*
X184912380Y-116903619D02*
X184912380Y-116808380D01*
X184960000Y-116713142D01*
X185007619Y-116665523D01*
X185102857Y-116617904D01*
X185293333Y-116570285D01*
X185531428Y-116570285D01*
X185721904Y-116617904D01*
X185817142Y-116665523D01*
X185864761Y-116713142D01*
X185912380Y-116808380D01*
X185912380Y-116903619D01*
X185864761Y-116998857D01*
X185817142Y-117046476D01*
X185721904Y-117094095D01*
X185531428Y-117141714D01*
X185293333Y-117141714D01*
X185102857Y-117094095D01*
X185007619Y-117046476D01*
X184960000Y-116998857D01*
X184912380Y-116903619D01*
X185912380Y-115617904D02*
X185912380Y-116189333D01*
X185912380Y-115903619D02*
X184912380Y-115903619D01*
X185055238Y-115998857D01*
X185150476Y-116094095D01*
X185198095Y-116189333D01*
%TO.C,Q3002*%
X186007619Y-124713809D02*
X185960000Y-124809047D01*
X185864761Y-124904285D01*
X185721904Y-125047142D01*
X185674285Y-125142380D01*
X185674285Y-125237619D01*
X185912380Y-125190000D02*
X185864761Y-125285238D01*
X185769523Y-125380476D01*
X185579047Y-125428095D01*
X185245714Y-125428095D01*
X185055238Y-125380476D01*
X184960000Y-125285238D01*
X184912380Y-125190000D01*
X184912380Y-124999523D01*
X184960000Y-124904285D01*
X185055238Y-124809047D01*
X185245714Y-124761428D01*
X185579047Y-124761428D01*
X185769523Y-124809047D01*
X185864761Y-124904285D01*
X185912380Y-124999523D01*
X185912380Y-125190000D01*
X184912380Y-124428095D02*
X184912380Y-123809047D01*
X185293333Y-124142380D01*
X185293333Y-123999523D01*
X185340952Y-123904285D01*
X185388571Y-123856666D01*
X185483809Y-123809047D01*
X185721904Y-123809047D01*
X185817142Y-123856666D01*
X185864761Y-123904285D01*
X185912380Y-123999523D01*
X185912380Y-124285238D01*
X185864761Y-124380476D01*
X185817142Y-124428095D01*
X184912380Y-123190000D02*
X184912380Y-123094761D01*
X184960000Y-122999523D01*
X185007619Y-122951904D01*
X185102857Y-122904285D01*
X185293333Y-122856666D01*
X185531428Y-122856666D01*
X185721904Y-122904285D01*
X185817142Y-122951904D01*
X185864761Y-122999523D01*
X185912380Y-123094761D01*
X185912380Y-123190000D01*
X185864761Y-123285238D01*
X185817142Y-123332857D01*
X185721904Y-123380476D01*
X185531428Y-123428095D01*
X185293333Y-123428095D01*
X185102857Y-123380476D01*
X185007619Y-123332857D01*
X184960000Y-123285238D01*
X184912380Y-123190000D01*
X184912380Y-122237619D02*
X184912380Y-122142380D01*
X184960000Y-122047142D01*
X185007619Y-121999523D01*
X185102857Y-121951904D01*
X185293333Y-121904285D01*
X185531428Y-121904285D01*
X185721904Y-121951904D01*
X185817142Y-121999523D01*
X185864761Y-122047142D01*
X185912380Y-122142380D01*
X185912380Y-122237619D01*
X185864761Y-122332857D01*
X185817142Y-122380476D01*
X185721904Y-122428095D01*
X185531428Y-122475714D01*
X185293333Y-122475714D01*
X185102857Y-122428095D01*
X185007619Y-122380476D01*
X184960000Y-122332857D01*
X184912380Y-122237619D01*
X185007619Y-121523333D02*
X184960000Y-121475714D01*
X184912380Y-121380476D01*
X184912380Y-121142380D01*
X184960000Y-121047142D01*
X185007619Y-120999523D01*
X185102857Y-120951904D01*
X185198095Y-120951904D01*
X185340952Y-120999523D01*
X185912380Y-121570952D01*
X185912380Y-120951904D01*
%TO.C,R3001*%
X198666380Y-97290238D02*
X198190190Y-97623571D01*
X198666380Y-97861666D02*
X197666380Y-97861666D01*
X197666380Y-97480714D01*
X197714000Y-97385476D01*
X197761619Y-97337857D01*
X197856857Y-97290238D01*
X197999714Y-97290238D01*
X198094952Y-97337857D01*
X198142571Y-97385476D01*
X198190190Y-97480714D01*
X198190190Y-97861666D01*
X197666380Y-96956904D02*
X197666380Y-96337857D01*
X198047333Y-96671190D01*
X198047333Y-96528333D01*
X198094952Y-96433095D01*
X198142571Y-96385476D01*
X198237809Y-96337857D01*
X198475904Y-96337857D01*
X198571142Y-96385476D01*
X198618761Y-96433095D01*
X198666380Y-96528333D01*
X198666380Y-96814047D01*
X198618761Y-96909285D01*
X198571142Y-96956904D01*
X197666380Y-95718809D02*
X197666380Y-95623571D01*
X197714000Y-95528333D01*
X197761619Y-95480714D01*
X197856857Y-95433095D01*
X198047333Y-95385476D01*
X198285428Y-95385476D01*
X198475904Y-95433095D01*
X198571142Y-95480714D01*
X198618761Y-95528333D01*
X198666380Y-95623571D01*
X198666380Y-95718809D01*
X198618761Y-95814047D01*
X198571142Y-95861666D01*
X198475904Y-95909285D01*
X198285428Y-95956904D01*
X198047333Y-95956904D01*
X197856857Y-95909285D01*
X197761619Y-95861666D01*
X197714000Y-95814047D01*
X197666380Y-95718809D01*
X197666380Y-94766428D02*
X197666380Y-94671190D01*
X197714000Y-94575952D01*
X197761619Y-94528333D01*
X197856857Y-94480714D01*
X198047333Y-94433095D01*
X198285428Y-94433095D01*
X198475904Y-94480714D01*
X198571142Y-94528333D01*
X198618761Y-94575952D01*
X198666380Y-94671190D01*
X198666380Y-94766428D01*
X198618761Y-94861666D01*
X198571142Y-94909285D01*
X198475904Y-94956904D01*
X198285428Y-95004523D01*
X198047333Y-95004523D01*
X197856857Y-94956904D01*
X197761619Y-94909285D01*
X197714000Y-94861666D01*
X197666380Y-94766428D01*
X198666380Y-93480714D02*
X198666380Y-94052142D01*
X198666380Y-93766428D02*
X197666380Y-93766428D01*
X197809238Y-93861666D01*
X197904476Y-93956904D01*
X197952095Y-94052142D01*
%TO.C,R3002*%
X196126380Y-97290238D02*
X195650190Y-97623571D01*
X196126380Y-97861666D02*
X195126380Y-97861666D01*
X195126380Y-97480714D01*
X195174000Y-97385476D01*
X195221619Y-97337857D01*
X195316857Y-97290238D01*
X195459714Y-97290238D01*
X195554952Y-97337857D01*
X195602571Y-97385476D01*
X195650190Y-97480714D01*
X195650190Y-97861666D01*
X195126380Y-96956904D02*
X195126380Y-96337857D01*
X195507333Y-96671190D01*
X195507333Y-96528333D01*
X195554952Y-96433095D01*
X195602571Y-96385476D01*
X195697809Y-96337857D01*
X195935904Y-96337857D01*
X196031142Y-96385476D01*
X196078761Y-96433095D01*
X196126380Y-96528333D01*
X196126380Y-96814047D01*
X196078761Y-96909285D01*
X196031142Y-96956904D01*
X195126380Y-95718809D02*
X195126380Y-95623571D01*
X195174000Y-95528333D01*
X195221619Y-95480714D01*
X195316857Y-95433095D01*
X195507333Y-95385476D01*
X195745428Y-95385476D01*
X195935904Y-95433095D01*
X196031142Y-95480714D01*
X196078761Y-95528333D01*
X196126380Y-95623571D01*
X196126380Y-95718809D01*
X196078761Y-95814047D01*
X196031142Y-95861666D01*
X195935904Y-95909285D01*
X195745428Y-95956904D01*
X195507333Y-95956904D01*
X195316857Y-95909285D01*
X195221619Y-95861666D01*
X195174000Y-95814047D01*
X195126380Y-95718809D01*
X195126380Y-94766428D02*
X195126380Y-94671190D01*
X195174000Y-94575952D01*
X195221619Y-94528333D01*
X195316857Y-94480714D01*
X195507333Y-94433095D01*
X195745428Y-94433095D01*
X195935904Y-94480714D01*
X196031142Y-94528333D01*
X196078761Y-94575952D01*
X196126380Y-94671190D01*
X196126380Y-94766428D01*
X196078761Y-94861666D01*
X196031142Y-94909285D01*
X195935904Y-94956904D01*
X195745428Y-95004523D01*
X195507333Y-95004523D01*
X195316857Y-94956904D01*
X195221619Y-94909285D01*
X195174000Y-94861666D01*
X195126380Y-94766428D01*
X195221619Y-94052142D02*
X195174000Y-94004523D01*
X195126380Y-93909285D01*
X195126380Y-93671190D01*
X195174000Y-93575952D01*
X195221619Y-93528333D01*
X195316857Y-93480714D01*
X195412095Y-93480714D01*
X195554952Y-93528333D01*
X196126380Y-94099761D01*
X196126380Y-93480714D01*
%TO.C,R3003*%
X189842380Y-114688238D02*
X189366190Y-115021571D01*
X189842380Y-115259666D02*
X188842380Y-115259666D01*
X188842380Y-114878714D01*
X188890000Y-114783476D01*
X188937619Y-114735857D01*
X189032857Y-114688238D01*
X189175714Y-114688238D01*
X189270952Y-114735857D01*
X189318571Y-114783476D01*
X189366190Y-114878714D01*
X189366190Y-115259666D01*
X188842380Y-114354904D02*
X188842380Y-113735857D01*
X189223333Y-114069190D01*
X189223333Y-113926333D01*
X189270952Y-113831095D01*
X189318571Y-113783476D01*
X189413809Y-113735857D01*
X189651904Y-113735857D01*
X189747142Y-113783476D01*
X189794761Y-113831095D01*
X189842380Y-113926333D01*
X189842380Y-114212047D01*
X189794761Y-114307285D01*
X189747142Y-114354904D01*
X188842380Y-113116809D02*
X188842380Y-113021571D01*
X188890000Y-112926333D01*
X188937619Y-112878714D01*
X189032857Y-112831095D01*
X189223333Y-112783476D01*
X189461428Y-112783476D01*
X189651904Y-112831095D01*
X189747142Y-112878714D01*
X189794761Y-112926333D01*
X189842380Y-113021571D01*
X189842380Y-113116809D01*
X189794761Y-113212047D01*
X189747142Y-113259666D01*
X189651904Y-113307285D01*
X189461428Y-113354904D01*
X189223333Y-113354904D01*
X189032857Y-113307285D01*
X188937619Y-113259666D01*
X188890000Y-113212047D01*
X188842380Y-113116809D01*
X188842380Y-112164428D02*
X188842380Y-112069190D01*
X188890000Y-111973952D01*
X188937619Y-111926333D01*
X189032857Y-111878714D01*
X189223333Y-111831095D01*
X189461428Y-111831095D01*
X189651904Y-111878714D01*
X189747142Y-111926333D01*
X189794761Y-111973952D01*
X189842380Y-112069190D01*
X189842380Y-112164428D01*
X189794761Y-112259666D01*
X189747142Y-112307285D01*
X189651904Y-112354904D01*
X189461428Y-112402523D01*
X189223333Y-112402523D01*
X189032857Y-112354904D01*
X188937619Y-112307285D01*
X188890000Y-112259666D01*
X188842380Y-112164428D01*
X188842380Y-111497761D02*
X188842380Y-110878714D01*
X189223333Y-111212047D01*
X189223333Y-111069190D01*
X189270952Y-110973952D01*
X189318571Y-110926333D01*
X189413809Y-110878714D01*
X189651904Y-110878714D01*
X189747142Y-110926333D01*
X189794761Y-110973952D01*
X189842380Y-111069190D01*
X189842380Y-111354904D01*
X189794761Y-111450142D01*
X189747142Y-111497761D01*
%TO.C,R3004*%
X193589380Y-123007238D02*
X193113190Y-123340571D01*
X193589380Y-123578666D02*
X192589380Y-123578666D01*
X192589380Y-123197714D01*
X192637000Y-123102476D01*
X192684619Y-123054857D01*
X192779857Y-123007238D01*
X192922714Y-123007238D01*
X193017952Y-123054857D01*
X193065571Y-123102476D01*
X193113190Y-123197714D01*
X193113190Y-123578666D01*
X192589380Y-122673904D02*
X192589380Y-122054857D01*
X192970333Y-122388190D01*
X192970333Y-122245333D01*
X193017952Y-122150095D01*
X193065571Y-122102476D01*
X193160809Y-122054857D01*
X193398904Y-122054857D01*
X193494142Y-122102476D01*
X193541761Y-122150095D01*
X193589380Y-122245333D01*
X193589380Y-122531047D01*
X193541761Y-122626285D01*
X193494142Y-122673904D01*
X192589380Y-121435809D02*
X192589380Y-121340571D01*
X192637000Y-121245333D01*
X192684619Y-121197714D01*
X192779857Y-121150095D01*
X192970333Y-121102476D01*
X193208428Y-121102476D01*
X193398904Y-121150095D01*
X193494142Y-121197714D01*
X193541761Y-121245333D01*
X193589380Y-121340571D01*
X193589380Y-121435809D01*
X193541761Y-121531047D01*
X193494142Y-121578666D01*
X193398904Y-121626285D01*
X193208428Y-121673904D01*
X192970333Y-121673904D01*
X192779857Y-121626285D01*
X192684619Y-121578666D01*
X192637000Y-121531047D01*
X192589380Y-121435809D01*
X192589380Y-120483428D02*
X192589380Y-120388190D01*
X192637000Y-120292952D01*
X192684619Y-120245333D01*
X192779857Y-120197714D01*
X192970333Y-120150095D01*
X193208428Y-120150095D01*
X193398904Y-120197714D01*
X193494142Y-120245333D01*
X193541761Y-120292952D01*
X193589380Y-120388190D01*
X193589380Y-120483428D01*
X193541761Y-120578666D01*
X193494142Y-120626285D01*
X193398904Y-120673904D01*
X193208428Y-120721523D01*
X192970333Y-120721523D01*
X192779857Y-120673904D01*
X192684619Y-120626285D01*
X192637000Y-120578666D01*
X192589380Y-120483428D01*
X192922714Y-119292952D02*
X193589380Y-119292952D01*
X192541761Y-119531047D02*
X193256047Y-119769142D01*
X193256047Y-119150095D01*
%TO.C,C2005*%
X180522761Y-106275142D02*
X180475142Y-106322761D01*
X180332285Y-106370380D01*
X180237047Y-106370380D01*
X180094190Y-106322761D01*
X179998952Y-106227523D01*
X179951333Y-106132285D01*
X179903714Y-105941809D01*
X179903714Y-105798952D01*
X179951333Y-105608476D01*
X179998952Y-105513238D01*
X180094190Y-105418000D01*
X180237047Y-105370380D01*
X180332285Y-105370380D01*
X180475142Y-105418000D01*
X180522761Y-105465619D01*
X180903714Y-105465619D02*
X180951333Y-105418000D01*
X181046571Y-105370380D01*
X181284666Y-105370380D01*
X181379904Y-105418000D01*
X181427523Y-105465619D01*
X181475142Y-105560857D01*
X181475142Y-105656095D01*
X181427523Y-105798952D01*
X180856095Y-106370380D01*
X181475142Y-106370380D01*
X182094190Y-105370380D02*
X182189428Y-105370380D01*
X182284666Y-105418000D01*
X182332285Y-105465619D01*
X182379904Y-105560857D01*
X182427523Y-105751333D01*
X182427523Y-105989428D01*
X182379904Y-106179904D01*
X182332285Y-106275142D01*
X182284666Y-106322761D01*
X182189428Y-106370380D01*
X182094190Y-106370380D01*
X181998952Y-106322761D01*
X181951333Y-106275142D01*
X181903714Y-106179904D01*
X181856095Y-105989428D01*
X181856095Y-105751333D01*
X181903714Y-105560857D01*
X181951333Y-105465619D01*
X181998952Y-105418000D01*
X182094190Y-105370380D01*
X183046571Y-105370380D02*
X183141809Y-105370380D01*
X183237047Y-105418000D01*
X183284666Y-105465619D01*
X183332285Y-105560857D01*
X183379904Y-105751333D01*
X183379904Y-105989428D01*
X183332285Y-106179904D01*
X183284666Y-106275142D01*
X183237047Y-106322761D01*
X183141809Y-106370380D01*
X183046571Y-106370380D01*
X182951333Y-106322761D01*
X182903714Y-106275142D01*
X182856095Y-106179904D01*
X182808476Y-105989428D01*
X182808476Y-105751333D01*
X182856095Y-105560857D01*
X182903714Y-105465619D01*
X182951333Y-105418000D01*
X183046571Y-105370380D01*
X184284666Y-105370380D02*
X183808476Y-105370380D01*
X183760857Y-105846571D01*
X183808476Y-105798952D01*
X183903714Y-105751333D01*
X184141809Y-105751333D01*
X184237047Y-105798952D01*
X184284666Y-105846571D01*
X184332285Y-105941809D01*
X184332285Y-106179904D01*
X184284666Y-106275142D01*
X184237047Y-106322761D01*
X184141809Y-106370380D01*
X183903714Y-106370380D01*
X183808476Y-106322761D01*
X183760857Y-106275142D01*
%TO.C,D2001*%
X153612380Y-109354666D02*
X152612380Y-109354666D01*
X152612380Y-109116571D01*
X152660000Y-108973714D01*
X152755238Y-108878476D01*
X152850476Y-108830857D01*
X153040952Y-108783238D01*
X153183809Y-108783238D01*
X153374285Y-108830857D01*
X153469523Y-108878476D01*
X153564761Y-108973714D01*
X153612380Y-109116571D01*
X153612380Y-109354666D01*
X152707619Y-108402285D02*
X152660000Y-108354666D01*
X152612380Y-108259428D01*
X152612380Y-108021333D01*
X152660000Y-107926095D01*
X152707619Y-107878476D01*
X152802857Y-107830857D01*
X152898095Y-107830857D01*
X153040952Y-107878476D01*
X153612380Y-108449904D01*
X153612380Y-107830857D01*
X152612380Y-107211809D02*
X152612380Y-107116571D01*
X152660000Y-107021333D01*
X152707619Y-106973714D01*
X152802857Y-106926095D01*
X152993333Y-106878476D01*
X153231428Y-106878476D01*
X153421904Y-106926095D01*
X153517142Y-106973714D01*
X153564761Y-107021333D01*
X153612380Y-107116571D01*
X153612380Y-107211809D01*
X153564761Y-107307047D01*
X153517142Y-107354666D01*
X153421904Y-107402285D01*
X153231428Y-107449904D01*
X152993333Y-107449904D01*
X152802857Y-107402285D01*
X152707619Y-107354666D01*
X152660000Y-107307047D01*
X152612380Y-107211809D01*
X152612380Y-106259428D02*
X152612380Y-106164190D01*
X152660000Y-106068952D01*
X152707619Y-106021333D01*
X152802857Y-105973714D01*
X152993333Y-105926095D01*
X153231428Y-105926095D01*
X153421904Y-105973714D01*
X153517142Y-106021333D01*
X153564761Y-106068952D01*
X153612380Y-106164190D01*
X153612380Y-106259428D01*
X153564761Y-106354666D01*
X153517142Y-106402285D01*
X153421904Y-106449904D01*
X153231428Y-106497523D01*
X152993333Y-106497523D01*
X152802857Y-106449904D01*
X152707619Y-106402285D01*
X152660000Y-106354666D01*
X152612380Y-106259428D01*
X153612380Y-104973714D02*
X153612380Y-105545142D01*
X153612380Y-105259428D02*
X152612380Y-105259428D01*
X152755238Y-105354666D01*
X152850476Y-105449904D01*
X152898095Y-105545142D01*
%TO.C,J3001*%
X196131380Y-134476904D02*
X196845666Y-134476904D01*
X196988523Y-134524523D01*
X197083761Y-134619761D01*
X197131380Y-134762619D01*
X197131380Y-134857857D01*
X196131380Y-134095952D02*
X196131380Y-133476904D01*
X196512333Y-133810238D01*
X196512333Y-133667380D01*
X196559952Y-133572142D01*
X196607571Y-133524523D01*
X196702809Y-133476904D01*
X196940904Y-133476904D01*
X197036142Y-133524523D01*
X197083761Y-133572142D01*
X197131380Y-133667380D01*
X197131380Y-133953095D01*
X197083761Y-134048333D01*
X197036142Y-134095952D01*
X196131380Y-132857857D02*
X196131380Y-132762619D01*
X196179000Y-132667380D01*
X196226619Y-132619761D01*
X196321857Y-132572142D01*
X196512333Y-132524523D01*
X196750428Y-132524523D01*
X196940904Y-132572142D01*
X197036142Y-132619761D01*
X197083761Y-132667380D01*
X197131380Y-132762619D01*
X197131380Y-132857857D01*
X197083761Y-132953095D01*
X197036142Y-133000714D01*
X196940904Y-133048333D01*
X196750428Y-133095952D01*
X196512333Y-133095952D01*
X196321857Y-133048333D01*
X196226619Y-133000714D01*
X196179000Y-132953095D01*
X196131380Y-132857857D01*
X196131380Y-131905476D02*
X196131380Y-131810238D01*
X196179000Y-131715000D01*
X196226619Y-131667380D01*
X196321857Y-131619761D01*
X196512333Y-131572142D01*
X196750428Y-131572142D01*
X196940904Y-131619761D01*
X197036142Y-131667380D01*
X197083761Y-131715000D01*
X197131380Y-131810238D01*
X197131380Y-131905476D01*
X197083761Y-132000714D01*
X197036142Y-132048333D01*
X196940904Y-132095952D01*
X196750428Y-132143571D01*
X196512333Y-132143571D01*
X196321857Y-132095952D01*
X196226619Y-132048333D01*
X196179000Y-132000714D01*
X196131380Y-131905476D01*
X197131380Y-130619761D02*
X197131380Y-131191190D01*
X197131380Y-130905476D02*
X196131380Y-130905476D01*
X196274238Y-131000714D01*
X196369476Y-131095952D01*
X196417095Y-131191190D01*
%TO.C,L3001*%
X151628261Y-98962380D02*
X151152071Y-98962380D01*
X151152071Y-97962380D01*
X151866357Y-97962380D02*
X152485404Y-97962380D01*
X152152071Y-98343333D01*
X152294928Y-98343333D01*
X152390166Y-98390952D01*
X152437785Y-98438571D01*
X152485404Y-98533809D01*
X152485404Y-98771904D01*
X152437785Y-98867142D01*
X152390166Y-98914761D01*
X152294928Y-98962380D01*
X152009214Y-98962380D01*
X151913976Y-98914761D01*
X151866357Y-98867142D01*
X153104452Y-97962380D02*
X153199690Y-97962380D01*
X153294928Y-98010000D01*
X153342547Y-98057619D01*
X153390166Y-98152857D01*
X153437785Y-98343333D01*
X153437785Y-98581428D01*
X153390166Y-98771904D01*
X153342547Y-98867142D01*
X153294928Y-98914761D01*
X153199690Y-98962380D01*
X153104452Y-98962380D01*
X153009214Y-98914761D01*
X152961595Y-98867142D01*
X152913976Y-98771904D01*
X152866357Y-98581428D01*
X152866357Y-98343333D01*
X152913976Y-98152857D01*
X152961595Y-98057619D01*
X153009214Y-98010000D01*
X153104452Y-97962380D01*
X154056833Y-97962380D02*
X154152071Y-97962380D01*
X154247309Y-98010000D01*
X154294928Y-98057619D01*
X154342547Y-98152857D01*
X154390166Y-98343333D01*
X154390166Y-98581428D01*
X154342547Y-98771904D01*
X154294928Y-98867142D01*
X154247309Y-98914761D01*
X154152071Y-98962380D01*
X154056833Y-98962380D01*
X153961595Y-98914761D01*
X153913976Y-98867142D01*
X153866357Y-98771904D01*
X153818738Y-98581428D01*
X153818738Y-98343333D01*
X153866357Y-98152857D01*
X153913976Y-98057619D01*
X153961595Y-98010000D01*
X154056833Y-97962380D01*
X155342547Y-98962380D02*
X154771119Y-98962380D01*
X155056833Y-98962380D02*
X155056833Y-97962380D01*
X154961595Y-98105238D01*
X154866357Y-98200476D01*
X154771119Y-98248095D01*
%TO.C,R2003*%
X157010380Y-109354238D02*
X156534190Y-109687571D01*
X157010380Y-109925666D02*
X156010380Y-109925666D01*
X156010380Y-109544714D01*
X156058000Y-109449476D01*
X156105619Y-109401857D01*
X156200857Y-109354238D01*
X156343714Y-109354238D01*
X156438952Y-109401857D01*
X156486571Y-109449476D01*
X156534190Y-109544714D01*
X156534190Y-109925666D01*
X156105619Y-108973285D02*
X156058000Y-108925666D01*
X156010380Y-108830428D01*
X156010380Y-108592333D01*
X156058000Y-108497095D01*
X156105619Y-108449476D01*
X156200857Y-108401857D01*
X156296095Y-108401857D01*
X156438952Y-108449476D01*
X157010380Y-109020904D01*
X157010380Y-108401857D01*
X156010380Y-107782809D02*
X156010380Y-107687571D01*
X156058000Y-107592333D01*
X156105619Y-107544714D01*
X156200857Y-107497095D01*
X156391333Y-107449476D01*
X156629428Y-107449476D01*
X156819904Y-107497095D01*
X156915142Y-107544714D01*
X156962761Y-107592333D01*
X157010380Y-107687571D01*
X157010380Y-107782809D01*
X156962761Y-107878047D01*
X156915142Y-107925666D01*
X156819904Y-107973285D01*
X156629428Y-108020904D01*
X156391333Y-108020904D01*
X156200857Y-107973285D01*
X156105619Y-107925666D01*
X156058000Y-107878047D01*
X156010380Y-107782809D01*
X156010380Y-106830428D02*
X156010380Y-106735190D01*
X156058000Y-106639952D01*
X156105619Y-106592333D01*
X156200857Y-106544714D01*
X156391333Y-106497095D01*
X156629428Y-106497095D01*
X156819904Y-106544714D01*
X156915142Y-106592333D01*
X156962761Y-106639952D01*
X157010380Y-106735190D01*
X157010380Y-106830428D01*
X156962761Y-106925666D01*
X156915142Y-106973285D01*
X156819904Y-107020904D01*
X156629428Y-107068523D01*
X156391333Y-107068523D01*
X156200857Y-107020904D01*
X156105619Y-106973285D01*
X156058000Y-106925666D01*
X156010380Y-106830428D01*
X156010380Y-106163761D02*
X156010380Y-105544714D01*
X156391333Y-105878047D01*
X156391333Y-105735190D01*
X156438952Y-105639952D01*
X156486571Y-105592333D01*
X156581809Y-105544714D01*
X156819904Y-105544714D01*
X156915142Y-105592333D01*
X156962761Y-105639952D01*
X157010380Y-105735190D01*
X157010380Y-106020904D01*
X156962761Y-106116142D01*
X156915142Y-106163761D01*
%TO.C,R2005*%
X167568761Y-127612380D02*
X167235428Y-127136190D01*
X166997333Y-127612380D02*
X166997333Y-126612380D01*
X167378285Y-126612380D01*
X167473523Y-126660000D01*
X167521142Y-126707619D01*
X167568761Y-126802857D01*
X167568761Y-126945714D01*
X167521142Y-127040952D01*
X167473523Y-127088571D01*
X167378285Y-127136190D01*
X166997333Y-127136190D01*
X167949714Y-126707619D02*
X167997333Y-126660000D01*
X168092571Y-126612380D01*
X168330666Y-126612380D01*
X168425904Y-126660000D01*
X168473523Y-126707619D01*
X168521142Y-126802857D01*
X168521142Y-126898095D01*
X168473523Y-127040952D01*
X167902095Y-127612380D01*
X168521142Y-127612380D01*
X169140190Y-126612380D02*
X169235428Y-126612380D01*
X169330666Y-126660000D01*
X169378285Y-126707619D01*
X169425904Y-126802857D01*
X169473523Y-126993333D01*
X169473523Y-127231428D01*
X169425904Y-127421904D01*
X169378285Y-127517142D01*
X169330666Y-127564761D01*
X169235428Y-127612380D01*
X169140190Y-127612380D01*
X169044952Y-127564761D01*
X168997333Y-127517142D01*
X168949714Y-127421904D01*
X168902095Y-127231428D01*
X168902095Y-126993333D01*
X168949714Y-126802857D01*
X168997333Y-126707619D01*
X169044952Y-126660000D01*
X169140190Y-126612380D01*
X170092571Y-126612380D02*
X170187809Y-126612380D01*
X170283047Y-126660000D01*
X170330666Y-126707619D01*
X170378285Y-126802857D01*
X170425904Y-126993333D01*
X170425904Y-127231428D01*
X170378285Y-127421904D01*
X170330666Y-127517142D01*
X170283047Y-127564761D01*
X170187809Y-127612380D01*
X170092571Y-127612380D01*
X169997333Y-127564761D01*
X169949714Y-127517142D01*
X169902095Y-127421904D01*
X169854476Y-127231428D01*
X169854476Y-126993333D01*
X169902095Y-126802857D01*
X169949714Y-126707619D01*
X169997333Y-126660000D01*
X170092571Y-126612380D01*
X171330666Y-126612380D02*
X170854476Y-126612380D01*
X170806857Y-127088571D01*
X170854476Y-127040952D01*
X170949714Y-126993333D01*
X171187809Y-126993333D01*
X171283047Y-127040952D01*
X171330666Y-127088571D01*
X171378285Y-127183809D01*
X171378285Y-127421904D01*
X171330666Y-127517142D01*
X171283047Y-127564761D01*
X171187809Y-127612380D01*
X170949714Y-127612380D01*
X170854476Y-127564761D01*
X170806857Y-127517142D01*
%TO.C,R2006*%
X171378761Y-112974380D02*
X171045428Y-112498190D01*
X170807333Y-112974380D02*
X170807333Y-111974380D01*
X171188285Y-111974380D01*
X171283523Y-112022000D01*
X171331142Y-112069619D01*
X171378761Y-112164857D01*
X171378761Y-112307714D01*
X171331142Y-112402952D01*
X171283523Y-112450571D01*
X171188285Y-112498190D01*
X170807333Y-112498190D01*
X171759714Y-112069619D02*
X171807333Y-112022000D01*
X171902571Y-111974380D01*
X172140666Y-111974380D01*
X172235904Y-112022000D01*
X172283523Y-112069619D01*
X172331142Y-112164857D01*
X172331142Y-112260095D01*
X172283523Y-112402952D01*
X171712095Y-112974380D01*
X172331142Y-112974380D01*
X172950190Y-111974380D02*
X173045428Y-111974380D01*
X173140666Y-112022000D01*
X173188285Y-112069619D01*
X173235904Y-112164857D01*
X173283523Y-112355333D01*
X173283523Y-112593428D01*
X173235904Y-112783904D01*
X173188285Y-112879142D01*
X173140666Y-112926761D01*
X173045428Y-112974380D01*
X172950190Y-112974380D01*
X172854952Y-112926761D01*
X172807333Y-112879142D01*
X172759714Y-112783904D01*
X172712095Y-112593428D01*
X172712095Y-112355333D01*
X172759714Y-112164857D01*
X172807333Y-112069619D01*
X172854952Y-112022000D01*
X172950190Y-111974380D01*
X173902571Y-111974380D02*
X173997809Y-111974380D01*
X174093047Y-112022000D01*
X174140666Y-112069619D01*
X174188285Y-112164857D01*
X174235904Y-112355333D01*
X174235904Y-112593428D01*
X174188285Y-112783904D01*
X174140666Y-112879142D01*
X174093047Y-112926761D01*
X173997809Y-112974380D01*
X173902571Y-112974380D01*
X173807333Y-112926761D01*
X173759714Y-112879142D01*
X173712095Y-112783904D01*
X173664476Y-112593428D01*
X173664476Y-112355333D01*
X173712095Y-112164857D01*
X173759714Y-112069619D01*
X173807333Y-112022000D01*
X173902571Y-111974380D01*
X175093047Y-111974380D02*
X174902571Y-111974380D01*
X174807333Y-112022000D01*
X174759714Y-112069619D01*
X174664476Y-112212476D01*
X174616857Y-112402952D01*
X174616857Y-112783904D01*
X174664476Y-112879142D01*
X174712095Y-112926761D01*
X174807333Y-112974380D01*
X174997809Y-112974380D01*
X175093047Y-112926761D01*
X175140666Y-112879142D01*
X175188285Y-112783904D01*
X175188285Y-112545809D01*
X175140666Y-112450571D01*
X175093047Y-112402952D01*
X174997809Y-112355333D01*
X174807333Y-112355333D01*
X174712095Y-112402952D01*
X174664476Y-112450571D01*
X174616857Y-112545809D01*
%TO.C,U2001*%
X179906380Y-120300476D02*
X180715904Y-120300476D01*
X180811142Y-120252857D01*
X180858761Y-120205238D01*
X180906380Y-120110000D01*
X180906380Y-119919523D01*
X180858761Y-119824285D01*
X180811142Y-119776666D01*
X180715904Y-119729047D01*
X179906380Y-119729047D01*
X180001619Y-119300476D02*
X179954000Y-119252857D01*
X179906380Y-119157619D01*
X179906380Y-118919523D01*
X179954000Y-118824285D01*
X180001619Y-118776666D01*
X180096857Y-118729047D01*
X180192095Y-118729047D01*
X180334952Y-118776666D01*
X180906380Y-119348095D01*
X180906380Y-118729047D01*
X179906380Y-118110000D02*
X179906380Y-118014761D01*
X179954000Y-117919523D01*
X180001619Y-117871904D01*
X180096857Y-117824285D01*
X180287333Y-117776666D01*
X180525428Y-117776666D01*
X180715904Y-117824285D01*
X180811142Y-117871904D01*
X180858761Y-117919523D01*
X180906380Y-118014761D01*
X180906380Y-118110000D01*
X180858761Y-118205238D01*
X180811142Y-118252857D01*
X180715904Y-118300476D01*
X180525428Y-118348095D01*
X180287333Y-118348095D01*
X180096857Y-118300476D01*
X180001619Y-118252857D01*
X179954000Y-118205238D01*
X179906380Y-118110000D01*
X179906380Y-117157619D02*
X179906380Y-117062380D01*
X179954000Y-116967142D01*
X180001619Y-116919523D01*
X180096857Y-116871904D01*
X180287333Y-116824285D01*
X180525428Y-116824285D01*
X180715904Y-116871904D01*
X180811142Y-116919523D01*
X180858761Y-116967142D01*
X180906380Y-117062380D01*
X180906380Y-117157619D01*
X180858761Y-117252857D01*
X180811142Y-117300476D01*
X180715904Y-117348095D01*
X180525428Y-117395714D01*
X180287333Y-117395714D01*
X180096857Y-117348095D01*
X180001619Y-117300476D01*
X179954000Y-117252857D01*
X179906380Y-117157619D01*
X180906380Y-115871904D02*
X180906380Y-116443333D01*
X180906380Y-116157619D02*
X179906380Y-116157619D01*
X180049238Y-116252857D01*
X180144476Y-116348095D01*
X180192095Y-116443333D01*
%TO.C,C3002*%
X157235142Y-92019238D02*
X157282761Y-92066857D01*
X157330380Y-92209714D01*
X157330380Y-92304952D01*
X157282761Y-92447809D01*
X157187523Y-92543047D01*
X157092285Y-92590666D01*
X156901809Y-92638285D01*
X156758952Y-92638285D01*
X156568476Y-92590666D01*
X156473238Y-92543047D01*
X156378000Y-92447809D01*
X156330380Y-92304952D01*
X156330380Y-92209714D01*
X156378000Y-92066857D01*
X156425619Y-92019238D01*
X156330380Y-91685904D02*
X156330380Y-91066857D01*
X156711333Y-91400190D01*
X156711333Y-91257333D01*
X156758952Y-91162095D01*
X156806571Y-91114476D01*
X156901809Y-91066857D01*
X157139904Y-91066857D01*
X157235142Y-91114476D01*
X157282761Y-91162095D01*
X157330380Y-91257333D01*
X157330380Y-91543047D01*
X157282761Y-91638285D01*
X157235142Y-91685904D01*
X156330380Y-90447809D02*
X156330380Y-90352571D01*
X156378000Y-90257333D01*
X156425619Y-90209714D01*
X156520857Y-90162095D01*
X156711333Y-90114476D01*
X156949428Y-90114476D01*
X157139904Y-90162095D01*
X157235142Y-90209714D01*
X157282761Y-90257333D01*
X157330380Y-90352571D01*
X157330380Y-90447809D01*
X157282761Y-90543047D01*
X157235142Y-90590666D01*
X157139904Y-90638285D01*
X156949428Y-90685904D01*
X156711333Y-90685904D01*
X156520857Y-90638285D01*
X156425619Y-90590666D01*
X156378000Y-90543047D01*
X156330380Y-90447809D01*
X156330380Y-89495428D02*
X156330380Y-89400190D01*
X156378000Y-89304952D01*
X156425619Y-89257333D01*
X156520857Y-89209714D01*
X156711333Y-89162095D01*
X156949428Y-89162095D01*
X157139904Y-89209714D01*
X157235142Y-89257333D01*
X157282761Y-89304952D01*
X157330380Y-89400190D01*
X157330380Y-89495428D01*
X157282761Y-89590666D01*
X157235142Y-89638285D01*
X157139904Y-89685904D01*
X156949428Y-89733523D01*
X156711333Y-89733523D01*
X156520857Y-89685904D01*
X156425619Y-89638285D01*
X156378000Y-89590666D01*
X156330380Y-89495428D01*
X156425619Y-88781142D02*
X156378000Y-88733523D01*
X156330380Y-88638285D01*
X156330380Y-88400190D01*
X156378000Y-88304952D01*
X156425619Y-88257333D01*
X156520857Y-88209714D01*
X156616095Y-88209714D01*
X156758952Y-88257333D01*
X157330380Y-88828761D01*
X157330380Y-88209714D01*
%TO.C,C3003*%
X154883142Y-76271238D02*
X154930761Y-76318857D01*
X154978380Y-76461714D01*
X154978380Y-76556952D01*
X154930761Y-76699809D01*
X154835523Y-76795047D01*
X154740285Y-76842666D01*
X154549809Y-76890285D01*
X154406952Y-76890285D01*
X154216476Y-76842666D01*
X154121238Y-76795047D01*
X154026000Y-76699809D01*
X153978380Y-76556952D01*
X153978380Y-76461714D01*
X154026000Y-76318857D01*
X154073619Y-76271238D01*
X153978380Y-75937904D02*
X153978380Y-75318857D01*
X154359333Y-75652190D01*
X154359333Y-75509333D01*
X154406952Y-75414095D01*
X154454571Y-75366476D01*
X154549809Y-75318857D01*
X154787904Y-75318857D01*
X154883142Y-75366476D01*
X154930761Y-75414095D01*
X154978380Y-75509333D01*
X154978380Y-75795047D01*
X154930761Y-75890285D01*
X154883142Y-75937904D01*
X153978380Y-74699809D02*
X153978380Y-74604571D01*
X154026000Y-74509333D01*
X154073619Y-74461714D01*
X154168857Y-74414095D01*
X154359333Y-74366476D01*
X154597428Y-74366476D01*
X154787904Y-74414095D01*
X154883142Y-74461714D01*
X154930761Y-74509333D01*
X154978380Y-74604571D01*
X154978380Y-74699809D01*
X154930761Y-74795047D01*
X154883142Y-74842666D01*
X154787904Y-74890285D01*
X154597428Y-74937904D01*
X154359333Y-74937904D01*
X154168857Y-74890285D01*
X154073619Y-74842666D01*
X154026000Y-74795047D01*
X153978380Y-74699809D01*
X153978380Y-73747428D02*
X153978380Y-73652190D01*
X154026000Y-73556952D01*
X154073619Y-73509333D01*
X154168857Y-73461714D01*
X154359333Y-73414095D01*
X154597428Y-73414095D01*
X154787904Y-73461714D01*
X154883142Y-73509333D01*
X154930761Y-73556952D01*
X154978380Y-73652190D01*
X154978380Y-73747428D01*
X154930761Y-73842666D01*
X154883142Y-73890285D01*
X154787904Y-73937904D01*
X154597428Y-73985523D01*
X154359333Y-73985523D01*
X154168857Y-73937904D01*
X154073619Y-73890285D01*
X154026000Y-73842666D01*
X153978380Y-73747428D01*
X153978380Y-73080761D02*
X153978380Y-72461714D01*
X154359333Y-72795047D01*
X154359333Y-72652190D01*
X154406952Y-72556952D01*
X154454571Y-72509333D01*
X154549809Y-72461714D01*
X154787904Y-72461714D01*
X154883142Y-72509333D01*
X154930761Y-72556952D01*
X154978380Y-72652190D01*
X154978380Y-72937904D01*
X154930761Y-73033142D01*
X154883142Y-73080761D01*
%TO.C,C3005*%
X166806761Y-70555142D02*
X166759142Y-70602761D01*
X166616285Y-70650380D01*
X166521047Y-70650380D01*
X166378190Y-70602761D01*
X166282952Y-70507523D01*
X166235333Y-70412285D01*
X166187714Y-70221809D01*
X166187714Y-70078952D01*
X166235333Y-69888476D01*
X166282952Y-69793238D01*
X166378190Y-69698000D01*
X166521047Y-69650380D01*
X166616285Y-69650380D01*
X166759142Y-69698000D01*
X166806761Y-69745619D01*
X167140095Y-69650380D02*
X167759142Y-69650380D01*
X167425809Y-70031333D01*
X167568666Y-70031333D01*
X167663904Y-70078952D01*
X167711523Y-70126571D01*
X167759142Y-70221809D01*
X167759142Y-70459904D01*
X167711523Y-70555142D01*
X167663904Y-70602761D01*
X167568666Y-70650380D01*
X167282952Y-70650380D01*
X167187714Y-70602761D01*
X167140095Y-70555142D01*
X168378190Y-69650380D02*
X168473428Y-69650380D01*
X168568666Y-69698000D01*
X168616285Y-69745619D01*
X168663904Y-69840857D01*
X168711523Y-70031333D01*
X168711523Y-70269428D01*
X168663904Y-70459904D01*
X168616285Y-70555142D01*
X168568666Y-70602761D01*
X168473428Y-70650380D01*
X168378190Y-70650380D01*
X168282952Y-70602761D01*
X168235333Y-70555142D01*
X168187714Y-70459904D01*
X168140095Y-70269428D01*
X168140095Y-70031333D01*
X168187714Y-69840857D01*
X168235333Y-69745619D01*
X168282952Y-69698000D01*
X168378190Y-69650380D01*
X169330571Y-69650380D02*
X169425809Y-69650380D01*
X169521047Y-69698000D01*
X169568666Y-69745619D01*
X169616285Y-69840857D01*
X169663904Y-70031333D01*
X169663904Y-70269428D01*
X169616285Y-70459904D01*
X169568666Y-70555142D01*
X169521047Y-70602761D01*
X169425809Y-70650380D01*
X169330571Y-70650380D01*
X169235333Y-70602761D01*
X169187714Y-70555142D01*
X169140095Y-70459904D01*
X169092476Y-70269428D01*
X169092476Y-70031333D01*
X169140095Y-69840857D01*
X169187714Y-69745619D01*
X169235333Y-69698000D01*
X169330571Y-69650380D01*
X170568666Y-69650380D02*
X170092476Y-69650380D01*
X170044857Y-70126571D01*
X170092476Y-70078952D01*
X170187714Y-70031333D01*
X170425809Y-70031333D01*
X170521047Y-70078952D01*
X170568666Y-70126571D01*
X170616285Y-70221809D01*
X170616285Y-70459904D01*
X170568666Y-70555142D01*
X170521047Y-70602761D01*
X170425809Y-70650380D01*
X170187714Y-70650380D01*
X170092476Y-70602761D01*
X170044857Y-70555142D01*
%TO.C,C3006*%
X177997142Y-94813238D02*
X178044761Y-94860857D01*
X178092380Y-95003714D01*
X178092380Y-95098952D01*
X178044761Y-95241809D01*
X177949523Y-95337047D01*
X177854285Y-95384666D01*
X177663809Y-95432285D01*
X177520952Y-95432285D01*
X177330476Y-95384666D01*
X177235238Y-95337047D01*
X177140000Y-95241809D01*
X177092380Y-95098952D01*
X177092380Y-95003714D01*
X177140000Y-94860857D01*
X177187619Y-94813238D01*
X177092380Y-94479904D02*
X177092380Y-93860857D01*
X177473333Y-94194190D01*
X177473333Y-94051333D01*
X177520952Y-93956095D01*
X177568571Y-93908476D01*
X177663809Y-93860857D01*
X177901904Y-93860857D01*
X177997142Y-93908476D01*
X178044761Y-93956095D01*
X178092380Y-94051333D01*
X178092380Y-94337047D01*
X178044761Y-94432285D01*
X177997142Y-94479904D01*
X177092380Y-93241809D02*
X177092380Y-93146571D01*
X177140000Y-93051333D01*
X177187619Y-93003714D01*
X177282857Y-92956095D01*
X177473333Y-92908476D01*
X177711428Y-92908476D01*
X177901904Y-92956095D01*
X177997142Y-93003714D01*
X178044761Y-93051333D01*
X178092380Y-93146571D01*
X178092380Y-93241809D01*
X178044761Y-93337047D01*
X177997142Y-93384666D01*
X177901904Y-93432285D01*
X177711428Y-93479904D01*
X177473333Y-93479904D01*
X177282857Y-93432285D01*
X177187619Y-93384666D01*
X177140000Y-93337047D01*
X177092380Y-93241809D01*
X177092380Y-92289428D02*
X177092380Y-92194190D01*
X177140000Y-92098952D01*
X177187619Y-92051333D01*
X177282857Y-92003714D01*
X177473333Y-91956095D01*
X177711428Y-91956095D01*
X177901904Y-92003714D01*
X177997142Y-92051333D01*
X178044761Y-92098952D01*
X178092380Y-92194190D01*
X178092380Y-92289428D01*
X178044761Y-92384666D01*
X177997142Y-92432285D01*
X177901904Y-92479904D01*
X177711428Y-92527523D01*
X177473333Y-92527523D01*
X177282857Y-92479904D01*
X177187619Y-92432285D01*
X177140000Y-92384666D01*
X177092380Y-92289428D01*
X177092380Y-91098952D02*
X177092380Y-91289428D01*
X177140000Y-91384666D01*
X177187619Y-91432285D01*
X177330476Y-91527523D01*
X177520952Y-91575142D01*
X177901904Y-91575142D01*
X177997142Y-91527523D01*
X178044761Y-91479904D01*
X178092380Y-91384666D01*
X178092380Y-91194190D01*
X178044761Y-91098952D01*
X177997142Y-91051333D01*
X177901904Y-91003714D01*
X177663809Y-91003714D01*
X177568571Y-91051333D01*
X177520952Y-91098952D01*
X177473333Y-91194190D01*
X177473333Y-91384666D01*
X177520952Y-91479904D01*
X177568571Y-91527523D01*
X177663809Y-91575142D01*
%TO.C,C3007*%
X178744761Y-74873142D02*
X178697142Y-74920761D01*
X178554285Y-74968380D01*
X178459047Y-74968380D01*
X178316190Y-74920761D01*
X178220952Y-74825523D01*
X178173333Y-74730285D01*
X178125714Y-74539809D01*
X178125714Y-74396952D01*
X178173333Y-74206476D01*
X178220952Y-74111238D01*
X178316190Y-74016000D01*
X178459047Y-73968380D01*
X178554285Y-73968380D01*
X178697142Y-74016000D01*
X178744761Y-74063619D01*
X179078095Y-73968380D02*
X179697142Y-73968380D01*
X179363809Y-74349333D01*
X179506666Y-74349333D01*
X179601904Y-74396952D01*
X179649523Y-74444571D01*
X179697142Y-74539809D01*
X179697142Y-74777904D01*
X179649523Y-74873142D01*
X179601904Y-74920761D01*
X179506666Y-74968380D01*
X179220952Y-74968380D01*
X179125714Y-74920761D01*
X179078095Y-74873142D01*
X180316190Y-73968380D02*
X180411428Y-73968380D01*
X180506666Y-74016000D01*
X180554285Y-74063619D01*
X180601904Y-74158857D01*
X180649523Y-74349333D01*
X180649523Y-74587428D01*
X180601904Y-74777904D01*
X180554285Y-74873142D01*
X180506666Y-74920761D01*
X180411428Y-74968380D01*
X180316190Y-74968380D01*
X180220952Y-74920761D01*
X180173333Y-74873142D01*
X180125714Y-74777904D01*
X180078095Y-74587428D01*
X180078095Y-74349333D01*
X180125714Y-74158857D01*
X180173333Y-74063619D01*
X180220952Y-74016000D01*
X180316190Y-73968380D01*
X181268571Y-73968380D02*
X181363809Y-73968380D01*
X181459047Y-74016000D01*
X181506666Y-74063619D01*
X181554285Y-74158857D01*
X181601904Y-74349333D01*
X181601904Y-74587428D01*
X181554285Y-74777904D01*
X181506666Y-74873142D01*
X181459047Y-74920761D01*
X181363809Y-74968380D01*
X181268571Y-74968380D01*
X181173333Y-74920761D01*
X181125714Y-74873142D01*
X181078095Y-74777904D01*
X181030476Y-74587428D01*
X181030476Y-74349333D01*
X181078095Y-74158857D01*
X181125714Y-74063619D01*
X181173333Y-74016000D01*
X181268571Y-73968380D01*
X181935238Y-73968380D02*
X182601904Y-73968380D01*
X182173333Y-74968380D01*
%TO.C,R3006*%
X205938380Y-65349238D02*
X205462190Y-65682571D01*
X205938380Y-65920666D02*
X204938380Y-65920666D01*
X204938380Y-65539714D01*
X204986000Y-65444476D01*
X205033619Y-65396857D01*
X205128857Y-65349238D01*
X205271714Y-65349238D01*
X205366952Y-65396857D01*
X205414571Y-65444476D01*
X205462190Y-65539714D01*
X205462190Y-65920666D01*
X204938380Y-65015904D02*
X204938380Y-64396857D01*
X205319333Y-64730190D01*
X205319333Y-64587333D01*
X205366952Y-64492095D01*
X205414571Y-64444476D01*
X205509809Y-64396857D01*
X205747904Y-64396857D01*
X205843142Y-64444476D01*
X205890761Y-64492095D01*
X205938380Y-64587333D01*
X205938380Y-64873047D01*
X205890761Y-64968285D01*
X205843142Y-65015904D01*
X204938380Y-63777809D02*
X204938380Y-63682571D01*
X204986000Y-63587333D01*
X205033619Y-63539714D01*
X205128857Y-63492095D01*
X205319333Y-63444476D01*
X205557428Y-63444476D01*
X205747904Y-63492095D01*
X205843142Y-63539714D01*
X205890761Y-63587333D01*
X205938380Y-63682571D01*
X205938380Y-63777809D01*
X205890761Y-63873047D01*
X205843142Y-63920666D01*
X205747904Y-63968285D01*
X205557428Y-64015904D01*
X205319333Y-64015904D01*
X205128857Y-63968285D01*
X205033619Y-63920666D01*
X204986000Y-63873047D01*
X204938380Y-63777809D01*
X204938380Y-62825428D02*
X204938380Y-62730190D01*
X204986000Y-62634952D01*
X205033619Y-62587333D01*
X205128857Y-62539714D01*
X205319333Y-62492095D01*
X205557428Y-62492095D01*
X205747904Y-62539714D01*
X205843142Y-62587333D01*
X205890761Y-62634952D01*
X205938380Y-62730190D01*
X205938380Y-62825428D01*
X205890761Y-62920666D01*
X205843142Y-62968285D01*
X205747904Y-63015904D01*
X205557428Y-63063523D01*
X205319333Y-63063523D01*
X205128857Y-63015904D01*
X205033619Y-62968285D01*
X204986000Y-62920666D01*
X204938380Y-62825428D01*
X204938380Y-61634952D02*
X204938380Y-61825428D01*
X204986000Y-61920666D01*
X205033619Y-61968285D01*
X205176476Y-62063523D01*
X205366952Y-62111142D01*
X205747904Y-62111142D01*
X205843142Y-62063523D01*
X205890761Y-62015904D01*
X205938380Y-61920666D01*
X205938380Y-61730190D01*
X205890761Y-61634952D01*
X205843142Y-61587333D01*
X205747904Y-61539714D01*
X205509809Y-61539714D01*
X205414571Y-61587333D01*
X205366952Y-61634952D01*
X205319333Y-61730190D01*
X205319333Y-61920666D01*
X205366952Y-62015904D01*
X205414571Y-62063523D01*
X205509809Y-62111142D01*
%TO.C,C2006*%
X193999142Y-119197238D02*
X194046761Y-119244857D01*
X194094380Y-119387714D01*
X194094380Y-119482952D01*
X194046761Y-119625809D01*
X193951523Y-119721047D01*
X193856285Y-119768666D01*
X193665809Y-119816285D01*
X193522952Y-119816285D01*
X193332476Y-119768666D01*
X193237238Y-119721047D01*
X193142000Y-119625809D01*
X193094380Y-119482952D01*
X193094380Y-119387714D01*
X193142000Y-119244857D01*
X193189619Y-119197238D01*
X193189619Y-118816285D02*
X193142000Y-118768666D01*
X193094380Y-118673428D01*
X193094380Y-118435333D01*
X193142000Y-118340095D01*
X193189619Y-118292476D01*
X193284857Y-118244857D01*
X193380095Y-118244857D01*
X193522952Y-118292476D01*
X194094380Y-118863904D01*
X194094380Y-118244857D01*
X193094380Y-117625809D02*
X193094380Y-117530571D01*
X193142000Y-117435333D01*
X193189619Y-117387714D01*
X193284857Y-117340095D01*
X193475333Y-117292476D01*
X193713428Y-117292476D01*
X193903904Y-117340095D01*
X193999142Y-117387714D01*
X194046761Y-117435333D01*
X194094380Y-117530571D01*
X194094380Y-117625809D01*
X194046761Y-117721047D01*
X193999142Y-117768666D01*
X193903904Y-117816285D01*
X193713428Y-117863904D01*
X193475333Y-117863904D01*
X193284857Y-117816285D01*
X193189619Y-117768666D01*
X193142000Y-117721047D01*
X193094380Y-117625809D01*
X193094380Y-116673428D02*
X193094380Y-116578190D01*
X193142000Y-116482952D01*
X193189619Y-116435333D01*
X193284857Y-116387714D01*
X193475333Y-116340095D01*
X193713428Y-116340095D01*
X193903904Y-116387714D01*
X193999142Y-116435333D01*
X194046761Y-116482952D01*
X194094380Y-116578190D01*
X194094380Y-116673428D01*
X194046761Y-116768666D01*
X193999142Y-116816285D01*
X193903904Y-116863904D01*
X193713428Y-116911523D01*
X193475333Y-116911523D01*
X193284857Y-116863904D01*
X193189619Y-116816285D01*
X193142000Y-116768666D01*
X193094380Y-116673428D01*
X193094380Y-115482952D02*
X193094380Y-115673428D01*
X193142000Y-115768666D01*
X193189619Y-115816285D01*
X193332476Y-115911523D01*
X193522952Y-115959142D01*
X193903904Y-115959142D01*
X193999142Y-115911523D01*
X194046761Y-115863904D01*
X194094380Y-115768666D01*
X194094380Y-115578190D01*
X194046761Y-115482952D01*
X193999142Y-115435333D01*
X193903904Y-115387714D01*
X193665809Y-115387714D01*
X193570571Y-115435333D01*
X193522952Y-115482952D01*
X193475333Y-115578190D01*
X193475333Y-115768666D01*
X193522952Y-115863904D01*
X193570571Y-115911523D01*
X193665809Y-115959142D01*
%TO.C,C2007*%
X173679142Y-119705238D02*
X173726761Y-119752857D01*
X173774380Y-119895714D01*
X173774380Y-119990952D01*
X173726761Y-120133809D01*
X173631523Y-120229047D01*
X173536285Y-120276666D01*
X173345809Y-120324285D01*
X173202952Y-120324285D01*
X173012476Y-120276666D01*
X172917238Y-120229047D01*
X172822000Y-120133809D01*
X172774380Y-119990952D01*
X172774380Y-119895714D01*
X172822000Y-119752857D01*
X172869619Y-119705238D01*
X172869619Y-119324285D02*
X172822000Y-119276666D01*
X172774380Y-119181428D01*
X172774380Y-118943333D01*
X172822000Y-118848095D01*
X172869619Y-118800476D01*
X172964857Y-118752857D01*
X173060095Y-118752857D01*
X173202952Y-118800476D01*
X173774380Y-119371904D01*
X173774380Y-118752857D01*
X172774380Y-118133809D02*
X172774380Y-118038571D01*
X172822000Y-117943333D01*
X172869619Y-117895714D01*
X172964857Y-117848095D01*
X173155333Y-117800476D01*
X173393428Y-117800476D01*
X173583904Y-117848095D01*
X173679142Y-117895714D01*
X173726761Y-117943333D01*
X173774380Y-118038571D01*
X173774380Y-118133809D01*
X173726761Y-118229047D01*
X173679142Y-118276666D01*
X173583904Y-118324285D01*
X173393428Y-118371904D01*
X173155333Y-118371904D01*
X172964857Y-118324285D01*
X172869619Y-118276666D01*
X172822000Y-118229047D01*
X172774380Y-118133809D01*
X172774380Y-117181428D02*
X172774380Y-117086190D01*
X172822000Y-116990952D01*
X172869619Y-116943333D01*
X172964857Y-116895714D01*
X173155333Y-116848095D01*
X173393428Y-116848095D01*
X173583904Y-116895714D01*
X173679142Y-116943333D01*
X173726761Y-116990952D01*
X173774380Y-117086190D01*
X173774380Y-117181428D01*
X173726761Y-117276666D01*
X173679142Y-117324285D01*
X173583904Y-117371904D01*
X173393428Y-117419523D01*
X173155333Y-117419523D01*
X172964857Y-117371904D01*
X172869619Y-117324285D01*
X172822000Y-117276666D01*
X172774380Y-117181428D01*
X172774380Y-116514761D02*
X172774380Y-115848095D01*
X173774380Y-116276666D01*
%TO.C,Y2003*%
X175387238Y-108180190D02*
X175387238Y-108656380D01*
X175053904Y-107656380D02*
X175387238Y-108180190D01*
X175720571Y-107656380D01*
X176006285Y-107751619D02*
X176053904Y-107704000D01*
X176149142Y-107656380D01*
X176387238Y-107656380D01*
X176482476Y-107704000D01*
X176530095Y-107751619D01*
X176577714Y-107846857D01*
X176577714Y-107942095D01*
X176530095Y-108084952D01*
X175958666Y-108656380D01*
X176577714Y-108656380D01*
X177196761Y-107656380D02*
X177292000Y-107656380D01*
X177387238Y-107704000D01*
X177434857Y-107751619D01*
X177482476Y-107846857D01*
X177530095Y-108037333D01*
X177530095Y-108275428D01*
X177482476Y-108465904D01*
X177434857Y-108561142D01*
X177387238Y-108608761D01*
X177292000Y-108656380D01*
X177196761Y-108656380D01*
X177101523Y-108608761D01*
X177053904Y-108561142D01*
X177006285Y-108465904D01*
X176958666Y-108275428D01*
X176958666Y-108037333D01*
X177006285Y-107846857D01*
X177053904Y-107751619D01*
X177101523Y-107704000D01*
X177196761Y-107656380D01*
X178149142Y-107656380D02*
X178244380Y-107656380D01*
X178339619Y-107704000D01*
X178387238Y-107751619D01*
X178434857Y-107846857D01*
X178482476Y-108037333D01*
X178482476Y-108275428D01*
X178434857Y-108465904D01*
X178387238Y-108561142D01*
X178339619Y-108608761D01*
X178244380Y-108656380D01*
X178149142Y-108656380D01*
X178053904Y-108608761D01*
X178006285Y-108561142D01*
X177958666Y-108465904D01*
X177911047Y-108275428D01*
X177911047Y-108037333D01*
X177958666Y-107846857D01*
X178006285Y-107751619D01*
X178053904Y-107704000D01*
X178149142Y-107656380D01*
X178815809Y-107656380D02*
X179434857Y-107656380D01*
X179101523Y-108037333D01*
X179244380Y-108037333D01*
X179339619Y-108084952D01*
X179387238Y-108132571D01*
X179434857Y-108227809D01*
X179434857Y-108465904D01*
X179387238Y-108561142D01*
X179339619Y-108608761D01*
X179244380Y-108656380D01*
X178958666Y-108656380D01*
X178863428Y-108608761D01*
X178815809Y-108561142D01*
%TO.C,U3003*%
X212318380Y-120808476D02*
X213127904Y-120808476D01*
X213223142Y-120760857D01*
X213270761Y-120713238D01*
X213318380Y-120618000D01*
X213318380Y-120427523D01*
X213270761Y-120332285D01*
X213223142Y-120284666D01*
X213127904Y-120237047D01*
X212318380Y-120237047D01*
X212318380Y-119856095D02*
X212318380Y-119237047D01*
X212699333Y-119570380D01*
X212699333Y-119427523D01*
X212746952Y-119332285D01*
X212794571Y-119284666D01*
X212889809Y-119237047D01*
X213127904Y-119237047D01*
X213223142Y-119284666D01*
X213270761Y-119332285D01*
X213318380Y-119427523D01*
X213318380Y-119713238D01*
X213270761Y-119808476D01*
X213223142Y-119856095D01*
X212318380Y-118618000D02*
X212318380Y-118522761D01*
X212366000Y-118427523D01*
X212413619Y-118379904D01*
X212508857Y-118332285D01*
X212699333Y-118284666D01*
X212937428Y-118284666D01*
X213127904Y-118332285D01*
X213223142Y-118379904D01*
X213270761Y-118427523D01*
X213318380Y-118522761D01*
X213318380Y-118618000D01*
X213270761Y-118713238D01*
X213223142Y-118760857D01*
X213127904Y-118808476D01*
X212937428Y-118856095D01*
X212699333Y-118856095D01*
X212508857Y-118808476D01*
X212413619Y-118760857D01*
X212366000Y-118713238D01*
X212318380Y-118618000D01*
X212318380Y-117665619D02*
X212318380Y-117570380D01*
X212366000Y-117475142D01*
X212413619Y-117427523D01*
X212508857Y-117379904D01*
X212699333Y-117332285D01*
X212937428Y-117332285D01*
X213127904Y-117379904D01*
X213223142Y-117427523D01*
X213270761Y-117475142D01*
X213318380Y-117570380D01*
X213318380Y-117665619D01*
X213270761Y-117760857D01*
X213223142Y-117808476D01*
X213127904Y-117856095D01*
X212937428Y-117903714D01*
X212699333Y-117903714D01*
X212508857Y-117856095D01*
X212413619Y-117808476D01*
X212366000Y-117760857D01*
X212318380Y-117665619D01*
X212318380Y-116998952D02*
X212318380Y-116379904D01*
X212699333Y-116713238D01*
X212699333Y-116570380D01*
X212746952Y-116475142D01*
X212794571Y-116427523D01*
X212889809Y-116379904D01*
X213127904Y-116379904D01*
X213223142Y-116427523D01*
X213270761Y-116475142D01*
X213318380Y-116570380D01*
X213318380Y-116856095D01*
X213270761Y-116951333D01*
X213223142Y-116998952D01*
%TO.C,C2004*%
X167235142Y-106751238D02*
X167282761Y-106798857D01*
X167330380Y-106941714D01*
X167330380Y-107036952D01*
X167282761Y-107179809D01*
X167187523Y-107275047D01*
X167092285Y-107322666D01*
X166901809Y-107370285D01*
X166758952Y-107370285D01*
X166568476Y-107322666D01*
X166473238Y-107275047D01*
X166378000Y-107179809D01*
X166330380Y-107036952D01*
X166330380Y-106941714D01*
X166378000Y-106798857D01*
X166425619Y-106751238D01*
X166425619Y-106370285D02*
X166378000Y-106322666D01*
X166330380Y-106227428D01*
X166330380Y-105989333D01*
X166378000Y-105894095D01*
X166425619Y-105846476D01*
X166520857Y-105798857D01*
X166616095Y-105798857D01*
X166758952Y-105846476D01*
X167330380Y-106417904D01*
X167330380Y-105798857D01*
X166330380Y-105179809D02*
X166330380Y-105084571D01*
X166378000Y-104989333D01*
X166425619Y-104941714D01*
X166520857Y-104894095D01*
X166711333Y-104846476D01*
X166949428Y-104846476D01*
X167139904Y-104894095D01*
X167235142Y-104941714D01*
X167282761Y-104989333D01*
X167330380Y-105084571D01*
X167330380Y-105179809D01*
X167282761Y-105275047D01*
X167235142Y-105322666D01*
X167139904Y-105370285D01*
X166949428Y-105417904D01*
X166711333Y-105417904D01*
X166520857Y-105370285D01*
X166425619Y-105322666D01*
X166378000Y-105275047D01*
X166330380Y-105179809D01*
X166330380Y-104227428D02*
X166330380Y-104132190D01*
X166378000Y-104036952D01*
X166425619Y-103989333D01*
X166520857Y-103941714D01*
X166711333Y-103894095D01*
X166949428Y-103894095D01*
X167139904Y-103941714D01*
X167235142Y-103989333D01*
X167282761Y-104036952D01*
X167330380Y-104132190D01*
X167330380Y-104227428D01*
X167282761Y-104322666D01*
X167235142Y-104370285D01*
X167139904Y-104417904D01*
X166949428Y-104465523D01*
X166711333Y-104465523D01*
X166520857Y-104417904D01*
X166425619Y-104370285D01*
X166378000Y-104322666D01*
X166330380Y-104227428D01*
X166663714Y-103036952D02*
X167330380Y-103036952D01*
X166282761Y-103275047D02*
X166997047Y-103513142D01*
X166997047Y-102894095D01*
%TO.C,R3007*%
X150895381Y-135453238D02*
X150419191Y-135786571D01*
X150895381Y-136024666D02*
X149895381Y-136024666D01*
X149895381Y-135643714D01*
X149943001Y-135548476D01*
X149990620Y-135500857D01*
X150085858Y-135453238D01*
X150228715Y-135453238D01*
X150323953Y-135500857D01*
X150371572Y-135548476D01*
X150419191Y-135643714D01*
X150419191Y-136024666D01*
X149895381Y-135119904D02*
X149895381Y-134500857D01*
X150276334Y-134834190D01*
X150276334Y-134691333D01*
X150323953Y-134596095D01*
X150371572Y-134548476D01*
X150466810Y-134500857D01*
X150704905Y-134500857D01*
X150800143Y-134548476D01*
X150847762Y-134596095D01*
X150895381Y-134691333D01*
X150895381Y-134977047D01*
X150847762Y-135072285D01*
X150800143Y-135119904D01*
X149895381Y-133881809D02*
X149895381Y-133786571D01*
X149943001Y-133691333D01*
X149990620Y-133643714D01*
X150085858Y-133596095D01*
X150276334Y-133548476D01*
X150514429Y-133548476D01*
X150704905Y-133596095D01*
X150800143Y-133643714D01*
X150847762Y-133691333D01*
X150895381Y-133786571D01*
X150895381Y-133881809D01*
X150847762Y-133977047D01*
X150800143Y-134024666D01*
X150704905Y-134072285D01*
X150514429Y-134119904D01*
X150276334Y-134119904D01*
X150085858Y-134072285D01*
X149990620Y-134024666D01*
X149943001Y-133977047D01*
X149895381Y-133881809D01*
X149895381Y-132929428D02*
X149895381Y-132834190D01*
X149943001Y-132738952D01*
X149990620Y-132691333D01*
X150085858Y-132643714D01*
X150276334Y-132596095D01*
X150514429Y-132596095D01*
X150704905Y-132643714D01*
X150800143Y-132691333D01*
X150847762Y-132738952D01*
X150895381Y-132834190D01*
X150895381Y-132929428D01*
X150847762Y-133024666D01*
X150800143Y-133072285D01*
X150704905Y-133119904D01*
X150514429Y-133167523D01*
X150276334Y-133167523D01*
X150085858Y-133119904D01*
X149990620Y-133072285D01*
X149943001Y-133024666D01*
X149895381Y-132929428D01*
X149895381Y-132262761D02*
X149895381Y-131596095D01*
X150895381Y-132024666D01*
%TO.C,R3008*%
X154122380Y-132151238D02*
X153646190Y-132484571D01*
X154122380Y-132722666D02*
X153122380Y-132722666D01*
X153122380Y-132341714D01*
X153170000Y-132246476D01*
X153217619Y-132198857D01*
X153312857Y-132151238D01*
X153455714Y-132151238D01*
X153550952Y-132198857D01*
X153598571Y-132246476D01*
X153646190Y-132341714D01*
X153646190Y-132722666D01*
X153122380Y-131817904D02*
X153122380Y-131198857D01*
X153503333Y-131532190D01*
X153503333Y-131389333D01*
X153550952Y-131294095D01*
X153598571Y-131246476D01*
X153693809Y-131198857D01*
X153931904Y-131198857D01*
X154027142Y-131246476D01*
X154074761Y-131294095D01*
X154122380Y-131389333D01*
X154122380Y-131675047D01*
X154074761Y-131770285D01*
X154027142Y-131817904D01*
X153122380Y-130579809D02*
X153122380Y-130484571D01*
X153170000Y-130389333D01*
X153217619Y-130341714D01*
X153312857Y-130294095D01*
X153503333Y-130246476D01*
X153741428Y-130246476D01*
X153931904Y-130294095D01*
X154027142Y-130341714D01*
X154074761Y-130389333D01*
X154122380Y-130484571D01*
X154122380Y-130579809D01*
X154074761Y-130675047D01*
X154027142Y-130722666D01*
X153931904Y-130770285D01*
X153741428Y-130817904D01*
X153503333Y-130817904D01*
X153312857Y-130770285D01*
X153217619Y-130722666D01*
X153170000Y-130675047D01*
X153122380Y-130579809D01*
X153122380Y-129627428D02*
X153122380Y-129532190D01*
X153170000Y-129436952D01*
X153217619Y-129389333D01*
X153312857Y-129341714D01*
X153503333Y-129294095D01*
X153741428Y-129294095D01*
X153931904Y-129341714D01*
X154027142Y-129389333D01*
X154074761Y-129436952D01*
X154122380Y-129532190D01*
X154122380Y-129627428D01*
X154074761Y-129722666D01*
X154027142Y-129770285D01*
X153931904Y-129817904D01*
X153741428Y-129865523D01*
X153503333Y-129865523D01*
X153312857Y-129817904D01*
X153217619Y-129770285D01*
X153170000Y-129722666D01*
X153122380Y-129627428D01*
X153550952Y-128722666D02*
X153503333Y-128817904D01*
X153455714Y-128865523D01*
X153360476Y-128913142D01*
X153312857Y-128913142D01*
X153217619Y-128865523D01*
X153170000Y-128817904D01*
X153122380Y-128722666D01*
X153122380Y-128532190D01*
X153170000Y-128436952D01*
X153217619Y-128389333D01*
X153312857Y-128341714D01*
X153360476Y-128341714D01*
X153455714Y-128389333D01*
X153503333Y-128436952D01*
X153550952Y-128532190D01*
X153550952Y-128722666D01*
X153598571Y-128817904D01*
X153646190Y-128865523D01*
X153741428Y-128913142D01*
X153931904Y-128913142D01*
X154027142Y-128865523D01*
X154074761Y-128817904D01*
X154122380Y-128722666D01*
X154122380Y-128532190D01*
X154074761Y-128436952D01*
X154027142Y-128389333D01*
X153931904Y-128341714D01*
X153741428Y-128341714D01*
X153646190Y-128389333D01*
X153598571Y-128436952D01*
X153550952Y-128532190D01*
%TO.C,Q3003*%
X143817189Y-120906618D02*
X143721951Y-120858999D01*
X143626713Y-120763760D01*
X143483856Y-120620903D01*
X143388618Y-120573284D01*
X143293379Y-120573284D01*
X143340999Y-120811379D02*
X143245760Y-120763760D01*
X143150522Y-120668522D01*
X143102903Y-120478046D01*
X143102903Y-120144713D01*
X143150522Y-119954237D01*
X143245760Y-119858999D01*
X143340999Y-119811379D01*
X143531475Y-119811379D01*
X143626713Y-119858999D01*
X143721951Y-119954237D01*
X143769570Y-120144713D01*
X143769570Y-120478046D01*
X143721951Y-120668522D01*
X143626713Y-120763760D01*
X143531475Y-120811379D01*
X143340999Y-120811379D01*
X144102903Y-119811379D02*
X144721951Y-119811379D01*
X144388618Y-120192332D01*
X144531475Y-120192332D01*
X144626713Y-120239951D01*
X144674332Y-120287570D01*
X144721951Y-120382808D01*
X144721951Y-120620903D01*
X144674332Y-120716141D01*
X144626713Y-120763760D01*
X144531475Y-120811379D01*
X144245760Y-120811379D01*
X144150522Y-120763760D01*
X144102903Y-120716141D01*
X145340999Y-119811379D02*
X145436237Y-119811379D01*
X145531475Y-119858999D01*
X145579094Y-119906618D01*
X145626713Y-120001856D01*
X145674332Y-120192332D01*
X145674332Y-120430427D01*
X145626713Y-120620903D01*
X145579094Y-120716141D01*
X145531475Y-120763760D01*
X145436237Y-120811379D01*
X145340999Y-120811379D01*
X145245760Y-120763760D01*
X145198141Y-120716141D01*
X145150522Y-120620903D01*
X145102903Y-120430427D01*
X145102903Y-120192332D01*
X145150522Y-120001856D01*
X145198141Y-119906618D01*
X145245760Y-119858999D01*
X145340999Y-119811379D01*
X146293379Y-119811379D02*
X146388618Y-119811379D01*
X146483856Y-119858999D01*
X146531475Y-119906618D01*
X146579094Y-120001856D01*
X146626713Y-120192332D01*
X146626713Y-120430427D01*
X146579094Y-120620903D01*
X146531475Y-120716141D01*
X146483856Y-120763760D01*
X146388618Y-120811379D01*
X146293379Y-120811379D01*
X146198141Y-120763760D01*
X146150522Y-120716141D01*
X146102903Y-120620903D01*
X146055284Y-120430427D01*
X146055284Y-120192332D01*
X146102903Y-120001856D01*
X146150522Y-119906618D01*
X146198141Y-119858999D01*
X146293379Y-119811379D01*
X146960046Y-119811379D02*
X147579094Y-119811379D01*
X147245760Y-120192332D01*
X147388618Y-120192332D01*
X147483856Y-120239951D01*
X147531475Y-120287570D01*
X147579094Y-120382808D01*
X147579094Y-120620903D01*
X147531475Y-120716141D01*
X147483856Y-120763760D01*
X147388618Y-120811379D01*
X147102903Y-120811379D01*
X147007665Y-120763760D01*
X146960046Y-120716141D01*
%TO.C,R3009*%
X149964380Y-119388238D02*
X149488190Y-119721571D01*
X149964380Y-119959666D02*
X148964380Y-119959666D01*
X148964380Y-119578714D01*
X149012000Y-119483476D01*
X149059619Y-119435857D01*
X149154857Y-119388238D01*
X149297714Y-119388238D01*
X149392952Y-119435857D01*
X149440571Y-119483476D01*
X149488190Y-119578714D01*
X149488190Y-119959666D01*
X148964380Y-119054904D02*
X148964380Y-118435857D01*
X149345333Y-118769190D01*
X149345333Y-118626333D01*
X149392952Y-118531095D01*
X149440571Y-118483476D01*
X149535809Y-118435857D01*
X149773904Y-118435857D01*
X149869142Y-118483476D01*
X149916761Y-118531095D01*
X149964380Y-118626333D01*
X149964380Y-118912047D01*
X149916761Y-119007285D01*
X149869142Y-119054904D01*
X148964380Y-117816809D02*
X148964380Y-117721571D01*
X149012000Y-117626333D01*
X149059619Y-117578714D01*
X149154857Y-117531095D01*
X149345333Y-117483476D01*
X149583428Y-117483476D01*
X149773904Y-117531095D01*
X149869142Y-117578714D01*
X149916761Y-117626333D01*
X149964380Y-117721571D01*
X149964380Y-117816809D01*
X149916761Y-117912047D01*
X149869142Y-117959666D01*
X149773904Y-118007285D01*
X149583428Y-118054904D01*
X149345333Y-118054904D01*
X149154857Y-118007285D01*
X149059619Y-117959666D01*
X149012000Y-117912047D01*
X148964380Y-117816809D01*
X148964380Y-116864428D02*
X148964380Y-116769190D01*
X149012000Y-116673952D01*
X149059619Y-116626333D01*
X149154857Y-116578714D01*
X149345333Y-116531095D01*
X149583428Y-116531095D01*
X149773904Y-116578714D01*
X149869142Y-116626333D01*
X149916761Y-116673952D01*
X149964380Y-116769190D01*
X149964380Y-116864428D01*
X149916761Y-116959666D01*
X149869142Y-117007285D01*
X149773904Y-117054904D01*
X149583428Y-117102523D01*
X149345333Y-117102523D01*
X149154857Y-117054904D01*
X149059619Y-117007285D01*
X149012000Y-116959666D01*
X148964380Y-116864428D01*
X149964380Y-116054904D02*
X149964380Y-115864428D01*
X149916761Y-115769190D01*
X149869142Y-115721571D01*
X149726285Y-115626333D01*
X149535809Y-115578714D01*
X149154857Y-115578714D01*
X149059619Y-115626333D01*
X149012000Y-115673952D01*
X148964380Y-115769190D01*
X148964380Y-115959666D01*
X149012000Y-116054904D01*
X149059619Y-116102523D01*
X149154857Y-116150142D01*
X149392952Y-116150142D01*
X149488190Y-116102523D01*
X149535809Y-116054904D01*
X149583428Y-115959666D01*
X149583428Y-115769190D01*
X149535809Y-115673952D01*
X149488190Y-115626333D01*
X149392952Y-115578714D01*
%TO.C,R3010*%
X141516380Y-119451238D02*
X141040190Y-119784571D01*
X141516380Y-120022666D02*
X140516380Y-120022666D01*
X140516380Y-119641714D01*
X140564000Y-119546476D01*
X140611619Y-119498857D01*
X140706857Y-119451238D01*
X140849714Y-119451238D01*
X140944952Y-119498857D01*
X140992571Y-119546476D01*
X141040190Y-119641714D01*
X141040190Y-120022666D01*
X140516380Y-119117904D02*
X140516380Y-118498857D01*
X140897333Y-118832190D01*
X140897333Y-118689333D01*
X140944952Y-118594095D01*
X140992571Y-118546476D01*
X141087809Y-118498857D01*
X141325904Y-118498857D01*
X141421142Y-118546476D01*
X141468761Y-118594095D01*
X141516380Y-118689333D01*
X141516380Y-118975047D01*
X141468761Y-119070285D01*
X141421142Y-119117904D01*
X140516380Y-117879809D02*
X140516380Y-117784571D01*
X140564000Y-117689333D01*
X140611619Y-117641714D01*
X140706857Y-117594095D01*
X140897333Y-117546476D01*
X141135428Y-117546476D01*
X141325904Y-117594095D01*
X141421142Y-117641714D01*
X141468761Y-117689333D01*
X141516380Y-117784571D01*
X141516380Y-117879809D01*
X141468761Y-117975047D01*
X141421142Y-118022666D01*
X141325904Y-118070285D01*
X141135428Y-118117904D01*
X140897333Y-118117904D01*
X140706857Y-118070285D01*
X140611619Y-118022666D01*
X140564000Y-117975047D01*
X140516380Y-117879809D01*
X141516380Y-116594095D02*
X141516380Y-117165523D01*
X141516380Y-116879809D02*
X140516380Y-116879809D01*
X140659238Y-116975047D01*
X140754476Y-117070285D01*
X140802095Y-117165523D01*
X140516380Y-115975047D02*
X140516380Y-115879809D01*
X140564000Y-115784571D01*
X140611619Y-115736952D01*
X140706857Y-115689333D01*
X140897333Y-115641714D01*
X141135428Y-115641714D01*
X141325904Y-115689333D01*
X141421142Y-115736952D01*
X141468761Y-115784571D01*
X141516380Y-115879809D01*
X141516380Y-115975047D01*
X141468761Y-116070285D01*
X141421142Y-116117904D01*
X141325904Y-116165523D01*
X141135428Y-116213142D01*
X140897333Y-116213142D01*
X140706857Y-116165523D01*
X140611619Y-116117904D01*
X140564000Y-116070285D01*
X140516380Y-115975047D01*
%TO.C,U3002*%
X165200380Y-120300476D02*
X166009904Y-120300476D01*
X166105142Y-120252857D01*
X166152761Y-120205238D01*
X166200380Y-120110000D01*
X166200380Y-119919523D01*
X166152761Y-119824285D01*
X166105142Y-119776666D01*
X166009904Y-119729047D01*
X165200380Y-119729047D01*
X165200380Y-119348095D02*
X165200380Y-118729047D01*
X165581333Y-119062380D01*
X165581333Y-118919523D01*
X165628952Y-118824285D01*
X165676571Y-118776666D01*
X165771809Y-118729047D01*
X166009904Y-118729047D01*
X166105142Y-118776666D01*
X166152761Y-118824285D01*
X166200380Y-118919523D01*
X166200380Y-119205238D01*
X166152761Y-119300476D01*
X166105142Y-119348095D01*
X165200380Y-118110000D02*
X165200380Y-118014761D01*
X165248000Y-117919523D01*
X165295619Y-117871904D01*
X165390857Y-117824285D01*
X165581333Y-117776666D01*
X165819428Y-117776666D01*
X166009904Y-117824285D01*
X166105142Y-117871904D01*
X166152761Y-117919523D01*
X166200380Y-118014761D01*
X166200380Y-118110000D01*
X166152761Y-118205238D01*
X166105142Y-118252857D01*
X166009904Y-118300476D01*
X165819428Y-118348095D01*
X165581333Y-118348095D01*
X165390857Y-118300476D01*
X165295619Y-118252857D01*
X165248000Y-118205238D01*
X165200380Y-118110000D01*
X165200380Y-117157619D02*
X165200380Y-117062380D01*
X165248000Y-116967142D01*
X165295619Y-116919523D01*
X165390857Y-116871904D01*
X165581333Y-116824285D01*
X165819428Y-116824285D01*
X166009904Y-116871904D01*
X166105142Y-116919523D01*
X166152761Y-116967142D01*
X166200380Y-117062380D01*
X166200380Y-117157619D01*
X166152761Y-117252857D01*
X166105142Y-117300476D01*
X166009904Y-117348095D01*
X165819428Y-117395714D01*
X165581333Y-117395714D01*
X165390857Y-117348095D01*
X165295619Y-117300476D01*
X165248000Y-117252857D01*
X165200380Y-117157619D01*
X165295619Y-116443333D02*
X165248000Y-116395714D01*
X165200380Y-116300476D01*
X165200380Y-116062380D01*
X165248000Y-115967142D01*
X165295619Y-115919523D01*
X165390857Y-115871904D01*
X165486095Y-115871904D01*
X165628952Y-115919523D01*
X166200380Y-116490952D01*
X166200380Y-115871904D01*
%TD*%
M02*
