%TF.GenerationSoftware,KiCad,Pcbnew,5.1.9+dfsg1-1*%
%TF.CreationDate,2021-05-17T22:01:10+02:00*%
%TF.ProjectId,PIC32MXCubeV1,50494333-324d-4584-9375-626556312e6b,rev?*%
%TF.SameCoordinates,Original*%
%TF.FileFunction,Soldermask,Top*%
%TF.FilePolarity,Negative*%
%FSLAX46Y46*%
G04 Gerber Fmt 4.6, Leading zero omitted, Abs format (unit mm)*
G04 Created by KiCad (PCBNEW 5.1.9+dfsg1-1) date 2021-05-17 22:01:10*
%MOMM*%
%LPD*%
G01*
G04 APERTURE LIST*
%ADD10R,0.900000X0.900000*%
%ADD11R,0.750000X1.500000*%
%ADD12C,3.250000*%
%ADD13C,1.520000*%
%ADD14R,1.520000X1.520000*%
%ADD15O,1.700000X1.700000*%
%ADD16R,1.700000X1.700000*%
%ADD17O,1.700000X1.950000*%
%ADD18C,2.100000*%
%ADD19C,1.750000*%
%ADD20R,0.500000X2.000000*%
%ADD21R,2.000000X1.700000*%
%ADD22C,1.000000*%
%ADD23R,0.800000X0.900000*%
%ADD24R,1.000000X1.000000*%
%ADD25O,1.000000X1.000000*%
%ADD26R,0.300000X1.600000*%
%ADD27R,1.300000X1.900000*%
%ADD28C,1.500000*%
%ADD29R,0.900000X0.800000*%
G04 APERTURE END LIST*
%TO.C,U3001*%
G36*
G01*
X157203000Y-113406000D02*
X157503000Y-113406000D01*
G75*
G02*
X157653000Y-113556000I0J-150000D01*
G01*
X157653000Y-115156000D01*
G75*
G02*
X157503000Y-115306000I-150000J0D01*
G01*
X157203000Y-115306000D01*
G75*
G02*
X157053000Y-115156000I0J150000D01*
G01*
X157053000Y-113556000D01*
G75*
G02*
X157203000Y-113406000I150000J0D01*
G01*
G37*
G36*
G01*
X155933000Y-113406000D02*
X156233000Y-113406000D01*
G75*
G02*
X156383000Y-113556000I0J-150000D01*
G01*
X156383000Y-115156000D01*
G75*
G02*
X156233000Y-115306000I-150000J0D01*
G01*
X155933000Y-115306000D01*
G75*
G02*
X155783000Y-115156000I0J150000D01*
G01*
X155783000Y-113556000D01*
G75*
G02*
X155933000Y-113406000I150000J0D01*
G01*
G37*
G36*
G01*
X154663000Y-113406000D02*
X154963000Y-113406000D01*
G75*
G02*
X155113000Y-113556000I0J-150000D01*
G01*
X155113000Y-115156000D01*
G75*
G02*
X154963000Y-115306000I-150000J0D01*
G01*
X154663000Y-115306000D01*
G75*
G02*
X154513000Y-115156000I0J150000D01*
G01*
X154513000Y-113556000D01*
G75*
G02*
X154663000Y-113406000I150000J0D01*
G01*
G37*
G36*
G01*
X153393000Y-113406000D02*
X153693000Y-113406000D01*
G75*
G02*
X153843000Y-113556000I0J-150000D01*
G01*
X153843000Y-115156000D01*
G75*
G02*
X153693000Y-115306000I-150000J0D01*
G01*
X153393000Y-115306000D01*
G75*
G02*
X153243000Y-115156000I0J150000D01*
G01*
X153243000Y-113556000D01*
G75*
G02*
X153393000Y-113406000I150000J0D01*
G01*
G37*
G36*
G01*
X153393000Y-120406000D02*
X153693000Y-120406000D01*
G75*
G02*
X153843000Y-120556000I0J-150000D01*
G01*
X153843000Y-122156000D01*
G75*
G02*
X153693000Y-122306000I-150000J0D01*
G01*
X153393000Y-122306000D01*
G75*
G02*
X153243000Y-122156000I0J150000D01*
G01*
X153243000Y-120556000D01*
G75*
G02*
X153393000Y-120406000I150000J0D01*
G01*
G37*
G36*
G01*
X154663000Y-120406000D02*
X154963000Y-120406000D01*
G75*
G02*
X155113000Y-120556000I0J-150000D01*
G01*
X155113000Y-122156000D01*
G75*
G02*
X154963000Y-122306000I-150000J0D01*
G01*
X154663000Y-122306000D01*
G75*
G02*
X154513000Y-122156000I0J150000D01*
G01*
X154513000Y-120556000D01*
G75*
G02*
X154663000Y-120406000I150000J0D01*
G01*
G37*
G36*
G01*
X155933000Y-120406000D02*
X156233000Y-120406000D01*
G75*
G02*
X156383000Y-120556000I0J-150000D01*
G01*
X156383000Y-122156000D01*
G75*
G02*
X156233000Y-122306000I-150000J0D01*
G01*
X155933000Y-122306000D01*
G75*
G02*
X155783000Y-122156000I0J150000D01*
G01*
X155783000Y-120556000D01*
G75*
G02*
X155933000Y-120406000I150000J0D01*
G01*
G37*
G36*
G01*
X157203000Y-120406000D02*
X157503000Y-120406000D01*
G75*
G02*
X157653000Y-120556000I0J-150000D01*
G01*
X157653000Y-122156000D01*
G75*
G02*
X157503000Y-122306000I-150000J0D01*
G01*
X157203000Y-122306000D01*
G75*
G02*
X157053000Y-122156000I0J150000D01*
G01*
X157053000Y-120556000D01*
G75*
G02*
X157203000Y-120406000I150000J0D01*
G01*
G37*
%TD*%
%TO.C,R1002*%
G36*
G01*
X174011000Y-138767000D02*
X173461000Y-138767000D01*
G75*
G02*
X173261000Y-138567000I0J200000D01*
G01*
X173261000Y-138167000D01*
G75*
G02*
X173461000Y-137967000I200000J0D01*
G01*
X174011000Y-137967000D01*
G75*
G02*
X174211000Y-138167000I0J-200000D01*
G01*
X174211000Y-138567000D01*
G75*
G02*
X174011000Y-138767000I-200000J0D01*
G01*
G37*
G36*
G01*
X174011000Y-140417000D02*
X173461000Y-140417000D01*
G75*
G02*
X173261000Y-140217000I0J200000D01*
G01*
X173261000Y-139817000D01*
G75*
G02*
X173461000Y-139617000I200000J0D01*
G01*
X174011000Y-139617000D01*
G75*
G02*
X174211000Y-139817000I0J-200000D01*
G01*
X174211000Y-140217000D01*
G75*
G02*
X174011000Y-140417000I-200000J0D01*
G01*
G37*
%TD*%
%TO.C,C3004*%
G36*
G01*
X163318000Y-97999000D02*
X162818000Y-97999000D01*
G75*
G02*
X162593000Y-97774000I0J225000D01*
G01*
X162593000Y-97324000D01*
G75*
G02*
X162818000Y-97099000I225000J0D01*
G01*
X163318000Y-97099000D01*
G75*
G02*
X163543000Y-97324000I0J-225000D01*
G01*
X163543000Y-97774000D01*
G75*
G02*
X163318000Y-97999000I-225000J0D01*
G01*
G37*
G36*
G01*
X163318000Y-96449000D02*
X162818000Y-96449000D01*
G75*
G02*
X162593000Y-96224000I0J225000D01*
G01*
X162593000Y-95774000D01*
G75*
G02*
X162818000Y-95549000I225000J0D01*
G01*
X163318000Y-95549000D01*
G75*
G02*
X163543000Y-95774000I0J-225000D01*
G01*
X163543000Y-96224000D01*
G75*
G02*
X163318000Y-96449000I-225000J0D01*
G01*
G37*
%TD*%
%TO.C,U3004*%
G36*
G01*
X167667911Y-73436696D02*
X167773977Y-73330630D01*
G75*
G02*
X167880043Y-73330630I53033J-53033D01*
G01*
X168816959Y-74267546D01*
G75*
G02*
X168816959Y-74373612I-53033J-53033D01*
G01*
X168710893Y-74479678D01*
G75*
G02*
X168604827Y-74479678I-53033J53033D01*
G01*
X167667911Y-73542762D01*
G75*
G02*
X167667911Y-73436696I53033J53033D01*
G01*
G37*
G36*
G01*
X167314358Y-73790249D02*
X167420424Y-73684183D01*
G75*
G02*
X167526490Y-73684183I53033J-53033D01*
G01*
X168463406Y-74621099D01*
G75*
G02*
X168463406Y-74727165I-53033J-53033D01*
G01*
X168357340Y-74833231D01*
G75*
G02*
X168251274Y-74833231I-53033J53033D01*
G01*
X167314358Y-73896315D01*
G75*
G02*
X167314358Y-73790249I53033J53033D01*
G01*
G37*
G36*
G01*
X166960804Y-74143802D02*
X167066870Y-74037736D01*
G75*
G02*
X167172936Y-74037736I53033J-53033D01*
G01*
X168109852Y-74974652D01*
G75*
G02*
X168109852Y-75080718I-53033J-53033D01*
G01*
X168003786Y-75186784D01*
G75*
G02*
X167897720Y-75186784I-53033J53033D01*
G01*
X166960804Y-74249868D01*
G75*
G02*
X166960804Y-74143802I53033J53033D01*
G01*
G37*
G36*
G01*
X166607251Y-74497356D02*
X166713317Y-74391290D01*
G75*
G02*
X166819383Y-74391290I53033J-53033D01*
G01*
X167756299Y-75328206D01*
G75*
G02*
X167756299Y-75434272I-53033J-53033D01*
G01*
X167650233Y-75540338D01*
G75*
G02*
X167544167Y-75540338I-53033J53033D01*
G01*
X166607251Y-74603422D01*
G75*
G02*
X166607251Y-74497356I53033J53033D01*
G01*
G37*
G36*
G01*
X166253697Y-74850909D02*
X166359763Y-74744843D01*
G75*
G02*
X166465829Y-74744843I53033J-53033D01*
G01*
X167402745Y-75681759D01*
G75*
G02*
X167402745Y-75787825I-53033J-53033D01*
G01*
X167296679Y-75893891D01*
G75*
G02*
X167190613Y-75893891I-53033J53033D01*
G01*
X166253697Y-74956975D01*
G75*
G02*
X166253697Y-74850909I53033J53033D01*
G01*
G37*
G36*
G01*
X165900144Y-75204463D02*
X166006210Y-75098397D01*
G75*
G02*
X166112276Y-75098397I53033J-53033D01*
G01*
X167049192Y-76035313D01*
G75*
G02*
X167049192Y-76141379I-53033J-53033D01*
G01*
X166943126Y-76247445D01*
G75*
G02*
X166837060Y-76247445I-53033J53033D01*
G01*
X165900144Y-75310529D01*
G75*
G02*
X165900144Y-75204463I53033J53033D01*
G01*
G37*
G36*
G01*
X165546591Y-75558016D02*
X165652657Y-75451950D01*
G75*
G02*
X165758723Y-75451950I53033J-53033D01*
G01*
X166695639Y-76388866D01*
G75*
G02*
X166695639Y-76494932I-53033J-53033D01*
G01*
X166589573Y-76600998D01*
G75*
G02*
X166483507Y-76600998I-53033J53033D01*
G01*
X165546591Y-75664082D01*
G75*
G02*
X165546591Y-75558016I53033J53033D01*
G01*
G37*
G36*
G01*
X165193037Y-75911569D02*
X165299103Y-75805503D01*
G75*
G02*
X165405169Y-75805503I53033J-53033D01*
G01*
X166342085Y-76742419D01*
G75*
G02*
X166342085Y-76848485I-53033J-53033D01*
G01*
X166236019Y-76954551D01*
G75*
G02*
X166129953Y-76954551I-53033J53033D01*
G01*
X165193037Y-76017635D01*
G75*
G02*
X165193037Y-75911569I53033J53033D01*
G01*
G37*
G36*
G01*
X164839484Y-76265123D02*
X164945550Y-76159057D01*
G75*
G02*
X165051616Y-76159057I53033J-53033D01*
G01*
X165988532Y-77095973D01*
G75*
G02*
X165988532Y-77202039I-53033J-53033D01*
G01*
X165882466Y-77308105D01*
G75*
G02*
X165776400Y-77308105I-53033J53033D01*
G01*
X164839484Y-76371189D01*
G75*
G02*
X164839484Y-76265123I53033J53033D01*
G01*
G37*
G36*
G01*
X164485930Y-76618676D02*
X164591996Y-76512610D01*
G75*
G02*
X164698062Y-76512610I53033J-53033D01*
G01*
X165634978Y-77449526D01*
G75*
G02*
X165634978Y-77555592I-53033J-53033D01*
G01*
X165528912Y-77661658D01*
G75*
G02*
X165422846Y-77661658I-53033J53033D01*
G01*
X164485930Y-76724742D01*
G75*
G02*
X164485930Y-76618676I53033J53033D01*
G01*
G37*
G36*
G01*
X164132377Y-76972230D02*
X164238443Y-76866164D01*
G75*
G02*
X164344509Y-76866164I53033J-53033D01*
G01*
X165281425Y-77803080D01*
G75*
G02*
X165281425Y-77909146I-53033J-53033D01*
G01*
X165175359Y-78015212D01*
G75*
G02*
X165069293Y-78015212I-53033J53033D01*
G01*
X164132377Y-77078296D01*
G75*
G02*
X164132377Y-76972230I53033J53033D01*
G01*
G37*
G36*
G01*
X163778824Y-77325783D02*
X163884890Y-77219717D01*
G75*
G02*
X163990956Y-77219717I53033J-53033D01*
G01*
X164927872Y-78156633D01*
G75*
G02*
X164927872Y-78262699I-53033J-53033D01*
G01*
X164821806Y-78368765D01*
G75*
G02*
X164715740Y-78368765I-53033J53033D01*
G01*
X163778824Y-77431849D01*
G75*
G02*
X163778824Y-77325783I53033J53033D01*
G01*
G37*
G36*
G01*
X163425270Y-77679336D02*
X163531336Y-77573270D01*
G75*
G02*
X163637402Y-77573270I53033J-53033D01*
G01*
X164574318Y-78510186D01*
G75*
G02*
X164574318Y-78616252I-53033J-53033D01*
G01*
X164468252Y-78722318D01*
G75*
G02*
X164362186Y-78722318I-53033J53033D01*
G01*
X163425270Y-77785402D01*
G75*
G02*
X163425270Y-77679336I53033J53033D01*
G01*
G37*
G36*
G01*
X163071717Y-78032890D02*
X163177783Y-77926824D01*
G75*
G02*
X163283849Y-77926824I53033J-53033D01*
G01*
X164220765Y-78863740D01*
G75*
G02*
X164220765Y-78969806I-53033J-53033D01*
G01*
X164114699Y-79075872D01*
G75*
G02*
X164008633Y-79075872I-53033J53033D01*
G01*
X163071717Y-78138956D01*
G75*
G02*
X163071717Y-78032890I53033J53033D01*
G01*
G37*
G36*
G01*
X162718164Y-78386443D02*
X162824230Y-78280377D01*
G75*
G02*
X162930296Y-78280377I53033J-53033D01*
G01*
X163867212Y-79217293D01*
G75*
G02*
X163867212Y-79323359I-53033J-53033D01*
G01*
X163761146Y-79429425D01*
G75*
G02*
X163655080Y-79429425I-53033J53033D01*
G01*
X162718164Y-78492509D01*
G75*
G02*
X162718164Y-78386443I53033J53033D01*
G01*
G37*
G36*
G01*
X162364610Y-78739996D02*
X162470676Y-78633930D01*
G75*
G02*
X162576742Y-78633930I53033J-53033D01*
G01*
X163513658Y-79570846D01*
G75*
G02*
X163513658Y-79676912I-53033J-53033D01*
G01*
X163407592Y-79782978D01*
G75*
G02*
X163301526Y-79782978I-53033J53033D01*
G01*
X162364610Y-78846062D01*
G75*
G02*
X162364610Y-78739996I53033J53033D01*
G01*
G37*
G36*
G01*
X162011057Y-79093550D02*
X162117123Y-78987484D01*
G75*
G02*
X162223189Y-78987484I53033J-53033D01*
G01*
X163160105Y-79924400D01*
G75*
G02*
X163160105Y-80030466I-53033J-53033D01*
G01*
X163054039Y-80136532D01*
G75*
G02*
X162947973Y-80136532I-53033J53033D01*
G01*
X162011057Y-79199616D01*
G75*
G02*
X162011057Y-79093550I53033J53033D01*
G01*
G37*
G36*
G01*
X161657503Y-79447103D02*
X161763569Y-79341037D01*
G75*
G02*
X161869635Y-79341037I53033J-53033D01*
G01*
X162806551Y-80277953D01*
G75*
G02*
X162806551Y-80384019I-53033J-53033D01*
G01*
X162700485Y-80490085D01*
G75*
G02*
X162594419Y-80490085I-53033J53033D01*
G01*
X161657503Y-79553169D01*
G75*
G02*
X161657503Y-79447103I53033J53033D01*
G01*
G37*
G36*
G01*
X161303950Y-79800657D02*
X161410016Y-79694591D01*
G75*
G02*
X161516082Y-79694591I53033J-53033D01*
G01*
X162452998Y-80631507D01*
G75*
G02*
X162452998Y-80737573I-53033J-53033D01*
G01*
X162346932Y-80843639D01*
G75*
G02*
X162240866Y-80843639I-53033J53033D01*
G01*
X161303950Y-79906723D01*
G75*
G02*
X161303950Y-79800657I53033J53033D01*
G01*
G37*
G36*
G01*
X160950397Y-80154210D02*
X161056463Y-80048144D01*
G75*
G02*
X161162529Y-80048144I53033J-53033D01*
G01*
X162099445Y-80985060D01*
G75*
G02*
X162099445Y-81091126I-53033J-53033D01*
G01*
X161993379Y-81197192D01*
G75*
G02*
X161887313Y-81197192I-53033J53033D01*
G01*
X160950397Y-80260276D01*
G75*
G02*
X160950397Y-80154210I53033J53033D01*
G01*
G37*
G36*
G01*
X160596843Y-80507763D02*
X160702909Y-80401697D01*
G75*
G02*
X160808975Y-80401697I53033J-53033D01*
G01*
X161745891Y-81338613D01*
G75*
G02*
X161745891Y-81444679I-53033J-53033D01*
G01*
X161639825Y-81550745D01*
G75*
G02*
X161533759Y-81550745I-53033J53033D01*
G01*
X160596843Y-80613829D01*
G75*
G02*
X160596843Y-80507763I53033J53033D01*
G01*
G37*
G36*
G01*
X160243290Y-80861317D02*
X160349356Y-80755251D01*
G75*
G02*
X160455422Y-80755251I53033J-53033D01*
G01*
X161392338Y-81692167D01*
G75*
G02*
X161392338Y-81798233I-53033J-53033D01*
G01*
X161286272Y-81904299D01*
G75*
G02*
X161180206Y-81904299I-53033J53033D01*
G01*
X160243290Y-80967383D01*
G75*
G02*
X160243290Y-80861317I53033J53033D01*
G01*
G37*
G36*
G01*
X159889736Y-81214870D02*
X159995802Y-81108804D01*
G75*
G02*
X160101868Y-81108804I53033J-53033D01*
G01*
X161038784Y-82045720D01*
G75*
G02*
X161038784Y-82151786I-53033J-53033D01*
G01*
X160932718Y-82257852D01*
G75*
G02*
X160826652Y-82257852I-53033J53033D01*
G01*
X159889736Y-81320936D01*
G75*
G02*
X159889736Y-81214870I53033J53033D01*
G01*
G37*
G36*
G01*
X159536183Y-81568424D02*
X159642249Y-81462358D01*
G75*
G02*
X159748315Y-81462358I53033J-53033D01*
G01*
X160685231Y-82399274D01*
G75*
G02*
X160685231Y-82505340I-53033J-53033D01*
G01*
X160579165Y-82611406D01*
G75*
G02*
X160473099Y-82611406I-53033J53033D01*
G01*
X159536183Y-81674490D01*
G75*
G02*
X159536183Y-81568424I53033J53033D01*
G01*
G37*
G36*
G01*
X159182630Y-81921977D02*
X159288696Y-81815911D01*
G75*
G02*
X159394762Y-81815911I53033J-53033D01*
G01*
X160331678Y-82752827D01*
G75*
G02*
X160331678Y-82858893I-53033J-53033D01*
G01*
X160225612Y-82964959D01*
G75*
G02*
X160119546Y-82964959I-53033J53033D01*
G01*
X159182630Y-82028043D01*
G75*
G02*
X159182630Y-81921977I53033J53033D01*
G01*
G37*
G36*
G01*
X159182630Y-85103957D02*
X160119546Y-84167041D01*
G75*
G02*
X160225612Y-84167041I53033J-53033D01*
G01*
X160331678Y-84273107D01*
G75*
G02*
X160331678Y-84379173I-53033J-53033D01*
G01*
X159394762Y-85316089D01*
G75*
G02*
X159288696Y-85316089I-53033J53033D01*
G01*
X159182630Y-85210023D01*
G75*
G02*
X159182630Y-85103957I53033J53033D01*
G01*
G37*
G36*
G01*
X159536183Y-85457510D02*
X160473099Y-84520594D01*
G75*
G02*
X160579165Y-84520594I53033J-53033D01*
G01*
X160685231Y-84626660D01*
G75*
G02*
X160685231Y-84732726I-53033J-53033D01*
G01*
X159748315Y-85669642D01*
G75*
G02*
X159642249Y-85669642I-53033J53033D01*
G01*
X159536183Y-85563576D01*
G75*
G02*
X159536183Y-85457510I53033J53033D01*
G01*
G37*
G36*
G01*
X159889736Y-85811064D02*
X160826652Y-84874148D01*
G75*
G02*
X160932718Y-84874148I53033J-53033D01*
G01*
X161038784Y-84980214D01*
G75*
G02*
X161038784Y-85086280I-53033J-53033D01*
G01*
X160101868Y-86023196D01*
G75*
G02*
X159995802Y-86023196I-53033J53033D01*
G01*
X159889736Y-85917130D01*
G75*
G02*
X159889736Y-85811064I53033J53033D01*
G01*
G37*
G36*
G01*
X160243290Y-86164617D02*
X161180206Y-85227701D01*
G75*
G02*
X161286272Y-85227701I53033J-53033D01*
G01*
X161392338Y-85333767D01*
G75*
G02*
X161392338Y-85439833I-53033J-53033D01*
G01*
X160455422Y-86376749D01*
G75*
G02*
X160349356Y-86376749I-53033J53033D01*
G01*
X160243290Y-86270683D01*
G75*
G02*
X160243290Y-86164617I53033J53033D01*
G01*
G37*
G36*
G01*
X160596843Y-86518171D02*
X161533759Y-85581255D01*
G75*
G02*
X161639825Y-85581255I53033J-53033D01*
G01*
X161745891Y-85687321D01*
G75*
G02*
X161745891Y-85793387I-53033J-53033D01*
G01*
X160808975Y-86730303D01*
G75*
G02*
X160702909Y-86730303I-53033J53033D01*
G01*
X160596843Y-86624237D01*
G75*
G02*
X160596843Y-86518171I53033J53033D01*
G01*
G37*
G36*
G01*
X160950397Y-86871724D02*
X161887313Y-85934808D01*
G75*
G02*
X161993379Y-85934808I53033J-53033D01*
G01*
X162099445Y-86040874D01*
G75*
G02*
X162099445Y-86146940I-53033J-53033D01*
G01*
X161162529Y-87083856D01*
G75*
G02*
X161056463Y-87083856I-53033J53033D01*
G01*
X160950397Y-86977790D01*
G75*
G02*
X160950397Y-86871724I53033J53033D01*
G01*
G37*
G36*
G01*
X161303950Y-87225277D02*
X162240866Y-86288361D01*
G75*
G02*
X162346932Y-86288361I53033J-53033D01*
G01*
X162452998Y-86394427D01*
G75*
G02*
X162452998Y-86500493I-53033J-53033D01*
G01*
X161516082Y-87437409D01*
G75*
G02*
X161410016Y-87437409I-53033J53033D01*
G01*
X161303950Y-87331343D01*
G75*
G02*
X161303950Y-87225277I53033J53033D01*
G01*
G37*
G36*
G01*
X161657503Y-87578831D02*
X162594419Y-86641915D01*
G75*
G02*
X162700485Y-86641915I53033J-53033D01*
G01*
X162806551Y-86747981D01*
G75*
G02*
X162806551Y-86854047I-53033J-53033D01*
G01*
X161869635Y-87790963D01*
G75*
G02*
X161763569Y-87790963I-53033J53033D01*
G01*
X161657503Y-87684897D01*
G75*
G02*
X161657503Y-87578831I53033J53033D01*
G01*
G37*
G36*
G01*
X162011057Y-87932384D02*
X162947973Y-86995468D01*
G75*
G02*
X163054039Y-86995468I53033J-53033D01*
G01*
X163160105Y-87101534D01*
G75*
G02*
X163160105Y-87207600I-53033J-53033D01*
G01*
X162223189Y-88144516D01*
G75*
G02*
X162117123Y-88144516I-53033J53033D01*
G01*
X162011057Y-88038450D01*
G75*
G02*
X162011057Y-87932384I53033J53033D01*
G01*
G37*
G36*
G01*
X162364610Y-88285938D02*
X163301526Y-87349022D01*
G75*
G02*
X163407592Y-87349022I53033J-53033D01*
G01*
X163513658Y-87455088D01*
G75*
G02*
X163513658Y-87561154I-53033J-53033D01*
G01*
X162576742Y-88498070D01*
G75*
G02*
X162470676Y-88498070I-53033J53033D01*
G01*
X162364610Y-88392004D01*
G75*
G02*
X162364610Y-88285938I53033J53033D01*
G01*
G37*
G36*
G01*
X162718164Y-88639491D02*
X163655080Y-87702575D01*
G75*
G02*
X163761146Y-87702575I53033J-53033D01*
G01*
X163867212Y-87808641D01*
G75*
G02*
X163867212Y-87914707I-53033J-53033D01*
G01*
X162930296Y-88851623D01*
G75*
G02*
X162824230Y-88851623I-53033J53033D01*
G01*
X162718164Y-88745557D01*
G75*
G02*
X162718164Y-88639491I53033J53033D01*
G01*
G37*
G36*
G01*
X163071717Y-88993044D02*
X164008633Y-88056128D01*
G75*
G02*
X164114699Y-88056128I53033J-53033D01*
G01*
X164220765Y-88162194D01*
G75*
G02*
X164220765Y-88268260I-53033J-53033D01*
G01*
X163283849Y-89205176D01*
G75*
G02*
X163177783Y-89205176I-53033J53033D01*
G01*
X163071717Y-89099110D01*
G75*
G02*
X163071717Y-88993044I53033J53033D01*
G01*
G37*
G36*
G01*
X163425270Y-89346598D02*
X164362186Y-88409682D01*
G75*
G02*
X164468252Y-88409682I53033J-53033D01*
G01*
X164574318Y-88515748D01*
G75*
G02*
X164574318Y-88621814I-53033J-53033D01*
G01*
X163637402Y-89558730D01*
G75*
G02*
X163531336Y-89558730I-53033J53033D01*
G01*
X163425270Y-89452664D01*
G75*
G02*
X163425270Y-89346598I53033J53033D01*
G01*
G37*
G36*
G01*
X163778824Y-89700151D02*
X164715740Y-88763235D01*
G75*
G02*
X164821806Y-88763235I53033J-53033D01*
G01*
X164927872Y-88869301D01*
G75*
G02*
X164927872Y-88975367I-53033J-53033D01*
G01*
X163990956Y-89912283D01*
G75*
G02*
X163884890Y-89912283I-53033J53033D01*
G01*
X163778824Y-89806217D01*
G75*
G02*
X163778824Y-89700151I53033J53033D01*
G01*
G37*
G36*
G01*
X164132377Y-90053704D02*
X165069293Y-89116788D01*
G75*
G02*
X165175359Y-89116788I53033J-53033D01*
G01*
X165281425Y-89222854D01*
G75*
G02*
X165281425Y-89328920I-53033J-53033D01*
G01*
X164344509Y-90265836D01*
G75*
G02*
X164238443Y-90265836I-53033J53033D01*
G01*
X164132377Y-90159770D01*
G75*
G02*
X164132377Y-90053704I53033J53033D01*
G01*
G37*
G36*
G01*
X164485930Y-90407258D02*
X165422846Y-89470342D01*
G75*
G02*
X165528912Y-89470342I53033J-53033D01*
G01*
X165634978Y-89576408D01*
G75*
G02*
X165634978Y-89682474I-53033J-53033D01*
G01*
X164698062Y-90619390D01*
G75*
G02*
X164591996Y-90619390I-53033J53033D01*
G01*
X164485930Y-90513324D01*
G75*
G02*
X164485930Y-90407258I53033J53033D01*
G01*
G37*
G36*
G01*
X164839484Y-90760811D02*
X165776400Y-89823895D01*
G75*
G02*
X165882466Y-89823895I53033J-53033D01*
G01*
X165988532Y-89929961D01*
G75*
G02*
X165988532Y-90036027I-53033J-53033D01*
G01*
X165051616Y-90972943D01*
G75*
G02*
X164945550Y-90972943I-53033J53033D01*
G01*
X164839484Y-90866877D01*
G75*
G02*
X164839484Y-90760811I53033J53033D01*
G01*
G37*
G36*
G01*
X165193037Y-91114365D02*
X166129953Y-90177449D01*
G75*
G02*
X166236019Y-90177449I53033J-53033D01*
G01*
X166342085Y-90283515D01*
G75*
G02*
X166342085Y-90389581I-53033J-53033D01*
G01*
X165405169Y-91326497D01*
G75*
G02*
X165299103Y-91326497I-53033J53033D01*
G01*
X165193037Y-91220431D01*
G75*
G02*
X165193037Y-91114365I53033J53033D01*
G01*
G37*
G36*
G01*
X165546591Y-91467918D02*
X166483507Y-90531002D01*
G75*
G02*
X166589573Y-90531002I53033J-53033D01*
G01*
X166695639Y-90637068D01*
G75*
G02*
X166695639Y-90743134I-53033J-53033D01*
G01*
X165758723Y-91680050D01*
G75*
G02*
X165652657Y-91680050I-53033J53033D01*
G01*
X165546591Y-91573984D01*
G75*
G02*
X165546591Y-91467918I53033J53033D01*
G01*
G37*
G36*
G01*
X165900144Y-91821471D02*
X166837060Y-90884555D01*
G75*
G02*
X166943126Y-90884555I53033J-53033D01*
G01*
X167049192Y-90990621D01*
G75*
G02*
X167049192Y-91096687I-53033J-53033D01*
G01*
X166112276Y-92033603D01*
G75*
G02*
X166006210Y-92033603I-53033J53033D01*
G01*
X165900144Y-91927537D01*
G75*
G02*
X165900144Y-91821471I53033J53033D01*
G01*
G37*
G36*
G01*
X166253697Y-92175025D02*
X167190613Y-91238109D01*
G75*
G02*
X167296679Y-91238109I53033J-53033D01*
G01*
X167402745Y-91344175D01*
G75*
G02*
X167402745Y-91450241I-53033J-53033D01*
G01*
X166465829Y-92387157D01*
G75*
G02*
X166359763Y-92387157I-53033J53033D01*
G01*
X166253697Y-92281091D01*
G75*
G02*
X166253697Y-92175025I53033J53033D01*
G01*
G37*
G36*
G01*
X166607251Y-92528578D02*
X167544167Y-91591662D01*
G75*
G02*
X167650233Y-91591662I53033J-53033D01*
G01*
X167756299Y-91697728D01*
G75*
G02*
X167756299Y-91803794I-53033J-53033D01*
G01*
X166819383Y-92740710D01*
G75*
G02*
X166713317Y-92740710I-53033J53033D01*
G01*
X166607251Y-92634644D01*
G75*
G02*
X166607251Y-92528578I53033J53033D01*
G01*
G37*
G36*
G01*
X166960804Y-92882132D02*
X167897720Y-91945216D01*
G75*
G02*
X168003786Y-91945216I53033J-53033D01*
G01*
X168109852Y-92051282D01*
G75*
G02*
X168109852Y-92157348I-53033J-53033D01*
G01*
X167172936Y-93094264D01*
G75*
G02*
X167066870Y-93094264I-53033J53033D01*
G01*
X166960804Y-92988198D01*
G75*
G02*
X166960804Y-92882132I53033J53033D01*
G01*
G37*
G36*
G01*
X167314358Y-93235685D02*
X168251274Y-92298769D01*
G75*
G02*
X168357340Y-92298769I53033J-53033D01*
G01*
X168463406Y-92404835D01*
G75*
G02*
X168463406Y-92510901I-53033J-53033D01*
G01*
X167526490Y-93447817D01*
G75*
G02*
X167420424Y-93447817I-53033J53033D01*
G01*
X167314358Y-93341751D01*
G75*
G02*
X167314358Y-93235685I53033J53033D01*
G01*
G37*
G36*
G01*
X167667911Y-93589238D02*
X168604827Y-92652322D01*
G75*
G02*
X168710893Y-92652322I53033J-53033D01*
G01*
X168816959Y-92758388D01*
G75*
G02*
X168816959Y-92864454I-53033J-53033D01*
G01*
X167880043Y-93801370D01*
G75*
G02*
X167773977Y-93801370I-53033J53033D01*
G01*
X167667911Y-93695304D01*
G75*
G02*
X167667911Y-93589238I53033J53033D01*
G01*
G37*
G36*
G01*
X170019041Y-92758388D02*
X170125107Y-92652322D01*
G75*
G02*
X170231173Y-92652322I53033J-53033D01*
G01*
X171168089Y-93589238D01*
G75*
G02*
X171168089Y-93695304I-53033J-53033D01*
G01*
X171062023Y-93801370D01*
G75*
G02*
X170955957Y-93801370I-53033J53033D01*
G01*
X170019041Y-92864454D01*
G75*
G02*
X170019041Y-92758388I53033J53033D01*
G01*
G37*
G36*
G01*
X170372594Y-92404835D02*
X170478660Y-92298769D01*
G75*
G02*
X170584726Y-92298769I53033J-53033D01*
G01*
X171521642Y-93235685D01*
G75*
G02*
X171521642Y-93341751I-53033J-53033D01*
G01*
X171415576Y-93447817D01*
G75*
G02*
X171309510Y-93447817I-53033J53033D01*
G01*
X170372594Y-92510901D01*
G75*
G02*
X170372594Y-92404835I53033J53033D01*
G01*
G37*
G36*
G01*
X170726148Y-92051282D02*
X170832214Y-91945216D01*
G75*
G02*
X170938280Y-91945216I53033J-53033D01*
G01*
X171875196Y-92882132D01*
G75*
G02*
X171875196Y-92988198I-53033J-53033D01*
G01*
X171769130Y-93094264D01*
G75*
G02*
X171663064Y-93094264I-53033J53033D01*
G01*
X170726148Y-92157348D01*
G75*
G02*
X170726148Y-92051282I53033J53033D01*
G01*
G37*
G36*
G01*
X171079701Y-91697728D02*
X171185767Y-91591662D01*
G75*
G02*
X171291833Y-91591662I53033J-53033D01*
G01*
X172228749Y-92528578D01*
G75*
G02*
X172228749Y-92634644I-53033J-53033D01*
G01*
X172122683Y-92740710D01*
G75*
G02*
X172016617Y-92740710I-53033J53033D01*
G01*
X171079701Y-91803794D01*
G75*
G02*
X171079701Y-91697728I53033J53033D01*
G01*
G37*
G36*
G01*
X171433255Y-91344175D02*
X171539321Y-91238109D01*
G75*
G02*
X171645387Y-91238109I53033J-53033D01*
G01*
X172582303Y-92175025D01*
G75*
G02*
X172582303Y-92281091I-53033J-53033D01*
G01*
X172476237Y-92387157D01*
G75*
G02*
X172370171Y-92387157I-53033J53033D01*
G01*
X171433255Y-91450241D01*
G75*
G02*
X171433255Y-91344175I53033J53033D01*
G01*
G37*
G36*
G01*
X171786808Y-90990621D02*
X171892874Y-90884555D01*
G75*
G02*
X171998940Y-90884555I53033J-53033D01*
G01*
X172935856Y-91821471D01*
G75*
G02*
X172935856Y-91927537I-53033J-53033D01*
G01*
X172829790Y-92033603D01*
G75*
G02*
X172723724Y-92033603I-53033J53033D01*
G01*
X171786808Y-91096687D01*
G75*
G02*
X171786808Y-90990621I53033J53033D01*
G01*
G37*
G36*
G01*
X172140361Y-90637068D02*
X172246427Y-90531002D01*
G75*
G02*
X172352493Y-90531002I53033J-53033D01*
G01*
X173289409Y-91467918D01*
G75*
G02*
X173289409Y-91573984I-53033J-53033D01*
G01*
X173183343Y-91680050D01*
G75*
G02*
X173077277Y-91680050I-53033J53033D01*
G01*
X172140361Y-90743134D01*
G75*
G02*
X172140361Y-90637068I53033J53033D01*
G01*
G37*
G36*
G01*
X172493915Y-90283515D02*
X172599981Y-90177449D01*
G75*
G02*
X172706047Y-90177449I53033J-53033D01*
G01*
X173642963Y-91114365D01*
G75*
G02*
X173642963Y-91220431I-53033J-53033D01*
G01*
X173536897Y-91326497D01*
G75*
G02*
X173430831Y-91326497I-53033J53033D01*
G01*
X172493915Y-90389581D01*
G75*
G02*
X172493915Y-90283515I53033J53033D01*
G01*
G37*
G36*
G01*
X172847468Y-89929961D02*
X172953534Y-89823895D01*
G75*
G02*
X173059600Y-89823895I53033J-53033D01*
G01*
X173996516Y-90760811D01*
G75*
G02*
X173996516Y-90866877I-53033J-53033D01*
G01*
X173890450Y-90972943D01*
G75*
G02*
X173784384Y-90972943I-53033J53033D01*
G01*
X172847468Y-90036027D01*
G75*
G02*
X172847468Y-89929961I53033J53033D01*
G01*
G37*
G36*
G01*
X173201022Y-89576408D02*
X173307088Y-89470342D01*
G75*
G02*
X173413154Y-89470342I53033J-53033D01*
G01*
X174350070Y-90407258D01*
G75*
G02*
X174350070Y-90513324I-53033J-53033D01*
G01*
X174244004Y-90619390D01*
G75*
G02*
X174137938Y-90619390I-53033J53033D01*
G01*
X173201022Y-89682474D01*
G75*
G02*
X173201022Y-89576408I53033J53033D01*
G01*
G37*
G36*
G01*
X173554575Y-89222854D02*
X173660641Y-89116788D01*
G75*
G02*
X173766707Y-89116788I53033J-53033D01*
G01*
X174703623Y-90053704D01*
G75*
G02*
X174703623Y-90159770I-53033J-53033D01*
G01*
X174597557Y-90265836D01*
G75*
G02*
X174491491Y-90265836I-53033J53033D01*
G01*
X173554575Y-89328920D01*
G75*
G02*
X173554575Y-89222854I53033J53033D01*
G01*
G37*
G36*
G01*
X173908128Y-88869301D02*
X174014194Y-88763235D01*
G75*
G02*
X174120260Y-88763235I53033J-53033D01*
G01*
X175057176Y-89700151D01*
G75*
G02*
X175057176Y-89806217I-53033J-53033D01*
G01*
X174951110Y-89912283D01*
G75*
G02*
X174845044Y-89912283I-53033J53033D01*
G01*
X173908128Y-88975367D01*
G75*
G02*
X173908128Y-88869301I53033J53033D01*
G01*
G37*
G36*
G01*
X174261682Y-88515748D02*
X174367748Y-88409682D01*
G75*
G02*
X174473814Y-88409682I53033J-53033D01*
G01*
X175410730Y-89346598D01*
G75*
G02*
X175410730Y-89452664I-53033J-53033D01*
G01*
X175304664Y-89558730D01*
G75*
G02*
X175198598Y-89558730I-53033J53033D01*
G01*
X174261682Y-88621814D01*
G75*
G02*
X174261682Y-88515748I53033J53033D01*
G01*
G37*
G36*
G01*
X174615235Y-88162194D02*
X174721301Y-88056128D01*
G75*
G02*
X174827367Y-88056128I53033J-53033D01*
G01*
X175764283Y-88993044D01*
G75*
G02*
X175764283Y-89099110I-53033J-53033D01*
G01*
X175658217Y-89205176D01*
G75*
G02*
X175552151Y-89205176I-53033J53033D01*
G01*
X174615235Y-88268260D01*
G75*
G02*
X174615235Y-88162194I53033J53033D01*
G01*
G37*
G36*
G01*
X174968788Y-87808641D02*
X175074854Y-87702575D01*
G75*
G02*
X175180920Y-87702575I53033J-53033D01*
G01*
X176117836Y-88639491D01*
G75*
G02*
X176117836Y-88745557I-53033J-53033D01*
G01*
X176011770Y-88851623D01*
G75*
G02*
X175905704Y-88851623I-53033J53033D01*
G01*
X174968788Y-87914707D01*
G75*
G02*
X174968788Y-87808641I53033J53033D01*
G01*
G37*
G36*
G01*
X175322342Y-87455088D02*
X175428408Y-87349022D01*
G75*
G02*
X175534474Y-87349022I53033J-53033D01*
G01*
X176471390Y-88285938D01*
G75*
G02*
X176471390Y-88392004I-53033J-53033D01*
G01*
X176365324Y-88498070D01*
G75*
G02*
X176259258Y-88498070I-53033J53033D01*
G01*
X175322342Y-87561154D01*
G75*
G02*
X175322342Y-87455088I53033J53033D01*
G01*
G37*
G36*
G01*
X175675895Y-87101534D02*
X175781961Y-86995468D01*
G75*
G02*
X175888027Y-86995468I53033J-53033D01*
G01*
X176824943Y-87932384D01*
G75*
G02*
X176824943Y-88038450I-53033J-53033D01*
G01*
X176718877Y-88144516D01*
G75*
G02*
X176612811Y-88144516I-53033J53033D01*
G01*
X175675895Y-87207600D01*
G75*
G02*
X175675895Y-87101534I53033J53033D01*
G01*
G37*
G36*
G01*
X176029449Y-86747981D02*
X176135515Y-86641915D01*
G75*
G02*
X176241581Y-86641915I53033J-53033D01*
G01*
X177178497Y-87578831D01*
G75*
G02*
X177178497Y-87684897I-53033J-53033D01*
G01*
X177072431Y-87790963D01*
G75*
G02*
X176966365Y-87790963I-53033J53033D01*
G01*
X176029449Y-86854047D01*
G75*
G02*
X176029449Y-86747981I53033J53033D01*
G01*
G37*
G36*
G01*
X176383002Y-86394427D02*
X176489068Y-86288361D01*
G75*
G02*
X176595134Y-86288361I53033J-53033D01*
G01*
X177532050Y-87225277D01*
G75*
G02*
X177532050Y-87331343I-53033J-53033D01*
G01*
X177425984Y-87437409D01*
G75*
G02*
X177319918Y-87437409I-53033J53033D01*
G01*
X176383002Y-86500493D01*
G75*
G02*
X176383002Y-86394427I53033J53033D01*
G01*
G37*
G36*
G01*
X176736555Y-86040874D02*
X176842621Y-85934808D01*
G75*
G02*
X176948687Y-85934808I53033J-53033D01*
G01*
X177885603Y-86871724D01*
G75*
G02*
X177885603Y-86977790I-53033J-53033D01*
G01*
X177779537Y-87083856D01*
G75*
G02*
X177673471Y-87083856I-53033J53033D01*
G01*
X176736555Y-86146940D01*
G75*
G02*
X176736555Y-86040874I53033J53033D01*
G01*
G37*
G36*
G01*
X177090109Y-85687321D02*
X177196175Y-85581255D01*
G75*
G02*
X177302241Y-85581255I53033J-53033D01*
G01*
X178239157Y-86518171D01*
G75*
G02*
X178239157Y-86624237I-53033J-53033D01*
G01*
X178133091Y-86730303D01*
G75*
G02*
X178027025Y-86730303I-53033J53033D01*
G01*
X177090109Y-85793387D01*
G75*
G02*
X177090109Y-85687321I53033J53033D01*
G01*
G37*
G36*
G01*
X177443662Y-85333767D02*
X177549728Y-85227701D01*
G75*
G02*
X177655794Y-85227701I53033J-53033D01*
G01*
X178592710Y-86164617D01*
G75*
G02*
X178592710Y-86270683I-53033J-53033D01*
G01*
X178486644Y-86376749D01*
G75*
G02*
X178380578Y-86376749I-53033J53033D01*
G01*
X177443662Y-85439833D01*
G75*
G02*
X177443662Y-85333767I53033J53033D01*
G01*
G37*
G36*
G01*
X177797216Y-84980214D02*
X177903282Y-84874148D01*
G75*
G02*
X178009348Y-84874148I53033J-53033D01*
G01*
X178946264Y-85811064D01*
G75*
G02*
X178946264Y-85917130I-53033J-53033D01*
G01*
X178840198Y-86023196D01*
G75*
G02*
X178734132Y-86023196I-53033J53033D01*
G01*
X177797216Y-85086280D01*
G75*
G02*
X177797216Y-84980214I53033J53033D01*
G01*
G37*
G36*
G01*
X178150769Y-84626660D02*
X178256835Y-84520594D01*
G75*
G02*
X178362901Y-84520594I53033J-53033D01*
G01*
X179299817Y-85457510D01*
G75*
G02*
X179299817Y-85563576I-53033J-53033D01*
G01*
X179193751Y-85669642D01*
G75*
G02*
X179087685Y-85669642I-53033J53033D01*
G01*
X178150769Y-84732726D01*
G75*
G02*
X178150769Y-84626660I53033J53033D01*
G01*
G37*
G36*
G01*
X178504322Y-84273107D02*
X178610388Y-84167041D01*
G75*
G02*
X178716454Y-84167041I53033J-53033D01*
G01*
X179653370Y-85103957D01*
G75*
G02*
X179653370Y-85210023I-53033J-53033D01*
G01*
X179547304Y-85316089D01*
G75*
G02*
X179441238Y-85316089I-53033J53033D01*
G01*
X178504322Y-84379173D01*
G75*
G02*
X178504322Y-84273107I53033J53033D01*
G01*
G37*
G36*
G01*
X178504322Y-82752827D02*
X179441238Y-81815911D01*
G75*
G02*
X179547304Y-81815911I53033J-53033D01*
G01*
X179653370Y-81921977D01*
G75*
G02*
X179653370Y-82028043I-53033J-53033D01*
G01*
X178716454Y-82964959D01*
G75*
G02*
X178610388Y-82964959I-53033J53033D01*
G01*
X178504322Y-82858893D01*
G75*
G02*
X178504322Y-82752827I53033J53033D01*
G01*
G37*
G36*
G01*
X178150769Y-82399274D02*
X179087685Y-81462358D01*
G75*
G02*
X179193751Y-81462358I53033J-53033D01*
G01*
X179299817Y-81568424D01*
G75*
G02*
X179299817Y-81674490I-53033J-53033D01*
G01*
X178362901Y-82611406D01*
G75*
G02*
X178256835Y-82611406I-53033J53033D01*
G01*
X178150769Y-82505340D01*
G75*
G02*
X178150769Y-82399274I53033J53033D01*
G01*
G37*
G36*
G01*
X177797216Y-82045720D02*
X178734132Y-81108804D01*
G75*
G02*
X178840198Y-81108804I53033J-53033D01*
G01*
X178946264Y-81214870D01*
G75*
G02*
X178946264Y-81320936I-53033J-53033D01*
G01*
X178009348Y-82257852D01*
G75*
G02*
X177903282Y-82257852I-53033J53033D01*
G01*
X177797216Y-82151786D01*
G75*
G02*
X177797216Y-82045720I53033J53033D01*
G01*
G37*
G36*
G01*
X177443662Y-81692167D02*
X178380578Y-80755251D01*
G75*
G02*
X178486644Y-80755251I53033J-53033D01*
G01*
X178592710Y-80861317D01*
G75*
G02*
X178592710Y-80967383I-53033J-53033D01*
G01*
X177655794Y-81904299D01*
G75*
G02*
X177549728Y-81904299I-53033J53033D01*
G01*
X177443662Y-81798233D01*
G75*
G02*
X177443662Y-81692167I53033J53033D01*
G01*
G37*
G36*
G01*
X177090109Y-81338613D02*
X178027025Y-80401697D01*
G75*
G02*
X178133091Y-80401697I53033J-53033D01*
G01*
X178239157Y-80507763D01*
G75*
G02*
X178239157Y-80613829I-53033J-53033D01*
G01*
X177302241Y-81550745D01*
G75*
G02*
X177196175Y-81550745I-53033J53033D01*
G01*
X177090109Y-81444679D01*
G75*
G02*
X177090109Y-81338613I53033J53033D01*
G01*
G37*
G36*
G01*
X176736555Y-80985060D02*
X177673471Y-80048144D01*
G75*
G02*
X177779537Y-80048144I53033J-53033D01*
G01*
X177885603Y-80154210D01*
G75*
G02*
X177885603Y-80260276I-53033J-53033D01*
G01*
X176948687Y-81197192D01*
G75*
G02*
X176842621Y-81197192I-53033J53033D01*
G01*
X176736555Y-81091126D01*
G75*
G02*
X176736555Y-80985060I53033J53033D01*
G01*
G37*
G36*
G01*
X176383002Y-80631507D02*
X177319918Y-79694591D01*
G75*
G02*
X177425984Y-79694591I53033J-53033D01*
G01*
X177532050Y-79800657D01*
G75*
G02*
X177532050Y-79906723I-53033J-53033D01*
G01*
X176595134Y-80843639D01*
G75*
G02*
X176489068Y-80843639I-53033J53033D01*
G01*
X176383002Y-80737573D01*
G75*
G02*
X176383002Y-80631507I53033J53033D01*
G01*
G37*
G36*
G01*
X176029449Y-80277953D02*
X176966365Y-79341037D01*
G75*
G02*
X177072431Y-79341037I53033J-53033D01*
G01*
X177178497Y-79447103D01*
G75*
G02*
X177178497Y-79553169I-53033J-53033D01*
G01*
X176241581Y-80490085D01*
G75*
G02*
X176135515Y-80490085I-53033J53033D01*
G01*
X176029449Y-80384019D01*
G75*
G02*
X176029449Y-80277953I53033J53033D01*
G01*
G37*
G36*
G01*
X175675895Y-79924400D02*
X176612811Y-78987484D01*
G75*
G02*
X176718877Y-78987484I53033J-53033D01*
G01*
X176824943Y-79093550D01*
G75*
G02*
X176824943Y-79199616I-53033J-53033D01*
G01*
X175888027Y-80136532D01*
G75*
G02*
X175781961Y-80136532I-53033J53033D01*
G01*
X175675895Y-80030466D01*
G75*
G02*
X175675895Y-79924400I53033J53033D01*
G01*
G37*
G36*
G01*
X175322342Y-79570846D02*
X176259258Y-78633930D01*
G75*
G02*
X176365324Y-78633930I53033J-53033D01*
G01*
X176471390Y-78739996D01*
G75*
G02*
X176471390Y-78846062I-53033J-53033D01*
G01*
X175534474Y-79782978D01*
G75*
G02*
X175428408Y-79782978I-53033J53033D01*
G01*
X175322342Y-79676912D01*
G75*
G02*
X175322342Y-79570846I53033J53033D01*
G01*
G37*
G36*
G01*
X174968788Y-79217293D02*
X175905704Y-78280377D01*
G75*
G02*
X176011770Y-78280377I53033J-53033D01*
G01*
X176117836Y-78386443D01*
G75*
G02*
X176117836Y-78492509I-53033J-53033D01*
G01*
X175180920Y-79429425D01*
G75*
G02*
X175074854Y-79429425I-53033J53033D01*
G01*
X174968788Y-79323359D01*
G75*
G02*
X174968788Y-79217293I53033J53033D01*
G01*
G37*
G36*
G01*
X174615235Y-78863740D02*
X175552151Y-77926824D01*
G75*
G02*
X175658217Y-77926824I53033J-53033D01*
G01*
X175764283Y-78032890D01*
G75*
G02*
X175764283Y-78138956I-53033J-53033D01*
G01*
X174827367Y-79075872D01*
G75*
G02*
X174721301Y-79075872I-53033J53033D01*
G01*
X174615235Y-78969806D01*
G75*
G02*
X174615235Y-78863740I53033J53033D01*
G01*
G37*
G36*
G01*
X174261682Y-78510186D02*
X175198598Y-77573270D01*
G75*
G02*
X175304664Y-77573270I53033J-53033D01*
G01*
X175410730Y-77679336D01*
G75*
G02*
X175410730Y-77785402I-53033J-53033D01*
G01*
X174473814Y-78722318D01*
G75*
G02*
X174367748Y-78722318I-53033J53033D01*
G01*
X174261682Y-78616252D01*
G75*
G02*
X174261682Y-78510186I53033J53033D01*
G01*
G37*
G36*
G01*
X173908128Y-78156633D02*
X174845044Y-77219717D01*
G75*
G02*
X174951110Y-77219717I53033J-53033D01*
G01*
X175057176Y-77325783D01*
G75*
G02*
X175057176Y-77431849I-53033J-53033D01*
G01*
X174120260Y-78368765D01*
G75*
G02*
X174014194Y-78368765I-53033J53033D01*
G01*
X173908128Y-78262699D01*
G75*
G02*
X173908128Y-78156633I53033J53033D01*
G01*
G37*
G36*
G01*
X173554575Y-77803080D02*
X174491491Y-76866164D01*
G75*
G02*
X174597557Y-76866164I53033J-53033D01*
G01*
X174703623Y-76972230D01*
G75*
G02*
X174703623Y-77078296I-53033J-53033D01*
G01*
X173766707Y-78015212D01*
G75*
G02*
X173660641Y-78015212I-53033J53033D01*
G01*
X173554575Y-77909146D01*
G75*
G02*
X173554575Y-77803080I53033J53033D01*
G01*
G37*
G36*
G01*
X173201022Y-77449526D02*
X174137938Y-76512610D01*
G75*
G02*
X174244004Y-76512610I53033J-53033D01*
G01*
X174350070Y-76618676D01*
G75*
G02*
X174350070Y-76724742I-53033J-53033D01*
G01*
X173413154Y-77661658D01*
G75*
G02*
X173307088Y-77661658I-53033J53033D01*
G01*
X173201022Y-77555592D01*
G75*
G02*
X173201022Y-77449526I53033J53033D01*
G01*
G37*
G36*
G01*
X172847468Y-77095973D02*
X173784384Y-76159057D01*
G75*
G02*
X173890450Y-76159057I53033J-53033D01*
G01*
X173996516Y-76265123D01*
G75*
G02*
X173996516Y-76371189I-53033J-53033D01*
G01*
X173059600Y-77308105D01*
G75*
G02*
X172953534Y-77308105I-53033J53033D01*
G01*
X172847468Y-77202039D01*
G75*
G02*
X172847468Y-77095973I53033J53033D01*
G01*
G37*
G36*
G01*
X172493915Y-76742419D02*
X173430831Y-75805503D01*
G75*
G02*
X173536897Y-75805503I53033J-53033D01*
G01*
X173642963Y-75911569D01*
G75*
G02*
X173642963Y-76017635I-53033J-53033D01*
G01*
X172706047Y-76954551D01*
G75*
G02*
X172599981Y-76954551I-53033J53033D01*
G01*
X172493915Y-76848485D01*
G75*
G02*
X172493915Y-76742419I53033J53033D01*
G01*
G37*
G36*
G01*
X172140361Y-76388866D02*
X173077277Y-75451950D01*
G75*
G02*
X173183343Y-75451950I53033J-53033D01*
G01*
X173289409Y-75558016D01*
G75*
G02*
X173289409Y-75664082I-53033J-53033D01*
G01*
X172352493Y-76600998D01*
G75*
G02*
X172246427Y-76600998I-53033J53033D01*
G01*
X172140361Y-76494932D01*
G75*
G02*
X172140361Y-76388866I53033J53033D01*
G01*
G37*
G36*
G01*
X171786808Y-76035313D02*
X172723724Y-75098397D01*
G75*
G02*
X172829790Y-75098397I53033J-53033D01*
G01*
X172935856Y-75204463D01*
G75*
G02*
X172935856Y-75310529I-53033J-53033D01*
G01*
X171998940Y-76247445D01*
G75*
G02*
X171892874Y-76247445I-53033J53033D01*
G01*
X171786808Y-76141379D01*
G75*
G02*
X171786808Y-76035313I53033J53033D01*
G01*
G37*
G36*
G01*
X171433255Y-75681759D02*
X172370171Y-74744843D01*
G75*
G02*
X172476237Y-74744843I53033J-53033D01*
G01*
X172582303Y-74850909D01*
G75*
G02*
X172582303Y-74956975I-53033J-53033D01*
G01*
X171645387Y-75893891D01*
G75*
G02*
X171539321Y-75893891I-53033J53033D01*
G01*
X171433255Y-75787825D01*
G75*
G02*
X171433255Y-75681759I53033J53033D01*
G01*
G37*
G36*
G01*
X171079701Y-75328206D02*
X172016617Y-74391290D01*
G75*
G02*
X172122683Y-74391290I53033J-53033D01*
G01*
X172228749Y-74497356D01*
G75*
G02*
X172228749Y-74603422I-53033J-53033D01*
G01*
X171291833Y-75540338D01*
G75*
G02*
X171185767Y-75540338I-53033J53033D01*
G01*
X171079701Y-75434272D01*
G75*
G02*
X171079701Y-75328206I53033J53033D01*
G01*
G37*
G36*
G01*
X170726148Y-74974652D02*
X171663064Y-74037736D01*
G75*
G02*
X171769130Y-74037736I53033J-53033D01*
G01*
X171875196Y-74143802D01*
G75*
G02*
X171875196Y-74249868I-53033J-53033D01*
G01*
X170938280Y-75186784D01*
G75*
G02*
X170832214Y-75186784I-53033J53033D01*
G01*
X170726148Y-75080718D01*
G75*
G02*
X170726148Y-74974652I53033J53033D01*
G01*
G37*
G36*
G01*
X170372594Y-74621099D02*
X171309510Y-73684183D01*
G75*
G02*
X171415576Y-73684183I53033J-53033D01*
G01*
X171521642Y-73790249D01*
G75*
G02*
X171521642Y-73896315I-53033J-53033D01*
G01*
X170584726Y-74833231D01*
G75*
G02*
X170478660Y-74833231I-53033J53033D01*
G01*
X170372594Y-74727165D01*
G75*
G02*
X170372594Y-74621099I53033J53033D01*
G01*
G37*
G36*
G01*
X170019041Y-74267546D02*
X170955957Y-73330630D01*
G75*
G02*
X171062023Y-73330630I53033J-53033D01*
G01*
X171168089Y-73436696D01*
G75*
G02*
X171168089Y-73542762I-53033J-53033D01*
G01*
X170231173Y-74479678D01*
G75*
G02*
X170125107Y-74479678I-53033J53033D01*
G01*
X170019041Y-74373612D01*
G75*
G02*
X170019041Y-74267546I53033J53033D01*
G01*
G37*
%TD*%
%TO.C,R1001*%
G36*
G01*
X172233000Y-140417000D02*
X171683000Y-140417000D01*
G75*
G02*
X171483000Y-140217000I0J200000D01*
G01*
X171483000Y-139817000D01*
G75*
G02*
X171683000Y-139617000I200000J0D01*
G01*
X172233000Y-139617000D01*
G75*
G02*
X172433000Y-139817000I0J-200000D01*
G01*
X172433000Y-140217000D01*
G75*
G02*
X172233000Y-140417000I-200000J0D01*
G01*
G37*
G36*
G01*
X172233000Y-138767000D02*
X171683000Y-138767000D01*
G75*
G02*
X171483000Y-138567000I0J200000D01*
G01*
X171483000Y-138167000D01*
G75*
G02*
X171683000Y-137967000I200000J0D01*
G01*
X172233000Y-137967000D01*
G75*
G02*
X172433000Y-138167000I0J-200000D01*
G01*
X172433000Y-138567000D01*
G75*
G02*
X172233000Y-138767000I-200000J0D01*
G01*
G37*
%TD*%
%TO.C,R1003*%
G36*
G01*
X175789000Y-138767000D02*
X175239000Y-138767000D01*
G75*
G02*
X175039000Y-138567000I0J200000D01*
G01*
X175039000Y-138167000D01*
G75*
G02*
X175239000Y-137967000I200000J0D01*
G01*
X175789000Y-137967000D01*
G75*
G02*
X175989000Y-138167000I0J-200000D01*
G01*
X175989000Y-138567000D01*
G75*
G02*
X175789000Y-138767000I-200000J0D01*
G01*
G37*
G36*
G01*
X175789000Y-140417000D02*
X175239000Y-140417000D01*
G75*
G02*
X175039000Y-140217000I0J200000D01*
G01*
X175039000Y-139817000D01*
G75*
G02*
X175239000Y-139617000I200000J0D01*
G01*
X175789000Y-139617000D01*
G75*
G02*
X175989000Y-139817000I0J-200000D01*
G01*
X175989000Y-140217000D01*
G75*
G02*
X175789000Y-140417000I-200000J0D01*
G01*
G37*
%TD*%
D10*
%TO.C,D1002*%
X176276000Y-143622000D03*
D11*
X177651000Y-144272000D03*
X174901000Y-144272000D03*
%TD*%
%TO.C,R1004*%
G36*
G01*
X177567000Y-140417000D02*
X177017000Y-140417000D01*
G75*
G02*
X176817000Y-140217000I0J200000D01*
G01*
X176817000Y-139817000D01*
G75*
G02*
X177017000Y-139617000I200000J0D01*
G01*
X177567000Y-139617000D01*
G75*
G02*
X177767000Y-139817000I0J-200000D01*
G01*
X177767000Y-140217000D01*
G75*
G02*
X177567000Y-140417000I-200000J0D01*
G01*
G37*
G36*
G01*
X177567000Y-138767000D02*
X177017000Y-138767000D01*
G75*
G02*
X176817000Y-138567000I0J200000D01*
G01*
X176817000Y-138167000D01*
G75*
G02*
X177017000Y-137967000I200000J0D01*
G01*
X177567000Y-137967000D01*
G75*
G02*
X177767000Y-138167000I0J-200000D01*
G01*
X177767000Y-138567000D01*
G75*
G02*
X177567000Y-138767000I-200000J0D01*
G01*
G37*
%TD*%
%TO.C,D1001*%
X170583000Y-144272000D03*
X173333000Y-144272000D03*
D10*
X171958000Y-143622000D03*
%TD*%
D12*
%TO.C,J1005*%
X141478000Y-140970000D03*
D13*
X139578000Y-134620000D03*
X138308000Y-132080000D03*
X137038000Y-134620000D03*
X135768000Y-132080000D03*
X134498000Y-134620000D03*
D12*
X131318000Y-140970000D03*
D14*
X133228000Y-132080000D03*
%TD*%
%TO.C,C2003*%
G36*
G01*
X182163000Y-134870000D02*
X182163000Y-134370000D01*
G75*
G02*
X182388000Y-134145000I225000J0D01*
G01*
X182838000Y-134145000D01*
G75*
G02*
X183063000Y-134370000I0J-225000D01*
G01*
X183063000Y-134870000D01*
G75*
G02*
X182838000Y-135095000I-225000J0D01*
G01*
X182388000Y-135095000D01*
G75*
G02*
X182163000Y-134870000I0J225000D01*
G01*
G37*
G36*
G01*
X183713000Y-134870000D02*
X183713000Y-134370000D01*
G75*
G02*
X183938000Y-134145000I225000J0D01*
G01*
X184388000Y-134145000D01*
G75*
G02*
X184613000Y-134370000I0J-225000D01*
G01*
X184613000Y-134870000D01*
G75*
G02*
X184388000Y-135095000I-225000J0D01*
G01*
X183938000Y-135095000D01*
G75*
G02*
X183713000Y-134870000I0J225000D01*
G01*
G37*
%TD*%
D15*
%TO.C,J1001*%
X212090000Y-106680000D03*
X214630000Y-106680000D03*
X212090000Y-104140000D03*
X214630000Y-104140000D03*
X212090000Y-101600000D03*
X214630000Y-101600000D03*
X212090000Y-99060000D03*
X214630000Y-99060000D03*
X212090000Y-96520000D03*
X214630000Y-96520000D03*
X212090000Y-93980000D03*
X214630000Y-93980000D03*
X212090000Y-91440000D03*
X214630000Y-91440000D03*
X212090000Y-88900000D03*
X214630000Y-88900000D03*
X212090000Y-86360000D03*
X214630000Y-86360000D03*
X212090000Y-83820000D03*
X214630000Y-83820000D03*
X212090000Y-81280000D03*
X214630000Y-81280000D03*
X212090000Y-78740000D03*
X214630000Y-78740000D03*
X212090000Y-76200000D03*
X214630000Y-76200000D03*
X212090000Y-73660000D03*
X214630000Y-73660000D03*
X212090000Y-71120000D03*
X214630000Y-71120000D03*
X212090000Y-68580000D03*
X214630000Y-68580000D03*
X212090000Y-66040000D03*
X214630000Y-66040000D03*
X212090000Y-63500000D03*
X214630000Y-63500000D03*
X212090000Y-60960000D03*
X214630000Y-60960000D03*
X212090000Y-58420000D03*
D16*
X214630000Y-58420000D03*
%TD*%
%TO.C,J1002*%
X137160000Y-58420000D03*
D15*
X134620000Y-58420000D03*
X137160000Y-60960000D03*
X134620000Y-60960000D03*
X137160000Y-63500000D03*
X134620000Y-63500000D03*
X137160000Y-66040000D03*
X134620000Y-66040000D03*
X137160000Y-68580000D03*
X134620000Y-68580000D03*
X137160000Y-71120000D03*
X134620000Y-71120000D03*
X137160000Y-73660000D03*
X134620000Y-73660000D03*
X137160000Y-76200000D03*
X134620000Y-76200000D03*
X137160000Y-78740000D03*
X134620000Y-78740000D03*
X137160000Y-81280000D03*
X134620000Y-81280000D03*
X137160000Y-83820000D03*
X134620000Y-83820000D03*
X137160000Y-86360000D03*
X134620000Y-86360000D03*
X137160000Y-88900000D03*
X134620000Y-88900000D03*
X137160000Y-91440000D03*
X134620000Y-91440000D03*
X137160000Y-93980000D03*
X134620000Y-93980000D03*
X137160000Y-96520000D03*
X134620000Y-96520000D03*
X137160000Y-99060000D03*
X134620000Y-99060000D03*
X137160000Y-101600000D03*
X134620000Y-101600000D03*
X137160000Y-104140000D03*
X134620000Y-104140000D03*
X137160000Y-106680000D03*
X134620000Y-106680000D03*
%TD*%
%TO.C,J1003*%
G36*
G01*
X146042000Y-141695000D02*
X146042000Y-140245000D01*
G75*
G02*
X146292000Y-139995000I250000J0D01*
G01*
X147492000Y-139995000D01*
G75*
G02*
X147742000Y-140245000I0J-250000D01*
G01*
X147742000Y-141695000D01*
G75*
G02*
X147492000Y-141945000I-250000J0D01*
G01*
X146292000Y-141945000D01*
G75*
G02*
X146042000Y-141695000I0J250000D01*
G01*
G37*
D17*
X149392000Y-140970000D03*
X151892000Y-140970000D03*
X154392000Y-140970000D03*
%TD*%
%TO.C,R2002*%
G36*
G01*
X182226000Y-132863000D02*
X182226000Y-132313000D01*
G75*
G02*
X182426000Y-132113000I200000J0D01*
G01*
X182826000Y-132113000D01*
G75*
G02*
X183026000Y-132313000I0J-200000D01*
G01*
X183026000Y-132863000D01*
G75*
G02*
X182826000Y-133063000I-200000J0D01*
G01*
X182426000Y-133063000D01*
G75*
G02*
X182226000Y-132863000I0J200000D01*
G01*
G37*
G36*
G01*
X183876000Y-132863000D02*
X183876000Y-132313000D01*
G75*
G02*
X184076000Y-132113000I200000J0D01*
G01*
X184476000Y-132113000D01*
G75*
G02*
X184676000Y-132313000I0J-200000D01*
G01*
X184676000Y-132863000D01*
G75*
G02*
X184476000Y-133063000I-200000J0D01*
G01*
X184076000Y-133063000D01*
G75*
G02*
X183876000Y-132863000I0J200000D01*
G01*
G37*
%TD*%
%TO.C,R2004*%
G36*
G01*
X183813000Y-136927000D02*
X183813000Y-136377000D01*
G75*
G02*
X184013000Y-136177000I200000J0D01*
G01*
X184413000Y-136177000D01*
G75*
G02*
X184613000Y-136377000I0J-200000D01*
G01*
X184613000Y-136927000D01*
G75*
G02*
X184413000Y-137127000I-200000J0D01*
G01*
X184013000Y-137127000D01*
G75*
G02*
X183813000Y-136927000I0J200000D01*
G01*
G37*
G36*
G01*
X182163000Y-136927000D02*
X182163000Y-136377000D01*
G75*
G02*
X182363000Y-136177000I200000J0D01*
G01*
X182763000Y-136177000D01*
G75*
G02*
X182963000Y-136377000I0J-200000D01*
G01*
X182963000Y-136927000D01*
G75*
G02*
X182763000Y-137127000I-200000J0D01*
G01*
X182363000Y-137127000D01*
G75*
G02*
X182163000Y-136927000I0J200000D01*
G01*
G37*
%TD*%
D18*
%TO.C,SW1001*%
X179660000Y-140766000D03*
D19*
X180920000Y-143256000D03*
X185420000Y-143256000D03*
D18*
X186670000Y-140766000D03*
%TD*%
D20*
%TO.C,J1004*%
X161976000Y-137508000D03*
X162776000Y-137508000D03*
X163576000Y-137508000D03*
X164376000Y-137508000D03*
X165176000Y-137508000D03*
D21*
X159126000Y-137608000D03*
X159126000Y-143058000D03*
X168026000Y-137608000D03*
X168026000Y-143058000D03*
D22*
X161376000Y-140208000D03*
X165776000Y-140208000D03*
%TD*%
%TO.C,C3001*%
G36*
G01*
X209100000Y-110486000D02*
X209100000Y-109986000D01*
G75*
G02*
X209325000Y-109761000I225000J0D01*
G01*
X209775000Y-109761000D01*
G75*
G02*
X210000000Y-109986000I0J-225000D01*
G01*
X210000000Y-110486000D01*
G75*
G02*
X209775000Y-110711000I-225000J0D01*
G01*
X209325000Y-110711000D01*
G75*
G02*
X209100000Y-110486000I0J225000D01*
G01*
G37*
G36*
G01*
X210650000Y-110486000D02*
X210650000Y-109986000D01*
G75*
G02*
X210875000Y-109761000I225000J0D01*
G01*
X211325000Y-109761000D01*
G75*
G02*
X211550000Y-109986000I0J-225000D01*
G01*
X211550000Y-110486000D01*
G75*
G02*
X211325000Y-110711000I-225000J0D01*
G01*
X210875000Y-110711000D01*
G75*
G02*
X210650000Y-110486000I0J225000D01*
G01*
G37*
%TD*%
D23*
%TO.C,Q3001*%
X187010000Y-118856000D03*
X188910000Y-118856000D03*
X187960000Y-116856000D03*
%TD*%
%TO.C,Q3002*%
X187960000Y-122190000D03*
X188910000Y-124190000D03*
X187010000Y-124190000D03*
%TD*%
%TO.C,R3001*%
G36*
G01*
X199919000Y-96920000D02*
X199369000Y-96920000D01*
G75*
G02*
X199169000Y-96720000I0J200000D01*
G01*
X199169000Y-96320000D01*
G75*
G02*
X199369000Y-96120000I200000J0D01*
G01*
X199919000Y-96120000D01*
G75*
G02*
X200119000Y-96320000I0J-200000D01*
G01*
X200119000Y-96720000D01*
G75*
G02*
X199919000Y-96920000I-200000J0D01*
G01*
G37*
G36*
G01*
X199919000Y-95270000D02*
X199369000Y-95270000D01*
G75*
G02*
X199169000Y-95070000I0J200000D01*
G01*
X199169000Y-94670000D01*
G75*
G02*
X199369000Y-94470000I200000J0D01*
G01*
X199919000Y-94470000D01*
G75*
G02*
X200119000Y-94670000I0J-200000D01*
G01*
X200119000Y-95070000D01*
G75*
G02*
X199919000Y-95270000I-200000J0D01*
G01*
G37*
%TD*%
%TO.C,R3002*%
G36*
G01*
X197379000Y-95270000D02*
X196829000Y-95270000D01*
G75*
G02*
X196629000Y-95070000I0J200000D01*
G01*
X196629000Y-94670000D01*
G75*
G02*
X196829000Y-94470000I200000J0D01*
G01*
X197379000Y-94470000D01*
G75*
G02*
X197579000Y-94670000I0J-200000D01*
G01*
X197579000Y-95070000D01*
G75*
G02*
X197379000Y-95270000I-200000J0D01*
G01*
G37*
G36*
G01*
X197379000Y-96920000D02*
X196829000Y-96920000D01*
G75*
G02*
X196629000Y-96720000I0J200000D01*
G01*
X196629000Y-96320000D01*
G75*
G02*
X196829000Y-96120000I200000J0D01*
G01*
X197379000Y-96120000D01*
G75*
G02*
X197579000Y-96320000I0J-200000D01*
G01*
X197579000Y-96720000D01*
G75*
G02*
X197379000Y-96920000I-200000J0D01*
G01*
G37*
%TD*%
%TO.C,R3003*%
G36*
G01*
X187685000Y-113518000D02*
X188235000Y-113518000D01*
G75*
G02*
X188435000Y-113718000I0J-200000D01*
G01*
X188435000Y-114118000D01*
G75*
G02*
X188235000Y-114318000I-200000J0D01*
G01*
X187685000Y-114318000D01*
G75*
G02*
X187485000Y-114118000I0J200000D01*
G01*
X187485000Y-113718000D01*
G75*
G02*
X187685000Y-113518000I200000J0D01*
G01*
G37*
G36*
G01*
X187685000Y-111868000D02*
X188235000Y-111868000D01*
G75*
G02*
X188435000Y-112068000I0J-200000D01*
G01*
X188435000Y-112468000D01*
G75*
G02*
X188235000Y-112668000I-200000J0D01*
G01*
X187685000Y-112668000D01*
G75*
G02*
X187485000Y-112468000I0J200000D01*
G01*
X187485000Y-112068000D01*
G75*
G02*
X187685000Y-111868000I200000J0D01*
G01*
G37*
%TD*%
%TO.C,R3004*%
G36*
G01*
X191432000Y-120187000D02*
X191982000Y-120187000D01*
G75*
G02*
X192182000Y-120387000I0J-200000D01*
G01*
X192182000Y-120787000D01*
G75*
G02*
X191982000Y-120987000I-200000J0D01*
G01*
X191432000Y-120987000D01*
G75*
G02*
X191232000Y-120787000I0J200000D01*
G01*
X191232000Y-120387000D01*
G75*
G02*
X191432000Y-120187000I200000J0D01*
G01*
G37*
G36*
G01*
X191432000Y-121837000D02*
X191982000Y-121837000D01*
G75*
G02*
X192182000Y-122037000I0J-200000D01*
G01*
X192182000Y-122437000D01*
G75*
G02*
X191982000Y-122637000I-200000J0D01*
G01*
X191432000Y-122637000D01*
G75*
G02*
X191232000Y-122437000I0J200000D01*
G01*
X191232000Y-122037000D01*
G75*
G02*
X191432000Y-121837000I200000J0D01*
G01*
G37*
%TD*%
%TO.C,C2005*%
G36*
G01*
X183343000Y-107192000D02*
X183343000Y-107692000D01*
G75*
G02*
X183118000Y-107917000I-225000J0D01*
G01*
X182668000Y-107917000D01*
G75*
G02*
X182443000Y-107692000I0J225000D01*
G01*
X182443000Y-107192000D01*
G75*
G02*
X182668000Y-106967000I225000J0D01*
G01*
X183118000Y-106967000D01*
G75*
G02*
X183343000Y-107192000I0J-225000D01*
G01*
G37*
G36*
G01*
X181793000Y-107192000D02*
X181793000Y-107692000D01*
G75*
G02*
X181568000Y-107917000I-225000J0D01*
G01*
X181118000Y-107917000D01*
G75*
G02*
X180893000Y-107692000I0J225000D01*
G01*
X180893000Y-107192000D01*
G75*
G02*
X181118000Y-106967000I225000J0D01*
G01*
X181568000Y-106967000D01*
G75*
G02*
X181793000Y-107192000I0J-225000D01*
G01*
G37*
%TD*%
%TO.C,D2001*%
G36*
G01*
X155515000Y-109413000D02*
X154365000Y-109413000D01*
G75*
G02*
X154115000Y-109163000I0J250000D01*
G01*
X154115000Y-108063000D01*
G75*
G02*
X154365000Y-107813000I250000J0D01*
G01*
X155515000Y-107813000D01*
G75*
G02*
X155765000Y-108063000I0J-250000D01*
G01*
X155765000Y-109163000D01*
G75*
G02*
X155515000Y-109413000I-250000J0D01*
G01*
G37*
G36*
G01*
X155515000Y-106563000D02*
X154365000Y-106563000D01*
G75*
G02*
X154115000Y-106313000I0J250000D01*
G01*
X154115000Y-105213000D01*
G75*
G02*
X154365000Y-104963000I250000J0D01*
G01*
X155515000Y-104963000D01*
G75*
G02*
X155765000Y-105213000I0J-250000D01*
G01*
X155765000Y-106313000D01*
G75*
G02*
X155515000Y-106563000I-250000J0D01*
G01*
G37*
%TD*%
D24*
%TO.C,J3001*%
X198374000Y-133350000D03*
D25*
X198374000Y-132080000D03*
X199644000Y-133350000D03*
X199644000Y-132080000D03*
X200914000Y-133350000D03*
X200914000Y-132080000D03*
X202184000Y-133350000D03*
X202184000Y-132080000D03*
X203454000Y-133350000D03*
X203454000Y-132080000D03*
X204724000Y-133350000D03*
X204724000Y-132080000D03*
X205994000Y-133350000D03*
X205994000Y-132080000D03*
X207264000Y-133350000D03*
X207264000Y-132080000D03*
X208534000Y-133350000D03*
X208534000Y-132080000D03*
X209804000Y-133350000D03*
X209804000Y-132080000D03*
%TD*%
%TO.C,L3001*%
G36*
G01*
X151198500Y-100955002D02*
X151198500Y-99704998D01*
G75*
G02*
X151448498Y-99455000I249998J0D01*
G01*
X152073502Y-99455000D01*
G75*
G02*
X152323500Y-99704998I0J-249998D01*
G01*
X152323500Y-100955002D01*
G75*
G02*
X152073502Y-101205000I-249998J0D01*
G01*
X151448498Y-101205000D01*
G75*
G02*
X151198500Y-100955002I0J249998D01*
G01*
G37*
G36*
G01*
X154123500Y-100955002D02*
X154123500Y-99704998D01*
G75*
G02*
X154373498Y-99455000I249998J0D01*
G01*
X154998502Y-99455000D01*
G75*
G02*
X155248500Y-99704998I0J-249998D01*
G01*
X155248500Y-100955002D01*
G75*
G02*
X154998502Y-101205000I-249998J0D01*
G01*
X154373498Y-101205000D01*
G75*
G02*
X154123500Y-100955002I0J249998D01*
G01*
G37*
%TD*%
%TO.C,R2003*%
G36*
G01*
X158263000Y-108984000D02*
X157713000Y-108984000D01*
G75*
G02*
X157513000Y-108784000I0J200000D01*
G01*
X157513000Y-108384000D01*
G75*
G02*
X157713000Y-108184000I200000J0D01*
G01*
X158263000Y-108184000D01*
G75*
G02*
X158463000Y-108384000I0J-200000D01*
G01*
X158463000Y-108784000D01*
G75*
G02*
X158263000Y-108984000I-200000J0D01*
G01*
G37*
G36*
G01*
X158263000Y-107334000D02*
X157713000Y-107334000D01*
G75*
G02*
X157513000Y-107134000I0J200000D01*
G01*
X157513000Y-106734000D01*
G75*
G02*
X157713000Y-106534000I200000J0D01*
G01*
X158263000Y-106534000D01*
G75*
G02*
X158463000Y-106734000I0J-200000D01*
G01*
X158463000Y-107134000D01*
G75*
G02*
X158263000Y-107334000I-200000J0D01*
G01*
G37*
%TD*%
%TO.C,R2005*%
G36*
G01*
X170389000Y-125455000D02*
X170389000Y-126005000D01*
G75*
G02*
X170189000Y-126205000I-200000J0D01*
G01*
X169789000Y-126205000D01*
G75*
G02*
X169589000Y-126005000I0J200000D01*
G01*
X169589000Y-125455000D01*
G75*
G02*
X169789000Y-125255000I200000J0D01*
G01*
X170189000Y-125255000D01*
G75*
G02*
X170389000Y-125455000I0J-200000D01*
G01*
G37*
G36*
G01*
X168739000Y-125455000D02*
X168739000Y-126005000D01*
G75*
G02*
X168539000Y-126205000I-200000J0D01*
G01*
X168139000Y-126205000D01*
G75*
G02*
X167939000Y-126005000I0J200000D01*
G01*
X167939000Y-125455000D01*
G75*
G02*
X168139000Y-125255000I200000J0D01*
G01*
X168539000Y-125255000D01*
G75*
G02*
X168739000Y-125455000I0J-200000D01*
G01*
G37*
%TD*%
%TO.C,R2006*%
G36*
G01*
X174161000Y-114321000D02*
X174161000Y-113771000D01*
G75*
G02*
X174361000Y-113571000I200000J0D01*
G01*
X174761000Y-113571000D01*
G75*
G02*
X174961000Y-113771000I0J-200000D01*
G01*
X174961000Y-114321000D01*
G75*
G02*
X174761000Y-114521000I-200000J0D01*
G01*
X174361000Y-114521000D01*
G75*
G02*
X174161000Y-114321000I0J200000D01*
G01*
G37*
G36*
G01*
X172511000Y-114321000D02*
X172511000Y-113771000D01*
G75*
G02*
X172711000Y-113571000I200000J0D01*
G01*
X173111000Y-113571000D01*
G75*
G02*
X173311000Y-113771000I0J-200000D01*
G01*
X173311000Y-114321000D01*
G75*
G02*
X173111000Y-114521000I-200000J0D01*
G01*
X172711000Y-114521000D01*
G75*
G02*
X172511000Y-114321000I0J200000D01*
G01*
G37*
%TD*%
D26*
%TO.C,U2001*%
X179029000Y-116410000D03*
X178379000Y-116410000D03*
X177729000Y-116410000D03*
X177079000Y-116410000D03*
X177079000Y-119810000D03*
X177729000Y-119810000D03*
X178379000Y-119810000D03*
X179029000Y-119810000D03*
%TD*%
%TO.C,C3002*%
G36*
G01*
X155198000Y-90749000D02*
X155698000Y-90749000D01*
G75*
G02*
X155923000Y-90974000I0J-225000D01*
G01*
X155923000Y-91424000D01*
G75*
G02*
X155698000Y-91649000I-225000J0D01*
G01*
X155198000Y-91649000D01*
G75*
G02*
X154973000Y-91424000I0J225000D01*
G01*
X154973000Y-90974000D01*
G75*
G02*
X155198000Y-90749000I225000J0D01*
G01*
G37*
G36*
G01*
X155198000Y-89199000D02*
X155698000Y-89199000D01*
G75*
G02*
X155923000Y-89424000I0J-225000D01*
G01*
X155923000Y-89874000D01*
G75*
G02*
X155698000Y-90099000I-225000J0D01*
G01*
X155198000Y-90099000D01*
G75*
G02*
X154973000Y-89874000I0J225000D01*
G01*
X154973000Y-89424000D01*
G75*
G02*
X155198000Y-89199000I225000J0D01*
G01*
G37*
%TD*%
%TO.C,C3003*%
G36*
G01*
X156206000Y-75901000D02*
X155706000Y-75901000D01*
G75*
G02*
X155481000Y-75676000I0J225000D01*
G01*
X155481000Y-75226000D01*
G75*
G02*
X155706000Y-75001000I225000J0D01*
G01*
X156206000Y-75001000D01*
G75*
G02*
X156431000Y-75226000I0J-225000D01*
G01*
X156431000Y-75676000D01*
G75*
G02*
X156206000Y-75901000I-225000J0D01*
G01*
G37*
G36*
G01*
X156206000Y-74351000D02*
X155706000Y-74351000D01*
G75*
G02*
X155481000Y-74126000I0J225000D01*
G01*
X155481000Y-73676000D01*
G75*
G02*
X155706000Y-73451000I225000J0D01*
G01*
X156206000Y-73451000D01*
G75*
G02*
X156431000Y-73676000I0J-225000D01*
G01*
X156431000Y-74126000D01*
G75*
G02*
X156206000Y-74351000I-225000J0D01*
G01*
G37*
%TD*%
%TO.C,C3005*%
G36*
G01*
X168727000Y-71878000D02*
X168727000Y-71378000D01*
G75*
G02*
X168952000Y-71153000I225000J0D01*
G01*
X169402000Y-71153000D01*
G75*
G02*
X169627000Y-71378000I0J-225000D01*
G01*
X169627000Y-71878000D01*
G75*
G02*
X169402000Y-72103000I-225000J0D01*
G01*
X168952000Y-72103000D01*
G75*
G02*
X168727000Y-71878000I0J225000D01*
G01*
G37*
G36*
G01*
X167177000Y-71878000D02*
X167177000Y-71378000D01*
G75*
G02*
X167402000Y-71153000I225000J0D01*
G01*
X167852000Y-71153000D01*
G75*
G02*
X168077000Y-71378000I0J-225000D01*
G01*
X168077000Y-71878000D01*
G75*
G02*
X167852000Y-72103000I-225000J0D01*
G01*
X167402000Y-72103000D01*
G75*
G02*
X167177000Y-71878000I0J225000D01*
G01*
G37*
%TD*%
%TO.C,C3006*%
G36*
G01*
X179320000Y-94443000D02*
X178820000Y-94443000D01*
G75*
G02*
X178595000Y-94218000I0J225000D01*
G01*
X178595000Y-93768000D01*
G75*
G02*
X178820000Y-93543000I225000J0D01*
G01*
X179320000Y-93543000D01*
G75*
G02*
X179545000Y-93768000I0J-225000D01*
G01*
X179545000Y-94218000D01*
G75*
G02*
X179320000Y-94443000I-225000J0D01*
G01*
G37*
G36*
G01*
X179320000Y-92893000D02*
X178820000Y-92893000D01*
G75*
G02*
X178595000Y-92668000I0J225000D01*
G01*
X178595000Y-92218000D01*
G75*
G02*
X178820000Y-91993000I225000J0D01*
G01*
X179320000Y-91993000D01*
G75*
G02*
X179545000Y-92218000I0J-225000D01*
G01*
X179545000Y-92668000D01*
G75*
G02*
X179320000Y-92893000I-225000J0D01*
G01*
G37*
%TD*%
%TO.C,C3007*%
G36*
G01*
X180665000Y-76196000D02*
X180665000Y-75696000D01*
G75*
G02*
X180890000Y-75471000I225000J0D01*
G01*
X181340000Y-75471000D01*
G75*
G02*
X181565000Y-75696000I0J-225000D01*
G01*
X181565000Y-76196000D01*
G75*
G02*
X181340000Y-76421000I-225000J0D01*
G01*
X180890000Y-76421000D01*
G75*
G02*
X180665000Y-76196000I0J225000D01*
G01*
G37*
G36*
G01*
X179115000Y-76196000D02*
X179115000Y-75696000D01*
G75*
G02*
X179340000Y-75471000I225000J0D01*
G01*
X179790000Y-75471000D01*
G75*
G02*
X180015000Y-75696000I0J-225000D01*
G01*
X180015000Y-76196000D01*
G75*
G02*
X179790000Y-76421000I-225000J0D01*
G01*
X179340000Y-76421000D01*
G75*
G02*
X179115000Y-76196000I0J225000D01*
G01*
G37*
%TD*%
%TO.C,R3006*%
G36*
G01*
X206789000Y-62304000D02*
X207739000Y-62304000D01*
G75*
G02*
X207989000Y-62554000I0J-250000D01*
G01*
X207989000Y-63054000D01*
G75*
G02*
X207739000Y-63304000I-250000J0D01*
G01*
X206789000Y-63304000D01*
G75*
G02*
X206539000Y-63054000I0J250000D01*
G01*
X206539000Y-62554000D01*
G75*
G02*
X206789000Y-62304000I250000J0D01*
G01*
G37*
G36*
G01*
X206789000Y-64204000D02*
X207739000Y-64204000D01*
G75*
G02*
X207989000Y-64454000I0J-250000D01*
G01*
X207989000Y-64954000D01*
G75*
G02*
X207739000Y-65204000I-250000J0D01*
G01*
X206789000Y-65204000D01*
G75*
G02*
X206539000Y-64954000I0J250000D01*
G01*
X206539000Y-64454000D01*
G75*
G02*
X206789000Y-64204000I250000J0D01*
G01*
G37*
%TD*%
%TO.C,C2006*%
G36*
G01*
X195322000Y-118827000D02*
X194822000Y-118827000D01*
G75*
G02*
X194597000Y-118602000I0J225000D01*
G01*
X194597000Y-118152000D01*
G75*
G02*
X194822000Y-117927000I225000J0D01*
G01*
X195322000Y-117927000D01*
G75*
G02*
X195547000Y-118152000I0J-225000D01*
G01*
X195547000Y-118602000D01*
G75*
G02*
X195322000Y-118827000I-225000J0D01*
G01*
G37*
G36*
G01*
X195322000Y-117277000D02*
X194822000Y-117277000D01*
G75*
G02*
X194597000Y-117052000I0J225000D01*
G01*
X194597000Y-116602000D01*
G75*
G02*
X194822000Y-116377000I225000J0D01*
G01*
X195322000Y-116377000D01*
G75*
G02*
X195547000Y-116602000I0J-225000D01*
G01*
X195547000Y-117052000D01*
G75*
G02*
X195322000Y-117277000I-225000J0D01*
G01*
G37*
%TD*%
%TO.C,C2007*%
G36*
G01*
X175002000Y-119335000D02*
X174502000Y-119335000D01*
G75*
G02*
X174277000Y-119110000I0J225000D01*
G01*
X174277000Y-118660000D01*
G75*
G02*
X174502000Y-118435000I225000J0D01*
G01*
X175002000Y-118435000D01*
G75*
G02*
X175227000Y-118660000I0J-225000D01*
G01*
X175227000Y-119110000D01*
G75*
G02*
X175002000Y-119335000I-225000J0D01*
G01*
G37*
G36*
G01*
X175002000Y-117785000D02*
X174502000Y-117785000D01*
G75*
G02*
X174277000Y-117560000I0J225000D01*
G01*
X174277000Y-117110000D01*
G75*
G02*
X174502000Y-116885000I225000J0D01*
G01*
X175002000Y-116885000D01*
G75*
G02*
X175227000Y-117110000I0J-225000D01*
G01*
X175227000Y-117560000D01*
G75*
G02*
X175002000Y-117785000I-225000J0D01*
G01*
G37*
%TD*%
D27*
%TO.C,Y2003*%
X182836000Y-110414000D03*
X177336000Y-110414000D03*
X177336000Y-113614000D03*
X182836000Y-113614000D03*
%TD*%
%TO.C,U3003*%
G36*
G01*
X211051000Y-112943000D02*
X211351000Y-112943000D01*
G75*
G02*
X211501000Y-113093000I0J-150000D01*
G01*
X211501000Y-114843000D01*
G75*
G02*
X211351000Y-114993000I-150000J0D01*
G01*
X211051000Y-114993000D01*
G75*
G02*
X210901000Y-114843000I0J150000D01*
G01*
X210901000Y-113093000D01*
G75*
G02*
X211051000Y-112943000I150000J0D01*
G01*
G37*
G36*
G01*
X209781000Y-112943000D02*
X210081000Y-112943000D01*
G75*
G02*
X210231000Y-113093000I0J-150000D01*
G01*
X210231000Y-114843000D01*
G75*
G02*
X210081000Y-114993000I-150000J0D01*
G01*
X209781000Y-114993000D01*
G75*
G02*
X209631000Y-114843000I0J150000D01*
G01*
X209631000Y-113093000D01*
G75*
G02*
X209781000Y-112943000I150000J0D01*
G01*
G37*
G36*
G01*
X208511000Y-112943000D02*
X208811000Y-112943000D01*
G75*
G02*
X208961000Y-113093000I0J-150000D01*
G01*
X208961000Y-114843000D01*
G75*
G02*
X208811000Y-114993000I-150000J0D01*
G01*
X208511000Y-114993000D01*
G75*
G02*
X208361000Y-114843000I0J150000D01*
G01*
X208361000Y-113093000D01*
G75*
G02*
X208511000Y-112943000I150000J0D01*
G01*
G37*
G36*
G01*
X207241000Y-112943000D02*
X207541000Y-112943000D01*
G75*
G02*
X207691000Y-113093000I0J-150000D01*
G01*
X207691000Y-114843000D01*
G75*
G02*
X207541000Y-114993000I-150000J0D01*
G01*
X207241000Y-114993000D01*
G75*
G02*
X207091000Y-114843000I0J150000D01*
G01*
X207091000Y-113093000D01*
G75*
G02*
X207241000Y-112943000I150000J0D01*
G01*
G37*
G36*
G01*
X205971000Y-112943000D02*
X206271000Y-112943000D01*
G75*
G02*
X206421000Y-113093000I0J-150000D01*
G01*
X206421000Y-114843000D01*
G75*
G02*
X206271000Y-114993000I-150000J0D01*
G01*
X205971000Y-114993000D01*
G75*
G02*
X205821000Y-114843000I0J150000D01*
G01*
X205821000Y-113093000D01*
G75*
G02*
X205971000Y-112943000I150000J0D01*
G01*
G37*
G36*
G01*
X204701000Y-112943000D02*
X205001000Y-112943000D01*
G75*
G02*
X205151000Y-113093000I0J-150000D01*
G01*
X205151000Y-114843000D01*
G75*
G02*
X205001000Y-114993000I-150000J0D01*
G01*
X204701000Y-114993000D01*
G75*
G02*
X204551000Y-114843000I0J150000D01*
G01*
X204551000Y-113093000D01*
G75*
G02*
X204701000Y-112943000I150000J0D01*
G01*
G37*
G36*
G01*
X203431000Y-112943000D02*
X203731000Y-112943000D01*
G75*
G02*
X203881000Y-113093000I0J-150000D01*
G01*
X203881000Y-114843000D01*
G75*
G02*
X203731000Y-114993000I-150000J0D01*
G01*
X203431000Y-114993000D01*
G75*
G02*
X203281000Y-114843000I0J150000D01*
G01*
X203281000Y-113093000D01*
G75*
G02*
X203431000Y-112943000I150000J0D01*
G01*
G37*
G36*
G01*
X202161000Y-112943000D02*
X202461000Y-112943000D01*
G75*
G02*
X202611000Y-113093000I0J-150000D01*
G01*
X202611000Y-114843000D01*
G75*
G02*
X202461000Y-114993000I-150000J0D01*
G01*
X202161000Y-114993000D01*
G75*
G02*
X202011000Y-114843000I0J150000D01*
G01*
X202011000Y-113093000D01*
G75*
G02*
X202161000Y-112943000I150000J0D01*
G01*
G37*
G36*
G01*
X200891000Y-112943000D02*
X201191000Y-112943000D01*
G75*
G02*
X201341000Y-113093000I0J-150000D01*
G01*
X201341000Y-114843000D01*
G75*
G02*
X201191000Y-114993000I-150000J0D01*
G01*
X200891000Y-114993000D01*
G75*
G02*
X200741000Y-114843000I0J150000D01*
G01*
X200741000Y-113093000D01*
G75*
G02*
X200891000Y-112943000I150000J0D01*
G01*
G37*
G36*
G01*
X199621000Y-112943000D02*
X199921000Y-112943000D01*
G75*
G02*
X200071000Y-113093000I0J-150000D01*
G01*
X200071000Y-114843000D01*
G75*
G02*
X199921000Y-114993000I-150000J0D01*
G01*
X199621000Y-114993000D01*
G75*
G02*
X199471000Y-114843000I0J150000D01*
G01*
X199471000Y-113093000D01*
G75*
G02*
X199621000Y-112943000I150000J0D01*
G01*
G37*
G36*
G01*
X198351000Y-112943000D02*
X198651000Y-112943000D01*
G75*
G02*
X198801000Y-113093000I0J-150000D01*
G01*
X198801000Y-114843000D01*
G75*
G02*
X198651000Y-114993000I-150000J0D01*
G01*
X198351000Y-114993000D01*
G75*
G02*
X198201000Y-114843000I0J150000D01*
G01*
X198201000Y-113093000D01*
G75*
G02*
X198351000Y-112943000I150000J0D01*
G01*
G37*
G36*
G01*
X197081000Y-112943000D02*
X197381000Y-112943000D01*
G75*
G02*
X197531000Y-113093000I0J-150000D01*
G01*
X197531000Y-114843000D01*
G75*
G02*
X197381000Y-114993000I-150000J0D01*
G01*
X197081000Y-114993000D01*
G75*
G02*
X196931000Y-114843000I0J150000D01*
G01*
X196931000Y-113093000D01*
G75*
G02*
X197081000Y-112943000I150000J0D01*
G01*
G37*
G36*
G01*
X197081000Y-122243000D02*
X197381000Y-122243000D01*
G75*
G02*
X197531000Y-122393000I0J-150000D01*
G01*
X197531000Y-124143000D01*
G75*
G02*
X197381000Y-124293000I-150000J0D01*
G01*
X197081000Y-124293000D01*
G75*
G02*
X196931000Y-124143000I0J150000D01*
G01*
X196931000Y-122393000D01*
G75*
G02*
X197081000Y-122243000I150000J0D01*
G01*
G37*
G36*
G01*
X198351000Y-122243000D02*
X198651000Y-122243000D01*
G75*
G02*
X198801000Y-122393000I0J-150000D01*
G01*
X198801000Y-124143000D01*
G75*
G02*
X198651000Y-124293000I-150000J0D01*
G01*
X198351000Y-124293000D01*
G75*
G02*
X198201000Y-124143000I0J150000D01*
G01*
X198201000Y-122393000D01*
G75*
G02*
X198351000Y-122243000I150000J0D01*
G01*
G37*
G36*
G01*
X199621000Y-122243000D02*
X199921000Y-122243000D01*
G75*
G02*
X200071000Y-122393000I0J-150000D01*
G01*
X200071000Y-124143000D01*
G75*
G02*
X199921000Y-124293000I-150000J0D01*
G01*
X199621000Y-124293000D01*
G75*
G02*
X199471000Y-124143000I0J150000D01*
G01*
X199471000Y-122393000D01*
G75*
G02*
X199621000Y-122243000I150000J0D01*
G01*
G37*
G36*
G01*
X200891000Y-122243000D02*
X201191000Y-122243000D01*
G75*
G02*
X201341000Y-122393000I0J-150000D01*
G01*
X201341000Y-124143000D01*
G75*
G02*
X201191000Y-124293000I-150000J0D01*
G01*
X200891000Y-124293000D01*
G75*
G02*
X200741000Y-124143000I0J150000D01*
G01*
X200741000Y-122393000D01*
G75*
G02*
X200891000Y-122243000I150000J0D01*
G01*
G37*
G36*
G01*
X202161000Y-122243000D02*
X202461000Y-122243000D01*
G75*
G02*
X202611000Y-122393000I0J-150000D01*
G01*
X202611000Y-124143000D01*
G75*
G02*
X202461000Y-124293000I-150000J0D01*
G01*
X202161000Y-124293000D01*
G75*
G02*
X202011000Y-124143000I0J150000D01*
G01*
X202011000Y-122393000D01*
G75*
G02*
X202161000Y-122243000I150000J0D01*
G01*
G37*
G36*
G01*
X203431000Y-122243000D02*
X203731000Y-122243000D01*
G75*
G02*
X203881000Y-122393000I0J-150000D01*
G01*
X203881000Y-124143000D01*
G75*
G02*
X203731000Y-124293000I-150000J0D01*
G01*
X203431000Y-124293000D01*
G75*
G02*
X203281000Y-124143000I0J150000D01*
G01*
X203281000Y-122393000D01*
G75*
G02*
X203431000Y-122243000I150000J0D01*
G01*
G37*
G36*
G01*
X204701000Y-122243000D02*
X205001000Y-122243000D01*
G75*
G02*
X205151000Y-122393000I0J-150000D01*
G01*
X205151000Y-124143000D01*
G75*
G02*
X205001000Y-124293000I-150000J0D01*
G01*
X204701000Y-124293000D01*
G75*
G02*
X204551000Y-124143000I0J150000D01*
G01*
X204551000Y-122393000D01*
G75*
G02*
X204701000Y-122243000I150000J0D01*
G01*
G37*
G36*
G01*
X205971000Y-122243000D02*
X206271000Y-122243000D01*
G75*
G02*
X206421000Y-122393000I0J-150000D01*
G01*
X206421000Y-124143000D01*
G75*
G02*
X206271000Y-124293000I-150000J0D01*
G01*
X205971000Y-124293000D01*
G75*
G02*
X205821000Y-124143000I0J150000D01*
G01*
X205821000Y-122393000D01*
G75*
G02*
X205971000Y-122243000I150000J0D01*
G01*
G37*
G36*
G01*
X207241000Y-122243000D02*
X207541000Y-122243000D01*
G75*
G02*
X207691000Y-122393000I0J-150000D01*
G01*
X207691000Y-124143000D01*
G75*
G02*
X207541000Y-124293000I-150000J0D01*
G01*
X207241000Y-124293000D01*
G75*
G02*
X207091000Y-124143000I0J150000D01*
G01*
X207091000Y-122393000D01*
G75*
G02*
X207241000Y-122243000I150000J0D01*
G01*
G37*
G36*
G01*
X208511000Y-122243000D02*
X208811000Y-122243000D01*
G75*
G02*
X208961000Y-122393000I0J-150000D01*
G01*
X208961000Y-124143000D01*
G75*
G02*
X208811000Y-124293000I-150000J0D01*
G01*
X208511000Y-124293000D01*
G75*
G02*
X208361000Y-124143000I0J150000D01*
G01*
X208361000Y-122393000D01*
G75*
G02*
X208511000Y-122243000I150000J0D01*
G01*
G37*
G36*
G01*
X209781000Y-122243000D02*
X210081000Y-122243000D01*
G75*
G02*
X210231000Y-122393000I0J-150000D01*
G01*
X210231000Y-124143000D01*
G75*
G02*
X210081000Y-124293000I-150000J0D01*
G01*
X209781000Y-124293000D01*
G75*
G02*
X209631000Y-124143000I0J150000D01*
G01*
X209631000Y-122393000D01*
G75*
G02*
X209781000Y-122243000I150000J0D01*
G01*
G37*
G36*
G01*
X211051000Y-122243000D02*
X211351000Y-122243000D01*
G75*
G02*
X211501000Y-122393000I0J-150000D01*
G01*
X211501000Y-124143000D01*
G75*
G02*
X211351000Y-124293000I-150000J0D01*
G01*
X211051000Y-124293000D01*
G75*
G02*
X210901000Y-124143000I0J150000D01*
G01*
X210901000Y-122393000D01*
G75*
G02*
X211051000Y-122243000I150000J0D01*
G01*
G37*
%TD*%
D28*
%TO.C,C2004*%
X160528000Y-106984800D03*
X160528000Y-100711000D03*
%TD*%
%TO.C,R3007*%
G36*
G01*
X152148001Y-135845000D02*
X151598001Y-135845000D01*
G75*
G02*
X151398001Y-135645000I0J200000D01*
G01*
X151398001Y-135245000D01*
G75*
G02*
X151598001Y-135045000I200000J0D01*
G01*
X152148001Y-135045000D01*
G75*
G02*
X152348001Y-135245000I0J-200000D01*
G01*
X152348001Y-135645000D01*
G75*
G02*
X152148001Y-135845000I-200000J0D01*
G01*
G37*
G36*
G01*
X152148001Y-134195000D02*
X151598001Y-134195000D01*
G75*
G02*
X151398001Y-133995000I0J200000D01*
G01*
X151398001Y-133595000D01*
G75*
G02*
X151598001Y-133395000I200000J0D01*
G01*
X152148001Y-133395000D01*
G75*
G02*
X152348001Y-133595000I0J-200000D01*
G01*
X152348001Y-133995000D01*
G75*
G02*
X152148001Y-134195000I-200000J0D01*
G01*
G37*
%TD*%
%TO.C,R3008*%
G36*
G01*
X152167000Y-130886001D02*
X151617000Y-130886001D01*
G75*
G02*
X151417000Y-130686001I0J200000D01*
G01*
X151417000Y-130286001D01*
G75*
G02*
X151617000Y-130086001I200000J0D01*
G01*
X152167000Y-130086001D01*
G75*
G02*
X152367000Y-130286001I0J-200000D01*
G01*
X152367000Y-130686001D01*
G75*
G02*
X152167000Y-130886001I-200000J0D01*
G01*
G37*
G36*
G01*
X152167000Y-132536001D02*
X151617000Y-132536001D01*
G75*
G02*
X151417000Y-132336001I0J200000D01*
G01*
X151417000Y-131936001D01*
G75*
G02*
X151617000Y-131736001I200000J0D01*
G01*
X152167000Y-131736001D01*
G75*
G02*
X152367000Y-131936001I0J-200000D01*
G01*
X152367000Y-132336001D01*
G75*
G02*
X152167000Y-132536001I-200000J0D01*
G01*
G37*
%TD*%
D29*
%TO.C,Q3003*%
X146340999Y-118808999D03*
X146340999Y-116908999D03*
X144340999Y-117858999D03*
%TD*%
%TO.C,R3009*%
G36*
G01*
X147807000Y-116568000D02*
X148357000Y-116568000D01*
G75*
G02*
X148557000Y-116768000I0J-200000D01*
G01*
X148557000Y-117168000D01*
G75*
G02*
X148357000Y-117368000I-200000J0D01*
G01*
X147807000Y-117368000D01*
G75*
G02*
X147607000Y-117168000I0J200000D01*
G01*
X147607000Y-116768000D01*
G75*
G02*
X147807000Y-116568000I200000J0D01*
G01*
G37*
G36*
G01*
X147807000Y-118218000D02*
X148357000Y-118218000D01*
G75*
G02*
X148557000Y-118418000I0J-200000D01*
G01*
X148557000Y-118818000D01*
G75*
G02*
X148357000Y-119018000I-200000J0D01*
G01*
X147807000Y-119018000D01*
G75*
G02*
X147607000Y-118818000I0J200000D01*
G01*
X147607000Y-118418000D01*
G75*
G02*
X147807000Y-118218000I200000J0D01*
G01*
G37*
%TD*%
%TO.C,R3010*%
G36*
G01*
X142769000Y-117431000D02*
X142219000Y-117431000D01*
G75*
G02*
X142019000Y-117231000I0J200000D01*
G01*
X142019000Y-116831000D01*
G75*
G02*
X142219000Y-116631000I200000J0D01*
G01*
X142769000Y-116631000D01*
G75*
G02*
X142969000Y-116831000I0J-200000D01*
G01*
X142969000Y-117231000D01*
G75*
G02*
X142769000Y-117431000I-200000J0D01*
G01*
G37*
G36*
G01*
X142769000Y-119081000D02*
X142219000Y-119081000D01*
G75*
G02*
X142019000Y-118881000I0J200000D01*
G01*
X142019000Y-118481000D01*
G75*
G02*
X142219000Y-118281000I200000J0D01*
G01*
X142769000Y-118281000D01*
G75*
G02*
X142969000Y-118481000I0J-200000D01*
G01*
X142969000Y-118881000D01*
G75*
G02*
X142769000Y-119081000I-200000J0D01*
G01*
G37*
%TD*%
D26*
%TO.C,U3002*%
X167173000Y-119810000D03*
X167823000Y-119810000D03*
X168473000Y-119810000D03*
X169123000Y-119810000D03*
X169123000Y-116410000D03*
X168473000Y-116410000D03*
X167823000Y-116410000D03*
X167173000Y-116410000D03*
%TD*%
M02*
