M48
; DRILL file {KiCad 5.1.9+dfsg1-1} date Mon May 17 22:01:14 2021
; FORMAT={-:-/ absolute / inch / decimal}
; #@! TF.CreationDate,2021-05-17T22:01:14+02:00
; #@! TF.GenerationSoftware,Kicad,Pcbnew,5.1.9+dfsg1-1
; #@! TF.FileFunction,Plated,1,2,PTH
FMAT,2
INCH
T1C0.0157
T2C0.0236
T3C0.0256
T4C0.0299
T5C0.0374
T6C0.0390
T7C0.0394
T8C0.0512
%
G90
G05
T1
X5.48Y-2.78
X5.52Y-2.81
X5.54Y-4.67
X5.56Y-2.84
X5.58Y-4.98
X5.59Y-3.9
X5.59Y-3.95
X5.61Y-2.8685
X5.65Y-2.98
X5.6685Y-3.1185
X5.73Y-3.08
X5.73Y-3.85
X5.7437Y-3.8
X5.75Y-5.05
X5.7515Y-3.6977
X5.76Y-4.45
X5.7637Y-3.1781
X5.7637Y-3.1378
X5.7862Y-3.0142
X5.8Y-4.34
X5.83Y-4.86
X5.8437Y-3.04
X5.8485Y-3.6328
X5.88Y-5.29
X5.9085Y-3.194
X5.92Y-3.37
X5.9371Y-3.2504
X5.9859Y-3.4937
X6.0059Y-3.7558
X6.0059Y-3.83
X6.0137Y-3.6276
X6.0292Y-5.0796
X6.0301Y-4.9747
X6.0661Y-3.7208
X6.1Y-4.91
X6.16Y-3.74
X6.1698Y-3.4802
X6.18Y-3.43
X6.2Y-5.24
X6.247Y-3.064
X6.27Y-2.89
X6.2786Y-2.9668
X6.3Y-4.5
X6.3Y-4.68
X6.35Y-4.36
X6.4Y-4.84
X6.41Y-2.77
X6.45Y-3.7049
X6.5Y-4.68
X6.58Y-5.02
X6.6Y-2.76
X6.61Y-4.89
X6.66Y-2.76
X6.72Y-5.08
X6.72Y-5.6
X6.73Y-3.77
X6.73Y-3.91
X6.73Y-4.57
X6.77Y-5.19
X6.78Y-3.77
X6.8058Y-3.8815
X6.81Y-4.39
X6.82Y-3.75
X6.82Y-4.05
X6.82Y-4.68
X6.87Y-4.05
X6.8742Y-5.2105
X6.88Y-4.23
X6.88Y-4.57
X6.89Y-3.75
X6.89Y-5.6
X6.91Y-5.13
X6.92Y-3.71
X6.92Y-4.05
X6.96Y-3.59
X6.99Y-3.56
X7.02Y-3.02
X7.02Y-4.89
X7.0348Y-5.2348
X7.05Y-3.6
X7.06Y-4.84
X7.06Y-5.38
X7.11Y-4.86
X7.14Y-3.72
X7.14Y-3.94
X7.16Y-2.38
X7.16Y-3.24
X7.19Y-2.99
X7.19Y-3.36
X7.2185Y-3.184
X7.22Y-3.13
X7.22Y-2.48
X7.25Y-2.44
X7.26Y-3.22
X7.26Y-4.74
X7.27Y-5.12
X7.29Y-2.41
X7.3Y-3.62
X7.3015Y-3.7998
X7.31Y-2.86
X7.3185Y-2.5099
X7.36Y-4.74
X7.36Y-4.95
X7.37Y-4.28
X7.3785Y-3.8
X7.38Y-3.65
X7.3915Y-2.8948
X7.45Y-3.41
X7.4502Y-2.6598
X7.49Y-4.48
X7.49Y-5.13
X7.5Y-2.66
X7.5Y-3.45
X7.53Y-5.02
X7.54Y-3.17
X7.54Y-3.3
X7.5494Y-4.6794
X7.55Y-2.81
X7.55Y-3.12
X7.5509Y-3.6991
X7.6Y-3.1017
X7.6007Y-2.8263
X7.65Y-2.9637
X7.65Y-2.8361
X7.68Y-2.72
X7.68Y-3.3815
X7.71Y-2.9815
X7.7173Y-2.854
X7.75Y-2.75
X7.75Y-3.0033
X7.7828Y-3.0318
X7.79Y-2.47
X7.81Y-4.4
X7.8182Y-3.0682
X7.82Y-2.55
X7.85Y-3.57
X7.87Y-4.4
X7.89Y-3.54
X7.9185Y-2.8794
X7.9185Y-3.05
X7.92Y-3.7394
X7.92Y-4.4
X7.9277Y-3.6823
X7.97Y-3.0
X7.97Y-4.4
X7.9727Y-2.8617
X7.98Y-3.41
X7.98Y-3.54
X8.01Y-4.4
X8.03Y-3.25
X8.0317Y-3.8925
X8.06Y-4.4
X8.0623Y-2.7869
X8.0678Y-3.9082
X8.09Y-3.4215
X8.1001Y-2.7757
X8.1191Y-4.4009
X8.13Y-3.51
X8.16Y-4.4
X8.17Y-3.48
X8.21Y-4.4
X8.24Y-4.12
T2
X6.32Y-3.965
X6.32Y-4.212
T3
X7.81Y-5.2
X7.81Y-5.25
X7.86Y-5.2
X7.86Y-5.25
X7.91Y-5.2
X7.91Y-5.25
X7.96Y-5.2
X7.96Y-5.25
X8.01Y-5.2
X8.01Y-5.25
X8.06Y-5.2
X8.06Y-5.25
X8.11Y-5.2
X8.11Y-5.25
X8.16Y-5.2
X8.16Y-5.25
X8.21Y-5.2
X8.21Y-5.25
X8.26Y-5.2
X8.26Y-5.25
T4
X5.2452Y-5.2
X5.2952Y-5.3
X5.3452Y-5.2
X5.3952Y-5.3
X5.4452Y-5.2
X5.4952Y-5.3
T5
X5.7831Y-5.55
X5.8816Y-5.55
X5.98Y-5.55
X6.0784Y-5.55
T6
X7.1228Y-5.64
X7.3Y-5.64
T7
X5.3Y-2.3
X5.3Y-2.4
X5.3Y-2.5
X5.3Y-2.6
X5.3Y-2.7
X5.3Y-2.8
X5.3Y-2.9
X5.3Y-3.0
X5.3Y-3.1
X5.3Y-3.2
X5.3Y-3.3
X5.3Y-3.4
X5.3Y-3.5
X5.3Y-3.6
X5.3Y-3.7
X5.3Y-3.8
X5.3Y-3.9
X5.3Y-4.0
X5.3Y-4.1
X5.3Y-4.2
X5.4Y-2.3
X5.4Y-2.4
X5.4Y-2.5
X5.4Y-2.6
X5.4Y-2.7
X5.4Y-2.8
X5.4Y-2.9
X5.4Y-3.0
X5.4Y-3.1
X5.4Y-3.2
X5.4Y-3.3
X5.4Y-3.4
X5.4Y-3.5
X5.4Y-3.6
X5.4Y-3.7
X5.4Y-3.8
X5.4Y-3.9
X5.4Y-4.0
X5.4Y-4.1
X5.4Y-4.2
X8.35Y-2.3
X8.35Y-2.4
X8.35Y-2.5
X8.35Y-2.6
X8.35Y-2.7
X8.35Y-2.8
X8.35Y-2.9
X8.35Y-3.0
X8.35Y-3.1
X8.35Y-3.2
X8.35Y-3.3
X8.35Y-3.4
X8.35Y-3.5
X8.35Y-3.6
X8.35Y-3.7
X8.35Y-3.8
X8.35Y-3.9
X8.35Y-4.0
X8.35Y-4.1
X8.35Y-4.2
X8.45Y-2.3
X8.45Y-2.4
X8.45Y-2.5
X8.45Y-2.6
X8.45Y-2.7
X8.45Y-2.8
X8.45Y-2.9
X8.45Y-3.0
X8.45Y-3.1
X8.45Y-3.2
X8.45Y-3.3
X8.45Y-3.4
X8.45Y-3.5
X8.45Y-3.6
X8.45Y-3.7
X8.45Y-3.8
X8.45Y-3.9
X8.45Y-4.0
X8.45Y-4.1
X8.45Y-4.2
T8
X7.0732Y-5.542
X7.3492Y-5.542
T0
M30
