%TF.GenerationSoftware,KiCad,Pcbnew,5.1.9+dfsg1-1*%
%TF.CreationDate,2021-05-17T22:01:10+02:00*%
%TF.ProjectId,PIC32MXCubeV1,50494333-324d-4584-9375-626556312e6b,rev?*%
%TF.SameCoordinates,Original*%
%TF.FileFunction,Soldermask,Bot*%
%TF.FilePolarity,Negative*%
%FSLAX46Y46*%
G04 Gerber Fmt 4.6, Leading zero omitted, Abs format (unit mm)*
G04 Created by KiCad (PCBNEW 5.1.9+dfsg1-1) date 2021-05-17 22:01:10*
%MOMM*%
%LPD*%
G01*
G04 APERTURE LIST*
%ADD10C,3.250000*%
%ADD11C,1.520000*%
%ADD12R,1.520000X1.520000*%
%ADD13R,2.540000X2.540000*%
%ADD14O,1.700000X1.700000*%
%ADD15R,1.700000X1.700000*%
%ADD16O,1.700000X1.950000*%
%ADD17R,1.560000X0.400000*%
%ADD18R,0.900000X0.800000*%
%ADD19C,2.100000*%
%ADD20C,1.750000*%
%ADD21C,1.000000*%
%ADD22R,4.500000X2.000000*%
%ADD23R,1.000000X1.000000*%
%ADD24O,1.000000X1.000000*%
%ADD25C,1.500000*%
G04 APERTURE END LIST*
%TO.C,R3005*%
G36*
G01*
X160191000Y-94255000D02*
X160191000Y-93705000D01*
G75*
G02*
X160391000Y-93505000I200000J0D01*
G01*
X160791000Y-93505000D01*
G75*
G02*
X160991000Y-93705000I0J-200000D01*
G01*
X160991000Y-94255000D01*
G75*
G02*
X160791000Y-94455000I-200000J0D01*
G01*
X160391000Y-94455000D01*
G75*
G02*
X160191000Y-94255000I0J200000D01*
G01*
G37*
G36*
G01*
X158541000Y-94255000D02*
X158541000Y-93705000D01*
G75*
G02*
X158741000Y-93505000I200000J0D01*
G01*
X159141000Y-93505000D01*
G75*
G02*
X159341000Y-93705000I0J-200000D01*
G01*
X159341000Y-94255000D01*
G75*
G02*
X159141000Y-94455000I-200000J0D01*
G01*
X158741000Y-94455000D01*
G75*
G02*
X158541000Y-94255000I0J200000D01*
G01*
G37*
%TD*%
D10*
%TO.C,J1005*%
X141478000Y-140970000D03*
D11*
X139578000Y-134620000D03*
X138308000Y-132080000D03*
X137038000Y-134620000D03*
X135768000Y-132080000D03*
X134498000Y-134620000D03*
D10*
X131318000Y-140970000D03*
D12*
X133228000Y-132080000D03*
%TD*%
D13*
%TO.C,Y2002*%
X175514000Y-78232000D03*
X170434000Y-78232000D03*
X170434000Y-83312000D03*
X175514000Y-83312000D03*
%TD*%
%TO.C,C2001*%
G36*
G01*
X180385000Y-86610000D02*
X180385000Y-86110000D01*
G75*
G02*
X180610000Y-85885000I225000J0D01*
G01*
X181060000Y-85885000D01*
G75*
G02*
X181285000Y-86110000I0J-225000D01*
G01*
X181285000Y-86610000D01*
G75*
G02*
X181060000Y-86835000I-225000J0D01*
G01*
X180610000Y-86835000D01*
G75*
G02*
X180385000Y-86610000I0J225000D01*
G01*
G37*
G36*
G01*
X181935000Y-86610000D02*
X181935000Y-86110000D01*
G75*
G02*
X182160000Y-85885000I225000J0D01*
G01*
X182610000Y-85885000D01*
G75*
G02*
X182835000Y-86110000I0J-225000D01*
G01*
X182835000Y-86610000D01*
G75*
G02*
X182610000Y-86835000I-225000J0D01*
G01*
X182160000Y-86835000D01*
G75*
G02*
X181935000Y-86610000I0J225000D01*
G01*
G37*
%TD*%
%TO.C,C2002*%
G36*
G01*
X163492000Y-86110000D02*
X163492000Y-86610000D01*
G75*
G02*
X163267000Y-86835000I-225000J0D01*
G01*
X162817000Y-86835000D01*
G75*
G02*
X162592000Y-86610000I0J225000D01*
G01*
X162592000Y-86110000D01*
G75*
G02*
X162817000Y-85885000I225000J0D01*
G01*
X163267000Y-85885000D01*
G75*
G02*
X163492000Y-86110000I0J-225000D01*
G01*
G37*
G36*
G01*
X165042000Y-86110000D02*
X165042000Y-86610000D01*
G75*
G02*
X164817000Y-86835000I-225000J0D01*
G01*
X164367000Y-86835000D01*
G75*
G02*
X164142000Y-86610000I0J225000D01*
G01*
X164142000Y-86110000D01*
G75*
G02*
X164367000Y-85885000I225000J0D01*
G01*
X164817000Y-85885000D01*
G75*
G02*
X165042000Y-86110000I0J-225000D01*
G01*
G37*
%TD*%
D14*
%TO.C,J1001*%
X212090000Y-106680000D03*
X214630000Y-106680000D03*
X212090000Y-104140000D03*
X214630000Y-104140000D03*
X212090000Y-101600000D03*
X214630000Y-101600000D03*
X212090000Y-99060000D03*
X214630000Y-99060000D03*
X212090000Y-96520000D03*
X214630000Y-96520000D03*
X212090000Y-93980000D03*
X214630000Y-93980000D03*
X212090000Y-91440000D03*
X214630000Y-91440000D03*
X212090000Y-88900000D03*
X214630000Y-88900000D03*
X212090000Y-86360000D03*
X214630000Y-86360000D03*
X212090000Y-83820000D03*
X214630000Y-83820000D03*
X212090000Y-81280000D03*
X214630000Y-81280000D03*
X212090000Y-78740000D03*
X214630000Y-78740000D03*
X212090000Y-76200000D03*
X214630000Y-76200000D03*
X212090000Y-73660000D03*
X214630000Y-73660000D03*
X212090000Y-71120000D03*
X214630000Y-71120000D03*
X212090000Y-68580000D03*
X214630000Y-68580000D03*
X212090000Y-66040000D03*
X214630000Y-66040000D03*
X212090000Y-63500000D03*
X214630000Y-63500000D03*
X212090000Y-60960000D03*
X214630000Y-60960000D03*
X212090000Y-58420000D03*
D15*
X214630000Y-58420000D03*
%TD*%
%TO.C,J1002*%
X137160000Y-58420000D03*
D14*
X134620000Y-58420000D03*
X137160000Y-60960000D03*
X134620000Y-60960000D03*
X137160000Y-63500000D03*
X134620000Y-63500000D03*
X137160000Y-66040000D03*
X134620000Y-66040000D03*
X137160000Y-68580000D03*
X134620000Y-68580000D03*
X137160000Y-71120000D03*
X134620000Y-71120000D03*
X137160000Y-73660000D03*
X134620000Y-73660000D03*
X137160000Y-76200000D03*
X134620000Y-76200000D03*
X137160000Y-78740000D03*
X134620000Y-78740000D03*
X137160000Y-81280000D03*
X134620000Y-81280000D03*
X137160000Y-83820000D03*
X134620000Y-83820000D03*
X137160000Y-86360000D03*
X134620000Y-86360000D03*
X137160000Y-88900000D03*
X134620000Y-88900000D03*
X137160000Y-91440000D03*
X134620000Y-91440000D03*
X137160000Y-93980000D03*
X134620000Y-93980000D03*
X137160000Y-96520000D03*
X134620000Y-96520000D03*
X137160000Y-99060000D03*
X134620000Y-99060000D03*
X137160000Y-101600000D03*
X134620000Y-101600000D03*
X137160000Y-104140000D03*
X134620000Y-104140000D03*
X137160000Y-106680000D03*
X134620000Y-106680000D03*
%TD*%
%TO.C,J1003*%
G36*
G01*
X146042000Y-141695000D02*
X146042000Y-140245000D01*
G75*
G02*
X146292000Y-139995000I250000J0D01*
G01*
X147492000Y-139995000D01*
G75*
G02*
X147742000Y-140245000I0J-250000D01*
G01*
X147742000Y-141695000D01*
G75*
G02*
X147492000Y-141945000I-250000J0D01*
G01*
X146292000Y-141945000D01*
G75*
G02*
X146042000Y-141695000I0J250000D01*
G01*
G37*
D16*
X149392000Y-140970000D03*
X151892000Y-140970000D03*
X154392000Y-140970000D03*
%TD*%
%TO.C,R2001*%
G36*
G01*
X171495000Y-90191000D02*
X171495000Y-89641000D01*
G75*
G02*
X171695000Y-89441000I200000J0D01*
G01*
X172095000Y-89441000D01*
G75*
G02*
X172295000Y-89641000I0J-200000D01*
G01*
X172295000Y-90191000D01*
G75*
G02*
X172095000Y-90391000I-200000J0D01*
G01*
X171695000Y-90391000D01*
G75*
G02*
X171495000Y-90191000I0J200000D01*
G01*
G37*
G36*
G01*
X173145000Y-90191000D02*
X173145000Y-89641000D01*
G75*
G02*
X173345000Y-89441000I200000J0D01*
G01*
X173745000Y-89441000D01*
G75*
G02*
X173945000Y-89641000I0J-200000D01*
G01*
X173945000Y-90191000D01*
G75*
G02*
X173745000Y-90391000I-200000J0D01*
G01*
X173345000Y-90391000D01*
G75*
G02*
X173145000Y-90191000I0J200000D01*
G01*
G37*
%TD*%
D17*
%TO.C,U2002*%
X152320000Y-87086000D03*
X152320000Y-86436000D03*
X152320000Y-85776000D03*
X152320000Y-85126000D03*
X155020000Y-85126000D03*
X155020000Y-85776000D03*
X155020000Y-86436000D03*
X155020000Y-87086000D03*
%TD*%
D18*
%TO.C,U2003*%
X155718000Y-92390000D03*
X155718000Y-90490000D03*
X157718000Y-91440000D03*
%TD*%
D19*
%TO.C,SW1001*%
X179660000Y-140766000D03*
D20*
X180920000Y-143256000D03*
X185420000Y-143256000D03*
D19*
X186670000Y-140766000D03*
%TD*%
D21*
%TO.C,J1004*%
X161376000Y-140208000D03*
X165776000Y-140208000D03*
%TD*%
D22*
%TO.C,Y2001*%
X176970000Y-86360000D03*
X168470000Y-86360000D03*
%TD*%
D23*
%TO.C,J3001*%
X198374000Y-133350000D03*
D24*
X198374000Y-132080000D03*
X199644000Y-133350000D03*
X199644000Y-132080000D03*
X200914000Y-133350000D03*
X200914000Y-132080000D03*
X202184000Y-133350000D03*
X202184000Y-132080000D03*
X203454000Y-133350000D03*
X203454000Y-132080000D03*
X204724000Y-133350000D03*
X204724000Y-132080000D03*
X205994000Y-133350000D03*
X205994000Y-132080000D03*
X207264000Y-133350000D03*
X207264000Y-132080000D03*
X208534000Y-133350000D03*
X208534000Y-132080000D03*
X209804000Y-133350000D03*
X209804000Y-132080000D03*
%TD*%
D25*
%TO.C,C2004*%
X160528000Y-106984800D03*
X160528000Y-100711000D03*
%TD*%
M02*
