%TF.GenerationSoftware,KiCad,Pcbnew,5.1.9+dfsg1-1*%
%TF.CreationDate,2021-04-28T20:37:39+02:00*%
%TF.ProjectId,Power_Board-2021,506f7765-725f-4426-9f61-72642d323032,rev?*%
%TF.SameCoordinates,Original*%
%TF.FileFunction,Legend,Bot*%
%TF.FilePolarity,Positive*%
%FSLAX46Y46*%
G04 Gerber Fmt 4.6, Leading zero omitted, Abs format (unit mm)*
G04 Created by KiCad (PCBNEW 5.1.9+dfsg1-1) date 2021-04-28 20:37:39*
%MOMM*%
%LPD*%
G01*
G04 APERTURE LIST*
%ADD10C,0.120000*%
%ADD11C,0.150000*%
G04 APERTURE END LIST*
D10*
%TO.C,C2002*%
X173710000Y-107985000D02*
X173710000Y-116045000D01*
X169190000Y-107985000D02*
X173710000Y-107985000D01*
X169190000Y-116045000D02*
X169190000Y-107985000D01*
%TO.C,C2006*%
X162280000Y-95410000D02*
X162280000Y-103470000D01*
X162280000Y-103470000D02*
X157760000Y-103470000D01*
X157760000Y-103470000D02*
X157760000Y-95410000D01*
%TO.C,C2008*%
X163475000Y-103470000D02*
X163475000Y-95410000D01*
X167995000Y-103470000D02*
X163475000Y-103470000D01*
X167995000Y-95410000D02*
X167995000Y-103470000D01*
%TO.C,C2010*%
X156720000Y-99206267D02*
X156720000Y-98913733D01*
X155700000Y-99206267D02*
X155700000Y-98913733D01*
%TO.C,C2011*%
X153795000Y-99206267D02*
X153795000Y-98913733D01*
X154815000Y-99206267D02*
X154815000Y-98913733D01*
%TO.C,C2012*%
X169190000Y-88105000D02*
X169190000Y-80045000D01*
X169190000Y-80045000D02*
X173710000Y-80045000D01*
X173710000Y-80045000D02*
X173710000Y-88105000D01*
%TO.C,C2016*%
X173710000Y-66835000D02*
X173710000Y-74895000D01*
X173710000Y-74895000D02*
X169190000Y-74895000D01*
X169190000Y-74895000D02*
X169190000Y-66835000D01*
%TO.C,C2017*%
X163475000Y-74895000D02*
X163475000Y-66835000D01*
X167995000Y-74895000D02*
X163475000Y-74895000D01*
X167995000Y-66835000D02*
X167995000Y-74895000D01*
%TO.C,C2018*%
X162280000Y-66835000D02*
X162280000Y-74895000D01*
X162280000Y-74895000D02*
X157760000Y-74895000D01*
X157760000Y-74895000D02*
X157760000Y-66835000D01*
%TO.C,C2020*%
X153160000Y-71266267D02*
X153160000Y-70973733D01*
X154180000Y-71266267D02*
X154180000Y-70973733D01*
%TO.C,C2021*%
X156720000Y-71266267D02*
X156720000Y-70973733D01*
X155700000Y-71266267D02*
X155700000Y-70973733D01*
%TO.C,C2027*%
X205460000Y-95982500D02*
X205460000Y-104042500D01*
X205460000Y-104042500D02*
X200940000Y-104042500D01*
X200940000Y-104042500D02*
X200940000Y-95982500D01*
%TO.C,C2028*%
X211175000Y-96045000D02*
X211175000Y-104105000D01*
X211175000Y-104105000D02*
X206655000Y-104105000D01*
X206655000Y-104105000D02*
X206655000Y-96045000D01*
%TO.C,C2029*%
X195225000Y-104105000D02*
X195225000Y-96045000D01*
X199745000Y-104105000D02*
X195225000Y-104105000D01*
X199745000Y-96045000D02*
X199745000Y-104105000D01*
%TO.C,C2031*%
X190625000Y-99841267D02*
X190625000Y-99548733D01*
X191645000Y-99841267D02*
X191645000Y-99548733D01*
%TO.C,C2032*%
X194185000Y-99841267D02*
X194185000Y-99548733D01*
X193165000Y-99841267D02*
X193165000Y-99548733D01*
%TO.C,C2033*%
X210540000Y-80680000D02*
X210540000Y-88740000D01*
X206020000Y-80680000D02*
X210540000Y-80680000D01*
X206020000Y-88740000D02*
X206020000Y-80680000D01*
%TO.C,C2037*%
X195225000Y-74895000D02*
X195225000Y-66835000D01*
X199745000Y-74895000D02*
X195225000Y-74895000D01*
X199745000Y-66835000D02*
X199745000Y-74895000D01*
%TO.C,C2038*%
X205460000Y-66835000D02*
X205460000Y-74895000D01*
X205460000Y-74895000D02*
X200940000Y-74895000D01*
X200940000Y-74895000D02*
X200940000Y-66835000D01*
%TO.C,C2039*%
X206655000Y-74895000D02*
X206655000Y-66835000D01*
X211175000Y-74895000D02*
X206655000Y-74895000D01*
X211175000Y-66835000D02*
X211175000Y-74895000D01*
%TO.C,C2041*%
X191645000Y-70631267D02*
X191645000Y-70338733D01*
X190625000Y-70631267D02*
X190625000Y-70338733D01*
%TO.C,C2042*%
X193165000Y-70631267D02*
X193165000Y-70338733D01*
X194185000Y-70631267D02*
X194185000Y-70338733D01*
%TO.C,R2001*%
X169432500Y-105790276D02*
X169432500Y-106299724D01*
X168387500Y-105790276D02*
X168387500Y-106299724D01*
%TO.C,R2002*%
X166115276Y-105297500D02*
X166624724Y-105297500D01*
X166115276Y-104252500D02*
X166624724Y-104252500D01*
%TO.C,R2003*%
X166624724Y-107837500D02*
X166115276Y-107837500D01*
X166624724Y-106792500D02*
X166115276Y-106792500D01*
%TO.C,R2005*%
X168387500Y-77850276D02*
X168387500Y-78359724D01*
X169432500Y-77850276D02*
X169432500Y-78359724D01*
%TO.C,R2006*%
X166115276Y-77357500D02*
X166624724Y-77357500D01*
X166115276Y-76312500D02*
X166624724Y-76312500D01*
%TO.C,R2007*%
X166624724Y-79897500D02*
X166115276Y-79897500D01*
X166624724Y-78852500D02*
X166115276Y-78852500D01*
%TO.C,R2009*%
X205754500Y-105917276D02*
X205754500Y-106426724D01*
X204709500Y-105917276D02*
X204709500Y-106426724D01*
%TO.C,R2010*%
X202183276Y-104633500D02*
X202692724Y-104633500D01*
X202183276Y-105678500D02*
X202692724Y-105678500D01*
%TO.C,R2011*%
X202692724Y-107710500D02*
X202183276Y-107710500D01*
X202692724Y-106665500D02*
X202183276Y-106665500D01*
%TO.C,R2013*%
X206487500Y-77850276D02*
X206487500Y-78359724D01*
X207532500Y-77850276D02*
X207532500Y-78359724D01*
%TO.C,R2014*%
X203302776Y-77357500D02*
X203812224Y-77357500D01*
X203302776Y-76312500D02*
X203812224Y-76312500D01*
%TO.C,R2015*%
X203812224Y-79897500D02*
X203302776Y-79897500D01*
X203812224Y-78852500D02*
X203302776Y-78852500D01*
%TO.C,C2007*%
X173710000Y-95410000D02*
X173710000Y-103470000D01*
X173710000Y-103470000D02*
X169190000Y-103470000D01*
X169190000Y-103470000D02*
X169190000Y-95410000D01*
%TO.C,C2034*%
X212600000Y-84943733D02*
X212600000Y-85236267D01*
X211580000Y-84943733D02*
X211580000Y-85236267D01*
%TO.C,C2002*%
D11*
X168707142Y-110799761D02*
X168754761Y-110752142D01*
X168802380Y-110609285D01*
X168802380Y-110514047D01*
X168754761Y-110371190D01*
X168659523Y-110275952D01*
X168564285Y-110228333D01*
X168373809Y-110180714D01*
X168230952Y-110180714D01*
X168040476Y-110228333D01*
X167945238Y-110275952D01*
X167850000Y-110371190D01*
X167802380Y-110514047D01*
X167802380Y-110609285D01*
X167850000Y-110752142D01*
X167897619Y-110799761D01*
X167897619Y-111180714D02*
X167850000Y-111228333D01*
X167802380Y-111323571D01*
X167802380Y-111561666D01*
X167850000Y-111656904D01*
X167897619Y-111704523D01*
X167992857Y-111752142D01*
X168088095Y-111752142D01*
X168230952Y-111704523D01*
X168802380Y-111133095D01*
X168802380Y-111752142D01*
X167802380Y-112371190D02*
X167802380Y-112466428D01*
X167850000Y-112561666D01*
X167897619Y-112609285D01*
X167992857Y-112656904D01*
X168183333Y-112704523D01*
X168421428Y-112704523D01*
X168611904Y-112656904D01*
X168707142Y-112609285D01*
X168754761Y-112561666D01*
X168802380Y-112466428D01*
X168802380Y-112371190D01*
X168754761Y-112275952D01*
X168707142Y-112228333D01*
X168611904Y-112180714D01*
X168421428Y-112133095D01*
X168183333Y-112133095D01*
X167992857Y-112180714D01*
X167897619Y-112228333D01*
X167850000Y-112275952D01*
X167802380Y-112371190D01*
X167802380Y-113323571D02*
X167802380Y-113418809D01*
X167850000Y-113514047D01*
X167897619Y-113561666D01*
X167992857Y-113609285D01*
X168183333Y-113656904D01*
X168421428Y-113656904D01*
X168611904Y-113609285D01*
X168707142Y-113561666D01*
X168754761Y-113514047D01*
X168802380Y-113418809D01*
X168802380Y-113323571D01*
X168754761Y-113228333D01*
X168707142Y-113180714D01*
X168611904Y-113133095D01*
X168421428Y-113085476D01*
X168183333Y-113085476D01*
X167992857Y-113133095D01*
X167897619Y-113180714D01*
X167850000Y-113228333D01*
X167802380Y-113323571D01*
X167897619Y-114037857D02*
X167850000Y-114085476D01*
X167802380Y-114180714D01*
X167802380Y-114418809D01*
X167850000Y-114514047D01*
X167897619Y-114561666D01*
X167992857Y-114609285D01*
X168088095Y-114609285D01*
X168230952Y-114561666D01*
X168802380Y-113990238D01*
X168802380Y-114609285D01*
%TO.C,C2006*%
X163477142Y-97464761D02*
X163524761Y-97417142D01*
X163572380Y-97274285D01*
X163572380Y-97179047D01*
X163524761Y-97036190D01*
X163429523Y-96940952D01*
X163334285Y-96893333D01*
X163143809Y-96845714D01*
X163000952Y-96845714D01*
X162810476Y-96893333D01*
X162715238Y-96940952D01*
X162620000Y-97036190D01*
X162572380Y-97179047D01*
X162572380Y-97274285D01*
X162620000Y-97417142D01*
X162667619Y-97464761D01*
X162667619Y-97845714D02*
X162620000Y-97893333D01*
X162572380Y-97988571D01*
X162572380Y-98226666D01*
X162620000Y-98321904D01*
X162667619Y-98369523D01*
X162762857Y-98417142D01*
X162858095Y-98417142D01*
X163000952Y-98369523D01*
X163572380Y-97798095D01*
X163572380Y-98417142D01*
X162572380Y-99036190D02*
X162572380Y-99131428D01*
X162620000Y-99226666D01*
X162667619Y-99274285D01*
X162762857Y-99321904D01*
X162953333Y-99369523D01*
X163191428Y-99369523D01*
X163381904Y-99321904D01*
X163477142Y-99274285D01*
X163524761Y-99226666D01*
X163572380Y-99131428D01*
X163572380Y-99036190D01*
X163524761Y-98940952D01*
X163477142Y-98893333D01*
X163381904Y-98845714D01*
X163191428Y-98798095D01*
X162953333Y-98798095D01*
X162762857Y-98845714D01*
X162667619Y-98893333D01*
X162620000Y-98940952D01*
X162572380Y-99036190D01*
X162572380Y-99988571D02*
X162572380Y-100083809D01*
X162620000Y-100179047D01*
X162667619Y-100226666D01*
X162762857Y-100274285D01*
X162953333Y-100321904D01*
X163191428Y-100321904D01*
X163381904Y-100274285D01*
X163477142Y-100226666D01*
X163524761Y-100179047D01*
X163572380Y-100083809D01*
X163572380Y-99988571D01*
X163524761Y-99893333D01*
X163477142Y-99845714D01*
X163381904Y-99798095D01*
X163191428Y-99750476D01*
X162953333Y-99750476D01*
X162762857Y-99798095D01*
X162667619Y-99845714D01*
X162620000Y-99893333D01*
X162572380Y-99988571D01*
X162572380Y-101179047D02*
X162572380Y-100988571D01*
X162620000Y-100893333D01*
X162667619Y-100845714D01*
X162810476Y-100750476D01*
X163000952Y-100702857D01*
X163381904Y-100702857D01*
X163477142Y-100750476D01*
X163524761Y-100798095D01*
X163572380Y-100893333D01*
X163572380Y-101083809D01*
X163524761Y-101179047D01*
X163477142Y-101226666D01*
X163381904Y-101274285D01*
X163143809Y-101274285D01*
X163048571Y-101226666D01*
X163000952Y-101179047D01*
X162953333Y-101083809D01*
X162953333Y-100893333D01*
X163000952Y-100798095D01*
X163048571Y-100750476D01*
X163143809Y-100702857D01*
%TO.C,C2008*%
X169192142Y-97464761D02*
X169239761Y-97417142D01*
X169287380Y-97274285D01*
X169287380Y-97179047D01*
X169239761Y-97036190D01*
X169144523Y-96940952D01*
X169049285Y-96893333D01*
X168858809Y-96845714D01*
X168715952Y-96845714D01*
X168525476Y-96893333D01*
X168430238Y-96940952D01*
X168335000Y-97036190D01*
X168287380Y-97179047D01*
X168287380Y-97274285D01*
X168335000Y-97417142D01*
X168382619Y-97464761D01*
X168382619Y-97845714D02*
X168335000Y-97893333D01*
X168287380Y-97988571D01*
X168287380Y-98226666D01*
X168335000Y-98321904D01*
X168382619Y-98369523D01*
X168477857Y-98417142D01*
X168573095Y-98417142D01*
X168715952Y-98369523D01*
X169287380Y-97798095D01*
X169287380Y-98417142D01*
X168287380Y-99036190D02*
X168287380Y-99131428D01*
X168335000Y-99226666D01*
X168382619Y-99274285D01*
X168477857Y-99321904D01*
X168668333Y-99369523D01*
X168906428Y-99369523D01*
X169096904Y-99321904D01*
X169192142Y-99274285D01*
X169239761Y-99226666D01*
X169287380Y-99131428D01*
X169287380Y-99036190D01*
X169239761Y-98940952D01*
X169192142Y-98893333D01*
X169096904Y-98845714D01*
X168906428Y-98798095D01*
X168668333Y-98798095D01*
X168477857Y-98845714D01*
X168382619Y-98893333D01*
X168335000Y-98940952D01*
X168287380Y-99036190D01*
X168287380Y-99988571D02*
X168287380Y-100083809D01*
X168335000Y-100179047D01*
X168382619Y-100226666D01*
X168477857Y-100274285D01*
X168668333Y-100321904D01*
X168906428Y-100321904D01*
X169096904Y-100274285D01*
X169192142Y-100226666D01*
X169239761Y-100179047D01*
X169287380Y-100083809D01*
X169287380Y-99988571D01*
X169239761Y-99893333D01*
X169192142Y-99845714D01*
X169096904Y-99798095D01*
X168906428Y-99750476D01*
X168668333Y-99750476D01*
X168477857Y-99798095D01*
X168382619Y-99845714D01*
X168335000Y-99893333D01*
X168287380Y-99988571D01*
X168715952Y-100893333D02*
X168668333Y-100798095D01*
X168620714Y-100750476D01*
X168525476Y-100702857D01*
X168477857Y-100702857D01*
X168382619Y-100750476D01*
X168335000Y-100798095D01*
X168287380Y-100893333D01*
X168287380Y-101083809D01*
X168335000Y-101179047D01*
X168382619Y-101226666D01*
X168477857Y-101274285D01*
X168525476Y-101274285D01*
X168620714Y-101226666D01*
X168668333Y-101179047D01*
X168715952Y-101083809D01*
X168715952Y-100893333D01*
X168763571Y-100798095D01*
X168811190Y-100750476D01*
X168906428Y-100702857D01*
X169096904Y-100702857D01*
X169192142Y-100750476D01*
X169239761Y-100798095D01*
X169287380Y-100893333D01*
X169287380Y-101083809D01*
X169239761Y-101179047D01*
X169192142Y-101226666D01*
X169096904Y-101274285D01*
X168906428Y-101274285D01*
X168811190Y-101226666D01*
X168763571Y-101179047D01*
X168715952Y-101083809D01*
%TO.C,C2010*%
X157997142Y-97464761D02*
X158044761Y-97417142D01*
X158092380Y-97274285D01*
X158092380Y-97179047D01*
X158044761Y-97036190D01*
X157949523Y-96940952D01*
X157854285Y-96893333D01*
X157663809Y-96845714D01*
X157520952Y-96845714D01*
X157330476Y-96893333D01*
X157235238Y-96940952D01*
X157140000Y-97036190D01*
X157092380Y-97179047D01*
X157092380Y-97274285D01*
X157140000Y-97417142D01*
X157187619Y-97464761D01*
X157187619Y-97845714D02*
X157140000Y-97893333D01*
X157092380Y-97988571D01*
X157092380Y-98226666D01*
X157140000Y-98321904D01*
X157187619Y-98369523D01*
X157282857Y-98417142D01*
X157378095Y-98417142D01*
X157520952Y-98369523D01*
X158092380Y-97798095D01*
X158092380Y-98417142D01*
X157092380Y-99036190D02*
X157092380Y-99131428D01*
X157140000Y-99226666D01*
X157187619Y-99274285D01*
X157282857Y-99321904D01*
X157473333Y-99369523D01*
X157711428Y-99369523D01*
X157901904Y-99321904D01*
X157997142Y-99274285D01*
X158044761Y-99226666D01*
X158092380Y-99131428D01*
X158092380Y-99036190D01*
X158044761Y-98940952D01*
X157997142Y-98893333D01*
X157901904Y-98845714D01*
X157711428Y-98798095D01*
X157473333Y-98798095D01*
X157282857Y-98845714D01*
X157187619Y-98893333D01*
X157140000Y-98940952D01*
X157092380Y-99036190D01*
X158092380Y-100321904D02*
X158092380Y-99750476D01*
X158092380Y-100036190D02*
X157092380Y-100036190D01*
X157235238Y-99940952D01*
X157330476Y-99845714D01*
X157378095Y-99750476D01*
X157092380Y-100940952D02*
X157092380Y-101036190D01*
X157140000Y-101131428D01*
X157187619Y-101179047D01*
X157282857Y-101226666D01*
X157473333Y-101274285D01*
X157711428Y-101274285D01*
X157901904Y-101226666D01*
X157997142Y-101179047D01*
X158044761Y-101131428D01*
X158092380Y-101036190D01*
X158092380Y-100940952D01*
X158044761Y-100845714D01*
X157997142Y-100798095D01*
X157901904Y-100750476D01*
X157711428Y-100702857D01*
X157473333Y-100702857D01*
X157282857Y-100750476D01*
X157187619Y-100798095D01*
X157140000Y-100845714D01*
X157092380Y-100940952D01*
%TO.C,C2011*%
X156092142Y-97464761D02*
X156139761Y-97417142D01*
X156187380Y-97274285D01*
X156187380Y-97179047D01*
X156139761Y-97036190D01*
X156044523Y-96940952D01*
X155949285Y-96893333D01*
X155758809Y-96845714D01*
X155615952Y-96845714D01*
X155425476Y-96893333D01*
X155330238Y-96940952D01*
X155235000Y-97036190D01*
X155187380Y-97179047D01*
X155187380Y-97274285D01*
X155235000Y-97417142D01*
X155282619Y-97464761D01*
X155282619Y-97845714D02*
X155235000Y-97893333D01*
X155187380Y-97988571D01*
X155187380Y-98226666D01*
X155235000Y-98321904D01*
X155282619Y-98369523D01*
X155377857Y-98417142D01*
X155473095Y-98417142D01*
X155615952Y-98369523D01*
X156187380Y-97798095D01*
X156187380Y-98417142D01*
X155187380Y-99036190D02*
X155187380Y-99131428D01*
X155235000Y-99226666D01*
X155282619Y-99274285D01*
X155377857Y-99321904D01*
X155568333Y-99369523D01*
X155806428Y-99369523D01*
X155996904Y-99321904D01*
X156092142Y-99274285D01*
X156139761Y-99226666D01*
X156187380Y-99131428D01*
X156187380Y-99036190D01*
X156139761Y-98940952D01*
X156092142Y-98893333D01*
X155996904Y-98845714D01*
X155806428Y-98798095D01*
X155568333Y-98798095D01*
X155377857Y-98845714D01*
X155282619Y-98893333D01*
X155235000Y-98940952D01*
X155187380Y-99036190D01*
X156187380Y-100321904D02*
X156187380Y-99750476D01*
X156187380Y-100036190D02*
X155187380Y-100036190D01*
X155330238Y-99940952D01*
X155425476Y-99845714D01*
X155473095Y-99750476D01*
X156187380Y-101274285D02*
X156187380Y-100702857D01*
X156187380Y-100988571D02*
X155187380Y-100988571D01*
X155330238Y-100893333D01*
X155425476Y-100798095D01*
X155473095Y-100702857D01*
%TO.C,C2012*%
X168505142Y-82732761D02*
X168552761Y-82685142D01*
X168600380Y-82542285D01*
X168600380Y-82447047D01*
X168552761Y-82304190D01*
X168457523Y-82208952D01*
X168362285Y-82161333D01*
X168171809Y-82113714D01*
X168028952Y-82113714D01*
X167838476Y-82161333D01*
X167743238Y-82208952D01*
X167648000Y-82304190D01*
X167600380Y-82447047D01*
X167600380Y-82542285D01*
X167648000Y-82685142D01*
X167695619Y-82732761D01*
X167695619Y-83113714D02*
X167648000Y-83161333D01*
X167600380Y-83256571D01*
X167600380Y-83494666D01*
X167648000Y-83589904D01*
X167695619Y-83637523D01*
X167790857Y-83685142D01*
X167886095Y-83685142D01*
X168028952Y-83637523D01*
X168600380Y-83066095D01*
X168600380Y-83685142D01*
X167600380Y-84304190D02*
X167600380Y-84399428D01*
X167648000Y-84494666D01*
X167695619Y-84542285D01*
X167790857Y-84589904D01*
X167981333Y-84637523D01*
X168219428Y-84637523D01*
X168409904Y-84589904D01*
X168505142Y-84542285D01*
X168552761Y-84494666D01*
X168600380Y-84399428D01*
X168600380Y-84304190D01*
X168552761Y-84208952D01*
X168505142Y-84161333D01*
X168409904Y-84113714D01*
X168219428Y-84066095D01*
X167981333Y-84066095D01*
X167790857Y-84113714D01*
X167695619Y-84161333D01*
X167648000Y-84208952D01*
X167600380Y-84304190D01*
X168600380Y-85589904D02*
X168600380Y-85018476D01*
X168600380Y-85304190D02*
X167600380Y-85304190D01*
X167743238Y-85208952D01*
X167838476Y-85113714D01*
X167886095Y-85018476D01*
X167695619Y-85970857D02*
X167648000Y-86018476D01*
X167600380Y-86113714D01*
X167600380Y-86351809D01*
X167648000Y-86447047D01*
X167695619Y-86494666D01*
X167790857Y-86542285D01*
X167886095Y-86542285D01*
X168028952Y-86494666D01*
X168600380Y-85923238D01*
X168600380Y-86542285D01*
%TO.C,C2016*%
X174907142Y-68889761D02*
X174954761Y-68842142D01*
X175002380Y-68699285D01*
X175002380Y-68604047D01*
X174954761Y-68461190D01*
X174859523Y-68365952D01*
X174764285Y-68318333D01*
X174573809Y-68270714D01*
X174430952Y-68270714D01*
X174240476Y-68318333D01*
X174145238Y-68365952D01*
X174050000Y-68461190D01*
X174002380Y-68604047D01*
X174002380Y-68699285D01*
X174050000Y-68842142D01*
X174097619Y-68889761D01*
X174097619Y-69270714D02*
X174050000Y-69318333D01*
X174002380Y-69413571D01*
X174002380Y-69651666D01*
X174050000Y-69746904D01*
X174097619Y-69794523D01*
X174192857Y-69842142D01*
X174288095Y-69842142D01*
X174430952Y-69794523D01*
X175002380Y-69223095D01*
X175002380Y-69842142D01*
X174002380Y-70461190D02*
X174002380Y-70556428D01*
X174050000Y-70651666D01*
X174097619Y-70699285D01*
X174192857Y-70746904D01*
X174383333Y-70794523D01*
X174621428Y-70794523D01*
X174811904Y-70746904D01*
X174907142Y-70699285D01*
X174954761Y-70651666D01*
X175002380Y-70556428D01*
X175002380Y-70461190D01*
X174954761Y-70365952D01*
X174907142Y-70318333D01*
X174811904Y-70270714D01*
X174621428Y-70223095D01*
X174383333Y-70223095D01*
X174192857Y-70270714D01*
X174097619Y-70318333D01*
X174050000Y-70365952D01*
X174002380Y-70461190D01*
X175002380Y-71746904D02*
X175002380Y-71175476D01*
X175002380Y-71461190D02*
X174002380Y-71461190D01*
X174145238Y-71365952D01*
X174240476Y-71270714D01*
X174288095Y-71175476D01*
X174002380Y-72604047D02*
X174002380Y-72413571D01*
X174050000Y-72318333D01*
X174097619Y-72270714D01*
X174240476Y-72175476D01*
X174430952Y-72127857D01*
X174811904Y-72127857D01*
X174907142Y-72175476D01*
X174954761Y-72223095D01*
X175002380Y-72318333D01*
X175002380Y-72508809D01*
X174954761Y-72604047D01*
X174907142Y-72651666D01*
X174811904Y-72699285D01*
X174573809Y-72699285D01*
X174478571Y-72651666D01*
X174430952Y-72604047D01*
X174383333Y-72508809D01*
X174383333Y-72318333D01*
X174430952Y-72223095D01*
X174478571Y-72175476D01*
X174573809Y-72127857D01*
%TO.C,C2017*%
X169192142Y-68889761D02*
X169239761Y-68842142D01*
X169287380Y-68699285D01*
X169287380Y-68604047D01*
X169239761Y-68461190D01*
X169144523Y-68365952D01*
X169049285Y-68318333D01*
X168858809Y-68270714D01*
X168715952Y-68270714D01*
X168525476Y-68318333D01*
X168430238Y-68365952D01*
X168335000Y-68461190D01*
X168287380Y-68604047D01*
X168287380Y-68699285D01*
X168335000Y-68842142D01*
X168382619Y-68889761D01*
X168382619Y-69270714D02*
X168335000Y-69318333D01*
X168287380Y-69413571D01*
X168287380Y-69651666D01*
X168335000Y-69746904D01*
X168382619Y-69794523D01*
X168477857Y-69842142D01*
X168573095Y-69842142D01*
X168715952Y-69794523D01*
X169287380Y-69223095D01*
X169287380Y-69842142D01*
X168287380Y-70461190D02*
X168287380Y-70556428D01*
X168335000Y-70651666D01*
X168382619Y-70699285D01*
X168477857Y-70746904D01*
X168668333Y-70794523D01*
X168906428Y-70794523D01*
X169096904Y-70746904D01*
X169192142Y-70699285D01*
X169239761Y-70651666D01*
X169287380Y-70556428D01*
X169287380Y-70461190D01*
X169239761Y-70365952D01*
X169192142Y-70318333D01*
X169096904Y-70270714D01*
X168906428Y-70223095D01*
X168668333Y-70223095D01*
X168477857Y-70270714D01*
X168382619Y-70318333D01*
X168335000Y-70365952D01*
X168287380Y-70461190D01*
X169287380Y-71746904D02*
X169287380Y-71175476D01*
X169287380Y-71461190D02*
X168287380Y-71461190D01*
X168430238Y-71365952D01*
X168525476Y-71270714D01*
X168573095Y-71175476D01*
X168287380Y-72080238D02*
X168287380Y-72746904D01*
X169287380Y-72318333D01*
%TO.C,C2018*%
X162762857Y-72080238D02*
X162715238Y-72127857D01*
X162667619Y-72270714D01*
X162667619Y-72365952D01*
X162715238Y-72508809D01*
X162810476Y-72604047D01*
X162905714Y-72651666D01*
X163096190Y-72699285D01*
X163239047Y-72699285D01*
X163429523Y-72651666D01*
X163524761Y-72604047D01*
X163620000Y-72508809D01*
X163667619Y-72365952D01*
X163667619Y-72270714D01*
X163620000Y-72127857D01*
X163572380Y-72080238D01*
X163572380Y-71699285D02*
X163620000Y-71651666D01*
X163667619Y-71556428D01*
X163667619Y-71318333D01*
X163620000Y-71223095D01*
X163572380Y-71175476D01*
X163477142Y-71127857D01*
X163381904Y-71127857D01*
X163239047Y-71175476D01*
X162667619Y-71746904D01*
X162667619Y-71127857D01*
X163667619Y-70508809D02*
X163667619Y-70413571D01*
X163620000Y-70318333D01*
X163572380Y-70270714D01*
X163477142Y-70223095D01*
X163286666Y-70175476D01*
X163048571Y-70175476D01*
X162858095Y-70223095D01*
X162762857Y-70270714D01*
X162715238Y-70318333D01*
X162667619Y-70413571D01*
X162667619Y-70508809D01*
X162715238Y-70604047D01*
X162762857Y-70651666D01*
X162858095Y-70699285D01*
X163048571Y-70746904D01*
X163286666Y-70746904D01*
X163477142Y-70699285D01*
X163572380Y-70651666D01*
X163620000Y-70604047D01*
X163667619Y-70508809D01*
X162667619Y-69223095D02*
X162667619Y-69794523D01*
X162667619Y-69508809D02*
X163667619Y-69508809D01*
X163524761Y-69604047D01*
X163429523Y-69699285D01*
X163381904Y-69794523D01*
X163239047Y-68651666D02*
X163286666Y-68746904D01*
X163334285Y-68794523D01*
X163429523Y-68842142D01*
X163477142Y-68842142D01*
X163572380Y-68794523D01*
X163620000Y-68746904D01*
X163667619Y-68651666D01*
X163667619Y-68461190D01*
X163620000Y-68365952D01*
X163572380Y-68318333D01*
X163477142Y-68270714D01*
X163429523Y-68270714D01*
X163334285Y-68318333D01*
X163286666Y-68365952D01*
X163239047Y-68461190D01*
X163239047Y-68651666D01*
X163191428Y-68746904D01*
X163143809Y-68794523D01*
X163048571Y-68842142D01*
X162858095Y-68842142D01*
X162762857Y-68794523D01*
X162715238Y-68746904D01*
X162667619Y-68651666D01*
X162667619Y-68461190D01*
X162715238Y-68365952D01*
X162762857Y-68318333D01*
X162858095Y-68270714D01*
X163048571Y-68270714D01*
X163143809Y-68318333D01*
X163191428Y-68365952D01*
X163239047Y-68461190D01*
%TO.C,C2020*%
X154742857Y-72715238D02*
X154695238Y-72762857D01*
X154647619Y-72905714D01*
X154647619Y-73000952D01*
X154695238Y-73143809D01*
X154790476Y-73239047D01*
X154885714Y-73286666D01*
X155076190Y-73334285D01*
X155219047Y-73334285D01*
X155409523Y-73286666D01*
X155504761Y-73239047D01*
X155600000Y-73143809D01*
X155647619Y-73000952D01*
X155647619Y-72905714D01*
X155600000Y-72762857D01*
X155552380Y-72715238D01*
X155552380Y-72334285D02*
X155600000Y-72286666D01*
X155647619Y-72191428D01*
X155647619Y-71953333D01*
X155600000Y-71858095D01*
X155552380Y-71810476D01*
X155457142Y-71762857D01*
X155361904Y-71762857D01*
X155219047Y-71810476D01*
X154647619Y-72381904D01*
X154647619Y-71762857D01*
X155647619Y-71143809D02*
X155647619Y-71048571D01*
X155600000Y-70953333D01*
X155552380Y-70905714D01*
X155457142Y-70858095D01*
X155266666Y-70810476D01*
X155028571Y-70810476D01*
X154838095Y-70858095D01*
X154742857Y-70905714D01*
X154695238Y-70953333D01*
X154647619Y-71048571D01*
X154647619Y-71143809D01*
X154695238Y-71239047D01*
X154742857Y-71286666D01*
X154838095Y-71334285D01*
X155028571Y-71381904D01*
X155266666Y-71381904D01*
X155457142Y-71334285D01*
X155552380Y-71286666D01*
X155600000Y-71239047D01*
X155647619Y-71143809D01*
X155552380Y-70429523D02*
X155600000Y-70381904D01*
X155647619Y-70286666D01*
X155647619Y-70048571D01*
X155600000Y-69953333D01*
X155552380Y-69905714D01*
X155457142Y-69858095D01*
X155361904Y-69858095D01*
X155219047Y-69905714D01*
X154647619Y-70477142D01*
X154647619Y-69858095D01*
X155647619Y-69239047D02*
X155647619Y-69143809D01*
X155600000Y-69048571D01*
X155552380Y-69000952D01*
X155457142Y-68953333D01*
X155266666Y-68905714D01*
X155028571Y-68905714D01*
X154838095Y-68953333D01*
X154742857Y-69000952D01*
X154695238Y-69048571D01*
X154647619Y-69143809D01*
X154647619Y-69239047D01*
X154695238Y-69334285D01*
X154742857Y-69381904D01*
X154838095Y-69429523D01*
X155028571Y-69477142D01*
X155266666Y-69477142D01*
X155457142Y-69429523D01*
X155552380Y-69381904D01*
X155600000Y-69334285D01*
X155647619Y-69239047D01*
%TO.C,C2021*%
X157997142Y-69524761D02*
X158044761Y-69477142D01*
X158092380Y-69334285D01*
X158092380Y-69239047D01*
X158044761Y-69096190D01*
X157949523Y-69000952D01*
X157854285Y-68953333D01*
X157663809Y-68905714D01*
X157520952Y-68905714D01*
X157330476Y-68953333D01*
X157235238Y-69000952D01*
X157140000Y-69096190D01*
X157092380Y-69239047D01*
X157092380Y-69334285D01*
X157140000Y-69477142D01*
X157187619Y-69524761D01*
X157187619Y-69905714D02*
X157140000Y-69953333D01*
X157092380Y-70048571D01*
X157092380Y-70286666D01*
X157140000Y-70381904D01*
X157187619Y-70429523D01*
X157282857Y-70477142D01*
X157378095Y-70477142D01*
X157520952Y-70429523D01*
X158092380Y-69858095D01*
X158092380Y-70477142D01*
X157092380Y-71096190D02*
X157092380Y-71191428D01*
X157140000Y-71286666D01*
X157187619Y-71334285D01*
X157282857Y-71381904D01*
X157473333Y-71429523D01*
X157711428Y-71429523D01*
X157901904Y-71381904D01*
X157997142Y-71334285D01*
X158044761Y-71286666D01*
X158092380Y-71191428D01*
X158092380Y-71096190D01*
X158044761Y-71000952D01*
X157997142Y-70953333D01*
X157901904Y-70905714D01*
X157711428Y-70858095D01*
X157473333Y-70858095D01*
X157282857Y-70905714D01*
X157187619Y-70953333D01*
X157140000Y-71000952D01*
X157092380Y-71096190D01*
X157187619Y-71810476D02*
X157140000Y-71858095D01*
X157092380Y-71953333D01*
X157092380Y-72191428D01*
X157140000Y-72286666D01*
X157187619Y-72334285D01*
X157282857Y-72381904D01*
X157378095Y-72381904D01*
X157520952Y-72334285D01*
X158092380Y-71762857D01*
X158092380Y-72381904D01*
X158092380Y-73334285D02*
X158092380Y-72762857D01*
X158092380Y-73048571D02*
X157092380Y-73048571D01*
X157235238Y-72953333D01*
X157330476Y-72858095D01*
X157378095Y-72762857D01*
%TO.C,C2027*%
X206657142Y-98037261D02*
X206704761Y-97989642D01*
X206752380Y-97846785D01*
X206752380Y-97751547D01*
X206704761Y-97608690D01*
X206609523Y-97513452D01*
X206514285Y-97465833D01*
X206323809Y-97418214D01*
X206180952Y-97418214D01*
X205990476Y-97465833D01*
X205895238Y-97513452D01*
X205800000Y-97608690D01*
X205752380Y-97751547D01*
X205752380Y-97846785D01*
X205800000Y-97989642D01*
X205847619Y-98037261D01*
X205847619Y-98418214D02*
X205800000Y-98465833D01*
X205752380Y-98561071D01*
X205752380Y-98799166D01*
X205800000Y-98894404D01*
X205847619Y-98942023D01*
X205942857Y-98989642D01*
X206038095Y-98989642D01*
X206180952Y-98942023D01*
X206752380Y-98370595D01*
X206752380Y-98989642D01*
X205752380Y-99608690D02*
X205752380Y-99703928D01*
X205800000Y-99799166D01*
X205847619Y-99846785D01*
X205942857Y-99894404D01*
X206133333Y-99942023D01*
X206371428Y-99942023D01*
X206561904Y-99894404D01*
X206657142Y-99846785D01*
X206704761Y-99799166D01*
X206752380Y-99703928D01*
X206752380Y-99608690D01*
X206704761Y-99513452D01*
X206657142Y-99465833D01*
X206561904Y-99418214D01*
X206371428Y-99370595D01*
X206133333Y-99370595D01*
X205942857Y-99418214D01*
X205847619Y-99465833D01*
X205800000Y-99513452D01*
X205752380Y-99608690D01*
X205847619Y-100322976D02*
X205800000Y-100370595D01*
X205752380Y-100465833D01*
X205752380Y-100703928D01*
X205800000Y-100799166D01*
X205847619Y-100846785D01*
X205942857Y-100894404D01*
X206038095Y-100894404D01*
X206180952Y-100846785D01*
X206752380Y-100275357D01*
X206752380Y-100894404D01*
X205752380Y-101227738D02*
X205752380Y-101894404D01*
X206752380Y-101465833D01*
%TO.C,C2028*%
X212372142Y-98099761D02*
X212419761Y-98052142D01*
X212467380Y-97909285D01*
X212467380Y-97814047D01*
X212419761Y-97671190D01*
X212324523Y-97575952D01*
X212229285Y-97528333D01*
X212038809Y-97480714D01*
X211895952Y-97480714D01*
X211705476Y-97528333D01*
X211610238Y-97575952D01*
X211515000Y-97671190D01*
X211467380Y-97814047D01*
X211467380Y-97909285D01*
X211515000Y-98052142D01*
X211562619Y-98099761D01*
X211562619Y-98480714D02*
X211515000Y-98528333D01*
X211467380Y-98623571D01*
X211467380Y-98861666D01*
X211515000Y-98956904D01*
X211562619Y-99004523D01*
X211657857Y-99052142D01*
X211753095Y-99052142D01*
X211895952Y-99004523D01*
X212467380Y-98433095D01*
X212467380Y-99052142D01*
X211467380Y-99671190D02*
X211467380Y-99766428D01*
X211515000Y-99861666D01*
X211562619Y-99909285D01*
X211657857Y-99956904D01*
X211848333Y-100004523D01*
X212086428Y-100004523D01*
X212276904Y-99956904D01*
X212372142Y-99909285D01*
X212419761Y-99861666D01*
X212467380Y-99766428D01*
X212467380Y-99671190D01*
X212419761Y-99575952D01*
X212372142Y-99528333D01*
X212276904Y-99480714D01*
X212086428Y-99433095D01*
X211848333Y-99433095D01*
X211657857Y-99480714D01*
X211562619Y-99528333D01*
X211515000Y-99575952D01*
X211467380Y-99671190D01*
X211562619Y-100385476D02*
X211515000Y-100433095D01*
X211467380Y-100528333D01*
X211467380Y-100766428D01*
X211515000Y-100861666D01*
X211562619Y-100909285D01*
X211657857Y-100956904D01*
X211753095Y-100956904D01*
X211895952Y-100909285D01*
X212467380Y-100337857D01*
X212467380Y-100956904D01*
X211895952Y-101528333D02*
X211848333Y-101433095D01*
X211800714Y-101385476D01*
X211705476Y-101337857D01*
X211657857Y-101337857D01*
X211562619Y-101385476D01*
X211515000Y-101433095D01*
X211467380Y-101528333D01*
X211467380Y-101718809D01*
X211515000Y-101814047D01*
X211562619Y-101861666D01*
X211657857Y-101909285D01*
X211705476Y-101909285D01*
X211800714Y-101861666D01*
X211848333Y-101814047D01*
X211895952Y-101718809D01*
X211895952Y-101528333D01*
X211943571Y-101433095D01*
X211991190Y-101385476D01*
X212086428Y-101337857D01*
X212276904Y-101337857D01*
X212372142Y-101385476D01*
X212419761Y-101433095D01*
X212467380Y-101528333D01*
X212467380Y-101718809D01*
X212419761Y-101814047D01*
X212372142Y-101861666D01*
X212276904Y-101909285D01*
X212086428Y-101909285D01*
X211991190Y-101861666D01*
X211943571Y-101814047D01*
X211895952Y-101718809D01*
%TO.C,C2029*%
X200942142Y-98099761D02*
X200989761Y-98052142D01*
X201037380Y-97909285D01*
X201037380Y-97814047D01*
X200989761Y-97671190D01*
X200894523Y-97575952D01*
X200799285Y-97528333D01*
X200608809Y-97480714D01*
X200465952Y-97480714D01*
X200275476Y-97528333D01*
X200180238Y-97575952D01*
X200085000Y-97671190D01*
X200037380Y-97814047D01*
X200037380Y-97909285D01*
X200085000Y-98052142D01*
X200132619Y-98099761D01*
X200132619Y-98480714D02*
X200085000Y-98528333D01*
X200037380Y-98623571D01*
X200037380Y-98861666D01*
X200085000Y-98956904D01*
X200132619Y-99004523D01*
X200227857Y-99052142D01*
X200323095Y-99052142D01*
X200465952Y-99004523D01*
X201037380Y-98433095D01*
X201037380Y-99052142D01*
X200037380Y-99671190D02*
X200037380Y-99766428D01*
X200085000Y-99861666D01*
X200132619Y-99909285D01*
X200227857Y-99956904D01*
X200418333Y-100004523D01*
X200656428Y-100004523D01*
X200846904Y-99956904D01*
X200942142Y-99909285D01*
X200989761Y-99861666D01*
X201037380Y-99766428D01*
X201037380Y-99671190D01*
X200989761Y-99575952D01*
X200942142Y-99528333D01*
X200846904Y-99480714D01*
X200656428Y-99433095D01*
X200418333Y-99433095D01*
X200227857Y-99480714D01*
X200132619Y-99528333D01*
X200085000Y-99575952D01*
X200037380Y-99671190D01*
X200132619Y-100385476D02*
X200085000Y-100433095D01*
X200037380Y-100528333D01*
X200037380Y-100766428D01*
X200085000Y-100861666D01*
X200132619Y-100909285D01*
X200227857Y-100956904D01*
X200323095Y-100956904D01*
X200465952Y-100909285D01*
X201037380Y-100337857D01*
X201037380Y-100956904D01*
X201037380Y-101433095D02*
X201037380Y-101623571D01*
X200989761Y-101718809D01*
X200942142Y-101766428D01*
X200799285Y-101861666D01*
X200608809Y-101909285D01*
X200227857Y-101909285D01*
X200132619Y-101861666D01*
X200085000Y-101814047D01*
X200037380Y-101718809D01*
X200037380Y-101528333D01*
X200085000Y-101433095D01*
X200132619Y-101385476D01*
X200227857Y-101337857D01*
X200465952Y-101337857D01*
X200561190Y-101385476D01*
X200608809Y-101433095D01*
X200656428Y-101528333D01*
X200656428Y-101718809D01*
X200608809Y-101814047D01*
X200561190Y-101861666D01*
X200465952Y-101909285D01*
%TO.C,C2031*%
X192922142Y-98099761D02*
X192969761Y-98052142D01*
X193017380Y-97909285D01*
X193017380Y-97814047D01*
X192969761Y-97671190D01*
X192874523Y-97575952D01*
X192779285Y-97528333D01*
X192588809Y-97480714D01*
X192445952Y-97480714D01*
X192255476Y-97528333D01*
X192160238Y-97575952D01*
X192065000Y-97671190D01*
X192017380Y-97814047D01*
X192017380Y-97909285D01*
X192065000Y-98052142D01*
X192112619Y-98099761D01*
X192112619Y-98480714D02*
X192065000Y-98528333D01*
X192017380Y-98623571D01*
X192017380Y-98861666D01*
X192065000Y-98956904D01*
X192112619Y-99004523D01*
X192207857Y-99052142D01*
X192303095Y-99052142D01*
X192445952Y-99004523D01*
X193017380Y-98433095D01*
X193017380Y-99052142D01*
X192017380Y-99671190D02*
X192017380Y-99766428D01*
X192065000Y-99861666D01*
X192112619Y-99909285D01*
X192207857Y-99956904D01*
X192398333Y-100004523D01*
X192636428Y-100004523D01*
X192826904Y-99956904D01*
X192922142Y-99909285D01*
X192969761Y-99861666D01*
X193017380Y-99766428D01*
X193017380Y-99671190D01*
X192969761Y-99575952D01*
X192922142Y-99528333D01*
X192826904Y-99480714D01*
X192636428Y-99433095D01*
X192398333Y-99433095D01*
X192207857Y-99480714D01*
X192112619Y-99528333D01*
X192065000Y-99575952D01*
X192017380Y-99671190D01*
X192017380Y-100337857D02*
X192017380Y-100956904D01*
X192398333Y-100623571D01*
X192398333Y-100766428D01*
X192445952Y-100861666D01*
X192493571Y-100909285D01*
X192588809Y-100956904D01*
X192826904Y-100956904D01*
X192922142Y-100909285D01*
X192969761Y-100861666D01*
X193017380Y-100766428D01*
X193017380Y-100480714D01*
X192969761Y-100385476D01*
X192922142Y-100337857D01*
X193017380Y-101909285D02*
X193017380Y-101337857D01*
X193017380Y-101623571D02*
X192017380Y-101623571D01*
X192160238Y-101528333D01*
X192255476Y-101433095D01*
X192303095Y-101337857D01*
%TO.C,C2032*%
X195462142Y-98099761D02*
X195509761Y-98052142D01*
X195557380Y-97909285D01*
X195557380Y-97814047D01*
X195509761Y-97671190D01*
X195414523Y-97575952D01*
X195319285Y-97528333D01*
X195128809Y-97480714D01*
X194985952Y-97480714D01*
X194795476Y-97528333D01*
X194700238Y-97575952D01*
X194605000Y-97671190D01*
X194557380Y-97814047D01*
X194557380Y-97909285D01*
X194605000Y-98052142D01*
X194652619Y-98099761D01*
X194652619Y-98480714D02*
X194605000Y-98528333D01*
X194557380Y-98623571D01*
X194557380Y-98861666D01*
X194605000Y-98956904D01*
X194652619Y-99004523D01*
X194747857Y-99052142D01*
X194843095Y-99052142D01*
X194985952Y-99004523D01*
X195557380Y-98433095D01*
X195557380Y-99052142D01*
X194557380Y-99671190D02*
X194557380Y-99766428D01*
X194605000Y-99861666D01*
X194652619Y-99909285D01*
X194747857Y-99956904D01*
X194938333Y-100004523D01*
X195176428Y-100004523D01*
X195366904Y-99956904D01*
X195462142Y-99909285D01*
X195509761Y-99861666D01*
X195557380Y-99766428D01*
X195557380Y-99671190D01*
X195509761Y-99575952D01*
X195462142Y-99528333D01*
X195366904Y-99480714D01*
X195176428Y-99433095D01*
X194938333Y-99433095D01*
X194747857Y-99480714D01*
X194652619Y-99528333D01*
X194605000Y-99575952D01*
X194557380Y-99671190D01*
X194557380Y-100337857D02*
X194557380Y-100956904D01*
X194938333Y-100623571D01*
X194938333Y-100766428D01*
X194985952Y-100861666D01*
X195033571Y-100909285D01*
X195128809Y-100956904D01*
X195366904Y-100956904D01*
X195462142Y-100909285D01*
X195509761Y-100861666D01*
X195557380Y-100766428D01*
X195557380Y-100480714D01*
X195509761Y-100385476D01*
X195462142Y-100337857D01*
X194652619Y-101337857D02*
X194605000Y-101385476D01*
X194557380Y-101480714D01*
X194557380Y-101718809D01*
X194605000Y-101814047D01*
X194652619Y-101861666D01*
X194747857Y-101909285D01*
X194843095Y-101909285D01*
X194985952Y-101861666D01*
X195557380Y-101290238D01*
X195557380Y-101909285D01*
%TO.C,C2033*%
X205537142Y-83494761D02*
X205584761Y-83447142D01*
X205632380Y-83304285D01*
X205632380Y-83209047D01*
X205584761Y-83066190D01*
X205489523Y-82970952D01*
X205394285Y-82923333D01*
X205203809Y-82875714D01*
X205060952Y-82875714D01*
X204870476Y-82923333D01*
X204775238Y-82970952D01*
X204680000Y-83066190D01*
X204632380Y-83209047D01*
X204632380Y-83304285D01*
X204680000Y-83447142D01*
X204727619Y-83494761D01*
X204727619Y-83875714D02*
X204680000Y-83923333D01*
X204632380Y-84018571D01*
X204632380Y-84256666D01*
X204680000Y-84351904D01*
X204727619Y-84399523D01*
X204822857Y-84447142D01*
X204918095Y-84447142D01*
X205060952Y-84399523D01*
X205632380Y-83828095D01*
X205632380Y-84447142D01*
X204632380Y-85066190D02*
X204632380Y-85161428D01*
X204680000Y-85256666D01*
X204727619Y-85304285D01*
X204822857Y-85351904D01*
X205013333Y-85399523D01*
X205251428Y-85399523D01*
X205441904Y-85351904D01*
X205537142Y-85304285D01*
X205584761Y-85256666D01*
X205632380Y-85161428D01*
X205632380Y-85066190D01*
X205584761Y-84970952D01*
X205537142Y-84923333D01*
X205441904Y-84875714D01*
X205251428Y-84828095D01*
X205013333Y-84828095D01*
X204822857Y-84875714D01*
X204727619Y-84923333D01*
X204680000Y-84970952D01*
X204632380Y-85066190D01*
X204632380Y-85732857D02*
X204632380Y-86351904D01*
X205013333Y-86018571D01*
X205013333Y-86161428D01*
X205060952Y-86256666D01*
X205108571Y-86304285D01*
X205203809Y-86351904D01*
X205441904Y-86351904D01*
X205537142Y-86304285D01*
X205584761Y-86256666D01*
X205632380Y-86161428D01*
X205632380Y-85875714D01*
X205584761Y-85780476D01*
X205537142Y-85732857D01*
X204632380Y-86685238D02*
X204632380Y-87304285D01*
X205013333Y-86970952D01*
X205013333Y-87113809D01*
X205060952Y-87209047D01*
X205108571Y-87256666D01*
X205203809Y-87304285D01*
X205441904Y-87304285D01*
X205537142Y-87256666D01*
X205584761Y-87209047D01*
X205632380Y-87113809D01*
X205632380Y-86828095D01*
X205584761Y-86732857D01*
X205537142Y-86685238D01*
%TO.C,C2037*%
X200942142Y-68889761D02*
X200989761Y-68842142D01*
X201037380Y-68699285D01*
X201037380Y-68604047D01*
X200989761Y-68461190D01*
X200894523Y-68365952D01*
X200799285Y-68318333D01*
X200608809Y-68270714D01*
X200465952Y-68270714D01*
X200275476Y-68318333D01*
X200180238Y-68365952D01*
X200085000Y-68461190D01*
X200037380Y-68604047D01*
X200037380Y-68699285D01*
X200085000Y-68842142D01*
X200132619Y-68889761D01*
X200132619Y-69270714D02*
X200085000Y-69318333D01*
X200037380Y-69413571D01*
X200037380Y-69651666D01*
X200085000Y-69746904D01*
X200132619Y-69794523D01*
X200227857Y-69842142D01*
X200323095Y-69842142D01*
X200465952Y-69794523D01*
X201037380Y-69223095D01*
X201037380Y-69842142D01*
X200037380Y-70461190D02*
X200037380Y-70556428D01*
X200085000Y-70651666D01*
X200132619Y-70699285D01*
X200227857Y-70746904D01*
X200418333Y-70794523D01*
X200656428Y-70794523D01*
X200846904Y-70746904D01*
X200942142Y-70699285D01*
X200989761Y-70651666D01*
X201037380Y-70556428D01*
X201037380Y-70461190D01*
X200989761Y-70365952D01*
X200942142Y-70318333D01*
X200846904Y-70270714D01*
X200656428Y-70223095D01*
X200418333Y-70223095D01*
X200227857Y-70270714D01*
X200132619Y-70318333D01*
X200085000Y-70365952D01*
X200037380Y-70461190D01*
X200037380Y-71127857D02*
X200037380Y-71746904D01*
X200418333Y-71413571D01*
X200418333Y-71556428D01*
X200465952Y-71651666D01*
X200513571Y-71699285D01*
X200608809Y-71746904D01*
X200846904Y-71746904D01*
X200942142Y-71699285D01*
X200989761Y-71651666D01*
X201037380Y-71556428D01*
X201037380Y-71270714D01*
X200989761Y-71175476D01*
X200942142Y-71127857D01*
X200037380Y-72080238D02*
X200037380Y-72746904D01*
X201037380Y-72318333D01*
%TO.C,C2038*%
X206657142Y-68889761D02*
X206704761Y-68842142D01*
X206752380Y-68699285D01*
X206752380Y-68604047D01*
X206704761Y-68461190D01*
X206609523Y-68365952D01*
X206514285Y-68318333D01*
X206323809Y-68270714D01*
X206180952Y-68270714D01*
X205990476Y-68318333D01*
X205895238Y-68365952D01*
X205800000Y-68461190D01*
X205752380Y-68604047D01*
X205752380Y-68699285D01*
X205800000Y-68842142D01*
X205847619Y-68889761D01*
X205847619Y-69270714D02*
X205800000Y-69318333D01*
X205752380Y-69413571D01*
X205752380Y-69651666D01*
X205800000Y-69746904D01*
X205847619Y-69794523D01*
X205942857Y-69842142D01*
X206038095Y-69842142D01*
X206180952Y-69794523D01*
X206752380Y-69223095D01*
X206752380Y-69842142D01*
X205752380Y-70461190D02*
X205752380Y-70556428D01*
X205800000Y-70651666D01*
X205847619Y-70699285D01*
X205942857Y-70746904D01*
X206133333Y-70794523D01*
X206371428Y-70794523D01*
X206561904Y-70746904D01*
X206657142Y-70699285D01*
X206704761Y-70651666D01*
X206752380Y-70556428D01*
X206752380Y-70461190D01*
X206704761Y-70365952D01*
X206657142Y-70318333D01*
X206561904Y-70270714D01*
X206371428Y-70223095D01*
X206133333Y-70223095D01*
X205942857Y-70270714D01*
X205847619Y-70318333D01*
X205800000Y-70365952D01*
X205752380Y-70461190D01*
X205752380Y-71127857D02*
X205752380Y-71746904D01*
X206133333Y-71413571D01*
X206133333Y-71556428D01*
X206180952Y-71651666D01*
X206228571Y-71699285D01*
X206323809Y-71746904D01*
X206561904Y-71746904D01*
X206657142Y-71699285D01*
X206704761Y-71651666D01*
X206752380Y-71556428D01*
X206752380Y-71270714D01*
X206704761Y-71175476D01*
X206657142Y-71127857D01*
X206180952Y-72318333D02*
X206133333Y-72223095D01*
X206085714Y-72175476D01*
X205990476Y-72127857D01*
X205942857Y-72127857D01*
X205847619Y-72175476D01*
X205800000Y-72223095D01*
X205752380Y-72318333D01*
X205752380Y-72508809D01*
X205800000Y-72604047D01*
X205847619Y-72651666D01*
X205942857Y-72699285D01*
X205990476Y-72699285D01*
X206085714Y-72651666D01*
X206133333Y-72604047D01*
X206180952Y-72508809D01*
X206180952Y-72318333D01*
X206228571Y-72223095D01*
X206276190Y-72175476D01*
X206371428Y-72127857D01*
X206561904Y-72127857D01*
X206657142Y-72175476D01*
X206704761Y-72223095D01*
X206752380Y-72318333D01*
X206752380Y-72508809D01*
X206704761Y-72604047D01*
X206657142Y-72651666D01*
X206561904Y-72699285D01*
X206371428Y-72699285D01*
X206276190Y-72651666D01*
X206228571Y-72604047D01*
X206180952Y-72508809D01*
%TO.C,C2039*%
X212372142Y-68889761D02*
X212419761Y-68842142D01*
X212467380Y-68699285D01*
X212467380Y-68604047D01*
X212419761Y-68461190D01*
X212324523Y-68365952D01*
X212229285Y-68318333D01*
X212038809Y-68270714D01*
X211895952Y-68270714D01*
X211705476Y-68318333D01*
X211610238Y-68365952D01*
X211515000Y-68461190D01*
X211467380Y-68604047D01*
X211467380Y-68699285D01*
X211515000Y-68842142D01*
X211562619Y-68889761D01*
X211562619Y-69270714D02*
X211515000Y-69318333D01*
X211467380Y-69413571D01*
X211467380Y-69651666D01*
X211515000Y-69746904D01*
X211562619Y-69794523D01*
X211657857Y-69842142D01*
X211753095Y-69842142D01*
X211895952Y-69794523D01*
X212467380Y-69223095D01*
X212467380Y-69842142D01*
X211467380Y-70461190D02*
X211467380Y-70556428D01*
X211515000Y-70651666D01*
X211562619Y-70699285D01*
X211657857Y-70746904D01*
X211848333Y-70794523D01*
X212086428Y-70794523D01*
X212276904Y-70746904D01*
X212372142Y-70699285D01*
X212419761Y-70651666D01*
X212467380Y-70556428D01*
X212467380Y-70461190D01*
X212419761Y-70365952D01*
X212372142Y-70318333D01*
X212276904Y-70270714D01*
X212086428Y-70223095D01*
X211848333Y-70223095D01*
X211657857Y-70270714D01*
X211562619Y-70318333D01*
X211515000Y-70365952D01*
X211467380Y-70461190D01*
X211467380Y-71127857D02*
X211467380Y-71746904D01*
X211848333Y-71413571D01*
X211848333Y-71556428D01*
X211895952Y-71651666D01*
X211943571Y-71699285D01*
X212038809Y-71746904D01*
X212276904Y-71746904D01*
X212372142Y-71699285D01*
X212419761Y-71651666D01*
X212467380Y-71556428D01*
X212467380Y-71270714D01*
X212419761Y-71175476D01*
X212372142Y-71127857D01*
X212467380Y-72223095D02*
X212467380Y-72413571D01*
X212419761Y-72508809D01*
X212372142Y-72556428D01*
X212229285Y-72651666D01*
X212038809Y-72699285D01*
X211657857Y-72699285D01*
X211562619Y-72651666D01*
X211515000Y-72604047D01*
X211467380Y-72508809D01*
X211467380Y-72318333D01*
X211515000Y-72223095D01*
X211562619Y-72175476D01*
X211657857Y-72127857D01*
X211895952Y-72127857D01*
X211991190Y-72175476D01*
X212038809Y-72223095D01*
X212086428Y-72318333D01*
X212086428Y-72508809D01*
X212038809Y-72604047D01*
X211991190Y-72651666D01*
X211895952Y-72699285D01*
%TO.C,C2041*%
X192922142Y-68889761D02*
X192969761Y-68842142D01*
X193017380Y-68699285D01*
X193017380Y-68604047D01*
X192969761Y-68461190D01*
X192874523Y-68365952D01*
X192779285Y-68318333D01*
X192588809Y-68270714D01*
X192445952Y-68270714D01*
X192255476Y-68318333D01*
X192160238Y-68365952D01*
X192065000Y-68461190D01*
X192017380Y-68604047D01*
X192017380Y-68699285D01*
X192065000Y-68842142D01*
X192112619Y-68889761D01*
X192112619Y-69270714D02*
X192065000Y-69318333D01*
X192017380Y-69413571D01*
X192017380Y-69651666D01*
X192065000Y-69746904D01*
X192112619Y-69794523D01*
X192207857Y-69842142D01*
X192303095Y-69842142D01*
X192445952Y-69794523D01*
X193017380Y-69223095D01*
X193017380Y-69842142D01*
X192017380Y-70461190D02*
X192017380Y-70556428D01*
X192065000Y-70651666D01*
X192112619Y-70699285D01*
X192207857Y-70746904D01*
X192398333Y-70794523D01*
X192636428Y-70794523D01*
X192826904Y-70746904D01*
X192922142Y-70699285D01*
X192969761Y-70651666D01*
X193017380Y-70556428D01*
X193017380Y-70461190D01*
X192969761Y-70365952D01*
X192922142Y-70318333D01*
X192826904Y-70270714D01*
X192636428Y-70223095D01*
X192398333Y-70223095D01*
X192207857Y-70270714D01*
X192112619Y-70318333D01*
X192065000Y-70365952D01*
X192017380Y-70461190D01*
X192350714Y-71651666D02*
X193017380Y-71651666D01*
X191969761Y-71413571D02*
X192684047Y-71175476D01*
X192684047Y-71794523D01*
X193017380Y-72699285D02*
X193017380Y-72127857D01*
X193017380Y-72413571D02*
X192017380Y-72413571D01*
X192160238Y-72318333D01*
X192255476Y-72223095D01*
X192303095Y-72127857D01*
%TO.C,C2042*%
X195462142Y-68889761D02*
X195509761Y-68842142D01*
X195557380Y-68699285D01*
X195557380Y-68604047D01*
X195509761Y-68461190D01*
X195414523Y-68365952D01*
X195319285Y-68318333D01*
X195128809Y-68270714D01*
X194985952Y-68270714D01*
X194795476Y-68318333D01*
X194700238Y-68365952D01*
X194605000Y-68461190D01*
X194557380Y-68604047D01*
X194557380Y-68699285D01*
X194605000Y-68842142D01*
X194652619Y-68889761D01*
X194652619Y-69270714D02*
X194605000Y-69318333D01*
X194557380Y-69413571D01*
X194557380Y-69651666D01*
X194605000Y-69746904D01*
X194652619Y-69794523D01*
X194747857Y-69842142D01*
X194843095Y-69842142D01*
X194985952Y-69794523D01*
X195557380Y-69223095D01*
X195557380Y-69842142D01*
X194557380Y-70461190D02*
X194557380Y-70556428D01*
X194605000Y-70651666D01*
X194652619Y-70699285D01*
X194747857Y-70746904D01*
X194938333Y-70794523D01*
X195176428Y-70794523D01*
X195366904Y-70746904D01*
X195462142Y-70699285D01*
X195509761Y-70651666D01*
X195557380Y-70556428D01*
X195557380Y-70461190D01*
X195509761Y-70365952D01*
X195462142Y-70318333D01*
X195366904Y-70270714D01*
X195176428Y-70223095D01*
X194938333Y-70223095D01*
X194747857Y-70270714D01*
X194652619Y-70318333D01*
X194605000Y-70365952D01*
X194557380Y-70461190D01*
X194890714Y-71651666D02*
X195557380Y-71651666D01*
X194509761Y-71413571D02*
X195224047Y-71175476D01*
X195224047Y-71794523D01*
X194652619Y-72127857D02*
X194605000Y-72175476D01*
X194557380Y-72270714D01*
X194557380Y-72508809D01*
X194605000Y-72604047D01*
X194652619Y-72651666D01*
X194747857Y-72699285D01*
X194843095Y-72699285D01*
X194985952Y-72651666D01*
X195557380Y-72080238D01*
X195557380Y-72699285D01*
%TO.C,R2001*%
X171140380Y-104576761D02*
X170664190Y-104243428D01*
X171140380Y-104005333D02*
X170140380Y-104005333D01*
X170140380Y-104386285D01*
X170188000Y-104481523D01*
X170235619Y-104529142D01*
X170330857Y-104576761D01*
X170473714Y-104576761D01*
X170568952Y-104529142D01*
X170616571Y-104481523D01*
X170664190Y-104386285D01*
X170664190Y-104005333D01*
X170235619Y-104957714D02*
X170188000Y-105005333D01*
X170140380Y-105100571D01*
X170140380Y-105338666D01*
X170188000Y-105433904D01*
X170235619Y-105481523D01*
X170330857Y-105529142D01*
X170426095Y-105529142D01*
X170568952Y-105481523D01*
X171140380Y-104910095D01*
X171140380Y-105529142D01*
X170140380Y-106148190D02*
X170140380Y-106243428D01*
X170188000Y-106338666D01*
X170235619Y-106386285D01*
X170330857Y-106433904D01*
X170521333Y-106481523D01*
X170759428Y-106481523D01*
X170949904Y-106433904D01*
X171045142Y-106386285D01*
X171092761Y-106338666D01*
X171140380Y-106243428D01*
X171140380Y-106148190D01*
X171092761Y-106052952D01*
X171045142Y-106005333D01*
X170949904Y-105957714D01*
X170759428Y-105910095D01*
X170521333Y-105910095D01*
X170330857Y-105957714D01*
X170235619Y-106005333D01*
X170188000Y-106052952D01*
X170140380Y-106148190D01*
X170140380Y-107100571D02*
X170140380Y-107195809D01*
X170188000Y-107291047D01*
X170235619Y-107338666D01*
X170330857Y-107386285D01*
X170521333Y-107433904D01*
X170759428Y-107433904D01*
X170949904Y-107386285D01*
X171045142Y-107338666D01*
X171092761Y-107291047D01*
X171140380Y-107195809D01*
X171140380Y-107100571D01*
X171092761Y-107005333D01*
X171045142Y-106957714D01*
X170949904Y-106910095D01*
X170759428Y-106862476D01*
X170521333Y-106862476D01*
X170330857Y-106910095D01*
X170235619Y-106957714D01*
X170188000Y-107005333D01*
X170140380Y-107100571D01*
X171140380Y-108386285D02*
X171140380Y-107814857D01*
X171140380Y-108100571D02*
X170140380Y-108100571D01*
X170283238Y-108005333D01*
X170378476Y-107910095D01*
X170426095Y-107814857D01*
%TO.C,R2002*%
X163647238Y-105100380D02*
X163980571Y-104624190D01*
X164218666Y-105100380D02*
X164218666Y-104100380D01*
X163837714Y-104100380D01*
X163742476Y-104148000D01*
X163694857Y-104195619D01*
X163647238Y-104290857D01*
X163647238Y-104433714D01*
X163694857Y-104528952D01*
X163742476Y-104576571D01*
X163837714Y-104624190D01*
X164218666Y-104624190D01*
X163266285Y-104195619D02*
X163218666Y-104148000D01*
X163123428Y-104100380D01*
X162885333Y-104100380D01*
X162790095Y-104148000D01*
X162742476Y-104195619D01*
X162694857Y-104290857D01*
X162694857Y-104386095D01*
X162742476Y-104528952D01*
X163313904Y-105100380D01*
X162694857Y-105100380D01*
X162075809Y-104100380D02*
X161980571Y-104100380D01*
X161885333Y-104148000D01*
X161837714Y-104195619D01*
X161790095Y-104290857D01*
X161742476Y-104481333D01*
X161742476Y-104719428D01*
X161790095Y-104909904D01*
X161837714Y-105005142D01*
X161885333Y-105052761D01*
X161980571Y-105100380D01*
X162075809Y-105100380D01*
X162171047Y-105052761D01*
X162218666Y-105005142D01*
X162266285Y-104909904D01*
X162313904Y-104719428D01*
X162313904Y-104481333D01*
X162266285Y-104290857D01*
X162218666Y-104195619D01*
X162171047Y-104148000D01*
X162075809Y-104100380D01*
X161123428Y-104100380D02*
X161028190Y-104100380D01*
X160932952Y-104148000D01*
X160885333Y-104195619D01*
X160837714Y-104290857D01*
X160790095Y-104481333D01*
X160790095Y-104719428D01*
X160837714Y-104909904D01*
X160885333Y-105005142D01*
X160932952Y-105052761D01*
X161028190Y-105100380D01*
X161123428Y-105100380D01*
X161218666Y-105052761D01*
X161266285Y-105005142D01*
X161313904Y-104909904D01*
X161361523Y-104719428D01*
X161361523Y-104481333D01*
X161313904Y-104290857D01*
X161266285Y-104195619D01*
X161218666Y-104148000D01*
X161123428Y-104100380D01*
X160409142Y-104195619D02*
X160361523Y-104148000D01*
X160266285Y-104100380D01*
X160028190Y-104100380D01*
X159932952Y-104148000D01*
X159885333Y-104195619D01*
X159837714Y-104290857D01*
X159837714Y-104386095D01*
X159885333Y-104528952D01*
X160456761Y-105100380D01*
X159837714Y-105100380D01*
%TO.C,R2003*%
X163647238Y-107894380D02*
X163980571Y-107418190D01*
X164218666Y-107894380D02*
X164218666Y-106894380D01*
X163837714Y-106894380D01*
X163742476Y-106942000D01*
X163694857Y-106989619D01*
X163647238Y-107084857D01*
X163647238Y-107227714D01*
X163694857Y-107322952D01*
X163742476Y-107370571D01*
X163837714Y-107418190D01*
X164218666Y-107418190D01*
X163266285Y-106989619D02*
X163218666Y-106942000D01*
X163123428Y-106894380D01*
X162885333Y-106894380D01*
X162790095Y-106942000D01*
X162742476Y-106989619D01*
X162694857Y-107084857D01*
X162694857Y-107180095D01*
X162742476Y-107322952D01*
X163313904Y-107894380D01*
X162694857Y-107894380D01*
X162075809Y-106894380D02*
X161980571Y-106894380D01*
X161885333Y-106942000D01*
X161837714Y-106989619D01*
X161790095Y-107084857D01*
X161742476Y-107275333D01*
X161742476Y-107513428D01*
X161790095Y-107703904D01*
X161837714Y-107799142D01*
X161885333Y-107846761D01*
X161980571Y-107894380D01*
X162075809Y-107894380D01*
X162171047Y-107846761D01*
X162218666Y-107799142D01*
X162266285Y-107703904D01*
X162313904Y-107513428D01*
X162313904Y-107275333D01*
X162266285Y-107084857D01*
X162218666Y-106989619D01*
X162171047Y-106942000D01*
X162075809Y-106894380D01*
X161123428Y-106894380D02*
X161028190Y-106894380D01*
X160932952Y-106942000D01*
X160885333Y-106989619D01*
X160837714Y-107084857D01*
X160790095Y-107275333D01*
X160790095Y-107513428D01*
X160837714Y-107703904D01*
X160885333Y-107799142D01*
X160932952Y-107846761D01*
X161028190Y-107894380D01*
X161123428Y-107894380D01*
X161218666Y-107846761D01*
X161266285Y-107799142D01*
X161313904Y-107703904D01*
X161361523Y-107513428D01*
X161361523Y-107275333D01*
X161313904Y-107084857D01*
X161266285Y-106989619D01*
X161218666Y-106942000D01*
X161123428Y-106894380D01*
X160456761Y-106894380D02*
X159837714Y-106894380D01*
X160171047Y-107275333D01*
X160028190Y-107275333D01*
X159932952Y-107322952D01*
X159885333Y-107370571D01*
X159837714Y-107465809D01*
X159837714Y-107703904D01*
X159885333Y-107799142D01*
X159932952Y-107846761D01*
X160028190Y-107894380D01*
X160313904Y-107894380D01*
X160409142Y-107846761D01*
X160456761Y-107799142D01*
%TO.C,R2005*%
X171140380Y-76636761D02*
X170664190Y-76303428D01*
X171140380Y-76065333D02*
X170140380Y-76065333D01*
X170140380Y-76446285D01*
X170188000Y-76541523D01*
X170235619Y-76589142D01*
X170330857Y-76636761D01*
X170473714Y-76636761D01*
X170568952Y-76589142D01*
X170616571Y-76541523D01*
X170664190Y-76446285D01*
X170664190Y-76065333D01*
X170235619Y-77017714D02*
X170188000Y-77065333D01*
X170140380Y-77160571D01*
X170140380Y-77398666D01*
X170188000Y-77493904D01*
X170235619Y-77541523D01*
X170330857Y-77589142D01*
X170426095Y-77589142D01*
X170568952Y-77541523D01*
X171140380Y-76970095D01*
X171140380Y-77589142D01*
X170140380Y-78208190D02*
X170140380Y-78303428D01*
X170188000Y-78398666D01*
X170235619Y-78446285D01*
X170330857Y-78493904D01*
X170521333Y-78541523D01*
X170759428Y-78541523D01*
X170949904Y-78493904D01*
X171045142Y-78446285D01*
X171092761Y-78398666D01*
X171140380Y-78303428D01*
X171140380Y-78208190D01*
X171092761Y-78112952D01*
X171045142Y-78065333D01*
X170949904Y-78017714D01*
X170759428Y-77970095D01*
X170521333Y-77970095D01*
X170330857Y-78017714D01*
X170235619Y-78065333D01*
X170188000Y-78112952D01*
X170140380Y-78208190D01*
X170140380Y-79160571D02*
X170140380Y-79255809D01*
X170188000Y-79351047D01*
X170235619Y-79398666D01*
X170330857Y-79446285D01*
X170521333Y-79493904D01*
X170759428Y-79493904D01*
X170949904Y-79446285D01*
X171045142Y-79398666D01*
X171092761Y-79351047D01*
X171140380Y-79255809D01*
X171140380Y-79160571D01*
X171092761Y-79065333D01*
X171045142Y-79017714D01*
X170949904Y-78970095D01*
X170759428Y-78922476D01*
X170521333Y-78922476D01*
X170330857Y-78970095D01*
X170235619Y-79017714D01*
X170188000Y-79065333D01*
X170140380Y-79160571D01*
X170140380Y-80398666D02*
X170140380Y-79922476D01*
X170616571Y-79874857D01*
X170568952Y-79922476D01*
X170521333Y-80017714D01*
X170521333Y-80255809D01*
X170568952Y-80351047D01*
X170616571Y-80398666D01*
X170711809Y-80446285D01*
X170949904Y-80446285D01*
X171045142Y-80398666D01*
X171092761Y-80351047D01*
X171140380Y-80255809D01*
X171140380Y-80017714D01*
X171092761Y-79922476D01*
X171045142Y-79874857D01*
%TO.C,R2006*%
X162885238Y-77414380D02*
X163218571Y-76938190D01*
X163456666Y-77414380D02*
X163456666Y-76414380D01*
X163075714Y-76414380D01*
X162980476Y-76462000D01*
X162932857Y-76509619D01*
X162885238Y-76604857D01*
X162885238Y-76747714D01*
X162932857Y-76842952D01*
X162980476Y-76890571D01*
X163075714Y-76938190D01*
X163456666Y-76938190D01*
X162504285Y-76509619D02*
X162456666Y-76462000D01*
X162361428Y-76414380D01*
X162123333Y-76414380D01*
X162028095Y-76462000D01*
X161980476Y-76509619D01*
X161932857Y-76604857D01*
X161932857Y-76700095D01*
X161980476Y-76842952D01*
X162551904Y-77414380D01*
X161932857Y-77414380D01*
X161313809Y-76414380D02*
X161218571Y-76414380D01*
X161123333Y-76462000D01*
X161075714Y-76509619D01*
X161028095Y-76604857D01*
X160980476Y-76795333D01*
X160980476Y-77033428D01*
X161028095Y-77223904D01*
X161075714Y-77319142D01*
X161123333Y-77366761D01*
X161218571Y-77414380D01*
X161313809Y-77414380D01*
X161409047Y-77366761D01*
X161456666Y-77319142D01*
X161504285Y-77223904D01*
X161551904Y-77033428D01*
X161551904Y-76795333D01*
X161504285Y-76604857D01*
X161456666Y-76509619D01*
X161409047Y-76462000D01*
X161313809Y-76414380D01*
X160361428Y-76414380D02*
X160266190Y-76414380D01*
X160170952Y-76462000D01*
X160123333Y-76509619D01*
X160075714Y-76604857D01*
X160028095Y-76795333D01*
X160028095Y-77033428D01*
X160075714Y-77223904D01*
X160123333Y-77319142D01*
X160170952Y-77366761D01*
X160266190Y-77414380D01*
X160361428Y-77414380D01*
X160456666Y-77366761D01*
X160504285Y-77319142D01*
X160551904Y-77223904D01*
X160599523Y-77033428D01*
X160599523Y-76795333D01*
X160551904Y-76604857D01*
X160504285Y-76509619D01*
X160456666Y-76462000D01*
X160361428Y-76414380D01*
X159170952Y-76414380D02*
X159361428Y-76414380D01*
X159456666Y-76462000D01*
X159504285Y-76509619D01*
X159599523Y-76652476D01*
X159647142Y-76842952D01*
X159647142Y-77223904D01*
X159599523Y-77319142D01*
X159551904Y-77366761D01*
X159456666Y-77414380D01*
X159266190Y-77414380D01*
X159170952Y-77366761D01*
X159123333Y-77319142D01*
X159075714Y-77223904D01*
X159075714Y-76985809D01*
X159123333Y-76890571D01*
X159170952Y-76842952D01*
X159266190Y-76795333D01*
X159456666Y-76795333D01*
X159551904Y-76842952D01*
X159599523Y-76890571D01*
X159647142Y-76985809D01*
%TO.C,R2007*%
X162885238Y-79700380D02*
X163218571Y-79224190D01*
X163456666Y-79700380D02*
X163456666Y-78700380D01*
X163075714Y-78700380D01*
X162980476Y-78748000D01*
X162932857Y-78795619D01*
X162885238Y-78890857D01*
X162885238Y-79033714D01*
X162932857Y-79128952D01*
X162980476Y-79176571D01*
X163075714Y-79224190D01*
X163456666Y-79224190D01*
X162504285Y-78795619D02*
X162456666Y-78748000D01*
X162361428Y-78700380D01*
X162123333Y-78700380D01*
X162028095Y-78748000D01*
X161980476Y-78795619D01*
X161932857Y-78890857D01*
X161932857Y-78986095D01*
X161980476Y-79128952D01*
X162551904Y-79700380D01*
X161932857Y-79700380D01*
X161313809Y-78700380D02*
X161218571Y-78700380D01*
X161123333Y-78748000D01*
X161075714Y-78795619D01*
X161028095Y-78890857D01*
X160980476Y-79081333D01*
X160980476Y-79319428D01*
X161028095Y-79509904D01*
X161075714Y-79605142D01*
X161123333Y-79652761D01*
X161218571Y-79700380D01*
X161313809Y-79700380D01*
X161409047Y-79652761D01*
X161456666Y-79605142D01*
X161504285Y-79509904D01*
X161551904Y-79319428D01*
X161551904Y-79081333D01*
X161504285Y-78890857D01*
X161456666Y-78795619D01*
X161409047Y-78748000D01*
X161313809Y-78700380D01*
X160361428Y-78700380D02*
X160266190Y-78700380D01*
X160170952Y-78748000D01*
X160123333Y-78795619D01*
X160075714Y-78890857D01*
X160028095Y-79081333D01*
X160028095Y-79319428D01*
X160075714Y-79509904D01*
X160123333Y-79605142D01*
X160170952Y-79652761D01*
X160266190Y-79700380D01*
X160361428Y-79700380D01*
X160456666Y-79652761D01*
X160504285Y-79605142D01*
X160551904Y-79509904D01*
X160599523Y-79319428D01*
X160599523Y-79081333D01*
X160551904Y-78890857D01*
X160504285Y-78795619D01*
X160456666Y-78748000D01*
X160361428Y-78700380D01*
X159694761Y-78700380D02*
X159028095Y-78700380D01*
X159456666Y-79700380D01*
%TO.C,R2009*%
X207208380Y-104576761D02*
X206732190Y-104243428D01*
X207208380Y-104005333D02*
X206208380Y-104005333D01*
X206208380Y-104386285D01*
X206256000Y-104481523D01*
X206303619Y-104529142D01*
X206398857Y-104576761D01*
X206541714Y-104576761D01*
X206636952Y-104529142D01*
X206684571Y-104481523D01*
X206732190Y-104386285D01*
X206732190Y-104005333D01*
X206303619Y-104957714D02*
X206256000Y-105005333D01*
X206208380Y-105100571D01*
X206208380Y-105338666D01*
X206256000Y-105433904D01*
X206303619Y-105481523D01*
X206398857Y-105529142D01*
X206494095Y-105529142D01*
X206636952Y-105481523D01*
X207208380Y-104910095D01*
X207208380Y-105529142D01*
X206208380Y-106148190D02*
X206208380Y-106243428D01*
X206256000Y-106338666D01*
X206303619Y-106386285D01*
X206398857Y-106433904D01*
X206589333Y-106481523D01*
X206827428Y-106481523D01*
X207017904Y-106433904D01*
X207113142Y-106386285D01*
X207160761Y-106338666D01*
X207208380Y-106243428D01*
X207208380Y-106148190D01*
X207160761Y-106052952D01*
X207113142Y-106005333D01*
X207017904Y-105957714D01*
X206827428Y-105910095D01*
X206589333Y-105910095D01*
X206398857Y-105957714D01*
X206303619Y-106005333D01*
X206256000Y-106052952D01*
X206208380Y-106148190D01*
X206208380Y-107100571D02*
X206208380Y-107195809D01*
X206256000Y-107291047D01*
X206303619Y-107338666D01*
X206398857Y-107386285D01*
X206589333Y-107433904D01*
X206827428Y-107433904D01*
X207017904Y-107386285D01*
X207113142Y-107338666D01*
X207160761Y-107291047D01*
X207208380Y-107195809D01*
X207208380Y-107100571D01*
X207160761Y-107005333D01*
X207113142Y-106957714D01*
X207017904Y-106910095D01*
X206827428Y-106862476D01*
X206589333Y-106862476D01*
X206398857Y-106910095D01*
X206303619Y-106957714D01*
X206256000Y-107005333D01*
X206208380Y-107100571D01*
X207208380Y-107910095D02*
X207208380Y-108100571D01*
X207160761Y-108195809D01*
X207113142Y-108243428D01*
X206970285Y-108338666D01*
X206779809Y-108386285D01*
X206398857Y-108386285D01*
X206303619Y-108338666D01*
X206256000Y-108291047D01*
X206208380Y-108195809D01*
X206208380Y-108005333D01*
X206256000Y-107910095D01*
X206303619Y-107862476D01*
X206398857Y-107814857D01*
X206636952Y-107814857D01*
X206732190Y-107862476D01*
X206779809Y-107910095D01*
X206827428Y-108005333D01*
X206827428Y-108195809D01*
X206779809Y-108291047D01*
X206732190Y-108338666D01*
X206636952Y-108386285D01*
%TO.C,R2010*%
X199715238Y-105608380D02*
X200048571Y-105132190D01*
X200286666Y-105608380D02*
X200286666Y-104608380D01*
X199905714Y-104608380D01*
X199810476Y-104656000D01*
X199762857Y-104703619D01*
X199715238Y-104798857D01*
X199715238Y-104941714D01*
X199762857Y-105036952D01*
X199810476Y-105084571D01*
X199905714Y-105132190D01*
X200286666Y-105132190D01*
X199334285Y-104703619D02*
X199286666Y-104656000D01*
X199191428Y-104608380D01*
X198953333Y-104608380D01*
X198858095Y-104656000D01*
X198810476Y-104703619D01*
X198762857Y-104798857D01*
X198762857Y-104894095D01*
X198810476Y-105036952D01*
X199381904Y-105608380D01*
X198762857Y-105608380D01*
X198143809Y-104608380D02*
X198048571Y-104608380D01*
X197953333Y-104656000D01*
X197905714Y-104703619D01*
X197858095Y-104798857D01*
X197810476Y-104989333D01*
X197810476Y-105227428D01*
X197858095Y-105417904D01*
X197905714Y-105513142D01*
X197953333Y-105560761D01*
X198048571Y-105608380D01*
X198143809Y-105608380D01*
X198239047Y-105560761D01*
X198286666Y-105513142D01*
X198334285Y-105417904D01*
X198381904Y-105227428D01*
X198381904Y-104989333D01*
X198334285Y-104798857D01*
X198286666Y-104703619D01*
X198239047Y-104656000D01*
X198143809Y-104608380D01*
X196858095Y-105608380D02*
X197429523Y-105608380D01*
X197143809Y-105608380D02*
X197143809Y-104608380D01*
X197239047Y-104751238D01*
X197334285Y-104846476D01*
X197429523Y-104894095D01*
X196239047Y-104608380D02*
X196143809Y-104608380D01*
X196048571Y-104656000D01*
X196000952Y-104703619D01*
X195953333Y-104798857D01*
X195905714Y-104989333D01*
X195905714Y-105227428D01*
X195953333Y-105417904D01*
X196000952Y-105513142D01*
X196048571Y-105560761D01*
X196143809Y-105608380D01*
X196239047Y-105608380D01*
X196334285Y-105560761D01*
X196381904Y-105513142D01*
X196429523Y-105417904D01*
X196477142Y-105227428D01*
X196477142Y-104989333D01*
X196429523Y-104798857D01*
X196381904Y-104703619D01*
X196334285Y-104656000D01*
X196239047Y-104608380D01*
%TO.C,R2011*%
X199715238Y-107894380D02*
X200048571Y-107418190D01*
X200286666Y-107894380D02*
X200286666Y-106894380D01*
X199905714Y-106894380D01*
X199810476Y-106942000D01*
X199762857Y-106989619D01*
X199715238Y-107084857D01*
X199715238Y-107227714D01*
X199762857Y-107322952D01*
X199810476Y-107370571D01*
X199905714Y-107418190D01*
X200286666Y-107418190D01*
X199334285Y-106989619D02*
X199286666Y-106942000D01*
X199191428Y-106894380D01*
X198953333Y-106894380D01*
X198858095Y-106942000D01*
X198810476Y-106989619D01*
X198762857Y-107084857D01*
X198762857Y-107180095D01*
X198810476Y-107322952D01*
X199381904Y-107894380D01*
X198762857Y-107894380D01*
X198143809Y-106894380D02*
X198048571Y-106894380D01*
X197953333Y-106942000D01*
X197905714Y-106989619D01*
X197858095Y-107084857D01*
X197810476Y-107275333D01*
X197810476Y-107513428D01*
X197858095Y-107703904D01*
X197905714Y-107799142D01*
X197953333Y-107846761D01*
X198048571Y-107894380D01*
X198143809Y-107894380D01*
X198239047Y-107846761D01*
X198286666Y-107799142D01*
X198334285Y-107703904D01*
X198381904Y-107513428D01*
X198381904Y-107275333D01*
X198334285Y-107084857D01*
X198286666Y-106989619D01*
X198239047Y-106942000D01*
X198143809Y-106894380D01*
X196858095Y-107894380D02*
X197429523Y-107894380D01*
X197143809Y-107894380D02*
X197143809Y-106894380D01*
X197239047Y-107037238D01*
X197334285Y-107132476D01*
X197429523Y-107180095D01*
X195905714Y-107894380D02*
X196477142Y-107894380D01*
X196191428Y-107894380D02*
X196191428Y-106894380D01*
X196286666Y-107037238D01*
X196381904Y-107132476D01*
X196477142Y-107180095D01*
%TO.C,R2013*%
X209240380Y-76509761D02*
X208764190Y-76176428D01*
X209240380Y-75938333D02*
X208240380Y-75938333D01*
X208240380Y-76319285D01*
X208288000Y-76414523D01*
X208335619Y-76462142D01*
X208430857Y-76509761D01*
X208573714Y-76509761D01*
X208668952Y-76462142D01*
X208716571Y-76414523D01*
X208764190Y-76319285D01*
X208764190Y-75938333D01*
X208335619Y-76890714D02*
X208288000Y-76938333D01*
X208240380Y-77033571D01*
X208240380Y-77271666D01*
X208288000Y-77366904D01*
X208335619Y-77414523D01*
X208430857Y-77462142D01*
X208526095Y-77462142D01*
X208668952Y-77414523D01*
X209240380Y-76843095D01*
X209240380Y-77462142D01*
X208240380Y-78081190D02*
X208240380Y-78176428D01*
X208288000Y-78271666D01*
X208335619Y-78319285D01*
X208430857Y-78366904D01*
X208621333Y-78414523D01*
X208859428Y-78414523D01*
X209049904Y-78366904D01*
X209145142Y-78319285D01*
X209192761Y-78271666D01*
X209240380Y-78176428D01*
X209240380Y-78081190D01*
X209192761Y-77985952D01*
X209145142Y-77938333D01*
X209049904Y-77890714D01*
X208859428Y-77843095D01*
X208621333Y-77843095D01*
X208430857Y-77890714D01*
X208335619Y-77938333D01*
X208288000Y-77985952D01*
X208240380Y-78081190D01*
X209240380Y-79366904D02*
X209240380Y-78795476D01*
X209240380Y-79081190D02*
X208240380Y-79081190D01*
X208383238Y-78985952D01*
X208478476Y-78890714D01*
X208526095Y-78795476D01*
X208240380Y-79700238D02*
X208240380Y-80319285D01*
X208621333Y-79985952D01*
X208621333Y-80128809D01*
X208668952Y-80224047D01*
X208716571Y-80271666D01*
X208811809Y-80319285D01*
X209049904Y-80319285D01*
X209145142Y-80271666D01*
X209192761Y-80224047D01*
X209240380Y-80128809D01*
X209240380Y-79843095D01*
X209192761Y-79747857D01*
X209145142Y-79700238D01*
%TO.C,R2014*%
X200731238Y-77414380D02*
X201064571Y-76938190D01*
X201302666Y-77414380D02*
X201302666Y-76414380D01*
X200921714Y-76414380D01*
X200826476Y-76462000D01*
X200778857Y-76509619D01*
X200731238Y-76604857D01*
X200731238Y-76747714D01*
X200778857Y-76842952D01*
X200826476Y-76890571D01*
X200921714Y-76938190D01*
X201302666Y-76938190D01*
X200350285Y-76509619D02*
X200302666Y-76462000D01*
X200207428Y-76414380D01*
X199969333Y-76414380D01*
X199874095Y-76462000D01*
X199826476Y-76509619D01*
X199778857Y-76604857D01*
X199778857Y-76700095D01*
X199826476Y-76842952D01*
X200397904Y-77414380D01*
X199778857Y-77414380D01*
X199159809Y-76414380D02*
X199064571Y-76414380D01*
X198969333Y-76462000D01*
X198921714Y-76509619D01*
X198874095Y-76604857D01*
X198826476Y-76795333D01*
X198826476Y-77033428D01*
X198874095Y-77223904D01*
X198921714Y-77319142D01*
X198969333Y-77366761D01*
X199064571Y-77414380D01*
X199159809Y-77414380D01*
X199255047Y-77366761D01*
X199302666Y-77319142D01*
X199350285Y-77223904D01*
X199397904Y-77033428D01*
X199397904Y-76795333D01*
X199350285Y-76604857D01*
X199302666Y-76509619D01*
X199255047Y-76462000D01*
X199159809Y-76414380D01*
X197874095Y-77414380D02*
X198445523Y-77414380D01*
X198159809Y-77414380D02*
X198159809Y-76414380D01*
X198255047Y-76557238D01*
X198350285Y-76652476D01*
X198445523Y-76700095D01*
X197016952Y-76747714D02*
X197016952Y-77414380D01*
X197255047Y-76366761D02*
X197493142Y-77081047D01*
X196874095Y-77081047D01*
%TO.C,R2015*%
X200731238Y-79700380D02*
X201064571Y-79224190D01*
X201302666Y-79700380D02*
X201302666Y-78700380D01*
X200921714Y-78700380D01*
X200826476Y-78748000D01*
X200778857Y-78795619D01*
X200731238Y-78890857D01*
X200731238Y-79033714D01*
X200778857Y-79128952D01*
X200826476Y-79176571D01*
X200921714Y-79224190D01*
X201302666Y-79224190D01*
X200350285Y-78795619D02*
X200302666Y-78748000D01*
X200207428Y-78700380D01*
X199969333Y-78700380D01*
X199874095Y-78748000D01*
X199826476Y-78795619D01*
X199778857Y-78890857D01*
X199778857Y-78986095D01*
X199826476Y-79128952D01*
X200397904Y-79700380D01*
X199778857Y-79700380D01*
X199159809Y-78700380D02*
X199064571Y-78700380D01*
X198969333Y-78748000D01*
X198921714Y-78795619D01*
X198874095Y-78890857D01*
X198826476Y-79081333D01*
X198826476Y-79319428D01*
X198874095Y-79509904D01*
X198921714Y-79605142D01*
X198969333Y-79652761D01*
X199064571Y-79700380D01*
X199159809Y-79700380D01*
X199255047Y-79652761D01*
X199302666Y-79605142D01*
X199350285Y-79509904D01*
X199397904Y-79319428D01*
X199397904Y-79081333D01*
X199350285Y-78890857D01*
X199302666Y-78795619D01*
X199255047Y-78748000D01*
X199159809Y-78700380D01*
X197874095Y-79700380D02*
X198445523Y-79700380D01*
X198159809Y-79700380D02*
X198159809Y-78700380D01*
X198255047Y-78843238D01*
X198350285Y-78938476D01*
X198445523Y-78986095D01*
X196969333Y-78700380D02*
X197445523Y-78700380D01*
X197493142Y-79176571D01*
X197445523Y-79128952D01*
X197350285Y-79081333D01*
X197112190Y-79081333D01*
X197016952Y-79128952D01*
X196969333Y-79176571D01*
X196921714Y-79271809D01*
X196921714Y-79509904D01*
X196969333Y-79605142D01*
X197016952Y-79652761D01*
X197112190Y-79700380D01*
X197350285Y-79700380D01*
X197445523Y-79652761D01*
X197493142Y-79605142D01*
%TO.C,C2007*%
X174907142Y-97464761D02*
X174954761Y-97417142D01*
X175002380Y-97274285D01*
X175002380Y-97179047D01*
X174954761Y-97036190D01*
X174859523Y-96940952D01*
X174764285Y-96893333D01*
X174573809Y-96845714D01*
X174430952Y-96845714D01*
X174240476Y-96893333D01*
X174145238Y-96940952D01*
X174050000Y-97036190D01*
X174002380Y-97179047D01*
X174002380Y-97274285D01*
X174050000Y-97417142D01*
X174097619Y-97464761D01*
X174097619Y-97845714D02*
X174050000Y-97893333D01*
X174002380Y-97988571D01*
X174002380Y-98226666D01*
X174050000Y-98321904D01*
X174097619Y-98369523D01*
X174192857Y-98417142D01*
X174288095Y-98417142D01*
X174430952Y-98369523D01*
X175002380Y-97798095D01*
X175002380Y-98417142D01*
X174002380Y-99036190D02*
X174002380Y-99131428D01*
X174050000Y-99226666D01*
X174097619Y-99274285D01*
X174192857Y-99321904D01*
X174383333Y-99369523D01*
X174621428Y-99369523D01*
X174811904Y-99321904D01*
X174907142Y-99274285D01*
X174954761Y-99226666D01*
X175002380Y-99131428D01*
X175002380Y-99036190D01*
X174954761Y-98940952D01*
X174907142Y-98893333D01*
X174811904Y-98845714D01*
X174621428Y-98798095D01*
X174383333Y-98798095D01*
X174192857Y-98845714D01*
X174097619Y-98893333D01*
X174050000Y-98940952D01*
X174002380Y-99036190D01*
X174002380Y-99988571D02*
X174002380Y-100083809D01*
X174050000Y-100179047D01*
X174097619Y-100226666D01*
X174192857Y-100274285D01*
X174383333Y-100321904D01*
X174621428Y-100321904D01*
X174811904Y-100274285D01*
X174907142Y-100226666D01*
X174954761Y-100179047D01*
X175002380Y-100083809D01*
X175002380Y-99988571D01*
X174954761Y-99893333D01*
X174907142Y-99845714D01*
X174811904Y-99798095D01*
X174621428Y-99750476D01*
X174383333Y-99750476D01*
X174192857Y-99798095D01*
X174097619Y-99845714D01*
X174050000Y-99893333D01*
X174002380Y-99988571D01*
X174002380Y-100655238D02*
X174002380Y-101321904D01*
X175002380Y-100893333D01*
%TO.C,C2034*%
X214225142Y-83494761D02*
X214272761Y-83447142D01*
X214320380Y-83304285D01*
X214320380Y-83209047D01*
X214272761Y-83066190D01*
X214177523Y-82970952D01*
X214082285Y-82923333D01*
X213891809Y-82875714D01*
X213748952Y-82875714D01*
X213558476Y-82923333D01*
X213463238Y-82970952D01*
X213368000Y-83066190D01*
X213320380Y-83209047D01*
X213320380Y-83304285D01*
X213368000Y-83447142D01*
X213415619Y-83494761D01*
X213415619Y-83875714D02*
X213368000Y-83923333D01*
X213320380Y-84018571D01*
X213320380Y-84256666D01*
X213368000Y-84351904D01*
X213415619Y-84399523D01*
X213510857Y-84447142D01*
X213606095Y-84447142D01*
X213748952Y-84399523D01*
X214320380Y-83828095D01*
X214320380Y-84447142D01*
X213320380Y-85066190D02*
X213320380Y-85161428D01*
X213368000Y-85256666D01*
X213415619Y-85304285D01*
X213510857Y-85351904D01*
X213701333Y-85399523D01*
X213939428Y-85399523D01*
X214129904Y-85351904D01*
X214225142Y-85304285D01*
X214272761Y-85256666D01*
X214320380Y-85161428D01*
X214320380Y-85066190D01*
X214272761Y-84970952D01*
X214225142Y-84923333D01*
X214129904Y-84875714D01*
X213939428Y-84828095D01*
X213701333Y-84828095D01*
X213510857Y-84875714D01*
X213415619Y-84923333D01*
X213368000Y-84970952D01*
X213320380Y-85066190D01*
X213320380Y-85732857D02*
X213320380Y-86351904D01*
X213701333Y-86018571D01*
X213701333Y-86161428D01*
X213748952Y-86256666D01*
X213796571Y-86304285D01*
X213891809Y-86351904D01*
X214129904Y-86351904D01*
X214225142Y-86304285D01*
X214272761Y-86256666D01*
X214320380Y-86161428D01*
X214320380Y-85875714D01*
X214272761Y-85780476D01*
X214225142Y-85732857D01*
X213653714Y-87209047D02*
X214320380Y-87209047D01*
X213272761Y-86970952D02*
X213987047Y-86732857D01*
X213987047Y-87351904D01*
%TD*%
M02*
