M48
; DRILL file {KiCad 6.0.8+dfsg-1~bpo11+1} date mer. 16 nov. 2022 21:16:48
; FORMAT={-:-/ absolute / inch / decimal}
; #@! TF.CreationDate,2022-11-16T21:16:48+01:00
; #@! TF.GenerationSoftware,Kicad,Pcbnew,6.0.8+dfsg-1~bpo11+1
; #@! TF.FileFunction,Plated,1,2,PTH
FMAT,2
INCH
; #@! TA.AperFunction,Plated,PTH,ViaDrill
T1C0.0157
; #@! TA.AperFunction,Plated,PTH,ComponentDrill
T2C0.0299
; #@! TA.AperFunction,Plated,PTH,ComponentDrill
T3C0.0315
; #@! TA.AperFunction,Plated,PTH,ComponentDrill
T4C0.0390
; #@! TA.AperFunction,Plated,PTH,ComponentDrill
T5C0.0394
; #@! TA.AperFunction,Plated,PTH,ComponentDrill
T6C0.0512
%
G90
G05
T1
X4.045Y-5.44
X4.27Y-5.44
X4.575Y-3.505
X4.575Y-3.68
X4.6206Y-2.9456
X4.625Y-3.065
X4.67Y-3.78
X4.6702Y-3.6515
X4.675Y-3.205
X4.705Y-4.11
X4.725Y-2.685
X4.73Y-2.85
X4.73Y-3.555
X4.73Y-3.6515
X4.735Y-3.245
X4.775Y-3.355
X4.777Y-3.453
X4.785Y-2.39
X4.785Y-2.835
X4.805Y-3.295
X4.815Y-2.795
X4.815Y-4.53
X4.815Y-4.905
X4.825Y-3.54
X4.825Y-3.8085
X4.845Y-3.405
X4.875Y-2.345
X4.875Y-2.4
X4.88Y-4.68
X4.885Y-3.155
X4.885Y-4.3665
X4.935Y-2.76
X4.935Y-3.105
X4.935Y-3.405
X4.935Y-3.595
X4.94Y-3.245
X4.945Y-4.005
X4.945Y-4.36
X4.96Y-3.7096
X4.9749Y-3.5685
X4.9864Y-4.3385
X4.9864Y-3.6332
X5.0077Y-3.3146
X5.035Y-3.055
X5.035Y-3.255
X5.0544Y-2.9506
X5.055Y-3.715
X5.055Y-4.01
X5.055Y-4.895
X5.1012Y-5.0988
X5.15Y-5.24
X5.225Y-3.68
X5.26Y-4.96
X5.27Y-2.93
X5.285Y-5.105
X5.345Y-3.355
X5.345Y-3.405
X5.345Y-3.505
X5.345Y-3.7515
X5.3774Y-4.9641
X5.385Y-2.255
X5.385Y-3.23
X5.385Y-3.305
X5.385Y-3.555
X5.385Y-4.225
X5.425Y-3.055
X5.425Y-3.105
X5.425Y-4.255
X5.44Y-2.835
X5.44Y-2.905
X5.455Y-3.455
X5.455Y-3.855
X5.48Y-2.155
X5.4815Y-3.517
X5.4815Y-3.955
X5.51Y-2.455
X5.51Y-4.06
X5.515Y-3.2015
X5.52Y-5.22
X5.54Y-2.56
X5.57Y-2.735
X5.655Y-4.23
X5.685Y-5.05
X5.705Y-2.465
X5.705Y-4.23
X5.745Y-4.265
X5.755Y-2.48
X5.755Y-2.795
X5.785Y-3.28
X5.785Y-3.55
X5.7965Y-4.23
X5.798Y-3.9369
X5.805Y-2.3615
X5.805Y-2.78
X5.835Y-4.87
X5.84Y-4.75
X5.855Y-2.48
X5.855Y-2.78
X5.855Y-4.49
X5.8585Y-3.935
X5.8635Y-4.2342
X5.885Y-3.705
X5.887Y-3.8072
X5.905Y-2.48
X5.905Y-3.935
X5.905Y-4.235
X5.935Y-3.2
X5.94Y-4.79
X5.94Y-4.87
X5.9483Y-2.8942
X5.9485Y-2.7801
X5.95Y-2.99
X5.95Y-3.035
X5.95Y-3.08
X5.9502Y-2.8549
X5.955Y-4.235
X5.9635Y-2.333
X5.965Y-3.535
X5.975Y-4.51
X6.005Y-3.93
X6.03Y-4.61
X6.04Y-3.155
X6.0681Y-5.0419
X6.08Y-4.79
X6.1Y-3.93
X6.105Y-4.235
X6.115Y-3.535
X6.1248Y-3.8152
X6.125Y-4.555
X6.13Y-4.71
X6.135Y-3.065
X6.155Y-4.235
X6.18Y-4.86
X6.19Y-4.79
X6.1971Y-3.2985
X6.2046Y-2.4835
X6.205Y-3.36
X6.205Y-4.235
X6.23Y-4.555
X6.235Y-4.41
X6.255Y-3.845
X6.3035Y-3.3852
X6.3035Y-3.4361
X6.3111Y-3.0036
X6.3185Y-2.9644
X6.33Y-2.3615
X6.35Y-3.64
X6.35Y-3.765
X6.35Y-3.98
X6.355Y-5.1
X6.365Y-4.145
X6.3676Y-2.4265
X6.37Y-3.35
X6.38Y-4.41
X6.38Y-4.76
X6.4Y-2.755
X6.4046Y-2.4018
X6.405Y-3.505
X6.405Y-4.3165
X6.405Y-4.565
X6.405Y-4.675
X6.4092Y-3.5835
X6.43Y-3.305
X6.4335Y-3.155
X6.445Y-3.605
X6.445Y-4.29
X6.49Y-2.355
X6.5Y-4.29
X6.5Y-4.335
X6.505Y-4.055
X6.535Y-3.99
X6.545Y-2.43
X6.5547Y-5.0743
X6.58Y-4.61
X6.6159Y-2.5135
X6.62Y-3.785
X6.65Y-2.4015
X6.67Y-5.38
X6.68Y-5.065
X6.69Y-4.36
X6.73Y-4.91
X6.735Y-3.555
X6.735Y-4.37
X6.7415Y-2.3574
X6.745Y-3.155
X6.745Y-3.2011
X6.745Y-3.505
X6.765Y-4.68
X6.77Y-2.245
X6.77Y-4.63
X6.78Y-4.81
X6.78Y-4.86
X6.795Y-3.655
X6.81Y-3.54
X6.8114Y-3.3335
X6.82Y-3.065
X6.82Y-4.5
X6.8215Y-3.7302
X6.83Y-4.295
X6.85Y-3.985
X6.865Y-2.605
X6.87Y-4.86
X6.8702Y-2.4585
X6.88Y-3.355
X6.89Y-3.5403
X6.905Y-2.245
X6.91Y-3.4715
X6.925Y-5.065
X6.93Y-2.675
X6.93Y-3.875
X6.94Y-3.2011
X6.96Y-3.34
X6.985Y-2.305
X6.99Y-3.695
X7.0Y-3.2011
X7.0012Y-2.485
X7.01Y-4.95
X7.015Y-4.84
X7.02Y-3.875
X7.0372Y-3.4328
X7.045Y-3.805
X7.065Y-3.675
X7.08Y-4.815
X7.095Y-4.3315
X7.12Y-3.065
X7.16Y-4.865
X7.1698Y-3.4352
X7.19Y-4.825
X7.3485Y-4.7876
X7.3781Y-4.759
X7.445Y-4.885
X7.48Y-4.065
X7.505Y-4.425
X7.5315Y-4.9135
X7.54Y-4.065
X7.59Y-3.955
X7.685Y-4.735
T2
X7.2002Y-5.0091
X7.2502Y-5.1091
X7.3002Y-5.0091
X7.3502Y-5.1091
X7.4002Y-5.0091
X7.4502Y-5.1091
T3
X5.5287Y-4.3413
X5.5287Y-4.5413
X5.5287Y-4.7413
X5.5287Y-4.9413
T4
X5.5478Y-5.465
X5.725Y-5.465
T5
X4.275Y-2.105
X4.275Y-2.205
X4.275Y-2.305
X4.275Y-2.405
X4.275Y-2.505
X4.275Y-2.605
X4.275Y-2.705
X4.275Y-2.805
X4.275Y-2.905
X4.275Y-3.005
X4.275Y-3.105
X4.275Y-3.205
X4.275Y-3.305
X4.275Y-3.405
X4.275Y-3.505
X4.275Y-3.605
X4.275Y-3.705
X4.275Y-3.805
X4.275Y-3.905
X4.275Y-4.005
X4.375Y-2.105
X4.375Y-2.205
X4.375Y-2.305
X4.375Y-2.405
X4.375Y-2.505
X4.375Y-2.605
X4.375Y-2.705
X4.375Y-2.805
X4.375Y-2.905
X4.375Y-3.005
X4.375Y-3.105
X4.375Y-3.205
X4.375Y-3.305
X4.375Y-3.405
X4.375Y-3.505
X4.375Y-3.605
X4.375Y-3.705
X4.375Y-3.805
X4.375Y-3.905
X4.375Y-4.005
X5.9792Y-5.1935
X5.9792Y-5.2935
X6.0792Y-5.1935
X6.0792Y-5.2935
X6.1792Y-5.1935
X6.1792Y-5.2935
X6.2792Y-5.1935
X6.2792Y-5.2935
X6.3792Y-5.1935
X6.3792Y-5.2935
X6.5192Y-5.1935
X6.5192Y-5.2935
X6.6192Y-5.1935
X6.6192Y-5.2935
X6.7192Y-5.1935
X6.7192Y-5.2935
X6.8192Y-5.1935
X6.8192Y-5.2935
X6.9192Y-5.1935
X6.9192Y-5.2935
X7.325Y-2.105
X7.325Y-2.205
X7.325Y-2.305
X7.325Y-2.405
X7.325Y-2.505
X7.325Y-2.605
X7.325Y-2.705
X7.325Y-2.805
X7.325Y-2.905
X7.325Y-3.005
X7.325Y-3.105
X7.325Y-3.205
X7.325Y-3.305
X7.325Y-3.405
X7.325Y-3.505
X7.325Y-3.605
X7.325Y-3.705
X7.325Y-3.805
X7.325Y-3.905
X7.325Y-4.005
X7.425Y-2.105
X7.425Y-2.205
X7.425Y-2.305
X7.425Y-2.405
X7.425Y-2.505
X7.425Y-2.605
X7.425Y-2.705
X7.425Y-2.805
X7.425Y-2.905
X7.425Y-3.005
X7.425Y-3.105
X7.425Y-3.205
X7.425Y-3.305
X7.425Y-3.405
X7.425Y-3.505
X7.425Y-3.605
X7.425Y-3.705
X7.425Y-3.805
X7.425Y-3.905
X7.425Y-4.005
T6
X5.4982Y-5.367
X5.7742Y-5.367
T0
M30
