%TF.GenerationSoftware,KiCad,Pcbnew,6.0.8+dfsg-1~bpo11+1*%
%TF.CreationDate,2022-11-16T21:16:40+01:00*%
%TF.ProjectId,CpuCubeV2-00,43707543-7562-4655-9632-2d30302e6b69,rev?*%
%TF.SameCoordinates,Original*%
%TF.FileFunction,Soldermask,Bot*%
%TF.FilePolarity,Negative*%
%FSLAX46Y46*%
G04 Gerber Fmt 4.6, Leading zero omitted, Abs format (unit mm)*
G04 Created by KiCad (PCBNEW 6.0.8+dfsg-1~bpo11+1) date 2022-11-16 21:16:40*
%MOMM*%
%LPD*%
G01*
G04 APERTURE LIST*
%ADD10C,1.000000*%
%ADD11R,1.700000X1.700000*%
%ADD12O,1.700000X1.700000*%
%ADD13C,2.286000*%
%ADD14C,3.250000*%
%ADD15R,1.520000X1.520000*%
%ADD16C,1.520000*%
%ADD17C,2.100000*%
%ADD18C,1.750000*%
G04 APERTURE END LIST*
D10*
%TO.C,J103*%
X116545000Y-136271000D03*
X120945000Y-136271000D03*
%TD*%
D11*
%TO.C,J101*%
X111125000Y-53467000D03*
D12*
X108585000Y-53467000D03*
X111125000Y-56007000D03*
X108585000Y-56007000D03*
X111125000Y-58547000D03*
X108585000Y-58547000D03*
X111125000Y-61087000D03*
X108585000Y-61087000D03*
X111125000Y-63627000D03*
X108585000Y-63627000D03*
X111125000Y-66167000D03*
X108585000Y-66167000D03*
X111125000Y-68707000D03*
X108585000Y-68707000D03*
X111125000Y-71247000D03*
X108585000Y-71247000D03*
X111125000Y-73787000D03*
X108585000Y-73787000D03*
X111125000Y-76327000D03*
X108585000Y-76327000D03*
X111125000Y-78867000D03*
X108585000Y-78867000D03*
X111125000Y-81407000D03*
X108585000Y-81407000D03*
X111125000Y-83947000D03*
X108585000Y-83947000D03*
X111125000Y-86487000D03*
X108585000Y-86487000D03*
X111125000Y-89027000D03*
X108585000Y-89027000D03*
X111125000Y-91567000D03*
X108585000Y-91567000D03*
X111125000Y-94107000D03*
X108585000Y-94107000D03*
X111125000Y-96647000D03*
X108585000Y-96647000D03*
X111125000Y-99187000D03*
X108585000Y-99187000D03*
X111125000Y-101727000D03*
X108585000Y-101727000D03*
%TD*%
D13*
%TO.C,C302*%
X140428500Y-115348000D03*
X140428500Y-110268000D03*
%TD*%
D14*
%TO.C,J104*%
X180975000Y-136121000D03*
X191135000Y-136121000D03*
D15*
X182885000Y-127231000D03*
D16*
X184155000Y-129771000D03*
X185425000Y-127231000D03*
X186695000Y-129771000D03*
X187965000Y-127231000D03*
X189235000Y-129771000D03*
%TD*%
D11*
%TO.C,J301*%
X165588000Y-131916000D03*
D12*
X165588000Y-134456000D03*
X168128000Y-131916000D03*
X168128000Y-134456000D03*
X170668000Y-131916000D03*
X170668000Y-134456000D03*
X173208000Y-131916000D03*
X173208000Y-134456000D03*
X175748000Y-131916000D03*
X175748000Y-134456000D03*
%TD*%
D11*
%TO.C,J302*%
X151872000Y-131916000D03*
D12*
X151872000Y-134456000D03*
X154412000Y-131916000D03*
X154412000Y-134456000D03*
X156952000Y-131916000D03*
X156952000Y-134456000D03*
X159492000Y-131916000D03*
X159492000Y-134456000D03*
X162032000Y-131916000D03*
X162032000Y-134456000D03*
%TD*%
D17*
%TO.C,SW101*%
X146665000Y-136321000D03*
X139655000Y-136321000D03*
D18*
X145415000Y-138811000D03*
X140915000Y-138811000D03*
%TD*%
D11*
%TO.C,J102*%
X188595000Y-53467000D03*
D12*
X186055000Y-53467000D03*
X188595000Y-56007000D03*
X186055000Y-56007000D03*
X188595000Y-58547000D03*
X186055000Y-58547000D03*
X188595000Y-61087000D03*
X186055000Y-61087000D03*
X188595000Y-63627000D03*
X186055000Y-63627000D03*
X188595000Y-66167000D03*
X186055000Y-66167000D03*
X188595000Y-68707000D03*
X186055000Y-68707000D03*
X188595000Y-71247000D03*
X186055000Y-71247000D03*
X188595000Y-73787000D03*
X186055000Y-73787000D03*
X188595000Y-76327000D03*
X186055000Y-76327000D03*
X188595000Y-78867000D03*
X186055000Y-78867000D03*
X188595000Y-81407000D03*
X186055000Y-81407000D03*
X188595000Y-83947000D03*
X186055000Y-83947000D03*
X188595000Y-86487000D03*
X186055000Y-86487000D03*
X188595000Y-89027000D03*
X186055000Y-89027000D03*
X188595000Y-91567000D03*
X186055000Y-91567000D03*
X188595000Y-94107000D03*
X186055000Y-94107000D03*
X188595000Y-96647000D03*
X186055000Y-96647000D03*
X188595000Y-99187000D03*
X186055000Y-99187000D03*
X188595000Y-101727000D03*
X186055000Y-101727000D03*
%TD*%
D13*
%TO.C,C301*%
X140428500Y-125508000D03*
X140428500Y-120428000D03*
%TD*%
M02*
