  0
SECTION
  2
HEADER
  9
$ANGBASE
  50
0.0
  9
$ANGDIR
  70
1
  9
$MEASUREMENT
  70
0
  0
ENDSEC
  0
SECTION
  2
TABLES
  0
TABLE
  2
LTYPE
  70
4
  0
LTYPE
  5
40F
  2
CONTINUOUS
  70
0
  3
Solid line
  72
65
  73
0
  40
0.0
  0
LTYPE
  5
410
  2
DASHDOT
 70
0
  3
Dash Dot ____ _ ____ _
 72
65
 73
4
 40
2.0
 49
1.25
 49
-0.25
 49
0.25
 49
-0.25
  0
LTYPE
  5
411
  2
DASHED
 70
0
  3
Dashed __ __ __ __ __
 72
65
 73
2
 40
0.75
 49
0.5
 49
-0.25
  0
LTYPE
  5
43B
  2
DOTTED
 70
0
  3
Dotted .  .  .  .
 72
65
 73
2
 40
0.2
 49
0.0
 49
-0.2
  0
ENDTAB
  0
TABLE
  2
STYLE
  70
4
  0
STYLE
  2
KICAD
  70
0
  40
0
  41
1
  42
1
  50
0
  71
0
  3
isocp.shx
  0
STYLE
  2
KICADB
  70
0
  40
0
  41
1
  42
1
  50
0
  71
0
  3
isocp.shx
  0
STYLE
  2
KICADI
  70
0
  40
0
  41
1
  42
1
  50
15
  71
0
  3
isocp.shx
  0
STYLE
  2
KICADBI
  70
0
  40
0
  41
1
  42
1
  50
15
  71
0
  3
isocp.shx
  0
ENDTAB
  0
TABLE
  2
LAYER
  70
1
  0
LAYER
  2
BLACK
  70
0
  62
7
  6
CONTINUOUS
  0
ENDTAB
  0
ENDSEC
  0
SECTION
  2
ENTITIES
0
LINE
8
BLACK
6
CONTINUOUS
10
3.975
20
-5.555
11
3.975
21
-1.805
0
LINE
8
BLACK
6
CONTINUOUS
10
7.725
20
-5.555
11
3.975
21
-5.555
0
LINE
8
BLACK
6
CONTINUOUS
10
3.975
20
-1.805
11
7.725
21
-1.805
0
LINE
8
BLACK
6
CONTINUOUS
10
7.725
20
-1.805
11
7.725
21
-5.555
0
LINE
8
BLACK
6
CONTINUOUS
10
4.5687
20
-5.34531
11
4.60807
21
-5.38469
0
LINE
8
BLACK
6
CONTINUOUS
10
4.60807
20
-5.34531
11
4.5687
21
-5.38469
0
LINE
8
BLACK
6
CONTINUOUS
10
4.74193
20
-5.34531
11
4.7813
21
-5.38469
0
LINE
8
BLACK
6
CONTINUOUS
10
4.7813
20
-5.34531
11
4.74193
21
-5.38469
0
CIRCLE
8
BLACK
10
7.125
20
-5.35909
40
0.0639764
0
CIRCLE
8
BLACK
10
7.525
20
-5.35909
40
0.0639764
0
LINE
8
BLACK
6
CONTINUOUS
10
4.07446
20
-5.6792
11
4.07446
21
-5.60046
0
LINE
8
BLACK
6
CONTINUOUS
10
4.07446
20
-5.60046
11
4.0932
21
-5.60046
0
LINE
8
BLACK
6
CONTINUOUS
10
4.0932
20
-5.60046
11
4.10445
21
-5.60421
0
LINE
8
BLACK
6
CONTINUOUS
10
4.10445
20
-5.60421
11
4.11195
21
-5.61171
0
LINE
8
BLACK
6
CONTINUOUS
10
4.11195
20
-5.61171
11
4.1157
21
-5.61921
0
LINE
8
BLACK
6
CONTINUOUS
10
4.1157
20
-5.61921
11
4.11945
21
-5.63421
0
LINE
8
BLACK
6
CONTINUOUS
10
4.11945
20
-5.63421
11
4.11945
21
-5.64546
0
LINE
8
BLACK
6
CONTINUOUS
10
4.11945
20
-5.64546
11
4.1157
21
-5.66046
0
LINE
8
BLACK
6
CONTINUOUS
10
4.1157
20
-5.66046
11
4.11195
21
-5.66795
0
LINE
8
BLACK
6
CONTINUOUS
10
4.11195
20
-5.66795
11
4.10445
21
-5.67545
0
LINE
8
BLACK
6
CONTINUOUS
10
4.10445
20
-5.67545
11
4.0932
21
-5.6792
0
LINE
8
BLACK
6
CONTINUOUS
10
4.0932
20
-5.6792
11
4.07446
21
-5.6792
0
LINE
8
BLACK
6
CONTINUOUS
10
4.1532
20
-5.6792
11
4.1532
21
-5.62671
0
LINE
8
BLACK
6
CONTINUOUS
10
4.1532
20
-5.64171
11
4.15695
21
-5.63421
0
LINE
8
BLACK
6
CONTINUOUS
10
4.15695
20
-5.63421
11
4.1607
21
-5.63046
0
LINE
8
BLACK
6
CONTINUOUS
10
4.1607
20
-5.63046
11
4.16819
21
-5.62671
0
LINE
8
BLACK
6
CONTINUOUS
10
4.16819
20
-5.62671
11
4.17569
21
-5.62671
0
LINE
8
BLACK
6
CONTINUOUS
10
4.20194
20
-5.6792
11
4.20194
21
-5.62671
0
LINE
8
BLACK
6
CONTINUOUS
10
4.20194
20
-5.60046
11
4.19819
21
-5.60421
0
LINE
8
BLACK
6
CONTINUOUS
10
4.19819
20
-5.60421
11
4.20194
21
-5.60796
0
LINE
8
BLACK
6
CONTINUOUS
10
4.20194
20
-5.60796
11
4.20569
21
-5.60421
0
LINE
8
BLACK
6
CONTINUOUS
10
4.20569
20
-5.60421
11
4.20194
21
-5.60046
0
LINE
8
BLACK
6
CONTINUOUS
10
4.20194
20
-5.60046
11
4.20194
21
-5.60796
0
LINE
8
BLACK
6
CONTINUOUS
10
4.25068
20
-5.6792
11
4.24319
21
-5.67545
0
LINE
8
BLACK
6
CONTINUOUS
10
4.24319
20
-5.67545
11
4.23944
21
-5.66795
0
LINE
8
BLACK
6
CONTINUOUS
10
4.23944
20
-5.66795
11
4.23944
21
-5.60046
0
LINE
8
BLACK
6
CONTINUOUS
10
4.29193
20
-5.6792
11
4.28443
21
-5.67545
0
LINE
8
BLACK
6
CONTINUOUS
10
4.28443
20
-5.67545
11
4.28068
21
-5.66795
0
LINE
8
BLACK
6
CONTINUOUS
10
4.28068
20
-5.66795
11
4.28068
21
-5.60046
0
LINE
8
BLACK
6
CONTINUOUS
10
4.38192
20
-5.6792
11
4.38192
21
-5.60046
0
LINE
8
BLACK
6
CONTINUOUS
10
4.38192
20
-5.60046
11
4.40816
21
-5.65671
0
LINE
8
BLACK
6
CONTINUOUS
10
4.40816
20
-5.65671
11
4.43441
21
-5.60046
0
LINE
8
BLACK
6
CONTINUOUS
10
4.43441
20
-5.60046
11
4.43441
21
-5.6792
0
LINE
8
BLACK
6
CONTINUOUS
10
4.50565
20
-5.6792
11
4.50565
21
-5.63796
0
LINE
8
BLACK
6
CONTINUOUS
10
4.50565
20
-5.63796
11
4.5019
21
-5.63046
0
LINE
8
BLACK
6
CONTINUOUS
10
4.5019
20
-5.63046
11
4.4944
21
-5.62671
0
LINE
8
BLACK
6
CONTINUOUS
10
4.4944
20
-5.62671
11
4.47941
21
-5.62671
0
LINE
8
BLACK
6
CONTINUOUS
10
4.47941
20
-5.62671
11
4.47191
21
-5.63046
0
LINE
8
BLACK
6
CONTINUOUS
10
4.50565
20
-5.67545
11
4.49815
21
-5.6792
0
LINE
8
BLACK
6
CONTINUOUS
10
4.49815
20
-5.6792
11
4.47941
21
-5.6792
0
LINE
8
BLACK
6
CONTINUOUS
10
4.47941
20
-5.6792
11
4.47191
21
-5.67545
0
LINE
8
BLACK
6
CONTINUOUS
10
4.47191
20
-5.67545
11
4.46816
21
-5.66795
0
LINE
8
BLACK
6
CONTINUOUS
10
4.46816
20
-5.66795
11
4.46816
21
-5.66046
0
LINE
8
BLACK
6
CONTINUOUS
10
4.46816
20
-5.66046
11
4.47191
21
-5.65296
0
LINE
8
BLACK
6
CONTINUOUS
10
4.47191
20
-5.65296
11
4.47941
21
-5.64921
0
LINE
8
BLACK
6
CONTINUOUS
10
4.47941
20
-5.64921
11
4.49815
21
-5.64921
0
LINE
8
BLACK
6
CONTINUOUS
10
4.49815
20
-5.64921
11
4.50565
21
-5.64546
0
LINE
8
BLACK
6
CONTINUOUS
10
4.54315
20
-5.62671
11
4.54315
21
-5.70545
0
LINE
8
BLACK
6
CONTINUOUS
10
4.54315
20
-5.63046
11
4.55065
21
-5.62671
0
LINE
8
BLACK
6
CONTINUOUS
10
4.55065
20
-5.62671
11
4.56564
21
-5.62671
0
LINE
8
BLACK
6
CONTINUOUS
10
4.56564
20
-5.62671
11
4.57314
21
-5.63046
0
LINE
8
BLACK
6
CONTINUOUS
10
4.57314
20
-5.63046
11
4.57689
21
-5.63421
0
LINE
8
BLACK
6
CONTINUOUS
10
4.57689
20
-5.63421
11
4.58064
21
-5.64171
0
LINE
8
BLACK
6
CONTINUOUS
10
4.58064
20
-5.64171
11
4.58064
21
-5.66421
0
LINE
8
BLACK
6
CONTINUOUS
10
4.58064
20
-5.66421
11
4.57689
21
-5.6717
0
LINE
8
BLACK
6
CONTINUOUS
10
4.57689
20
-5.6717
11
4.57314
21
-5.67545
0
LINE
8
BLACK
6
CONTINUOUS
10
4.57314
20
-5.67545
11
4.56564
21
-5.6792
0
LINE
8
BLACK
6
CONTINUOUS
10
4.56564
20
-5.6792
11
4.55065
21
-5.6792
0
LINE
8
BLACK
6
CONTINUOUS
10
4.55065
20
-5.6792
11
4.54315
21
-5.67545
0
LINE
8
BLACK
6
CONTINUOUS
10
4.61439
20
-5.6717
11
4.61814
21
-5.67545
0
LINE
8
BLACK
6
CONTINUOUS
10
4.61814
20
-5.67545
11
4.61439
21
-5.6792
0
LINE
8
BLACK
6
CONTINUOUS
10
4.61439
20
-5.6792
11
4.61064
21
-5.67545
0
LINE
8
BLACK
6
CONTINUOUS
10
4.61064
20
-5.67545
11
4.61439
21
-5.6717
0
LINE
8
BLACK
6
CONTINUOUS
10
4.61439
20
-5.6717
11
4.61439
21
-5.6792
0
LINE
8
BLACK
6
CONTINUOUS
10
4.61439
20
-5.63046
11
4.61814
21
-5.63421
0
LINE
8
BLACK
6
CONTINUOUS
10
4.61814
20
-5.63421
11
4.61439
21
-5.63796
0
LINE
8
BLACK
6
CONTINUOUS
10
4.61439
20
-5.63796
11
4.61064
21
-5.63421
0
LINE
8
BLACK
6
CONTINUOUS
10
4.61064
20
-5.63421
11
4.61439
21
-5.63046
0
LINE
8
BLACK
6
CONTINUOUS
10
4.61439
20
-5.63046
11
4.61439
21
-5.63796
0
LINE
8
BLACK
6
CONTINUOUS
10
3.93366
20
-5.78925
11
3.97303
21
-5.82862
0
LINE
8
BLACK
6
CONTINUOUS
10
3.97303
20
-5.78925
11
3.93366
21
-5.82862
0
LINE
8
BLACK
6
CONTINUOUS
10
4.1157
20
-5.84456
11
4.07071
21
-5.84456
0
LINE
8
BLACK
6
CONTINUOUS
10
4.0932
20
-5.84456
11
4.0932
21
-5.76582
0
LINE
8
BLACK
6
CONTINUOUS
10
4.0932
20
-5.76582
11
4.0857
21
-5.77707
0
LINE
8
BLACK
6
CONTINUOUS
10
4.0857
20
-5.77707
11
4.07821
21
-5.78457
0
LINE
8
BLACK
6
CONTINUOUS
10
4.07821
20
-5.78457
11
4.07071
21
-5.78831
0
LINE
8
BLACK
6
CONTINUOUS
10
4.14945
20
-5.83706
11
4.1532
21
-5.84081
0
LINE
8
BLACK
6
CONTINUOUS
10
4.1532
20
-5.84081
11
4.14945
21
-5.84456
0
LINE
8
BLACK
6
CONTINUOUS
10
4.14945
20
-5.84456
11
4.1457
21
-5.84081
0
LINE
8
BLACK
6
CONTINUOUS
10
4.1457
20
-5.84081
11
4.14945
21
-5.83706
0
LINE
8
BLACK
6
CONTINUOUS
10
4.14945
20
-5.83706
11
4.14945
21
-5.84456
0
LINE
8
BLACK
6
CONTINUOUS
10
4.20194
20
-5.76582
11
4.20944
21
-5.76582
0
LINE
8
BLACK
6
CONTINUOUS
10
4.20944
20
-5.76582
11
4.21694
21
-5.76957
0
LINE
8
BLACK
6
CONTINUOUS
10
4.21694
20
-5.76957
11
4.22069
21
-5.77332
0
LINE
8
BLACK
6
CONTINUOUS
10
4.22069
20
-5.77332
11
4.22444
21
-5.78082
0
LINE
8
BLACK
6
CONTINUOUS
10
4.22444
20
-5.78082
11
4.22819
21
-5.79581
0
LINE
8
BLACK
6
CONTINUOUS
10
4.22819
20
-5.79581
11
4.22819
21
-5.81456
0
LINE
8
BLACK
6
CONTINUOUS
10
4.22819
20
-5.81456
11
4.22444
21
-5.82956
0
LINE
8
BLACK
6
CONTINUOUS
10
4.22444
20
-5.82956
11
4.22069
21
-5.83706
0
LINE
8
BLACK
6
CONTINUOUS
10
4.22069
20
-5.83706
11
4.21694
21
-5.84081
0
LINE
8
BLACK
6
CONTINUOUS
10
4.21694
20
-5.84081
11
4.20944
21
-5.84456
0
LINE
8
BLACK
6
CONTINUOUS
10
4.20944
20
-5.84456
11
4.20194
21
-5.84456
0
LINE
8
BLACK
6
CONTINUOUS
10
4.20194
20
-5.84456
11
4.19444
21
-5.84081
0
LINE
8
BLACK
6
CONTINUOUS
10
4.19444
20
-5.84081
11
4.19069
21
-5.83706
0
LINE
8
BLACK
6
CONTINUOUS
10
4.19069
20
-5.83706
11
4.18694
21
-5.82956
0
LINE
8
BLACK
6
CONTINUOUS
10
4.18694
20
-5.82956
11
4.18319
21
-5.81456
0
LINE
8
BLACK
6
CONTINUOUS
10
4.18319
20
-5.81456
11
4.18319
21
-5.79581
0
LINE
8
BLACK
6
CONTINUOUS
10
4.18319
20
-5.79581
11
4.18694
21
-5.78082
0
LINE
8
BLACK
6
CONTINUOUS
10
4.18694
20
-5.78082
11
4.19069
21
-5.77332
0
LINE
8
BLACK
6
CONTINUOUS
10
4.19069
20
-5.77332
11
4.19444
21
-5.76957
0
LINE
8
BLACK
6
CONTINUOUS
10
4.19444
20
-5.76957
11
4.20194
21
-5.76582
0
LINE
8
BLACK
6
CONTINUOUS
10
4.27693
20
-5.76582
11
4.28443
21
-5.76582
0
LINE
8
BLACK
6
CONTINUOUS
10
4.28443
20
-5.76582
11
4.29193
21
-5.76957
0
LINE
8
BLACK
6
CONTINUOUS
10
4.29193
20
-5.76957
11
4.29568
21
-5.77332
0
LINE
8
BLACK
6
CONTINUOUS
10
4.29568
20
-5.77332
11
4.29943
21
-5.78082
0
LINE
8
BLACK
6
CONTINUOUS
10
4.29943
20
-5.78082
11
4.30318
21
-5.79581
0
LINE
8
BLACK
6
CONTINUOUS
10
4.30318
20
-5.79581
11
4.30318
21
-5.81456
0
LINE
8
BLACK
6
CONTINUOUS
10
4.30318
20
-5.81456
11
4.29943
21
-5.82956
0
LINE
8
BLACK
6
CONTINUOUS
10
4.29943
20
-5.82956
11
4.29568
21
-5.83706
0
LINE
8
BLACK
6
CONTINUOUS
10
4.29568
20
-5.83706
11
4.29193
21
-5.84081
0
LINE
8
BLACK
6
CONTINUOUS
10
4.29193
20
-5.84081
11
4.28443
21
-5.84456
0
LINE
8
BLACK
6
CONTINUOUS
10
4.28443
20
-5.84456
11
4.27693
21
-5.84456
0
LINE
8
BLACK
6
CONTINUOUS
10
4.27693
20
-5.84456
11
4.26943
21
-5.84081
0
LINE
8
BLACK
6
CONTINUOUS
10
4.26943
20
-5.84081
11
4.26568
21
-5.83706
0
LINE
8
BLACK
6
CONTINUOUS
10
4.26568
20
-5.83706
11
4.26193
21
-5.82956
0
LINE
8
BLACK
6
CONTINUOUS
10
4.26193
20
-5.82956
11
4.25818
21
-5.81456
0
LINE
8
BLACK
6
CONTINUOUS
10
4.25818
20
-5.81456
11
4.25818
21
-5.79581
0
LINE
8
BLACK
6
CONTINUOUS
10
4.25818
20
-5.79581
11
4.26193
21
-5.78082
0
LINE
8
BLACK
6
CONTINUOUS
10
4.26193
20
-5.78082
11
4.26568
21
-5.77332
0
LINE
8
BLACK
6
CONTINUOUS
10
4.26568
20
-5.77332
11
4.26943
21
-5.76957
0
LINE
8
BLACK
6
CONTINUOUS
10
4.26943
20
-5.76957
11
4.27693
21
-5.76582
0
LINE
8
BLACK
6
CONTINUOUS
10
4.35192
20
-5.76582
11
4.35942
21
-5.76582
0
LINE
8
BLACK
6
CONTINUOUS
10
4.35942
20
-5.76582
11
4.36692
21
-5.76957
0
LINE
8
BLACK
6
CONTINUOUS
10
4.36692
20
-5.76957
11
4.37067
21
-5.77332
0
LINE
8
BLACK
6
CONTINUOUS
10
4.37067
20
-5.77332
11
4.37442
21
-5.78082
0
LINE
8
BLACK
6
CONTINUOUS
10
4.37442
20
-5.78082
11
4.37817
21
-5.79581
0
LINE
8
BLACK
6
CONTINUOUS
10
4.37817
20
-5.79581
11
4.37817
21
-5.81456
0
LINE
8
BLACK
6
CONTINUOUS
10
4.37817
20
-5.81456
11
4.37442
21
-5.82956
0
LINE
8
BLACK
6
CONTINUOUS
10
4.37442
20
-5.82956
11
4.37067
21
-5.83706
0
LINE
8
BLACK
6
CONTINUOUS
10
4.37067
20
-5.83706
11
4.36692
21
-5.84081
0
LINE
8
BLACK
6
CONTINUOUS
10
4.36692
20
-5.84081
11
4.35942
21
-5.84456
0
LINE
8
BLACK
6
CONTINUOUS
10
4.35942
20
-5.84456
11
4.35192
21
-5.84456
0
LINE
8
BLACK
6
CONTINUOUS
10
4.35192
20
-5.84456
11
4.34442
21
-5.84081
0
LINE
8
BLACK
6
CONTINUOUS
10
4.34442
20
-5.84081
11
4.34067
21
-5.83706
0
LINE
8
BLACK
6
CONTINUOUS
10
4.34067
20
-5.83706
11
4.33692
21
-5.82956
0
LINE
8
BLACK
6
CONTINUOUS
10
4.33692
20
-5.82956
11
4.33317
21
-5.81456
0
LINE
8
BLACK
6
CONTINUOUS
10
4.33317
20
-5.81456
11
4.33317
21
-5.79581
0
LINE
8
BLACK
6
CONTINUOUS
10
4.33317
20
-5.79581
11
4.33692
21
-5.78082
0
LINE
8
BLACK
6
CONTINUOUS
10
4.33692
20
-5.78082
11
4.34067
21
-5.77332
0
LINE
8
BLACK
6
CONTINUOUS
10
4.34067
20
-5.77332
11
4.34442
21
-5.76957
0
LINE
8
BLACK
6
CONTINUOUS
10
4.34442
20
-5.76957
11
4.35192
21
-5.76582
0
LINE
8
BLACK
6
CONTINUOUS
10
4.41191
20
-5.84456
11
4.41191
21
-5.79206
0
LINE
8
BLACK
6
CONTINUOUS
10
4.41191
20
-5.79956
11
4.41566
21
-5.79581
0
LINE
8
BLACK
6
CONTINUOUS
10
4.41566
20
-5.79581
11
4.42316
21
-5.79206
0
LINE
8
BLACK
6
CONTINUOUS
10
4.42316
20
-5.79206
11
4.43441
21
-5.79206
0
LINE
8
BLACK
6
CONTINUOUS
10
4.43441
20
-5.79206
11
4.44191
21
-5.79581
0
LINE
8
BLACK
6
CONTINUOUS
10
4.44191
20
-5.79581
11
4.44566
21
-5.80331
0
LINE
8
BLACK
6
CONTINUOUS
10
4.44566
20
-5.80331
11
4.44566
21
-5.84456
0
LINE
8
BLACK
6
CONTINUOUS
10
4.44566
20
-5.80331
11
4.44941
21
-5.79581
0
LINE
8
BLACK
6
CONTINUOUS
10
4.44941
20
-5.79581
11
4.45691
21
-5.79206
0
LINE
8
BLACK
6
CONTINUOUS
10
4.45691
20
-5.79206
11
4.46816
21
-5.79206
0
LINE
8
BLACK
6
CONTINUOUS
10
4.46816
20
-5.79206
11
4.47566
21
-5.79581
0
LINE
8
BLACK
6
CONTINUOUS
10
4.47566
20
-5.79581
11
4.47941
21
-5.80331
0
LINE
8
BLACK
6
CONTINUOUS
10
4.47941
20
-5.80331
11
4.47941
21
-5.84456
0
LINE
8
BLACK
6
CONTINUOUS
10
4.5169
20
-5.84456
11
4.5169
21
-5.79206
0
LINE
8
BLACK
6
CONTINUOUS
10
4.5169
20
-5.79956
11
4.52065
21
-5.79581
0
LINE
8
BLACK
6
CONTINUOUS
10
4.52065
20
-5.79581
11
4.52815
21
-5.79206
0
LINE
8
BLACK
6
CONTINUOUS
10
4.52815
20
-5.79206
11
4.5394
21
-5.79206
0
LINE
8
BLACK
6
CONTINUOUS
10
4.5394
20
-5.79206
11
4.5469
21
-5.79581
0
LINE
8
BLACK
6
CONTINUOUS
10
4.5469
20
-5.79581
11
4.55065
21
-5.80331
0
LINE
8
BLACK
6
CONTINUOUS
10
4.55065
20
-5.80331
11
4.55065
21
-5.84456
0
LINE
8
BLACK
6
CONTINUOUS
10
4.55065
20
-5.80331
11
4.5544
21
-5.79581
0
LINE
8
BLACK
6
CONTINUOUS
10
4.5544
20
-5.79581
11
4.5619
21
-5.79206
0
LINE
8
BLACK
6
CONTINUOUS
10
4.5619
20
-5.79206
11
4.57314
21
-5.79206
0
LINE
8
BLACK
6
CONTINUOUS
10
4.57314
20
-5.79206
11
4.58064
21
-5.79581
0
LINE
8
BLACK
6
CONTINUOUS
10
4.58064
20
-5.79581
11
4.58439
21
-5.80331
0
LINE
8
BLACK
6
CONTINUOUS
10
4.58439
20
-5.80331
11
4.58439
21
-5.84456
0
LINE
8
BLACK
6
CONTINUOUS
10
4.73812
20
-5.76207
11
4.67063
21
-5.86331
0
LINE
8
BLACK
6
CONTINUOUS
10
4.83936
20
-5.76582
11
4.84686
21
-5.76582
0
LINE
8
BLACK
6
CONTINUOUS
10
4.84686
20
-5.76582
11
4.85436
21
-5.76957
0
LINE
8
BLACK
6
CONTINUOUS
10
4.85436
20
-5.76957
11
4.85811
21
-5.77332
0
LINE
8
BLACK
6
CONTINUOUS
10
4.85811
20
-5.77332
11
4.86186
21
-5.78082
0
LINE
8
BLACK
6
CONTINUOUS
10
4.86186
20
-5.78082
11
4.86561
21
-5.79581
0
LINE
8
BLACK
6
CONTINUOUS
10
4.86561
20
-5.79581
11
4.86561
21
-5.81456
0
LINE
8
BLACK
6
CONTINUOUS
10
4.86561
20
-5.81456
11
4.86186
21
-5.82956
0
LINE
8
BLACK
6
CONTINUOUS
10
4.86186
20
-5.82956
11
4.85811
21
-5.83706
0
LINE
8
BLACK
6
CONTINUOUS
10
4.85811
20
-5.83706
11
4.85436
21
-5.84081
0
LINE
8
BLACK
6
CONTINUOUS
10
4.85436
20
-5.84081
11
4.84686
21
-5.84456
0
LINE
8
BLACK
6
CONTINUOUS
10
4.84686
20
-5.84456
11
4.83936
21
-5.84456
0
LINE
8
BLACK
6
CONTINUOUS
10
4.83936
20
-5.84456
11
4.83186
21
-5.84081
0
LINE
8
BLACK
6
CONTINUOUS
10
4.83186
20
-5.84081
11
4.82811
21
-5.83706
0
LINE
8
BLACK
6
CONTINUOUS
10
4.82811
20
-5.83706
11
4.82436
21
-5.82956
0
LINE
8
BLACK
6
CONTINUOUS
10
4.82436
20
-5.82956
11
4.82061
21
-5.81456
0
LINE
8
BLACK
6
CONTINUOUS
10
4.82061
20
-5.81456
11
4.82061
21
-5.79581
0
LINE
8
BLACK
6
CONTINUOUS
10
4.82061
20
-5.79581
11
4.82436
21
-5.78082
0
LINE
8
BLACK
6
CONTINUOUS
10
4.82436
20
-5.78082
11
4.82811
21
-5.77332
0
LINE
8
BLACK
6
CONTINUOUS
10
4.82811
20
-5.77332
11
4.83186
21
-5.76957
0
LINE
8
BLACK
6
CONTINUOUS
10
4.83186
20
-5.76957
11
4.83936
21
-5.76582
0
LINE
8
BLACK
6
CONTINUOUS
10
4.89935
20
-5.83706
11
4.9031
21
-5.84081
0
LINE
8
BLACK
6
CONTINUOUS
10
4.9031
20
-5.84081
11
4.89935
21
-5.84456
0
LINE
8
BLACK
6
CONTINUOUS
10
4.89935
20
-5.84456
11
4.8956
21
-5.84081
0
LINE
8
BLACK
6
CONTINUOUS
10
4.8956
20
-5.84081
11
4.89935
21
-5.83706
0
LINE
8
BLACK
6
CONTINUOUS
10
4.89935
20
-5.83706
11
4.89935
21
-5.84456
0
LINE
8
BLACK
6
CONTINUOUS
10
4.95185
20
-5.76582
11
4.95935
21
-5.76582
0
LINE
8
BLACK
6
CONTINUOUS
10
4.95935
20
-5.76582
11
4.96684
21
-5.76957
0
LINE
8
BLACK
6
CONTINUOUS
10
4.96684
20
-5.76957
11
4.97059
21
-5.77332
0
LINE
8
BLACK
6
CONTINUOUS
10
4.97059
20
-5.77332
11
4.97434
21
-5.78082
0
LINE
8
BLACK
6
CONTINUOUS
10
4.97434
20
-5.78082
11
4.97809
21
-5.79581
0
LINE
8
BLACK
6
CONTINUOUS
10
4.97809
20
-5.79581
11
4.97809
21
-5.81456
0
LINE
8
BLACK
6
CONTINUOUS
10
4.97809
20
-5.81456
11
4.97434
21
-5.82956
0
LINE
8
BLACK
6
CONTINUOUS
10
4.97434
20
-5.82956
11
4.97059
21
-5.83706
0
LINE
8
BLACK
6
CONTINUOUS
10
4.97059
20
-5.83706
11
4.96684
21
-5.84081
0
LINE
8
BLACK
6
CONTINUOUS
10
4.96684
20
-5.84081
11
4.95935
21
-5.84456
0
LINE
8
BLACK
6
CONTINUOUS
10
4.95935
20
-5.84456
11
4.95185
21
-5.84456
0
LINE
8
BLACK
6
CONTINUOUS
10
4.95185
20
-5.84456
11
4.94435
21
-5.84081
0
LINE
8
BLACK
6
CONTINUOUS
10
4.94435
20
-5.84081
11
4.9406
21
-5.83706
0
LINE
8
BLACK
6
CONTINUOUS
10
4.9406
20
-5.83706
11
4.93685
21
-5.82956
0
LINE
8
BLACK
6
CONTINUOUS
10
4.93685
20
-5.82956
11
4.9331
21
-5.81456
0
LINE
8
BLACK
6
CONTINUOUS
10
4.9331
20
-5.81456
11
4.9331
21
-5.79581
0
LINE
8
BLACK
6
CONTINUOUS
10
4.9331
20
-5.79581
11
4.93685
21
-5.78082
0
LINE
8
BLACK
6
CONTINUOUS
10
4.93685
20
-5.78082
11
4.9406
21
-5.77332
0
LINE
8
BLACK
6
CONTINUOUS
10
4.9406
20
-5.77332
11
4.94435
21
-5.76957
0
LINE
8
BLACK
6
CONTINUOUS
10
4.94435
20
-5.76957
11
4.95185
21
-5.76582
0
LINE
8
BLACK
6
CONTINUOUS
10
5.00434
20
-5.76582
11
5.05308
21
-5.76582
0
LINE
8
BLACK
6
CONTINUOUS
10
5.05308
20
-5.76582
11
5.02684
21
-5.79581
0
LINE
8
BLACK
6
CONTINUOUS
10
5.02684
20
-5.79581
11
5.03809
21
-5.79581
0
LINE
8
BLACK
6
CONTINUOUS
10
5.03809
20
-5.79581
11
5.04558
21
-5.79956
0
LINE
8
BLACK
6
CONTINUOUS
10
5.04558
20
-5.79956
11
5.04933
21
-5.80331
0
LINE
8
BLACK
6
CONTINUOUS
10
5.04933
20
-5.80331
11
5.05308
21
-5.81081
0
LINE
8
BLACK
6
CONTINUOUS
10
5.05308
20
-5.81081
11
5.05308
21
-5.82956
0
LINE
8
BLACK
6
CONTINUOUS
10
5.05308
20
-5.82956
11
5.04933
21
-5.83706
0
LINE
8
BLACK
6
CONTINUOUS
10
5.04933
20
-5.83706
11
5.04558
21
-5.84081
0
LINE
8
BLACK
6
CONTINUOUS
10
5.04558
20
-5.84081
11
5.03809
21
-5.84456
0
LINE
8
BLACK
6
CONTINUOUS
10
5.03809
20
-5.84456
11
5.01559
21
-5.84456
0
LINE
8
BLACK
6
CONTINUOUS
10
5.01559
20
-5.84456
11
5.00809
21
-5.84081
0
LINE
8
BLACK
6
CONTINUOUS
10
5.00809
20
-5.84081
11
5.00434
21
-5.83706
0
LINE
8
BLACK
6
CONTINUOUS
10
5.09058
20
-5.84456
11
5.10558
21
-5.84456
0
LINE
8
BLACK
6
CONTINUOUS
10
5.10558
20
-5.84456
11
5.11308
21
-5.84081
0
LINE
8
BLACK
6
CONTINUOUS
10
5.11308
20
-5.84081
11
5.11683
21
-5.83706
0
LINE
8
BLACK
6
CONTINUOUS
10
5.11683
20
-5.83706
11
5.12433
21
-5.82581
0
LINE
8
BLACK
6
CONTINUOUS
10
5.12433
20
-5.82581
11
5.12807
21
-5.81081
0
LINE
8
BLACK
6
CONTINUOUS
10
5.12807
20
-5.81081
11
5.12807
21
-5.78082
0
LINE
8
BLACK
6
CONTINUOUS
10
5.12807
20
-5.78082
11
5.12433
21
-5.77332
0
LINE
8
BLACK
6
CONTINUOUS
10
5.12433
20
-5.77332
11
5.12058
21
-5.76957
0
LINE
8
BLACK
6
CONTINUOUS
10
5.12058
20
-5.76957
11
5.11308
21
-5.76582
0
LINE
8
BLACK
6
CONTINUOUS
10
5.11308
20
-5.76582
11
5.09808
21
-5.76582
0
LINE
8
BLACK
6
CONTINUOUS
10
5.09808
20
-5.76582
11
5.09058
21
-5.76957
0
LINE
8
BLACK
6
CONTINUOUS
10
5.09058
20
-5.76957
11
5.08683
21
-5.77332
0
LINE
8
BLACK
6
CONTINUOUS
10
5.08683
20
-5.77332
11
5.08308
21
-5.78082
0
LINE
8
BLACK
6
CONTINUOUS
10
5.08308
20
-5.78082
11
5.08308
21
-5.79956
0
LINE
8
BLACK
6
CONTINUOUS
10
5.08308
20
-5.79956
11
5.08683
21
-5.80706
0
LINE
8
BLACK
6
CONTINUOUS
10
5.08683
20
-5.80706
11
5.09058
21
-5.81081
0
LINE
8
BLACK
6
CONTINUOUS
10
5.09058
20
-5.81081
11
5.09808
21
-5.81456
0
LINE
8
BLACK
6
CONTINUOUS
10
5.09808
20
-5.81456
11
5.11308
21
-5.81456
0
LINE
8
BLACK
6
CONTINUOUS
10
5.11308
20
-5.81456
11
5.12058
21
-5.81081
0
LINE
8
BLACK
6
CONTINUOUS
10
5.12058
20
-5.81081
11
5.12433
21
-5.80706
0
LINE
8
BLACK
6
CONTINUOUS
10
5.12433
20
-5.80706
11
5.12807
21
-5.79956
0
LINE
8
BLACK
6
CONTINUOUS
10
5.19557
20
-5.79206
11
5.19557
21
-5.84456
0
LINE
8
BLACK
6
CONTINUOUS
10
5.17682
20
-5.76207
11
5.15807
21
-5.81831
0
LINE
8
BLACK
6
CONTINUOUS
10
5.15807
20
-5.81831
11
5.20681
21
-5.81831
0
LINE
8
BLACK
6
CONTINUOUS
10
5.23306
20
-5.76582
11
5.23306
21
-5.78082
0
LINE
8
BLACK
6
CONTINUOUS
10
5.26306
20
-5.76582
11
5.26306
21
-5.78082
0
LINE
8
BLACK
6
CONTINUOUS
10
5.37929
20
-5.87455
11
5.37554
21
-5.8708
0
LINE
8
BLACK
6
CONTINUOUS
10
5.37554
20
-5.8708
11
5.36804
21
-5.85956
0
LINE
8
BLACK
6
CONTINUOUS
10
5.36804
20
-5.85956
11
5.3643
21
-5.85206
0
LINE
8
BLACK
6
CONTINUOUS
10
5.3643
20
-5.85206
11
5.36055
21
-5.84081
0
LINE
8
BLACK
6
CONTINUOUS
10
5.36055
20
-5.84081
11
5.3568
21
-5.82206
0
LINE
8
BLACK
6
CONTINUOUS
10
5.3568
20
-5.82206
11
5.3568
21
-5.80706
0
LINE
8
BLACK
6
CONTINUOUS
10
5.3568
20
-5.80706
11
5.36055
21
-5.78831
0
LINE
8
BLACK
6
CONTINUOUS
10
5.36055
20
-5.78831
11
5.3643
21
-5.77707
0
LINE
8
BLACK
6
CONTINUOUS
10
5.3643
20
-5.77707
11
5.36804
21
-5.76957
0
LINE
8
BLACK
6
CONTINUOUS
10
5.36804
20
-5.76957
11
5.37554
21
-5.75832
0
LINE
8
BLACK
6
CONTINUOUS
10
5.37554
20
-5.75832
11
5.37929
21
-5.75457
0
LINE
8
BLACK
6
CONTINUOUS
10
5.40554
20
-5.77332
11
5.40929
21
-5.76957
0
LINE
8
BLACK
6
CONTINUOUS
10
5.40929
20
-5.76957
11
5.41679
21
-5.76582
0
LINE
8
BLACK
6
CONTINUOUS
10
5.41679
20
-5.76582
11
5.43554
21
-5.76582
0
LINE
8
BLACK
6
CONTINUOUS
10
5.43554
20
-5.76582
11
5.44304
21
-5.76957
0
LINE
8
BLACK
6
CONTINUOUS
10
5.44304
20
-5.76957
11
5.44678
21
-5.77332
0
LINE
8
BLACK
6
CONTINUOUS
10
5.44678
20
-5.77332
11
5.45053
21
-5.78082
0
LINE
8
BLACK
6
CONTINUOUS
10
5.45053
20
-5.78082
11
5.45053
21
-5.78831
0
LINE
8
BLACK
6
CONTINUOUS
10
5.45053
20
-5.78831
11
5.44678
21
-5.79956
0
LINE
8
BLACK
6
CONTINUOUS
10
5.44678
20
-5.79956
11
5.40179
21
-5.84456
0
LINE
8
BLACK
6
CONTINUOUS
10
5.40179
20
-5.84456
11
5.45053
21
-5.84456
0
LINE
8
BLACK
6
CONTINUOUS
10
5.54427
20
-5.84456
11
5.54427
21
-5.76582
0
LINE
8
BLACK
6
CONTINUOUS
10
5.57802
20
-5.84456
11
5.57802
21
-5.80331
0
LINE
8
BLACK
6
CONTINUOUS
10
5.57802
20
-5.80331
11
5.57427
21
-5.79581
0
LINE
8
BLACK
6
CONTINUOUS
10
5.57427
20
-5.79581
11
5.56677
21
-5.79206
0
LINE
8
BLACK
6
CONTINUOUS
10
5.56677
20
-5.79206
11
5.55552
21
-5.79206
0
LINE
8
BLACK
6
CONTINUOUS
10
5.55552
20
-5.79206
11
5.54802
21
-5.79581
0
LINE
8
BLACK
6
CONTINUOUS
10
5.54802
20
-5.79581
11
5.54427
21
-5.79956
0
LINE
8
BLACK
6
CONTINUOUS
10
5.62676
20
-5.84456
11
5.61926
21
-5.84081
0
LINE
8
BLACK
6
CONTINUOUS
10
5.61926
20
-5.84081
11
5.61551
21
-5.83706
0
LINE
8
BLACK
6
CONTINUOUS
10
5.61551
20
-5.83706
11
5.61176
21
-5.82956
0
LINE
8
BLACK
6
CONTINUOUS
10
5.61176
20
-5.82956
11
5.61176
21
-5.80706
0
LINE
8
BLACK
6
CONTINUOUS
10
5.61176
20
-5.80706
11
5.61551
21
-5.79956
0
LINE
8
BLACK
6
CONTINUOUS
10
5.61551
20
-5.79956
11
5.61926
21
-5.79581
0
LINE
8
BLACK
6
CONTINUOUS
10
5.61926
20
-5.79581
11
5.62676
21
-5.79206
0
LINE
8
BLACK
6
CONTINUOUS
10
5.62676
20
-5.79206
11
5.63801
21
-5.79206
0
LINE
8
BLACK
6
CONTINUOUS
10
5.63801
20
-5.79206
11
5.64551
21
-5.79581
0
LINE
8
BLACK
6
CONTINUOUS
10
5.64551
20
-5.79581
11
5.64926
21
-5.79956
0
LINE
8
BLACK
6
CONTINUOUS
10
5.64926
20
-5.79956
11
5.65301
21
-5.80706
0
LINE
8
BLACK
6
CONTINUOUS
10
5.65301
20
-5.80706
11
5.65301
21
-5.82956
0
LINE
8
BLACK
6
CONTINUOUS
10
5.65301
20
-5.82956
11
5.64926
21
-5.83706
0
LINE
8
BLACK
6
CONTINUOUS
10
5.64926
20
-5.83706
11
5.64551
21
-5.84081
0
LINE
8
BLACK
6
CONTINUOUS
10
5.64551
20
-5.84081
11
5.63801
21
-5.84456
0
LINE
8
BLACK
6
CONTINUOUS
10
5.63801
20
-5.84456
11
5.62676
21
-5.84456
0
LINE
8
BLACK
6
CONTINUOUS
10
5.698
20
-5.84456
11
5.6905
21
-5.84081
0
LINE
8
BLACK
6
CONTINUOUS
10
5.6905
20
-5.84081
11
5.68675
21
-5.83331
0
LINE
8
BLACK
6
CONTINUOUS
10
5.68675
20
-5.83331
11
5.68675
21
-5.76582
0
LINE
8
BLACK
6
CONTINUOUS
10
5.758
20
-5.84081
11
5.7505
21
-5.84456
0
LINE
8
BLACK
6
CONTINUOUS
10
5.7505
20
-5.84456
11
5.7355
21
-5.84456
0
LINE
8
BLACK
6
CONTINUOUS
10
5.7355
20
-5.84456
11
5.728
21
-5.84081
0
LINE
8
BLACK
6
CONTINUOUS
10
5.728
20
-5.84081
11
5.72425
21
-5.83331
0
LINE
8
BLACK
6
CONTINUOUS
10
5.72425
20
-5.83331
11
5.72425
21
-5.80331
0
LINE
8
BLACK
6
CONTINUOUS
10
5.72425
20
-5.80331
11
5.728
21
-5.79581
0
LINE
8
BLACK
6
CONTINUOUS
10
5.728
20
-5.79581
11
5.7355
21
-5.79206
0
LINE
8
BLACK
6
CONTINUOUS
10
5.7355
20
-5.79206
11
5.7505
21
-5.79206
0
LINE
8
BLACK
6
CONTINUOUS
10
5.7505
20
-5.79206
11
5.758
21
-5.79581
0
LINE
8
BLACK
6
CONTINUOUS
10
5.758
20
-5.79581
11
5.76175
21
-5.80331
0
LINE
8
BLACK
6
CONTINUOUS
10
5.76175
20
-5.80331
11
5.76175
21
-5.81081
0
LINE
8
BLACK
6
CONTINUOUS
10
5.76175
20
-5.81081
11
5.72425
21
-5.81831
0
LINE
8
BLACK
6
CONTINUOUS
10
5.79174
20
-5.84081
11
5.79924
21
-5.84456
0
LINE
8
BLACK
6
CONTINUOUS
10
5.79924
20
-5.84456
11
5.81424
21
-5.84456
0
LINE
8
BLACK
6
CONTINUOUS
10
5.81424
20
-5.84456
11
5.82174
21
-5.84081
0
LINE
8
BLACK
6
CONTINUOUS
10
5.82174
20
-5.84081
11
5.82549
21
-5.83331
0
LINE
8
BLACK
6
CONTINUOUS
10
5.82549
20
-5.83331
11
5.82549
21
-5.82956
0
LINE
8
BLACK
6
CONTINUOUS
10
5.82549
20
-5.82956
11
5.82174
21
-5.82206
0
LINE
8
BLACK
6
CONTINUOUS
10
5.82174
20
-5.82206
11
5.81424
21
-5.81831
0
LINE
8
BLACK
6
CONTINUOUS
10
5.81424
20
-5.81831
11
5.80299
21
-5.81831
0
LINE
8
BLACK
6
CONTINUOUS
10
5.80299
20
-5.81831
11
5.79549
21
-5.81456
0
LINE
8
BLACK
6
CONTINUOUS
10
5.79549
20
-5.81456
11
5.79174
21
-5.80706
0
LINE
8
BLACK
6
CONTINUOUS
10
5.79174
20
-5.80706
11
5.79174
21
-5.80331
0
LINE
8
BLACK
6
CONTINUOUS
10
5.79174
20
-5.80331
11
5.79549
21
-5.79581
0
LINE
8
BLACK
6
CONTINUOUS
10
5.79549
20
-5.79581
11
5.80299
21
-5.79206
0
LINE
8
BLACK
6
CONTINUOUS
10
5.80299
20
-5.79206
11
5.81424
21
-5.79206
0
LINE
8
BLACK
6
CONTINUOUS
10
5.81424
20
-5.79206
11
5.82174
21
-5.79581
0
LINE
8
BLACK
6
CONTINUOUS
10
5.85173
20
-5.87455
11
5.85548
21
-5.8708
0
LINE
8
BLACK
6
CONTINUOUS
10
5.85548
20
-5.8708
11
5.86298
21
-5.85956
0
LINE
8
BLACK
6
CONTINUOUS
10
5.86298
20
-5.85956
11
5.86673
21
-5.85206
0
LINE
8
BLACK
6
CONTINUOUS
10
5.86673
20
-5.85206
11
5.87048
21
-5.84081
0
LINE
8
BLACK
6
CONTINUOUS
10
5.87048
20
-5.84081
11
5.87423
21
-5.82206
0
LINE
8
BLACK
6
CONTINUOUS
10
5.87423
20
-5.82206
11
5.87423
21
-5.80706
0
LINE
8
BLACK
6
CONTINUOUS
10
5.87423
20
-5.80706
11
5.87048
21
-5.78831
0
LINE
8
BLACK
6
CONTINUOUS
10
5.87048
20
-5.78831
11
5.86673
21
-5.77707
0
LINE
8
BLACK
6
CONTINUOUS
10
5.86673
20
-5.77707
11
5.86298
21
-5.76957
0
LINE
8
BLACK
6
CONTINUOUS
10
5.86298
20
-5.76957
11
5.85548
21
-5.75832
0
LINE
8
BLACK
6
CONTINUOUS
10
5.85548
20
-5.75832
11
5.85173
21
-5.75457
0
LINE
8
BLACK
6
CONTINUOUS
10
5.99422
20
-5.87455
11
5.99047
21
-5.8708
0
LINE
8
BLACK
6
CONTINUOUS
10
5.99047
20
-5.8708
11
5.98297
21
-5.85956
0
LINE
8
BLACK
6
CONTINUOUS
10
5.98297
20
-5.85956
11
5.97922
21
-5.85206
0
LINE
8
BLACK
6
CONTINUOUS
10
5.97922
20
-5.85206
11
5.97547
21
-5.84081
0
LINE
8
BLACK
6
CONTINUOUS
10
5.97547
20
-5.84081
11
5.97172
21
-5.82206
0
LINE
8
BLACK
6
CONTINUOUS
10
5.97172
20
-5.82206
11
5.97172
21
-5.80706
0
LINE
8
BLACK
6
CONTINUOUS
10
5.97172
20
-5.80706
11
5.97547
21
-5.78831
0
LINE
8
BLACK
6
CONTINUOUS
10
5.97547
20
-5.78831
11
5.97922
21
-5.77707
0
LINE
8
BLACK
6
CONTINUOUS
10
5.97922
20
-5.77707
11
5.98297
21
-5.76957
0
LINE
8
BLACK
6
CONTINUOUS
10
5.98297
20
-5.76957
11
5.99047
21
-5.75832
0
LINE
8
BLACK
6
CONTINUOUS
10
5.99047
20
-5.75832
11
5.99422
21
-5.75457
0
LINE
8
BLACK
6
CONTINUOUS
10
6.02421
20
-5.79206
11
6.02421
21
-5.84456
0
LINE
8
BLACK
6
CONTINUOUS
10
6.02421
20
-5.79956
11
6.02796
21
-5.79581
0
LINE
8
BLACK
6
CONTINUOUS
10
6.02796
20
-5.79581
11
6.03546
21
-5.79206
0
LINE
8
BLACK
6
CONTINUOUS
10
6.03546
20
-5.79206
11
6.04671
21
-5.79206
0
LINE
8
BLACK
6
CONTINUOUS
10
6.04671
20
-5.79206
11
6.05421
21
-5.79581
0
LINE
8
BLACK
6
CONTINUOUS
10
6.05421
20
-5.79581
11
6.05796
21
-5.80331
0
LINE
8
BLACK
6
CONTINUOUS
10
6.05796
20
-5.80331
11
6.05796
21
-5.84456
0
LINE
8
BLACK
6
CONTINUOUS
10
6.1067
20
-5.84456
11
6.0992
21
-5.84081
0
LINE
8
BLACK
6
CONTINUOUS
10
6.0992
20
-5.84081
11
6.09545
21
-5.83706
0
LINE
8
BLACK
6
CONTINUOUS
10
6.09545
20
-5.83706
11
6.0917
21
-5.82956
0
LINE
8
BLACK
6
CONTINUOUS
10
6.0917
20
-5.82956
11
6.0917
21
-5.80706
0
LINE
8
BLACK
6
CONTINUOUS
10
6.0917
20
-5.80706
11
6.09545
21
-5.79956
0
LINE
8
BLACK
6
CONTINUOUS
10
6.09545
20
-5.79956
11
6.0992
21
-5.79581
0
LINE
8
BLACK
6
CONTINUOUS
10
6.0992
20
-5.79581
11
6.1067
21
-5.79206
0
LINE
8
BLACK
6
CONTINUOUS
10
6.1067
20
-5.79206
11
6.11795
21
-5.79206
0
LINE
8
BLACK
6
CONTINUOUS
10
6.11795
20
-5.79206
11
6.12545
21
-5.79581
0
LINE
8
BLACK
6
CONTINUOUS
10
6.12545
20
-5.79581
11
6.1292
21
-5.79956
0
LINE
8
BLACK
6
CONTINUOUS
10
6.1292
20
-5.79956
11
6.13295
21
-5.80706
0
LINE
8
BLACK
6
CONTINUOUS
10
6.13295
20
-5.80706
11
6.13295
21
-5.82956
0
LINE
8
BLACK
6
CONTINUOUS
10
6.13295
20
-5.82956
11
6.1292
21
-5.83706
0
LINE
8
BLACK
6
CONTINUOUS
10
6.1292
20
-5.83706
11
6.12545
21
-5.84081
0
LINE
8
BLACK
6
CONTINUOUS
10
6.12545
20
-5.84081
11
6.11795
21
-5.84456
0
LINE
8
BLACK
6
CONTINUOUS
10
6.11795
20
-5.84456
11
6.1067
21
-5.84456
0
LINE
8
BLACK
6
CONTINUOUS
10
6.15545
20
-5.79206
11
6.18544
21
-5.79206
0
LINE
8
BLACK
6
CONTINUOUS
10
6.16669
20
-5.76582
11
6.16669
21
-5.83331
0
LINE
8
BLACK
6
CONTINUOUS
10
6.16669
20
-5.83331
11
6.17044
21
-5.84081
0
LINE
8
BLACK
6
CONTINUOUS
10
6.17044
20
-5.84081
11
6.17794
21
-5.84456
0
LINE
8
BLACK
6
CONTINUOUS
10
6.17794
20
-5.84456
11
6.18544
21
-5.84456
0
LINE
8
BLACK
6
CONTINUOUS
10
6.27168
20
-5.79206
11
6.27168
21
-5.8708
0
LINE
8
BLACK
6
CONTINUOUS
10
6.27168
20
-5.79581
11
6.27918
21
-5.79206
0
LINE
8
BLACK
6
CONTINUOUS
10
6.27918
20
-5.79206
11
6.29418
21
-5.79206
0
LINE
8
BLACK
6
CONTINUOUS
10
6.29418
20
-5.79206
11
6.30168
21
-5.79581
0
LINE
8
BLACK
6
CONTINUOUS
10
6.30168
20
-5.79581
11
6.30543
21
-5.79956
0
LINE
8
BLACK
6
CONTINUOUS
10
6.30543
20
-5.79956
11
6.30918
21
-5.80706
0
LINE
8
BLACK
6
CONTINUOUS
10
6.30918
20
-5.80706
11
6.30918
21
-5.82956
0
LINE
8
BLACK
6
CONTINUOUS
10
6.30918
20
-5.82956
11
6.30543
21
-5.83706
0
LINE
8
BLACK
6
CONTINUOUS
10
6.30543
20
-5.83706
11
6.30168
21
-5.84081
0
LINE
8
BLACK
6
CONTINUOUS
10
6.30168
20
-5.84081
11
6.29418
21
-5.84456
0
LINE
8
BLACK
6
CONTINUOUS
10
6.29418
20
-5.84456
11
6.27918
21
-5.84456
0
LINE
8
BLACK
6
CONTINUOUS
10
6.27918
20
-5.84456
11
6.27168
21
-5.84081
0
LINE
8
BLACK
6
CONTINUOUS
10
6.35417
20
-5.84456
11
6.34667
21
-5.84081
0
LINE
8
BLACK
6
CONTINUOUS
10
6.34667
20
-5.84081
11
6.34292
21
-5.83331
0
LINE
8
BLACK
6
CONTINUOUS
10
6.34292
20
-5.83331
11
6.34292
21
-5.76582
0
LINE
8
BLACK
6
CONTINUOUS
10
6.41791
20
-5.84456
11
6.41791
21
-5.80331
0
LINE
8
BLACK
6
CONTINUOUS
10
6.41791
20
-5.80331
11
6.41416
21
-5.79581
0
LINE
8
BLACK
6
CONTINUOUS
10
6.41416
20
-5.79581
11
6.40666
21
-5.79206
0
LINE
8
BLACK
6
CONTINUOUS
10
6.40666
20
-5.79206
11
6.39167
21
-5.79206
0
LINE
8
BLACK
6
CONTINUOUS
10
6.39167
20
-5.79206
11
6.38417
21
-5.79581
0
LINE
8
BLACK
6
CONTINUOUS
10
6.41791
20
-5.84081
11
6.41041
21
-5.84456
0
LINE
8
BLACK
6
CONTINUOUS
10
6.41041
20
-5.84456
11
6.39167
21
-5.84456
0
LINE
8
BLACK
6
CONTINUOUS
10
6.39167
20
-5.84456
11
6.38417
21
-5.84081
0
LINE
8
BLACK
6
CONTINUOUS
10
6.38417
20
-5.84081
11
6.38042
21
-5.83331
0
LINE
8
BLACK
6
CONTINUOUS
10
6.38042
20
-5.83331
11
6.38042
21
-5.82581
0
LINE
8
BLACK
6
CONTINUOUS
10
6.38042
20
-5.82581
11
6.38417
21
-5.81831
0
LINE
8
BLACK
6
CONTINUOUS
10
6.38417
20
-5.81831
11
6.39167
21
-5.81456
0
LINE
8
BLACK
6
CONTINUOUS
10
6.39167
20
-5.81456
11
6.41041
21
-5.81456
0
LINE
8
BLACK
6
CONTINUOUS
10
6.41041
20
-5.81456
11
6.41791
21
-5.81081
0
LINE
8
BLACK
6
CONTINUOUS
10
6.44416
20
-5.79206
11
6.47416
21
-5.79206
0
LINE
8
BLACK
6
CONTINUOUS
10
6.45541
20
-5.76582
11
6.45541
21
-5.83331
0
LINE
8
BLACK
6
CONTINUOUS
10
6.45541
20
-5.83331
11
6.45916
21
-5.84081
0
LINE
8
BLACK
6
CONTINUOUS
10
6.45916
20
-5.84081
11
6.46666
21
-5.84456
0
LINE
8
BLACK
6
CONTINUOUS
10
6.46666
20
-5.84456
11
6.47416
21
-5.84456
0
LINE
8
BLACK
6
CONTINUOUS
10
6.5304
20
-5.84081
11
6.5229
21
-5.84456
0
LINE
8
BLACK
6
CONTINUOUS
10
6.5229
20
-5.84456
11
6.5079
21
-5.84456
0
LINE
8
BLACK
6
CONTINUOUS
10
6.5079
20
-5.84456
11
6.5004
21
-5.84081
0
LINE
8
BLACK
6
CONTINUOUS
10
6.5004
20
-5.84081
11
6.49665
21
-5.83331
0
LINE
8
BLACK
6
CONTINUOUS
10
6.49665
20
-5.83331
11
6.49665
21
-5.80331
0
LINE
8
BLACK
6
CONTINUOUS
10
6.49665
20
-5.80331
11
6.5004
21
-5.79581
0
LINE
8
BLACK
6
CONTINUOUS
10
6.5004
20
-5.79581
11
6.5079
21
-5.79206
0
LINE
8
BLACK
6
CONTINUOUS
10
6.5079
20
-5.79206
11
6.5229
21
-5.79206
0
LINE
8
BLACK
6
CONTINUOUS
10
6.5229
20
-5.79206
11
6.5304
21
-5.79581
0
LINE
8
BLACK
6
CONTINUOUS
10
6.5304
20
-5.79581
11
6.53415
21
-5.80331
0
LINE
8
BLACK
6
CONTINUOUS
10
6.53415
20
-5.80331
11
6.53415
21
-5.81081
0
LINE
8
BLACK
6
CONTINUOUS
10
6.53415
20
-5.81081
11
6.49665
21
-5.81831
0
LINE
8
BLACK
6
CONTINUOUS
10
6.60164
20
-5.84456
11
6.60164
21
-5.76582
0
LINE
8
BLACK
6
CONTINUOUS
10
6.60164
20
-5.84081
11
6.59414
21
-5.84456
0
LINE
8
BLACK
6
CONTINUOUS
10
6.59414
20
-5.84456
11
6.57914
21
-5.84456
0
LINE
8
BLACK
6
CONTINUOUS
10
6.57914
20
-5.84456
11
6.57164
21
-5.84081
0
LINE
8
BLACK
6
CONTINUOUS
10
6.57164
20
-5.84081
11
6.56789
21
-5.83706
0
LINE
8
BLACK
6
CONTINUOUS
10
6.56789
20
-5.83706
11
6.56415
21
-5.82956
0
LINE
8
BLACK
6
CONTINUOUS
10
6.56415
20
-5.82956
11
6.56415
21
-5.80706
0
LINE
8
BLACK
6
CONTINUOUS
10
6.56415
20
-5.80706
11
6.56789
21
-5.79956
0
LINE
8
BLACK
6
CONTINUOUS
10
6.56789
20
-5.79956
11
6.57164
21
-5.79581
0
LINE
8
BLACK
6
CONTINUOUS
10
6.57164
20
-5.79581
11
6.57914
21
-5.79206
0
LINE
8
BLACK
6
CONTINUOUS
10
6.57914
20
-5.79206
11
6.59414
21
-5.79206
0
LINE
8
BLACK
6
CONTINUOUS
10
6.59414
20
-5.79206
11
6.60164
21
-5.79581
0
LINE
8
BLACK
6
CONTINUOUS
10
6.63164
20
-5.87455
11
6.63539
21
-5.8708
0
LINE
8
BLACK
6
CONTINUOUS
10
6.63539
20
-5.8708
11
6.64289
21
-5.85956
0
LINE
8
BLACK
6
CONTINUOUS
10
6.64289
20
-5.85956
11
6.64663
21
-5.85206
0
LINE
8
BLACK
6
CONTINUOUS
10
6.64663
20
-5.85206
11
6.65038
21
-5.84081
0
LINE
8
BLACK
6
CONTINUOUS
10
6.65038
20
-5.84081
11
6.65413
21
-5.82206
0
LINE
8
BLACK
6
CONTINUOUS
10
6.65413
20
-5.82206
11
6.65413
21
-5.80706
0
LINE
8
BLACK
6
CONTINUOUS
10
6.65413
20
-5.80706
11
6.65038
21
-5.78831
0
LINE
8
BLACK
6
CONTINUOUS
10
6.65038
20
-5.78831
11
6.64663
21
-5.77707
0
LINE
8
BLACK
6
CONTINUOUS
10
6.64663
20
-5.77707
11
6.64289
21
-5.76957
0
LINE
8
BLACK
6
CONTINUOUS
10
6.64289
20
-5.76957
11
6.63539
21
-5.75832
0
LINE
8
BLACK
6
CONTINUOUS
10
6.63539
20
-5.75832
11
6.63164
21
-5.75457
0
CIRCLE
8
BLACK
10
3.93366
20
-5.91287
40
0.0393701
0
LINE
8
BLACK
6
CONTINUOUS
10
4.06696
20
-5.86975
11
4.1157
21
-5.86975
0
LINE
8
BLACK
6
CONTINUOUS
10
4.1157
20
-5.86975
11
4.08945
21
-5.89975
0
LINE
8
BLACK
6
CONTINUOUS
10
4.08945
20
-5.89975
11
4.1007
21
-5.89975
0
LINE
8
BLACK
6
CONTINUOUS
10
4.1007
20
-5.89975
11
4.1082
21
-5.9035
0
LINE
8
BLACK
6
CONTINUOUS
10
4.1082
20
-5.9035
11
4.11195
21
-5.90725
0
LINE
8
BLACK
6
CONTINUOUS
10
4.11195
20
-5.90725
11
4.1157
21
-5.91475
0
LINE
8
BLACK
6
CONTINUOUS
10
4.1157
20
-5.91475
11
4.1157
21
-5.9335
0
LINE
8
BLACK
6
CONTINUOUS
10
4.1157
20
-5.9335
11
4.11195
21
-5.941
0
LINE
8
BLACK
6
CONTINUOUS
10
4.11195
20
-5.941
11
4.1082
21
-5.94475
0
LINE
8
BLACK
6
CONTINUOUS
10
4.1082
20
-5.94475
11
4.1007
21
-5.94849
0
LINE
8
BLACK
6
CONTINUOUS
10
4.1007
20
-5.94849
11
4.07821
21
-5.94849
0
LINE
8
BLACK
6
CONTINUOUS
10
4.07821
20
-5.94849
11
4.07071
21
-5.94475
0
LINE
8
BLACK
6
CONTINUOUS
10
4.07071
20
-5.94475
11
4.06696
21
-5.941
0
LINE
8
BLACK
6
CONTINUOUS
10
4.14945
20
-5.941
11
4.1532
21
-5.94475
0
LINE
8
BLACK
6
CONTINUOUS
10
4.1532
20
-5.94475
11
4.14945
21
-5.94849
0
LINE
8
BLACK
6
CONTINUOUS
10
4.14945
20
-5.94849
11
4.1457
21
-5.94475
0
LINE
8
BLACK
6
CONTINUOUS
10
4.1457
20
-5.94475
11
4.14945
21
-5.941
0
LINE
8
BLACK
6
CONTINUOUS
10
4.14945
20
-5.941
11
4.14945
21
-5.94849
0
LINE
8
BLACK
6
CONTINUOUS
10
4.18319
20
-5.87725
11
4.18694
21
-5.8735
0
LINE
8
BLACK
6
CONTINUOUS
10
4.18694
20
-5.8735
11
4.19444
21
-5.86975
0
LINE
8
BLACK
6
CONTINUOUS
10
4.19444
20
-5.86975
11
4.21319
21
-5.86975
0
LINE
8
BLACK
6
CONTINUOUS
10
4.21319
20
-5.86975
11
4.22069
21
-5.8735
0
LINE
8
BLACK
6
CONTINUOUS
10
4.22069
20
-5.8735
11
4.22444
21
-5.87725
0
LINE
8
BLACK
6
CONTINUOUS
10
4.22444
20
-5.87725
11
4.22819
21
-5.88475
0
LINE
8
BLACK
6
CONTINUOUS
10
4.22819
20
-5.88475
11
4.22819
21
-5.89225
0
LINE
8
BLACK
6
CONTINUOUS
10
4.22819
20
-5.89225
11
4.22444
21
-5.9035
0
LINE
8
BLACK
6
CONTINUOUS
10
4.22444
20
-5.9035
11
4.17944
21
-5.94849
0
LINE
8
BLACK
6
CONTINUOUS
10
4.17944
20
-5.94849
11
4.22819
21
-5.94849
0
LINE
8
BLACK
6
CONTINUOUS
10
4.29943
20
-5.86975
11
4.26193
21
-5.86975
0
LINE
8
BLACK
6
CONTINUOUS
10
4.26193
20
-5.86975
11
4.25818
21
-5.90725
0
LINE
8
BLACK
6
CONTINUOUS
10
4.25818
20
-5.90725
11
4.26193
21
-5.9035
0
LINE
8
BLACK
6
CONTINUOUS
10
4.26193
20
-5.9035
11
4.26943
21
-5.89975
0
LINE
8
BLACK
6
CONTINUOUS
10
4.26943
20
-5.89975
11
4.28818
21
-5.89975
0
LINE
8
BLACK
6
CONTINUOUS
10
4.28818
20
-5.89975
11
4.29568
21
-5.9035
0
LINE
8
BLACK
6
CONTINUOUS
10
4.29568
20
-5.9035
11
4.29943
21
-5.90725
0
LINE
8
BLACK
6
CONTINUOUS
10
4.29943
20
-5.90725
11
4.30318
21
-5.91475
0
LINE
8
BLACK
6
CONTINUOUS
10
4.30318
20
-5.91475
11
4.30318
21
-5.9335
0
LINE
8
BLACK
6
CONTINUOUS
10
4.30318
20
-5.9335
11
4.29943
21
-5.941
0
LINE
8
BLACK
6
CONTINUOUS
10
4.29943
20
-5.941
11
4.29568
21
-5.94475
0
LINE
8
BLACK
6
CONTINUOUS
10
4.29568
20
-5.94475
11
4.28818
21
-5.94849
0
LINE
8
BLACK
6
CONTINUOUS
10
4.28818
20
-5.94849
11
4.26943
21
-5.94849
0
LINE
8
BLACK
6
CONTINUOUS
10
4.26943
20
-5.94849
11
4.26193
21
-5.94475
0
LINE
8
BLACK
6
CONTINUOUS
10
4.26193
20
-5.94475
11
4.25818
21
-5.941
0
LINE
8
BLACK
6
CONTINUOUS
10
4.35192
20
-5.86975
11
4.35942
21
-5.86975
0
LINE
8
BLACK
6
CONTINUOUS
10
4.35942
20
-5.86975
11
4.36692
21
-5.8735
0
LINE
8
BLACK
6
CONTINUOUS
10
4.36692
20
-5.8735
11
4.37067
21
-5.87725
0
LINE
8
BLACK
6
CONTINUOUS
10
4.37067
20
-5.87725
11
4.37442
21
-5.88475
0
LINE
8
BLACK
6
CONTINUOUS
10
4.37442
20
-5.88475
11
4.37817
21
-5.89975
0
LINE
8
BLACK
6
CONTINUOUS
10
4.37817
20
-5.89975
11
4.37817
21
-5.9185
0
LINE
8
BLACK
6
CONTINUOUS
10
4.37817
20
-5.9185
11
4.37442
21
-5.9335
0
LINE
8
BLACK
6
CONTINUOUS
10
4.37442
20
-5.9335
11
4.37067
21
-5.941
0
LINE
8
BLACK
6
CONTINUOUS
10
4.37067
20
-5.941
11
4.36692
21
-5.94475
0
LINE
8
BLACK
6
CONTINUOUS
10
4.36692
20
-5.94475
11
4.35942
21
-5.94849
0
LINE
8
BLACK
6
CONTINUOUS
10
4.35942
20
-5.94849
11
4.35192
21
-5.94849
0
LINE
8
BLACK
6
CONTINUOUS
10
4.35192
20
-5.94849
11
4.34442
21
-5.94475
0
LINE
8
BLACK
6
CONTINUOUS
10
4.34442
20
-5.94475
11
4.34067
21
-5.941
0
LINE
8
BLACK
6
CONTINUOUS
10
4.34067
20
-5.941
11
4.33692
21
-5.9335
0
LINE
8
BLACK
6
CONTINUOUS
10
4.33692
20
-5.9335
11
4.33317
21
-5.9185
0
LINE
8
BLACK
6
CONTINUOUS
10
4.33317
20
-5.9185
11
4.33317
21
-5.89975
0
LINE
8
BLACK
6
CONTINUOUS
10
4.33317
20
-5.89975
11
4.33692
21
-5.88475
0
LINE
8
BLACK
6
CONTINUOUS
10
4.33692
20
-5.88475
11
4.34067
21
-5.87725
0
LINE
8
BLACK
6
CONTINUOUS
10
4.34067
20
-5.87725
11
4.34442
21
-5.8735
0
LINE
8
BLACK
6
CONTINUOUS
10
4.34442
20
-5.8735
11
4.35192
21
-5.86975
0
LINE
8
BLACK
6
CONTINUOUS
10
4.41191
20
-5.94849
11
4.41191
21
-5.896
0
LINE
8
BLACK
6
CONTINUOUS
10
4.41191
20
-5.9035
11
4.41566
21
-5.89975
0
LINE
8
BLACK
6
CONTINUOUS
10
4.41566
20
-5.89975
11
4.42316
21
-5.896
0
LINE
8
BLACK
6
CONTINUOUS
10
4.42316
20
-5.896
11
4.43441
21
-5.896
0
LINE
8
BLACK
6
CONTINUOUS
10
4.43441
20
-5.896
11
4.44191
21
-5.89975
0
LINE
8
BLACK
6
CONTINUOUS
10
4.44191
20
-5.89975
11
4.44566
21
-5.90725
0
LINE
8
BLACK
6
CONTINUOUS
10
4.44566
20
-5.90725
11
4.44566
21
-5.94849
0
LINE
8
BLACK
6
CONTINUOUS
10
4.44566
20
-5.90725
11
4.44941
21
-5.89975
0
LINE
8
BLACK
6
CONTINUOUS
10
4.44941
20
-5.89975
11
4.45691
21
-5.896
0
LINE
8
BLACK
6
CONTINUOUS
10
4.45691
20
-5.896
11
4.46816
21
-5.896
0
LINE
8
BLACK
6
CONTINUOUS
10
4.46816
20
-5.896
11
4.47566
21
-5.89975
0
LINE
8
BLACK
6
CONTINUOUS
10
4.47566
20
-5.89975
11
4.47941
21
-5.90725
0
LINE
8
BLACK
6
CONTINUOUS
10
4.47941
20
-5.90725
11
4.47941
21
-5.94849
0
LINE
8
BLACK
6
CONTINUOUS
10
4.5169
20
-5.94849
11
4.5169
21
-5.896
0
LINE
8
BLACK
6
CONTINUOUS
10
4.5169
20
-5.9035
11
4.52065
21
-5.89975
0
LINE
8
BLACK
6
CONTINUOUS
10
4.52065
20
-5.89975
11
4.52815
21
-5.896
0
LINE
8
BLACK
6
CONTINUOUS
10
4.52815
20
-5.896
11
4.5394
21
-5.896
0
LINE
8
BLACK
6
CONTINUOUS
10
4.5394
20
-5.896
11
4.5469
21
-5.89975
0
LINE
8
BLACK
6
CONTINUOUS
10
4.5469
20
-5.89975
11
4.55065
21
-5.90725
0
LINE
8
BLACK
6
CONTINUOUS
10
4.55065
20
-5.90725
11
4.55065
21
-5.94849
0
LINE
8
BLACK
6
CONTINUOUS
10
4.55065
20
-5.90725
11
4.5544
21
-5.89975
0
LINE
8
BLACK
6
CONTINUOUS
10
4.5544
20
-5.89975
11
4.5619
21
-5.896
0
LINE
8
BLACK
6
CONTINUOUS
10
4.5619
20
-5.896
11
4.57314
21
-5.896
0
LINE
8
BLACK
6
CONTINUOUS
10
4.57314
20
-5.896
11
4.58064
21
-5.89975
0
LINE
8
BLACK
6
CONTINUOUS
10
4.58064
20
-5.89975
11
4.58439
21
-5.90725
0
LINE
8
BLACK
6
CONTINUOUS
10
4.58439
20
-5.90725
11
4.58439
21
-5.94849
0
LINE
8
BLACK
6
CONTINUOUS
10
4.73812
20
-5.866
11
4.67063
21
-5.96724
0
LINE
8
BLACK
6
CONTINUOUS
10
4.83936
20
-5.86975
11
4.84686
21
-5.86975
0
LINE
8
BLACK
6
CONTINUOUS
10
4.84686
20
-5.86975
11
4.85436
21
-5.8735
0
LINE
8
BLACK
6
CONTINUOUS
10
4.85436
20
-5.8735
11
4.85811
21
-5.87725
0
LINE
8
BLACK
6
CONTINUOUS
10
4.85811
20
-5.87725
11
4.86186
21
-5.88475
0
LINE
8
BLACK
6
CONTINUOUS
10
4.86186
20
-5.88475
11
4.86561
21
-5.89975
0
LINE
8
BLACK
6
CONTINUOUS
10
4.86561
20
-5.89975
11
4.86561
21
-5.9185
0
LINE
8
BLACK
6
CONTINUOUS
10
4.86561
20
-5.9185
11
4.86186
21
-5.9335
0
LINE
8
BLACK
6
CONTINUOUS
10
4.86186
20
-5.9335
11
4.85811
21
-5.941
0
LINE
8
BLACK
6
CONTINUOUS
10
4.85811
20
-5.941
11
4.85436
21
-5.94475
0
LINE
8
BLACK
6
CONTINUOUS
10
4.85436
20
-5.94475
11
4.84686
21
-5.94849
0
LINE
8
BLACK
6
CONTINUOUS
10
4.84686
20
-5.94849
11
4.83936
21
-5.94849
0
LINE
8
BLACK
6
CONTINUOUS
10
4.83936
20
-5.94849
11
4.83186
21
-5.94475
0
LINE
8
BLACK
6
CONTINUOUS
10
4.83186
20
-5.94475
11
4.82811
21
-5.941
0
LINE
8
BLACK
6
CONTINUOUS
10
4.82811
20
-5.941
11
4.82436
21
-5.9335
0
LINE
8
BLACK
6
CONTINUOUS
10
4.82436
20
-5.9335
11
4.82061
21
-5.9185
0
LINE
8
BLACK
6
CONTINUOUS
10
4.82061
20
-5.9185
11
4.82061
21
-5.89975
0
LINE
8
BLACK
6
CONTINUOUS
10
4.82061
20
-5.89975
11
4.82436
21
-5.88475
0
LINE
8
BLACK
6
CONTINUOUS
10
4.82436
20
-5.88475
11
4.82811
21
-5.87725
0
LINE
8
BLACK
6
CONTINUOUS
10
4.82811
20
-5.87725
11
4.83186
21
-5.8735
0
LINE
8
BLACK
6
CONTINUOUS
10
4.83186
20
-5.8735
11
4.83936
21
-5.86975
0
LINE
8
BLACK
6
CONTINUOUS
10
4.89935
20
-5.941
11
4.9031
21
-5.94475
0
LINE
8
BLACK
6
CONTINUOUS
10
4.9031
20
-5.94475
11
4.89935
21
-5.94849
0
LINE
8
BLACK
6
CONTINUOUS
10
4.89935
20
-5.94849
11
4.8956
21
-5.94475
0
LINE
8
BLACK
6
CONTINUOUS
10
4.8956
20
-5.94475
11
4.89935
21
-5.941
0
LINE
8
BLACK
6
CONTINUOUS
10
4.89935
20
-5.941
11
4.89935
21
-5.94849
0
LINE
8
BLACK
6
CONTINUOUS
10
4.97809
20
-5.94849
11
4.9331
21
-5.94849
0
LINE
8
BLACK
6
CONTINUOUS
10
4.9556
20
-5.94849
11
4.9556
21
-5.86975
0
LINE
8
BLACK
6
CONTINUOUS
10
4.9556
20
-5.86975
11
4.9481
21
-5.881
0
LINE
8
BLACK
6
CONTINUOUS
10
4.9481
20
-5.881
11
4.9406
21
-5.8885
0
LINE
8
BLACK
6
CONTINUOUS
10
4.9406
20
-5.8885
11
4.9331
21
-5.89225
0
LINE
8
BLACK
6
CONTINUOUS
10
5.00809
20
-5.87725
11
5.01184
21
-5.8735
0
LINE
8
BLACK
6
CONTINUOUS
10
5.01184
20
-5.8735
11
5.01934
21
-5.86975
0
LINE
8
BLACK
6
CONTINUOUS
10
5.01934
20
-5.86975
11
5.03809
21
-5.86975
0
LINE
8
BLACK
6
CONTINUOUS
10
5.03809
20
-5.86975
11
5.04558
21
-5.8735
0
LINE
8
BLACK
6
CONTINUOUS
10
5.04558
20
-5.8735
11
5.04933
21
-5.87725
0
LINE
8
BLACK
6
CONTINUOUS
10
5.04933
20
-5.87725
11
5.05308
21
-5.88475
0
LINE
8
BLACK
6
CONTINUOUS
10
5.05308
20
-5.88475
11
5.05308
21
-5.89225
0
LINE
8
BLACK
6
CONTINUOUS
10
5.05308
20
-5.89225
11
5.04933
21
-5.9035
0
LINE
8
BLACK
6
CONTINUOUS
10
5.04933
20
-5.9035
11
5.00434
21
-5.94849
0
LINE
8
BLACK
6
CONTINUOUS
10
5.00434
20
-5.94849
11
5.05308
21
-5.94849
0
LINE
8
BLACK
6
CONTINUOUS
10
5.09808
20
-5.9035
11
5.09058
21
-5.89975
0
LINE
8
BLACK
6
CONTINUOUS
10
5.09058
20
-5.89975
11
5.08683
21
-5.896
0
LINE
8
BLACK
6
CONTINUOUS
10
5.08683
20
-5.896
11
5.08308
21
-5.8885
0
LINE
8
BLACK
6
CONTINUOUS
10
5.08308
20
-5.8885
11
5.08308
21
-5.88475
0
LINE
8
BLACK
6
CONTINUOUS
10
5.08308
20
-5.88475
11
5.08683
21
-5.87725
0
LINE
8
BLACK
6
CONTINUOUS
10
5.08683
20
-5.87725
11
5.09058
21
-5.8735
0
LINE
8
BLACK
6
CONTINUOUS
10
5.09058
20
-5.8735
11
5.09808
21
-5.86975
0
LINE
8
BLACK
6
CONTINUOUS
10
5.09808
20
-5.86975
11
5.11308
21
-5.86975
0
LINE
8
BLACK
6
CONTINUOUS
10
5.11308
20
-5.86975
11
5.12058
21
-5.8735
0
LINE
8
BLACK
6
CONTINUOUS
10
5.12058
20
-5.8735
11
5.12433
21
-5.87725
0
LINE
8
BLACK
6
CONTINUOUS
10
5.12433
20
-5.87725
11
5.12807
21
-5.88475
0
LINE
8
BLACK
6
CONTINUOUS
10
5.12807
20
-5.88475
11
5.12807
21
-5.8885
0
LINE
8
BLACK
6
CONTINUOUS
10
5.12807
20
-5.8885
11
5.12433
21
-5.896
0
LINE
8
BLACK
6
CONTINUOUS
10
5.12433
20
-5.896
11
5.12058
21
-5.89975
0
LINE
8
BLACK
6
CONTINUOUS
10
5.12058
20
-5.89975
11
5.11308
21
-5.9035
0
LINE
8
BLACK
6
CONTINUOUS
10
5.11308
20
-5.9035
11
5.09808
21
-5.9035
0
LINE
8
BLACK
6
CONTINUOUS
10
5.09808
20
-5.9035
11
5.09058
21
-5.90725
0
LINE
8
BLACK
6
CONTINUOUS
10
5.09058
20
-5.90725
11
5.08683
21
-5.911
0
LINE
8
BLACK
6
CONTINUOUS
10
5.08683
20
-5.911
11
5.08308
21
-5.9185
0
LINE
8
BLACK
6
CONTINUOUS
10
5.08308
20
-5.9185
11
5.08308
21
-5.9335
0
LINE
8
BLACK
6
CONTINUOUS
10
5.08308
20
-5.9335
11
5.08683
21
-5.941
0
LINE
8
BLACK
6
CONTINUOUS
10
5.08683
20
-5.941
11
5.09058
21
-5.94475
0
LINE
8
BLACK
6
CONTINUOUS
10
5.09058
20
-5.94475
11
5.09808
21
-5.94849
0
LINE
8
BLACK
6
CONTINUOUS
10
5.09808
20
-5.94849
11
5.11308
21
-5.94849
0
LINE
8
BLACK
6
CONTINUOUS
10
5.11308
20
-5.94849
11
5.12058
21
-5.94475
0
LINE
8
BLACK
6
CONTINUOUS
10
5.12058
20
-5.94475
11
5.12433
21
-5.941
0
LINE
8
BLACK
6
CONTINUOUS
10
5.12433
20
-5.941
11
5.12807
21
-5.9335
0
LINE
8
BLACK
6
CONTINUOUS
10
5.12807
20
-5.9335
11
5.12807
21
-5.9185
0
LINE
8
BLACK
6
CONTINUOUS
10
5.12807
20
-5.9185
11
5.12433
21
-5.911
0
LINE
8
BLACK
6
CONTINUOUS
10
5.12433
20
-5.911
11
5.12058
21
-5.90725
0
LINE
8
BLACK
6
CONTINUOUS
10
5.12058
20
-5.90725
11
5.11308
21
-5.9035
0
LINE
8
BLACK
6
CONTINUOUS
10
5.17682
20
-5.86975
11
5.18432
21
-5.86975
0
LINE
8
BLACK
6
CONTINUOUS
10
5.18432
20
-5.86975
11
5.19182
21
-5.8735
0
LINE
8
BLACK
6
CONTINUOUS
10
5.19182
20
-5.8735
11
5.19557
21
-5.87725
0
LINE
8
BLACK
6
CONTINUOUS
10
5.19557
20
-5.87725
11
5.19932
21
-5.88475
0
LINE
8
BLACK
6
CONTINUOUS
10
5.19932
20
-5.88475
11
5.20307
21
-5.89975
0
LINE
8
BLACK
6
CONTINUOUS
10
5.20307
20
-5.89975
11
5.20307
21
-5.9185
0
LINE
8
BLACK
6
CONTINUOUS
10
5.20307
20
-5.9185
11
5.19932
21
-5.9335
0
LINE
8
BLACK
6
CONTINUOUS
10
5.19932
20
-5.9335
11
5.19557
21
-5.941
0
LINE
8
BLACK
6
CONTINUOUS
10
5.19557
20
-5.941
11
5.19182
21
-5.94475
0
LINE
8
BLACK
6
CONTINUOUS
10
5.19182
20
-5.94475
11
5.18432
21
-5.94849
0
LINE
8
BLACK
6
CONTINUOUS
10
5.18432
20
-5.94849
11
5.17682
21
-5.94849
0
LINE
8
BLACK
6
CONTINUOUS
10
5.17682
20
-5.94849
11
5.16932
21
-5.94475
0
LINE
8
BLACK
6
CONTINUOUS
10
5.16932
20
-5.94475
11
5.16557
21
-5.941
0
LINE
8
BLACK
6
CONTINUOUS
10
5.16557
20
-5.941
11
5.16182
21
-5.9335
0
LINE
8
BLACK
6
CONTINUOUS
10
5.16182
20
-5.9335
11
5.15807
21
-5.9185
0
LINE
8
BLACK
6
CONTINUOUS
10
5.15807
20
-5.9185
11
5.15807
21
-5.89975
0
LINE
8
BLACK
6
CONTINUOUS
10
5.15807
20
-5.89975
11
5.16182
21
-5.88475
0
LINE
8
BLACK
6
CONTINUOUS
10
5.16182
20
-5.88475
11
5.16557
21
-5.87725
0
LINE
8
BLACK
6
CONTINUOUS
10
5.16557
20
-5.87725
11
5.16932
21
-5.8735
0
LINE
8
BLACK
6
CONTINUOUS
10
5.16932
20
-5.8735
11
5.17682
21
-5.86975
0
LINE
8
BLACK
6
CONTINUOUS
10
5.23306
20
-5.86975
11
5.23306
21
-5.88475
0
LINE
8
BLACK
6
CONTINUOUS
10
5.26306
20
-5.86975
11
5.26306
21
-5.88475
0
LINE
8
BLACK
6
CONTINUOUS
10
5.37929
20
-5.97849
11
5.37554
21
-5.97474
0
LINE
8
BLACK
6
CONTINUOUS
10
5.37554
20
-5.97474
11
5.36804
21
-5.96349
0
LINE
8
BLACK
6
CONTINUOUS
10
5.36804
20
-5.96349
11
5.3643
21
-5.95599
0
LINE
8
BLACK
6
CONTINUOUS
10
5.3643
20
-5.95599
11
5.36055
21
-5.94475
0
LINE
8
BLACK
6
CONTINUOUS
10
5.36055
20
-5.94475
11
5.3568
21
-5.926
0
LINE
8
BLACK
6
CONTINUOUS
10
5.3568
20
-5.926
11
5.3568
21
-5.911
0
LINE
8
BLACK
6
CONTINUOUS
10
5.3568
20
-5.911
11
5.36055
21
-5.89225
0
LINE
8
BLACK
6
CONTINUOUS
10
5.36055
20
-5.89225
11
5.3643
21
-5.881
0
LINE
8
BLACK
6
CONTINUOUS
10
5.3643
20
-5.881
11
5.36804
21
-5.8735
0
LINE
8
BLACK
6
CONTINUOUS
10
5.36804
20
-5.8735
11
5.37554
21
-5.86226
0
LINE
8
BLACK
6
CONTINUOUS
10
5.37554
20
-5.86226
11
5.37929
21
-5.85851
0
LINE
8
BLACK
6
CONTINUOUS
10
5.40554
20
-5.87725
11
5.40929
21
-5.8735
0
LINE
8
BLACK
6
CONTINUOUS
10
5.40929
20
-5.8735
11
5.41679
21
-5.86975
0
LINE
8
BLACK
6
CONTINUOUS
10
5.41679
20
-5.86975
11
5.43554
21
-5.86975
0
LINE
8
BLACK
6
CONTINUOUS
10
5.43554
20
-5.86975
11
5.44304
21
-5.8735
0
LINE
8
BLACK
6
CONTINUOUS
10
5.44304
20
-5.8735
11
5.44678
21
-5.87725
0
LINE
8
BLACK
6
CONTINUOUS
10
5.44678
20
-5.87725
11
5.45053
21
-5.88475
0
LINE
8
BLACK
6
CONTINUOUS
10
5.45053
20
-5.88475
11
5.45053
21
-5.89225
0
LINE
8
BLACK
6
CONTINUOUS
10
5.45053
20
-5.89225
11
5.44678
21
-5.9035
0
LINE
8
BLACK
6
CONTINUOUS
10
5.44678
20
-5.9035
11
5.40179
21
-5.94849
0
LINE
8
BLACK
6
CONTINUOUS
10
5.40179
20
-5.94849
11
5.45053
21
-5.94849
0
LINE
8
BLACK
6
CONTINUOUS
10
5.54427
20
-5.94849
11
5.54427
21
-5.86975
0
LINE
8
BLACK
6
CONTINUOUS
10
5.57802
20
-5.94849
11
5.57802
21
-5.90725
0
LINE
8
BLACK
6
CONTINUOUS
10
5.57802
20
-5.90725
11
5.57427
21
-5.89975
0
LINE
8
BLACK
6
CONTINUOUS
10
5.57427
20
-5.89975
11
5.56677
21
-5.896
0
LINE
8
BLACK
6
CONTINUOUS
10
5.56677
20
-5.896
11
5.55552
21
-5.896
0
LINE
8
BLACK
6
CONTINUOUS
10
5.55552
20
-5.896
11
5.54802
21
-5.89975
0
LINE
8
BLACK
6
CONTINUOUS
10
5.54802
20
-5.89975
11
5.54427
21
-5.9035
0
LINE
8
BLACK
6
CONTINUOUS
10
5.62676
20
-5.94849
11
5.61926
21
-5.94475
0
LINE
8
BLACK
6
CONTINUOUS
10
5.61926
20
-5.94475
11
5.61551
21
-5.941
0
LINE
8
BLACK
6
CONTINUOUS
10
5.61551
20
-5.941
11
5.61176
21
-5.9335
0
LINE
8
BLACK
6
CONTINUOUS
10
5.61176
20
-5.9335
11
5.61176
21
-5.911
0
LINE
8
BLACK
6
CONTINUOUS
10
5.61176
20
-5.911
11
5.61551
21
-5.9035
0
LINE
8
BLACK
6
CONTINUOUS
10
5.61551
20
-5.9035
11
5.61926
21
-5.89975
0
LINE
8
BLACK
6
CONTINUOUS
10
5.61926
20
-5.89975
11
5.62676
21
-5.896
0
LINE
8
BLACK
6
CONTINUOUS
10
5.62676
20
-5.896
11
5.63801
21
-5.896
0
LINE
8
BLACK
6
CONTINUOUS
10
5.63801
20
-5.896
11
5.64551
21
-5.89975
0
LINE
8
BLACK
6
CONTINUOUS
10
5.64551
20
-5.89975
11
5.64926
21
-5.9035
0
LINE
8
BLACK
6
CONTINUOUS
10
5.64926
20
-5.9035
11
5.65301
21
-5.911
0
LINE
8
BLACK
6
CONTINUOUS
10
5.65301
20
-5.911
11
5.65301
21
-5.9335
0
LINE
8
BLACK
6
CONTINUOUS
10
5.65301
20
-5.9335
11
5.64926
21
-5.941
0
LINE
8
BLACK
6
CONTINUOUS
10
5.64926
20
-5.941
11
5.64551
21
-5.94475
0
LINE
8
BLACK
6
CONTINUOUS
10
5.64551
20
-5.94475
11
5.63801
21
-5.94849
0
LINE
8
BLACK
6
CONTINUOUS
10
5.63801
20
-5.94849
11
5.62676
21
-5.94849
0
LINE
8
BLACK
6
CONTINUOUS
10
5.698
20
-5.94849
11
5.6905
21
-5.94475
0
LINE
8
BLACK
6
CONTINUOUS
10
5.6905
20
-5.94475
11
5.68675
21
-5.93725
0
LINE
8
BLACK
6
CONTINUOUS
10
5.68675
20
-5.93725
11
5.68675
21
-5.86975
0
LINE
8
BLACK
6
CONTINUOUS
10
5.758
20
-5.94475
11
5.7505
21
-5.94849
0
LINE
8
BLACK
6
CONTINUOUS
10
5.7505
20
-5.94849
11
5.7355
21
-5.94849
0
LINE
8
BLACK
6
CONTINUOUS
10
5.7355
20
-5.94849
11
5.728
21
-5.94475
0
LINE
8
BLACK
6
CONTINUOUS
10
5.728
20
-5.94475
11
5.72425
21
-5.93725
0
LINE
8
BLACK
6
CONTINUOUS
10
5.72425
20
-5.93725
11
5.72425
21
-5.90725
0
LINE
8
BLACK
6
CONTINUOUS
10
5.72425
20
-5.90725
11
5.728
21
-5.89975
0
LINE
8
BLACK
6
CONTINUOUS
10
5.728
20
-5.89975
11
5.7355
21
-5.896
0
LINE
8
BLACK
6
CONTINUOUS
10
5.7355
20
-5.896
11
5.7505
21
-5.896
0
LINE
8
BLACK
6
CONTINUOUS
10
5.7505
20
-5.896
11
5.758
21
-5.89975
0
LINE
8
BLACK
6
CONTINUOUS
10
5.758
20
-5.89975
11
5.76175
21
-5.90725
0
LINE
8
BLACK
6
CONTINUOUS
10
5.76175
20
-5.90725
11
5.76175
21
-5.91475
0
LINE
8
BLACK
6
CONTINUOUS
10
5.76175
20
-5.91475
11
5.72425
21
-5.92225
0
LINE
8
BLACK
6
CONTINUOUS
10
5.79174
20
-5.94475
11
5.79924
21
-5.94849
0
LINE
8
BLACK
6
CONTINUOUS
10
5.79924
20
-5.94849
11
5.81424
21
-5.94849
0
LINE
8
BLACK
6
CONTINUOUS
10
5.81424
20
-5.94849
11
5.82174
21
-5.94475
0
LINE
8
BLACK
6
CONTINUOUS
10
5.82174
20
-5.94475
11
5.82549
21
-5.93725
0
LINE
8
BLACK
6
CONTINUOUS
10
5.82549
20
-5.93725
11
5.82549
21
-5.9335
0
LINE
8
BLACK
6
CONTINUOUS
10
5.82549
20
-5.9335
11
5.82174
21
-5.926
0
LINE
8
BLACK
6
CONTINUOUS
10
5.82174
20
-5.926
11
5.81424
21
-5.92225
0
LINE
8
BLACK
6
CONTINUOUS
10
5.81424
20
-5.92225
11
5.80299
21
-5.92225
0
LINE
8
BLACK
6
CONTINUOUS
10
5.80299
20
-5.92225
11
5.79549
21
-5.9185
0
LINE
8
BLACK
6
CONTINUOUS
10
5.79549
20
-5.9185
11
5.79174
21
-5.911
0
LINE
8
BLACK
6
CONTINUOUS
10
5.79174
20
-5.911
11
5.79174
21
-5.90725
0
LINE
8
BLACK
6
CONTINUOUS
10
5.79174
20
-5.90725
11
5.79549
21
-5.89975
0
LINE
8
BLACK
6
CONTINUOUS
10
5.79549
20
-5.89975
11
5.80299
21
-5.896
0
LINE
8
BLACK
6
CONTINUOUS
10
5.80299
20
-5.896
11
5.81424
21
-5.896
0
LINE
8
BLACK
6
CONTINUOUS
10
5.81424
20
-5.896
11
5.82174
21
-5.89975
0
LINE
8
BLACK
6
CONTINUOUS
10
5.85173
20
-5.97849
11
5.85548
21
-5.97474
0
LINE
8
BLACK
6
CONTINUOUS
10
5.85548
20
-5.97474
11
5.86298
21
-5.96349
0
LINE
8
BLACK
6
CONTINUOUS
10
5.86298
20
-5.96349
11
5.86673
21
-5.95599
0
LINE
8
BLACK
6
CONTINUOUS
10
5.86673
20
-5.95599
11
5.87048
21
-5.94475
0
LINE
8
BLACK
6
CONTINUOUS
10
5.87048
20
-5.94475
11
5.87423
21
-5.926
0
LINE
8
BLACK
6
CONTINUOUS
10
5.87423
20
-5.926
11
5.87423
21
-5.911
0
LINE
8
BLACK
6
CONTINUOUS
10
5.87423
20
-5.911
11
5.87048
21
-5.89225
0
LINE
8
BLACK
6
CONTINUOUS
10
5.87048
20
-5.89225
11
5.86673
21
-5.881
0
LINE
8
BLACK
6
CONTINUOUS
10
5.86673
20
-5.881
11
5.86298
21
-5.8735
0
LINE
8
BLACK
6
CONTINUOUS
10
5.86298
20
-5.8735
11
5.85548
21
-5.86226
0
LINE
8
BLACK
6
CONTINUOUS
10
5.85548
20
-5.86226
11
5.85173
21
-5.85851
0
LINE
8
BLACK
6
CONTINUOUS
10
5.99422
20
-5.97849
11
5.99047
21
-5.97474
0
LINE
8
BLACK
6
CONTINUOUS
10
5.99047
20
-5.97474
11
5.98297
21
-5.96349
0
LINE
8
BLACK
6
CONTINUOUS
10
5.98297
20
-5.96349
11
5.97922
21
-5.95599
0
LINE
8
BLACK
6
CONTINUOUS
10
5.97922
20
-5.95599
11
5.97547
21
-5.94475
0
LINE
8
BLACK
6
CONTINUOUS
10
5.97547
20
-5.94475
11
5.97172
21
-5.926
0
LINE
8
BLACK
6
CONTINUOUS
10
5.97172
20
-5.926
11
5.97172
21
-5.911
0
LINE
8
BLACK
6
CONTINUOUS
10
5.97172
20
-5.911
11
5.97547
21
-5.89225
0
LINE
8
BLACK
6
CONTINUOUS
10
5.97547
20
-5.89225
11
5.97922
21
-5.881
0
LINE
8
BLACK
6
CONTINUOUS
10
5.97922
20
-5.881
11
5.98297
21
-5.8735
0
LINE
8
BLACK
6
CONTINUOUS
10
5.98297
20
-5.8735
11
5.99047
21
-5.86226
0
LINE
8
BLACK
6
CONTINUOUS
10
5.99047
20
-5.86226
11
5.99422
21
-5.85851
0
LINE
8
BLACK
6
CONTINUOUS
10
6.02421
20
-5.896
11
6.02421
21
-5.94849
0
LINE
8
BLACK
6
CONTINUOUS
10
6.02421
20
-5.9035
11
6.02796
21
-5.89975
0
LINE
8
BLACK
6
CONTINUOUS
10
6.02796
20
-5.89975
11
6.03546
21
-5.896
0
LINE
8
BLACK
6
CONTINUOUS
10
6.03546
20
-5.896
11
6.04671
21
-5.896
0
LINE
8
BLACK
6
CONTINUOUS
10
6.04671
20
-5.896
11
6.05421
21
-5.89975
0
LINE
8
BLACK
6
CONTINUOUS
10
6.05421
20
-5.89975
11
6.05796
21
-5.90725
0
LINE
8
BLACK
6
CONTINUOUS
10
6.05796
20
-5.90725
11
6.05796
21
-5.94849
0
LINE
8
BLACK
6
CONTINUOUS
10
6.1067
20
-5.94849
11
6.0992
21
-5.94475
0
LINE
8
BLACK
6
CONTINUOUS
10
6.0992
20
-5.94475
11
6.09545
21
-5.941
0
LINE
8
BLACK
6
CONTINUOUS
10
6.09545
20
-5.941
11
6.0917
21
-5.9335
0
LINE
8
BLACK
6
CONTINUOUS
10
6.0917
20
-5.9335
11
6.0917
21
-5.911
0
LINE
8
BLACK
6
CONTINUOUS
10
6.0917
20
-5.911
11
6.09545
21
-5.9035
0
LINE
8
BLACK
6
CONTINUOUS
10
6.09545
20
-5.9035
11
6.0992
21
-5.89975
0
LINE
8
BLACK
6
CONTINUOUS
10
6.0992
20
-5.89975
11
6.1067
21
-5.896
0
LINE
8
BLACK
6
CONTINUOUS
10
6.1067
20
-5.896
11
6.11795
21
-5.896
0
LINE
8
BLACK
6
CONTINUOUS
10
6.11795
20
-5.896
11
6.12545
21
-5.89975
0
LINE
8
BLACK
6
CONTINUOUS
10
6.12545
20
-5.89975
11
6.1292
21
-5.9035
0
LINE
8
BLACK
6
CONTINUOUS
10
6.1292
20
-5.9035
11
6.13295
21
-5.911
0
LINE
8
BLACK
6
CONTINUOUS
10
6.13295
20
-5.911
11
6.13295
21
-5.9335
0
LINE
8
BLACK
6
CONTINUOUS
10
6.13295
20
-5.9335
11
6.1292
21
-5.941
0
LINE
8
BLACK
6
CONTINUOUS
10
6.1292
20
-5.941
11
6.12545
21
-5.94475
0
LINE
8
BLACK
6
CONTINUOUS
10
6.12545
20
-5.94475
11
6.11795
21
-5.94849
0
LINE
8
BLACK
6
CONTINUOUS
10
6.11795
20
-5.94849
11
6.1067
21
-5.94849
0
LINE
8
BLACK
6
CONTINUOUS
10
6.15545
20
-5.896
11
6.18544
21
-5.896
0
LINE
8
BLACK
6
CONTINUOUS
10
6.16669
20
-5.86975
11
6.16669
21
-5.93725
0
LINE
8
BLACK
6
CONTINUOUS
10
6.16669
20
-5.93725
11
6.17044
21
-5.94475
0
LINE
8
BLACK
6
CONTINUOUS
10
6.17044
20
-5.94475
11
6.17794
21
-5.94849
0
LINE
8
BLACK
6
CONTINUOUS
10
6.17794
20
-5.94849
11
6.18544
21
-5.94849
0
LINE
8
BLACK
6
CONTINUOUS
10
6.27168
20
-5.896
11
6.27168
21
-5.97474
0
LINE
8
BLACK
6
CONTINUOUS
10
6.27168
20
-5.89975
11
6.27918
21
-5.896
0
LINE
8
BLACK
6
CONTINUOUS
10
6.27918
20
-5.896
11
6.29418
21
-5.896
0
LINE
8
BLACK
6
CONTINUOUS
10
6.29418
20
-5.896
11
6.30168
21
-5.89975
0
LINE
8
BLACK
6
CONTINUOUS
10
6.30168
20
-5.89975
11
6.30543
21
-5.9035
0
LINE
8
BLACK
6
CONTINUOUS
10
6.30543
20
-5.9035
11
6.30918
21
-5.911
0
LINE
8
BLACK
6
CONTINUOUS
10
6.30918
20
-5.911
11
6.30918
21
-5.9335
0
LINE
8
BLACK
6
CONTINUOUS
10
6.30918
20
-5.9335
11
6.30543
21
-5.941
0
LINE
8
BLACK
6
CONTINUOUS
10
6.30543
20
-5.941
11
6.30168
21
-5.94475
0
LINE
8
BLACK
6
CONTINUOUS
10
6.30168
20
-5.94475
11
6.29418
21
-5.94849
0
LINE
8
BLACK
6
CONTINUOUS
10
6.29418
20
-5.94849
11
6.27918
21
-5.94849
0
LINE
8
BLACK
6
CONTINUOUS
10
6.27918
20
-5.94849
11
6.27168
21
-5.94475
0
LINE
8
BLACK
6
CONTINUOUS
10
6.35417
20
-5.94849
11
6.34667
21
-5.94475
0
LINE
8
BLACK
6
CONTINUOUS
10
6.34667
20
-5.94475
11
6.34292
21
-5.93725
0
LINE
8
BLACK
6
CONTINUOUS
10
6.34292
20
-5.93725
11
6.34292
21
-5.86975
0
LINE
8
BLACK
6
CONTINUOUS
10
6.41791
20
-5.94849
11
6.41791
21
-5.90725
0
LINE
8
BLACK
6
CONTINUOUS
10
6.41791
20
-5.90725
11
6.41416
21
-5.89975
0
LINE
8
BLACK
6
CONTINUOUS
10
6.41416
20
-5.89975
11
6.40666
21
-5.896
0
LINE
8
BLACK
6
CONTINUOUS
10
6.40666
20
-5.896
11
6.39167
21
-5.896
0
LINE
8
BLACK
6
CONTINUOUS
10
6.39167
20
-5.896
11
6.38417
21
-5.89975
0
LINE
8
BLACK
6
CONTINUOUS
10
6.41791
20
-5.94475
11
6.41041
21
-5.94849
0
LINE
8
BLACK
6
CONTINUOUS
10
6.41041
20
-5.94849
11
6.39167
21
-5.94849
0
LINE
8
BLACK
6
CONTINUOUS
10
6.39167
20
-5.94849
11
6.38417
21
-5.94475
0
LINE
8
BLACK
6
CONTINUOUS
10
6.38417
20
-5.94475
11
6.38042
21
-5.93725
0
LINE
8
BLACK
6
CONTINUOUS
10
6.38042
20
-5.93725
11
6.38042
21
-5.92975
0
LINE
8
BLACK
6
CONTINUOUS
10
6.38042
20
-5.92975
11
6.38417
21
-5.92225
0
LINE
8
BLACK
6
CONTINUOUS
10
6.38417
20
-5.92225
11
6.39167
21
-5.9185
0
LINE
8
BLACK
6
CONTINUOUS
10
6.39167
20
-5.9185
11
6.41041
21
-5.9185
0
LINE
8
BLACK
6
CONTINUOUS
10
6.41041
20
-5.9185
11
6.41791
21
-5.91475
0
LINE
8
BLACK
6
CONTINUOUS
10
6.44416
20
-5.896
11
6.47416
21
-5.896
0
LINE
8
BLACK
6
CONTINUOUS
10
6.45541
20
-5.86975
11
6.45541
21
-5.93725
0
LINE
8
BLACK
6
CONTINUOUS
10
6.45541
20
-5.93725
11
6.45916
21
-5.94475
0
LINE
8
BLACK
6
CONTINUOUS
10
6.45916
20
-5.94475
11
6.46666
21
-5.94849
0
LINE
8
BLACK
6
CONTINUOUS
10
6.46666
20
-5.94849
11
6.47416
21
-5.94849
0
LINE
8
BLACK
6
CONTINUOUS
10
6.5304
20
-5.94475
11
6.5229
21
-5.94849
0
LINE
8
BLACK
6
CONTINUOUS
10
6.5229
20
-5.94849
11
6.5079
21
-5.94849
0
LINE
8
BLACK
6
CONTINUOUS
10
6.5079
20
-5.94849
11
6.5004
21
-5.94475
0
LINE
8
BLACK
6
CONTINUOUS
10
6.5004
20
-5.94475
11
6.49665
21
-5.93725
0
LINE
8
BLACK
6
CONTINUOUS
10
6.49665
20
-5.93725
11
6.49665
21
-5.90725
0
LINE
8
BLACK
6
CONTINUOUS
10
6.49665
20
-5.90725
11
6.5004
21
-5.89975
0
LINE
8
BLACK
6
CONTINUOUS
10
6.5004
20
-5.89975
11
6.5079
21
-5.896
0
LINE
8
BLACK
6
CONTINUOUS
10
6.5079
20
-5.896
11
6.5229
21
-5.896
0
LINE
8
BLACK
6
CONTINUOUS
10
6.5229
20
-5.896
11
6.5304
21
-5.89975
0
LINE
8
BLACK
6
CONTINUOUS
10
6.5304
20
-5.89975
11
6.53415
21
-5.90725
0
LINE
8
BLACK
6
CONTINUOUS
10
6.53415
20
-5.90725
11
6.53415
21
-5.91475
0
LINE
8
BLACK
6
CONTINUOUS
10
6.53415
20
-5.91475
11
6.49665
21
-5.92225
0
LINE
8
BLACK
6
CONTINUOUS
10
6.60164
20
-5.94849
11
6.60164
21
-5.86975
0
LINE
8
BLACK
6
CONTINUOUS
10
6.60164
20
-5.94475
11
6.59414
21
-5.94849
0
LINE
8
BLACK
6
CONTINUOUS
10
6.59414
20
-5.94849
11
6.57914
21
-5.94849
0
LINE
8
BLACK
6
CONTINUOUS
10
6.57914
20
-5.94849
11
6.57164
21
-5.94475
0
LINE
8
BLACK
6
CONTINUOUS
10
6.57164
20
-5.94475
11
6.56789
21
-5.941
0
LINE
8
BLACK
6
CONTINUOUS
10
6.56789
20
-5.941
11
6.56415
21
-5.9335
0
LINE
8
BLACK
6
CONTINUOUS
10
6.56415
20
-5.9335
11
6.56415
21
-5.911
0
LINE
8
BLACK
6
CONTINUOUS
10
6.56415
20
-5.911
11
6.56789
21
-5.9035
0
LINE
8
BLACK
6
CONTINUOUS
10
6.56789
20
-5.9035
11
6.57164
21
-5.89975
0
LINE
8
BLACK
6
CONTINUOUS
10
6.57164
20
-5.89975
11
6.57914
21
-5.896
0
LINE
8
BLACK
6
CONTINUOUS
10
6.57914
20
-5.896
11
6.59414
21
-5.896
0
LINE
8
BLACK
6
CONTINUOUS
10
6.59414
20
-5.896
11
6.60164
21
-5.89975
0
LINE
8
BLACK
6
CONTINUOUS
10
6.63164
20
-5.97849
11
6.63539
21
-5.97474
0
LINE
8
BLACK
6
CONTINUOUS
10
6.63539
20
-5.97474
11
6.64289
21
-5.96349
0
LINE
8
BLACK
6
CONTINUOUS
10
6.64289
20
-5.96349
11
6.64663
21
-5.95599
0
LINE
8
BLACK
6
CONTINUOUS
10
6.64663
20
-5.95599
11
6.65038
21
-5.94475
0
LINE
8
BLACK
6
CONTINUOUS
10
6.65038
20
-5.94475
11
6.65413
21
-5.926
0
LINE
8
BLACK
6
CONTINUOUS
10
6.65413
20
-5.926
11
6.65413
21
-5.911
0
LINE
8
BLACK
6
CONTINUOUS
10
6.65413
20
-5.911
11
6.65038
21
-5.89225
0
LINE
8
BLACK
6
CONTINUOUS
10
6.65038
20
-5.89225
11
6.64663
21
-5.881
0
LINE
8
BLACK
6
CONTINUOUS
10
6.64663
20
-5.881
11
6.64289
21
-5.8735
0
LINE
8
BLACK
6
CONTINUOUS
10
6.64289
20
-5.8735
11
6.63539
21
-5.86226
0
LINE
8
BLACK
6
CONTINUOUS
10
6.63539
20
-5.86226
11
6.63164
21
-5.85851
  0
ENDSEC
  0
EOF
