%TF.GenerationSoftware,KiCad,Pcbnew,6.0.8+dfsg-1~bpo11+1*%
%TF.CreationDate,2022-11-16T21:16:40+01:00*%
%TF.ProjectId,CpuCubeV2-00,43707543-7562-4655-9632-2d30302e6b69,rev?*%
%TF.SameCoordinates,Original*%
%TF.FileFunction,Soldermask,Top*%
%TF.FilePolarity,Negative*%
%FSLAX46Y46*%
G04 Gerber Fmt 4.6, Leading zero omitted, Abs format (unit mm)*
G04 Created by KiCad (PCBNEW 6.0.8+dfsg-1~bpo11+1) date 2022-11-16 21:16:40*
%MOMM*%
%LPD*%
G01*
G04 APERTURE LIST*
G04 Aperture macros list*
%AMRoundRect*
0 Rectangle with rounded corners*
0 $1 Rounding radius*
0 $2 $3 $4 $5 $6 $7 $8 $9 X,Y pos of 4 corners*
0 Add a 4 corners polygon primitive as box body*
4,1,4,$2,$3,$4,$5,$6,$7,$8,$9,$2,$3,0*
0 Add four circle primitives for the rounded corners*
1,1,$1+$1,$2,$3*
1,1,$1+$1,$4,$5*
1,1,$1+$1,$6,$7*
1,1,$1+$1,$8,$9*
0 Add four rect primitives between the rounded corners*
20,1,$1+$1,$2,$3,$4,$5,0*
20,1,$1+$1,$4,$5,$6,$7,0*
20,1,$1+$1,$6,$7,$8,$9,0*
20,1,$1+$1,$8,$9,$2,$3,0*%
G04 Aperture macros list end*
%ADD10C,1.000000*%
%ADD11R,0.500000X2.000000*%
%ADD12R,2.000000X1.700000*%
%ADD13R,1.700000X1.700000*%
%ADD14O,1.700000X1.700000*%
%ADD15RoundRect,0.150000X-0.587500X-0.150000X0.587500X-0.150000X0.587500X0.150000X-0.587500X0.150000X0*%
%ADD16C,2.286000*%
%ADD17RoundRect,0.225000X0.225000X0.250000X-0.225000X0.250000X-0.225000X-0.250000X0.225000X-0.250000X0*%
%ADD18RoundRect,0.200000X-0.200000X-0.275000X0.200000X-0.275000X0.200000X0.275000X-0.200000X0.275000X0*%
%ADD19R,1.600000X0.300000*%
%ADD20RoundRect,0.225000X-0.250000X0.225000X-0.250000X-0.225000X0.250000X-0.225000X0.250000X0.225000X0*%
%ADD21RoundRect,0.200000X0.275000X-0.200000X0.275000X0.200000X-0.275000X0.200000X-0.275000X-0.200000X0*%
%ADD22RoundRect,0.150000X-0.150000X0.587500X-0.150000X-0.587500X0.150000X-0.587500X0.150000X0.587500X0*%
%ADD23C,3.250000*%
%ADD24R,1.520000X1.520000*%
%ADD25C,1.520000*%
%ADD26RoundRect,0.150000X-0.875000X-0.150000X0.875000X-0.150000X0.875000X0.150000X-0.875000X0.150000X0*%
%ADD27RoundRect,0.250000X-0.625000X0.312500X-0.625000X-0.312500X0.625000X-0.312500X0.625000X0.312500X0*%
%ADD28RoundRect,0.250000X-0.375000X-0.625000X0.375000X-0.625000X0.375000X0.625000X-0.375000X0.625000X0*%
%ADD29RoundRect,0.150000X-0.800000X-0.150000X0.800000X-0.150000X0.800000X0.150000X-0.800000X0.150000X0*%
%ADD30RoundRect,0.200000X0.200000X0.275000X-0.200000X0.275000X-0.200000X-0.275000X0.200000X-0.275000X0*%
%ADD31RoundRect,0.150000X-0.825000X-0.150000X0.825000X-0.150000X0.825000X0.150000X-0.825000X0.150000X0*%
%ADD32RoundRect,0.150000X-0.150000X-0.700000X0.150000X-0.700000X0.150000X0.700000X-0.150000X0.700000X0*%
%ADD33RoundRect,0.250000X-0.250000X-1.100000X0.250000X-1.100000X0.250000X1.100000X-0.250000X1.100000X0*%
%ADD34RoundRect,0.200000X-0.275000X0.200000X-0.275000X-0.200000X0.275000X-0.200000X0.275000X0.200000X0*%
%ADD35R,0.750000X1.500000*%
%ADD36R,0.900000X0.900000*%
%ADD37RoundRect,0.250000X-0.875000X-1.025000X0.875000X-1.025000X0.875000X1.025000X-0.875000X1.025000X0*%
%ADD38R,2.100000X0.750000*%
%ADD39R,0.750000X2.100000*%
%ADD40RoundRect,0.225000X-0.225000X-0.250000X0.225000X-0.250000X0.225000X0.250000X-0.225000X0.250000X0*%
%ADD41C,2.100000*%
%ADD42C,1.750000*%
%ADD43R,1.300000X1.900000*%
G04 APERTURE END LIST*
D10*
%TO.C,J103*%
X116545000Y-136271000D03*
X120945000Y-136271000D03*
D11*
X117145000Y-133571000D03*
X117945000Y-133571000D03*
X118745000Y-133571000D03*
X119545000Y-133571000D03*
X120345000Y-133571000D03*
D12*
X123195000Y-133671000D03*
X114295000Y-133671000D03*
X123195000Y-139121000D03*
X114295000Y-139121000D03*
%TD*%
D13*
%TO.C,J101*%
X111125000Y-53467000D03*
D14*
X108585000Y-53467000D03*
X111125000Y-56007000D03*
X108585000Y-56007000D03*
X111125000Y-58547000D03*
X108585000Y-58547000D03*
X111125000Y-61087000D03*
X108585000Y-61087000D03*
X111125000Y-63627000D03*
X108585000Y-63627000D03*
X111125000Y-66167000D03*
X108585000Y-66167000D03*
X111125000Y-68707000D03*
X108585000Y-68707000D03*
X111125000Y-71247000D03*
X108585000Y-71247000D03*
X111125000Y-73787000D03*
X108585000Y-73787000D03*
X111125000Y-76327000D03*
X108585000Y-76327000D03*
X111125000Y-78867000D03*
X108585000Y-78867000D03*
X111125000Y-81407000D03*
X108585000Y-81407000D03*
X111125000Y-83947000D03*
X108585000Y-83947000D03*
X111125000Y-86487000D03*
X108585000Y-86487000D03*
X111125000Y-89027000D03*
X108585000Y-89027000D03*
X111125000Y-91567000D03*
X108585000Y-91567000D03*
X111125000Y-94107000D03*
X108585000Y-94107000D03*
X111125000Y-96647000D03*
X108585000Y-96647000D03*
X111125000Y-99187000D03*
X108585000Y-99187000D03*
X111125000Y-101727000D03*
X108585000Y-101727000D03*
%TD*%
D15*
%TO.C,Q303*%
X174528000Y-124780000D03*
X174528000Y-126680000D03*
X176403000Y-125730000D03*
%TD*%
D16*
%TO.C,C302*%
X140428500Y-115348000D03*
X140428500Y-110268000D03*
%TD*%
D17*
%TO.C,C308*%
X161430000Y-128016000D03*
X159880000Y-128016000D03*
%TD*%
D18*
%TO.C,R211*%
X181039000Y-95250000D03*
X182689000Y-95250000D03*
%TD*%
D19*
%TO.C,U302*%
X189132000Y-120986000D03*
X189132000Y-121636000D03*
X189132000Y-122286000D03*
X189132000Y-122936000D03*
X192532000Y-122936000D03*
X192532000Y-122286000D03*
X192532000Y-121636000D03*
X192532000Y-120986000D03*
%TD*%
D20*
%TO.C,C305*%
X164719000Y-104889000D03*
X164719000Y-106439000D03*
%TD*%
D21*
%TO.C,R307*%
X192532000Y-110553000D03*
X192532000Y-108903000D03*
%TD*%
D22*
%TO.C,Q301*%
X189672000Y-104853500D03*
X187772000Y-104853500D03*
X188722000Y-106728500D03*
%TD*%
D23*
%TO.C,J104*%
X180975000Y-136121000D03*
X191135000Y-136121000D03*
D24*
X182885000Y-127231000D03*
D25*
X184155000Y-129771000D03*
X185425000Y-127231000D03*
X186695000Y-129771000D03*
X187965000Y-127231000D03*
X189235000Y-129771000D03*
%TD*%
D18*
%TO.C,R219*%
X137033000Y-128270000D03*
X138683000Y-128270000D03*
%TD*%
D26*
%TO.C,U304*%
X160069000Y-112014000D03*
X160069000Y-113284000D03*
X160069000Y-114554000D03*
X160069000Y-115824000D03*
X160069000Y-117094000D03*
X160069000Y-118364000D03*
X160069000Y-119634000D03*
X160069000Y-120904000D03*
X160069000Y-122174000D03*
X160069000Y-123444000D03*
X160069000Y-124714000D03*
X160069000Y-125984000D03*
X169369000Y-125984000D03*
X169369000Y-124714000D03*
X169369000Y-123444000D03*
X169369000Y-122174000D03*
X169369000Y-120904000D03*
X169369000Y-119634000D03*
X169369000Y-118364000D03*
X169369000Y-117094000D03*
X169369000Y-115824000D03*
X169369000Y-114554000D03*
X169369000Y-113284000D03*
X169369000Y-112014000D03*
%TD*%
D27*
%TO.C,R218*%
X181102000Y-58543000D03*
X181102000Y-61468000D03*
%TD*%
D28*
%TO.C,D301*%
X142237000Y-131064000D03*
X145037000Y-131064000D03*
%TD*%
D21*
%TO.C,R104*%
X111633000Y-136080000D03*
X111633000Y-134430000D03*
%TD*%
D29*
%TO.C,U301*%
X176713000Y-115570000D03*
X176713000Y-116840000D03*
X176713000Y-118110000D03*
X176713000Y-119380000D03*
X183713000Y-119380000D03*
X183713000Y-118110000D03*
X183713000Y-116840000D03*
X183713000Y-115570000D03*
%TD*%
D18*
%TO.C,R208*%
X117412000Y-71247000D03*
X119062000Y-71247000D03*
%TD*%
%TO.C,R203*%
X114364000Y-61087000D03*
X116014000Y-61087000D03*
%TD*%
D21*
%TO.C,R216*%
X132334000Y-132905000D03*
X132334000Y-131255000D03*
%TD*%
D18*
%TO.C,R303*%
X181039000Y-92710000D03*
X182689000Y-92710000D03*
%TD*%
D21*
%TO.C,R213*%
X121031000Y-130238000D03*
X121031000Y-128588000D03*
%TD*%
D30*
%TO.C,R302*%
X193992000Y-91567000D03*
X192342000Y-91567000D03*
%TD*%
D18*
%TO.C,R209*%
X114301000Y-76327000D03*
X115951000Y-76327000D03*
%TD*%
%TO.C,R207*%
X114300000Y-71247000D03*
X115950000Y-71247000D03*
%TD*%
D31*
%TO.C,U201*%
X130494000Y-101854000D03*
X130494000Y-103124000D03*
X130494000Y-104394000D03*
X130494000Y-105664000D03*
X135444000Y-105664000D03*
X135444000Y-104394000D03*
X135444000Y-103124000D03*
X135444000Y-101854000D03*
%TD*%
D18*
%TO.C,R201*%
X114364000Y-56007000D03*
X116014000Y-56007000D03*
%TD*%
D32*
%TO.C,J105*%
X129570000Y-135691000D03*
X130820000Y-135691000D03*
X132070000Y-135691000D03*
X133320000Y-135691000D03*
D33*
X135170000Y-138891000D03*
X127720000Y-138891000D03*
%TD*%
D17*
%TO.C,C202*%
X107328000Y-76327000D03*
X105778000Y-76327000D03*
%TD*%
D18*
%TO.C,R202*%
X117475000Y-56007000D03*
X119125000Y-56007000D03*
%TD*%
D34*
%TO.C,R220*%
X134239000Y-131319000D03*
X134239000Y-132969000D03*
%TD*%
D21*
%TO.C,R102*%
X106299000Y-136080000D03*
X106299000Y-134430000D03*
%TD*%
%TO.C,R306*%
X188722000Y-110553000D03*
X188722000Y-108903000D03*
%TD*%
%TO.C,R217*%
X132334000Y-129730000D03*
X132334000Y-128080000D03*
%TD*%
D13*
%TO.C,J301*%
X165588000Y-131916000D03*
D14*
X165588000Y-134456000D03*
X168128000Y-131916000D03*
X168128000Y-134456000D03*
X170668000Y-131916000D03*
X170668000Y-134456000D03*
X173208000Y-131916000D03*
X173208000Y-134456000D03*
X175748000Y-131916000D03*
X175748000Y-134456000D03*
%TD*%
D22*
%TO.C,Q302*%
X193482000Y-104853500D03*
X191582000Y-104853500D03*
X192532000Y-106728500D03*
%TD*%
D18*
%TO.C,R205*%
X114301000Y-66167000D03*
X115951000Y-66167000D03*
%TD*%
D35*
%TO.C,D101*%
X106150000Y-140081000D03*
D36*
X104775000Y-139431000D03*
D35*
X103400000Y-140081000D03*
%TD*%
D19*
%TO.C,U303*%
X171372000Y-104353000D03*
X171372000Y-103703000D03*
X171372000Y-103053000D03*
X171372000Y-102403000D03*
X167972000Y-102403000D03*
X167972000Y-103053000D03*
X167972000Y-103703000D03*
X167972000Y-104353000D03*
%TD*%
D18*
%TO.C,R204*%
X117475000Y-61087000D03*
X119125000Y-61087000D03*
%TD*%
D22*
%TO.C,Q201*%
X138745000Y-130380500D03*
X136845000Y-130380500D03*
X137795000Y-132255500D03*
%TD*%
D30*
%TO.C,R212*%
X193992000Y-93980000D03*
X192342000Y-93980000D03*
%TD*%
D37*
%TO.C,C203*%
X126975000Y-57277000D03*
X133375000Y-57277000D03*
%TD*%
D18*
%TO.C,R206*%
X117475000Y-66167000D03*
X119125000Y-66167000D03*
%TD*%
%TO.C,R210*%
X117412000Y-76327000D03*
X119062000Y-76327000D03*
%TD*%
D21*
%TO.C,R101*%
X104521000Y-136080000D03*
X104521000Y-134430000D03*
%TD*%
D17*
%TO.C,C306*%
X176403000Y-109093000D03*
X174853000Y-109093000D03*
%TD*%
D30*
%TO.C,R215*%
X194055000Y-96647000D03*
X192405000Y-96647000D03*
%TD*%
D35*
%TO.C,D102*%
X111230000Y-140081000D03*
D36*
X109855000Y-139431000D03*
D35*
X108480000Y-140081000D03*
%TD*%
D30*
%TO.C,R305*%
X180149000Y-100965000D03*
X178499000Y-100965000D03*
%TD*%
D38*
%TO.C,U202*%
X129921000Y-76327000D03*
X133477000Y-76327000D03*
X129921000Y-77597000D03*
X133477000Y-77597000D03*
X129921000Y-78867000D03*
X133477000Y-78867000D03*
X129921000Y-80137000D03*
X133477000Y-80137000D03*
X129921000Y-81407000D03*
X133477000Y-81407000D03*
X129921000Y-82677000D03*
X133477000Y-82677000D03*
X129921000Y-83947000D03*
X133477000Y-83947000D03*
X129921000Y-85217000D03*
X133477000Y-85217000D03*
X129921000Y-86487000D03*
X133477000Y-86487000D03*
X129921000Y-87757000D03*
X133477000Y-87757000D03*
X129921000Y-89027000D03*
X133477000Y-89027000D03*
X129921000Y-90297000D03*
X133477000Y-90297000D03*
X129921000Y-91567000D03*
D39*
X143637000Y-101981000D03*
X143637000Y-105537000D03*
X144907000Y-101981000D03*
X144907000Y-105537000D03*
X146177000Y-101981000D03*
X146177000Y-105537000D03*
X147447000Y-101981000D03*
X147447000Y-105537000D03*
X148717000Y-101981000D03*
X148717000Y-105537000D03*
X149987000Y-101981000D03*
X149987000Y-105537000D03*
X151257000Y-101981000D03*
X151257000Y-105537000D03*
X152527000Y-101981000D03*
X152527000Y-105537000D03*
X153797000Y-101981000D03*
X153797000Y-105537000D03*
X155067000Y-101981000D03*
X155067000Y-105537000D03*
X156337000Y-101981000D03*
X156337000Y-105537000D03*
X157607000Y-101981000D03*
X157607000Y-105537000D03*
X158877000Y-101981000D03*
D38*
X168910000Y-92837000D03*
X165354000Y-92837000D03*
X168910000Y-91567000D03*
X165354000Y-91567000D03*
X168910000Y-90297000D03*
X165354000Y-90297000D03*
X168910000Y-89027000D03*
X165354000Y-89027000D03*
X168910000Y-87757000D03*
X165354000Y-87757000D03*
X168910000Y-86487000D03*
X165354000Y-86487000D03*
X168910000Y-85217000D03*
X165354000Y-85217000D03*
X168910000Y-83947000D03*
X165354000Y-83947000D03*
X168910000Y-82677000D03*
X165354000Y-82677000D03*
X168910000Y-81407000D03*
X165354000Y-81407000D03*
X168910000Y-80137000D03*
X165354000Y-80137000D03*
X168910000Y-78867000D03*
X165354000Y-78867000D03*
X168910000Y-77597000D03*
D39*
X158877000Y-68707000D03*
X158877000Y-65151000D03*
X157607000Y-68707000D03*
X157607000Y-65151000D03*
X156337000Y-68707000D03*
X156337000Y-65151000D03*
X155067000Y-68707000D03*
X155067000Y-65151000D03*
X153797000Y-68707000D03*
X153797000Y-65151000D03*
X152527000Y-68707000D03*
X152527000Y-65151000D03*
X151257000Y-68707000D03*
X151257000Y-65151000D03*
X149987000Y-68707000D03*
X149987000Y-65151000D03*
X148717000Y-68707000D03*
X148717000Y-65151000D03*
X147447000Y-68707000D03*
X147447000Y-65151000D03*
X146177000Y-68707000D03*
X146177000Y-65151000D03*
X144907000Y-68707000D03*
X144907000Y-65151000D03*
X143637000Y-68707000D03*
D38*
X133477000Y-91567000D03*
D39*
X158877000Y-105537000D03*
D38*
X165354000Y-77597000D03*
D39*
X143637000Y-65151000D03*
%TD*%
D13*
%TO.C,J302*%
X151872000Y-131916000D03*
D14*
X151872000Y-134456000D03*
X154412000Y-131916000D03*
X154412000Y-134456000D03*
X156952000Y-131916000D03*
X156952000Y-134456000D03*
X159492000Y-131916000D03*
X159492000Y-134456000D03*
X162032000Y-131916000D03*
X162032000Y-134456000D03*
%TD*%
D17*
%TO.C,C201*%
X127153000Y-103251000D03*
X125603000Y-103251000D03*
%TD*%
D18*
%TO.C,R304*%
X184087000Y-122555000D03*
X185737000Y-122555000D03*
%TD*%
D17*
%TO.C,C304*%
X193955000Y-124841000D03*
X192405000Y-124841000D03*
%TD*%
D15*
%TO.C,Q304*%
X154129500Y-124780000D03*
X154129500Y-126680000D03*
X156004500Y-125730000D03*
%TD*%
D21*
%TO.C,R103*%
X109855000Y-136080000D03*
X109855000Y-134430000D03*
%TD*%
D18*
%TO.C,R214*%
X181039000Y-97917000D03*
X182689000Y-97917000D03*
%TD*%
D17*
%TO.C,C303*%
X181255000Y-113665000D03*
X179705000Y-113665000D03*
%TD*%
D40*
%TO.C,C307*%
X155803000Y-112014000D03*
X157353000Y-112014000D03*
%TD*%
D41*
%TO.C,SW101*%
X146665000Y-136321000D03*
X139655000Y-136321000D03*
D42*
X145415000Y-138811000D03*
X140915000Y-138811000D03*
%TD*%
D13*
%TO.C,J102*%
X188595000Y-53467000D03*
D14*
X186055000Y-53467000D03*
X188595000Y-56007000D03*
X186055000Y-56007000D03*
X188595000Y-58547000D03*
X186055000Y-58547000D03*
X188595000Y-61087000D03*
X186055000Y-61087000D03*
X188595000Y-63627000D03*
X186055000Y-63627000D03*
X188595000Y-66167000D03*
X186055000Y-66167000D03*
X188595000Y-68707000D03*
X186055000Y-68707000D03*
X188595000Y-71247000D03*
X186055000Y-71247000D03*
X188595000Y-73787000D03*
X186055000Y-73787000D03*
X188595000Y-76327000D03*
X186055000Y-76327000D03*
X188595000Y-78867000D03*
X186055000Y-78867000D03*
X188595000Y-81407000D03*
X186055000Y-81407000D03*
X188595000Y-83947000D03*
X186055000Y-83947000D03*
X188595000Y-86487000D03*
X186055000Y-86487000D03*
X188595000Y-89027000D03*
X186055000Y-89027000D03*
X188595000Y-91567000D03*
X186055000Y-91567000D03*
X188595000Y-94107000D03*
X186055000Y-94107000D03*
X188595000Y-96647000D03*
X186055000Y-96647000D03*
X188595000Y-99187000D03*
X186055000Y-99187000D03*
X188595000Y-101727000D03*
X186055000Y-101727000D03*
%TD*%
D30*
%TO.C,R301*%
X142176000Y-128270000D03*
X140526000Y-128270000D03*
%TD*%
D16*
%TO.C,C301*%
X140428500Y-125508000D03*
X140428500Y-120428000D03*
%TD*%
D43*
%TO.C,Y301*%
X176447000Y-106248000D03*
X181947000Y-106248000D03*
X181947000Y-103048000D03*
X176447000Y-103048000D03*
%TD*%
M02*
