%TF.GenerationSoftware,KiCad,Pcbnew,6.0.8+dfsg-1~bpo11+1*%
%TF.CreationDate,2022-11-16T21:16:40+01:00*%
%TF.ProjectId,CpuCubeV2-00,43707543-7562-4655-9632-2d30302e6b69,rev?*%
%TF.SameCoordinates,Original*%
%TF.FileFunction,Legend,Top*%
%TF.FilePolarity,Positive*%
%FSLAX46Y46*%
G04 Gerber Fmt 4.6, Leading zero omitted, Abs format (unit mm)*
G04 Created by KiCad (PCBNEW 6.0.8+dfsg-1~bpo11+1) date 2022-11-16 21:16:40*
%MOMM*%
%LPD*%
G01*
G04 APERTURE LIST*
%ADD10C,0.150000*%
%ADD11C,0.300000*%
%ADD12C,0.250000*%
%ADD13C,0.125000*%
%ADD14C,0.120000*%
%ADD15C,0.100000*%
G04 APERTURE END LIST*
D10*
X104029000Y-92019380D02*
X104029000Y-91019380D01*
X104695666Y-91019380D02*
X104886142Y-91019380D01*
X104981380Y-91067000D01*
X105076619Y-91162238D01*
X105124238Y-91352714D01*
X105124238Y-91686047D01*
X105076619Y-91876523D01*
X104981380Y-91971761D01*
X104886142Y-92019380D01*
X104695666Y-92019380D01*
X104600428Y-91971761D01*
X104505190Y-91876523D01*
X104457571Y-91686047D01*
X104457571Y-91352714D01*
X104505190Y-91162238D01*
X104600428Y-91067000D01*
X104695666Y-91019380D01*
X106076619Y-92019380D02*
X105505190Y-92019380D01*
X105790904Y-92019380D02*
X105790904Y-91019380D01*
X105695666Y-91162238D01*
X105600428Y-91257476D01*
X105505190Y-91305095D01*
X102378095Y-61158428D02*
X103140000Y-61158428D01*
X102759047Y-61539380D02*
X102759047Y-60777476D01*
X104140000Y-61539380D02*
X103568571Y-61539380D01*
X103854285Y-61539380D02*
X103854285Y-60539380D01*
X103759047Y-60682238D01*
X103663809Y-60777476D01*
X103568571Y-60825095D01*
X104520952Y-60634619D02*
X104568571Y-60587000D01*
X104663809Y-60539380D01*
X104901904Y-60539380D01*
X104997142Y-60587000D01*
X105044761Y-60634619D01*
X105092380Y-60729857D01*
X105092380Y-60825095D01*
X105044761Y-60967952D01*
X104473333Y-61539380D01*
X105092380Y-61539380D01*
X105378095Y-60539380D02*
X105711428Y-61539380D01*
X106044761Y-60539380D01*
X191603333Y-79192380D02*
X191270000Y-78716190D01*
X191031904Y-79192380D02*
X191031904Y-78192380D01*
X191412857Y-78192380D01*
X191508095Y-78240000D01*
X191555714Y-78287619D01*
X191603333Y-78382857D01*
X191603333Y-78525714D01*
X191555714Y-78620952D01*
X191508095Y-78668571D01*
X191412857Y-78716190D01*
X191031904Y-78716190D01*
X191984285Y-79144761D02*
X192127142Y-79192380D01*
X192365238Y-79192380D01*
X192460476Y-79144761D01*
X192508095Y-79097142D01*
X192555714Y-79001904D01*
X192555714Y-78906666D01*
X192508095Y-78811428D01*
X192460476Y-78763809D01*
X192365238Y-78716190D01*
X192174761Y-78668571D01*
X192079523Y-78620952D01*
X192031904Y-78573333D01*
X191984285Y-78478095D01*
X191984285Y-78382857D01*
X192031904Y-78287619D01*
X192079523Y-78240000D01*
X192174761Y-78192380D01*
X192412857Y-78192380D01*
X192555714Y-78240000D01*
X191128809Y-85277904D02*
X191128809Y-85925523D01*
X191166904Y-86001714D01*
X191205000Y-86039809D01*
X191281190Y-86077904D01*
X191433571Y-86077904D01*
X191509761Y-86039809D01*
X191547857Y-86001714D01*
X191585952Y-85925523D01*
X191585952Y-85277904D01*
X191928809Y-85849333D02*
X192309761Y-85849333D01*
X191852619Y-86077904D02*
X192119285Y-85277904D01*
X192385952Y-86077904D01*
X193109761Y-86077904D02*
X192843095Y-85696952D01*
X192652619Y-86077904D02*
X192652619Y-85277904D01*
X192957380Y-85277904D01*
X193033571Y-85316000D01*
X193071666Y-85354095D01*
X193109761Y-85430285D01*
X193109761Y-85544571D01*
X193071666Y-85620761D01*
X193033571Y-85658857D01*
X192957380Y-85696952D01*
X192652619Y-85696952D01*
X193338333Y-85277904D02*
X193795476Y-85277904D01*
X193566904Y-86077904D02*
X193566904Y-85277904D01*
X191890714Y-87365904D02*
X191624047Y-86984952D01*
X191433571Y-87365904D02*
X191433571Y-86565904D01*
X191738333Y-86565904D01*
X191814523Y-86604000D01*
X191852619Y-86642095D01*
X191890714Y-86718285D01*
X191890714Y-86832571D01*
X191852619Y-86908761D01*
X191814523Y-86946857D01*
X191738333Y-86984952D01*
X191433571Y-86984952D01*
X192157380Y-86565904D02*
X192690714Y-87365904D01*
X192690714Y-86565904D02*
X192157380Y-87365904D01*
X192957380Y-86642095D02*
X192995476Y-86604000D01*
X193071666Y-86565904D01*
X193262142Y-86565904D01*
X193338333Y-86604000D01*
X193376428Y-86642095D01*
X193414523Y-86718285D01*
X193414523Y-86794476D01*
X193376428Y-86908761D01*
X192919285Y-87365904D01*
X193414523Y-87365904D01*
X182268904Y-69032380D02*
X182268904Y-68032380D01*
X182507000Y-68032380D01*
X182649857Y-68080000D01*
X182745095Y-68175238D01*
X182792714Y-68270476D01*
X182840333Y-68460952D01*
X182840333Y-68603809D01*
X182792714Y-68794285D01*
X182745095Y-68889523D01*
X182649857Y-68984761D01*
X182507000Y-69032380D01*
X182268904Y-69032380D01*
X183221285Y-68127619D02*
X183268904Y-68080000D01*
X183364142Y-68032380D01*
X183602238Y-68032380D01*
X183697476Y-68080000D01*
X183745095Y-68127619D01*
X183792714Y-68222857D01*
X183792714Y-68318095D01*
X183745095Y-68460952D01*
X183173666Y-69032380D01*
X183792714Y-69032380D01*
X180578333Y-91844761D02*
X180721190Y-91892380D01*
X180959285Y-91892380D01*
X181054523Y-91844761D01*
X181102142Y-91797142D01*
X181149761Y-91701904D01*
X181149761Y-91606666D01*
X181102142Y-91511428D01*
X181054523Y-91463809D01*
X180959285Y-91416190D01*
X180768809Y-91368571D01*
X180673571Y-91320952D01*
X180625952Y-91273333D01*
X180578333Y-91178095D01*
X180578333Y-91082857D01*
X180625952Y-90987619D01*
X180673571Y-90940000D01*
X180768809Y-90892380D01*
X181006904Y-90892380D01*
X181149761Y-90940000D01*
X182149761Y-91797142D02*
X182102142Y-91844761D01*
X181959285Y-91892380D01*
X181864047Y-91892380D01*
X181721190Y-91844761D01*
X181625952Y-91749523D01*
X181578333Y-91654285D01*
X181530714Y-91463809D01*
X181530714Y-91320952D01*
X181578333Y-91130476D01*
X181625952Y-91035238D01*
X181721190Y-90940000D01*
X181864047Y-90892380D01*
X181959285Y-90892380D01*
X182102142Y-90940000D01*
X182149761Y-90987619D01*
X183054523Y-91892380D02*
X182578333Y-91892380D01*
X182578333Y-90892380D01*
X183911666Y-91892380D02*
X183340238Y-91892380D01*
X183625952Y-91892380D02*
X183625952Y-90892380D01*
X183530714Y-91035238D01*
X183435476Y-91130476D01*
X183340238Y-91178095D01*
X191128761Y-58061714D02*
X191090666Y-58099809D01*
X190976380Y-58137904D01*
X190900190Y-58137904D01*
X190785904Y-58099809D01*
X190709714Y-58023619D01*
X190671619Y-57947428D01*
X190633523Y-57795047D01*
X190633523Y-57680761D01*
X190671619Y-57528380D01*
X190709714Y-57452190D01*
X190785904Y-57376000D01*
X190900190Y-57337904D01*
X190976380Y-57337904D01*
X191090666Y-57376000D01*
X191128761Y-57414095D01*
X191433523Y-57909333D02*
X191814476Y-57909333D01*
X191357333Y-58137904D02*
X191624000Y-57337904D01*
X191890666Y-58137904D01*
X192157333Y-58137904D02*
X192157333Y-57337904D01*
X192614476Y-58137904D01*
X192614476Y-57337904D01*
X193414476Y-58137904D02*
X192957333Y-58137904D01*
X193185904Y-58137904D02*
X193185904Y-57337904D01*
X193109714Y-57452190D01*
X193033523Y-57528380D01*
X192957333Y-57566476D01*
X191890666Y-59425904D02*
X191624000Y-59044952D01*
X191433523Y-59425904D02*
X191433523Y-58625904D01*
X191738285Y-58625904D01*
X191814476Y-58664000D01*
X191852571Y-58702095D01*
X191890666Y-58778285D01*
X191890666Y-58892571D01*
X191852571Y-58968761D01*
X191814476Y-59006857D01*
X191738285Y-59044952D01*
X191433523Y-59044952D01*
X192157333Y-58625904D02*
X192690666Y-59425904D01*
X192690666Y-58625904D02*
X192157333Y-59425904D01*
X181349809Y-82737904D02*
X181349809Y-83385523D01*
X181387904Y-83461714D01*
X181426000Y-83499809D01*
X181502190Y-83537904D01*
X181654571Y-83537904D01*
X181730761Y-83499809D01*
X181768857Y-83461714D01*
X181806952Y-83385523D01*
X181806952Y-82737904D01*
X182149809Y-83309333D02*
X182530761Y-83309333D01*
X182073619Y-83537904D02*
X182340285Y-82737904D01*
X182606952Y-83537904D01*
X183330761Y-83537904D02*
X183064095Y-83156952D01*
X182873619Y-83537904D02*
X182873619Y-82737904D01*
X183178380Y-82737904D01*
X183254571Y-82776000D01*
X183292666Y-82814095D01*
X183330761Y-82890285D01*
X183330761Y-83004571D01*
X183292666Y-83080761D01*
X183254571Y-83118857D01*
X183178380Y-83156952D01*
X182873619Y-83156952D01*
X183559333Y-82737904D02*
X184016476Y-82737904D01*
X183787904Y-83537904D02*
X183787904Y-82737904D01*
X181635523Y-84025904D02*
X182092666Y-84025904D01*
X181864095Y-84825904D02*
X181864095Y-84025904D01*
X182283142Y-84025904D02*
X182816476Y-84825904D01*
X182816476Y-84025904D02*
X182283142Y-84825904D01*
X183540285Y-84825904D02*
X183083142Y-84825904D01*
X183311714Y-84825904D02*
X183311714Y-84025904D01*
X183235523Y-84140190D01*
X183159333Y-84216380D01*
X183083142Y-84254476D01*
X181349809Y-87817904D02*
X181349809Y-88465523D01*
X181387904Y-88541714D01*
X181426000Y-88579809D01*
X181502190Y-88617904D01*
X181654571Y-88617904D01*
X181730761Y-88579809D01*
X181768857Y-88541714D01*
X181806952Y-88465523D01*
X181806952Y-87817904D01*
X182149809Y-88389333D02*
X182530761Y-88389333D01*
X182073619Y-88617904D02*
X182340285Y-87817904D01*
X182606952Y-88617904D01*
X183330761Y-88617904D02*
X183064095Y-88236952D01*
X182873619Y-88617904D02*
X182873619Y-87817904D01*
X183178380Y-87817904D01*
X183254571Y-87856000D01*
X183292666Y-87894095D01*
X183330761Y-87970285D01*
X183330761Y-88084571D01*
X183292666Y-88160761D01*
X183254571Y-88198857D01*
X183178380Y-88236952D01*
X182873619Y-88236952D01*
X183559333Y-87817904D02*
X184016476Y-87817904D01*
X183787904Y-88617904D02*
X183787904Y-87817904D01*
X181635523Y-89105904D02*
X182092666Y-89105904D01*
X181864095Y-89905904D02*
X181864095Y-89105904D01*
X182283142Y-89105904D02*
X182816476Y-89905904D01*
X182816476Y-89105904D02*
X182283142Y-89905904D01*
X183045047Y-89105904D02*
X183540285Y-89105904D01*
X183273619Y-89410666D01*
X183387904Y-89410666D01*
X183464095Y-89448761D01*
X183502190Y-89486857D01*
X183540285Y-89563047D01*
X183540285Y-89753523D01*
X183502190Y-89829714D01*
X183464095Y-89867809D01*
X183387904Y-89905904D01*
X183159333Y-89905904D01*
X183083142Y-89867809D01*
X183045047Y-89829714D01*
X102259047Y-81859380D02*
X102259047Y-80859380D01*
X102640000Y-80859380D01*
X102735238Y-80907000D01*
X102782857Y-80954619D01*
X102830476Y-81049857D01*
X102830476Y-81192714D01*
X102782857Y-81287952D01*
X102735238Y-81335571D01*
X102640000Y-81383190D01*
X102259047Y-81383190D01*
X103163809Y-80859380D02*
X103401904Y-81859380D01*
X103592380Y-81145095D01*
X103782857Y-81859380D01*
X104020952Y-80859380D01*
X104401904Y-81859380D02*
X104401904Y-80859380D01*
X104735238Y-81573666D01*
X105068571Y-80859380D01*
X105068571Y-81859380D01*
X106068571Y-81859380D02*
X105497142Y-81859380D01*
X105782857Y-81859380D02*
X105782857Y-80859380D01*
X105687619Y-81002238D01*
X105592380Y-81097476D01*
X105497142Y-81145095D01*
X104013095Y-78367000D02*
X103917857Y-78319380D01*
X103775000Y-78319380D01*
X103632142Y-78367000D01*
X103536904Y-78462238D01*
X103489285Y-78557476D01*
X103441666Y-78747952D01*
X103441666Y-78890809D01*
X103489285Y-79081285D01*
X103536904Y-79176523D01*
X103632142Y-79271761D01*
X103775000Y-79319380D01*
X103870238Y-79319380D01*
X104013095Y-79271761D01*
X104060714Y-79224142D01*
X104060714Y-78890809D01*
X103870238Y-78890809D01*
X104489285Y-79319380D02*
X104489285Y-78319380D01*
X105060714Y-79319380D01*
X105060714Y-78319380D01*
X105536904Y-79319380D02*
X105536904Y-78319380D01*
X105775000Y-78319380D01*
X105917857Y-78367000D01*
X106013095Y-78462238D01*
X106060714Y-78557476D01*
X106108333Y-78747952D01*
X106108333Y-78890809D01*
X106060714Y-79081285D01*
X106013095Y-79176523D01*
X105917857Y-79271761D01*
X105775000Y-79319380D01*
X105536904Y-79319380D01*
X190968523Y-94384761D02*
X191111380Y-94432380D01*
X191349476Y-94432380D01*
X191444714Y-94384761D01*
X191492333Y-94337142D01*
X191539952Y-94241904D01*
X191539952Y-94146666D01*
X191492333Y-94051428D01*
X191444714Y-94003809D01*
X191349476Y-93956190D01*
X191159000Y-93908571D01*
X191063761Y-93860952D01*
X191016142Y-93813333D01*
X190968523Y-93718095D01*
X190968523Y-93622857D01*
X191016142Y-93527619D01*
X191063761Y-93480000D01*
X191159000Y-93432380D01*
X191397095Y-93432380D01*
X191539952Y-93480000D01*
X191968523Y-94432380D02*
X191968523Y-93432380D01*
X192206619Y-93432380D01*
X192349476Y-93480000D01*
X192444714Y-93575238D01*
X192492333Y-93670476D01*
X192539952Y-93860952D01*
X192539952Y-94003809D01*
X192492333Y-94194285D01*
X192444714Y-94289523D01*
X192349476Y-94384761D01*
X192206619Y-94432380D01*
X191968523Y-94432380D01*
X192920904Y-94146666D02*
X193397095Y-94146666D01*
X192825666Y-94432380D02*
X193159000Y-93432380D01*
X193492333Y-94432380D01*
X193778047Y-93527619D02*
X193825666Y-93480000D01*
X193920904Y-93432380D01*
X194159000Y-93432380D01*
X194254238Y-93480000D01*
X194301857Y-93527619D01*
X194349476Y-93622857D01*
X194349476Y-93718095D01*
X194301857Y-93860952D01*
X193730428Y-94432380D01*
X194349476Y-94432380D01*
X191031904Y-69032380D02*
X191031904Y-68032380D01*
X191270000Y-68032380D01*
X191412857Y-68080000D01*
X191508095Y-68175238D01*
X191555714Y-68270476D01*
X191603333Y-68460952D01*
X191603333Y-68603809D01*
X191555714Y-68794285D01*
X191508095Y-68889523D01*
X191412857Y-68984761D01*
X191270000Y-69032380D01*
X191031904Y-69032380D01*
X192555714Y-69032380D02*
X191984285Y-69032380D01*
X192270000Y-69032380D02*
X192270000Y-68032380D01*
X192174761Y-68175238D01*
X192079523Y-68270476D01*
X191984285Y-68318095D01*
X191516095Y-101100000D02*
X191420857Y-101052380D01*
X191278000Y-101052380D01*
X191135142Y-101100000D01*
X191039904Y-101195238D01*
X190992285Y-101290476D01*
X190944666Y-101480952D01*
X190944666Y-101623809D01*
X190992285Y-101814285D01*
X191039904Y-101909523D01*
X191135142Y-102004761D01*
X191278000Y-102052380D01*
X191373238Y-102052380D01*
X191516095Y-102004761D01*
X191563714Y-101957142D01*
X191563714Y-101623809D01*
X191373238Y-101623809D01*
X191992285Y-102052380D02*
X191992285Y-101052380D01*
X192563714Y-102052380D01*
X192563714Y-101052380D01*
X193039904Y-102052380D02*
X193039904Y-101052380D01*
X193278000Y-101052380D01*
X193420857Y-101100000D01*
X193516095Y-101195238D01*
X193563714Y-101290476D01*
X193611333Y-101480952D01*
X193611333Y-101623809D01*
X193563714Y-101814285D01*
X193516095Y-101909523D01*
X193420857Y-102004761D01*
X193278000Y-102052380D01*
X193039904Y-102052380D01*
X191031904Y-74112380D02*
X191031904Y-73112380D01*
X191270000Y-73112380D01*
X191412857Y-73160000D01*
X191508095Y-73255238D01*
X191555714Y-73350476D01*
X191603333Y-73540952D01*
X191603333Y-73683809D01*
X191555714Y-73874285D01*
X191508095Y-73969523D01*
X191412857Y-74064761D01*
X191270000Y-74112380D01*
X191031904Y-74112380D01*
X192508095Y-73112380D02*
X192031904Y-73112380D01*
X191984285Y-73588571D01*
X192031904Y-73540952D01*
X192127142Y-73493333D01*
X192365238Y-73493333D01*
X192460476Y-73540952D01*
X192508095Y-73588571D01*
X192555714Y-73683809D01*
X192555714Y-73921904D01*
X192508095Y-74017142D01*
X192460476Y-74064761D01*
X192365238Y-74112380D01*
X192127142Y-74112380D01*
X192031904Y-74064761D01*
X191984285Y-74017142D01*
X113308047Y-86939380D02*
X113308047Y-85939380D01*
X113689000Y-85939380D01*
X113784238Y-85987000D01*
X113831857Y-86034619D01*
X113879476Y-86129857D01*
X113879476Y-86272714D01*
X113831857Y-86367952D01*
X113784238Y-86415571D01*
X113689000Y-86463190D01*
X113308047Y-86463190D01*
X114212809Y-85939380D02*
X114450904Y-86939380D01*
X114641380Y-86225095D01*
X114831857Y-86939380D01*
X115069952Y-85939380D01*
X115450904Y-86939380D02*
X115450904Y-85939380D01*
X115784238Y-86653666D01*
X116117571Y-85939380D01*
X116117571Y-86939380D01*
X117022333Y-86272714D02*
X117022333Y-86939380D01*
X116784238Y-85891761D02*
X116546142Y-86606047D01*
X117165190Y-86606047D01*
X180578333Y-96924761D02*
X180721190Y-96972380D01*
X180959285Y-96972380D01*
X181054523Y-96924761D01*
X181102142Y-96877142D01*
X181149761Y-96781904D01*
X181149761Y-96686666D01*
X181102142Y-96591428D01*
X181054523Y-96543809D01*
X180959285Y-96496190D01*
X180768809Y-96448571D01*
X180673571Y-96400952D01*
X180625952Y-96353333D01*
X180578333Y-96258095D01*
X180578333Y-96162857D01*
X180625952Y-96067619D01*
X180673571Y-96020000D01*
X180768809Y-95972380D01*
X181006904Y-95972380D01*
X181149761Y-96020000D01*
X182149761Y-96877142D02*
X182102142Y-96924761D01*
X181959285Y-96972380D01*
X181864047Y-96972380D01*
X181721190Y-96924761D01*
X181625952Y-96829523D01*
X181578333Y-96734285D01*
X181530714Y-96543809D01*
X181530714Y-96400952D01*
X181578333Y-96210476D01*
X181625952Y-96115238D01*
X181721190Y-96020000D01*
X181864047Y-95972380D01*
X181959285Y-95972380D01*
X182102142Y-96020000D01*
X182149761Y-96067619D01*
X183054523Y-96972380D02*
X182578333Y-96972380D01*
X182578333Y-95972380D01*
X183292619Y-95972380D02*
X183911666Y-95972380D01*
X183578333Y-96353333D01*
X183721190Y-96353333D01*
X183816428Y-96400952D01*
X183864047Y-96448571D01*
X183911666Y-96543809D01*
X183911666Y-96781904D01*
X183864047Y-96877142D01*
X183816428Y-96924761D01*
X183721190Y-96972380D01*
X183435476Y-96972380D01*
X183340238Y-96924761D01*
X183292619Y-96877142D01*
X181349761Y-58061714D02*
X181311666Y-58099809D01*
X181197380Y-58137904D01*
X181121190Y-58137904D01*
X181006904Y-58099809D01*
X180930714Y-58023619D01*
X180892619Y-57947428D01*
X180854523Y-57795047D01*
X180854523Y-57680761D01*
X180892619Y-57528380D01*
X180930714Y-57452190D01*
X181006904Y-57376000D01*
X181121190Y-57337904D01*
X181197380Y-57337904D01*
X181311666Y-57376000D01*
X181349761Y-57414095D01*
X181654523Y-57909333D02*
X182035476Y-57909333D01*
X181578333Y-58137904D02*
X181845000Y-57337904D01*
X182111666Y-58137904D01*
X182378333Y-58137904D02*
X182378333Y-57337904D01*
X182835476Y-58137904D01*
X182835476Y-57337904D01*
X183635476Y-58137904D02*
X183178333Y-58137904D01*
X183406904Y-58137904D02*
X183406904Y-57337904D01*
X183330714Y-57452190D01*
X183254523Y-57528380D01*
X183178333Y-57566476D01*
X181635476Y-58625904D02*
X182092619Y-58625904D01*
X181864047Y-59425904D02*
X181864047Y-58625904D01*
X182283095Y-58625904D02*
X182816428Y-59425904D01*
X182816428Y-58625904D02*
X182283095Y-59425904D01*
X181856142Y-81637142D02*
X181808523Y-81684761D01*
X181665666Y-81732380D01*
X181570428Y-81732380D01*
X181427571Y-81684761D01*
X181332333Y-81589523D01*
X181284714Y-81494285D01*
X181237095Y-81303809D01*
X181237095Y-81160952D01*
X181284714Y-80970476D01*
X181332333Y-80875238D01*
X181427571Y-80780000D01*
X181570428Y-80732380D01*
X181665666Y-80732380D01*
X181808523Y-80780000D01*
X181856142Y-80827619D01*
X182237095Y-81684761D02*
X182379952Y-81732380D01*
X182618047Y-81732380D01*
X182713285Y-81684761D01*
X182760904Y-81637142D01*
X182808523Y-81541904D01*
X182808523Y-81446666D01*
X182760904Y-81351428D01*
X182713285Y-81303809D01*
X182618047Y-81256190D01*
X182427571Y-81208571D01*
X182332333Y-81160952D01*
X182284714Y-81113333D01*
X182237095Y-81018095D01*
X182237095Y-80922857D01*
X182284714Y-80827619D01*
X182332333Y-80780000D01*
X182427571Y-80732380D01*
X182665666Y-80732380D01*
X182808523Y-80780000D01*
X183189476Y-80827619D02*
X183237095Y-80780000D01*
X183332333Y-80732380D01*
X183570428Y-80732380D01*
X183665666Y-80780000D01*
X183713285Y-80827619D01*
X183760904Y-80922857D01*
X183760904Y-81018095D01*
X183713285Y-81160952D01*
X183141857Y-81732380D01*
X183760904Y-81732380D01*
X101814571Y-56205428D02*
X102576476Y-56205428D01*
X102195523Y-56586380D02*
X102195523Y-55824476D01*
X103386000Y-56062571D02*
X103528857Y-56110190D01*
X103576476Y-56157809D01*
X103624095Y-56253047D01*
X103624095Y-56395904D01*
X103576476Y-56491142D01*
X103528857Y-56538761D01*
X103433619Y-56586380D01*
X103052666Y-56586380D01*
X103052666Y-55586380D01*
X103386000Y-55586380D01*
X103481238Y-55634000D01*
X103528857Y-55681619D01*
X103576476Y-55776857D01*
X103576476Y-55872095D01*
X103528857Y-55967333D01*
X103481238Y-56014952D01*
X103386000Y-56062571D01*
X103052666Y-56062571D01*
X104005047Y-56300666D02*
X104481238Y-56300666D01*
X103909809Y-56586380D02*
X104243142Y-55586380D01*
X104576476Y-56586380D01*
X104766952Y-55586380D02*
X105338380Y-55586380D01*
X105052666Y-56586380D02*
X105052666Y-55586380D01*
X105528857Y-55586380D02*
X106100285Y-55586380D01*
X105814571Y-56586380D02*
X105814571Y-55586380D01*
X190920809Y-56332380D02*
X190920809Y-55332380D01*
X191968428Y-56237142D02*
X191920809Y-56284761D01*
X191777952Y-56332380D01*
X191682714Y-56332380D01*
X191539857Y-56284761D01*
X191444619Y-56189523D01*
X191397000Y-56094285D01*
X191349380Y-55903809D01*
X191349380Y-55760952D01*
X191397000Y-55570476D01*
X191444619Y-55475238D01*
X191539857Y-55380000D01*
X191682714Y-55332380D01*
X191777952Y-55332380D01*
X191920809Y-55380000D01*
X191968428Y-55427619D01*
X192920809Y-56332380D02*
X192349380Y-56332380D01*
X192635095Y-56332380D02*
X192635095Y-55332380D01*
X192539857Y-55475238D01*
X192444619Y-55570476D01*
X192349380Y-55618095D01*
X191603380Y-99512380D02*
X191270047Y-99036190D01*
X191031952Y-99512380D02*
X191031952Y-98512380D01*
X191412904Y-98512380D01*
X191508142Y-98560000D01*
X191555761Y-98607619D01*
X191603380Y-98702857D01*
X191603380Y-98845714D01*
X191555761Y-98940952D01*
X191508142Y-98988571D01*
X191412904Y-99036190D01*
X191031952Y-99036190D01*
X191984333Y-99464761D02*
X192127190Y-99512380D01*
X192365285Y-99512380D01*
X192460523Y-99464761D01*
X192508142Y-99417142D01*
X192555761Y-99321904D01*
X192555761Y-99226666D01*
X192508142Y-99131428D01*
X192460523Y-99083809D01*
X192365285Y-99036190D01*
X192174809Y-98988571D01*
X192079571Y-98940952D01*
X192031952Y-98893333D01*
X191984333Y-98798095D01*
X191984333Y-98702857D01*
X192031952Y-98607619D01*
X192079571Y-98560000D01*
X192174809Y-98512380D01*
X192412904Y-98512380D01*
X192555761Y-98560000D01*
X192841476Y-98512380D02*
X193412904Y-98512380D01*
X193127190Y-99512380D02*
X193127190Y-98512380D01*
X191031904Y-76652380D02*
X191031904Y-75652380D01*
X191270000Y-75652380D01*
X191412857Y-75700000D01*
X191508095Y-75795238D01*
X191555714Y-75890476D01*
X191603333Y-76080952D01*
X191603333Y-76223809D01*
X191555714Y-76414285D01*
X191508095Y-76509523D01*
X191412857Y-76604761D01*
X191270000Y-76652380D01*
X191031904Y-76652380D01*
X191936666Y-75652380D02*
X192603333Y-75652380D01*
X192174761Y-76652380D01*
X113554000Y-99639380D02*
X113554000Y-98639380D01*
X114220666Y-98639380D02*
X114411142Y-98639380D01*
X114506380Y-98687000D01*
X114601619Y-98782238D01*
X114649238Y-98972714D01*
X114649238Y-99306047D01*
X114601619Y-99496523D01*
X114506380Y-99591761D01*
X114411142Y-99639380D01*
X114220666Y-99639380D01*
X114125428Y-99591761D01*
X114030190Y-99496523D01*
X113982571Y-99306047D01*
X113982571Y-98972714D01*
X114030190Y-98782238D01*
X114125428Y-98687000D01*
X114220666Y-98639380D01*
X115506380Y-98639380D02*
X115315904Y-98639380D01*
X115220666Y-98687000D01*
X115173047Y-98734619D01*
X115077809Y-98877476D01*
X115030190Y-99067952D01*
X115030190Y-99448904D01*
X115077809Y-99544142D01*
X115125428Y-99591761D01*
X115220666Y-99639380D01*
X115411142Y-99639380D01*
X115506380Y-99591761D01*
X115554000Y-99544142D01*
X115601619Y-99448904D01*
X115601619Y-99210809D01*
X115554000Y-99115571D01*
X115506380Y-99067952D01*
X115411142Y-99020333D01*
X115220666Y-99020333D01*
X115125428Y-99067952D01*
X115077809Y-99115571D01*
X115030190Y-99210809D01*
X113308047Y-81859380D02*
X113308047Y-80859380D01*
X113689000Y-80859380D01*
X113784238Y-80907000D01*
X113831857Y-80954619D01*
X113879476Y-81049857D01*
X113879476Y-81192714D01*
X113831857Y-81287952D01*
X113784238Y-81335571D01*
X113689000Y-81383190D01*
X113308047Y-81383190D01*
X114212809Y-80859380D02*
X114450904Y-81859380D01*
X114641380Y-81145095D01*
X114831857Y-81859380D01*
X115069952Y-80859380D01*
X115450904Y-81859380D02*
X115450904Y-80859380D01*
X115784238Y-81573666D01*
X116117571Y-80859380D01*
X116117571Y-81859380D01*
X116784238Y-80859380D02*
X116879476Y-80859380D01*
X116974714Y-80907000D01*
X117022333Y-80954619D01*
X117069952Y-81049857D01*
X117117571Y-81240333D01*
X117117571Y-81478428D01*
X117069952Y-81668904D01*
X117022333Y-81764142D01*
X116974714Y-81811761D01*
X116879476Y-81859380D01*
X116784238Y-81859380D01*
X116689000Y-81811761D01*
X116641380Y-81764142D01*
X116593761Y-81668904D01*
X116546142Y-81478428D01*
X116546142Y-81240333D01*
X116593761Y-81049857D01*
X116641380Y-80954619D01*
X116689000Y-80907000D01*
X116784238Y-80859380D01*
X191635142Y-81637142D02*
X191587523Y-81684761D01*
X191444666Y-81732380D01*
X191349428Y-81732380D01*
X191206571Y-81684761D01*
X191111333Y-81589523D01*
X191063714Y-81494285D01*
X191016095Y-81303809D01*
X191016095Y-81160952D01*
X191063714Y-80970476D01*
X191111333Y-80875238D01*
X191206571Y-80780000D01*
X191349428Y-80732380D01*
X191444666Y-80732380D01*
X191587523Y-80780000D01*
X191635142Y-80827619D01*
X192016095Y-81684761D02*
X192158952Y-81732380D01*
X192397047Y-81732380D01*
X192492285Y-81684761D01*
X192539904Y-81637142D01*
X192587523Y-81541904D01*
X192587523Y-81446666D01*
X192539904Y-81351428D01*
X192492285Y-81303809D01*
X192397047Y-81256190D01*
X192206571Y-81208571D01*
X192111333Y-81160952D01*
X192063714Y-81113333D01*
X192016095Y-81018095D01*
X192016095Y-80922857D01*
X192063714Y-80827619D01*
X192111333Y-80780000D01*
X192206571Y-80732380D01*
X192444666Y-80732380D01*
X192587523Y-80780000D01*
X193539904Y-81732380D02*
X192968476Y-81732380D01*
X193254190Y-81732380D02*
X193254190Y-80732380D01*
X193158952Y-80875238D01*
X193063714Y-80970476D01*
X192968476Y-81018095D01*
X113554047Y-89479380D02*
X113554047Y-88479380D01*
X114030238Y-89479380D02*
X114030238Y-88479380D01*
X114601666Y-89479380D01*
X114601666Y-88479380D01*
X114935000Y-88479380D02*
X115506428Y-88479380D01*
X115220714Y-89479380D02*
X115220714Y-88479380D01*
X116363571Y-89479380D02*
X115792142Y-89479380D01*
X116077857Y-89479380D02*
X116077857Y-88479380D01*
X115982619Y-88622238D01*
X115887380Y-88717476D01*
X115792142Y-88765095D01*
X102505095Y-76398428D02*
X103267000Y-76398428D01*
X102886047Y-76779380D02*
X102886047Y-76017476D01*
X103647952Y-75779380D02*
X104267000Y-75779380D01*
X103933666Y-76160333D01*
X104076523Y-76160333D01*
X104171761Y-76207952D01*
X104219380Y-76255571D01*
X104267000Y-76350809D01*
X104267000Y-76588904D01*
X104219380Y-76684142D01*
X104171761Y-76731761D01*
X104076523Y-76779380D01*
X103790809Y-76779380D01*
X103695571Y-76731761D01*
X103647952Y-76684142D01*
X104552714Y-75779380D02*
X104886047Y-76779380D01*
X105219380Y-75779380D01*
X105457476Y-75779380D02*
X106076523Y-75779380D01*
X105743190Y-76160333D01*
X105886047Y-76160333D01*
X105981285Y-76207952D01*
X106028904Y-76255571D01*
X106076523Y-76350809D01*
X106076523Y-76588904D01*
X106028904Y-76684142D01*
X105981285Y-76731761D01*
X105886047Y-76779380D01*
X105600333Y-76779380D01*
X105505095Y-76731761D01*
X105457476Y-76684142D01*
X104013095Y-68207000D02*
X103917857Y-68159380D01*
X103775000Y-68159380D01*
X103632142Y-68207000D01*
X103536904Y-68302238D01*
X103489285Y-68397476D01*
X103441666Y-68587952D01*
X103441666Y-68730809D01*
X103489285Y-68921285D01*
X103536904Y-69016523D01*
X103632142Y-69111761D01*
X103775000Y-69159380D01*
X103870238Y-69159380D01*
X104013095Y-69111761D01*
X104060714Y-69064142D01*
X104060714Y-68730809D01*
X103870238Y-68730809D01*
X104489285Y-69159380D02*
X104489285Y-68159380D01*
X105060714Y-69159380D01*
X105060714Y-68159380D01*
X105536904Y-69159380D02*
X105536904Y-68159380D01*
X105775000Y-68159380D01*
X105917857Y-68207000D01*
X106013095Y-68302238D01*
X106060714Y-68397476D01*
X106108333Y-68587952D01*
X106108333Y-68730809D01*
X106060714Y-68921285D01*
X106013095Y-69016523D01*
X105917857Y-69111761D01*
X105775000Y-69159380D01*
X105536904Y-69159380D01*
X104029000Y-89479380D02*
X104029000Y-88479380D01*
X104695666Y-88479380D02*
X104886142Y-88479380D01*
X104981380Y-88527000D01*
X105076619Y-88622238D01*
X105124238Y-88812714D01*
X105124238Y-89146047D01*
X105076619Y-89336523D01*
X104981380Y-89431761D01*
X104886142Y-89479380D01*
X104695666Y-89479380D01*
X104600428Y-89431761D01*
X104505190Y-89336523D01*
X104457571Y-89146047D01*
X104457571Y-88812714D01*
X104505190Y-88622238D01*
X104600428Y-88527000D01*
X104695666Y-88479380D01*
X105695666Y-88907952D02*
X105600428Y-88860333D01*
X105552809Y-88812714D01*
X105505190Y-88717476D01*
X105505190Y-88669857D01*
X105552809Y-88574619D01*
X105600428Y-88527000D01*
X105695666Y-88479380D01*
X105886142Y-88479380D01*
X105981380Y-88527000D01*
X106029000Y-88574619D01*
X106076619Y-88669857D01*
X106076619Y-88717476D01*
X106029000Y-88812714D01*
X105981380Y-88860333D01*
X105886142Y-88907952D01*
X105695666Y-88907952D01*
X105600428Y-88955571D01*
X105552809Y-89003190D01*
X105505190Y-89098428D01*
X105505190Y-89288904D01*
X105552809Y-89384142D01*
X105600428Y-89431761D01*
X105695666Y-89479380D01*
X105886142Y-89479380D01*
X105981380Y-89431761D01*
X106029000Y-89384142D01*
X106076619Y-89288904D01*
X106076619Y-89098428D01*
X106029000Y-89003190D01*
X105981380Y-88955571D01*
X105886142Y-88907952D01*
X191128809Y-82737904D02*
X191128809Y-83385523D01*
X191166904Y-83461714D01*
X191205000Y-83499809D01*
X191281190Y-83537904D01*
X191433571Y-83537904D01*
X191509761Y-83499809D01*
X191547857Y-83461714D01*
X191585952Y-83385523D01*
X191585952Y-82737904D01*
X191928809Y-83309333D02*
X192309761Y-83309333D01*
X191852619Y-83537904D02*
X192119285Y-82737904D01*
X192385952Y-83537904D01*
X193109761Y-83537904D02*
X192843095Y-83156952D01*
X192652619Y-83537904D02*
X192652619Y-82737904D01*
X192957380Y-82737904D01*
X193033571Y-82776000D01*
X193071666Y-82814095D01*
X193109761Y-82890285D01*
X193109761Y-83004571D01*
X193071666Y-83080761D01*
X193033571Y-83118857D01*
X192957380Y-83156952D01*
X192652619Y-83156952D01*
X193338333Y-82737904D02*
X193795476Y-82737904D01*
X193566904Y-83537904D02*
X193566904Y-82737904D01*
X191890714Y-84825904D02*
X191624047Y-84444952D01*
X191433571Y-84825904D02*
X191433571Y-84025904D01*
X191738333Y-84025904D01*
X191814523Y-84064000D01*
X191852619Y-84102095D01*
X191890714Y-84178285D01*
X191890714Y-84292571D01*
X191852619Y-84368761D01*
X191814523Y-84406857D01*
X191738333Y-84444952D01*
X191433571Y-84444952D01*
X192157380Y-84025904D02*
X192690714Y-84825904D01*
X192690714Y-84025904D02*
X192157380Y-84825904D01*
X193414523Y-84825904D02*
X192957380Y-84825904D01*
X193185952Y-84825904D02*
X193185952Y-84025904D01*
X193109761Y-84140190D01*
X193033571Y-84216380D01*
X192957380Y-84254476D01*
D11*
X138368142Y-49803857D02*
X137868142Y-49803857D01*
X137868142Y-50589571D02*
X137868142Y-49089571D01*
X138582428Y-49089571D01*
X139796714Y-49589571D02*
X139796714Y-50589571D01*
X139439571Y-49018142D02*
X139082428Y-50089571D01*
X140011000Y-50089571D01*
X140582428Y-50589571D02*
X140582428Y-49089571D01*
X140939571Y-49089571D01*
X141153857Y-49161000D01*
X141296714Y-49303857D01*
X141368142Y-49446714D01*
X141439571Y-49732428D01*
X141439571Y-49946714D01*
X141368142Y-50232428D01*
X141296714Y-50375285D01*
X141153857Y-50518142D01*
X140939571Y-50589571D01*
X140582428Y-50589571D01*
X142082428Y-49803857D02*
X142582428Y-49803857D01*
X142796714Y-50589571D02*
X142082428Y-50589571D01*
X142082428Y-49089571D01*
X142796714Y-49089571D01*
X143939571Y-49803857D02*
X144153857Y-49875285D01*
X144225285Y-49946714D01*
X144296714Y-50089571D01*
X144296714Y-50303857D01*
X144225285Y-50446714D01*
X144153857Y-50518142D01*
X144011000Y-50589571D01*
X143439571Y-50589571D01*
X143439571Y-49089571D01*
X143939571Y-49089571D01*
X144082428Y-49161000D01*
X144153857Y-49232428D01*
X144225285Y-49375285D01*
X144225285Y-49518142D01*
X144153857Y-49661000D01*
X144082428Y-49732428D01*
X143939571Y-49803857D01*
X143439571Y-49803857D01*
X146939571Y-50446714D02*
X146868142Y-50518142D01*
X146653857Y-50589571D01*
X146511000Y-50589571D01*
X146296714Y-50518142D01*
X146153857Y-50375285D01*
X146082428Y-50232428D01*
X146011000Y-49946714D01*
X146011000Y-49732428D01*
X146082428Y-49446714D01*
X146153857Y-49303857D01*
X146296714Y-49161000D01*
X146511000Y-49089571D01*
X146653857Y-49089571D01*
X146868142Y-49161000D01*
X146939571Y-49232428D01*
X147582428Y-50589571D02*
X147582428Y-49089571D01*
X148153857Y-49089571D01*
X148296714Y-49161000D01*
X148368142Y-49232428D01*
X148439571Y-49375285D01*
X148439571Y-49589571D01*
X148368142Y-49732428D01*
X148296714Y-49803857D01*
X148153857Y-49875285D01*
X147582428Y-49875285D01*
X149082428Y-49089571D02*
X149082428Y-50303857D01*
X149153857Y-50446714D01*
X149225285Y-50518142D01*
X149368142Y-50589571D01*
X149653857Y-50589571D01*
X149796714Y-50518142D01*
X149868142Y-50446714D01*
X149939571Y-50303857D01*
X149939571Y-49089571D01*
X150653857Y-50018142D02*
X151796714Y-50018142D01*
X153368142Y-50446714D02*
X153296714Y-50518142D01*
X153082428Y-50589571D01*
X152939571Y-50589571D01*
X152725285Y-50518142D01*
X152582428Y-50375285D01*
X152511000Y-50232428D01*
X152439571Y-49946714D01*
X152439571Y-49732428D01*
X152511000Y-49446714D01*
X152582428Y-49303857D01*
X152725285Y-49161000D01*
X152939571Y-49089571D01*
X153082428Y-49089571D01*
X153296714Y-49161000D01*
X153368142Y-49232428D01*
X154011000Y-49089571D02*
X154011000Y-50303857D01*
X154082428Y-50446714D01*
X154153857Y-50518142D01*
X154296714Y-50589571D01*
X154582428Y-50589571D01*
X154725285Y-50518142D01*
X154796714Y-50446714D01*
X154868142Y-50303857D01*
X154868142Y-49089571D01*
X156082428Y-49803857D02*
X156296714Y-49875285D01*
X156368142Y-49946714D01*
X156439571Y-50089571D01*
X156439571Y-50303857D01*
X156368142Y-50446714D01*
X156296714Y-50518142D01*
X156153857Y-50589571D01*
X155582428Y-50589571D01*
X155582428Y-49089571D01*
X156082428Y-49089571D01*
X156225285Y-49161000D01*
X156296714Y-49232428D01*
X156368142Y-49375285D01*
X156368142Y-49518142D01*
X156296714Y-49661000D01*
X156225285Y-49732428D01*
X156082428Y-49803857D01*
X155582428Y-49803857D01*
X157082428Y-49803857D02*
X157582428Y-49803857D01*
X157796714Y-50589571D02*
X157082428Y-50589571D01*
X157082428Y-49089571D01*
X157796714Y-49089571D01*
X159368142Y-49089571D02*
X159868142Y-50589571D01*
X160368142Y-49089571D01*
X160796714Y-49232428D02*
X160868142Y-49161000D01*
X161011000Y-49089571D01*
X161368142Y-49089571D01*
X161511000Y-49161000D01*
X161582428Y-49232428D01*
X161653857Y-49375285D01*
X161653857Y-49518142D01*
X161582428Y-49732428D01*
X160725285Y-50589571D01*
X161653857Y-50589571D01*
X162296714Y-50446714D02*
X162368142Y-50518142D01*
X162296714Y-50589571D01*
X162225285Y-50518142D01*
X162296714Y-50446714D01*
X162296714Y-50589571D01*
X163296714Y-49089571D02*
X163439571Y-49089571D01*
X163582428Y-49161000D01*
X163653857Y-49232428D01*
X163725285Y-49375285D01*
X163796714Y-49661000D01*
X163796714Y-50018142D01*
X163725285Y-50303857D01*
X163653857Y-50446714D01*
X163582428Y-50518142D01*
X163439571Y-50589571D01*
X163296714Y-50589571D01*
X163153857Y-50518142D01*
X163082428Y-50446714D01*
X163011000Y-50303857D01*
X162939571Y-50018142D01*
X162939571Y-49661000D01*
X163011000Y-49375285D01*
X163082428Y-49232428D01*
X163153857Y-49161000D01*
X163296714Y-49089571D01*
X164725285Y-49089571D02*
X164868142Y-49089571D01*
X165011000Y-49161000D01*
X165082428Y-49232428D01*
X165153857Y-49375285D01*
X165225285Y-49661000D01*
X165225285Y-50018142D01*
X165153857Y-50303857D01*
X165082428Y-50446714D01*
X165011000Y-50518142D01*
X164868142Y-50589571D01*
X164725285Y-50589571D01*
X164582428Y-50518142D01*
X164511000Y-50446714D01*
X164439571Y-50303857D01*
X164368142Y-50018142D01*
X164368142Y-49661000D01*
X164439571Y-49375285D01*
X164511000Y-49232428D01*
X164582428Y-49161000D01*
X164725285Y-49089571D01*
D10*
X104029000Y-99639380D02*
X104029000Y-98639380D01*
X104695666Y-98639380D02*
X104886142Y-98639380D01*
X104981380Y-98687000D01*
X105076619Y-98782238D01*
X105124238Y-98972714D01*
X105124238Y-99306047D01*
X105076619Y-99496523D01*
X104981380Y-99591761D01*
X104886142Y-99639380D01*
X104695666Y-99639380D01*
X104600428Y-99591761D01*
X104505190Y-99496523D01*
X104457571Y-99306047D01*
X104457571Y-98972714D01*
X104505190Y-98782238D01*
X104600428Y-98687000D01*
X104695666Y-98639380D01*
X105457571Y-98639380D02*
X106124238Y-98639380D01*
X105695666Y-99639380D01*
X190770095Y-61364761D02*
X190912952Y-61412380D01*
X191151047Y-61412380D01*
X191246285Y-61364761D01*
X191293904Y-61317142D01*
X191341523Y-61221904D01*
X191341523Y-61126666D01*
X191293904Y-61031428D01*
X191246285Y-60983809D01*
X191151047Y-60936190D01*
X190960571Y-60888571D01*
X190865333Y-60840952D01*
X190817714Y-60793333D01*
X190770095Y-60698095D01*
X190770095Y-60602857D01*
X190817714Y-60507619D01*
X190865333Y-60460000D01*
X190960571Y-60412380D01*
X191198666Y-60412380D01*
X191341523Y-60460000D01*
X192341523Y-61317142D02*
X192293904Y-61364761D01*
X192151047Y-61412380D01*
X192055809Y-61412380D01*
X191912952Y-61364761D01*
X191817714Y-61269523D01*
X191770095Y-61174285D01*
X191722476Y-60983809D01*
X191722476Y-60840952D01*
X191770095Y-60650476D01*
X191817714Y-60555238D01*
X191912952Y-60460000D01*
X192055809Y-60412380D01*
X192151047Y-60412380D01*
X192293904Y-60460000D01*
X192341523Y-60507619D01*
X192770095Y-61412380D02*
X192770095Y-60412380D01*
X193341523Y-61412380D02*
X192912952Y-60840952D01*
X193341523Y-60412380D02*
X192770095Y-60983809D01*
X194293904Y-61412380D02*
X193722476Y-61412380D01*
X194008190Y-61412380D02*
X194008190Y-60412380D01*
X193912952Y-60555238D01*
X193817714Y-60650476D01*
X193722476Y-60698095D01*
X181349809Y-85277904D02*
X181349809Y-85925523D01*
X181387904Y-86001714D01*
X181426000Y-86039809D01*
X181502190Y-86077904D01*
X181654571Y-86077904D01*
X181730761Y-86039809D01*
X181768857Y-86001714D01*
X181806952Y-85925523D01*
X181806952Y-85277904D01*
X182149809Y-85849333D02*
X182530761Y-85849333D01*
X182073619Y-86077904D02*
X182340285Y-85277904D01*
X182606952Y-86077904D01*
X183330761Y-86077904D02*
X183064095Y-85696952D01*
X182873619Y-86077904D02*
X182873619Y-85277904D01*
X183178380Y-85277904D01*
X183254571Y-85316000D01*
X183292666Y-85354095D01*
X183330761Y-85430285D01*
X183330761Y-85544571D01*
X183292666Y-85620761D01*
X183254571Y-85658857D01*
X183178380Y-85696952D01*
X182873619Y-85696952D01*
X183559333Y-85277904D02*
X184016476Y-85277904D01*
X183787904Y-86077904D02*
X183787904Y-85277904D01*
X181635523Y-86565904D02*
X182092666Y-86565904D01*
X181864095Y-87365904D02*
X181864095Y-86565904D01*
X182283142Y-86565904D02*
X182816476Y-87365904D01*
X182816476Y-86565904D02*
X182283142Y-87365904D01*
X183083142Y-86642095D02*
X183121238Y-86604000D01*
X183197428Y-86565904D01*
X183387904Y-86565904D01*
X183464095Y-86604000D01*
X183502190Y-86642095D01*
X183540285Y-86718285D01*
X183540285Y-86794476D01*
X183502190Y-86908761D01*
X183045047Y-87365904D01*
X183540285Y-87365904D01*
X180578333Y-94384761D02*
X180721190Y-94432380D01*
X180959285Y-94432380D01*
X181054523Y-94384761D01*
X181102142Y-94337142D01*
X181149761Y-94241904D01*
X181149761Y-94146666D01*
X181102142Y-94051428D01*
X181054523Y-94003809D01*
X180959285Y-93956190D01*
X180768809Y-93908571D01*
X180673571Y-93860952D01*
X180625952Y-93813333D01*
X180578333Y-93718095D01*
X180578333Y-93622857D01*
X180625952Y-93527619D01*
X180673571Y-93480000D01*
X180768809Y-93432380D01*
X181006904Y-93432380D01*
X181149761Y-93480000D01*
X182149761Y-94337142D02*
X182102142Y-94384761D01*
X181959285Y-94432380D01*
X181864047Y-94432380D01*
X181721190Y-94384761D01*
X181625952Y-94289523D01*
X181578333Y-94194285D01*
X181530714Y-94003809D01*
X181530714Y-93860952D01*
X181578333Y-93670476D01*
X181625952Y-93575238D01*
X181721190Y-93480000D01*
X181864047Y-93432380D01*
X181959285Y-93432380D01*
X182102142Y-93480000D01*
X182149761Y-93527619D01*
X183054523Y-94432380D02*
X182578333Y-94432380D01*
X182578333Y-93432380D01*
X183340238Y-93527619D02*
X183387857Y-93480000D01*
X183483095Y-93432380D01*
X183721190Y-93432380D01*
X183816428Y-93480000D01*
X183864047Y-93527619D01*
X183911666Y-93622857D01*
X183911666Y-93718095D01*
X183864047Y-93860952D01*
X183292619Y-94432380D01*
X183911666Y-94432380D01*
X104013095Y-63127000D02*
X103917857Y-63079380D01*
X103775000Y-63079380D01*
X103632142Y-63127000D01*
X103536904Y-63222238D01*
X103489285Y-63317476D01*
X103441666Y-63507952D01*
X103441666Y-63650809D01*
X103489285Y-63841285D01*
X103536904Y-63936523D01*
X103632142Y-64031761D01*
X103775000Y-64079380D01*
X103870238Y-64079380D01*
X104013095Y-64031761D01*
X104060714Y-63984142D01*
X104060714Y-63650809D01*
X103870238Y-63650809D01*
X104489285Y-64079380D02*
X104489285Y-63079380D01*
X105060714Y-64079380D01*
X105060714Y-63079380D01*
X105536904Y-64079380D02*
X105536904Y-63079380D01*
X105775000Y-63079380D01*
X105917857Y-63127000D01*
X106013095Y-63222238D01*
X106060714Y-63317476D01*
X106108333Y-63507952D01*
X106108333Y-63650809D01*
X106060714Y-63841285D01*
X106013095Y-63936523D01*
X105917857Y-64031761D01*
X105775000Y-64079380D01*
X105536904Y-64079380D01*
X183300714Y-76128571D02*
X183634047Y-76128571D01*
X183776904Y-76652380D02*
X183300714Y-76652380D01*
X183300714Y-75652380D01*
X183776904Y-75652380D01*
X102259047Y-84399380D02*
X102259047Y-83399380D01*
X102640000Y-83399380D01*
X102735238Y-83447000D01*
X102782857Y-83494619D01*
X102830476Y-83589857D01*
X102830476Y-83732714D01*
X102782857Y-83827952D01*
X102735238Y-83875571D01*
X102640000Y-83923190D01*
X102259047Y-83923190D01*
X103163809Y-83399380D02*
X103401904Y-84399380D01*
X103592380Y-83685095D01*
X103782857Y-84399380D01*
X104020952Y-83399380D01*
X104401904Y-84399380D02*
X104401904Y-83399380D01*
X104735238Y-84113666D01*
X105068571Y-83399380D01*
X105068571Y-84399380D01*
X105449523Y-83399380D02*
X106068571Y-83399380D01*
X105735238Y-83780333D01*
X105878095Y-83780333D01*
X105973333Y-83827952D01*
X106020952Y-83875571D01*
X106068571Y-83970809D01*
X106068571Y-84208904D01*
X106020952Y-84304142D01*
X105973333Y-84351761D01*
X105878095Y-84399380D01*
X105592380Y-84399380D01*
X105497142Y-84351761D01*
X105449523Y-84304142D01*
X113792095Y-101227000D02*
X113696857Y-101179380D01*
X113554000Y-101179380D01*
X113411142Y-101227000D01*
X113315904Y-101322238D01*
X113268285Y-101417476D01*
X113220666Y-101607952D01*
X113220666Y-101750809D01*
X113268285Y-101941285D01*
X113315904Y-102036523D01*
X113411142Y-102131761D01*
X113554000Y-102179380D01*
X113649238Y-102179380D01*
X113792095Y-102131761D01*
X113839714Y-102084142D01*
X113839714Y-101750809D01*
X113649238Y-101750809D01*
X114268285Y-102179380D02*
X114268285Y-101179380D01*
X114839714Y-102179380D01*
X114839714Y-101179380D01*
X115315904Y-102179380D02*
X115315904Y-101179380D01*
X115554000Y-101179380D01*
X115696857Y-101227000D01*
X115792095Y-101322238D01*
X115839714Y-101417476D01*
X115887333Y-101607952D01*
X115887333Y-101750809D01*
X115839714Y-101941285D01*
X115792095Y-102036523D01*
X115696857Y-102131761D01*
X115554000Y-102179380D01*
X115315904Y-102179380D01*
X113554000Y-94559380D02*
X113554000Y-93559380D01*
X114220666Y-93559380D02*
X114411142Y-93559380D01*
X114506380Y-93607000D01*
X114601619Y-93702238D01*
X114649238Y-93892714D01*
X114649238Y-94226047D01*
X114601619Y-94416523D01*
X114506380Y-94511761D01*
X114411142Y-94559380D01*
X114220666Y-94559380D01*
X114125428Y-94511761D01*
X114030190Y-94416523D01*
X113982571Y-94226047D01*
X113982571Y-93892714D01*
X114030190Y-93702238D01*
X114125428Y-93607000D01*
X114220666Y-93559380D01*
X115030190Y-93654619D02*
X115077809Y-93607000D01*
X115173047Y-93559380D01*
X115411142Y-93559380D01*
X115506380Y-93607000D01*
X115554000Y-93654619D01*
X115601619Y-93749857D01*
X115601619Y-93845095D01*
X115554000Y-93987952D01*
X114982571Y-94559380D01*
X115601619Y-94559380D01*
X104029000Y-94559380D02*
X104029000Y-93559380D01*
X104695666Y-93559380D02*
X104886142Y-93559380D01*
X104981380Y-93607000D01*
X105076619Y-93702238D01*
X105124238Y-93892714D01*
X105124238Y-94226047D01*
X105076619Y-94416523D01*
X104981380Y-94511761D01*
X104886142Y-94559380D01*
X104695666Y-94559380D01*
X104600428Y-94511761D01*
X104505190Y-94416523D01*
X104457571Y-94226047D01*
X104457571Y-93892714D01*
X104505190Y-93702238D01*
X104600428Y-93607000D01*
X104695666Y-93559380D01*
X105457571Y-93559380D02*
X106076619Y-93559380D01*
X105743285Y-93940333D01*
X105886142Y-93940333D01*
X105981380Y-93987952D01*
X106029000Y-94035571D01*
X106076619Y-94130809D01*
X106076619Y-94368904D01*
X106029000Y-94464142D01*
X105981380Y-94511761D01*
X105886142Y-94559380D01*
X105600428Y-94559380D01*
X105505190Y-94511761D01*
X105457571Y-94464142D01*
X181356095Y-52840000D02*
X181260857Y-52792380D01*
X181118000Y-52792380D01*
X180975142Y-52840000D01*
X180879904Y-52935238D01*
X180832285Y-53030476D01*
X180784666Y-53220952D01*
X180784666Y-53363809D01*
X180832285Y-53554285D01*
X180879904Y-53649523D01*
X180975142Y-53744761D01*
X181118000Y-53792380D01*
X181213238Y-53792380D01*
X181356095Y-53744761D01*
X181403714Y-53697142D01*
X181403714Y-53363809D01*
X181213238Y-53363809D01*
X181832285Y-53792380D02*
X181832285Y-52792380D01*
X182403714Y-53792380D01*
X182403714Y-52792380D01*
X182879904Y-53792380D02*
X182879904Y-52792380D01*
X183118000Y-52792380D01*
X183260857Y-52840000D01*
X183356095Y-52935238D01*
X183403714Y-53030476D01*
X183451333Y-53220952D01*
X183451333Y-53363809D01*
X183403714Y-53554285D01*
X183356095Y-53649523D01*
X183260857Y-53744761D01*
X183118000Y-53792380D01*
X182879904Y-53792380D01*
X104013095Y-101227000D02*
X103917857Y-101179380D01*
X103775000Y-101179380D01*
X103632142Y-101227000D01*
X103536904Y-101322238D01*
X103489285Y-101417476D01*
X103441666Y-101607952D01*
X103441666Y-101750809D01*
X103489285Y-101941285D01*
X103536904Y-102036523D01*
X103632142Y-102131761D01*
X103775000Y-102179380D01*
X103870238Y-102179380D01*
X104013095Y-102131761D01*
X104060714Y-102084142D01*
X104060714Y-101750809D01*
X103870238Y-101750809D01*
X104489285Y-102179380D02*
X104489285Y-101179380D01*
X105060714Y-102179380D01*
X105060714Y-101179380D01*
X105536904Y-102179380D02*
X105536904Y-101179380D01*
X105775000Y-101179380D01*
X105917857Y-101227000D01*
X106013095Y-101322238D01*
X106060714Y-101417476D01*
X106108333Y-101607952D01*
X106108333Y-101750809D01*
X106060714Y-101941285D01*
X106013095Y-102036523D01*
X105917857Y-102131761D01*
X105775000Y-102179380D01*
X105536904Y-102179380D01*
X191055809Y-63952380D02*
X191055809Y-62952380D01*
X191722476Y-62952380D02*
X191912952Y-62952380D01*
X192008190Y-63000000D01*
X192103428Y-63095238D01*
X192151047Y-63285714D01*
X192151047Y-63619047D01*
X192103428Y-63809523D01*
X192008190Y-63904761D01*
X191912952Y-63952380D01*
X191722476Y-63952380D01*
X191627238Y-63904761D01*
X191532000Y-63809523D01*
X191484380Y-63619047D01*
X191484380Y-63285714D01*
X191532000Y-63095238D01*
X191627238Y-63000000D01*
X191722476Y-62952380D01*
X193103428Y-63952380D02*
X192532000Y-63952380D01*
X192817714Y-63952380D02*
X192817714Y-62952380D01*
X192722476Y-63095238D01*
X192627238Y-63190476D01*
X192532000Y-63238095D01*
X194055809Y-63952380D02*
X193484380Y-63952380D01*
X193770095Y-63952380D02*
X193770095Y-62952380D01*
X193674857Y-63095238D01*
X193579619Y-63190476D01*
X193484380Y-63238095D01*
D12*
X147455428Y-53383571D02*
X146598285Y-53383571D01*
X147026857Y-53383571D02*
X147026857Y-51883571D01*
X146884000Y-52097857D01*
X146741142Y-52240714D01*
X146598285Y-52312142D01*
X148384000Y-51883571D02*
X148526857Y-51883571D01*
X148669714Y-51955000D01*
X148741142Y-52026428D01*
X148812571Y-52169285D01*
X148884000Y-52455000D01*
X148884000Y-52812142D01*
X148812571Y-53097857D01*
X148741142Y-53240714D01*
X148669714Y-53312142D01*
X148526857Y-53383571D01*
X148384000Y-53383571D01*
X148241142Y-53312142D01*
X148169714Y-53240714D01*
X148098285Y-53097857D01*
X148026857Y-52812142D01*
X148026857Y-52455000D01*
X148098285Y-52169285D01*
X148169714Y-52026428D01*
X148241142Y-51955000D01*
X148384000Y-51883571D01*
X150598285Y-51812142D02*
X149312571Y-53740714D01*
X151026857Y-52026428D02*
X151098285Y-51955000D01*
X151241142Y-51883571D01*
X151598285Y-51883571D01*
X151741142Y-51955000D01*
X151812571Y-52026428D01*
X151884000Y-52169285D01*
X151884000Y-52312142D01*
X151812571Y-52526428D01*
X150955428Y-53383571D01*
X151884000Y-53383571D01*
X152812571Y-51883571D02*
X152955428Y-51883571D01*
X153098285Y-51955000D01*
X153169714Y-52026428D01*
X153241142Y-52169285D01*
X153312571Y-52455000D01*
X153312571Y-52812142D01*
X153241142Y-53097857D01*
X153169714Y-53240714D01*
X153098285Y-53312142D01*
X152955428Y-53383571D01*
X152812571Y-53383571D01*
X152669714Y-53312142D01*
X152598285Y-53240714D01*
X152526857Y-53097857D01*
X152455428Y-52812142D01*
X152455428Y-52455000D01*
X152526857Y-52169285D01*
X152598285Y-52026428D01*
X152669714Y-51955000D01*
X152812571Y-51883571D01*
X153884000Y-52026428D02*
X153955428Y-51955000D01*
X154098285Y-51883571D01*
X154455428Y-51883571D01*
X154598285Y-51955000D01*
X154669714Y-52026428D01*
X154741142Y-52169285D01*
X154741142Y-52312142D01*
X154669714Y-52526428D01*
X153812571Y-53383571D01*
X154741142Y-53383571D01*
X155669714Y-51883571D02*
X155812571Y-51883571D01*
X155955428Y-51955000D01*
X156026857Y-52026428D01*
X156098285Y-52169285D01*
X156169714Y-52455000D01*
X156169714Y-52812142D01*
X156098285Y-53097857D01*
X156026857Y-53240714D01*
X155955428Y-53312142D01*
X155812571Y-53383571D01*
X155669714Y-53383571D01*
X155526857Y-53312142D01*
X155455428Y-53240714D01*
X155384000Y-53097857D01*
X155312571Y-52812142D01*
X155312571Y-52455000D01*
X155384000Y-52169285D01*
X155455428Y-52026428D01*
X155526857Y-51955000D01*
X155669714Y-51883571D01*
D10*
X181268809Y-56332380D02*
X181268809Y-55332380D01*
X182316428Y-56237142D02*
X182268809Y-56284761D01*
X182125952Y-56332380D01*
X182030714Y-56332380D01*
X181887857Y-56284761D01*
X181792619Y-56189523D01*
X181745000Y-56094285D01*
X181697380Y-55903809D01*
X181697380Y-55760952D01*
X181745000Y-55570476D01*
X181792619Y-55475238D01*
X181887857Y-55380000D01*
X182030714Y-55332380D01*
X182125952Y-55332380D01*
X182268809Y-55380000D01*
X182316428Y-55427619D01*
X182697380Y-55427619D02*
X182745000Y-55380000D01*
X182840238Y-55332380D01*
X183078333Y-55332380D01*
X183173571Y-55380000D01*
X183221190Y-55427619D01*
X183268809Y-55522857D01*
X183268809Y-55618095D01*
X183221190Y-55760952D01*
X182649761Y-56332380D01*
X183268809Y-56332380D01*
X190968523Y-91844761D02*
X191111380Y-91892380D01*
X191349476Y-91892380D01*
X191444714Y-91844761D01*
X191492333Y-91797142D01*
X191539952Y-91701904D01*
X191539952Y-91606666D01*
X191492333Y-91511428D01*
X191444714Y-91463809D01*
X191349476Y-91416190D01*
X191159000Y-91368571D01*
X191063761Y-91320952D01*
X191016142Y-91273333D01*
X190968523Y-91178095D01*
X190968523Y-91082857D01*
X191016142Y-90987619D01*
X191063761Y-90940000D01*
X191159000Y-90892380D01*
X191397095Y-90892380D01*
X191539952Y-90940000D01*
X191968523Y-91892380D02*
X191968523Y-90892380D01*
X192206619Y-90892380D01*
X192349476Y-90940000D01*
X192444714Y-91035238D01*
X192492333Y-91130476D01*
X192539952Y-91320952D01*
X192539952Y-91463809D01*
X192492333Y-91654285D01*
X192444714Y-91749523D01*
X192349476Y-91844761D01*
X192206619Y-91892380D01*
X191968523Y-91892380D01*
X192920904Y-91606666D02*
X193397095Y-91606666D01*
X192825666Y-91892380D02*
X193159000Y-90892380D01*
X193492333Y-91892380D01*
X194349476Y-91892380D02*
X193778047Y-91892380D01*
X194063761Y-91892380D02*
X194063761Y-90892380D01*
X193968523Y-91035238D01*
X193873285Y-91130476D01*
X193778047Y-91178095D01*
X190968523Y-96924761D02*
X191111380Y-96972380D01*
X191349476Y-96972380D01*
X191444714Y-96924761D01*
X191492333Y-96877142D01*
X191539952Y-96781904D01*
X191539952Y-96686666D01*
X191492333Y-96591428D01*
X191444714Y-96543809D01*
X191349476Y-96496190D01*
X191159000Y-96448571D01*
X191063761Y-96400952D01*
X191016142Y-96353333D01*
X190968523Y-96258095D01*
X190968523Y-96162857D01*
X191016142Y-96067619D01*
X191063761Y-96020000D01*
X191159000Y-95972380D01*
X191397095Y-95972380D01*
X191539952Y-96020000D01*
X191968523Y-96972380D02*
X191968523Y-95972380D01*
X192206619Y-95972380D01*
X192349476Y-96020000D01*
X192444714Y-96115238D01*
X192492333Y-96210476D01*
X192539952Y-96400952D01*
X192539952Y-96543809D01*
X192492333Y-96734285D01*
X192444714Y-96829523D01*
X192349476Y-96924761D01*
X192206619Y-96972380D01*
X191968523Y-96972380D01*
X192920904Y-96686666D02*
X193397095Y-96686666D01*
X192825666Y-96972380D02*
X193159000Y-95972380D01*
X193492333Y-96972380D01*
X193730428Y-95972380D02*
X194349476Y-95972380D01*
X194016142Y-96353333D01*
X194159000Y-96353333D01*
X194254238Y-96400952D01*
X194301857Y-96448571D01*
X194349476Y-96543809D01*
X194349476Y-96781904D01*
X194301857Y-96877142D01*
X194254238Y-96924761D01*
X194159000Y-96972380D01*
X193873285Y-96972380D01*
X193778047Y-96924761D01*
X193730428Y-96877142D01*
X181880000Y-99766380D02*
X181880000Y-98766380D01*
X182546666Y-98766380D02*
X182737142Y-98766380D01*
X182832380Y-98814000D01*
X182927619Y-98909238D01*
X182975238Y-99099714D01*
X182975238Y-99433047D01*
X182927619Y-99623523D01*
X182832380Y-99718761D01*
X182737142Y-99766380D01*
X182546666Y-99766380D01*
X182451428Y-99718761D01*
X182356190Y-99623523D01*
X182308571Y-99433047D01*
X182308571Y-99099714D01*
X182356190Y-98909238D01*
X182451428Y-98814000D01*
X182546666Y-98766380D01*
X183451428Y-99766380D02*
X183641904Y-99766380D01*
X183737142Y-99718761D01*
X183784761Y-99671142D01*
X183880000Y-99528285D01*
X183927619Y-99337809D01*
X183927619Y-98956857D01*
X183880000Y-98861619D01*
X183832380Y-98814000D01*
X183737142Y-98766380D01*
X183546666Y-98766380D01*
X183451428Y-98814000D01*
X183403809Y-98861619D01*
X183356190Y-98956857D01*
X183356190Y-99194952D01*
X183403809Y-99290190D01*
X183451428Y-99337809D01*
X183546666Y-99385428D01*
X183737142Y-99385428D01*
X183832380Y-99337809D01*
X183880000Y-99290190D01*
X183927619Y-99194952D01*
X180745000Y-61364761D02*
X180887857Y-61412380D01*
X181125952Y-61412380D01*
X181221190Y-61364761D01*
X181268809Y-61317142D01*
X181316428Y-61221904D01*
X181316428Y-61126666D01*
X181268809Y-61031428D01*
X181221190Y-60983809D01*
X181125952Y-60936190D01*
X180935476Y-60888571D01*
X180840238Y-60840952D01*
X180792619Y-60793333D01*
X180745000Y-60698095D01*
X180745000Y-60602857D01*
X180792619Y-60507619D01*
X180840238Y-60460000D01*
X180935476Y-60412380D01*
X181173571Y-60412380D01*
X181316428Y-60460000D01*
X181745000Y-61412380D02*
X181745000Y-60412380D01*
X181983095Y-60412380D01*
X182125952Y-60460000D01*
X182221190Y-60555238D01*
X182268809Y-60650476D01*
X182316428Y-60840952D01*
X182316428Y-60983809D01*
X182268809Y-61174285D01*
X182221190Y-61269523D01*
X182125952Y-61364761D01*
X181983095Y-61412380D01*
X181745000Y-61412380D01*
X182745000Y-61412380D02*
X182745000Y-60412380D01*
X183745000Y-61412380D02*
X183173571Y-61412380D01*
X183459285Y-61412380D02*
X183459285Y-60412380D01*
X183364047Y-60555238D01*
X183268809Y-60650476D01*
X183173571Y-60698095D01*
X191389095Y-52840000D02*
X191293857Y-52792380D01*
X191151000Y-52792380D01*
X191008142Y-52840000D01*
X190912904Y-52935238D01*
X190865285Y-53030476D01*
X190817666Y-53220952D01*
X190817666Y-53363809D01*
X190865285Y-53554285D01*
X190912904Y-53649523D01*
X191008142Y-53744761D01*
X191151000Y-53792380D01*
X191246238Y-53792380D01*
X191389095Y-53744761D01*
X191436714Y-53697142D01*
X191436714Y-53363809D01*
X191246238Y-53363809D01*
X191865285Y-53792380D02*
X191865285Y-52792380D01*
X192436714Y-53792380D01*
X192436714Y-52792380D01*
X192912904Y-53792380D02*
X192912904Y-52792380D01*
X193151000Y-52792380D01*
X193293857Y-52840000D01*
X193389095Y-52935238D01*
X193436714Y-53030476D01*
X193484333Y-53220952D01*
X193484333Y-53363809D01*
X193436714Y-53554285D01*
X193389095Y-53649523D01*
X193293857Y-53744761D01*
X193151000Y-53792380D01*
X192912904Y-53792380D01*
X180205285Y-63904761D02*
X180348142Y-63952380D01*
X180586238Y-63952380D01*
X180681476Y-63904761D01*
X180729095Y-63857142D01*
X180776714Y-63761904D01*
X180776714Y-63666666D01*
X180729095Y-63571428D01*
X180681476Y-63523809D01*
X180586238Y-63476190D01*
X180395761Y-63428571D01*
X180300523Y-63380952D01*
X180252904Y-63333333D01*
X180205285Y-63238095D01*
X180205285Y-63142857D01*
X180252904Y-63047619D01*
X180300523Y-63000000D01*
X180395761Y-62952380D01*
X180633857Y-62952380D01*
X180776714Y-63000000D01*
X181205285Y-63952380D02*
X181205285Y-62952380D01*
X181443380Y-62952380D01*
X181586238Y-63000000D01*
X181681476Y-63095238D01*
X181729095Y-63190476D01*
X181776714Y-63380952D01*
X181776714Y-63523809D01*
X181729095Y-63714285D01*
X181681476Y-63809523D01*
X181586238Y-63904761D01*
X181443380Y-63952380D01*
X181205285Y-63952380D01*
X182395761Y-62952380D02*
X182586238Y-62952380D01*
X182681476Y-63000000D01*
X182776714Y-63095238D01*
X182824333Y-63285714D01*
X182824333Y-63619047D01*
X182776714Y-63809523D01*
X182681476Y-63904761D01*
X182586238Y-63952380D01*
X182395761Y-63952380D01*
X182300523Y-63904761D01*
X182205285Y-63809523D01*
X182157666Y-63619047D01*
X182157666Y-63285714D01*
X182205285Y-63095238D01*
X182300523Y-63000000D01*
X182395761Y-62952380D01*
X183776714Y-63952380D02*
X183205285Y-63952380D01*
X183491000Y-63952380D02*
X183491000Y-62952380D01*
X183395761Y-63095238D01*
X183300523Y-63190476D01*
X183205285Y-63238095D01*
X113792095Y-78367000D02*
X113696857Y-78319380D01*
X113554000Y-78319380D01*
X113411142Y-78367000D01*
X113315904Y-78462238D01*
X113268285Y-78557476D01*
X113220666Y-78747952D01*
X113220666Y-78890809D01*
X113268285Y-79081285D01*
X113315904Y-79176523D01*
X113411142Y-79271761D01*
X113554000Y-79319380D01*
X113649238Y-79319380D01*
X113792095Y-79271761D01*
X113839714Y-79224142D01*
X113839714Y-78890809D01*
X113649238Y-78890809D01*
X114268285Y-79319380D02*
X114268285Y-78319380D01*
X114839714Y-79319380D01*
X114839714Y-78319380D01*
X115315904Y-79319380D02*
X115315904Y-78319380D01*
X115554000Y-78319380D01*
X115696857Y-78367000D01*
X115792095Y-78462238D01*
X115839714Y-78557476D01*
X115887333Y-78747952D01*
X115887333Y-78890809D01*
X115839714Y-79081285D01*
X115792095Y-79176523D01*
X115696857Y-79271761D01*
X115554000Y-79319380D01*
X115315904Y-79319380D01*
X181737095Y-101100000D02*
X181641857Y-101052380D01*
X181499000Y-101052380D01*
X181356142Y-101100000D01*
X181260904Y-101195238D01*
X181213285Y-101290476D01*
X181165666Y-101480952D01*
X181165666Y-101623809D01*
X181213285Y-101814285D01*
X181260904Y-101909523D01*
X181356142Y-102004761D01*
X181499000Y-102052380D01*
X181594238Y-102052380D01*
X181737095Y-102004761D01*
X181784714Y-101957142D01*
X181784714Y-101623809D01*
X181594238Y-101623809D01*
X182213285Y-102052380D02*
X182213285Y-101052380D01*
X182784714Y-102052380D01*
X182784714Y-101052380D01*
X183260904Y-102052380D02*
X183260904Y-101052380D01*
X183499000Y-101052380D01*
X183641857Y-101100000D01*
X183737095Y-101195238D01*
X183784714Y-101290476D01*
X183832333Y-101480952D01*
X183832333Y-101623809D01*
X183784714Y-101814285D01*
X183737095Y-101909523D01*
X183641857Y-102004761D01*
X183499000Y-102052380D01*
X183260904Y-102052380D01*
X102481285Y-71318428D02*
X103243190Y-71318428D01*
X102862238Y-71699380D02*
X102862238Y-70937476D01*
X104195571Y-70699380D02*
X103719380Y-70699380D01*
X103671761Y-71175571D01*
X103719380Y-71127952D01*
X103814619Y-71080333D01*
X104052714Y-71080333D01*
X104147952Y-71127952D01*
X104195571Y-71175571D01*
X104243190Y-71270809D01*
X104243190Y-71508904D01*
X104195571Y-71604142D01*
X104147952Y-71651761D01*
X104052714Y-71699380D01*
X103814619Y-71699380D01*
X103719380Y-71651761D01*
X103671761Y-71604142D01*
X104528904Y-70699380D02*
X104862238Y-71699380D01*
X105195571Y-70699380D01*
X105528904Y-71699380D02*
X105528904Y-70699380D01*
X105767000Y-70699380D01*
X105909857Y-70747000D01*
X106005095Y-70842238D01*
X106052714Y-70937476D01*
X106100333Y-71127952D01*
X106100333Y-71270809D01*
X106052714Y-71461285D01*
X106005095Y-71556523D01*
X105909857Y-71651761D01*
X105767000Y-71699380D01*
X105528904Y-71699380D01*
X113554000Y-97099380D02*
X113554000Y-96099380D01*
X114220666Y-96099380D02*
X114411142Y-96099380D01*
X114506380Y-96147000D01*
X114601619Y-96242238D01*
X114649238Y-96432714D01*
X114649238Y-96766047D01*
X114601619Y-96956523D01*
X114506380Y-97051761D01*
X114411142Y-97099380D01*
X114220666Y-97099380D01*
X114125428Y-97051761D01*
X114030190Y-96956523D01*
X113982571Y-96766047D01*
X113982571Y-96432714D01*
X114030190Y-96242238D01*
X114125428Y-96147000D01*
X114220666Y-96099380D01*
X115506380Y-96432714D02*
X115506380Y-97099380D01*
X115268285Y-96051761D02*
X115030190Y-96766047D01*
X115649238Y-96766047D01*
X113308047Y-84399380D02*
X113308047Y-83399380D01*
X113689000Y-83399380D01*
X113784238Y-83447000D01*
X113831857Y-83494619D01*
X113879476Y-83589857D01*
X113879476Y-83732714D01*
X113831857Y-83827952D01*
X113784238Y-83875571D01*
X113689000Y-83923190D01*
X113308047Y-83923190D01*
X114212809Y-83399380D02*
X114450904Y-84399380D01*
X114641380Y-83685095D01*
X114831857Y-84399380D01*
X115069952Y-83399380D01*
X115450904Y-84399380D02*
X115450904Y-83399380D01*
X115784238Y-84113666D01*
X116117571Y-83399380D01*
X116117571Y-84399380D01*
X116546142Y-83494619D02*
X116593761Y-83447000D01*
X116689000Y-83399380D01*
X116927095Y-83399380D01*
X117022333Y-83447000D01*
X117069952Y-83494619D01*
X117117571Y-83589857D01*
X117117571Y-83685095D01*
X117069952Y-83827952D01*
X116498523Y-84399380D01*
X117117571Y-84399380D01*
X182268904Y-74112380D02*
X182268904Y-73112380D01*
X182507000Y-73112380D01*
X182649857Y-73160000D01*
X182745095Y-73255238D01*
X182792714Y-73350476D01*
X182840333Y-73540952D01*
X182840333Y-73683809D01*
X182792714Y-73874285D01*
X182745095Y-73969523D01*
X182649857Y-74064761D01*
X182507000Y-74112380D01*
X182268904Y-74112380D01*
X183697476Y-73112380D02*
X183507000Y-73112380D01*
X183411761Y-73160000D01*
X183364142Y-73207619D01*
X183268904Y-73350476D01*
X183221285Y-73540952D01*
X183221285Y-73921904D01*
X183268904Y-74017142D01*
X183316523Y-74064761D01*
X183411761Y-74112380D01*
X183602238Y-74112380D01*
X183697476Y-74064761D01*
X183745095Y-74017142D01*
X183792714Y-73921904D01*
X183792714Y-73683809D01*
X183745095Y-73588571D01*
X183697476Y-73540952D01*
X183602238Y-73493333D01*
X183411761Y-73493333D01*
X183316523Y-73540952D01*
X183268904Y-73588571D01*
X183221285Y-73683809D01*
X104013095Y-73287000D02*
X103917857Y-73239380D01*
X103775000Y-73239380D01*
X103632142Y-73287000D01*
X103536904Y-73382238D01*
X103489285Y-73477476D01*
X103441666Y-73667952D01*
X103441666Y-73810809D01*
X103489285Y-74001285D01*
X103536904Y-74096523D01*
X103632142Y-74191761D01*
X103775000Y-74239380D01*
X103870238Y-74239380D01*
X104013095Y-74191761D01*
X104060714Y-74144142D01*
X104060714Y-73810809D01*
X103870238Y-73810809D01*
X104489285Y-74239380D02*
X104489285Y-73239380D01*
X105060714Y-74239380D01*
X105060714Y-73239380D01*
X105536904Y-74239380D02*
X105536904Y-73239380D01*
X105775000Y-73239380D01*
X105917857Y-73287000D01*
X106013095Y-73382238D01*
X106060714Y-73477476D01*
X106108333Y-73667952D01*
X106108333Y-73810809D01*
X106060714Y-74001285D01*
X106013095Y-74096523D01*
X105917857Y-74191761D01*
X105775000Y-74239380D01*
X105536904Y-74239380D01*
X182618095Y-79192380D02*
X182284761Y-78716190D01*
X182046666Y-79192380D02*
X182046666Y-78192380D01*
X182427619Y-78192380D01*
X182522857Y-78240000D01*
X182570476Y-78287619D01*
X182618095Y-78382857D01*
X182618095Y-78525714D01*
X182570476Y-78620952D01*
X182522857Y-78668571D01*
X182427619Y-78716190D01*
X182046666Y-78716190D01*
X182951428Y-78192380D02*
X183189523Y-79192380D01*
X183380000Y-78478095D01*
X183570476Y-79192380D01*
X183808571Y-78192380D01*
X191031904Y-71572380D02*
X191031904Y-70572380D01*
X191270000Y-70572380D01*
X191412857Y-70620000D01*
X191508095Y-70715238D01*
X191555714Y-70810476D01*
X191603333Y-71000952D01*
X191603333Y-71143809D01*
X191555714Y-71334285D01*
X191508095Y-71429523D01*
X191412857Y-71524761D01*
X191270000Y-71572380D01*
X191031904Y-71572380D01*
X191936666Y-70572380D02*
X192555714Y-70572380D01*
X192222380Y-70953333D01*
X192365238Y-70953333D01*
X192460476Y-71000952D01*
X192508095Y-71048571D01*
X192555714Y-71143809D01*
X192555714Y-71381904D01*
X192508095Y-71477142D01*
X192460476Y-71524761D01*
X192365238Y-71572380D01*
X192079523Y-71572380D01*
X191984285Y-71524761D01*
X191936666Y-71477142D01*
X113554000Y-92019380D02*
X113554000Y-91019380D01*
X114220666Y-91019380D02*
X114411142Y-91019380D01*
X114506380Y-91067000D01*
X114601619Y-91162238D01*
X114649238Y-91352714D01*
X114649238Y-91686047D01*
X114601619Y-91876523D01*
X114506380Y-91971761D01*
X114411142Y-92019380D01*
X114220666Y-92019380D01*
X114125428Y-91971761D01*
X114030190Y-91876523D01*
X113982571Y-91686047D01*
X113982571Y-91352714D01*
X114030190Y-91162238D01*
X114125428Y-91067000D01*
X114220666Y-91019380D01*
X115268285Y-91019380D02*
X115363523Y-91019380D01*
X115458761Y-91067000D01*
X115506380Y-91114619D01*
X115554000Y-91209857D01*
X115601619Y-91400333D01*
X115601619Y-91638428D01*
X115554000Y-91828904D01*
X115506380Y-91924142D01*
X115458761Y-91971761D01*
X115363523Y-92019380D01*
X115268285Y-92019380D01*
X115173047Y-91971761D01*
X115125428Y-91924142D01*
X115077809Y-91828904D01*
X115030190Y-91638428D01*
X115030190Y-91400333D01*
X115077809Y-91209857D01*
X115125428Y-91114619D01*
X115173047Y-91067000D01*
X115268285Y-91019380D01*
X104013095Y-58047000D02*
X103917857Y-57999380D01*
X103775000Y-57999380D01*
X103632142Y-58047000D01*
X103536904Y-58142238D01*
X103489285Y-58237476D01*
X103441666Y-58427952D01*
X103441666Y-58570809D01*
X103489285Y-58761285D01*
X103536904Y-58856523D01*
X103632142Y-58951761D01*
X103775000Y-58999380D01*
X103870238Y-58999380D01*
X104013095Y-58951761D01*
X104060714Y-58904142D01*
X104060714Y-58570809D01*
X103870238Y-58570809D01*
X104489285Y-58999380D02*
X104489285Y-57999380D01*
X105060714Y-58999380D01*
X105060714Y-57999380D01*
X105536904Y-58999380D02*
X105536904Y-57999380D01*
X105775000Y-57999380D01*
X105917857Y-58047000D01*
X106013095Y-58142238D01*
X106060714Y-58237476D01*
X106108333Y-58427952D01*
X106108333Y-58570809D01*
X106060714Y-58761285D01*
X106013095Y-58856523D01*
X105917857Y-58951761D01*
X105775000Y-58999380D01*
X105536904Y-58999380D01*
X103267047Y-86939380D02*
X103267047Y-85939380D01*
X103743238Y-86939380D02*
X103743238Y-85939380D01*
X104314666Y-86939380D01*
X104314666Y-85939380D01*
X104648000Y-85939380D02*
X105219428Y-85939380D01*
X104933714Y-86939380D02*
X104933714Y-85939380D01*
X105743238Y-85939380D02*
X105838476Y-85939380D01*
X105933714Y-85987000D01*
X105981333Y-86034619D01*
X106028952Y-86129857D01*
X106076571Y-86320333D01*
X106076571Y-86558428D01*
X106028952Y-86748904D01*
X105981333Y-86844142D01*
X105933714Y-86891761D01*
X105838476Y-86939380D01*
X105743238Y-86939380D01*
X105648000Y-86891761D01*
X105600380Y-86844142D01*
X105552761Y-86748904D01*
X105505142Y-86558428D01*
X105505142Y-86320333D01*
X105552761Y-86129857D01*
X105600380Y-86034619D01*
X105648000Y-85987000D01*
X105743238Y-85939380D01*
D13*
X191255809Y-87817904D02*
X191255809Y-88465523D01*
X191293904Y-88541714D01*
X191332000Y-88579809D01*
X191408190Y-88617904D01*
X191560571Y-88617904D01*
X191636761Y-88579809D01*
X191674857Y-88541714D01*
X191712952Y-88465523D01*
X191712952Y-87817904D01*
X192055809Y-88389333D02*
X192436761Y-88389333D01*
X191979619Y-88617904D02*
X192246285Y-87817904D01*
X192512952Y-88617904D01*
X193236761Y-88617904D02*
X192970095Y-88236952D01*
X192779619Y-88617904D02*
X192779619Y-87817904D01*
X193084380Y-87817904D01*
X193160571Y-87856000D01*
X193198666Y-87894095D01*
X193236761Y-87970285D01*
X193236761Y-88084571D01*
X193198666Y-88160761D01*
X193160571Y-88198857D01*
X193084380Y-88236952D01*
X192779619Y-88236952D01*
X193465333Y-87817904D02*
X193922476Y-87817904D01*
X193693904Y-88617904D02*
X193693904Y-87817904D01*
X192017714Y-89905904D02*
X191751047Y-89524952D01*
X191560571Y-89905904D02*
X191560571Y-89105904D01*
X191865333Y-89105904D01*
X191941523Y-89144000D01*
X191979619Y-89182095D01*
X192017714Y-89258285D01*
X192017714Y-89372571D01*
X191979619Y-89448761D01*
X191941523Y-89486857D01*
X191865333Y-89524952D01*
X191560571Y-89524952D01*
X192284380Y-89105904D02*
X192817714Y-89905904D01*
X192817714Y-89105904D02*
X192284380Y-89905904D01*
X193046285Y-89105904D02*
X193541523Y-89105904D01*
X193274857Y-89410666D01*
X193389142Y-89410666D01*
X193465333Y-89448761D01*
X193503428Y-89486857D01*
X193541523Y-89563047D01*
X193541523Y-89753523D01*
X193503428Y-89829714D01*
X193465333Y-89867809D01*
X193389142Y-89905904D01*
X193160571Y-89905904D01*
X193084380Y-89867809D01*
X193046285Y-89829714D01*
D10*
X191055809Y-66492380D02*
X191055809Y-65492380D01*
X191722476Y-65492380D02*
X191912952Y-65492380D01*
X192008190Y-65540000D01*
X192103428Y-65635238D01*
X192151047Y-65825714D01*
X192151047Y-66159047D01*
X192103428Y-66349523D01*
X192008190Y-66444761D01*
X191912952Y-66492380D01*
X191722476Y-66492380D01*
X191627238Y-66444761D01*
X191532000Y-66349523D01*
X191484380Y-66159047D01*
X191484380Y-65825714D01*
X191532000Y-65635238D01*
X191627238Y-65540000D01*
X191722476Y-65492380D01*
X193103428Y-66492380D02*
X192532000Y-66492380D01*
X192817714Y-66492380D02*
X192817714Y-65492380D01*
X192722476Y-65635238D01*
X192627238Y-65730476D01*
X192532000Y-65778095D01*
X193722476Y-65492380D02*
X193817714Y-65492380D01*
X193912952Y-65540000D01*
X193960571Y-65587619D01*
X194008190Y-65682857D01*
X194055809Y-65873333D01*
X194055809Y-66111428D01*
X194008190Y-66301904D01*
X193960571Y-66397142D01*
X193912952Y-66444761D01*
X193817714Y-66492380D01*
X193722476Y-66492380D01*
X193627238Y-66444761D01*
X193579619Y-66397142D01*
X193532000Y-66301904D01*
X193484380Y-66111428D01*
X193484380Y-65873333D01*
X193532000Y-65682857D01*
X193579619Y-65587619D01*
X193627238Y-65540000D01*
X193722476Y-65492380D01*
X102552714Y-66238428D02*
X103314619Y-66238428D01*
X102933666Y-66619380D02*
X102933666Y-65857476D01*
X104267000Y-65619380D02*
X103790809Y-65619380D01*
X103743190Y-66095571D01*
X103790809Y-66047952D01*
X103886047Y-66000333D01*
X104124142Y-66000333D01*
X104219380Y-66047952D01*
X104267000Y-66095571D01*
X104314619Y-66190809D01*
X104314619Y-66428904D01*
X104267000Y-66524142D01*
X104219380Y-66571761D01*
X104124142Y-66619380D01*
X103886047Y-66619380D01*
X103790809Y-66571761D01*
X103743190Y-66524142D01*
X104600333Y-65619380D02*
X104933666Y-66619380D01*
X105267000Y-65619380D01*
X105552714Y-66333666D02*
X106028904Y-66333666D01*
X105457476Y-66619380D02*
X105790809Y-65619380D01*
X106124142Y-66619380D01*
X182268904Y-71572380D02*
X182268904Y-70572380D01*
X182507000Y-70572380D01*
X182649857Y-70620000D01*
X182745095Y-70715238D01*
X182792714Y-70810476D01*
X182840333Y-71000952D01*
X182840333Y-71143809D01*
X182792714Y-71334285D01*
X182745095Y-71429523D01*
X182649857Y-71524761D01*
X182507000Y-71572380D01*
X182268904Y-71572380D01*
X183697476Y-70905714D02*
X183697476Y-71572380D01*
X183459380Y-70524761D02*
X183221285Y-71239047D01*
X183840333Y-71239047D01*
X182268904Y-66492380D02*
X182268904Y-65492380D01*
X182507000Y-65492380D01*
X182649857Y-65540000D01*
X182745095Y-65635238D01*
X182792714Y-65730476D01*
X182840333Y-65920952D01*
X182840333Y-66063809D01*
X182792714Y-66254285D01*
X182745095Y-66349523D01*
X182649857Y-66444761D01*
X182507000Y-66492380D01*
X182268904Y-66492380D01*
X183459380Y-65492380D02*
X183554619Y-65492380D01*
X183649857Y-65540000D01*
X183697476Y-65587619D01*
X183745095Y-65682857D01*
X183792714Y-65873333D01*
X183792714Y-66111428D01*
X183745095Y-66301904D01*
X183697476Y-66397142D01*
X183649857Y-66444761D01*
X183554619Y-66492380D01*
X183459380Y-66492380D01*
X183364142Y-66444761D01*
X183316523Y-66397142D01*
X183268904Y-66301904D01*
X183221285Y-66111428D01*
X183221285Y-65873333D01*
X183268904Y-65682857D01*
X183316523Y-65587619D01*
X183364142Y-65540000D01*
X183459380Y-65492380D01*
X104013095Y-53094000D02*
X103917857Y-53046380D01*
X103775000Y-53046380D01*
X103632142Y-53094000D01*
X103536904Y-53189238D01*
X103489285Y-53284476D01*
X103441666Y-53474952D01*
X103441666Y-53617809D01*
X103489285Y-53808285D01*
X103536904Y-53903523D01*
X103632142Y-53998761D01*
X103775000Y-54046380D01*
X103870238Y-54046380D01*
X104013095Y-53998761D01*
X104060714Y-53951142D01*
X104060714Y-53617809D01*
X103870238Y-53617809D01*
X104489285Y-54046380D02*
X104489285Y-53046380D01*
X105060714Y-54046380D01*
X105060714Y-53046380D01*
X105536904Y-54046380D02*
X105536904Y-53046380D01*
X105775000Y-53046380D01*
X105917857Y-53094000D01*
X106013095Y-53189238D01*
X106060714Y-53284476D01*
X106108333Y-53474952D01*
X106108333Y-53617809D01*
X106060714Y-53808285D01*
X106013095Y-53903523D01*
X105917857Y-53998761D01*
X105775000Y-54046380D01*
X105536904Y-54046380D01*
X104029000Y-97099380D02*
X104029000Y-96099380D01*
X104695666Y-96099380D02*
X104886142Y-96099380D01*
X104981380Y-96147000D01*
X105076619Y-96242238D01*
X105124238Y-96432714D01*
X105124238Y-96766047D01*
X105076619Y-96956523D01*
X104981380Y-97051761D01*
X104886142Y-97099380D01*
X104695666Y-97099380D01*
X104600428Y-97051761D01*
X104505190Y-96956523D01*
X104457571Y-96766047D01*
X104457571Y-96432714D01*
X104505190Y-96242238D01*
X104600428Y-96147000D01*
X104695666Y-96099380D01*
X106029000Y-96099380D02*
X105552809Y-96099380D01*
X105505190Y-96575571D01*
X105552809Y-96527952D01*
X105648047Y-96480333D01*
X105886142Y-96480333D01*
X105981380Y-96527952D01*
X106029000Y-96575571D01*
X106076619Y-96670809D01*
X106076619Y-96908904D01*
X106029000Y-97004142D01*
X105981380Y-97051761D01*
X105886142Y-97099380D01*
X105648047Y-97099380D01*
X105552809Y-97051761D01*
X105505190Y-97004142D01*
%TO.C,J103*%
X114538285Y-130262380D02*
X114538285Y-130976666D01*
X114490666Y-131119523D01*
X114395428Y-131214761D01*
X114252571Y-131262380D01*
X114157333Y-131262380D01*
X115538285Y-131262380D02*
X114966857Y-131262380D01*
X115252571Y-131262380D02*
X115252571Y-130262380D01*
X115157333Y-130405238D01*
X115062095Y-130500476D01*
X114966857Y-130548095D01*
X116157333Y-130262380D02*
X116252571Y-130262380D01*
X116347809Y-130310000D01*
X116395428Y-130357619D01*
X116443047Y-130452857D01*
X116490666Y-130643333D01*
X116490666Y-130881428D01*
X116443047Y-131071904D01*
X116395428Y-131167142D01*
X116347809Y-131214761D01*
X116252571Y-131262380D01*
X116157333Y-131262380D01*
X116062095Y-131214761D01*
X116014476Y-131167142D01*
X115966857Y-131071904D01*
X115919238Y-130881428D01*
X115919238Y-130643333D01*
X115966857Y-130452857D01*
X116014476Y-130357619D01*
X116062095Y-130310000D01*
X116157333Y-130262380D01*
X116824000Y-130262380D02*
X117443047Y-130262380D01*
X117109714Y-130643333D01*
X117252571Y-130643333D01*
X117347809Y-130690952D01*
X117395428Y-130738571D01*
X117443047Y-130833809D01*
X117443047Y-131071904D01*
X117395428Y-131167142D01*
X117347809Y-131214761D01*
X117252571Y-131262380D01*
X116966857Y-131262380D01*
X116871619Y-131214761D01*
X116824000Y-131167142D01*
%TO.C,J101*%
X108569285Y-49617380D02*
X108569285Y-50331666D01*
X108521666Y-50474523D01*
X108426428Y-50569761D01*
X108283571Y-50617380D01*
X108188333Y-50617380D01*
X109569285Y-50617380D02*
X108997857Y-50617380D01*
X109283571Y-50617380D02*
X109283571Y-49617380D01*
X109188333Y-49760238D01*
X109093095Y-49855476D01*
X108997857Y-49903095D01*
X110188333Y-49617380D02*
X110283571Y-49617380D01*
X110378809Y-49665000D01*
X110426428Y-49712619D01*
X110474047Y-49807857D01*
X110521666Y-49998333D01*
X110521666Y-50236428D01*
X110474047Y-50426904D01*
X110426428Y-50522142D01*
X110378809Y-50569761D01*
X110283571Y-50617380D01*
X110188333Y-50617380D01*
X110093095Y-50569761D01*
X110045476Y-50522142D01*
X109997857Y-50426904D01*
X109950238Y-50236428D01*
X109950238Y-49998333D01*
X109997857Y-49807857D01*
X110045476Y-49712619D01*
X110093095Y-49665000D01*
X110188333Y-49617380D01*
X111474047Y-50617380D02*
X110902619Y-50617380D01*
X111188333Y-50617380D02*
X111188333Y-49617380D01*
X111093095Y-49760238D01*
X110997857Y-49855476D01*
X110902619Y-49903095D01*
%TO.C,Q303*%
X174417880Y-123877619D02*
X174322642Y-123830000D01*
X174227404Y-123734761D01*
X174084547Y-123591904D01*
X173989309Y-123544285D01*
X173894071Y-123544285D01*
X173941690Y-123782380D02*
X173846452Y-123734761D01*
X173751214Y-123639523D01*
X173703595Y-123449047D01*
X173703595Y-123115714D01*
X173751214Y-122925238D01*
X173846452Y-122830000D01*
X173941690Y-122782380D01*
X174132166Y-122782380D01*
X174227404Y-122830000D01*
X174322642Y-122925238D01*
X174370261Y-123115714D01*
X174370261Y-123449047D01*
X174322642Y-123639523D01*
X174227404Y-123734761D01*
X174132166Y-123782380D01*
X173941690Y-123782380D01*
X174703595Y-122782380D02*
X175322642Y-122782380D01*
X174989309Y-123163333D01*
X175132166Y-123163333D01*
X175227404Y-123210952D01*
X175275023Y-123258571D01*
X175322642Y-123353809D01*
X175322642Y-123591904D01*
X175275023Y-123687142D01*
X175227404Y-123734761D01*
X175132166Y-123782380D01*
X174846452Y-123782380D01*
X174751214Y-123734761D01*
X174703595Y-123687142D01*
X175941690Y-122782380D02*
X176036928Y-122782380D01*
X176132166Y-122830000D01*
X176179785Y-122877619D01*
X176227404Y-122972857D01*
X176275023Y-123163333D01*
X176275023Y-123401428D01*
X176227404Y-123591904D01*
X176179785Y-123687142D01*
X176132166Y-123734761D01*
X176036928Y-123782380D01*
X175941690Y-123782380D01*
X175846452Y-123734761D01*
X175798833Y-123687142D01*
X175751214Y-123591904D01*
X175703595Y-123401428D01*
X175703595Y-123163333D01*
X175751214Y-122972857D01*
X175798833Y-122877619D01*
X175846452Y-122830000D01*
X175941690Y-122782380D01*
X176608357Y-122782380D02*
X177227404Y-122782380D01*
X176894071Y-123163333D01*
X177036928Y-123163333D01*
X177132166Y-123210952D01*
X177179785Y-123258571D01*
X177227404Y-123353809D01*
X177227404Y-123591904D01*
X177179785Y-123687142D01*
X177132166Y-123734761D01*
X177036928Y-123782380D01*
X176751214Y-123782380D01*
X176655976Y-123734761D01*
X176608357Y-123687142D01*
%TO.C,C302*%
X143232142Y-113768047D02*
X143279761Y-113815666D01*
X143327380Y-113958523D01*
X143327380Y-114053761D01*
X143279761Y-114196619D01*
X143184523Y-114291857D01*
X143089285Y-114339476D01*
X142898809Y-114387095D01*
X142755952Y-114387095D01*
X142565476Y-114339476D01*
X142470238Y-114291857D01*
X142375000Y-114196619D01*
X142327380Y-114053761D01*
X142327380Y-113958523D01*
X142375000Y-113815666D01*
X142422619Y-113768047D01*
X142327380Y-113434714D02*
X142327380Y-112815666D01*
X142708333Y-113149000D01*
X142708333Y-113006142D01*
X142755952Y-112910904D01*
X142803571Y-112863285D01*
X142898809Y-112815666D01*
X143136904Y-112815666D01*
X143232142Y-112863285D01*
X143279761Y-112910904D01*
X143327380Y-113006142D01*
X143327380Y-113291857D01*
X143279761Y-113387095D01*
X143232142Y-113434714D01*
X142327380Y-112196619D02*
X142327380Y-112101380D01*
X142375000Y-112006142D01*
X142422619Y-111958523D01*
X142517857Y-111910904D01*
X142708333Y-111863285D01*
X142946428Y-111863285D01*
X143136904Y-111910904D01*
X143232142Y-111958523D01*
X143279761Y-112006142D01*
X143327380Y-112101380D01*
X143327380Y-112196619D01*
X143279761Y-112291857D01*
X143232142Y-112339476D01*
X143136904Y-112387095D01*
X142946428Y-112434714D01*
X142708333Y-112434714D01*
X142517857Y-112387095D01*
X142422619Y-112339476D01*
X142375000Y-112291857D01*
X142327380Y-112196619D01*
X142422619Y-111482333D02*
X142375000Y-111434714D01*
X142327380Y-111339476D01*
X142327380Y-111101380D01*
X142375000Y-111006142D01*
X142422619Y-110958523D01*
X142517857Y-110910904D01*
X142613095Y-110910904D01*
X142755952Y-110958523D01*
X143327380Y-111529952D01*
X143327380Y-110910904D01*
%TO.C,C308*%
X159535952Y-129803142D02*
X159488333Y-129850761D01*
X159345476Y-129898380D01*
X159250238Y-129898380D01*
X159107380Y-129850761D01*
X159012142Y-129755523D01*
X158964523Y-129660285D01*
X158916904Y-129469809D01*
X158916904Y-129326952D01*
X158964523Y-129136476D01*
X159012142Y-129041238D01*
X159107380Y-128946000D01*
X159250238Y-128898380D01*
X159345476Y-128898380D01*
X159488333Y-128946000D01*
X159535952Y-128993619D01*
X159869285Y-128898380D02*
X160488333Y-128898380D01*
X160155000Y-129279333D01*
X160297857Y-129279333D01*
X160393095Y-129326952D01*
X160440714Y-129374571D01*
X160488333Y-129469809D01*
X160488333Y-129707904D01*
X160440714Y-129803142D01*
X160393095Y-129850761D01*
X160297857Y-129898380D01*
X160012142Y-129898380D01*
X159916904Y-129850761D01*
X159869285Y-129803142D01*
X161107380Y-128898380D02*
X161202619Y-128898380D01*
X161297857Y-128946000D01*
X161345476Y-128993619D01*
X161393095Y-129088857D01*
X161440714Y-129279333D01*
X161440714Y-129517428D01*
X161393095Y-129707904D01*
X161345476Y-129803142D01*
X161297857Y-129850761D01*
X161202619Y-129898380D01*
X161107380Y-129898380D01*
X161012142Y-129850761D01*
X160964523Y-129803142D01*
X160916904Y-129707904D01*
X160869285Y-129517428D01*
X160869285Y-129279333D01*
X160916904Y-129088857D01*
X160964523Y-128993619D01*
X161012142Y-128946000D01*
X161107380Y-128898380D01*
X162012142Y-129326952D02*
X161916904Y-129279333D01*
X161869285Y-129231714D01*
X161821666Y-129136476D01*
X161821666Y-129088857D01*
X161869285Y-128993619D01*
X161916904Y-128946000D01*
X162012142Y-128898380D01*
X162202619Y-128898380D01*
X162297857Y-128946000D01*
X162345476Y-128993619D01*
X162393095Y-129088857D01*
X162393095Y-129136476D01*
X162345476Y-129231714D01*
X162297857Y-129279333D01*
X162202619Y-129326952D01*
X162012142Y-129326952D01*
X161916904Y-129374571D01*
X161869285Y-129422190D01*
X161821666Y-129517428D01*
X161821666Y-129707904D01*
X161869285Y-129803142D01*
X161916904Y-129850761D01*
X162012142Y-129898380D01*
X162202619Y-129898380D01*
X162297857Y-129850761D01*
X162345476Y-129803142D01*
X162393095Y-129707904D01*
X162393095Y-129517428D01*
X162345476Y-129422190D01*
X162297857Y-129374571D01*
X162202619Y-129326952D01*
%TO.C,R211*%
X177061952Y-95702380D02*
X176728619Y-95226190D01*
X176490523Y-95702380D02*
X176490523Y-94702380D01*
X176871476Y-94702380D01*
X176966714Y-94750000D01*
X177014333Y-94797619D01*
X177061952Y-94892857D01*
X177061952Y-95035714D01*
X177014333Y-95130952D01*
X176966714Y-95178571D01*
X176871476Y-95226190D01*
X176490523Y-95226190D01*
X177442904Y-94797619D02*
X177490523Y-94750000D01*
X177585761Y-94702380D01*
X177823857Y-94702380D01*
X177919095Y-94750000D01*
X177966714Y-94797619D01*
X178014333Y-94892857D01*
X178014333Y-94988095D01*
X177966714Y-95130952D01*
X177395285Y-95702380D01*
X178014333Y-95702380D01*
X178966714Y-95702380D02*
X178395285Y-95702380D01*
X178681000Y-95702380D02*
X178681000Y-94702380D01*
X178585761Y-94845238D01*
X178490523Y-94940476D01*
X178395285Y-94988095D01*
X179919095Y-95702380D02*
X179347666Y-95702380D01*
X179633380Y-95702380D02*
X179633380Y-94702380D01*
X179538142Y-94845238D01*
X179442904Y-94940476D01*
X179347666Y-94988095D01*
%TO.C,U302*%
X189117714Y-119013380D02*
X189117714Y-119822904D01*
X189165333Y-119918142D01*
X189212952Y-119965761D01*
X189308190Y-120013380D01*
X189498666Y-120013380D01*
X189593904Y-119965761D01*
X189641523Y-119918142D01*
X189689142Y-119822904D01*
X189689142Y-119013380D01*
X190070095Y-119013380D02*
X190689142Y-119013380D01*
X190355809Y-119394333D01*
X190498666Y-119394333D01*
X190593904Y-119441952D01*
X190641523Y-119489571D01*
X190689142Y-119584809D01*
X190689142Y-119822904D01*
X190641523Y-119918142D01*
X190593904Y-119965761D01*
X190498666Y-120013380D01*
X190212952Y-120013380D01*
X190117714Y-119965761D01*
X190070095Y-119918142D01*
X191308190Y-119013380D02*
X191403428Y-119013380D01*
X191498666Y-119061000D01*
X191546285Y-119108619D01*
X191593904Y-119203857D01*
X191641523Y-119394333D01*
X191641523Y-119632428D01*
X191593904Y-119822904D01*
X191546285Y-119918142D01*
X191498666Y-119965761D01*
X191403428Y-120013380D01*
X191308190Y-120013380D01*
X191212952Y-119965761D01*
X191165333Y-119918142D01*
X191117714Y-119822904D01*
X191070095Y-119632428D01*
X191070095Y-119394333D01*
X191117714Y-119203857D01*
X191165333Y-119108619D01*
X191212952Y-119061000D01*
X191308190Y-119013380D01*
X192022476Y-119108619D02*
X192070095Y-119061000D01*
X192165333Y-119013380D01*
X192403428Y-119013380D01*
X192498666Y-119061000D01*
X192546285Y-119108619D01*
X192593904Y-119203857D01*
X192593904Y-119299095D01*
X192546285Y-119441952D01*
X191974857Y-120013380D01*
X192593904Y-120013380D01*
%TO.C,C305*%
X166506142Y-106783047D02*
X166553761Y-106830666D01*
X166601380Y-106973523D01*
X166601380Y-107068761D01*
X166553761Y-107211619D01*
X166458523Y-107306857D01*
X166363285Y-107354476D01*
X166172809Y-107402095D01*
X166029952Y-107402095D01*
X165839476Y-107354476D01*
X165744238Y-107306857D01*
X165649000Y-107211619D01*
X165601380Y-107068761D01*
X165601380Y-106973523D01*
X165649000Y-106830666D01*
X165696619Y-106783047D01*
X165601380Y-106449714D02*
X165601380Y-105830666D01*
X165982333Y-106164000D01*
X165982333Y-106021142D01*
X166029952Y-105925904D01*
X166077571Y-105878285D01*
X166172809Y-105830666D01*
X166410904Y-105830666D01*
X166506142Y-105878285D01*
X166553761Y-105925904D01*
X166601380Y-106021142D01*
X166601380Y-106306857D01*
X166553761Y-106402095D01*
X166506142Y-106449714D01*
X165601380Y-105211619D02*
X165601380Y-105116380D01*
X165649000Y-105021142D01*
X165696619Y-104973523D01*
X165791857Y-104925904D01*
X165982333Y-104878285D01*
X166220428Y-104878285D01*
X166410904Y-104925904D01*
X166506142Y-104973523D01*
X166553761Y-105021142D01*
X166601380Y-105116380D01*
X166601380Y-105211619D01*
X166553761Y-105306857D01*
X166506142Y-105354476D01*
X166410904Y-105402095D01*
X166220428Y-105449714D01*
X165982333Y-105449714D01*
X165791857Y-105402095D01*
X165696619Y-105354476D01*
X165649000Y-105306857D01*
X165601380Y-105211619D01*
X165601380Y-103973523D02*
X165601380Y-104449714D01*
X166077571Y-104497333D01*
X166029952Y-104449714D01*
X165982333Y-104354476D01*
X165982333Y-104116380D01*
X166029952Y-104021142D01*
X166077571Y-103973523D01*
X166172809Y-103925904D01*
X166410904Y-103925904D01*
X166506142Y-103973523D01*
X166553761Y-104021142D01*
X166601380Y-104116380D01*
X166601380Y-104354476D01*
X166553761Y-104449714D01*
X166506142Y-104497333D01*
%TO.C,R307*%
X191554380Y-110847047D02*
X191078190Y-111180380D01*
X191554380Y-111418476D02*
X190554380Y-111418476D01*
X190554380Y-111037523D01*
X190602000Y-110942285D01*
X190649619Y-110894666D01*
X190744857Y-110847047D01*
X190887714Y-110847047D01*
X190982952Y-110894666D01*
X191030571Y-110942285D01*
X191078190Y-111037523D01*
X191078190Y-111418476D01*
X190554380Y-110513714D02*
X190554380Y-109894666D01*
X190935333Y-110228000D01*
X190935333Y-110085142D01*
X190982952Y-109989904D01*
X191030571Y-109942285D01*
X191125809Y-109894666D01*
X191363904Y-109894666D01*
X191459142Y-109942285D01*
X191506761Y-109989904D01*
X191554380Y-110085142D01*
X191554380Y-110370857D01*
X191506761Y-110466095D01*
X191459142Y-110513714D01*
X190554380Y-109275619D02*
X190554380Y-109180380D01*
X190602000Y-109085142D01*
X190649619Y-109037523D01*
X190744857Y-108989904D01*
X190935333Y-108942285D01*
X191173428Y-108942285D01*
X191363904Y-108989904D01*
X191459142Y-109037523D01*
X191506761Y-109085142D01*
X191554380Y-109180380D01*
X191554380Y-109275619D01*
X191506761Y-109370857D01*
X191459142Y-109418476D01*
X191363904Y-109466095D01*
X191173428Y-109513714D01*
X190935333Y-109513714D01*
X190744857Y-109466095D01*
X190649619Y-109418476D01*
X190602000Y-109370857D01*
X190554380Y-109275619D01*
X190554380Y-108608952D02*
X190554380Y-107942285D01*
X191554380Y-108370857D01*
%TO.C,Q301*%
X186856619Y-106711619D02*
X186809000Y-106806857D01*
X186713761Y-106902095D01*
X186570904Y-107044952D01*
X186523285Y-107140190D01*
X186523285Y-107235428D01*
X186761380Y-107187809D02*
X186713761Y-107283047D01*
X186618523Y-107378285D01*
X186428047Y-107425904D01*
X186094714Y-107425904D01*
X185904238Y-107378285D01*
X185809000Y-107283047D01*
X185761380Y-107187809D01*
X185761380Y-106997333D01*
X185809000Y-106902095D01*
X185904238Y-106806857D01*
X186094714Y-106759238D01*
X186428047Y-106759238D01*
X186618523Y-106806857D01*
X186713761Y-106902095D01*
X186761380Y-106997333D01*
X186761380Y-107187809D01*
X185761380Y-106425904D02*
X185761380Y-105806857D01*
X186142333Y-106140190D01*
X186142333Y-105997333D01*
X186189952Y-105902095D01*
X186237571Y-105854476D01*
X186332809Y-105806857D01*
X186570904Y-105806857D01*
X186666142Y-105854476D01*
X186713761Y-105902095D01*
X186761380Y-105997333D01*
X186761380Y-106283047D01*
X186713761Y-106378285D01*
X186666142Y-106425904D01*
X185761380Y-105187809D02*
X185761380Y-105092571D01*
X185809000Y-104997333D01*
X185856619Y-104949714D01*
X185951857Y-104902095D01*
X186142333Y-104854476D01*
X186380428Y-104854476D01*
X186570904Y-104902095D01*
X186666142Y-104949714D01*
X186713761Y-104997333D01*
X186761380Y-105092571D01*
X186761380Y-105187809D01*
X186713761Y-105283047D01*
X186666142Y-105330666D01*
X186570904Y-105378285D01*
X186380428Y-105425904D01*
X186142333Y-105425904D01*
X185951857Y-105378285D01*
X185856619Y-105330666D01*
X185809000Y-105283047D01*
X185761380Y-105187809D01*
X186761380Y-103902095D02*
X186761380Y-104473523D01*
X186761380Y-104187809D02*
X185761380Y-104187809D01*
X185904238Y-104283047D01*
X185999476Y-104378285D01*
X186047095Y-104473523D01*
%TO.C,J104*%
X179929285Y-124523380D02*
X179929285Y-125237666D01*
X179881666Y-125380523D01*
X179786428Y-125475761D01*
X179643571Y-125523380D01*
X179548333Y-125523380D01*
X180929285Y-125523380D02*
X180357857Y-125523380D01*
X180643571Y-125523380D02*
X180643571Y-124523380D01*
X180548333Y-124666238D01*
X180453095Y-124761476D01*
X180357857Y-124809095D01*
X181548333Y-124523380D02*
X181643571Y-124523380D01*
X181738809Y-124571000D01*
X181786428Y-124618619D01*
X181834047Y-124713857D01*
X181881666Y-124904333D01*
X181881666Y-125142428D01*
X181834047Y-125332904D01*
X181786428Y-125428142D01*
X181738809Y-125475761D01*
X181643571Y-125523380D01*
X181548333Y-125523380D01*
X181453095Y-125475761D01*
X181405476Y-125428142D01*
X181357857Y-125332904D01*
X181310238Y-125142428D01*
X181310238Y-124904333D01*
X181357857Y-124713857D01*
X181405476Y-124618619D01*
X181453095Y-124571000D01*
X181548333Y-124523380D01*
X182738809Y-124856714D02*
X182738809Y-125523380D01*
X182500714Y-124475761D02*
X182262619Y-125190047D01*
X182881666Y-125190047D01*
%TO.C,R219*%
X136294952Y-127325380D02*
X135961619Y-126849190D01*
X135723523Y-127325380D02*
X135723523Y-126325380D01*
X136104476Y-126325380D01*
X136199714Y-126373000D01*
X136247333Y-126420619D01*
X136294952Y-126515857D01*
X136294952Y-126658714D01*
X136247333Y-126753952D01*
X136199714Y-126801571D01*
X136104476Y-126849190D01*
X135723523Y-126849190D01*
X136675904Y-126420619D02*
X136723523Y-126373000D01*
X136818761Y-126325380D01*
X137056857Y-126325380D01*
X137152095Y-126373000D01*
X137199714Y-126420619D01*
X137247333Y-126515857D01*
X137247333Y-126611095D01*
X137199714Y-126753952D01*
X136628285Y-127325380D01*
X137247333Y-127325380D01*
X138199714Y-127325380D02*
X137628285Y-127325380D01*
X137914000Y-127325380D02*
X137914000Y-126325380D01*
X137818761Y-126468238D01*
X137723523Y-126563476D01*
X137628285Y-126611095D01*
X138675904Y-127325380D02*
X138866380Y-127325380D01*
X138961619Y-127277761D01*
X139009238Y-127230142D01*
X139104476Y-127087285D01*
X139152095Y-126896809D01*
X139152095Y-126515857D01*
X139104476Y-126420619D01*
X139056857Y-126373000D01*
X138961619Y-126325380D01*
X138771142Y-126325380D01*
X138675904Y-126373000D01*
X138628285Y-126420619D01*
X138580666Y-126515857D01*
X138580666Y-126753952D01*
X138628285Y-126849190D01*
X138675904Y-126896809D01*
X138771142Y-126944428D01*
X138961619Y-126944428D01*
X139056857Y-126896809D01*
X139104476Y-126849190D01*
X139152095Y-126753952D01*
%TO.C,U304*%
X163004714Y-109801380D02*
X163004714Y-110610904D01*
X163052333Y-110706142D01*
X163099952Y-110753761D01*
X163195190Y-110801380D01*
X163385666Y-110801380D01*
X163480904Y-110753761D01*
X163528523Y-110706142D01*
X163576142Y-110610904D01*
X163576142Y-109801380D01*
X163957095Y-109801380D02*
X164576142Y-109801380D01*
X164242809Y-110182333D01*
X164385666Y-110182333D01*
X164480904Y-110229952D01*
X164528523Y-110277571D01*
X164576142Y-110372809D01*
X164576142Y-110610904D01*
X164528523Y-110706142D01*
X164480904Y-110753761D01*
X164385666Y-110801380D01*
X164099952Y-110801380D01*
X164004714Y-110753761D01*
X163957095Y-110706142D01*
X165195190Y-109801380D02*
X165290428Y-109801380D01*
X165385666Y-109849000D01*
X165433285Y-109896619D01*
X165480904Y-109991857D01*
X165528523Y-110182333D01*
X165528523Y-110420428D01*
X165480904Y-110610904D01*
X165433285Y-110706142D01*
X165385666Y-110753761D01*
X165290428Y-110801380D01*
X165195190Y-110801380D01*
X165099952Y-110753761D01*
X165052333Y-110706142D01*
X165004714Y-110610904D01*
X164957095Y-110420428D01*
X164957095Y-110182333D01*
X165004714Y-109991857D01*
X165052333Y-109896619D01*
X165099952Y-109849000D01*
X165195190Y-109801380D01*
X166385666Y-110134714D02*
X166385666Y-110801380D01*
X166147571Y-109753761D02*
X165909476Y-110468047D01*
X166528523Y-110468047D01*
%TO.C,R218*%
X183374380Y-61124547D02*
X182898190Y-61457880D01*
X183374380Y-61695976D02*
X182374380Y-61695976D01*
X182374380Y-61315023D01*
X182422000Y-61219785D01*
X182469619Y-61172166D01*
X182564857Y-61124547D01*
X182707714Y-61124547D01*
X182802952Y-61172166D01*
X182850571Y-61219785D01*
X182898190Y-61315023D01*
X182898190Y-61695976D01*
X182469619Y-60743595D02*
X182422000Y-60695976D01*
X182374380Y-60600738D01*
X182374380Y-60362642D01*
X182422000Y-60267404D01*
X182469619Y-60219785D01*
X182564857Y-60172166D01*
X182660095Y-60172166D01*
X182802952Y-60219785D01*
X183374380Y-60791214D01*
X183374380Y-60172166D01*
X183374380Y-59219785D02*
X183374380Y-59791214D01*
X183374380Y-59505500D02*
X182374380Y-59505500D01*
X182517238Y-59600738D01*
X182612476Y-59695976D01*
X182660095Y-59791214D01*
X182802952Y-58648357D02*
X182755333Y-58743595D01*
X182707714Y-58791214D01*
X182612476Y-58838833D01*
X182564857Y-58838833D01*
X182469619Y-58791214D01*
X182422000Y-58743595D01*
X182374380Y-58648357D01*
X182374380Y-58457880D01*
X182422000Y-58362642D01*
X182469619Y-58315023D01*
X182564857Y-58267404D01*
X182612476Y-58267404D01*
X182707714Y-58315023D01*
X182755333Y-58362642D01*
X182802952Y-58457880D01*
X182802952Y-58648357D01*
X182850571Y-58743595D01*
X182898190Y-58791214D01*
X182993428Y-58838833D01*
X183183904Y-58838833D01*
X183279142Y-58791214D01*
X183326761Y-58743595D01*
X183374380Y-58648357D01*
X183374380Y-58457880D01*
X183326761Y-58362642D01*
X183279142Y-58315023D01*
X183183904Y-58267404D01*
X182993428Y-58267404D01*
X182898190Y-58315023D01*
X182850571Y-58362642D01*
X182802952Y-58457880D01*
%TO.C,D301*%
X142073523Y-133421380D02*
X142073523Y-132421380D01*
X142311619Y-132421380D01*
X142454476Y-132469000D01*
X142549714Y-132564238D01*
X142597333Y-132659476D01*
X142644952Y-132849952D01*
X142644952Y-132992809D01*
X142597333Y-133183285D01*
X142549714Y-133278523D01*
X142454476Y-133373761D01*
X142311619Y-133421380D01*
X142073523Y-133421380D01*
X142978285Y-132421380D02*
X143597333Y-132421380D01*
X143264000Y-132802333D01*
X143406857Y-132802333D01*
X143502095Y-132849952D01*
X143549714Y-132897571D01*
X143597333Y-132992809D01*
X143597333Y-133230904D01*
X143549714Y-133326142D01*
X143502095Y-133373761D01*
X143406857Y-133421380D01*
X143121142Y-133421380D01*
X143025904Y-133373761D01*
X142978285Y-133326142D01*
X144216380Y-132421380D02*
X144311619Y-132421380D01*
X144406857Y-132469000D01*
X144454476Y-132516619D01*
X144502095Y-132611857D01*
X144549714Y-132802333D01*
X144549714Y-133040428D01*
X144502095Y-133230904D01*
X144454476Y-133326142D01*
X144406857Y-133373761D01*
X144311619Y-133421380D01*
X144216380Y-133421380D01*
X144121142Y-133373761D01*
X144073523Y-133326142D01*
X144025904Y-133230904D01*
X143978285Y-133040428D01*
X143978285Y-132802333D01*
X144025904Y-132611857D01*
X144073523Y-132516619D01*
X144121142Y-132469000D01*
X144216380Y-132421380D01*
X145502095Y-133421380D02*
X144930666Y-133421380D01*
X145216380Y-133421380D02*
X145216380Y-132421380D01*
X145121142Y-132564238D01*
X145025904Y-132659476D01*
X144930666Y-132707095D01*
%TO.C,R104*%
X112085380Y-132945047D02*
X111609190Y-133278380D01*
X112085380Y-133516476D02*
X111085380Y-133516476D01*
X111085380Y-133135523D01*
X111133000Y-133040285D01*
X111180619Y-132992666D01*
X111275857Y-132945047D01*
X111418714Y-132945047D01*
X111513952Y-132992666D01*
X111561571Y-133040285D01*
X111609190Y-133135523D01*
X111609190Y-133516476D01*
X112085380Y-131992666D02*
X112085380Y-132564095D01*
X112085380Y-132278380D02*
X111085380Y-132278380D01*
X111228238Y-132373619D01*
X111323476Y-132468857D01*
X111371095Y-132564095D01*
X111085380Y-131373619D02*
X111085380Y-131278380D01*
X111133000Y-131183142D01*
X111180619Y-131135523D01*
X111275857Y-131087904D01*
X111466333Y-131040285D01*
X111704428Y-131040285D01*
X111894904Y-131087904D01*
X111990142Y-131135523D01*
X112037761Y-131183142D01*
X112085380Y-131278380D01*
X112085380Y-131373619D01*
X112037761Y-131468857D01*
X111990142Y-131516476D01*
X111894904Y-131564095D01*
X111704428Y-131611714D01*
X111466333Y-131611714D01*
X111275857Y-131564095D01*
X111180619Y-131516476D01*
X111133000Y-131468857D01*
X111085380Y-131373619D01*
X111418714Y-130183142D02*
X112085380Y-130183142D01*
X111037761Y-130421238D02*
X111752047Y-130659333D01*
X111752047Y-130040285D01*
%TO.C,U301*%
X174942714Y-112736380D02*
X174942714Y-113545904D01*
X174990333Y-113641142D01*
X175037952Y-113688761D01*
X175133190Y-113736380D01*
X175323666Y-113736380D01*
X175418904Y-113688761D01*
X175466523Y-113641142D01*
X175514142Y-113545904D01*
X175514142Y-112736380D01*
X175895095Y-112736380D02*
X176514142Y-112736380D01*
X176180809Y-113117333D01*
X176323666Y-113117333D01*
X176418904Y-113164952D01*
X176466523Y-113212571D01*
X176514142Y-113307809D01*
X176514142Y-113545904D01*
X176466523Y-113641142D01*
X176418904Y-113688761D01*
X176323666Y-113736380D01*
X176037952Y-113736380D01*
X175942714Y-113688761D01*
X175895095Y-113641142D01*
X177133190Y-112736380D02*
X177228428Y-112736380D01*
X177323666Y-112784000D01*
X177371285Y-112831619D01*
X177418904Y-112926857D01*
X177466523Y-113117333D01*
X177466523Y-113355428D01*
X177418904Y-113545904D01*
X177371285Y-113641142D01*
X177323666Y-113688761D01*
X177228428Y-113736380D01*
X177133190Y-113736380D01*
X177037952Y-113688761D01*
X176990333Y-113641142D01*
X176942714Y-113545904D01*
X176895095Y-113355428D01*
X176895095Y-113117333D01*
X176942714Y-112926857D01*
X176990333Y-112831619D01*
X177037952Y-112784000D01*
X177133190Y-112736380D01*
X178418904Y-113736380D02*
X177847476Y-113736380D01*
X178133190Y-113736380D02*
X178133190Y-112736380D01*
X178037952Y-112879238D01*
X177942714Y-112974476D01*
X177847476Y-113022095D01*
%TO.C,R208*%
X118260952Y-70302380D02*
X117927619Y-69826190D01*
X117689523Y-70302380D02*
X117689523Y-69302380D01*
X118070476Y-69302380D01*
X118165714Y-69350000D01*
X118213333Y-69397619D01*
X118260952Y-69492857D01*
X118260952Y-69635714D01*
X118213333Y-69730952D01*
X118165714Y-69778571D01*
X118070476Y-69826190D01*
X117689523Y-69826190D01*
X118641904Y-69397619D02*
X118689523Y-69350000D01*
X118784761Y-69302380D01*
X119022857Y-69302380D01*
X119118095Y-69350000D01*
X119165714Y-69397619D01*
X119213333Y-69492857D01*
X119213333Y-69588095D01*
X119165714Y-69730952D01*
X118594285Y-70302380D01*
X119213333Y-70302380D01*
X119832380Y-69302380D02*
X119927619Y-69302380D01*
X120022857Y-69350000D01*
X120070476Y-69397619D01*
X120118095Y-69492857D01*
X120165714Y-69683333D01*
X120165714Y-69921428D01*
X120118095Y-70111904D01*
X120070476Y-70207142D01*
X120022857Y-70254761D01*
X119927619Y-70302380D01*
X119832380Y-70302380D01*
X119737142Y-70254761D01*
X119689523Y-70207142D01*
X119641904Y-70111904D01*
X119594285Y-69921428D01*
X119594285Y-69683333D01*
X119641904Y-69492857D01*
X119689523Y-69397619D01*
X119737142Y-69350000D01*
X119832380Y-69302380D01*
X120737142Y-69730952D02*
X120641904Y-69683333D01*
X120594285Y-69635714D01*
X120546666Y-69540476D01*
X120546666Y-69492857D01*
X120594285Y-69397619D01*
X120641904Y-69350000D01*
X120737142Y-69302380D01*
X120927619Y-69302380D01*
X121022857Y-69350000D01*
X121070476Y-69397619D01*
X121118095Y-69492857D01*
X121118095Y-69540476D01*
X121070476Y-69635714D01*
X121022857Y-69683333D01*
X120927619Y-69730952D01*
X120737142Y-69730952D01*
X120641904Y-69778571D01*
X120594285Y-69826190D01*
X120546666Y-69921428D01*
X120546666Y-70111904D01*
X120594285Y-70207142D01*
X120641904Y-70254761D01*
X120737142Y-70302380D01*
X120927619Y-70302380D01*
X121022857Y-70254761D01*
X121070476Y-70207142D01*
X121118095Y-70111904D01*
X121118095Y-69921428D01*
X121070476Y-69826190D01*
X121022857Y-69778571D01*
X120927619Y-69730952D01*
%TO.C,R203*%
X114069952Y-60109380D02*
X113736619Y-59633190D01*
X113498523Y-60109380D02*
X113498523Y-59109380D01*
X113879476Y-59109380D01*
X113974714Y-59157000D01*
X114022333Y-59204619D01*
X114069952Y-59299857D01*
X114069952Y-59442714D01*
X114022333Y-59537952D01*
X113974714Y-59585571D01*
X113879476Y-59633190D01*
X113498523Y-59633190D01*
X114450904Y-59204619D02*
X114498523Y-59157000D01*
X114593761Y-59109380D01*
X114831857Y-59109380D01*
X114927095Y-59157000D01*
X114974714Y-59204619D01*
X115022333Y-59299857D01*
X115022333Y-59395095D01*
X114974714Y-59537952D01*
X114403285Y-60109380D01*
X115022333Y-60109380D01*
X115641380Y-59109380D02*
X115736619Y-59109380D01*
X115831857Y-59157000D01*
X115879476Y-59204619D01*
X115927095Y-59299857D01*
X115974714Y-59490333D01*
X115974714Y-59728428D01*
X115927095Y-59918904D01*
X115879476Y-60014142D01*
X115831857Y-60061761D01*
X115736619Y-60109380D01*
X115641380Y-60109380D01*
X115546142Y-60061761D01*
X115498523Y-60014142D01*
X115450904Y-59918904D01*
X115403285Y-59728428D01*
X115403285Y-59490333D01*
X115450904Y-59299857D01*
X115498523Y-59204619D01*
X115546142Y-59157000D01*
X115641380Y-59109380D01*
X116308047Y-59109380D02*
X116927095Y-59109380D01*
X116593761Y-59490333D01*
X116736619Y-59490333D01*
X116831857Y-59537952D01*
X116879476Y-59585571D01*
X116927095Y-59680809D01*
X116927095Y-59918904D01*
X116879476Y-60014142D01*
X116831857Y-60061761D01*
X116736619Y-60109380D01*
X116450904Y-60109380D01*
X116355666Y-60061761D01*
X116308047Y-60014142D01*
%TO.C,R216*%
X131356380Y-133199047D02*
X130880190Y-133532380D01*
X131356380Y-133770476D02*
X130356380Y-133770476D01*
X130356380Y-133389523D01*
X130404000Y-133294285D01*
X130451619Y-133246666D01*
X130546857Y-133199047D01*
X130689714Y-133199047D01*
X130784952Y-133246666D01*
X130832571Y-133294285D01*
X130880190Y-133389523D01*
X130880190Y-133770476D01*
X130451619Y-132818095D02*
X130404000Y-132770476D01*
X130356380Y-132675238D01*
X130356380Y-132437142D01*
X130404000Y-132341904D01*
X130451619Y-132294285D01*
X130546857Y-132246666D01*
X130642095Y-132246666D01*
X130784952Y-132294285D01*
X131356380Y-132865714D01*
X131356380Y-132246666D01*
X131356380Y-131294285D02*
X131356380Y-131865714D01*
X131356380Y-131580000D02*
X130356380Y-131580000D01*
X130499238Y-131675238D01*
X130594476Y-131770476D01*
X130642095Y-131865714D01*
X130356380Y-130437142D02*
X130356380Y-130627619D01*
X130404000Y-130722857D01*
X130451619Y-130770476D01*
X130594476Y-130865714D01*
X130784952Y-130913333D01*
X131165904Y-130913333D01*
X131261142Y-130865714D01*
X131308761Y-130818095D01*
X131356380Y-130722857D01*
X131356380Y-130532380D01*
X131308761Y-130437142D01*
X131261142Y-130389523D01*
X131165904Y-130341904D01*
X130927809Y-130341904D01*
X130832571Y-130389523D01*
X130784952Y-130437142D01*
X130737333Y-130532380D01*
X130737333Y-130722857D01*
X130784952Y-130818095D01*
X130832571Y-130865714D01*
X130927809Y-130913333D01*
%TO.C,R303*%
X176997952Y-93035380D02*
X176664619Y-92559190D01*
X176426523Y-93035380D02*
X176426523Y-92035380D01*
X176807476Y-92035380D01*
X176902714Y-92083000D01*
X176950333Y-92130619D01*
X176997952Y-92225857D01*
X176997952Y-92368714D01*
X176950333Y-92463952D01*
X176902714Y-92511571D01*
X176807476Y-92559190D01*
X176426523Y-92559190D01*
X177331285Y-92035380D02*
X177950333Y-92035380D01*
X177617000Y-92416333D01*
X177759857Y-92416333D01*
X177855095Y-92463952D01*
X177902714Y-92511571D01*
X177950333Y-92606809D01*
X177950333Y-92844904D01*
X177902714Y-92940142D01*
X177855095Y-92987761D01*
X177759857Y-93035380D01*
X177474142Y-93035380D01*
X177378904Y-92987761D01*
X177331285Y-92940142D01*
X178569380Y-92035380D02*
X178664619Y-92035380D01*
X178759857Y-92083000D01*
X178807476Y-92130619D01*
X178855095Y-92225857D01*
X178902714Y-92416333D01*
X178902714Y-92654428D01*
X178855095Y-92844904D01*
X178807476Y-92940142D01*
X178759857Y-92987761D01*
X178664619Y-93035380D01*
X178569380Y-93035380D01*
X178474142Y-92987761D01*
X178426523Y-92940142D01*
X178378904Y-92844904D01*
X178331285Y-92654428D01*
X178331285Y-92416333D01*
X178378904Y-92225857D01*
X178426523Y-92130619D01*
X178474142Y-92083000D01*
X178569380Y-92035380D01*
X179236047Y-92035380D02*
X179855095Y-92035380D01*
X179521761Y-92416333D01*
X179664619Y-92416333D01*
X179759857Y-92463952D01*
X179807476Y-92511571D01*
X179855095Y-92606809D01*
X179855095Y-92844904D01*
X179807476Y-92940142D01*
X179759857Y-92987761D01*
X179664619Y-93035380D01*
X179378904Y-93035380D01*
X179283666Y-92987761D01*
X179236047Y-92940142D01*
%TO.C,R213*%
X120053380Y-130532047D02*
X119577190Y-130865380D01*
X120053380Y-131103476D02*
X119053380Y-131103476D01*
X119053380Y-130722523D01*
X119101000Y-130627285D01*
X119148619Y-130579666D01*
X119243857Y-130532047D01*
X119386714Y-130532047D01*
X119481952Y-130579666D01*
X119529571Y-130627285D01*
X119577190Y-130722523D01*
X119577190Y-131103476D01*
X119148619Y-130151095D02*
X119101000Y-130103476D01*
X119053380Y-130008238D01*
X119053380Y-129770142D01*
X119101000Y-129674904D01*
X119148619Y-129627285D01*
X119243857Y-129579666D01*
X119339095Y-129579666D01*
X119481952Y-129627285D01*
X120053380Y-130198714D01*
X120053380Y-129579666D01*
X120053380Y-128627285D02*
X120053380Y-129198714D01*
X120053380Y-128913000D02*
X119053380Y-128913000D01*
X119196238Y-129008238D01*
X119291476Y-129103476D01*
X119339095Y-129198714D01*
X119053380Y-128293952D02*
X119053380Y-127674904D01*
X119434333Y-128008238D01*
X119434333Y-127865380D01*
X119481952Y-127770142D01*
X119529571Y-127722523D01*
X119624809Y-127674904D01*
X119862904Y-127674904D01*
X119958142Y-127722523D01*
X120005761Y-127770142D01*
X120053380Y-127865380D01*
X120053380Y-128151095D01*
X120005761Y-128246333D01*
X119958142Y-128293952D01*
%TO.C,R302*%
X192047952Y-93449380D02*
X191714619Y-92973190D01*
X191476523Y-93449380D02*
X191476523Y-92449380D01*
X191857476Y-92449380D01*
X191952714Y-92497000D01*
X192000333Y-92544619D01*
X192047952Y-92639857D01*
X192047952Y-92782714D01*
X192000333Y-92877952D01*
X191952714Y-92925571D01*
X191857476Y-92973190D01*
X191476523Y-92973190D01*
X192381285Y-92449380D02*
X193000333Y-92449380D01*
X192667000Y-92830333D01*
X192809857Y-92830333D01*
X192905095Y-92877952D01*
X192952714Y-92925571D01*
X193000333Y-93020809D01*
X193000333Y-93258904D01*
X192952714Y-93354142D01*
X192905095Y-93401761D01*
X192809857Y-93449380D01*
X192524142Y-93449380D01*
X192428904Y-93401761D01*
X192381285Y-93354142D01*
X193619380Y-92449380D02*
X193714619Y-92449380D01*
X193809857Y-92497000D01*
X193857476Y-92544619D01*
X193905095Y-92639857D01*
X193952714Y-92830333D01*
X193952714Y-93068428D01*
X193905095Y-93258904D01*
X193857476Y-93354142D01*
X193809857Y-93401761D01*
X193714619Y-93449380D01*
X193619380Y-93449380D01*
X193524142Y-93401761D01*
X193476523Y-93354142D01*
X193428904Y-93258904D01*
X193381285Y-93068428D01*
X193381285Y-92830333D01*
X193428904Y-92639857D01*
X193476523Y-92544619D01*
X193524142Y-92497000D01*
X193619380Y-92449380D01*
X194333666Y-92544619D02*
X194381285Y-92497000D01*
X194476523Y-92449380D01*
X194714619Y-92449380D01*
X194809857Y-92497000D01*
X194857476Y-92544619D01*
X194905095Y-92639857D01*
X194905095Y-92735095D01*
X194857476Y-92877952D01*
X194286047Y-93449380D01*
X194905095Y-93449380D01*
%TO.C,R209*%
X114006952Y-75349380D02*
X113673619Y-74873190D01*
X113435523Y-75349380D02*
X113435523Y-74349380D01*
X113816476Y-74349380D01*
X113911714Y-74397000D01*
X113959333Y-74444619D01*
X114006952Y-74539857D01*
X114006952Y-74682714D01*
X113959333Y-74777952D01*
X113911714Y-74825571D01*
X113816476Y-74873190D01*
X113435523Y-74873190D01*
X114387904Y-74444619D02*
X114435523Y-74397000D01*
X114530761Y-74349380D01*
X114768857Y-74349380D01*
X114864095Y-74397000D01*
X114911714Y-74444619D01*
X114959333Y-74539857D01*
X114959333Y-74635095D01*
X114911714Y-74777952D01*
X114340285Y-75349380D01*
X114959333Y-75349380D01*
X115578380Y-74349380D02*
X115673619Y-74349380D01*
X115768857Y-74397000D01*
X115816476Y-74444619D01*
X115864095Y-74539857D01*
X115911714Y-74730333D01*
X115911714Y-74968428D01*
X115864095Y-75158904D01*
X115816476Y-75254142D01*
X115768857Y-75301761D01*
X115673619Y-75349380D01*
X115578380Y-75349380D01*
X115483142Y-75301761D01*
X115435523Y-75254142D01*
X115387904Y-75158904D01*
X115340285Y-74968428D01*
X115340285Y-74730333D01*
X115387904Y-74539857D01*
X115435523Y-74444619D01*
X115483142Y-74397000D01*
X115578380Y-74349380D01*
X116387904Y-75349380D02*
X116578380Y-75349380D01*
X116673619Y-75301761D01*
X116721238Y-75254142D01*
X116816476Y-75111285D01*
X116864095Y-74920809D01*
X116864095Y-74539857D01*
X116816476Y-74444619D01*
X116768857Y-74397000D01*
X116673619Y-74349380D01*
X116483142Y-74349380D01*
X116387904Y-74397000D01*
X116340285Y-74444619D01*
X116292666Y-74539857D01*
X116292666Y-74777952D01*
X116340285Y-74873190D01*
X116387904Y-74920809D01*
X116483142Y-74968428D01*
X116673619Y-74968428D01*
X116768857Y-74920809D01*
X116816476Y-74873190D01*
X116864095Y-74777952D01*
%TO.C,R207*%
X114005952Y-70269380D02*
X113672619Y-69793190D01*
X113434523Y-70269380D02*
X113434523Y-69269380D01*
X113815476Y-69269380D01*
X113910714Y-69317000D01*
X113958333Y-69364619D01*
X114005952Y-69459857D01*
X114005952Y-69602714D01*
X113958333Y-69697952D01*
X113910714Y-69745571D01*
X113815476Y-69793190D01*
X113434523Y-69793190D01*
X114386904Y-69364619D02*
X114434523Y-69317000D01*
X114529761Y-69269380D01*
X114767857Y-69269380D01*
X114863095Y-69317000D01*
X114910714Y-69364619D01*
X114958333Y-69459857D01*
X114958333Y-69555095D01*
X114910714Y-69697952D01*
X114339285Y-70269380D01*
X114958333Y-70269380D01*
X115577380Y-69269380D02*
X115672619Y-69269380D01*
X115767857Y-69317000D01*
X115815476Y-69364619D01*
X115863095Y-69459857D01*
X115910714Y-69650333D01*
X115910714Y-69888428D01*
X115863095Y-70078904D01*
X115815476Y-70174142D01*
X115767857Y-70221761D01*
X115672619Y-70269380D01*
X115577380Y-70269380D01*
X115482142Y-70221761D01*
X115434523Y-70174142D01*
X115386904Y-70078904D01*
X115339285Y-69888428D01*
X115339285Y-69650333D01*
X115386904Y-69459857D01*
X115434523Y-69364619D01*
X115482142Y-69317000D01*
X115577380Y-69269380D01*
X116244047Y-69269380D02*
X116910714Y-69269380D01*
X116482142Y-70269380D01*
%TO.C,U201*%
X131254714Y-99811380D02*
X131254714Y-100620904D01*
X131302333Y-100716142D01*
X131349952Y-100763761D01*
X131445190Y-100811380D01*
X131635666Y-100811380D01*
X131730904Y-100763761D01*
X131778523Y-100716142D01*
X131826142Y-100620904D01*
X131826142Y-99811380D01*
X132254714Y-99906619D02*
X132302333Y-99859000D01*
X132397571Y-99811380D01*
X132635666Y-99811380D01*
X132730904Y-99859000D01*
X132778523Y-99906619D01*
X132826142Y-100001857D01*
X132826142Y-100097095D01*
X132778523Y-100239952D01*
X132207095Y-100811380D01*
X132826142Y-100811380D01*
X133445190Y-99811380D02*
X133540428Y-99811380D01*
X133635666Y-99859000D01*
X133683285Y-99906619D01*
X133730904Y-100001857D01*
X133778523Y-100192333D01*
X133778523Y-100430428D01*
X133730904Y-100620904D01*
X133683285Y-100716142D01*
X133635666Y-100763761D01*
X133540428Y-100811380D01*
X133445190Y-100811380D01*
X133349952Y-100763761D01*
X133302333Y-100716142D01*
X133254714Y-100620904D01*
X133207095Y-100430428D01*
X133207095Y-100192333D01*
X133254714Y-100001857D01*
X133302333Y-99906619D01*
X133349952Y-99859000D01*
X133445190Y-99811380D01*
X134730904Y-100811380D02*
X134159476Y-100811380D01*
X134445190Y-100811380D02*
X134445190Y-99811380D01*
X134349952Y-99954238D01*
X134254714Y-100049476D01*
X134159476Y-100097095D01*
%TO.C,R201*%
X114069952Y-55029380D02*
X113736619Y-54553190D01*
X113498523Y-55029380D02*
X113498523Y-54029380D01*
X113879476Y-54029380D01*
X113974714Y-54077000D01*
X114022333Y-54124619D01*
X114069952Y-54219857D01*
X114069952Y-54362714D01*
X114022333Y-54457952D01*
X113974714Y-54505571D01*
X113879476Y-54553190D01*
X113498523Y-54553190D01*
X114450904Y-54124619D02*
X114498523Y-54077000D01*
X114593761Y-54029380D01*
X114831857Y-54029380D01*
X114927095Y-54077000D01*
X114974714Y-54124619D01*
X115022333Y-54219857D01*
X115022333Y-54315095D01*
X114974714Y-54457952D01*
X114403285Y-55029380D01*
X115022333Y-55029380D01*
X115641380Y-54029380D02*
X115736619Y-54029380D01*
X115831857Y-54077000D01*
X115879476Y-54124619D01*
X115927095Y-54219857D01*
X115974714Y-54410333D01*
X115974714Y-54648428D01*
X115927095Y-54838904D01*
X115879476Y-54934142D01*
X115831857Y-54981761D01*
X115736619Y-55029380D01*
X115641380Y-55029380D01*
X115546142Y-54981761D01*
X115498523Y-54934142D01*
X115450904Y-54838904D01*
X115403285Y-54648428D01*
X115403285Y-54410333D01*
X115450904Y-54219857D01*
X115498523Y-54124619D01*
X115546142Y-54077000D01*
X115641380Y-54029380D01*
X116927095Y-55029380D02*
X116355666Y-55029380D01*
X116641380Y-55029380D02*
X116641380Y-54029380D01*
X116546142Y-54172238D01*
X116450904Y-54267476D01*
X116355666Y-54315095D01*
%TO.C,J105*%
X126476285Y-132929380D02*
X126476285Y-133643666D01*
X126428666Y-133786523D01*
X126333428Y-133881761D01*
X126190571Y-133929380D01*
X126095333Y-133929380D01*
X127476285Y-133929380D02*
X126904857Y-133929380D01*
X127190571Y-133929380D02*
X127190571Y-132929380D01*
X127095333Y-133072238D01*
X127000095Y-133167476D01*
X126904857Y-133215095D01*
X128095333Y-132929380D02*
X128190571Y-132929380D01*
X128285809Y-132977000D01*
X128333428Y-133024619D01*
X128381047Y-133119857D01*
X128428666Y-133310333D01*
X128428666Y-133548428D01*
X128381047Y-133738904D01*
X128333428Y-133834142D01*
X128285809Y-133881761D01*
X128190571Y-133929380D01*
X128095333Y-133929380D01*
X128000095Y-133881761D01*
X127952476Y-133834142D01*
X127904857Y-133738904D01*
X127857238Y-133548428D01*
X127857238Y-133310333D01*
X127904857Y-133119857D01*
X127952476Y-133024619D01*
X128000095Y-132977000D01*
X128095333Y-132929380D01*
X129333428Y-132929380D02*
X128857238Y-132929380D01*
X128809619Y-133405571D01*
X128857238Y-133357952D01*
X128952476Y-133310333D01*
X129190571Y-133310333D01*
X129285809Y-133357952D01*
X129333428Y-133405571D01*
X129381047Y-133500809D01*
X129381047Y-133738904D01*
X129333428Y-133834142D01*
X129285809Y-133881761D01*
X129190571Y-133929380D01*
X128952476Y-133929380D01*
X128857238Y-133881761D01*
X128809619Y-133834142D01*
%TO.C,C202*%
X105433952Y-78114142D02*
X105386333Y-78161761D01*
X105243476Y-78209380D01*
X105148238Y-78209380D01*
X105005380Y-78161761D01*
X104910142Y-78066523D01*
X104862523Y-77971285D01*
X104814904Y-77780809D01*
X104814904Y-77637952D01*
X104862523Y-77447476D01*
X104910142Y-77352238D01*
X105005380Y-77257000D01*
X105148238Y-77209380D01*
X105243476Y-77209380D01*
X105386333Y-77257000D01*
X105433952Y-77304619D01*
X105814904Y-77304619D02*
X105862523Y-77257000D01*
X105957761Y-77209380D01*
X106195857Y-77209380D01*
X106291095Y-77257000D01*
X106338714Y-77304619D01*
X106386333Y-77399857D01*
X106386333Y-77495095D01*
X106338714Y-77637952D01*
X105767285Y-78209380D01*
X106386333Y-78209380D01*
X107005380Y-77209380D02*
X107100619Y-77209380D01*
X107195857Y-77257000D01*
X107243476Y-77304619D01*
X107291095Y-77399857D01*
X107338714Y-77590333D01*
X107338714Y-77828428D01*
X107291095Y-78018904D01*
X107243476Y-78114142D01*
X107195857Y-78161761D01*
X107100619Y-78209380D01*
X107005380Y-78209380D01*
X106910142Y-78161761D01*
X106862523Y-78114142D01*
X106814904Y-78018904D01*
X106767285Y-77828428D01*
X106767285Y-77590333D01*
X106814904Y-77399857D01*
X106862523Y-77304619D01*
X106910142Y-77257000D01*
X107005380Y-77209380D01*
X107719666Y-77304619D02*
X107767285Y-77257000D01*
X107862523Y-77209380D01*
X108100619Y-77209380D01*
X108195857Y-77257000D01*
X108243476Y-77304619D01*
X108291095Y-77399857D01*
X108291095Y-77495095D01*
X108243476Y-77637952D01*
X107672047Y-78209380D01*
X108291095Y-78209380D01*
%TO.C,R202*%
X118133952Y-55029380D02*
X117800619Y-54553190D01*
X117562523Y-55029380D02*
X117562523Y-54029380D01*
X117943476Y-54029380D01*
X118038714Y-54077000D01*
X118086333Y-54124619D01*
X118133952Y-54219857D01*
X118133952Y-54362714D01*
X118086333Y-54457952D01*
X118038714Y-54505571D01*
X117943476Y-54553190D01*
X117562523Y-54553190D01*
X118514904Y-54124619D02*
X118562523Y-54077000D01*
X118657761Y-54029380D01*
X118895857Y-54029380D01*
X118991095Y-54077000D01*
X119038714Y-54124619D01*
X119086333Y-54219857D01*
X119086333Y-54315095D01*
X119038714Y-54457952D01*
X118467285Y-55029380D01*
X119086333Y-55029380D01*
X119705380Y-54029380D02*
X119800619Y-54029380D01*
X119895857Y-54077000D01*
X119943476Y-54124619D01*
X119991095Y-54219857D01*
X120038714Y-54410333D01*
X120038714Y-54648428D01*
X119991095Y-54838904D01*
X119943476Y-54934142D01*
X119895857Y-54981761D01*
X119800619Y-55029380D01*
X119705380Y-55029380D01*
X119610142Y-54981761D01*
X119562523Y-54934142D01*
X119514904Y-54838904D01*
X119467285Y-54648428D01*
X119467285Y-54410333D01*
X119514904Y-54219857D01*
X119562523Y-54124619D01*
X119610142Y-54077000D01*
X119705380Y-54029380D01*
X120419666Y-54124619D02*
X120467285Y-54077000D01*
X120562523Y-54029380D01*
X120800619Y-54029380D01*
X120895857Y-54077000D01*
X120943476Y-54124619D01*
X120991095Y-54219857D01*
X120991095Y-54315095D01*
X120943476Y-54457952D01*
X120372047Y-55029380D01*
X120991095Y-55029380D01*
%TO.C,R220*%
X136121380Y-133453047D02*
X135645190Y-133786380D01*
X136121380Y-134024476D02*
X135121380Y-134024476D01*
X135121380Y-133643523D01*
X135169000Y-133548285D01*
X135216619Y-133500666D01*
X135311857Y-133453047D01*
X135454714Y-133453047D01*
X135549952Y-133500666D01*
X135597571Y-133548285D01*
X135645190Y-133643523D01*
X135645190Y-134024476D01*
X135216619Y-133072095D02*
X135169000Y-133024476D01*
X135121380Y-132929238D01*
X135121380Y-132691142D01*
X135169000Y-132595904D01*
X135216619Y-132548285D01*
X135311857Y-132500666D01*
X135407095Y-132500666D01*
X135549952Y-132548285D01*
X136121380Y-133119714D01*
X136121380Y-132500666D01*
X135216619Y-132119714D02*
X135169000Y-132072095D01*
X135121380Y-131976857D01*
X135121380Y-131738761D01*
X135169000Y-131643523D01*
X135216619Y-131595904D01*
X135311857Y-131548285D01*
X135407095Y-131548285D01*
X135549952Y-131595904D01*
X136121380Y-132167333D01*
X136121380Y-131548285D01*
X135121380Y-130929238D02*
X135121380Y-130834000D01*
X135169000Y-130738761D01*
X135216619Y-130691142D01*
X135311857Y-130643523D01*
X135502333Y-130595904D01*
X135740428Y-130595904D01*
X135930904Y-130643523D01*
X136026142Y-130691142D01*
X136073761Y-130738761D01*
X136121380Y-130834000D01*
X136121380Y-130929238D01*
X136073761Y-131024476D01*
X136026142Y-131072095D01*
X135930904Y-131119714D01*
X135740428Y-131167333D01*
X135502333Y-131167333D01*
X135311857Y-131119714D01*
X135216619Y-131072095D01*
X135169000Y-131024476D01*
X135121380Y-130929238D01*
%TO.C,R102*%
X106751380Y-132945047D02*
X106275190Y-133278380D01*
X106751380Y-133516476D02*
X105751380Y-133516476D01*
X105751380Y-133135523D01*
X105799000Y-133040285D01*
X105846619Y-132992666D01*
X105941857Y-132945047D01*
X106084714Y-132945047D01*
X106179952Y-132992666D01*
X106227571Y-133040285D01*
X106275190Y-133135523D01*
X106275190Y-133516476D01*
X106751380Y-131992666D02*
X106751380Y-132564095D01*
X106751380Y-132278380D02*
X105751380Y-132278380D01*
X105894238Y-132373619D01*
X105989476Y-132468857D01*
X106037095Y-132564095D01*
X105751380Y-131373619D02*
X105751380Y-131278380D01*
X105799000Y-131183142D01*
X105846619Y-131135523D01*
X105941857Y-131087904D01*
X106132333Y-131040285D01*
X106370428Y-131040285D01*
X106560904Y-131087904D01*
X106656142Y-131135523D01*
X106703761Y-131183142D01*
X106751380Y-131278380D01*
X106751380Y-131373619D01*
X106703761Y-131468857D01*
X106656142Y-131516476D01*
X106560904Y-131564095D01*
X106370428Y-131611714D01*
X106132333Y-131611714D01*
X105941857Y-131564095D01*
X105846619Y-131516476D01*
X105799000Y-131468857D01*
X105751380Y-131373619D01*
X105846619Y-130659333D02*
X105799000Y-130611714D01*
X105751380Y-130516476D01*
X105751380Y-130278380D01*
X105799000Y-130183142D01*
X105846619Y-130135523D01*
X105941857Y-130087904D01*
X106037095Y-130087904D01*
X106179952Y-130135523D01*
X106751380Y-130706952D01*
X106751380Y-130087904D01*
%TO.C,R306*%
X187744380Y-110847047D02*
X187268190Y-111180380D01*
X187744380Y-111418476D02*
X186744380Y-111418476D01*
X186744380Y-111037523D01*
X186792000Y-110942285D01*
X186839619Y-110894666D01*
X186934857Y-110847047D01*
X187077714Y-110847047D01*
X187172952Y-110894666D01*
X187220571Y-110942285D01*
X187268190Y-111037523D01*
X187268190Y-111418476D01*
X186744380Y-110513714D02*
X186744380Y-109894666D01*
X187125333Y-110228000D01*
X187125333Y-110085142D01*
X187172952Y-109989904D01*
X187220571Y-109942285D01*
X187315809Y-109894666D01*
X187553904Y-109894666D01*
X187649142Y-109942285D01*
X187696761Y-109989904D01*
X187744380Y-110085142D01*
X187744380Y-110370857D01*
X187696761Y-110466095D01*
X187649142Y-110513714D01*
X186744380Y-109275619D02*
X186744380Y-109180380D01*
X186792000Y-109085142D01*
X186839619Y-109037523D01*
X186934857Y-108989904D01*
X187125333Y-108942285D01*
X187363428Y-108942285D01*
X187553904Y-108989904D01*
X187649142Y-109037523D01*
X187696761Y-109085142D01*
X187744380Y-109180380D01*
X187744380Y-109275619D01*
X187696761Y-109370857D01*
X187649142Y-109418476D01*
X187553904Y-109466095D01*
X187363428Y-109513714D01*
X187125333Y-109513714D01*
X186934857Y-109466095D01*
X186839619Y-109418476D01*
X186792000Y-109370857D01*
X186744380Y-109275619D01*
X186744380Y-108085142D02*
X186744380Y-108275619D01*
X186792000Y-108370857D01*
X186839619Y-108418476D01*
X186982476Y-108513714D01*
X187172952Y-108561333D01*
X187553904Y-108561333D01*
X187649142Y-108513714D01*
X187696761Y-108466095D01*
X187744380Y-108370857D01*
X187744380Y-108180380D01*
X187696761Y-108085142D01*
X187649142Y-108037523D01*
X187553904Y-107989904D01*
X187315809Y-107989904D01*
X187220571Y-108037523D01*
X187172952Y-108085142D01*
X187125333Y-108180380D01*
X187125333Y-108370857D01*
X187172952Y-108466095D01*
X187220571Y-108513714D01*
X187315809Y-108561333D01*
%TO.C,R217*%
X131356380Y-129262047D02*
X130880190Y-129595380D01*
X131356380Y-129833476D02*
X130356380Y-129833476D01*
X130356380Y-129452523D01*
X130404000Y-129357285D01*
X130451619Y-129309666D01*
X130546857Y-129262047D01*
X130689714Y-129262047D01*
X130784952Y-129309666D01*
X130832571Y-129357285D01*
X130880190Y-129452523D01*
X130880190Y-129833476D01*
X130451619Y-128881095D02*
X130404000Y-128833476D01*
X130356380Y-128738238D01*
X130356380Y-128500142D01*
X130404000Y-128404904D01*
X130451619Y-128357285D01*
X130546857Y-128309666D01*
X130642095Y-128309666D01*
X130784952Y-128357285D01*
X131356380Y-128928714D01*
X131356380Y-128309666D01*
X131356380Y-127357285D02*
X131356380Y-127928714D01*
X131356380Y-127643000D02*
X130356380Y-127643000D01*
X130499238Y-127738238D01*
X130594476Y-127833476D01*
X130642095Y-127928714D01*
X130356380Y-127023952D02*
X130356380Y-126357285D01*
X131356380Y-126785857D01*
%TO.C,J301*%
X162270380Y-138851714D02*
X162984666Y-138851714D01*
X163127523Y-138899333D01*
X163222761Y-138994571D01*
X163270380Y-139137428D01*
X163270380Y-139232666D01*
X162270380Y-138470761D02*
X162270380Y-137851714D01*
X162651333Y-138185047D01*
X162651333Y-138042190D01*
X162698952Y-137946952D01*
X162746571Y-137899333D01*
X162841809Y-137851714D01*
X163079904Y-137851714D01*
X163175142Y-137899333D01*
X163222761Y-137946952D01*
X163270380Y-138042190D01*
X163270380Y-138327904D01*
X163222761Y-138423142D01*
X163175142Y-138470761D01*
X162270380Y-137232666D02*
X162270380Y-137137428D01*
X162318000Y-137042190D01*
X162365619Y-136994571D01*
X162460857Y-136946952D01*
X162651333Y-136899333D01*
X162889428Y-136899333D01*
X163079904Y-136946952D01*
X163175142Y-136994571D01*
X163222761Y-137042190D01*
X163270380Y-137137428D01*
X163270380Y-137232666D01*
X163222761Y-137327904D01*
X163175142Y-137375523D01*
X163079904Y-137423142D01*
X162889428Y-137470761D01*
X162651333Y-137470761D01*
X162460857Y-137423142D01*
X162365619Y-137375523D01*
X162318000Y-137327904D01*
X162270380Y-137232666D01*
X163270380Y-135946952D02*
X163270380Y-136518380D01*
X163270380Y-136232666D02*
X162270380Y-136232666D01*
X162413238Y-136327904D01*
X162508476Y-136423142D01*
X162556095Y-136518380D01*
%TO.C,Q302*%
X195479619Y-106838619D02*
X195432000Y-106933857D01*
X195336761Y-107029095D01*
X195193904Y-107171952D01*
X195146285Y-107267190D01*
X195146285Y-107362428D01*
X195384380Y-107314809D02*
X195336761Y-107410047D01*
X195241523Y-107505285D01*
X195051047Y-107552904D01*
X194717714Y-107552904D01*
X194527238Y-107505285D01*
X194432000Y-107410047D01*
X194384380Y-107314809D01*
X194384380Y-107124333D01*
X194432000Y-107029095D01*
X194527238Y-106933857D01*
X194717714Y-106886238D01*
X195051047Y-106886238D01*
X195241523Y-106933857D01*
X195336761Y-107029095D01*
X195384380Y-107124333D01*
X195384380Y-107314809D01*
X194384380Y-106552904D02*
X194384380Y-105933857D01*
X194765333Y-106267190D01*
X194765333Y-106124333D01*
X194812952Y-106029095D01*
X194860571Y-105981476D01*
X194955809Y-105933857D01*
X195193904Y-105933857D01*
X195289142Y-105981476D01*
X195336761Y-106029095D01*
X195384380Y-106124333D01*
X195384380Y-106410047D01*
X195336761Y-106505285D01*
X195289142Y-106552904D01*
X194384380Y-105314809D02*
X194384380Y-105219571D01*
X194432000Y-105124333D01*
X194479619Y-105076714D01*
X194574857Y-105029095D01*
X194765333Y-104981476D01*
X195003428Y-104981476D01*
X195193904Y-105029095D01*
X195289142Y-105076714D01*
X195336761Y-105124333D01*
X195384380Y-105219571D01*
X195384380Y-105314809D01*
X195336761Y-105410047D01*
X195289142Y-105457666D01*
X195193904Y-105505285D01*
X195003428Y-105552904D01*
X194765333Y-105552904D01*
X194574857Y-105505285D01*
X194479619Y-105457666D01*
X194432000Y-105410047D01*
X194384380Y-105314809D01*
X194479619Y-104600523D02*
X194432000Y-104552904D01*
X194384380Y-104457666D01*
X194384380Y-104219571D01*
X194432000Y-104124333D01*
X194479619Y-104076714D01*
X194574857Y-104029095D01*
X194670095Y-104029095D01*
X194812952Y-104076714D01*
X195384380Y-104648142D01*
X195384380Y-104029095D01*
%TO.C,R205*%
X114006952Y-65189380D02*
X113673619Y-64713190D01*
X113435523Y-65189380D02*
X113435523Y-64189380D01*
X113816476Y-64189380D01*
X113911714Y-64237000D01*
X113959333Y-64284619D01*
X114006952Y-64379857D01*
X114006952Y-64522714D01*
X113959333Y-64617952D01*
X113911714Y-64665571D01*
X113816476Y-64713190D01*
X113435523Y-64713190D01*
X114387904Y-64284619D02*
X114435523Y-64237000D01*
X114530761Y-64189380D01*
X114768857Y-64189380D01*
X114864095Y-64237000D01*
X114911714Y-64284619D01*
X114959333Y-64379857D01*
X114959333Y-64475095D01*
X114911714Y-64617952D01*
X114340285Y-65189380D01*
X114959333Y-65189380D01*
X115578380Y-64189380D02*
X115673619Y-64189380D01*
X115768857Y-64237000D01*
X115816476Y-64284619D01*
X115864095Y-64379857D01*
X115911714Y-64570333D01*
X115911714Y-64808428D01*
X115864095Y-64998904D01*
X115816476Y-65094142D01*
X115768857Y-65141761D01*
X115673619Y-65189380D01*
X115578380Y-65189380D01*
X115483142Y-65141761D01*
X115435523Y-65094142D01*
X115387904Y-64998904D01*
X115340285Y-64808428D01*
X115340285Y-64570333D01*
X115387904Y-64379857D01*
X115435523Y-64284619D01*
X115483142Y-64237000D01*
X115578380Y-64189380D01*
X116816476Y-64189380D02*
X116340285Y-64189380D01*
X116292666Y-64665571D01*
X116340285Y-64617952D01*
X116435523Y-64570333D01*
X116673619Y-64570333D01*
X116768857Y-64617952D01*
X116816476Y-64665571D01*
X116864095Y-64760809D01*
X116864095Y-64998904D01*
X116816476Y-65094142D01*
X116768857Y-65141761D01*
X116673619Y-65189380D01*
X116435523Y-65189380D01*
X116340285Y-65141761D01*
X116292666Y-65094142D01*
%TO.C,D101*%
X103719523Y-138247380D02*
X103719523Y-137247380D01*
X103957619Y-137247380D01*
X104100476Y-137295000D01*
X104195714Y-137390238D01*
X104243333Y-137485476D01*
X104290952Y-137675952D01*
X104290952Y-137818809D01*
X104243333Y-138009285D01*
X104195714Y-138104523D01*
X104100476Y-138199761D01*
X103957619Y-138247380D01*
X103719523Y-138247380D01*
X105243333Y-138247380D02*
X104671904Y-138247380D01*
X104957619Y-138247380D02*
X104957619Y-137247380D01*
X104862380Y-137390238D01*
X104767142Y-137485476D01*
X104671904Y-137533095D01*
X105862380Y-137247380D02*
X105957619Y-137247380D01*
X106052857Y-137295000D01*
X106100476Y-137342619D01*
X106148095Y-137437857D01*
X106195714Y-137628333D01*
X106195714Y-137866428D01*
X106148095Y-138056904D01*
X106100476Y-138152142D01*
X106052857Y-138199761D01*
X105957619Y-138247380D01*
X105862380Y-138247380D01*
X105767142Y-138199761D01*
X105719523Y-138152142D01*
X105671904Y-138056904D01*
X105624285Y-137866428D01*
X105624285Y-137628333D01*
X105671904Y-137437857D01*
X105719523Y-137342619D01*
X105767142Y-137295000D01*
X105862380Y-137247380D01*
X107148095Y-138247380D02*
X106576666Y-138247380D01*
X106862380Y-138247380D02*
X106862380Y-137247380D01*
X106767142Y-137390238D01*
X106671904Y-137485476D01*
X106576666Y-137533095D01*
%TO.C,U303*%
X167957714Y-105230380D02*
X167957714Y-106039904D01*
X168005333Y-106135142D01*
X168052952Y-106182761D01*
X168148190Y-106230380D01*
X168338666Y-106230380D01*
X168433904Y-106182761D01*
X168481523Y-106135142D01*
X168529142Y-106039904D01*
X168529142Y-105230380D01*
X168910095Y-105230380D02*
X169529142Y-105230380D01*
X169195809Y-105611333D01*
X169338666Y-105611333D01*
X169433904Y-105658952D01*
X169481523Y-105706571D01*
X169529142Y-105801809D01*
X169529142Y-106039904D01*
X169481523Y-106135142D01*
X169433904Y-106182761D01*
X169338666Y-106230380D01*
X169052952Y-106230380D01*
X168957714Y-106182761D01*
X168910095Y-106135142D01*
X170148190Y-105230380D02*
X170243428Y-105230380D01*
X170338666Y-105278000D01*
X170386285Y-105325619D01*
X170433904Y-105420857D01*
X170481523Y-105611333D01*
X170481523Y-105849428D01*
X170433904Y-106039904D01*
X170386285Y-106135142D01*
X170338666Y-106182761D01*
X170243428Y-106230380D01*
X170148190Y-106230380D01*
X170052952Y-106182761D01*
X170005333Y-106135142D01*
X169957714Y-106039904D01*
X169910095Y-105849428D01*
X169910095Y-105611333D01*
X169957714Y-105420857D01*
X170005333Y-105325619D01*
X170052952Y-105278000D01*
X170148190Y-105230380D01*
X170814857Y-105230380D02*
X171433904Y-105230380D01*
X171100571Y-105611333D01*
X171243428Y-105611333D01*
X171338666Y-105658952D01*
X171386285Y-105706571D01*
X171433904Y-105801809D01*
X171433904Y-106039904D01*
X171386285Y-106135142D01*
X171338666Y-106182761D01*
X171243428Y-106230380D01*
X170957714Y-106230380D01*
X170862476Y-106182761D01*
X170814857Y-106135142D01*
%TO.C,R204*%
X118133952Y-60109380D02*
X117800619Y-59633190D01*
X117562523Y-60109380D02*
X117562523Y-59109380D01*
X117943476Y-59109380D01*
X118038714Y-59157000D01*
X118086333Y-59204619D01*
X118133952Y-59299857D01*
X118133952Y-59442714D01*
X118086333Y-59537952D01*
X118038714Y-59585571D01*
X117943476Y-59633190D01*
X117562523Y-59633190D01*
X118514904Y-59204619D02*
X118562523Y-59157000D01*
X118657761Y-59109380D01*
X118895857Y-59109380D01*
X118991095Y-59157000D01*
X119038714Y-59204619D01*
X119086333Y-59299857D01*
X119086333Y-59395095D01*
X119038714Y-59537952D01*
X118467285Y-60109380D01*
X119086333Y-60109380D01*
X119705380Y-59109380D02*
X119800619Y-59109380D01*
X119895857Y-59157000D01*
X119943476Y-59204619D01*
X119991095Y-59299857D01*
X120038714Y-59490333D01*
X120038714Y-59728428D01*
X119991095Y-59918904D01*
X119943476Y-60014142D01*
X119895857Y-60061761D01*
X119800619Y-60109380D01*
X119705380Y-60109380D01*
X119610142Y-60061761D01*
X119562523Y-60014142D01*
X119514904Y-59918904D01*
X119467285Y-59728428D01*
X119467285Y-59490333D01*
X119514904Y-59299857D01*
X119562523Y-59204619D01*
X119610142Y-59157000D01*
X119705380Y-59109380D01*
X120895857Y-59442714D02*
X120895857Y-60109380D01*
X120657761Y-59061761D02*
X120419666Y-59776047D01*
X121038714Y-59776047D01*
%TO.C,Q201*%
X140755619Y-131984619D02*
X140708000Y-132079857D01*
X140612761Y-132175095D01*
X140469904Y-132317952D01*
X140422285Y-132413190D01*
X140422285Y-132508428D01*
X140660380Y-132460809D02*
X140612761Y-132556047D01*
X140517523Y-132651285D01*
X140327047Y-132698904D01*
X139993714Y-132698904D01*
X139803238Y-132651285D01*
X139708000Y-132556047D01*
X139660380Y-132460809D01*
X139660380Y-132270333D01*
X139708000Y-132175095D01*
X139803238Y-132079857D01*
X139993714Y-132032238D01*
X140327047Y-132032238D01*
X140517523Y-132079857D01*
X140612761Y-132175095D01*
X140660380Y-132270333D01*
X140660380Y-132460809D01*
X139755619Y-131651285D02*
X139708000Y-131603666D01*
X139660380Y-131508428D01*
X139660380Y-131270333D01*
X139708000Y-131175095D01*
X139755619Y-131127476D01*
X139850857Y-131079857D01*
X139946095Y-131079857D01*
X140088952Y-131127476D01*
X140660380Y-131698904D01*
X140660380Y-131079857D01*
X139660380Y-130460809D02*
X139660380Y-130365571D01*
X139708000Y-130270333D01*
X139755619Y-130222714D01*
X139850857Y-130175095D01*
X140041333Y-130127476D01*
X140279428Y-130127476D01*
X140469904Y-130175095D01*
X140565142Y-130222714D01*
X140612761Y-130270333D01*
X140660380Y-130365571D01*
X140660380Y-130460809D01*
X140612761Y-130556047D01*
X140565142Y-130603666D01*
X140469904Y-130651285D01*
X140279428Y-130698904D01*
X140041333Y-130698904D01*
X139850857Y-130651285D01*
X139755619Y-130603666D01*
X139708000Y-130556047D01*
X139660380Y-130460809D01*
X140660380Y-129175095D02*
X140660380Y-129746523D01*
X140660380Y-129460809D02*
X139660380Y-129460809D01*
X139803238Y-129556047D01*
X139898476Y-129651285D01*
X139946095Y-129746523D01*
%TO.C,R212*%
X192047952Y-95862380D02*
X191714619Y-95386190D01*
X191476523Y-95862380D02*
X191476523Y-94862380D01*
X191857476Y-94862380D01*
X191952714Y-94910000D01*
X192000333Y-94957619D01*
X192047952Y-95052857D01*
X192047952Y-95195714D01*
X192000333Y-95290952D01*
X191952714Y-95338571D01*
X191857476Y-95386190D01*
X191476523Y-95386190D01*
X192428904Y-94957619D02*
X192476523Y-94910000D01*
X192571761Y-94862380D01*
X192809857Y-94862380D01*
X192905095Y-94910000D01*
X192952714Y-94957619D01*
X193000333Y-95052857D01*
X193000333Y-95148095D01*
X192952714Y-95290952D01*
X192381285Y-95862380D01*
X193000333Y-95862380D01*
X193952714Y-95862380D02*
X193381285Y-95862380D01*
X193667000Y-95862380D02*
X193667000Y-94862380D01*
X193571761Y-95005238D01*
X193476523Y-95100476D01*
X193381285Y-95148095D01*
X194333666Y-94957619D02*
X194381285Y-94910000D01*
X194476523Y-94862380D01*
X194714619Y-94862380D01*
X194809857Y-94910000D01*
X194857476Y-94957619D01*
X194905095Y-95052857D01*
X194905095Y-95148095D01*
X194857476Y-95290952D01*
X194286047Y-95862380D01*
X194905095Y-95862380D01*
%TO.C,C203*%
X129055952Y-54534142D02*
X129008333Y-54581761D01*
X128865476Y-54629380D01*
X128770238Y-54629380D01*
X128627380Y-54581761D01*
X128532142Y-54486523D01*
X128484523Y-54391285D01*
X128436904Y-54200809D01*
X128436904Y-54057952D01*
X128484523Y-53867476D01*
X128532142Y-53772238D01*
X128627380Y-53677000D01*
X128770238Y-53629380D01*
X128865476Y-53629380D01*
X129008333Y-53677000D01*
X129055952Y-53724619D01*
X129436904Y-53724619D02*
X129484523Y-53677000D01*
X129579761Y-53629380D01*
X129817857Y-53629380D01*
X129913095Y-53677000D01*
X129960714Y-53724619D01*
X130008333Y-53819857D01*
X130008333Y-53915095D01*
X129960714Y-54057952D01*
X129389285Y-54629380D01*
X130008333Y-54629380D01*
X130627380Y-53629380D02*
X130722619Y-53629380D01*
X130817857Y-53677000D01*
X130865476Y-53724619D01*
X130913095Y-53819857D01*
X130960714Y-54010333D01*
X130960714Y-54248428D01*
X130913095Y-54438904D01*
X130865476Y-54534142D01*
X130817857Y-54581761D01*
X130722619Y-54629380D01*
X130627380Y-54629380D01*
X130532142Y-54581761D01*
X130484523Y-54534142D01*
X130436904Y-54438904D01*
X130389285Y-54248428D01*
X130389285Y-54010333D01*
X130436904Y-53819857D01*
X130484523Y-53724619D01*
X130532142Y-53677000D01*
X130627380Y-53629380D01*
X131294047Y-53629380D02*
X131913095Y-53629380D01*
X131579761Y-54010333D01*
X131722619Y-54010333D01*
X131817857Y-54057952D01*
X131865476Y-54105571D01*
X131913095Y-54200809D01*
X131913095Y-54438904D01*
X131865476Y-54534142D01*
X131817857Y-54581761D01*
X131722619Y-54629380D01*
X131436904Y-54629380D01*
X131341666Y-54581761D01*
X131294047Y-54534142D01*
%TO.C,R206*%
X118133952Y-65222380D02*
X117800619Y-64746190D01*
X117562523Y-65222380D02*
X117562523Y-64222380D01*
X117943476Y-64222380D01*
X118038714Y-64270000D01*
X118086333Y-64317619D01*
X118133952Y-64412857D01*
X118133952Y-64555714D01*
X118086333Y-64650952D01*
X118038714Y-64698571D01*
X117943476Y-64746190D01*
X117562523Y-64746190D01*
X118514904Y-64317619D02*
X118562523Y-64270000D01*
X118657761Y-64222380D01*
X118895857Y-64222380D01*
X118991095Y-64270000D01*
X119038714Y-64317619D01*
X119086333Y-64412857D01*
X119086333Y-64508095D01*
X119038714Y-64650952D01*
X118467285Y-65222380D01*
X119086333Y-65222380D01*
X119705380Y-64222380D02*
X119800619Y-64222380D01*
X119895857Y-64270000D01*
X119943476Y-64317619D01*
X119991095Y-64412857D01*
X120038714Y-64603333D01*
X120038714Y-64841428D01*
X119991095Y-65031904D01*
X119943476Y-65127142D01*
X119895857Y-65174761D01*
X119800619Y-65222380D01*
X119705380Y-65222380D01*
X119610142Y-65174761D01*
X119562523Y-65127142D01*
X119514904Y-65031904D01*
X119467285Y-64841428D01*
X119467285Y-64603333D01*
X119514904Y-64412857D01*
X119562523Y-64317619D01*
X119610142Y-64270000D01*
X119705380Y-64222380D01*
X120895857Y-64222380D02*
X120705380Y-64222380D01*
X120610142Y-64270000D01*
X120562523Y-64317619D01*
X120467285Y-64460476D01*
X120419666Y-64650952D01*
X120419666Y-65031904D01*
X120467285Y-65127142D01*
X120514904Y-65174761D01*
X120610142Y-65222380D01*
X120800619Y-65222380D01*
X120895857Y-65174761D01*
X120943476Y-65127142D01*
X120991095Y-65031904D01*
X120991095Y-64793809D01*
X120943476Y-64698571D01*
X120895857Y-64650952D01*
X120800619Y-64603333D01*
X120610142Y-64603333D01*
X120514904Y-64650952D01*
X120467285Y-64698571D01*
X120419666Y-64793809D01*
%TO.C,R210*%
X118514952Y-75382380D02*
X118181619Y-74906190D01*
X117943523Y-75382380D02*
X117943523Y-74382380D01*
X118324476Y-74382380D01*
X118419714Y-74430000D01*
X118467333Y-74477619D01*
X118514952Y-74572857D01*
X118514952Y-74715714D01*
X118467333Y-74810952D01*
X118419714Y-74858571D01*
X118324476Y-74906190D01*
X117943523Y-74906190D01*
X118895904Y-74477619D02*
X118943523Y-74430000D01*
X119038761Y-74382380D01*
X119276857Y-74382380D01*
X119372095Y-74430000D01*
X119419714Y-74477619D01*
X119467333Y-74572857D01*
X119467333Y-74668095D01*
X119419714Y-74810952D01*
X118848285Y-75382380D01*
X119467333Y-75382380D01*
X120419714Y-75382380D02*
X119848285Y-75382380D01*
X120134000Y-75382380D02*
X120134000Y-74382380D01*
X120038761Y-74525238D01*
X119943523Y-74620476D01*
X119848285Y-74668095D01*
X121038761Y-74382380D02*
X121134000Y-74382380D01*
X121229238Y-74430000D01*
X121276857Y-74477619D01*
X121324476Y-74572857D01*
X121372095Y-74763333D01*
X121372095Y-75001428D01*
X121324476Y-75191904D01*
X121276857Y-75287142D01*
X121229238Y-75334761D01*
X121134000Y-75382380D01*
X121038761Y-75382380D01*
X120943523Y-75334761D01*
X120895904Y-75287142D01*
X120848285Y-75191904D01*
X120800666Y-75001428D01*
X120800666Y-74763333D01*
X120848285Y-74572857D01*
X120895904Y-74477619D01*
X120943523Y-74430000D01*
X121038761Y-74382380D01*
%TO.C,R101*%
X105100380Y-132945047D02*
X104624190Y-133278380D01*
X105100380Y-133516476D02*
X104100380Y-133516476D01*
X104100380Y-133135523D01*
X104148000Y-133040285D01*
X104195619Y-132992666D01*
X104290857Y-132945047D01*
X104433714Y-132945047D01*
X104528952Y-132992666D01*
X104576571Y-133040285D01*
X104624190Y-133135523D01*
X104624190Y-133516476D01*
X105100380Y-131992666D02*
X105100380Y-132564095D01*
X105100380Y-132278380D02*
X104100380Y-132278380D01*
X104243238Y-132373619D01*
X104338476Y-132468857D01*
X104386095Y-132564095D01*
X104100380Y-131373619D02*
X104100380Y-131278380D01*
X104148000Y-131183142D01*
X104195619Y-131135523D01*
X104290857Y-131087904D01*
X104481333Y-131040285D01*
X104719428Y-131040285D01*
X104909904Y-131087904D01*
X105005142Y-131135523D01*
X105052761Y-131183142D01*
X105100380Y-131278380D01*
X105100380Y-131373619D01*
X105052761Y-131468857D01*
X105005142Y-131516476D01*
X104909904Y-131564095D01*
X104719428Y-131611714D01*
X104481333Y-131611714D01*
X104290857Y-131564095D01*
X104195619Y-131516476D01*
X104148000Y-131468857D01*
X104100380Y-131373619D01*
X105100380Y-130087904D02*
X105100380Y-130659333D01*
X105100380Y-130373619D02*
X104100380Y-130373619D01*
X104243238Y-130468857D01*
X104338476Y-130564095D01*
X104386095Y-130659333D01*
%TO.C,C306*%
X174508952Y-110880142D02*
X174461333Y-110927761D01*
X174318476Y-110975380D01*
X174223238Y-110975380D01*
X174080380Y-110927761D01*
X173985142Y-110832523D01*
X173937523Y-110737285D01*
X173889904Y-110546809D01*
X173889904Y-110403952D01*
X173937523Y-110213476D01*
X173985142Y-110118238D01*
X174080380Y-110023000D01*
X174223238Y-109975380D01*
X174318476Y-109975380D01*
X174461333Y-110023000D01*
X174508952Y-110070619D01*
X174842285Y-109975380D02*
X175461333Y-109975380D01*
X175128000Y-110356333D01*
X175270857Y-110356333D01*
X175366095Y-110403952D01*
X175413714Y-110451571D01*
X175461333Y-110546809D01*
X175461333Y-110784904D01*
X175413714Y-110880142D01*
X175366095Y-110927761D01*
X175270857Y-110975380D01*
X174985142Y-110975380D01*
X174889904Y-110927761D01*
X174842285Y-110880142D01*
X176080380Y-109975380D02*
X176175619Y-109975380D01*
X176270857Y-110023000D01*
X176318476Y-110070619D01*
X176366095Y-110165857D01*
X176413714Y-110356333D01*
X176413714Y-110594428D01*
X176366095Y-110784904D01*
X176318476Y-110880142D01*
X176270857Y-110927761D01*
X176175619Y-110975380D01*
X176080380Y-110975380D01*
X175985142Y-110927761D01*
X175937523Y-110880142D01*
X175889904Y-110784904D01*
X175842285Y-110594428D01*
X175842285Y-110356333D01*
X175889904Y-110165857D01*
X175937523Y-110070619D01*
X175985142Y-110023000D01*
X176080380Y-109975380D01*
X177270857Y-109975380D02*
X177080380Y-109975380D01*
X176985142Y-110023000D01*
X176937523Y-110070619D01*
X176842285Y-110213476D01*
X176794666Y-110403952D01*
X176794666Y-110784904D01*
X176842285Y-110880142D01*
X176889904Y-110927761D01*
X176985142Y-110975380D01*
X177175619Y-110975380D01*
X177270857Y-110927761D01*
X177318476Y-110880142D01*
X177366095Y-110784904D01*
X177366095Y-110546809D01*
X177318476Y-110451571D01*
X177270857Y-110403952D01*
X177175619Y-110356333D01*
X176985142Y-110356333D01*
X176889904Y-110403952D01*
X176842285Y-110451571D01*
X176794666Y-110546809D01*
%TO.C,R215*%
X192110952Y-98529380D02*
X191777619Y-98053190D01*
X191539523Y-98529380D02*
X191539523Y-97529380D01*
X191920476Y-97529380D01*
X192015714Y-97577000D01*
X192063333Y-97624619D01*
X192110952Y-97719857D01*
X192110952Y-97862714D01*
X192063333Y-97957952D01*
X192015714Y-98005571D01*
X191920476Y-98053190D01*
X191539523Y-98053190D01*
X192491904Y-97624619D02*
X192539523Y-97577000D01*
X192634761Y-97529380D01*
X192872857Y-97529380D01*
X192968095Y-97577000D01*
X193015714Y-97624619D01*
X193063333Y-97719857D01*
X193063333Y-97815095D01*
X193015714Y-97957952D01*
X192444285Y-98529380D01*
X193063333Y-98529380D01*
X194015714Y-98529380D02*
X193444285Y-98529380D01*
X193730000Y-98529380D02*
X193730000Y-97529380D01*
X193634761Y-97672238D01*
X193539523Y-97767476D01*
X193444285Y-97815095D01*
X194920476Y-97529380D02*
X194444285Y-97529380D01*
X194396666Y-98005571D01*
X194444285Y-97957952D01*
X194539523Y-97910333D01*
X194777619Y-97910333D01*
X194872857Y-97957952D01*
X194920476Y-98005571D01*
X194968095Y-98100809D01*
X194968095Y-98338904D01*
X194920476Y-98434142D01*
X194872857Y-98481761D01*
X194777619Y-98529380D01*
X194539523Y-98529380D01*
X194444285Y-98481761D01*
X194396666Y-98434142D01*
%TO.C,D102*%
X109180523Y-138247380D02*
X109180523Y-137247380D01*
X109418619Y-137247380D01*
X109561476Y-137295000D01*
X109656714Y-137390238D01*
X109704333Y-137485476D01*
X109751952Y-137675952D01*
X109751952Y-137818809D01*
X109704333Y-138009285D01*
X109656714Y-138104523D01*
X109561476Y-138199761D01*
X109418619Y-138247380D01*
X109180523Y-138247380D01*
X110704333Y-138247380D02*
X110132904Y-138247380D01*
X110418619Y-138247380D02*
X110418619Y-137247380D01*
X110323380Y-137390238D01*
X110228142Y-137485476D01*
X110132904Y-137533095D01*
X111323380Y-137247380D02*
X111418619Y-137247380D01*
X111513857Y-137295000D01*
X111561476Y-137342619D01*
X111609095Y-137437857D01*
X111656714Y-137628333D01*
X111656714Y-137866428D01*
X111609095Y-138056904D01*
X111561476Y-138152142D01*
X111513857Y-138199761D01*
X111418619Y-138247380D01*
X111323380Y-138247380D01*
X111228142Y-138199761D01*
X111180523Y-138152142D01*
X111132904Y-138056904D01*
X111085285Y-137866428D01*
X111085285Y-137628333D01*
X111132904Y-137437857D01*
X111180523Y-137342619D01*
X111228142Y-137295000D01*
X111323380Y-137247380D01*
X112037666Y-137342619D02*
X112085285Y-137295000D01*
X112180523Y-137247380D01*
X112418619Y-137247380D01*
X112513857Y-137295000D01*
X112561476Y-137342619D01*
X112609095Y-137437857D01*
X112609095Y-137533095D01*
X112561476Y-137675952D01*
X111990047Y-138247380D01*
X112609095Y-138247380D01*
%TO.C,R305*%
X174648952Y-101163380D02*
X174315619Y-100687190D01*
X174077523Y-101163380D02*
X174077523Y-100163380D01*
X174458476Y-100163380D01*
X174553714Y-100211000D01*
X174601333Y-100258619D01*
X174648952Y-100353857D01*
X174648952Y-100496714D01*
X174601333Y-100591952D01*
X174553714Y-100639571D01*
X174458476Y-100687190D01*
X174077523Y-100687190D01*
X174982285Y-100163380D02*
X175601333Y-100163380D01*
X175268000Y-100544333D01*
X175410857Y-100544333D01*
X175506095Y-100591952D01*
X175553714Y-100639571D01*
X175601333Y-100734809D01*
X175601333Y-100972904D01*
X175553714Y-101068142D01*
X175506095Y-101115761D01*
X175410857Y-101163380D01*
X175125142Y-101163380D01*
X175029904Y-101115761D01*
X174982285Y-101068142D01*
X176220380Y-100163380D02*
X176315619Y-100163380D01*
X176410857Y-100211000D01*
X176458476Y-100258619D01*
X176506095Y-100353857D01*
X176553714Y-100544333D01*
X176553714Y-100782428D01*
X176506095Y-100972904D01*
X176458476Y-101068142D01*
X176410857Y-101115761D01*
X176315619Y-101163380D01*
X176220380Y-101163380D01*
X176125142Y-101115761D01*
X176077523Y-101068142D01*
X176029904Y-100972904D01*
X175982285Y-100782428D01*
X175982285Y-100544333D01*
X176029904Y-100353857D01*
X176077523Y-100258619D01*
X176125142Y-100211000D01*
X176220380Y-100163380D01*
X177458476Y-100163380D02*
X176982285Y-100163380D01*
X176934666Y-100639571D01*
X176982285Y-100591952D01*
X177077523Y-100544333D01*
X177315619Y-100544333D01*
X177410857Y-100591952D01*
X177458476Y-100639571D01*
X177506095Y-100734809D01*
X177506095Y-100972904D01*
X177458476Y-101068142D01*
X177410857Y-101115761D01*
X177315619Y-101163380D01*
X177077523Y-101163380D01*
X176982285Y-101115761D01*
X176934666Y-101068142D01*
%TO.C,U202*%
X148348914Y-56018180D02*
X148348914Y-56827704D01*
X148396533Y-56922942D01*
X148444152Y-56970561D01*
X148539390Y-57018180D01*
X148729866Y-57018180D01*
X148825104Y-56970561D01*
X148872723Y-56922942D01*
X148920342Y-56827704D01*
X148920342Y-56018180D01*
X149348914Y-56113419D02*
X149396533Y-56065800D01*
X149491771Y-56018180D01*
X149729866Y-56018180D01*
X149825104Y-56065800D01*
X149872723Y-56113419D01*
X149920342Y-56208657D01*
X149920342Y-56303895D01*
X149872723Y-56446752D01*
X149301295Y-57018180D01*
X149920342Y-57018180D01*
X150539390Y-56018180D02*
X150634628Y-56018180D01*
X150729866Y-56065800D01*
X150777485Y-56113419D01*
X150825104Y-56208657D01*
X150872723Y-56399133D01*
X150872723Y-56637228D01*
X150825104Y-56827704D01*
X150777485Y-56922942D01*
X150729866Y-56970561D01*
X150634628Y-57018180D01*
X150539390Y-57018180D01*
X150444152Y-56970561D01*
X150396533Y-56922942D01*
X150348914Y-56827704D01*
X150301295Y-56637228D01*
X150301295Y-56399133D01*
X150348914Y-56208657D01*
X150396533Y-56113419D01*
X150444152Y-56065800D01*
X150539390Y-56018180D01*
X151253676Y-56113419D02*
X151301295Y-56065800D01*
X151396533Y-56018180D01*
X151634628Y-56018180D01*
X151729866Y-56065800D01*
X151777485Y-56113419D01*
X151825104Y-56208657D01*
X151825104Y-56303895D01*
X151777485Y-56446752D01*
X151206057Y-57018180D01*
X151825104Y-57018180D01*
%TO.C,J302*%
X148554380Y-133111714D02*
X149268666Y-133111714D01*
X149411523Y-133159333D01*
X149506761Y-133254571D01*
X149554380Y-133397428D01*
X149554380Y-133492666D01*
X148554380Y-132730761D02*
X148554380Y-132111714D01*
X148935333Y-132445047D01*
X148935333Y-132302190D01*
X148982952Y-132206952D01*
X149030571Y-132159333D01*
X149125809Y-132111714D01*
X149363904Y-132111714D01*
X149459142Y-132159333D01*
X149506761Y-132206952D01*
X149554380Y-132302190D01*
X149554380Y-132587904D01*
X149506761Y-132683142D01*
X149459142Y-132730761D01*
X148554380Y-131492666D02*
X148554380Y-131397428D01*
X148602000Y-131302190D01*
X148649619Y-131254571D01*
X148744857Y-131206952D01*
X148935333Y-131159333D01*
X149173428Y-131159333D01*
X149363904Y-131206952D01*
X149459142Y-131254571D01*
X149506761Y-131302190D01*
X149554380Y-131397428D01*
X149554380Y-131492666D01*
X149506761Y-131587904D01*
X149459142Y-131635523D01*
X149363904Y-131683142D01*
X149173428Y-131730761D01*
X148935333Y-131730761D01*
X148744857Y-131683142D01*
X148649619Y-131635523D01*
X148602000Y-131587904D01*
X148554380Y-131492666D01*
X148649619Y-130778380D02*
X148602000Y-130730761D01*
X148554380Y-130635523D01*
X148554380Y-130397428D01*
X148602000Y-130302190D01*
X148649619Y-130254571D01*
X148744857Y-130206952D01*
X148840095Y-130206952D01*
X148982952Y-130254571D01*
X149554380Y-130826000D01*
X149554380Y-130206952D01*
%TO.C,C201*%
X125258952Y-105038142D02*
X125211333Y-105085761D01*
X125068476Y-105133380D01*
X124973238Y-105133380D01*
X124830380Y-105085761D01*
X124735142Y-104990523D01*
X124687523Y-104895285D01*
X124639904Y-104704809D01*
X124639904Y-104561952D01*
X124687523Y-104371476D01*
X124735142Y-104276238D01*
X124830380Y-104181000D01*
X124973238Y-104133380D01*
X125068476Y-104133380D01*
X125211333Y-104181000D01*
X125258952Y-104228619D01*
X125639904Y-104228619D02*
X125687523Y-104181000D01*
X125782761Y-104133380D01*
X126020857Y-104133380D01*
X126116095Y-104181000D01*
X126163714Y-104228619D01*
X126211333Y-104323857D01*
X126211333Y-104419095D01*
X126163714Y-104561952D01*
X125592285Y-105133380D01*
X126211333Y-105133380D01*
X126830380Y-104133380D02*
X126925619Y-104133380D01*
X127020857Y-104181000D01*
X127068476Y-104228619D01*
X127116095Y-104323857D01*
X127163714Y-104514333D01*
X127163714Y-104752428D01*
X127116095Y-104942904D01*
X127068476Y-105038142D01*
X127020857Y-105085761D01*
X126925619Y-105133380D01*
X126830380Y-105133380D01*
X126735142Y-105085761D01*
X126687523Y-105038142D01*
X126639904Y-104942904D01*
X126592285Y-104752428D01*
X126592285Y-104514333D01*
X126639904Y-104323857D01*
X126687523Y-104228619D01*
X126735142Y-104181000D01*
X126830380Y-104133380D01*
X128116095Y-105133380D02*
X127544666Y-105133380D01*
X127830380Y-105133380D02*
X127830380Y-104133380D01*
X127735142Y-104276238D01*
X127639904Y-104371476D01*
X127544666Y-104419095D01*
%TO.C,R304*%
X183792952Y-121577380D02*
X183459619Y-121101190D01*
X183221523Y-121577380D02*
X183221523Y-120577380D01*
X183602476Y-120577380D01*
X183697714Y-120625000D01*
X183745333Y-120672619D01*
X183792952Y-120767857D01*
X183792952Y-120910714D01*
X183745333Y-121005952D01*
X183697714Y-121053571D01*
X183602476Y-121101190D01*
X183221523Y-121101190D01*
X184126285Y-120577380D02*
X184745333Y-120577380D01*
X184412000Y-120958333D01*
X184554857Y-120958333D01*
X184650095Y-121005952D01*
X184697714Y-121053571D01*
X184745333Y-121148809D01*
X184745333Y-121386904D01*
X184697714Y-121482142D01*
X184650095Y-121529761D01*
X184554857Y-121577380D01*
X184269142Y-121577380D01*
X184173904Y-121529761D01*
X184126285Y-121482142D01*
X185364380Y-120577380D02*
X185459619Y-120577380D01*
X185554857Y-120625000D01*
X185602476Y-120672619D01*
X185650095Y-120767857D01*
X185697714Y-120958333D01*
X185697714Y-121196428D01*
X185650095Y-121386904D01*
X185602476Y-121482142D01*
X185554857Y-121529761D01*
X185459619Y-121577380D01*
X185364380Y-121577380D01*
X185269142Y-121529761D01*
X185221523Y-121482142D01*
X185173904Y-121386904D01*
X185126285Y-121196428D01*
X185126285Y-120958333D01*
X185173904Y-120767857D01*
X185221523Y-120672619D01*
X185269142Y-120625000D01*
X185364380Y-120577380D01*
X186554857Y-120910714D02*
X186554857Y-121577380D01*
X186316761Y-120529761D02*
X186078666Y-121244047D01*
X186697714Y-121244047D01*
%TO.C,C304*%
X188364952Y-125198142D02*
X188317333Y-125245761D01*
X188174476Y-125293380D01*
X188079238Y-125293380D01*
X187936380Y-125245761D01*
X187841142Y-125150523D01*
X187793523Y-125055285D01*
X187745904Y-124864809D01*
X187745904Y-124721952D01*
X187793523Y-124531476D01*
X187841142Y-124436238D01*
X187936380Y-124341000D01*
X188079238Y-124293380D01*
X188174476Y-124293380D01*
X188317333Y-124341000D01*
X188364952Y-124388619D01*
X188698285Y-124293380D02*
X189317333Y-124293380D01*
X188984000Y-124674333D01*
X189126857Y-124674333D01*
X189222095Y-124721952D01*
X189269714Y-124769571D01*
X189317333Y-124864809D01*
X189317333Y-125102904D01*
X189269714Y-125198142D01*
X189222095Y-125245761D01*
X189126857Y-125293380D01*
X188841142Y-125293380D01*
X188745904Y-125245761D01*
X188698285Y-125198142D01*
X189936380Y-124293380D02*
X190031619Y-124293380D01*
X190126857Y-124341000D01*
X190174476Y-124388619D01*
X190222095Y-124483857D01*
X190269714Y-124674333D01*
X190269714Y-124912428D01*
X190222095Y-125102904D01*
X190174476Y-125198142D01*
X190126857Y-125245761D01*
X190031619Y-125293380D01*
X189936380Y-125293380D01*
X189841142Y-125245761D01*
X189793523Y-125198142D01*
X189745904Y-125102904D01*
X189698285Y-124912428D01*
X189698285Y-124674333D01*
X189745904Y-124483857D01*
X189793523Y-124388619D01*
X189841142Y-124341000D01*
X189936380Y-124293380D01*
X191126857Y-124626714D02*
X191126857Y-125293380D01*
X190888761Y-124245761D02*
X190650666Y-124960047D01*
X191269714Y-124960047D01*
%TO.C,Q304*%
X154019380Y-123877619D02*
X153924142Y-123830000D01*
X153828904Y-123734761D01*
X153686047Y-123591904D01*
X153590809Y-123544285D01*
X153495571Y-123544285D01*
X153543190Y-123782380D02*
X153447952Y-123734761D01*
X153352714Y-123639523D01*
X153305095Y-123449047D01*
X153305095Y-123115714D01*
X153352714Y-122925238D01*
X153447952Y-122830000D01*
X153543190Y-122782380D01*
X153733666Y-122782380D01*
X153828904Y-122830000D01*
X153924142Y-122925238D01*
X153971761Y-123115714D01*
X153971761Y-123449047D01*
X153924142Y-123639523D01*
X153828904Y-123734761D01*
X153733666Y-123782380D01*
X153543190Y-123782380D01*
X154305095Y-122782380D02*
X154924142Y-122782380D01*
X154590809Y-123163333D01*
X154733666Y-123163333D01*
X154828904Y-123210952D01*
X154876523Y-123258571D01*
X154924142Y-123353809D01*
X154924142Y-123591904D01*
X154876523Y-123687142D01*
X154828904Y-123734761D01*
X154733666Y-123782380D01*
X154447952Y-123782380D01*
X154352714Y-123734761D01*
X154305095Y-123687142D01*
X155543190Y-122782380D02*
X155638428Y-122782380D01*
X155733666Y-122830000D01*
X155781285Y-122877619D01*
X155828904Y-122972857D01*
X155876523Y-123163333D01*
X155876523Y-123401428D01*
X155828904Y-123591904D01*
X155781285Y-123687142D01*
X155733666Y-123734761D01*
X155638428Y-123782380D01*
X155543190Y-123782380D01*
X155447952Y-123734761D01*
X155400333Y-123687142D01*
X155352714Y-123591904D01*
X155305095Y-123401428D01*
X155305095Y-123163333D01*
X155352714Y-122972857D01*
X155400333Y-122877619D01*
X155447952Y-122830000D01*
X155543190Y-122782380D01*
X156733666Y-123115714D02*
X156733666Y-123782380D01*
X156495571Y-122734761D02*
X156257476Y-123449047D01*
X156876523Y-123449047D01*
%TO.C,R103*%
X110434380Y-132945047D02*
X109958190Y-133278380D01*
X110434380Y-133516476D02*
X109434380Y-133516476D01*
X109434380Y-133135523D01*
X109482000Y-133040285D01*
X109529619Y-132992666D01*
X109624857Y-132945047D01*
X109767714Y-132945047D01*
X109862952Y-132992666D01*
X109910571Y-133040285D01*
X109958190Y-133135523D01*
X109958190Y-133516476D01*
X110434380Y-131992666D02*
X110434380Y-132564095D01*
X110434380Y-132278380D02*
X109434380Y-132278380D01*
X109577238Y-132373619D01*
X109672476Y-132468857D01*
X109720095Y-132564095D01*
X109434380Y-131373619D02*
X109434380Y-131278380D01*
X109482000Y-131183142D01*
X109529619Y-131135523D01*
X109624857Y-131087904D01*
X109815333Y-131040285D01*
X110053428Y-131040285D01*
X110243904Y-131087904D01*
X110339142Y-131135523D01*
X110386761Y-131183142D01*
X110434380Y-131278380D01*
X110434380Y-131373619D01*
X110386761Y-131468857D01*
X110339142Y-131516476D01*
X110243904Y-131564095D01*
X110053428Y-131611714D01*
X109815333Y-131611714D01*
X109624857Y-131564095D01*
X109529619Y-131516476D01*
X109482000Y-131468857D01*
X109434380Y-131373619D01*
X109434380Y-130706952D02*
X109434380Y-130087904D01*
X109815333Y-130421238D01*
X109815333Y-130278380D01*
X109862952Y-130183142D01*
X109910571Y-130135523D01*
X110005809Y-130087904D01*
X110243904Y-130087904D01*
X110339142Y-130135523D01*
X110386761Y-130183142D01*
X110434380Y-130278380D01*
X110434380Y-130564095D01*
X110386761Y-130659333D01*
X110339142Y-130706952D01*
%TO.C,R214*%
X177061952Y-98369380D02*
X176728619Y-97893190D01*
X176490523Y-98369380D02*
X176490523Y-97369380D01*
X176871476Y-97369380D01*
X176966714Y-97417000D01*
X177014333Y-97464619D01*
X177061952Y-97559857D01*
X177061952Y-97702714D01*
X177014333Y-97797952D01*
X176966714Y-97845571D01*
X176871476Y-97893190D01*
X176490523Y-97893190D01*
X177442904Y-97464619D02*
X177490523Y-97417000D01*
X177585761Y-97369380D01*
X177823857Y-97369380D01*
X177919095Y-97417000D01*
X177966714Y-97464619D01*
X178014333Y-97559857D01*
X178014333Y-97655095D01*
X177966714Y-97797952D01*
X177395285Y-98369380D01*
X178014333Y-98369380D01*
X178966714Y-98369380D02*
X178395285Y-98369380D01*
X178681000Y-98369380D02*
X178681000Y-97369380D01*
X178585761Y-97512238D01*
X178490523Y-97607476D01*
X178395285Y-97655095D01*
X179823857Y-97702714D02*
X179823857Y-98369380D01*
X179585761Y-97321761D02*
X179347666Y-98036047D01*
X179966714Y-98036047D01*
%TO.C,C303*%
X179220952Y-112625142D02*
X179173333Y-112672761D01*
X179030476Y-112720380D01*
X178935238Y-112720380D01*
X178792380Y-112672761D01*
X178697142Y-112577523D01*
X178649523Y-112482285D01*
X178601904Y-112291809D01*
X178601904Y-112148952D01*
X178649523Y-111958476D01*
X178697142Y-111863238D01*
X178792380Y-111768000D01*
X178935238Y-111720380D01*
X179030476Y-111720380D01*
X179173333Y-111768000D01*
X179220952Y-111815619D01*
X179554285Y-111720380D02*
X180173333Y-111720380D01*
X179840000Y-112101333D01*
X179982857Y-112101333D01*
X180078095Y-112148952D01*
X180125714Y-112196571D01*
X180173333Y-112291809D01*
X180173333Y-112529904D01*
X180125714Y-112625142D01*
X180078095Y-112672761D01*
X179982857Y-112720380D01*
X179697142Y-112720380D01*
X179601904Y-112672761D01*
X179554285Y-112625142D01*
X180792380Y-111720380D02*
X180887619Y-111720380D01*
X180982857Y-111768000D01*
X181030476Y-111815619D01*
X181078095Y-111910857D01*
X181125714Y-112101333D01*
X181125714Y-112339428D01*
X181078095Y-112529904D01*
X181030476Y-112625142D01*
X180982857Y-112672761D01*
X180887619Y-112720380D01*
X180792380Y-112720380D01*
X180697142Y-112672761D01*
X180649523Y-112625142D01*
X180601904Y-112529904D01*
X180554285Y-112339428D01*
X180554285Y-112101333D01*
X180601904Y-111910857D01*
X180649523Y-111815619D01*
X180697142Y-111768000D01*
X180792380Y-111720380D01*
X181459047Y-111720380D02*
X182078095Y-111720380D01*
X181744761Y-112101333D01*
X181887619Y-112101333D01*
X181982857Y-112148952D01*
X182030476Y-112196571D01*
X182078095Y-112291809D01*
X182078095Y-112529904D01*
X182030476Y-112625142D01*
X181982857Y-112672761D01*
X181887619Y-112720380D01*
X181601904Y-112720380D01*
X181506666Y-112672761D01*
X181459047Y-112625142D01*
%TO.C,C307*%
X155458952Y-110941142D02*
X155411333Y-110988761D01*
X155268476Y-111036380D01*
X155173238Y-111036380D01*
X155030380Y-110988761D01*
X154935142Y-110893523D01*
X154887523Y-110798285D01*
X154839904Y-110607809D01*
X154839904Y-110464952D01*
X154887523Y-110274476D01*
X154935142Y-110179238D01*
X155030380Y-110084000D01*
X155173238Y-110036380D01*
X155268476Y-110036380D01*
X155411333Y-110084000D01*
X155458952Y-110131619D01*
X155792285Y-110036380D02*
X156411333Y-110036380D01*
X156078000Y-110417333D01*
X156220857Y-110417333D01*
X156316095Y-110464952D01*
X156363714Y-110512571D01*
X156411333Y-110607809D01*
X156411333Y-110845904D01*
X156363714Y-110941142D01*
X156316095Y-110988761D01*
X156220857Y-111036380D01*
X155935142Y-111036380D01*
X155839904Y-110988761D01*
X155792285Y-110941142D01*
X157030380Y-110036380D02*
X157125619Y-110036380D01*
X157220857Y-110084000D01*
X157268476Y-110131619D01*
X157316095Y-110226857D01*
X157363714Y-110417333D01*
X157363714Y-110655428D01*
X157316095Y-110845904D01*
X157268476Y-110941142D01*
X157220857Y-110988761D01*
X157125619Y-111036380D01*
X157030380Y-111036380D01*
X156935142Y-110988761D01*
X156887523Y-110941142D01*
X156839904Y-110845904D01*
X156792285Y-110655428D01*
X156792285Y-110417333D01*
X156839904Y-110226857D01*
X156887523Y-110131619D01*
X156935142Y-110084000D01*
X157030380Y-110036380D01*
X157697047Y-110036380D02*
X158363714Y-110036380D01*
X157935142Y-111036380D01*
%TO.C,SW101*%
X140970285Y-135405761D02*
X141113142Y-135453380D01*
X141351238Y-135453380D01*
X141446476Y-135405761D01*
X141494095Y-135358142D01*
X141541714Y-135262904D01*
X141541714Y-135167666D01*
X141494095Y-135072428D01*
X141446476Y-135024809D01*
X141351238Y-134977190D01*
X141160761Y-134929571D01*
X141065523Y-134881952D01*
X141017904Y-134834333D01*
X140970285Y-134739095D01*
X140970285Y-134643857D01*
X141017904Y-134548619D01*
X141065523Y-134501000D01*
X141160761Y-134453380D01*
X141398857Y-134453380D01*
X141541714Y-134501000D01*
X141875047Y-134453380D02*
X142113142Y-135453380D01*
X142303619Y-134739095D01*
X142494095Y-135453380D01*
X142732190Y-134453380D01*
X143636952Y-135453380D02*
X143065523Y-135453380D01*
X143351238Y-135453380D02*
X143351238Y-134453380D01*
X143256000Y-134596238D01*
X143160761Y-134691476D01*
X143065523Y-134739095D01*
X144256000Y-134453380D02*
X144351238Y-134453380D01*
X144446476Y-134501000D01*
X144494095Y-134548619D01*
X144541714Y-134643857D01*
X144589333Y-134834333D01*
X144589333Y-135072428D01*
X144541714Y-135262904D01*
X144494095Y-135358142D01*
X144446476Y-135405761D01*
X144351238Y-135453380D01*
X144256000Y-135453380D01*
X144160761Y-135405761D01*
X144113142Y-135358142D01*
X144065523Y-135262904D01*
X144017904Y-135072428D01*
X144017904Y-134834333D01*
X144065523Y-134643857D01*
X144113142Y-134548619D01*
X144160761Y-134501000D01*
X144256000Y-134453380D01*
X145541714Y-135453380D02*
X144970285Y-135453380D01*
X145256000Y-135453380D02*
X145256000Y-134453380D01*
X145160761Y-134596238D01*
X145065523Y-134691476D01*
X144970285Y-134739095D01*
%TO.C,J102*%
X186039285Y-49744380D02*
X186039285Y-50458666D01*
X185991666Y-50601523D01*
X185896428Y-50696761D01*
X185753571Y-50744380D01*
X185658333Y-50744380D01*
X187039285Y-50744380D02*
X186467857Y-50744380D01*
X186753571Y-50744380D02*
X186753571Y-49744380D01*
X186658333Y-49887238D01*
X186563095Y-49982476D01*
X186467857Y-50030095D01*
X187658333Y-49744380D02*
X187753571Y-49744380D01*
X187848809Y-49792000D01*
X187896428Y-49839619D01*
X187944047Y-49934857D01*
X187991666Y-50125333D01*
X187991666Y-50363428D01*
X187944047Y-50553904D01*
X187896428Y-50649142D01*
X187848809Y-50696761D01*
X187753571Y-50744380D01*
X187658333Y-50744380D01*
X187563095Y-50696761D01*
X187515476Y-50649142D01*
X187467857Y-50553904D01*
X187420238Y-50363428D01*
X187420238Y-50125333D01*
X187467857Y-49934857D01*
X187515476Y-49839619D01*
X187563095Y-49792000D01*
X187658333Y-49744380D01*
X188372619Y-49839619D02*
X188420238Y-49792000D01*
X188515476Y-49744380D01*
X188753571Y-49744380D01*
X188848809Y-49792000D01*
X188896428Y-49839619D01*
X188944047Y-49934857D01*
X188944047Y-50030095D01*
X188896428Y-50172952D01*
X188325000Y-50744380D01*
X188944047Y-50744380D01*
%TO.C,R301*%
X140485952Y-127325380D02*
X140152619Y-126849190D01*
X139914523Y-127325380D02*
X139914523Y-126325380D01*
X140295476Y-126325380D01*
X140390714Y-126373000D01*
X140438333Y-126420619D01*
X140485952Y-126515857D01*
X140485952Y-126658714D01*
X140438333Y-126753952D01*
X140390714Y-126801571D01*
X140295476Y-126849190D01*
X139914523Y-126849190D01*
X140819285Y-126325380D02*
X141438333Y-126325380D01*
X141105000Y-126706333D01*
X141247857Y-126706333D01*
X141343095Y-126753952D01*
X141390714Y-126801571D01*
X141438333Y-126896809D01*
X141438333Y-127134904D01*
X141390714Y-127230142D01*
X141343095Y-127277761D01*
X141247857Y-127325380D01*
X140962142Y-127325380D01*
X140866904Y-127277761D01*
X140819285Y-127230142D01*
X142057380Y-126325380D02*
X142152619Y-126325380D01*
X142247857Y-126373000D01*
X142295476Y-126420619D01*
X142343095Y-126515857D01*
X142390714Y-126706333D01*
X142390714Y-126944428D01*
X142343095Y-127134904D01*
X142295476Y-127230142D01*
X142247857Y-127277761D01*
X142152619Y-127325380D01*
X142057380Y-127325380D01*
X141962142Y-127277761D01*
X141914523Y-127230142D01*
X141866904Y-127134904D01*
X141819285Y-126944428D01*
X141819285Y-126706333D01*
X141866904Y-126515857D01*
X141914523Y-126420619D01*
X141962142Y-126373000D01*
X142057380Y-126325380D01*
X143343095Y-127325380D02*
X142771666Y-127325380D01*
X143057380Y-127325380D02*
X143057380Y-126325380D01*
X142962142Y-126468238D01*
X142866904Y-126563476D01*
X142771666Y-126611095D01*
%TO.C,C301*%
X143232142Y-123928047D02*
X143279761Y-123975666D01*
X143327380Y-124118523D01*
X143327380Y-124213761D01*
X143279761Y-124356619D01*
X143184523Y-124451857D01*
X143089285Y-124499476D01*
X142898809Y-124547095D01*
X142755952Y-124547095D01*
X142565476Y-124499476D01*
X142470238Y-124451857D01*
X142375000Y-124356619D01*
X142327380Y-124213761D01*
X142327380Y-124118523D01*
X142375000Y-123975666D01*
X142422619Y-123928047D01*
X142327380Y-123594714D02*
X142327380Y-122975666D01*
X142708333Y-123309000D01*
X142708333Y-123166142D01*
X142755952Y-123070904D01*
X142803571Y-123023285D01*
X142898809Y-122975666D01*
X143136904Y-122975666D01*
X143232142Y-123023285D01*
X143279761Y-123070904D01*
X143327380Y-123166142D01*
X143327380Y-123451857D01*
X143279761Y-123547095D01*
X143232142Y-123594714D01*
X142327380Y-122356619D02*
X142327380Y-122261380D01*
X142375000Y-122166142D01*
X142422619Y-122118523D01*
X142517857Y-122070904D01*
X142708333Y-122023285D01*
X142946428Y-122023285D01*
X143136904Y-122070904D01*
X143232142Y-122118523D01*
X143279761Y-122166142D01*
X143327380Y-122261380D01*
X143327380Y-122356619D01*
X143279761Y-122451857D01*
X143232142Y-122499476D01*
X143136904Y-122547095D01*
X142946428Y-122594714D01*
X142708333Y-122594714D01*
X142517857Y-122547095D01*
X142422619Y-122499476D01*
X142375000Y-122451857D01*
X142327380Y-122356619D01*
X143327380Y-121070904D02*
X143327380Y-121642333D01*
X143327380Y-121356619D02*
X142327380Y-121356619D01*
X142470238Y-121451857D01*
X142565476Y-121547095D01*
X142613095Y-121642333D01*
%TO.C,Y301*%
X178022428Y-107799190D02*
X178022428Y-108275380D01*
X177689095Y-107275380D02*
X178022428Y-107799190D01*
X178355761Y-107275380D01*
X178593857Y-107275380D02*
X179212904Y-107275380D01*
X178879571Y-107656333D01*
X179022428Y-107656333D01*
X179117666Y-107703952D01*
X179165285Y-107751571D01*
X179212904Y-107846809D01*
X179212904Y-108084904D01*
X179165285Y-108180142D01*
X179117666Y-108227761D01*
X179022428Y-108275380D01*
X178736714Y-108275380D01*
X178641476Y-108227761D01*
X178593857Y-108180142D01*
X179831952Y-107275380D02*
X179927190Y-107275380D01*
X180022428Y-107323000D01*
X180070047Y-107370619D01*
X180117666Y-107465857D01*
X180165285Y-107656333D01*
X180165285Y-107894428D01*
X180117666Y-108084904D01*
X180070047Y-108180142D01*
X180022428Y-108227761D01*
X179927190Y-108275380D01*
X179831952Y-108275380D01*
X179736714Y-108227761D01*
X179689095Y-108180142D01*
X179641476Y-108084904D01*
X179593857Y-107894428D01*
X179593857Y-107656333D01*
X179641476Y-107465857D01*
X179689095Y-107370619D01*
X179736714Y-107323000D01*
X179831952Y-107275380D01*
X181117666Y-108275380D02*
X180546238Y-108275380D01*
X180831952Y-108275380D02*
X180831952Y-107275380D01*
X180736714Y-107418238D01*
X180641476Y-107513476D01*
X180546238Y-107561095D01*
D14*
%TO.C,J103*%
X122655000Y-138011000D02*
X122655000Y-134781000D01*
X120855000Y-132861000D02*
X121935000Y-132861000D01*
X116635000Y-132861000D02*
X116635000Y-132431000D01*
X114835000Y-142181000D02*
X114835000Y-140231000D01*
X122655000Y-142181000D02*
X122655000Y-140231000D01*
X115555000Y-132861000D02*
X116635000Y-132861000D01*
X114835000Y-138011000D02*
X114835000Y-134781000D01*
X122655000Y-142181000D02*
X114835000Y-142181000D01*
%TO.C,J101*%
X111125000Y-52137000D02*
X112455000Y-52137000D01*
X107255000Y-103057000D02*
X112455000Y-103057000D01*
X109855000Y-52137000D02*
X109855000Y-54737000D01*
X112455000Y-52137000D02*
X112455000Y-53467000D01*
X107255000Y-52137000D02*
X107255000Y-103057000D01*
X112455000Y-54737000D02*
X112455000Y-103057000D01*
X107255000Y-52137000D02*
X109855000Y-52137000D01*
X109855000Y-54737000D02*
X112455000Y-54737000D01*
%TO.C,Q303*%
X175465500Y-124170000D02*
X176115500Y-124170000D01*
X175465500Y-127290000D02*
X176115500Y-127290000D01*
X175465500Y-127290000D02*
X174815500Y-127290000D01*
X175465500Y-124170000D02*
X173790500Y-124170000D01*
%TO.C,C302*%
X135348500Y-115348000D02*
X132808500Y-115348000D01*
X134078500Y-116618000D02*
X134078500Y-114078000D01*
X137888500Y-110268000D02*
X140428500Y-110268000D01*
X140428500Y-115348000D02*
X137888500Y-115348000D01*
X135348500Y-110268000D02*
X132808500Y-110268000D01*
X140428500Y-115348000D02*
X137888500Y-115348000D01*
X137888500Y-117888000D02*
X107408500Y-117888000D01*
X107408500Y-117888000D02*
X107408500Y-107728000D01*
X107408500Y-107728000D02*
X137888500Y-107728000D01*
X137888500Y-107728000D02*
X137888500Y-117888000D01*
%TO.C,C308*%
X160795580Y-128526000D02*
X160514420Y-128526000D01*
X160795580Y-127506000D02*
X160514420Y-127506000D01*
%TO.C,R211*%
X181626742Y-95772500D02*
X182101258Y-95772500D01*
X181626742Y-94727500D02*
X182101258Y-94727500D01*
%TO.C,U302*%
X192332000Y-120461000D02*
X188332000Y-120461000D01*
X192332000Y-123461000D02*
X189332000Y-123461000D01*
%TO.C,C305*%
X164209000Y-105523420D02*
X164209000Y-105804580D01*
X165229000Y-105523420D02*
X165229000Y-105804580D01*
%TO.C,R307*%
X192009500Y-109965258D02*
X192009500Y-109490742D01*
X193054500Y-109965258D02*
X193054500Y-109490742D01*
%TO.C,Q301*%
X190282000Y-105791000D02*
X190282000Y-104116000D01*
X187162000Y-105791000D02*
X187162000Y-106441000D01*
X190282000Y-105791000D02*
X190282000Y-106441000D01*
X187162000Y-105791000D02*
X187162000Y-105141000D01*
%TO.C,J104*%
X178985000Y-128001000D02*
X178985000Y-126471000D01*
X192655000Y-144001000D02*
X192655000Y-137221000D01*
X179455000Y-135021000D02*
X179455000Y-126001000D01*
X179455000Y-144001000D02*
X179455000Y-137221000D01*
D15*
X192655000Y-143881000D02*
X192655000Y-144001000D01*
D14*
X192655000Y-144001000D02*
X179455000Y-144001000D01*
X179455000Y-126001000D02*
X192655000Y-126001000D01*
D15*
X179455000Y-134951000D02*
X179455000Y-135021000D01*
X192655000Y-143991000D02*
X192655000Y-144001000D01*
D14*
X192655000Y-126001000D02*
X192655000Y-135021000D01*
%TO.C,R219*%
X137620742Y-127747500D02*
X138095258Y-127747500D01*
X137620742Y-128792500D02*
X138095258Y-128792500D01*
%TO.C,U304*%
X168579000Y-126809000D02*
X168579000Y-126544000D01*
X160859000Y-126809000D02*
X160859000Y-126544000D01*
X164719000Y-126809000D02*
X160859000Y-126809000D01*
X164719000Y-126809000D02*
X168579000Y-126809000D01*
X168579000Y-111189000D02*
X168579000Y-111454000D01*
X160859000Y-111454000D02*
X159044000Y-111454000D01*
X160859000Y-111189000D02*
X160859000Y-111454000D01*
X164719000Y-111189000D02*
X160859000Y-111189000D01*
X164719000Y-111189000D02*
X168579000Y-111189000D01*
%TO.C,R218*%
X182012000Y-59278436D02*
X182012000Y-60732564D01*
X180192000Y-59278436D02*
X180192000Y-60732564D01*
%TO.C,D301*%
X145237000Y-129929000D02*
X141352000Y-129929000D01*
X141352000Y-132199000D02*
X145237000Y-132199000D01*
X141352000Y-129929000D02*
X141352000Y-132199000D01*
%TO.C,R104*%
X111110500Y-135492258D02*
X111110500Y-135017742D01*
X112155500Y-135492258D02*
X112155500Y-135017742D01*
%TO.C,U301*%
X177453000Y-115010000D02*
X175763000Y-115010000D01*
X177453000Y-120685000D02*
X177453000Y-119940000D01*
X182973000Y-120685000D02*
X182973000Y-119940000D01*
X180213000Y-114265000D02*
X182973000Y-114265000D01*
X180213000Y-120685000D02*
X182973000Y-120685000D01*
X180213000Y-120685000D02*
X177453000Y-120685000D01*
X182973000Y-114265000D02*
X182973000Y-115010000D01*
X177453000Y-114265000D02*
X177453000Y-115010000D01*
X180213000Y-114265000D02*
X177453000Y-114265000D01*
%TO.C,R208*%
X117999742Y-70724500D02*
X118474258Y-70724500D01*
X117999742Y-71769500D02*
X118474258Y-71769500D01*
%TO.C,R203*%
X114951742Y-60564500D02*
X115426258Y-60564500D01*
X114951742Y-61609500D02*
X115426258Y-61609500D01*
%TO.C,R216*%
X131811500Y-132317258D02*
X131811500Y-131842742D01*
X132856500Y-132317258D02*
X132856500Y-131842742D01*
%TO.C,R303*%
X181626742Y-92187500D02*
X182101258Y-92187500D01*
X181626742Y-93232500D02*
X182101258Y-93232500D01*
%TO.C,R213*%
X121553500Y-129650258D02*
X121553500Y-129175742D01*
X120508500Y-129650258D02*
X120508500Y-129175742D01*
%TO.C,R302*%
X193404258Y-92089500D02*
X192929742Y-92089500D01*
X193404258Y-91044500D02*
X192929742Y-91044500D01*
%TO.C,R209*%
X114888742Y-75804500D02*
X115363258Y-75804500D01*
X114888742Y-76849500D02*
X115363258Y-76849500D01*
%TO.C,R207*%
X114887742Y-71769500D02*
X115362258Y-71769500D01*
X114887742Y-70724500D02*
X115362258Y-70724500D01*
%TO.C,U201*%
X132969000Y-101199000D02*
X129519000Y-101199000D01*
X132969000Y-106319000D02*
X131019000Y-106319000D01*
X132969000Y-101199000D02*
X134919000Y-101199000D01*
X132969000Y-106319000D02*
X134919000Y-106319000D01*
%TO.C,R201*%
X114951742Y-55484500D02*
X115426258Y-55484500D01*
X114951742Y-56529500D02*
X115426258Y-56529500D01*
%TO.C,J105*%
X135680000Y-135831000D02*
X133880000Y-135831000D01*
X129010000Y-135831000D02*
X129010000Y-134841000D01*
X128480000Y-140101000D02*
X134410000Y-140101000D01*
X127210000Y-135831000D02*
X129010000Y-135831000D01*
X135680000Y-137281000D02*
X135680000Y-135831000D01*
X127210000Y-137281000D02*
X127210000Y-135831000D01*
%TO.C,C202*%
X106693580Y-75817000D02*
X106412420Y-75817000D01*
X106693580Y-76837000D02*
X106412420Y-76837000D01*
%TO.C,R202*%
X118062742Y-55484500D02*
X118537258Y-55484500D01*
X118062742Y-56529500D02*
X118537258Y-56529500D01*
%TO.C,R220*%
X134761500Y-131906742D02*
X134761500Y-132381258D01*
X133716500Y-131906742D02*
X133716500Y-132381258D01*
%TO.C,R102*%
X106821500Y-135492258D02*
X106821500Y-135017742D01*
X105776500Y-135492258D02*
X105776500Y-135017742D01*
%TO.C,R306*%
X188199500Y-109965258D02*
X188199500Y-109490742D01*
X189244500Y-109965258D02*
X189244500Y-109490742D01*
%TO.C,R217*%
X131811500Y-129142258D02*
X131811500Y-128667742D01*
X132856500Y-129142258D02*
X132856500Y-128667742D01*
%TO.C,J301*%
X164496095Y-144546000D02*
X164496095Y-135916000D01*
X165086570Y-144546000D02*
X165086570Y-135916000D01*
X177078000Y-144546000D02*
X177078000Y-135916000D01*
X165677045Y-144546000D02*
X165677045Y-135916000D01*
X176108000Y-135916000D02*
X176108000Y-135506000D01*
X175388000Y-135916000D02*
X175388000Y-135506000D01*
X165228000Y-135916000D02*
X165228000Y-135506000D01*
X165795140Y-144546000D02*
X165795140Y-135916000D01*
X164258000Y-131916000D02*
X164258000Y-130806000D01*
X170308000Y-135916000D02*
X170308000Y-135506000D01*
X166621805Y-144546000D02*
X166621805Y-135916000D01*
X171938000Y-144546000D02*
X171938000Y-135916000D01*
X165558950Y-144546000D02*
X165558950Y-135916000D01*
X174478000Y-144546000D02*
X174478000Y-135916000D01*
X171028000Y-133406000D02*
X171028000Y-132966000D01*
X164614190Y-144546000D02*
X164614190Y-135916000D01*
X165204665Y-144546000D02*
X165204665Y-135916000D01*
X165948000Y-135916000D02*
X165948000Y-135506000D01*
X165948000Y-133406000D02*
X165948000Y-133026000D01*
X166385615Y-144546000D02*
X166385615Y-135916000D01*
X164732285Y-144546000D02*
X164732285Y-135916000D01*
X164258000Y-144546000D02*
X177078000Y-144546000D01*
X164258000Y-130806000D02*
X165588000Y-130806000D01*
X166149425Y-144546000D02*
X166149425Y-135916000D01*
X169398000Y-144546000D02*
X169398000Y-135916000D01*
X173568000Y-133406000D02*
X173568000Y-132966000D01*
X170308000Y-133406000D02*
X170308000Y-132966000D01*
X173568000Y-135916000D02*
X173568000Y-135506000D01*
X166267520Y-144546000D02*
X166267520Y-135916000D01*
X166031330Y-144546000D02*
X166031330Y-135916000D01*
X166503710Y-144546000D02*
X166503710Y-135916000D01*
X167768000Y-135916000D02*
X167768000Y-135506000D01*
X166858000Y-144546000D02*
X166858000Y-135916000D01*
X175388000Y-133406000D02*
X175388000Y-132966000D01*
X164850380Y-144546000D02*
X164850380Y-135916000D01*
X164968475Y-144546000D02*
X164968475Y-135916000D01*
X167768000Y-133406000D02*
X167768000Y-132966000D01*
X166739900Y-144546000D02*
X166739900Y-135916000D01*
X164378000Y-144546000D02*
X164378000Y-135916000D01*
X168488000Y-135916000D02*
X168488000Y-135506000D01*
X165322760Y-144546000D02*
X165322760Y-135916000D01*
X168488000Y-133406000D02*
X168488000Y-132966000D01*
X165913235Y-144546000D02*
X165913235Y-135916000D01*
X176108000Y-133406000D02*
X176108000Y-132966000D01*
X164258000Y-144546000D02*
X164258000Y-135916000D01*
X172848000Y-133406000D02*
X172848000Y-132966000D01*
X165440855Y-144546000D02*
X165440855Y-135916000D01*
X165228000Y-133406000D02*
X165228000Y-133026000D01*
X171028000Y-135916000D02*
X171028000Y-135506000D01*
X172848000Y-135916000D02*
X172848000Y-135506000D01*
X164258000Y-135916000D02*
X177078000Y-135916000D01*
%TO.C,Q302*%
X190972000Y-105791000D02*
X190972000Y-106441000D01*
X194092000Y-105791000D02*
X194092000Y-104116000D01*
X190972000Y-105791000D02*
X190972000Y-105141000D01*
X194092000Y-105791000D02*
X194092000Y-106441000D01*
%TO.C,R205*%
X114888742Y-66689500D02*
X115363258Y-66689500D01*
X114888742Y-65644500D02*
X115363258Y-65644500D01*
%TO.C,D101*%
X106525000Y-139081000D02*
X106025000Y-139081000D01*
X106525000Y-141081000D02*
X106025000Y-141081000D01*
X103525000Y-141081000D02*
X103775000Y-141331000D01*
X103525000Y-141081000D02*
X103025000Y-141081000D01*
X103025000Y-139081000D02*
X104025000Y-139081000D01*
X106025000Y-141081000D02*
X105775000Y-141331000D01*
X105625000Y-139081000D02*
G75*
G03*
X105625000Y-139081000I-100000J0D01*
G01*
%TO.C,U303*%
X168172000Y-101878000D02*
X171172000Y-101878000D01*
X168172000Y-104878000D02*
X172172000Y-104878000D01*
%TO.C,R204*%
X118062742Y-61609500D02*
X118537258Y-61609500D01*
X118062742Y-60564500D02*
X118537258Y-60564500D01*
%TO.C,Q201*%
X136235000Y-131318000D02*
X136235000Y-131968000D01*
X139355000Y-131318000D02*
X139355000Y-131968000D01*
X136235000Y-131318000D02*
X136235000Y-130668000D01*
X139355000Y-131318000D02*
X139355000Y-129643000D01*
%TO.C,R212*%
X193404258Y-93457500D02*
X192929742Y-93457500D01*
X193404258Y-94502500D02*
X192929742Y-94502500D01*
%TO.C,C203*%
X125590000Y-59537000D02*
X133825000Y-59537000D01*
X133825000Y-55017000D02*
X125590000Y-55017000D01*
X125590000Y-55017000D02*
X125590000Y-59537000D01*
%TO.C,R206*%
X118062742Y-65644500D02*
X118537258Y-65644500D01*
X118062742Y-66689500D02*
X118537258Y-66689500D01*
%TO.C,R210*%
X117999742Y-76849500D02*
X118474258Y-76849500D01*
X117999742Y-75804500D02*
X118474258Y-75804500D01*
%TO.C,R101*%
X103998500Y-135492258D02*
X103998500Y-135017742D01*
X105043500Y-135492258D02*
X105043500Y-135017742D01*
%TO.C,C306*%
X175768580Y-108583000D02*
X175487420Y-108583000D01*
X175768580Y-109603000D02*
X175487420Y-109603000D01*
%TO.C,R215*%
X193467258Y-97169500D02*
X192992742Y-97169500D01*
X193467258Y-96124500D02*
X192992742Y-96124500D01*
%TO.C,D102*%
X108605000Y-141081000D02*
X108105000Y-141081000D01*
X111605000Y-139081000D02*
X111105000Y-139081000D01*
X111105000Y-141081000D02*
X110855000Y-141331000D01*
X108605000Y-141081000D02*
X108855000Y-141331000D01*
X108105000Y-139081000D02*
X109105000Y-139081000D01*
X111605000Y-141081000D02*
X111105000Y-141081000D01*
X110705000Y-139081000D02*
G75*
G03*
X110705000Y-139081000I-100000J0D01*
G01*
%TO.C,R305*%
X179561258Y-101487500D02*
X179086742Y-101487500D01*
X179561258Y-100442500D02*
X179086742Y-100442500D01*
%TO.C,U202*%
X126390400Y-62611000D02*
X172110400Y-62611000D01*
X172110400Y-62611000D02*
X172110400Y-107924600D01*
X172110400Y-107924600D02*
X126390400Y-107924600D01*
X126390400Y-107924600D02*
X126390400Y-62611000D01*
%TO.C,J302*%
X152905805Y-144546000D02*
X152905805Y-135916000D01*
X152433425Y-144546000D02*
X152433425Y-135916000D01*
X151252475Y-144546000D02*
X151252475Y-135916000D01*
X152079140Y-144546000D02*
X152079140Y-135916000D01*
X151512000Y-135916000D02*
X151512000Y-135506000D01*
X150662000Y-144546000D02*
X150662000Y-135916000D01*
X152232000Y-133406000D02*
X152232000Y-133026000D01*
X153023900Y-144546000D02*
X153023900Y-135916000D01*
X150780095Y-144546000D02*
X150780095Y-135916000D01*
X159132000Y-135916000D02*
X159132000Y-135506000D01*
X157312000Y-133406000D02*
X157312000Y-132966000D01*
X151724855Y-144546000D02*
X151724855Y-135916000D01*
X154052000Y-133406000D02*
X154052000Y-132966000D01*
X152232000Y-135916000D02*
X152232000Y-135506000D01*
X159852000Y-135916000D02*
X159852000Y-135506000D01*
X160762000Y-144546000D02*
X160762000Y-135916000D01*
X157312000Y-135916000D02*
X157312000Y-135506000D01*
X156592000Y-133406000D02*
X156592000Y-132966000D01*
X162392000Y-133406000D02*
X162392000Y-132966000D01*
X151961045Y-144546000D02*
X151961045Y-135916000D01*
X159852000Y-133406000D02*
X159852000Y-132966000D01*
X152197235Y-144546000D02*
X152197235Y-135916000D01*
X153142000Y-144546000D02*
X153142000Y-135916000D01*
X150542000Y-135916000D02*
X163362000Y-135916000D01*
X161672000Y-133406000D02*
X161672000Y-132966000D01*
X163362000Y-144546000D02*
X163362000Y-135916000D01*
X150542000Y-144546000D02*
X150542000Y-135916000D01*
X151488665Y-144546000D02*
X151488665Y-135916000D01*
X151512000Y-133406000D02*
X151512000Y-133026000D01*
X159132000Y-133406000D02*
X159132000Y-132966000D01*
X150542000Y-130806000D02*
X151872000Y-130806000D01*
X154052000Y-135916000D02*
X154052000Y-135506000D01*
X151842950Y-144546000D02*
X151842950Y-135916000D01*
X152669615Y-144546000D02*
X152669615Y-135916000D01*
X158222000Y-144546000D02*
X158222000Y-135916000D01*
X152315330Y-144546000D02*
X152315330Y-135916000D01*
X152551520Y-144546000D02*
X152551520Y-135916000D01*
X150898190Y-144546000D02*
X150898190Y-135916000D01*
X150542000Y-144546000D02*
X163362000Y-144546000D01*
X150542000Y-131916000D02*
X150542000Y-130806000D01*
X154772000Y-135916000D02*
X154772000Y-135506000D01*
X155682000Y-144546000D02*
X155682000Y-135916000D01*
X151134380Y-144546000D02*
X151134380Y-135916000D01*
X162392000Y-135916000D02*
X162392000Y-135506000D01*
X156592000Y-135916000D02*
X156592000Y-135506000D01*
X161672000Y-135916000D02*
X161672000Y-135506000D01*
X151370570Y-144546000D02*
X151370570Y-135916000D01*
X152787710Y-144546000D02*
X152787710Y-135916000D01*
X151016285Y-144546000D02*
X151016285Y-135916000D01*
X154772000Y-133406000D02*
X154772000Y-132966000D01*
X151606760Y-144546000D02*
X151606760Y-135916000D01*
%TO.C,C201*%
X126518580Y-102741000D02*
X126237420Y-102741000D01*
X126518580Y-103761000D02*
X126237420Y-103761000D01*
%TO.C,R304*%
X184674742Y-122032500D02*
X185149258Y-122032500D01*
X184674742Y-123077500D02*
X185149258Y-123077500D01*
%TO.C,C304*%
X193320580Y-124331000D02*
X193039420Y-124331000D01*
X193320580Y-125351000D02*
X193039420Y-125351000D01*
%TO.C,Q304*%
X155067000Y-127290000D02*
X154417000Y-127290000D01*
X155067000Y-127290000D02*
X155717000Y-127290000D01*
X155067000Y-124170000D02*
X153392000Y-124170000D01*
X155067000Y-124170000D02*
X155717000Y-124170000D01*
%TO.C,R103*%
X110377500Y-135492258D02*
X110377500Y-135017742D01*
X109332500Y-135492258D02*
X109332500Y-135017742D01*
%TO.C,R214*%
X181626742Y-97394500D02*
X182101258Y-97394500D01*
X181626742Y-98439500D02*
X182101258Y-98439500D01*
%TO.C,C303*%
X180620580Y-113155000D02*
X180339420Y-113155000D01*
X180620580Y-114175000D02*
X180339420Y-114175000D01*
%TO.C,C307*%
X156437420Y-112524000D02*
X156718580Y-112524000D01*
X156437420Y-111504000D02*
X156718580Y-111504000D01*
%TO.C,SW101*%
X139825000Y-137841000D02*
X139825000Y-137611000D01*
X144865000Y-137841000D02*
X141465000Y-137841000D01*
X139825000Y-135011000D02*
X139825000Y-134501000D01*
X146505000Y-137841000D02*
X146505000Y-137611000D01*
X139825000Y-134501000D02*
X139305000Y-134501000D01*
X139305000Y-135011000D02*
X139305000Y-134501000D01*
X146505000Y-135011000D02*
X146505000Y-134501000D01*
X147025000Y-141511000D02*
X139305000Y-141511000D01*
X140365000Y-137841000D02*
X139825000Y-137841000D01*
X139305000Y-141511000D02*
X139305000Y-137611000D01*
X147025000Y-135011000D02*
X147025000Y-134501000D01*
X147025000Y-134501000D02*
X146505000Y-134501000D01*
X147025000Y-141511000D02*
X147025000Y-137611000D01*
X146505000Y-137841000D02*
X145965000Y-137841000D01*
%TO.C,J102*%
X184725000Y-103057000D02*
X189925000Y-103057000D01*
X184725000Y-52137000D02*
X184725000Y-103057000D01*
X184725000Y-52137000D02*
X187325000Y-52137000D01*
X187325000Y-54737000D02*
X189925000Y-54737000D01*
X189925000Y-52137000D02*
X189925000Y-53467000D01*
X187325000Y-52137000D02*
X187325000Y-54737000D01*
X188595000Y-52137000D02*
X189925000Y-52137000D01*
X189925000Y-54737000D02*
X189925000Y-103057000D01*
%TO.C,R301*%
X141588258Y-127747500D02*
X141113742Y-127747500D01*
X141588258Y-128792500D02*
X141113742Y-128792500D01*
%TO.C,C301*%
X137888500Y-120428000D02*
X140428500Y-120428000D01*
X135348500Y-120428000D02*
X132808500Y-120428000D01*
X135348500Y-125508000D02*
X132808500Y-125508000D01*
X134078500Y-126778000D02*
X134078500Y-124238000D01*
X140428500Y-125508000D02*
X137888500Y-125508000D01*
X140428500Y-125508000D02*
X137888500Y-125508000D01*
X137888500Y-128048000D02*
X107408500Y-128048000D01*
X107408500Y-128048000D02*
X107408500Y-117888000D01*
X107408500Y-117888000D02*
X137888500Y-117888000D01*
X137888500Y-117888000D02*
X137888500Y-128048000D01*
%TO.C,Y301*%
X174997000Y-106448000D02*
X174997000Y-105148000D01*
X174997000Y-104148000D02*
X174997000Y-102848000D01*
X174997000Y-106448000D02*
X175597000Y-106448000D01*
X182797000Y-102848000D02*
X183397000Y-102848000D01*
X183397000Y-106448000D02*
X182797000Y-106448000D01*
X174997000Y-102848000D02*
X175597000Y-102848000D01*
X183397000Y-102848000D02*
X183397000Y-106448000D01*
X177297000Y-102848000D02*
X181097000Y-102848000D01*
X181097000Y-106448000D02*
X177297000Y-106448000D01*
X174997000Y-105148000D02*
G75*
G03*
X174997000Y-104148000I0J500000D01*
G01*
%TD*%
M02*
