M48
; DRILL file {KiCad 5.1.9+dfsg1-1} date Wed Apr 28 20:40:01 2021
; FORMAT={-:-/ absolute / inch / decimal}
; #@! TF.CreationDate,2021-04-28T20:40:01+02:00
; #@! TF.GenerationSoftware,Kicad,Pcbnew,5.1.9+dfsg1-1
; #@! TF.FileFunction,Plated,1,2,PTH
FMAT,2
INCH
T1C0.0079
T2C0.0157
T3C0.0315
T4C0.0394
T5C0.0551
%
G90
G05
T1
X6.4494Y-3.1982
X6.4494Y-3.2494
X6.4494Y-3.3006
X6.4494Y-3.3518
X6.4762Y-4.2982
X6.4762Y-4.3494
X6.4762Y-4.4006
X6.4762Y-4.4518
X6.5006Y-3.1982
X6.5006Y-3.2494
X6.5006Y-3.3006
X6.5006Y-3.3518
X6.5274Y-4.2982
X6.5274Y-4.3494
X6.5274Y-4.4006
X6.5274Y-4.4518
X7.8494Y-3.2232
X7.8494Y-3.2744
X7.8494Y-3.3256
X7.8494Y-3.3768
X7.8494Y-4.2982
X7.8494Y-4.3494
X7.8494Y-4.4006
X7.8494Y-4.4518
X7.9006Y-3.2232
X7.9006Y-3.2744
X7.9006Y-3.3256
X7.9006Y-3.3768
X7.9006Y-4.2982
X7.9006Y-4.3494
X7.9006Y-4.4006
X7.9006Y-4.4518
T2
X5.94Y-5.63
X6.21Y-5.24
X6.21Y-5.34
X6.43Y-5.24
X6.575Y-3.4
X6.6Y-4.5
X6.6031Y-3.4719
X6.62Y-5.55
X6.625Y-3.45
X6.625Y-4.6
X6.675Y-4.6
X6.7Y-3.68
X6.725Y-4.6
X6.74Y-3.68
X6.75Y-2.9596
X6.75Y-3.14
X6.75Y-4.24
X6.79Y-5.22
X6.79Y-5.3
X6.941Y-3.891
X7.18Y-5.21
X7.43Y-4.6
X7.49Y-4.6
X7.49Y-5.21
X7.79Y-5.1
X7.83Y-5.44
X7.83Y-5.82
X7.86Y-4.95
X7.9Y-5.44
X7.9Y-5.72
X7.91Y-4.95
X7.9213Y-5.1087
X7.949Y-5.26
X7.96Y-4.88
X7.96Y-4.9917
X7.97Y-5.65
X7.9735Y-5.4394
X7.9891Y-3.5109
X8.01Y-5.97
X8.0291Y-3.5109
X8.04Y-5.44
X8.04Y-5.6
X8.06Y-3.37
X8.0691Y-3.5109
X8.07Y-4.45
X8.11Y-5.17
X8.22Y-5.97
X8.225Y-2.8975
X8.225Y-4.0475
X8.23Y-5.21
X8.25Y-5.6
X8.35Y-3.22
X8.41Y-4.88
X8.41Y-4.94
X8.42Y-5.97
X8.45Y-4.72
X8.4995Y-4.9241
X8.4995Y-4.9979
X8.57Y-5.05
X8.62Y-5.97
X8.65Y-4.72
X8.71Y-5.05
T3
X6.75Y-4.175
T4
X5.55Y-2.65
X5.55Y-2.75
X5.55Y-2.85
X5.55Y-2.95
X5.55Y-3.05
X5.55Y-3.15
X5.55Y-3.25
X5.55Y-3.35
X5.55Y-3.45
X5.55Y-3.55
X5.55Y-3.65
X5.55Y-3.75
X5.55Y-3.85
X5.55Y-3.95
X5.55Y-4.05
X5.55Y-4.15
X5.55Y-4.25
X5.55Y-4.35
X5.55Y-4.45
X5.55Y-4.55
X5.65Y-2.65
X5.65Y-2.75
X5.65Y-2.85
X5.65Y-2.95
X5.65Y-3.05
X5.65Y-3.15
X5.65Y-3.25
X5.65Y-3.35
X5.65Y-3.45
X5.65Y-3.55
X5.65Y-3.65
X5.65Y-3.75
X5.65Y-3.85
X5.65Y-3.95
X5.65Y-4.05
X5.65Y-4.15
X5.65Y-4.25
X5.65Y-4.35
X5.65Y-4.45
X5.65Y-4.55
X8.6Y-2.65
X8.6Y-2.75
X8.6Y-2.85
X8.6Y-2.95
X8.6Y-3.05
X8.6Y-3.15
X8.6Y-3.25
X8.6Y-3.35
X8.6Y-3.45
X8.6Y-3.55
X8.6Y-3.65
X8.6Y-3.75
X8.6Y-3.85
X8.6Y-3.95
X8.6Y-4.05
X8.6Y-4.15
X8.6Y-4.25
X8.6Y-4.35
X8.6Y-4.45
X8.6Y-4.55
X8.7Y-2.65
X8.7Y-2.75
X8.7Y-2.85
X8.7Y-2.95
X8.7Y-3.05
X8.7Y-3.15
X8.7Y-3.25
X8.7Y-3.35
X8.7Y-3.45
X8.7Y-3.55
X8.7Y-3.65
X8.7Y-3.75
X8.7Y-3.85
X8.7Y-3.95
X8.7Y-4.05
X8.7Y-4.15
X8.7Y-4.25
X8.7Y-4.35
X8.7Y-4.45
X8.7Y-4.55
T5
X5.7Y-5.9
X5.9Y-5.9
T0
M30
